<svg width="321" height="35" viewBox="0 0 321 35" fill="none" xmlns="http://www.w3.org/2000/svg">
<path d="M320.628 17.6411C321.065 17.362 321.185 17.1983 320.614 16.8864C319.72 16.3976 318.876 15.8665 318.059 15.3149C317.108 14.6729 316.329 13.9232 315.259 13.363C313.76 12.5777 313.698 12.5345 314.826 11.5147C316.931 9.61135 317.372 7.54661 316.349 5.32546C315.529 3.54353 313.93 2.12855 311.468 1.17962C309.777 0.528048 307.898 0.0683552 305.924 0.130648C302.731 0.231588 299.537 0.189741 296.344 0.279315C294.049 0.343881 291.744 0.28795 289.441 0.235661C286.443 0.167912 283.44 0.172027 280.436 0.258418C278.17 0.323438 275.894 0.222477 273.621 0.220203C270.845 0.217475 268.069 0.267498 265.294 0.244764C262.548 0.222484 259.803 0.273408 257.056 0.221119C254.538 0.173377 252.012 0.174282 249.494 0.22839C243.641 0.354339 237.786 0.277953 231.932 0.287502C218.242 0.309781 204.552 0.29524 190.862 0.302515C186.713 0.304789 182.565 0.340702 178.417 0.340702C173.166 0.340702 167.915 0.314799 162.665 0.309342C155.908 0.302067 149.151 0.302981 142.395 0.302071C127.852 0.299798 113.309 0.300252 98.7659 0.29616C93.8343 0.294796 88.9034 0.27296 83.9726 0.278871C73.1838 0.291602 62.3958 0.321609 51.6078 0.333431C47.6326 0.337978 43.6567 0.285248 39.6816 0.307983C37.2549 0.322078 34.8262 0.332982 32.4024 0.322525C28.8027 0.306611 25.2008 0.421654 21.6018 0.233413C19.8519 0.233413 18.1013 0.210205 16.3535 0.242488C15.3831 0.260221 14.3918 0.232025 13.4452 0.396622C10.1188 0.974986 7.54817 2.19628 5.90735 4.19145C5.25228 4.98807 4.78667 5.83697 4.69089 6.72907C4.48116 8.68786 5.11036 10.5085 7.14339 12.0426C7.49714 12.3095 7.50552 12.5141 7.08256 12.7873C5.6298 13.7263 4.26093 14.7198 2.7851 15.6428C1.97552 16.1488 1.42532 16.8477 0.215158 17.0864C-0.223886 17.1728 0.110979 17.4138 0.322111 17.5402C2.66205 18.9375 4.78317 20.477 7.06438 21.9129C8.22421 22.6427 8.19485 22.655 7.18533 23.503C5.66895 24.777 4.98241 26.2657 5.0719 27.8302C5.25017 30.9653 8.35914 33.5029 12.9523 34.5087C14.4918 34.8461 16.0676 34.752 17.6371 34.7524C26.9234 34.7561 36.2091 34.7547 45.4961 34.7515C50.1508 34.7501 54.8062 34.7488 59.4609 34.7351C66.1165 34.7156 72.7721 34.6729 79.4283 34.6624C88.5867 34.6483 97.7451 34.6533 106.904 34.6538C109.983 34.6538 113.061 34.671 116.14 34.6701C125.775 34.667 135.409 34.6556 145.044 34.6551C147.744 34.6551 150.445 34.6397 153.146 34.6347C157.522 34.6265 161.899 34.5578 166.277 34.5765C168.55 34.586 170.825 34.6551 173.094 34.6069C174.971 34.5669 176.844 34.6265 178.719 34.6051C182.54 34.561 186.364 34.5951 190.187 34.5933C194.732 34.591 199.277 34.5742 203.823 34.5833C207.772 34.591 211.721 34.6592 215.67 34.6415C220.897 34.6174 226.124 34.6242 231.352 34.5701C235.876 34.5233 240.404 34.6319 244.928 34.5924C249.609 34.5515 254.289 34.5687 258.971 34.5537C265.98 34.5314 272.989 34.5237 279.998 34.5187C283.649 34.5165 287.299 34.4482 290.952 34.5328C292.924 34.5783 294.902 34.576 296.881 34.5105C299.024 34.4396 301.171 34.4319 303.313 34.6369C305.308 34.8279 307.284 34.8129 309.207 34.2895C312.166 33.4843 314.37 32.1598 315.591 30.2519C317.266 27.637 316.608 25.1699 314.065 22.896C313.458 22.3526 313.438 22.2903 314.145 21.8306C316.295 20.4293 318.454 19.0302 320.628 17.6411ZM307.076 1.81253C310.788 2.00668 314.958 4.24966 314.726 7.44293C314.476 10.8786 310.681 13.207 305.044 12.9588C300.925 12.7774 297.318 10.2352 297.511 7.53115C297.473 4.29286 301.178 1.5047 307.076 1.81253ZM7.07976 7.59254C7.11052 4.3106 10.848 1.84208 15.7341 1.98304C20.5091 1.80298 24.2612 4.55113 24.2528 7.64255C24.2451 10.6499 20.5161 13.112 16.0005 13.1574C10.2761 13.2147 7.0525 10.4534 7.07976 7.59254ZM6.43727 14.361C6.53655 13.9373 6.98329 13.5276 7.3762 13.1588C7.81943 12.7423 8.13543 12.7664 8.88208 13.1338C10.9612 14.1569 13.2781 14.7366 15.9166 14.6729C21.0299 14.5493 25.3064 12.2104 26.3103 8.96252C26.9066 7.03328 26.325 5.26271 24.7981 3.59537C24.3598 3.11658 23.7823 2.71282 23.1629 2.33315C23.0014 2.23403 22.7553 2.1581 22.8623 1.98259C22.9609 1.81981 23.2265 1.81845 23.446 1.82255C25.0966 1.85301 26.7473 1.81481 28.3979 1.81208C37.9618 1.79708 47.5277 1.88754 57.0888 1.77615C64.6959 1.68748 72.2988 1.75342 79.9037 1.74387C88.4888 1.73296 97.0747 1.7175 105.661 1.71295C118.653 1.70613 131.645 1.70569 144.638 1.70524C155.777 1.70478 166.916 1.70477 178.055 1.70932C185.564 1.7125 193.073 1.73297 200.582 1.7316C215.353 1.72842 230.123 1.71387 244.894 1.7066C250.477 1.70387 256.06 1.68295 261.642 1.71523C267.347 1.74842 273.051 1.70932 278.755 1.72114C282.408 1.72842 286.06 1.71067 289.714 1.76296C292.559 1.80343 295.41 1.70478 298.257 1.80981C298.487 1.81845 298.812 1.71795 298.926 1.90983C299.034 2.0917 298.73 2.19038 298.559 2.29769C296.67 3.48488 295.614 4.95578 295.254 6.61767C294.938 8.07404 295.461 9.46494 296.543 10.7485C298.465 13.0288 301.435 14.2628 305.444 14.4897C308.073 14.6388 310.348 14.1132 312.435 13.1379C313.4 12.6869 313.488 12.685 314.306 13.2352C314.531 13.3871 314.734 13.5594 314.988 13.6872C316.111 14.2524 316.301 14.988 315.936 15.8219C315.528 16.7536 314.328 17.0255 313.065 17.1542C310.412 17.4238 307.737 17.3483 304.382 17.2642C303.39 17.2642 301.715 17.2579 300.04 17.2688C299.584 17.2715 299.261 17.1787 298.92 16.9682C296.857 15.6905 294.932 14.3224 292.859 13.0552C290.127 11.3851 287.547 9.6177 284.858 7.92035C284.84 7.90898 284.813 7.89991 284.805 7.88627C284.372 7.06237 283.358 7.20605 282.348 7.21378C259.297 7.3902 236.245 7.29652 213.193 7.31971C208.437 7.32471 203.678 7.28106 198.924 7.34835C195.524 7.39655 192.122 7.36563 188.726 7.35199C185.574 7.33926 182.426 7.42747 179.275 7.38973C175.701 7.34744 172.124 7.40337 168.549 7.38154C162.496 7.34426 156.443 7.4361 150.39 7.38518C145.76 7.34608 141.129 7.40929 136.497 7.41429C130.139 7.42111 123.782 7.41567 117.424 7.41612C99.6495 7.41749 81.8745 7.41656 64.1003 7.42156C60.676 7.42247 57.251 7.41931 53.8275 7.46341C49.7251 7.51661 45.6234 7.52343 41.521 7.48842C40.5709 7.48023 39.6201 7.4484 38.6735 7.39839C38.2854 7.37793 37.9834 7.43385 37.7276 7.61072C35.7931 8.94887 33.6916 10.1802 31.7326 11.4997C29.1452 13.2425 26.4697 14.9289 23.8914 16.6772C23.1895 17.1533 22.4162 17.3947 21.3738 17.3674C19.1283 17.3083 16.8765 17.2519 14.6316 17.2929C13.0796 17.321 11.5366 17.2392 9.98738 17.2574C7.18533 17.2897 6.06045 15.967 6.43727 14.361ZM206.121 27.0991C201.367 27.1014 196.611 27.1155 191.856 27.1169C184.85 27.1191 177.844 27.115 170.838 27.1137C166.61 27.1132 162.382 27.0646 158.156 27.1287C154.658 27.1814 151.164 27.1009 147.667 27.1364C142.469 27.1896 137.27 27.1609 132.071 27.17C129.602 27.1741 127.134 27.1891 124.665 27.191C118.866 27.195 113.067 27.1955 107.267 27.1941C102.768 27.1932 98.2695 27.1823 93.7707 27.1846C85.4365 27.1882 77.1031 27.2001 68.7689 27.2046C61.9645 27.2082 55.16 27.2064 48.3562 27.2069C45.3779 27.2069 42.3997 27.1973 39.4215 27.2132C38.7748 27.2169 38.2729 27.0923 37.7982 26.8154C34.8905 25.1199 32.171 23.3002 29.5395 21.4305C28.6195 20.7767 27.8267 19.9833 27.8693 19.0011C27.8728 18.9202 27.8644 18.8356 27.8959 18.7588C28.0092 18.4814 28.0182 18.1377 28.5055 18.0231C29.0257 17.9008 29.2291 18.2377 29.5186 18.4209C30.9531 19.3267 32.394 20.2288 33.8062 21.1495C35.5002 22.254 37.1606 23.3798 38.8482 24.4883C39.3041 24.7879 39.8151 25.0516 40.2849 25.3426C40.5981 25.5363 40.9554 25.5932 41.3783 25.595C46.4064 25.6145 51.4337 25.6596 56.4638 25.6391C65.0727 25.6037 73.6823 25.6841 82.2926 25.6932C89.5026 25.7009 96.7132 25.6755 103.923 25.6655C109.325 25.6578 114.727 25.6864 120.127 25.6332C125.133 25.5836 130.137 25.6191 135.143 25.6205C140.799 25.6218 146.455 25.5941 152.112 25.5923C166.658 25.5868 181.203 25.5946 195.748 25.5836C199.502 25.5809 203.256 25.5896 207.01 25.5491C210.861 25.5073 214.714 25.5773 218.566 25.5809C227.951 25.5891 237.337 25.585 246.722 25.5891C256.608 25.5932 266.494 25.6005 276.381 25.6086C277.429 25.6096 278.478 25.5609 279.528 25.6555C280.336 25.7282 281.061 25.5663 281.65 25.183C284.458 23.3529 287.269 21.5242 290.076 19.6931C290.869 19.1757 291.65 18.6501 292.446 18.1345C292.831 17.8853 293.111 18.0304 293.358 18.2582C293.997 18.8465 293.777 20.0337 293.007 20.7307C291.731 21.887 290.144 22.8473 288.581 23.8272C286.999 24.8188 285.422 25.8142 283.868 26.8236C283.485 27.0723 283.055 27.1059 282.569 27.105C277.439 27.0991 272.307 27.0909 267.176 27.0932C260.767 27.0964 254.359 27.1127 247.95 27.1164C240.666 27.1205 233.382 27.1173 226.098 27.1173C226.098 27.1109 226.098 27.1046 226.098 27.0982C219.439 27.0982 212.78 27.0959 206.121 27.0991ZM274.706 17.076C274.427 17.2456 274.139 17.0773 273.928 16.9364C273.194 16.448 272.456 15.9624 271.752 15.4564C271.446 15.2358 271.137 15.114 270.661 15.1154C266.081 15.1272 261.501 15.1167 256.921 15.1317C252.695 15.1458 248.469 15.2013 244.243 15.2067C234.456 15.2199 224.67 15.2127 214.884 15.2158C210.254 15.2172 205.625 15.1949 200.996 15.2354C197.771 15.2636 194.547 15.244 191.322 15.2422C187.202 15.2399 183.081 15.2299 178.961 15.2363C176.913 15.2395 174.864 15.3213 172.819 15.2809C168.942 15.204 165.066 15.2618 161.189 15.2313C158.967 15.2136 156.744 15.2718 154.522 15.2777C151.949 15.2845 149.376 15.2745 146.803 15.2668C142.528 15.254 138.252 15.219 133.977 15.2267C129.398 15.2349 124.82 15.2095 120.242 15.2604C116.244 15.3049 112.245 15.269 108.247 15.2663C104.122 15.2636 99.9977 15.2336 95.8743 15.264C93.6015 15.2808 91.3231 15.2995 89.0586 15.259C85.9566 15.2036 82.8582 15.2822 79.7583 15.2322C77.6617 15.1981 75.5608 15.2995 73.4621 15.2954C69.8134 15.2886 66.1647 15.199 62.5174 15.2336C58.9422 15.2677 55.3697 15.2345 51.7965 15.1999C50.3703 15.1863 49.1937 15.4141 48.3058 16.1589C48.2143 16.2357 48.1073 16.3053 48.001 16.3739C47.0034 17.0214 46.5042 16.9741 45.9603 16.1252C45.594 15.5523 45.5996 14.9398 45.9701 14.3665C46.2861 13.8772 46.8873 13.654 47.7487 13.6422C51.5267 13.5908 55.3033 13.6485 59.0806 13.6663C64.8106 13.6926 70.5412 13.6185 76.2711 13.6108C85.08 13.599 93.8888 13.6076 102.697 13.6076C102.697 13.5972 102.697 13.5867 102.697 13.5762C110.007 13.5762 117.317 13.5739 124.627 13.5767C132.061 13.5794 139.495 13.5903 146.929 13.5917C152.908 13.5926 158.888 13.584 164.866 13.5812C168.668 13.5794 172.47 13.5885 176.272 13.5781C181.173 13.564 186.074 13.5244 190.976 13.5153C198.209 13.5017 205.444 13.5067 212.678 13.5012C219.537 13.4962 226.396 13.4898 233.255 13.4812C237.706 13.4753 242.156 13.4566 246.608 13.4557C251.31 13.4544 256.011 13.4807 260.714 13.4425C264.615 13.4107 268.519 13.5203 272.419 13.4812C273.691 13.4685 274.546 13.7545 275.323 14.341C275.815 14.7125 276.185 15.0726 276.138 15.595C276.077 16.2716 275.376 16.6681 274.706 17.076ZM275.824 20.1156C275.074 20.7767 274.344 21.3528 272.81 21.3773C263.625 21.526 254.44 21.4141 245.256 21.4719C239.976 21.5051 234.695 21.4637 229.414 21.4578C227.262 21.4555 225.111 21.4573 222.959 21.4573C222.959 21.4464 222.959 21.436 222.959 21.4251C217.628 21.4251 212.296 21.421 206.964 21.426C197.828 21.4346 188.69 21.4501 179.553 21.4605C175.001 21.4655 170.449 21.4601 165.897 21.4701C161.571 21.4796 157.245 21.536 152.919 21.5101C149.217 21.4878 145.516 21.5165 141.815 21.5174C137.867 21.5183 133.916 21.4828 129.966 21.5169C125.638 21.5542 121.309 21.5374 116.981 21.5396C106.541 21.5455 96.1022 21.5515 85.6637 21.5528C76.1264 21.5542 66.5891 21.5574 57.0518 21.5442C54.0763 21.5401 51.1009 21.4755 48.1248 21.4605C47.2131 21.456 46.7587 21.0509 46.3994 20.6435C45.8904 20.066 45.5933 19.429 45.7464 18.7319C45.8408 18.3032 46.2616 18.0272 46.7126 17.7803C47.0964 17.5702 47.4166 17.8012 47.6718 17.9735C48.417 18.4764 49.1357 18.9952 49.9718 19.4403C50.262 19.5949 50.5444 19.6654 50.9184 19.6686C60.4285 19.745 69.9385 19.74 79.4486 19.7136C84.3508 19.7 89.2537 19.665 94.1566 19.7177C97.8332 19.7573 101.514 19.7804 105.189 19.7182C110.364 19.6299 115.537 19.7605 120.712 19.6809C125.915 19.6009 131.125 19.7077 136.328 19.6768C143.76 19.6327 151.192 19.7059 158.624 19.6127C161.774 19.5731 164.928 19.6627 168.078 19.6163C171.93 19.5595 175.781 19.5895 179.632 19.5763C182.632 19.5663 185.633 19.5595 188.634 19.5686C193.111 19.5822 197.589 19.6632 202.063 19.6181C215.277 19.4845 228.493 19.5786 241.708 19.5499C250.995 19.5299 260.281 19.5504 269.568 19.5526C271.416 19.9264 272.404 19.0911 273.48 18.3814C273.673 18.2545 273.849 18.1131 274.065 18.0049C274.36 17.8562 274.688 17.8562 274.927 18.0581C275.337 18.4055 275.726 18.7628 275.958 19.1821C276.142 19.5104 276.133 19.8437 275.824 20.1156ZM275.21 13.8413C275.036 13.7281 274.892 13.5903 274.766 13.4512C274.551 13.2129 274.228 13.1215 273.824 13.1288C269.295 13.2107 264.764 13.1597 260.233 13.1652C249.749 13.1779 239.264 13.1747 228.779 13.1838C224.552 13.1875 220.324 13.2157 216.097 13.2152C212.399 13.2147 208.697 13.1302 205.002 13.1911C200.273 13.2693 195.545 13.2552 190.816 13.2584C174.396 13.2689 157.975 13.263 141.555 13.267C132.869 13.2693 124.181 13.2834 115.494 13.2852C110.764 13.2861 106.034 13.2684 101.304 13.2684C97.6032 13.2684 93.9014 13.262 90.2003 13.293C78.7152 13.3889 67.2295 13.3534 55.7437 13.3575C52.82 13.3584 49.8984 13.2339 46.9726 13.3212C46.5063 13.3353 46.2295 13.4726 45.9498 13.6576C44.4796 14.632 43.0184 15.6123 41.5433 16.5835C40.8854 17.0169 40.6226 16.9755 40.2933 16.4139C39.5774 15.1945 39.776 14.6352 41.2378 13.7208C41.9048 13.3039 42.592 12.8983 43.2177 12.4563C43.7686 12.0676 44.3922 11.9275 45.2074 11.9284C53.2933 11.9384 61.38 11.9266 69.4666 11.9216C74.2213 11.9184 78.9774 11.9639 83.7307 11.9043C93.1687 11.7866 102.607 11.8602 112.044 11.8466C126.486 11.8257 140.929 11.843 155.372 11.8439C156.699 11.8439 158.026 11.8439 159.353 11.8439C159.353 11.8339 159.353 11.8234 159.353 11.8134C165.735 11.8134 172.118 11.8329 178.501 11.8075C184.027 11.7852 189.551 11.7666 195.078 11.7843C202.008 11.8066 208.939 11.7634 215.868 11.7584C222.076 11.7538 228.284 11.7666 234.492 11.7647C247.11 11.7616 259.726 11.7561 272.344 11.7457C273.515 11.7447 274.681 11.8725 275.858 11.7752C276.333 11.7357 276.816 11.8293 277.169 12.0657C278.266 12.7987 279.481 13.4589 280.437 14.2792C281.006 14.7671 281.48 15.2736 281.377 15.9242C281.336 16.1875 281.245 16.4367 280.994 16.6508C280.571 17.0119 280.185 17.0378 279.688 16.7209C278.191 15.7651 276.698 14.8053 275.21 13.8413ZM40.0794 18.0317C40.3618 17.6475 40.7834 17.5734 41.2511 17.8744C42.6717 18.7892 44.0629 19.7227 45.4765 20.6416C45.9526 20.9513 46.4427 21.2545 46.9608 21.5337C47.3313 21.7333 47.7787 21.8116 48.2849 21.8097C50.5109 21.8011 52.7382 21.7847 54.9628 21.8256C61.5694 21.9466 68.1775 21.8506 74.7848 21.8747C80.5882 21.8956 86.3929 21.8379 92.1963 21.8502C96.902 21.8602 101.607 21.8747 106.313 21.8543C110.468 21.8361 114.623 21.8939 118.777 21.8548C123.605 21.8088 128.431 21.7852 133.258 21.8115C137.36 21.8338 141.461 21.822 145.562 21.8302C148.739 21.8366 151.918 21.8511 155.095 21.8274C165.231 21.7515 175.367 21.8152 185.504 21.7852C192.086 21.7656 198.669 21.782 205.251 21.7806C207.951 21.7802 210.65 21.7711 213.35 21.7715C226.413 21.7752 239.476 21.7847 252.539 21.7838C255.817 21.7834 259.094 21.797 262.373 21.7379C264.669 21.6965 266.969 21.7597 269.268 21.7688C270.938 21.7752 272.61 21.6138 274.277 21.8111C274.576 21.8466 274.743 21.6915 274.827 21.5374C275.028 21.1677 275.456 20.919 275.863 20.6562C277.14 19.8309 278.412 19.0029 279.694 18.1804C280.36 17.7525 280.696 17.8153 281.192 18.3314C282.224 19.4049 281.725 20.538 280.473 21.3309C279.633 21.8634 278.807 22.4072 277.971 22.9414C277.265 23.392 276.463 23.3188 275.676 23.3507C274.555 23.3961 273.426 23.3625 272.3 23.3625C272.3 23.3566 272.3 23.3511 272.3 23.3452C266.673 23.3452 261.046 23.347 255.419 23.3448C248.863 23.3425 242.309 23.3966 235.752 23.3625C228.973 23.327 222.193 23.3925 215.413 23.398C205.526 23.4057 195.638 23.3993 185.75 23.3993C178.692 23.3993 171.634 23.3993 164.576 23.3984C156.144 23.3975 147.712 23.3934 139.279 23.3948C123.583 23.397 107.887 23.392 92.1921 23.4111C85.835 23.4189 79.4773 23.4193 73.1202 23.4411C63.736 23.473 54.3504 23.413 44.9662 23.3993C44.2622 23.3984 43.6987 23.2361 43.2373 22.9087C42.2298 22.1944 41.1029 21.5569 40.3751 20.6744C39.6522 19.7973 39.4047 18.9502 40.0794 18.0317ZM43.024 23.2538C43.5938 23.628 44.2489 23.7271 44.9913 23.7271C53.854 23.7312 62.716 23.7363 71.5787 23.7363C83.8677 23.7363 96.156 23.7308 108.445 23.7294C115.477 23.7285 122.508 23.7367 129.54 23.7271C132.567 23.7231 135.595 23.6512 138.621 23.6703C141.998 23.6917 145.374 23.7249 148.751 23.6885C152.226 23.6512 155.704 23.6448 159.18 23.6526C164.858 23.6653 170.536 23.7071 176.214 23.724C180.618 23.7367 185.022 23.7317 189.426 23.7303C193.052 23.7294 196.678 23.729 200.304 23.7162C205.429 23.6981 210.554 23.6567 215.679 23.6476C222.286 23.6358 228.893 23.6467 235.5 23.6462C239.878 23.6457 244.256 23.6412 248.634 23.6412C255.893 23.6412 263.151 23.6435 270.408 23.6458C272.483 23.6467 274.558 23.6435 276.633 23.6571C277.48 23.6626 278.133 23.4907 278.75 23.0788C281.083 21.5187 283.474 19.9955 285.851 18.4637C286.468 18.0667 286.722 18.0877 287.207 18.5432C287.843 19.1403 287.846 19.8055 287.548 20.4566C287.314 20.9717 286.809 21.4114 286.219 21.7965C284.965 22.6136 283.682 23.4116 282.46 24.2482C281.389 24.9825 280.192 25.3626 278.564 25.324C275.241 25.2449 271.911 25.2663 268.583 25.2585C265.107 25.2503 261.63 25.2567 258.154 25.2567C258.154 25.2581 258.154 25.2599 258.154 25.2612C254.928 25.2612 251.696 25.1903 248.475 25.2795C244.595 25.3872 240.719 25.2831 236.844 25.2808C230.488 25.2772 224.13 25.284 217.774 25.2626C213.219 25.2476 208.663 25.249 204.108 25.2663C199.81 25.2822 195.513 25.3104 191.215 25.2731C187.315 25.2394 183.411 25.2081 179.515 25.289C175.436 25.374 171.362 25.2231 167.287 25.2854C162.961 25.3513 158.635 25.2817 154.308 25.3295C148.404 25.3949 142.497 25.3258 136.591 25.329C124.3 25.3358 112.009 25.3522 99.7181 25.3649C93.4106 25.3713 87.1032 25.3858 80.7958 25.3827C70.6363 25.3781 60.476 25.3681 50.3165 25.3463C47.339 25.3399 44.3621 25.2854 41.3846 25.254C41.0777 25.2508 40.8009 25.2203 40.5541 25.0776C38.9468 24.1486 37.4493 23.1447 35.9923 22.1216C35.3701 21.6842 35.0639 21.0736 34.7297 20.4957C34.3865 19.9019 34.2257 19.3167 34.3354 18.6942C34.3725 18.4841 34.3907 18.245 34.7179 18.144C35.1101 18.0231 35.303 18.2745 35.5169 18.4114C38.0303 20.0196 40.5436 21.626 43.024 23.2538ZM286.765 17.271C286.291 17.4238 286.025 17.2315 285.723 17.0528C283.098 15.4973 280.569 13.8754 278.106 12.2144C277.239 11.6302 276.318 11.426 275.129 11.4296C270.754 11.4433 266.378 11.4074 262.003 11.4219C256.423 11.4406 250.844 11.4733 245.265 11.476C241.166 11.4778 237.064 11.4869 232.964 11.4819C228.71 11.4769 224.455 11.4829 220.201 11.4919C215.497 11.5024 210.793 11.4851 206.089 11.4869C200.056 11.4892 194.024 11.502 187.991 11.5047C179.207 11.5092 170.422 11.5097 161.638 11.5101C146.743 11.511 131.847 11.5101 116.951 11.5106C110.946 11.5106 104.94 11.5047 98.9343 11.516C95.7575 11.5224 92.5815 11.5783 89.4047 11.5811C74.8624 11.5938 60.3201 11.5956 45.7778 11.6011C45.6031 11.6011 45.4241 11.6133 45.2528 11.5965C44.0566 11.4778 43.2722 11.8466 42.4801 12.4022C40.596 13.7249 38.5973 14.9785 36.6481 16.2625C36.2447 16.5281 35.8693 16.8118 35.4582 17.0714C35.059 17.3233 34.7109 17.321 34.3536 16.9927C33.1553 15.8906 33.3546 14.6557 34.8458 13.7145C36.7285 12.5259 38.5763 11.3137 40.4205 10.0997C40.7694 9.87006 41.142 9.7914 41.6223 9.79322C47.5543 9.81141 53.487 9.82551 59.4197 9.83188C63.1725 9.83597 66.9254 9.82095 70.6782 9.8205C86.0986 9.81913 101.519 9.82005 116.939 9.82005C116.939 9.8105 116.939 9.80049 116.939 9.79094C127.454 9.79094 137.969 9.7955 148.484 9.78914C156.195 9.78459 163.905 9.74094 171.615 9.76322C175.495 9.77458 179.376 9.81413 183.255 9.77321C186.107 9.74274 188.961 9.72503 191.81 9.73821C195.76 9.7564 199.712 9.79277 203.66 9.74684C211.169 9.65954 218.679 9.71956 226.188 9.70183C234.024 9.68319 241.86 9.6973 249.696 9.69775C259.685 9.6982 269.674 9.70139 279.662 9.69547C280.199 9.69502 280.607 9.78504 280.99 10.0428C283.041 11.4224 285.117 12.7851 287.18 14.1569C287.529 14.3887 287.89 14.6211 288.099 14.9212C288.598 15.6405 287.857 16.9186 286.765 17.271ZM292.922 16.7481C292.545 16.9978 292.202 17 291.828 16.7554C290.93 16.1689 290.018 15.5914 289.126 15.0003C286.398 13.1898 283.672 11.3773 280.959 9.55769C280.696 9.38127 280.414 9.36172 280.082 9.36217C271.571 9.3699 263.059 9.37899 254.548 9.38035C247.215 9.38126 239.881 9.35172 232.549 9.37491C227.498 9.39128 222.446 9.374 217.395 9.39992C214.674 9.41356 211.948 9.48722 209.22 9.38809C207.526 9.32671 205.82 9.41127 204.119 9.41809C199.516 9.43628 194.913 9.45719 190.309 9.46083C177.493 9.47038 164.676 9.47359 151.859 9.47632C144.702 9.47768 137.544 9.47267 130.385 9.47085C125.256 9.46949 120.126 9.46768 114.996 9.46813C108.564 9.46859 102.132 9.46903 95.6995 9.47221C92.1746 9.47403 88.6483 9.45265 85.124 9.49266C79.9233 9.55132 74.7226 9.55996 69.5212 9.55769C65.0937 9.55587 60.6634 9.60272 56.2387 9.52724C51.3351 9.44358 46.4315 9.57178 41.5314 9.45356C40.8169 9.43628 40.3073 9.59726 39.8172 9.92282C36.4265 12.1758 33.0148 14.416 29.6087 16.6595C28.9418 17.0987 28.7376 17.0791 28.3014 16.5412C27.6386 15.7233 27.9134 14.4865 28.9565 13.8118C31.3845 12.2413 33.8314 10.683 36.2699 9.11982C36.6607 8.86883 37.0997 8.64195 37.4311 8.36141C38.089 7.80533 38.9461 7.73302 39.9528 7.74257C49.6873 7.83442 59.4225 7.73167 69.1569 7.70302C73.7599 7.68938 78.3636 7.72848 82.9658 7.70075C92.1501 7.64527 101.334 7.68301 110.518 7.65709C114.948 7.64482 119.379 7.65482 123.809 7.65482C133.873 7.65345 143.936 7.67802 154 7.64347C159.13 7.62573 164.26 7.63662 169.389 7.61843C174.067 7.60161 178.749 7.65801 183.429 7.61891C191.11 7.5548 198.792 7.70121 206.475 7.62118C211.776 7.56616 217.081 7.66118 222.383 7.6289C224.98 7.61298 227.578 7.68391 230.179 7.59343C232.146 7.52523 234.13 7.66438 236.102 7.62801C239.83 7.55935 243.556 7.65209 247.283 7.62754C259.219 7.54797 271.155 7.54979 283.091 7.55979C283.588 7.56025 283.94 7.67484 284.277 7.89446C287.142 9.75731 289.963 11.6497 292.91 13.4557C294.231 14.2642 293.971 16.0534 292.922 16.7481ZM16.1815 33.3433C11.1276 33.3456 7.15667 30.8908 7.35172 27.6393C7.57264 23.9563 10.9969 22.113 15.8704 21.957C21.0348 21.792 24.645 24.3924 24.7555 27.4069C24.8897 31.0686 20.5874 33.3083 16.1815 33.3433ZM313.966 27.6684C313.813 30.7975 310.265 33.1497 304.787 33.0496C300.423 33.0555 296.808 30.4615 296.733 27.4274C296.658 24.4383 300.509 21.4864 306.069 21.7929C310.163 22.0189 314.143 24.0377 313.966 27.6684ZM312.175 21.6715C307.95 19.5818 302.37 19.4794 298.116 21.8697C294.156 24.0954 293.162 27.5529 295.016 30.2501C295.536 31.0067 296.146 31.7351 297.068 32.3303C297.227 32.4335 297.414 32.5558 297.341 32.7082C297.258 32.8818 296.978 32.8414 296.759 32.855C295.112 32.9578 293.464 32.9228 291.812 32.9023C290.817 32.89 289.821 32.9696 288.82 32.9319C285.429 32.8041 282.038 32.9941 278.644 32.9423C275.394 32.8923 272.14 32.95 268.888 32.9505C258.902 32.9519 248.916 32.9459 238.93 32.9478C227.791 32.95 216.652 32.9523 205.513 32.9655C201.585 32.9701 197.657 33.0241 193.729 33.0228C189.326 33.021 184.923 32.9682 180.521 32.9623C176.494 32.9569 172.466 33.0233 168.44 32.9855C165.16 32.9546 161.882 32.9637 158.603 32.9619C155.655 32.96 152.705 33.0319 149.759 32.9946C146.91 32.9587 144.066 33.0819 141.213 32.9882C139.679 32.9378 138.12 33.0237 136.578 33.0269C122.016 33.0578 107.452 33.0341 92.8891 33.0596C88.1176 33.0678 83.3448 33.0355 78.5733 33.1342C76.2495 33.1824 73.9221 33.1469 71.5961 33.1483C58.7366 33.1565 45.8778 33.1619 33.0183 33.1742C31.0433 33.176 29.0683 33.2124 27.0933 33.2274C26.0698 33.2351 25.0505 33.0915 24.0228 33.1983C23.8508 33.216 23.6488 33.2083 23.553 33.0951C23.4355 32.9555 23.5886 32.8523 23.725 32.755C24.8443 31.957 25.7468 31.0781 26.3676 30.0646C27.2254 28.6641 27.0842 27.2528 26.541 25.8533C25.8503 24.0736 24.2766 22.6891 21.9345 21.6215C18.6445 20.1219 15.186 20.091 11.6037 20.9822C10.8144 21.1786 10.1517 21.6047 9.46445 21.9534C8.9541 22.2126 8.56048 22.1939 8.08788 21.9052C6.65819 21.0322 5.93672 20.0214 6.37576 18.7219C6.59668 18.0663 7.1392 17.7012 8.15361 17.6971C10.5558 17.6875 12.9586 17.6939 15.3615 17.6939C15.3615 17.7025 15.3615 17.7112 15.3615 17.7198C17.6644 17.7198 19.9672 17.7321 22.2694 17.7107C22.7959 17.7057 23.158 17.8062 23.5166 18.0445C26.3508 19.926 29.1914 21.8034 32.05 23.6694C33.7776 24.797 35.5463 25.8974 37.2836 27.0186C37.8534 27.3865 38.5217 27.537 39.3131 27.537C47.7745 27.5333 56.2359 27.5356 64.6973 27.5356C67.974 27.5356 71.2515 27.5429 74.5282 27.5324C82.0598 27.5083 89.5914 27.4674 97.1229 27.4492C100.372 27.4415 103.623 27.487 106.872 27.4847C114.602 27.4792 122.333 27.4515 130.063 27.4479C145.482 27.4406 160.901 27.4465 176.321 27.4392C181.276 27.437 186.232 27.4033 191.187 27.3951C199.19 27.3815 207.194 27.3751 215.196 27.3687C219.424 27.3656 223.651 27.366 227.878 27.371C233.381 27.3774 238.884 27.401 244.387 27.3974C250.862 27.3933 257.34 27.3251 263.815 27.3669C267.993 27.3938 272.169 27.3724 276.347 27.396C278.171 27.4065 280.002 27.3669 281.815 27.4647C283.167 27.5374 284.123 27.1628 284.986 26.6103C287.89 24.7516 290.766 22.8737 293.657 21.0063C295.267 19.9664 296.891 18.9347 298.501 17.8948C298.78 17.7143 299.074 17.5961 299.485 17.598C301.608 17.6057 303.729 17.6057 305.852 17.6089C307.177 17.6111 308.505 17.5752 309.826 17.6275C311.216 17.683 312.613 17.6075 314 17.7853C315.47 17.9735 316.371 19.1489 315.551 19.9614C314.978 20.5298 314.332 21.0695 313.672 21.5979C313.12 22.0366 312.882 22.0203 312.175 21.6715Z" fill="url(#paint0_linear_258_96)"/>
<path d="M305.338 23.1225C301.84 23.173 298.826 25.1568 298.833 27.5103C298.84 29.971 302.365 31.6579 305.1 31.6338C309.061 31.5938 311.58 29.6655 311.717 27.4662C311.84 25.4869 308.659 23.0748 305.338 23.1225Z" fill="url(#paint1_linear_258_96)"/>
<path d="M15.7048 11.7289C18.7193 11.8266 21.8675 9.89786 21.9576 7.78219C22.0667 5.22275 19.6156 3.59996 16.3962 3.34124C12.3756 3.01841 9.25332 5.50738 9.24842 7.32068C9.24213 9.68142 11.9198 11.6066 15.7048 11.7289Z" fill="url(#paint2_linear_258_96)"/>
<path d="M299.679 7.64381C299.87 9.83587 302.679 11.6064 306.013 11.6128C309.338 11.6192 312.368 9.84405 312.403 7.47922C312.47 5.40538 309.784 2.97736 305.874 3.15332C302.697 3.29655 299.456 5.09392 299.679 7.64381Z" fill="url(#paint3_linear_258_96)"/>
<path d="M15.9487 23.3039C12.4595 23.3594 9.3365 25.3164 9.43578 27.7335C9.53785 30.2097 12.3958 31.9448 15.9683 31.9635C19.926 31.9844 22.6211 29.795 22.5903 27.6894C22.5554 25.2582 19.4695 23.2471 15.9487 23.3039Z" fill="url(#paint4_linear_258_96)"/>
<defs>
<linearGradient id="paint0_linear_258_96" x1="-0.00122152" y1="17.4451" x2="321" y2="17.4451" gradientUnits="userSpaceOnUse">
<stop stop-color="#8A6441"/>
<stop offset="0.1507" stop-color="#8A6441"/>
<stop offset="0.4585" stop-color="#BFA889"/>
<stop offset="0.6129" stop-color="#D6C6A8"/>
<stop offset="0.7204" stop-color="#E0DCCF"/>
<stop offset="0.8387" stop-color="#D6C6A8"/>
<stop offset="1" stop-color="#8A6441"/>
</linearGradient>
<linearGradient id="paint1_linear_258_96" x1="298.833" y1="27.3778" x2="311.72" y2="27.3778" gradientUnits="userSpaceOnUse">
<stop stop-color="#8A6441"/>
<stop offset="0.1507" stop-color="#8A6441"/>
<stop offset="0.4585" stop-color="#BFA889"/>
<stop offset="0.6129" stop-color="#D6C6A8"/>
<stop offset="0.7204" stop-color="#E0DCCF"/>
<stop offset="0.8387" stop-color="#D6C6A8"/>
<stop offset="1" stop-color="#8A6441"/>
</linearGradient>
<linearGradient id="paint2_linear_258_96" x1="9.24863" y1="7.52265" x2="21.9615" y2="7.52265" gradientUnits="userSpaceOnUse">
<stop stop-color="#8A6441"/>
<stop offset="0.1507" stop-color="#8A6441"/>
<stop offset="0.4585" stop-color="#BFA889"/>
<stop offset="0.6129" stop-color="#D6C6A8"/>
<stop offset="0.7204" stop-color="#E0DCCF"/>
<stop offset="0.8387" stop-color="#D6C6A8"/>
<stop offset="1" stop-color="#8A6441"/>
</linearGradient>
<linearGradient id="paint3_linear_258_96" x1="299.668" y1="7.37869" x2="312.404" y2="7.37869" gradientUnits="userSpaceOnUse">
<stop stop-color="#8A6441"/>
<stop offset="0.1507" stop-color="#8A6441"/>
<stop offset="0.4585" stop-color="#BFA889"/>
<stop offset="0.6129" stop-color="#D6C6A8"/>
<stop offset="0.7204" stop-color="#E0DCCF"/>
<stop offset="0.8387" stop-color="#D6C6A8"/>
<stop offset="1" stop-color="#8A6441"/>
</linearGradient>
<linearGradient id="paint4_linear_258_96" x1="9.43403" y1="27.6331" x2="22.5914" y2="27.6331" gradientUnits="userSpaceOnUse">
<stop stop-color="#8A6441"/>
<stop offset="0.1507" stop-color="#8A6441"/>
<stop offset="0.4585" stop-color="#BFA889"/>
<stop offset="0.6129" stop-color="#D6C6A8"/>
<stop offset="0.7204" stop-color="#E0DCCF"/>
<stop offset="0.8387" stop-color="#D6C6A8"/>
<stop offset="1" stop-color="#8A6441"/>
</linearGradient>
</defs>
</svg>
