<svg width="81" height="276" viewBox="0 0 81 276" fill="none" xmlns="http://www.w3.org/2000/svg">
<path d="M-24.0131 45.036C-30.1021 54.983 -36.0351 65.028 -41.9231 75.096C-46.5461 83.001 -51.2651 90.849 -55.7961 98.81C-58.8031 104.093 -62.1031 109.21 -65.1971 114.449C-69.4301 121.617 -73.7801 128.717 -78.1711 135.789C-79.0551 137.212 -79.9521 138.374 -78.1321 139.663C-77.9781 139.772 -77.9241 140.018 -77.8201 140.199C-76.3481 142.772 -74.9071 145.364 -73.4511 147.945C-68.5161 156.694 -63.3061 165.288 -58.4631 174.086C-54.1711 181.884 -49.5321 189.479 -45.3281 197.328C-41.8651 203.793 -38.0811 210.084 -34.4691 216.47C-30.2461 223.936 -26.0421 231.412 -21.8581 238.899C-19.5071 243.106 -17.3501 247.427 -14.8631 251.55C-10.5131 258.761 -6.65608 266.25 -2.34308 273.479C-1.95208 274.135 -1.74208 275.183 -0.99408 275.272C-0.00208282 275.39 -0.0860825 274.178 0.289917 273.557C3.46392 268.301 6.75294 263.114 9.75494 257.753C12.6979 252.498 16.1509 247.547 19.0209 242.241C21.9919 236.748 25.5519 231.602 28.5989 226.146C31.4659 221.014 34.7459 216.124 37.6949 211.033C40.9269 205.454 44.3729 199.998 47.6689 194.453C53.4639 184.706 59.3709 175.026 65.2299 165.317C70.1249 157.205 75.0199 149.092 79.9079 140.976C80.0919 140.671 80.2059 140.323 80.3159 140.076C80.2189 139.439 79.9279 139.01 79.6689 138.555C76.0639 132.226 72.4489 125.902 68.8819 119.552C65.6279 113.76 62.4489 107.925 59.1969 102.131C55.4769 95.504 51.5729 88.977 48.0079 82.269C44.2469 75.192 40.0679 68.351 36.4269 61.207C34.5379 57.5 32.1769 54.035 30.2649 50.339C26.3679 42.803 21.8999 35.585 18.0839 27.999C15.5829 23.027 12.5389 18.331 9.89893 13.425C7.80293 9.52902 5.74493 5.61302 3.48993 1.80702C2.61693 0.333019 2.46992 0.325014 1.66492 1.85801C-1.81908 8.49701 -5.90808 14.785 -9.73608 21.216C-14.4691 29.17 -19.1801 37.141 -24.0131 45.036ZM-14.3851 32.113C-14.1061 31.567 -13.3751 31.835 -12.8141 31.853C-11.5701 31.892 -10.3211 31.943 -9.08008 31.878C-8.18908 31.832 -7.78907 32.198 -7.49707 33C-5.44907 38.621 -3.34408 44.221 -1.30408 49.845C-0.885078 51 -0.207077 52.074 -0.325073 53.488C-2.49507 50.326 -4.70311 47.189 -6.82611 43.996C-9.12911 40.533 -11.2751 36.965 -13.7631 33.626C-14.0901 33.187 -14.6471 32.628 -14.3851 32.113ZM37.5909 98.105C37.8399 98.373 38.1919 98.424 38.4429 98.244C39.3009 97.63 39.7729 98.221 40.2819 98.76C42.2869 100.881 44.5299 102.774 46.3389 105.082C46.6189 105.44 47.2479 105.699 46.7169 106.367C46.5229 106.611 46.7039 107.099 47.1039 106.97C48.6719 106.462 48.9109 108.067 49.8049 108.613C50.3399 108.939 49.9059 109.37 49.7159 109.693C45.7199 116.463 41.9299 123.354 37.7439 130.014C36.7339 131.621 36.3189 130.573 35.9319 129.805C33.9869 125.946 31.5579 122.362 29.5539 118.544C26.3089 112.363 22.5659 106.47 19.2429 100.336C18.7239 99.377 18.2879 98.373 17.7849 97.405C17.5719 96.994 17.4099 96.665 17.9649 96.389C18.3259 96.209 18.5139 95.892 18.2789 95.485C18.0329 95.06 17.6839 94.911 17.3419 95.125C16.5199 95.478 16.3129 94.931 16.0569 94.48C14.4909 91.722 12.9269 88.962 11.3629 86.203C11.1559 85.838 10.8809 85.507 11.5379 85.24C12.2569 84.948 12.0039 84.434 11.6869 83.968C11.3979 83.542 11.1769 82.969 10.5299 83.635C9.97091 84.21 9.80493 83.525 9.67993 83.233C8.37093 80.163 6.51893 77.382 5.02893 74.409C4.61193 73.578 4.59193 72.865 5.10992 72.072C6.13692 70.502 7.13092 68.909 8.09192 67.298C8.69492 66.288 9.24992 66.32 10.0269 67.133C15.4659 72.819 20.9389 78.472 26.3799 84.157C30.0889 88.032 33.7569 91.947 37.4589 95.828C37.9089 96.3 38.1859 96.679 37.6169 97.255C37.4079 97.464 37.3209 97.814 37.5909 98.105ZM67.2559 131.512C67.4259 133.081 67.015 133.881 65.1949 134.022C57.4949 134.62 49.8069 135.375 42.1139 136.072C42.0899 135.964 42.0649 135.856 42.0409 135.748C45.5479 134.553 49.0459 133.329 52.5649 132.169C56.8359 130.761 61.2249 129.728 65.4109 128.049C67.0589 127.388 67.1979 127.514 67.2069 129.326C67.2099 130.054 67.1779 130.789 67.2559 131.512ZM60.9829 128.917C56.2299 130.394 51.4879 131.906 46.7469 133.421C45.0899 133.951 43.4469 134.525 41.7969 135.078C41.7389 134.955 41.6809 134.831 41.6229 134.708C44.4299 133.388 46.9049 131.529 49.6209 130.057C51.8139 128.869 53.9299 127.521 56.1199 126.355C57.7849 125.468 59.2119 124.248 60.9039 123.423C61.8399 122.967 62.0959 123.156 62.1129 124.091C62.1329 125.184 62.1509 126.277 62.1879 127.369C62.2159 128.232 61.8019 128.662 60.9829 128.917ZM57.2519 124.241C57.2439 124.836 56.7389 125.092 56.3079 125.395C53.9149 127.078 51.2599 128.311 48.7599 129.811C46.6179 131.096 44.4589 132.353 42.2929 133.598C41.9629 133.788 41.6599 134.193 41.0769 133.901C46.0419 128.355 51.8019 123.699 56.8989 118.357C57.0199 118.413 57.1409 118.469 57.2609 118.525C57.2609 120.43 57.2759 122.336 57.2519 124.241ZM51.3959 122.931C47.4049 126.702 43.4149 130.475 39.2059 134.087C43.3329 127.096 47.4599 120.105 51.5869 113.113C51.6799 113.163 51.7739 113.213 51.8669 113.263C51.8669 116.114 51.8649 118.966 51.8689 121.817C51.8689 122.262 51.7169 122.627 51.3959 122.931ZM67.0209 149.277C67.0219 150.099 66.8269 150.416 65.9249 149.993C59.0599 146.769 52.1729 143.592 45.3039 140.377C44.1699 139.846 42.8819 139.577 42.0009 138.526C45.3779 139.29 48.7589 139.957 52.0819 140.913C54.4849 141.604 56.9789 141.977 59.4239 142.526C61.6479 143.025 63.8579 143.587 66.0819 144.084C66.7299 144.229 67.0929 144.465 67.0609 145.212C67.0039 146.565 67.0189 147.922 67.0209 149.277ZM62.0469 154.832C55.3799 149.821 48.8689 145.298 42.4729 140.133C43.7809 140.255 44.5939 140.91 45.4809 141.314C50.6869 143.687 55.8679 146.115 61.0679 148.503C61.8069 148.842 62.1919 149.193 62.0869 150.145C61.9329 151.531 62.0469 152.947 62.0469 154.832ZM56.8069 153.444C56.672 155.386 56.7649 157.344 56.5779 159.351C51.7299 153.245 46.3419 147.67 42.1489 141.066C43.0349 141.724 43.9239 142.377 44.8059 143.04C48.5449 145.855 52.2659 148.693 56.0319 151.471C56.7759 152.021 56.868 152.563 56.8069 153.444ZM50.0799 153.029C52.5319 155.688 52.3439 158.462 52.0149 161.556C47.8909 155.401 44.7159 148.729 40.8409 142.358C41.3899 142.253 41.5199 142.51 41.6329 142.703C43.9159 146.578 47.0819 149.778 50.0799 153.029ZM41.1009 148.177C44.2219 153.701 47.3089 159.245 50.4979 164.729C51.1819 165.907 51.0519 166.595 50.0799 167.485C47.4339 169.907 44.8829 172.434 42.2809 174.904C41.8879 175.277 41.4779 176.082 40.9179 174.984C40.7199 174.597 40.2899 174.686 39.9859 174.983C39.6629 175.3 39.6339 175.722 40.0499 175.884C41.0809 176.286 40.5099 176.679 40.0989 177.077C37.4819 179.611 34.8589 182.14 32.2349 184.668C31.9799 184.913 31.7629 185.206 31.3019 185.022C30.5219 184.711 30.1879 185.052 30.4069 185.826C30.6029 186.519 30.0739 186.771 29.7269 187.103C26.2629 190.412 22.7739 193.696 19.3099 197.007C18.6379 197.65 18.0819 198.416 17.4019 199.049C16.8599 199.553 16.3819 200.513 15.3829 199.649C15.2969 199.575 14.9679 199.664 14.8429 199.777C14.6249 199.975 14.6359 200.288 14.8759 200.454C15.6809 201.009 15.0519 201.369 14.6689 201.604C13.5209 202.305 13.0379 204.154 11.1769 203.66C11.0809 203.634 10.7749 203.921 10.7839 204.047C10.9579 206.489 8.62692 207.064 7.44592 208.474C6.96793 209.045 6.52391 208.314 6.29291 207.882C4.9939 205.451 3.73594 202.997 2.43994 200.563C2.23994 200.188 2.26993 199.904 2.47693 199.558C7.55393 191.049 12.6939 182.577 17.6709 174.01C20.7829 168.654 23.9919 163.361 27.2349 158.087C27.8599 157.071 28.1849 155.898 28.9269 154.934C29.5389 154.14 29.7009 152.773 31.2509 153.315C31.3659 153.355 31.6529 153.144 31.7369 152.985C31.9049 152.666 31.6179 152.508 31.3819 152.43C30.4929 152.134 30.8059 151.716 31.1709 151.177C31.8089 150.235 32.3719 149.243 33.0609 148.116C33.3889 148.558 33.1949 149.194 33.8589 149.095C34.1409 149.052 34.3289 148.895 34.4449 148.64C34.6499 148.188 34.4129 147.989 34.0249 147.814C33.3359 147.502 33.7069 147.037 33.9319 146.655C34.8289 145.129 35.7509 143.618 36.6629 142.102C37.2709 141.092 37.5549 141.905 37.8089 142.344C38.9249 144.277 40.0029 146.233 41.1009 148.177ZM8.50793 61.058C7.43694 61.356 6.9099 59.955 6.0249 59.44C3.3439 57.879 3.3359 57.724 5.6059 55.634C9.7669 51.804 13.5229 47.545 17.9449 43.989C18.6599 43.414 18.8749 42.286 20.2779 41.838C19.3339 43.487 18.5929 44.861 17.7769 46.189C15.2479 50.307 12.7109 54.421 10.1249 58.503C9.57494 59.372 9.51293 60.778 8.50793 61.058ZM10.1549 89.21C15.1029 98.25 20.2829 107.162 25.3509 116.135C27.6789 120.256 29.9559 124.406 32.2849 128.527C33.5449 130.757 34.7949 132.998 36.1859 135.145C36.8869 136.228 36.8059 137.13 36.1989 138.126C34.1139 141.548 32.0009 144.954 29.9499 148.396C26.0049 155.018 22.1139 161.671 18.1649 168.29C15.7659 172.311 13.2789 176.279 10.8709 180.295C8.78191 183.779 6.75793 187.302 4.68793 190.797C3.52093 192.767 2.3159 194.714 1.12891 196.672C0.645905 197.469 0.00592041 198.18 -0.166077 199.552C-1.62208 197.647 -2.6021 195.961 -3.5611 194.25C-8.3461 185.707 -13.1711 177.187 -17.9671 168.649C-23.7801 158.3 -29.5731 147.94 -35.3931 137.596C-35.7201 137.014 -35.6461 136.64 -35.3341 136.051C-33.2121 132.045 -30.5651 128.351 -28.4251 124.363C-25.4671 118.849 -22.0171 113.633 -18.8311 108.258C-13.022 98.457 -7.4141 88.533 -1.2431 78.951C-0.307106 77.498 0.483887 75.891 2.06189 74.778C4.65989 79.669 7.50991 84.378 10.1549 89.21ZM-57.0101 151.254C-57.0121 150.723 -56.5761 150.594 -56.2711 150.335C-54.4711 148.809 -52.3231 147.832 -50.3391 146.601C-47.3491 144.745 -44.2731 143.027 -41.2331 141.25C-41.1411 141.342 -41.0491 141.435 -40.9581 141.528C-46.2011 147.154 -51.4441 152.78 -57.0061 158.749C-57.0051 155.964 -56.9991 153.609 -57.0101 151.254ZM-62.6311 151.291C-62.5941 150.151 -62.4541 149.015 -62.3901 147.876C-62.3591 147.319 -62.0631 147.038 -61.5701 146.877C-55.0111 144.735 -48.4521 142.589 -41.8921 140.45C-41.8641 140.441 -41.8121 140.509 -41.6411 140.644C-43.3631 141.658 -45.0421 142.633 -46.7081 143.63C-51.4811 146.488 -56.2431 149.365 -61.0231 152.212C-62.4911 153.086 -62.6871 152.967 -62.6311 151.291ZM-65.1811 147.32C-66.3521 147.706 -66.8841 147.741 -66.8171 146.111C-66.6921 143.1 -66.8561 142.964 -64.0391 142.619C-57.6101 141.832 -51.1771 141.086 -44.7801 140.056C-44.6541 140.036 -44.5111 140.122 -43.9511 140.275C-46.6341 141.192 -48.9511 142.007 -51.2841 142.776C-55.9121 144.301 -60.5531 145.793 -65.1811 147.32ZM-52.0901 158.163C-52.6721 155.203 -51.1901 153.299 -49.2201 151.416C-46.1371 148.47 -43.5441 145.045 -40.4241 142.126C-40.1791 141.897 -40.0461 141.496 -39.3331 141.538C-43.8061 148.363 -47.4151 155.549 -51.9131 162.202C-52.4861 162.015 -52.2131 161.578 -52.2081 161.277C-52.1871 160.235 -51.8961 159.154 -52.0901 158.163ZM-48.4631 162.862C-44.7411 156.65 -41.0671 150.41 -37.3631 144.188C-36.0411 141.968 -36.0561 141.999 -34.7431 144.302C-33.2241 146.966 -31.6321 149.589 -30.0881 152.239C-29.8021 152.73 -29.2481 153.231 -30.0811 153.793C-30.4221 154.023 -30.2511 154.479 -29.8721 154.422C-28.5291 154.218 -28.3381 155.363 -27.9831 156.098C-27.1441 157.838 -26.2051 159.514 -25.2291 161.176C-24.8231 161.867 -24.1051 162.47 -24.6571 163.43C-24.7971 163.672 -24.5891 163.929 -24.3371 164.061C-22.6891 164.924 -22.0321 166.399 -21.7041 168.137C-21.5661 168.865 -20.6481 169.008 -20.3081 169.727C-19.5101 171.415 -18.6871 173.136 -17.5701 174.613C-16.7611 175.682 -18.4211 176.012 -17.9271 176.532C-17.5621 176.916 -16.4631 176.023 -16.1661 177.229C-16.0451 177.718 -15.6781 178.144 -15.43 178.602C-15.245 178.944 -14.8311 179.336 -15.6491 179.448C-15.9731 179.493 -16.2421 179.711 -16.0841 180.098C-15.9711 180.373 -15.6901 180.365 -15.4161 180.37C-14.3261 180.392 -13.4491 181.463 -13.5291 182.654C-13.8151 183.075 -13.7481 183.608 -13.3101 183.692C-11.7831 183.984 -11.3031 185.341 -11.0591 186.399C-10.8281 187.397 -10.2231 187.864 -9.80206 188.581C-8.33106 191.087 -7.02008 193.7 -5.55408 196.222C-5.41808 196.456 -5.29311 196.721 -5.4801 196.949C-6.0221 197.614 -5.69207 197.807 -5.03107 197.954C-4.02206 198.179 -3.87607 198.815 -4.22107 199.728C-5.03507 201.884 -6.20111 203.839 -7.46411 205.751C-7.86811 206.363 -8.17708 206.357 -8.65808 205.849C-11.9891 202.334 -15.3241 198.823 -18.68 195.331C-21.1361 192.776 -23.6411 190.267 -26.0971 187.711C-31.1881 182.411 -36.2531 177.086 -41.3451 171.787C-43.6181 169.422 -45.9151 167.079 -48.2381 164.763C-48.8641 164.137 -48.9261 163.636 -48.4631 162.862ZM-37.1471 127.594C-37.3091 127.351 -37.5611 127.235 -37.7971 127.472C-38.3961 128.074 -38.5741 127.515 -38.7931 127.121C-41.9451 121.452 -45.3681 115.928 -47.9201 109.935C-48.3131 109.012 -48.1751 108.454 -47.5331 107.734C-44.9991 104.894 -41.9971 102.543 -39.3761 99.801C-35.4911 95.736 -31.2981 91.984 -27.4371 87.892C-25.0091 85.319 -22.2261 83.079 -19.8281 80.482C-16.2951 76.655 -12.2301 73.373 -8.7951 69.452C-7.87711 68.404 -6.73209 67.556 -5.69409 66.614C-5.26009 66.22 -4.83609 66.192 -4.53009 66.727C-3.50009 68.534 -2.49007 70.352 -1.48907 72.176C-1.37308 72.387 -1.3661 72.658 -1.3631 72.67C-1.5031 73.548 -1.81807 74.075 -2.16107 74.607C-4.58307 78.369 -7.00908 82.13 -9.12708 86.076C-9.33607 86.464 -9.5071 86.798 -10.0011 86.845C-10.2661 86.87 -10.6081 87.061 -10.5621 87.298C-10.1251 89.575 -11.8211 91.069 -12.9561 92.426C-14.1921 93.905 -14.7621 95.586 -15.6651 97.154C-19.3511 103.55 -23.1471 109.882 -26.8841 116.247C-29.3871 120.511 -31.9981 124.707 -34.5171 128.96C-34.7641 129.377 -34.9481 130.007 -35.6191 129.329C-35.8701 129.076 -36.2731 129.217 -36.4321 129.494C-36.6721 129.913 -36.2371 129.996 -35.9791 130.114C-35.7441 130.222 -35.2411 130.087 -35.5621 130.622C-35.7191 130.884 -35.8781 131.201 -36.1231 131.338C-36.3911 131.488 -36.5611 131.166 -36.6791 130.946C-37.0241 130.307 -37.3141 129.635 -37.7001 129.021C-38.0211 128.51 -37.6951 128.423 -37.3531 128.242C-37.1161 128.117 -36.9611 127.874 -37.1471 127.594ZM-60.7891 129.278C-61.8241 128.917 -62.3411 128.468 -62.2231 127.301C-62.1131 126.218 -62.1941 125.114 -62.2041 124.02C-62.2111 123.223 -62.0901 122.772 -61.1481 123.335C-56.1551 126.321 -51.1441 129.278 -46.1351 132.238C-44.1671 133.401 -42.1861 134.542 -40.2141 135.697C-39.6601 136.022 -39.1151 136.362 -38.5661 136.695C-38.6231 136.815 -38.6801 136.936 -38.7371 137.056C-40.3211 136.521 -41.9131 136.008 -43.4881 135.447C-49.2541 133.392 -55.0081 131.296 -60.7891 129.278ZM-44.2821 136.254C-47.2581 135.788 -50.2151 135.337 -53.1671 134.86C-57.3111 134.19 -61.4461 133.461 -65.5981 132.848C-66.6621 132.691 -66.9521 132.283 -66.9521 131.252C-66.9501 127.893 -66.9931 127.903 -63.8751 129.002C-57.4871 131.253 -51.0951 133.492 -44.7051 135.735C-44.5021 135.806 -44.3221 135.896 -44.2821 136.254ZM-56.0861 125.282C-56.5471 124.996 -56.7271 124.666 -56.7231 124.145C-56.7071 122.37 -56.7231 120.595 -56.7111 118.819C-56.7091 118.534 -56.8461 118.117 -56.4311 118.043C-56.2471 118.01 -55.9771 118.238 -55.8041 118.407C-50.0491 124.003 -44.3021 129.605 -38.5591 135.212C-38.4671 135.302 -38.4471 135.466 -38.2311 135.987C-44.4821 132.387 -50.3091 128.876 -56.0861 125.282ZM-38.5921 134.443C-41.1221 131.836 -43.6351 129.213 -46.1881 126.629C-47.8311 124.966 -49.5271 123.354 -51.2141 121.736C-51.6001 121.366 -51.8471 121.06 -51.8151 120.424C-51.6841 117.837 -51.6561 115.245 -51.6291 112.654C-51.6241 112.204 -51.6151 111.739 -51.2141 111.566C-50.6901 111.339 -50.5201 111.877 -50.3261 112.221C-46.3311 119.328 -42.3421 126.438 -38.3581 133.551C-38.2651 133.716 -38.2411 133.919 -38.1851 134.105C-38.3211 134.217 -38.4561 134.33 -38.5921 134.443ZM-0.832092 58.828C-1.75209 59.5 -2.58208 60.309 -3.38208 61.126C-4.11908 61.879 -4.51508 61.713 -4.99408 60.847C-7.68908 55.989 -10.4191 51.15 -13.1501 46.312C-14.2901 44.292 -15.4591 42.289 -16.5781 40.342C-14.6161 42.179 -12.5111 43.906 -10.7001 45.9C-7.51107 49.411 -4.07407 52.668 -0.739075 56.028C0.371925 57.147 0.472908 57.875 -0.832092 58.828ZM-16.7531 37.971C-15.2131 37.971 -13.6731 37.978 -12.1341 37.968C-11.5111 37.964 -11.1701 38.4 -10.9181 38.83C-7.94509 43.912 -4.39608 48.612 -1.21808 53.557C-1.00608 53.886 -0.870056 54.264 -0.698059 54.62C-0.800056 54.7 -0.902092 54.78 -1.00409 54.86C-6.30909 49.36 -11.6141 43.86 -16.9191 38.359C-16.8631 38.229 -16.8081 38.1 -16.7531 37.971ZM-20.9371 45.982C-20.5701 44.507 -19.5631 43.261 -18.5671 41.888C-17.2811 44.115 -16.0421 46.208 -14.8521 48.328C-12.4141 52.671 -10.0201 57.039 -7.5661 61.373C-6.9451 62.469 -7.30807 62.504 -8.37708 62.684C-11.3081 63.179 -12.9071 61.981 -14.0751 59.337C-15.6471 55.779 -17.5791 52.381 -19.3561 48.914C-19.4031 48.822 -19.4361 48.722 -19.4741 48.625C-19.8561 47.665 -21.2001 47.035 -20.9371 45.982ZM-23.6751 50.184C-23.0261 49.128 -22.5881 47.259 -21.6861 47.227C-20.7001 47.192 -20.3481 49.072 -19.8091 50.132C-17.3841 54.907 -14.6461 59.504 -12.0611 64.188C-11.0461 66.027 -11.0641 66.048 -13.1921 66.051C-13.4521 66.051 -13.7121 66.051 -14.2331 66.051C-15.7041 66.471 -16.5481 65.668 -17.2891 64.113C-19.2071 60.084 -21.4571 56.22 -23.8111 52.428C-24.3681 51.533 -24.1381 50.938 -23.6751 50.184ZM-26.7991 55.172C-26.1391 54.328 -25.8501 52.711 -24.8581 52.747C-23.9431 52.781 -23.5671 54.334 -23.055 55.272C-20.666 59.642 -18.3351 64.044 -15.9441 68.413C-15.0211 70.1 -14.9891 70.1 -16.9821 70.131C-17.2421 70.135 -17.5021 70.131 -17.9631 70.131C-19.2261 70.408 -20.0931 69.912 -20.8371 68.493C-22.6911 64.956 -24.7551 61.526 -26.8171 58.103C-27.4551 57.046 -27.5871 56.18 -26.7991 55.172ZM-30.3611 61.562C-29.9341 60.91 -29.5411 60.236 -29.1361 59.569C-27.8781 57.494 -27.8701 57.489 -26.7321 59.529C-24.2761 63.93 -21.8281 68.336 -19.3831 72.744C-19.2141 73.049 -18.9081 73.318 -19.0641 73.816C-20.5831 73.816 -22.1221 73.808 -23.6611 73.82C-24.3011 73.825 -24.5431 73.35 -24.8281 72.918C-26.9241 69.747 -28.3901 66.222 -30.3931 62.999C-30.7071 62.493 -30.6781 62.048 -30.3611 61.562ZM-40.0651 77.608C-37.0941 73.279 -34.8621 68.498 -31.9241 64.141C-31.2731 63.175 -31.0711 63.198 -30.5491 64.164C-28.3231 68.28 -26.0611 72.377 -23.7811 76.463C-23.4601 77.038 -23.5051 77.656 -23.2711 78.224C-23.3781 78.256 -23.4271 78.277 -23.4781 78.286C-26.9161 78.861 -29.5831 78.2 -30.9021 74.426C-31.5591 72.545 -32.8681 70.892 -33.8921 69.141C-33.9301 69.076 -34.0681 69.07 -34.1861 69.026C-34.6251 69.538 -34.1081 69.873 -33.9221 70.224C-31.9481 73.948 -29.9301 77.649 -27.9711 81.381C-27.2001 82.851 -27.3391 83.011 -29.0501 82.933C-30.1911 82.881 -31.3221 82.598 -32.4721 82.761C-33.3041 82.879 -33.5191 82.245 -33.8201 81.705C-35.0781 79.45 -36.3351 77.195 -37.5921 74.94C-37.6801 76.375 -36.9691 77.524 -36.3571 78.684C-35.1211 81.029 -33.8431 83.356 -32.4771 85.627C-31.7231 86.88 -32.2881 87.138 -33.3871 87.272C-35.9051 87.577 -36.9651 87.035 -38.2101 84.772C-38.7871 83.723 -39.2721 82.598 -39.9991 81.663C-41.0841 80.265 -41.0491 79.041 -40.0651 77.608ZM-44.4411 85.044C-43.5301 83.549 -42.6151 82.056 -41.5061 80.243C-39.6301 83.752 -37.9301 86.943 -36.2181 90.127C-35.8761 90.763 -35.9401 91.112 -36.7551 91.066C-36.9621 91.054 -37.1711 91.084 -37.3771 91.074C-38.7101 91.015 -40.4331 91.708 -41.2901 90.835C-42.6691 89.43 -43.4961 87.482 -44.5541 85.763C-44.7191 85.495 -44.5761 85.264 -44.4411 85.044ZM-47.8471 91.047C-47.2341 89.901 -46.6041 88.763 -45.9951 87.615C-45.5561 86.788 -45.2331 86.377 -44.6181 87.565C-43.3981 89.919 -42.0821 92.226 -40.7411 94.514C-40.0701 95.659 -40.4091 96.005 -41.6101 95.933C-42.1291 95.902 -42.6521 95.928 -43.3391 95.928C-44.1451 95.829 -45.3881 96.276 -46.0281 95.537C-46.9231 94.501 -47.4441 93.136 -48.1021 91.9C-48.2761 91.572 -47.9891 91.312 -47.8471 91.047ZM-48.9811 93.16C-48.7451 92.846 -48.4771 93.334 -48.3461 93.586C-47.4391 95.324 -46.5661 97.08 -45.6421 98.809C-45.1651 99.702 -45.7491 99.75 -46.0881 99.817C-48.2371 99.874 -50.6351 97.904 -50.6331 96.041C-50.6321 94.921 -49.6491 94.05 -48.9811 93.16ZM-52.9031 99.478C-51.3661 97.135 -51.3971 97.115 -49.9281 99.44C-49.8721 99.528 -49.8081 99.611 -49.7531 99.699C-47.8121 102.807 -48.2521 102.243 -51.3221 102.462C-51.9231 102.618 -52.5331 102.602 -53.0541 101.708C-53.5731 100.819 -53.4071 100.247 -52.9031 99.478ZM-65.1791 116.125C-62.6771 111.76 -60.0831 107.447 -57.5141 103.121C-57.2071 102.604 -56.9881 101.769 -56.3321 101.816C-55.6611 101.864 -55.6621 102.755 -55.3711 103.284C-54.3151 105.201 -53.2741 107.128 -52.1381 108.997C-51.5881 109.902 -51.6091 110.538 -52.3781 111.311C-55.7201 114.672 -59.0881 118.002 -62.5371 121.255C-66.3611 124.862 -70.0941 128.568 -73.8471 132.249C-74.2431 132.638 -74.5151 133.153 -74.8451 133.61C-74.9751 133.472 -75.1051 133.334 -75.2351 133.196C-72.2371 127.297 -68.4641 121.856 -65.1791 116.125ZM-77.0601 138.324C-77.8431 137.612 -77.6411 137.185 -76.9981 136.577C-75.7871 135.433 -74.5821 134.275 -73.4761 133.032C-72.9611 132.453 -72.4061 132.656 -71.9111 132.726C-68.3631 133.226 -64.8241 133.784 -61.2841 134.337C-55.2841 135.275 -49.2851 136.22 -43.2871 137.172C-41.6151 137.437 -39.9481 137.737 -37.9811 138.071C-38.9591 138.844 -39.9021 138.819 -40.7341 138.91C-48.7921 139.795 -56.7831 141.218 -64.8661 141.907C-66.8311 142.074 -68.7901 142.383 -70.7311 142.74C-72.1401 142.999 -73.1941 142.806 -74.0951 141.524C-74.9251 140.343 -75.9861 139.301 -77.0601 138.324ZM-58.8081 171.601C-60.2801 169.088 -61.8461 166.622 -63.1711 164.034C-66.2261 158.065 -69.8441 152.419 -73.0441 146.535C-73.9331 144.9 -74.7751 143.239 -75.6381 141.59C-75.5441 141.498 -75.4501 141.405 -75.3551 141.313C-73.1941 144.042 -70.5531 146.291 -68.1651 148.798C-65.4001 151.701 -62.4981 154.474 -59.6771 157.325C-57.6701 159.353 -55.7241 161.442 -53.6981 163.45C-53.0411 164.101 -53.2581 164.602 -53.6411 165.228C-54.9411 167.355 -56.3191 169.445 -57.4621 171.655C-58.1441 172.97 -58.4171 172.268 -58.8081 171.601ZM-53.5981 176.656C-54.0631 175.645 -55.3401 174.784 -54.9301 173.643C-54.3421 172.004 -53.5191 170.24 -52.1261 169.255C-51.3131 168.679 -49.7451 169.166 -48.5181 169.198C-48.4491 169.2 -48.3861 169.42 -48.3181 169.544C-48.4521 169.752 -48.5661 169.924 -48.6741 170.1C-49.9761 172.22 -51.2781 174.34 -52.5801 176.461C-52.8531 176.903 -53.1751 177.575 -53.5981 176.656ZM-50.9691 181.496C-51.4771 180.649 -51.9141 179.756 -52.4671 178.941C-52.8491 178.379 -52.6371 178.001 -52.3371 177.538C-51.5171 176.273 -50.6371 175.034 -49.9561 173.696C-49.4391 172.679 -48.7461 172.411 -47.7111 172.534C-46.9901 172.619 -46.2561 172.603 -45.5281 172.627C-45.1881 172.638 -44.9571 172.776 -44.8331 173.082C-44.9901 173.373 -45.1061 173.604 -45.2361 173.827C-46.7331 176.383 -48.2721 178.915 -49.7101 181.504C-50.2461 182.469 -50.5691 182.164 -50.9691 181.496ZM-49.4921 183.879C-49.7771 183.384 -49.5771 182.973 -49.3421 182.57C-48.3471 180.861 -47.3171 179.173 -46.3471 177.45C-46.0861 176.986 -45.7431 176.953 -45.3141 176.96C-44.0641 176.98 -42.8141 177.005 -41.5641 177.004C-40.5371 177.003 -40.2351 177.285 -40.8741 178.264C-42.1221 180.181 -43.2261 182.194 -44.5141 184.082C-45.3971 185.376 -45.9651 186.825 -46.8911 188.501C-47.8691 186.757 -48.6681 185.311 -49.4921 183.879ZM-44.5961 192.926C-45.1751 191.774 -45.8421 190.666 -46.3601 189.736C-46.2671 188.708 -45.9231 188.061 -45.5541 187.439C-44.4931 185.649 -43.3821 183.888 -42.3371 182.089C-42.0441 181.584 -41.7441 181.309 -41.1291 181.331C-39.9331 181.373 -38.7331 181.375 -37.5371 181.339C-36.6071 181.311 -36.4631 181.597 -36.8731 182.429C-38.0231 184.765 -39.4571 186.929 -40.7941 189.152C-41.5441 190.398 -42.3451 191.614 -43.0761 192.87C-43.5881 193.747 -44.0021 194.106 -44.5961 192.926ZM-41.5521 198.248C-41.6241 198.11 -41.7081 197.975 -41.8091 197.857C-43.4201 195.955 -43.2971 194.225 -41.7441 192.218C-40.2961 190.347 -39.2631 188.151 -38.0841 186.077C-37.6781 185.363 -37.2631 185.039 -36.3461 185.221C-35.4681 185.395 -34.5211 185.212 -33.6041 185.203C-33.2401 185.199 -32.8311 185.189 -32.917 185.76C-33.232 186.3 -33.5321 186.847 -33.8621 187.376C-36.0871 190.942 -37.8751 194.767 -40.3121 198.211C-40.8251 198.937 -41.1061 199.103 -41.5521 198.248ZM-38.7781 203.098C-40.0751 201.312 -40.6371 199.752 -39.0251 197.617C-37.1941 195.194 -35.9041 192.36 -34.3971 189.694C-33.9651 188.93 -33.5971 188.344 -32.5021 188.809C-31.8751 189.075 -31.0651 188.907 -30.3381 188.941C-30.0261 188.956 -29.7001 188.964 -29.6431 189.465C-29.7651 189.686 -29.9131 189.956 -30.0621 190.227C-32.4651 194.6 -35.4731 198.612 -37.7221 203.076C-38.0961 203.819 -38.3471 203.692 -38.7781 203.098ZM-34.7701 208.438C-35.2961 209.305 -35.6071 209.147 -35.9851 208.362C-36.5031 207.287 -37.0221 206.209 -37.6051 205.169C-37.9011 204.641 -37.6541 204.328 -37.4051 203.912C-35.3771 200.525 -33.3721 197.125 -31.3631 193.727C-31.1251 193.324 -30.9381 192.896 -30.3441 192.914C-29.1491 192.949 -27.9531 192.951 -26.7571 192.963C-26.3171 192.967 -25.9221 193.021 -25.8841 193.5C-26.6441 194.903 -27.3091 196.257 -28.0871 197.543C-30.2941 201.187 -32.5611 204.795 -34.7701 208.438ZM-32.2181 214.312C-32.4251 214.195 -32.5621 214.137 -32.6771 214.05C-34.2941 212.815 -34.7621 209.992 -33.7271 208.268C-31.6391 204.789 -29.5861 201.288 -27.5601 197.771C-27.1741 197.1 -26.8971 196.909 -26.0311 197.078C-25.0641 197.267 -23.9931 196.869 -22.9621 196.799C-22.1221 196.742 -21.7821 197.038 -22.3041 197.904C-25.4741 203.155 -28.6221 208.42 -31.7801 213.679C-31.9061 213.89 -32.0591 214.084 -32.2181 214.312ZM-29.4631 219.582C-32.1481 214.938 -32.5491 216.414 -29.3921 211.456C-27.5001 208.485 -25.8421 205.367 -24.0531 202.329C-23.4041 201.227 -19.6611 200.575 -18.7201 201.41C-18.1061 201.956 -18.7291 202.478 -18.9761 202.903C-20.5171 205.551 -22.041 208.214 -23.7061 210.785C-25.612 213.728 -27.4251 216.724 -29.0731 219.829C-29.3011 219.688 -29.4201 219.657 -29.4631 219.582ZM-26.9021 224.553C-27.4991 223.403 -28.0681 222.24 -28.6531 221.084C-28.7761 220.842 -28.8351 220.621 -28.6751 220.358C-25.7721 215.57 -22.8751 210.779 -19.9751 205.989C-19.6401 205.435 -19.2711 204.927 -18.4371 205.138C-17.4331 205.686 -16.3591 204.953 -15.2741 205.157C-14.5651 205.291 -14.1711 205.323 -14.6741 206.171C-18.3291 212.346 -21.9251 218.556 -25.7991 224.598C-26.2381 225.283 -26.5801 225.172 -26.9021 224.553ZM-22.8221 231.31C-23.0511 231.043 -23.1331 230.973 -23.1831 230.885C-24.0551 229.351 -25.5241 227.853 -25.6241 226.269C-25.7231 224.699 -24.0231 223.29 -23.1381 221.795C-20.7021 217.681 -18.2621 213.57 -15.8401 209.449C-15.4931 208.858 -15.2071 208.591 -14.3801 208.736C-13.0651 208.967 -11.6891 208.92 -10.3421 208.877C-9.2691 208.843 -9.3421 209.239 -9.7771 209.94C-12.0241 213.559 -14.2921 217.166 -16.4981 220.811C-18.2181 223.653 -19.8521 226.549 -21.5401 229.411C-21.9031 230.024 -22.3361 230.594 -22.8221 231.31ZM-20.6591 234.935C-19.5891 233.008 -18.5811 231.044 -17.4381 229.161C-14.0871 223.645 -10.6991 218.151 -7.58807 212.495C-6.98007 211.389 -6.58611 211.333 -5.7431 212.267C-4.5931 213.542 -3.33808 214.732 -2.04608 215.865C-1.21508 216.593 -1.41707 217.055 -2.10907 217.711C-7.40407 222.734 -12.6791 227.779 -17.9471 232.831C-18.7521 233.602 -19.4891 234.443 -20.2581 235.251C-20.3901 235.146 -20.5251 235.04 -20.6591 234.935ZM-19.68 236.08C-19.8531 235.715 -19.5111 235.536 -19.2891 235.325C-16.2751 232.456 -13.2531 229.595 -10.2541 226.711C-8.45609 224.982 -6.70108 223.208 -4.90808 221.473C-4.55508 221.132 -4.32106 220.606 -3.43506 220.529C-4.67906 222.452 -5.79707 224.18 -6.91406 225.909C-8.91306 229.004 -10.9411 232.08 -12.8931 235.204C-13.5191 236.206 -14.2591 236.652 -15.4451 236.539C-16.5821 236.431 -17.7331 236.471 -18.8781 236.452C-19.2061 236.447 -19.537 236.382 -19.68 236.08ZM-15.8331 243.892C-16.2771 243.941 -16.8771 243.945 -17.1301 243.546C-17.4191 243.09 -16.9431 242.684 -16.6971 242.307C-14.4171 238.824 -12.0151 235.414 -9.87006 231.849C-7.86606 228.518 -5.61306 225.365 -3.47406 222.113C-3.58306 223.581 -4.4311 224.761 -4.9491 226.061C-7.1601 231.61 -9.43211 237.136 -11.6021 242.701C-12.0541 243.861 -12.6781 244.235 -13.8261 243.943C-14.4851 243.775 -15.1531 243.816 -15.8331 243.892ZM-13.2301 250.376C-13.7231 249.926 -13.5411 249.32 -13.3091 248.769C-9.87408 240.622 -6.9931 232.251 -3.34509 224.191C-3.33709 224.175 -3.24708 224.196 -3.02808 224.212C-3.42007 226.077 -3.80109 227.926 -4.1991 229.771C-5.6131 236.313 -7.03707 242.853 -8.44507 249.396C-8.61207 250.172 -8.93707 250.735 -9.81207 250.793C-10.9801 250.872 -12.2131 251.305 -13.2301 250.376ZM-5.62909 257.982C-6.61709 258.289 -7.79706 258.11 -8.87006 257.961C-9.48405 257.876 -9.2601 257.264 -9.1911 256.792C-8.6191 252.884 -7.6541 249.057 -6.8291 245.202C-5.3951 238.501 -3.94408 231.804 -2.49408 225.107C-2.40008 224.671 -2.25607 224.246 -2.13507 223.815C-2.04107 223.851 -1.94711 223.887 -1.85211 223.922C-2.29711 228.153 -2.7541 232.383 -3.1861 236.616C-3.8401 243.029 -4.46807 249.445 -5.13507 255.857C-5.21307 256.601 -4.97309 257.778 -5.62909 257.982ZM1.68195 269.626C1.01595 270.745 0.254936 271.808 -0.22406 273.031C-0.547058 273.858 -0.957085 274.048 -1.46509 273.189C-2.68409 271.127 -3.88906 269.057 -5.09106 266.985C-5.51006 266.264 -5.40107 265.485 -5.32507 264.701C-4.88707 260.195 -4.4961 255.684 -4.0321 251.18C-3.5901 246.894 -3.05412 242.618 -2.60211 238.333C-2.22011 234.718 -1.90611 231.096 -1.5451 227.478C-1.4511 226.534 -1.29408 225.597 -1.16608 224.657C-1.05708 224.663 -0.949089 224.67 -0.840088 224.676C-0.659088 226.547 -0.438103 228.415 -0.303101 230.29C0.2369 237.749 0.873932 245.197 1.80493 252.621C2.32793 256.793 2.5499 261.003 3.0929 265.172C3.3289 266.979 2.49394 268.264 1.68195 269.626ZM5.48792 258.41C2.88091 258.377 3.17893 258.87 2.90393 256.174C2.23993 249.666 1.60294 243.155 0.939941 236.647C0.625938 233.561 0.277924 230.479 -0.0540771 227.395C0.0859222 227.395 0.226944 227.395 0.366943 227.396C1.20394 231.076 2.04489 234.755 2.87689 238.435C4.23689 244.45 5.5829 250.467 6.9519 256.48C7.39291 258.416 7.41592 258.435 5.48792 258.41ZM9.60492 251.615C6.54492 251.601 6.58792 251.627 5.92792 248.671C4.29491 241.355 2.61792 234.048 0.958923 226.737C2.45892 228.605 3.0619 230.921 3.93091 233.111C6.19091 238.803 8.32893 244.543 10.5939 250.234C11.0799 251.456 10.7289 251.62 9.60492 251.615ZM11.8489 244.247C10.0089 244.796 9.24691 244.436 8.48291 242.544C6.25191 237.011 4.04389 231.468 1.8299 225.928C1.7589 225.75 1.71591 225.56 1.65991 225.375C1.76591 225.329 1.8719 225.282 1.97791 225.236C4.4259 228.953 6.8899 232.659 9.3139 236.391C10.4999 238.217 11.6199 240.087 12.7519 241.948C13.4929 243.163 13.2149 243.839 11.8489 244.247ZM17.7489 236.751C17.5369 237.272 16.9369 236.962 16.4939 236.954C14.7779 236.923 13.0609 236.875 11.3449 236.894C10.6429 236.902 10.1519 236.693 9.80591 236.076C6.71291 230.557 3.61095 225.043 0.517944 219.524C0.453941 219.409 0.46492 219.253 0.440918 219.116C3.52192 222.007 6.63094 224.751 9.40594 227.845C11.8349 230.552 14.4819 233.062 17.0229 235.668C17.3339 235.986 17.9499 236.257 17.7489 236.751ZM12.6389 230.1C8.97992 226.393 5.36994 222.639 1.70294 218.94C1.02594 218.256 0.851891 217.907 1.71289 217.152C2.91889 216.094 3.96292 214.849 5.19592 213.796C5.93092 213.169 6.35892 213.114 6.86292 214.026C8.77392 217.481 10.7479 220.901 12.6649 224.353C14.7849 228.171 17.2569 231.799 18.9109 235.871C18.9629 235.998 18.9529 236.15 18.9799 236.347C16.8279 234.23 14.7049 232.193 12.6389 230.1ZM21.5939 232.301C20.9419 233.295 20.4749 233.024 19.9899 232.325C19.5189 231.645 19.1699 230.88 18.7699 230.15C16.2709 225.595 13.7659 221.044 11.2809 216.482C10.6849 215.388 10.1189 214.273 9.60693 213.137C8.95693 211.697 9.0769 211.538 10.8479 211.52C12.3669 211.431 13.6009 211.809 14.6039 213.668C16.9979 218.105 19.3359 222.571 21.6899 227.029C21.7389 227.121 21.7699 227.233 21.8429 227.3C23.7819 229.077 22.6869 230.633 21.5939 232.301ZM24.1179 228.037C23.4109 228.489 23.3579 227.702 23.1859 227.401C21.7109 224.833 20.1769 222.291 18.8689 219.638C17.3959 216.65 15.7129 213.788 14.0979 210.882C13.0329 208.965 13.0669 208.946 14.8719 208.834C16.2249 208.676 16.9949 208.96 17.4689 209.982C19.7029 214.794 22.5089 219.297 25.0349 223.952C25.6849 225.15 25.2199 227.333 24.1179 228.037ZM29.0939 219.738C28.4109 220.959 27.6999 222.165 27.0519 223.405C26.5339 224.397 26.1159 224.175 25.7039 223.362C23.2329 218.497 20.2029 213.94 17.8539 209.007C17.4759 208.212 17.0129 207.457 16.5749 206.691C15.6679 205.104 15.6639 205.106 17.5579 205.095C18.0259 205.092 18.4939 205.095 19.2969 205.095C21.2139 204.44 22.2269 205.736 23.1509 207.53C25.0259 211.17 27.0409 214.74 29.0539 218.308C29.3599 218.852 29.3639 219.254 29.0939 219.738ZM33.0119 213.38C32.2319 214.607 31.4889 215.859 30.7459 217.11C30.1749 218.071 29.7779 217.769 29.3469 216.981C27.1589 212.98 24.9569 208.985 22.7469 204.996C22.1929 203.997 21.5769 203.032 21.0079 202.041C20.5379 201.223 20.6909 200.769 21.7379 200.826C22.4119 200.862 23.09 200.833 24.0959 200.833C26.299 200.116 27.1459 201.694 28.0879 203.655C29.4769 206.549 31.0379 209.384 32.8959 212.021C33.2589 212.536 33.3429 212.859 33.0119 213.38ZM35.5189 209.271C34.9309 210.037 34.6369 211.433 33.7759 211.463C33.0769 211.487 32.7149 210.095 32.2659 209.295C30.1589 205.537 28.0569 201.777 25.9989 197.992C25.7469 197.528 25.0369 197.12 25.3989 196.498C25.7909 195.826 26.5269 196.196 27.0709 196.266C29.7869 195.511 30.9319 197.138 31.9469 199.203C33.0479 201.441 34.2819 203.62 35.5839 205.748C36.3569 207.011 36.4329 208.08 35.5189 209.271ZM39.6239 202.075C38.8619 203.422 38.1999 204.835 36.9819 206.139C35.7569 204.055 34.591 202.103 33.4579 200.133C32.2139 197.97 31.0269 195.773 29.7609 193.623C29.1199 192.534 29.5179 192.232 30.5969 192.274C31.0129 192.29 31.4489 192.364 31.8429 192.273C34.4289 191.671 35.6149 193.257 36.4929 195.257C37.3719 197.259 38.4199 199.17 39.4909 201.069C39.6839 201.41 39.8349 201.702 39.6239 202.075ZM43.1449 196.471C42.4059 197.596 41.6919 198.738 41.0019 199.894C40.6259 200.524 40.3159 200.625 39.9289 199.92C37.8589 196.148 35.6579 192.439 33.7779 188.575C33.1529 187.29 34.6169 187.979 34.9209 187.795C36.2339 187.988 37.2759 187.519 38.4009 187.806C39.1979 188.009 39.6909 188.337 40.0489 189.006C41.1019 190.973 42.1339 192.951 43.2259 194.897C43.5589 195.489 43.4939 195.939 43.1449 196.471ZM44.7079 193.9C44.3169 194.515 44.0199 194.334 43.7169 193.79C42.0499 190.805 40.3769 187.825 38.6849 184.855C38.2749 184.136 38.4949 183.791 39.2489 183.699C39.9669 183.611 40.6899 183.56 41.4109 183.493C43.0829 183.085 43.9109 183.988 44.4749 185.389C44.7059 185.963 44.9799 186.536 45.3339 187.04C47.3209 189.875 46.5499 191.006 44.7079 193.9ZM49.3539 186.031C48.8079 186.72 48.3569 187.492 47.9259 188.263C47.3829 189.237 47.0209 188.882 46.7309 188.13C45.8669 185.889 44.5859 183.868 43.4329 181.779C42.5109 180.107 42.5569 180.03 44.4669 180.033C44.7269 180.033 44.9869 180.033 45.5179 180.033C46.8519 179.753 47.9489 180.278 48.4649 181.92C48.6299 182.446 49.0299 182.907 49.3609 183.37C50.0049 184.268 50.0849 185.109 49.3539 186.031ZM52.0919 181.645C50.5889 183.84 50.6529 183.894 49.3099 181.524C48.5669 180.213 47.9409 178.826 47.1059 177.578C46.1979 176.221 47.0619 176.152 48.0309 176.064C48.3409 176.036 48.6549 176.06 49.2019 176.06C50.5359 175.719 51.2829 176.593 52.0259 177.841C52.8259 179.183 53.0329 180.271 52.0919 181.645ZM55.1519 176.539C54.6659 177.19 54.4439 178.391 53.6929 178.396C52.8869 178.401 52.7169 177.197 52.3009 176.503C51.6899 175.483 51.1509 174.42 50.5219 173.412C49.9379 172.476 49.8079 171.867 51.2449 171.984C51.7079 172.022 52.1759 171.99 52.8549 171.99C53.5769 172.131 54.6589 171.516 55.3559 172.83C56.0769 174.19 56.0359 175.356 55.1519 176.539ZM59.1039 174.307C57.1329 171.495 55.7619 168.709 54.2759 165.986C53.8669 165.237 53.9079 164.751 54.5449 164.259C57.7929 161.746 60.3949 158.555 63.3659 155.748C66.0839 153.18 68.7489 150.539 71.4129 147.906C73.4089 145.932 75.4219 143.975 77.4409 142.025C77.7129 141.763 77.9009 141.31 78.6729 141.464C72.1369 152.431 65.6549 163.312 59.1039 174.307ZM76.3049 141.987C75.4809 142.783 74.5949 143.523 73.8319 144.373C73.2949 144.971 72.7359 144.838 72.1279 144.695C65.6619 143.175 59.1849 141.702 52.7289 140.14C48.7479 139.177 44.8189 137.965 40.3299 137.294C41.4899 136.734 42.3199 136.955 43.0969 136.88C51.9959 136.019 60.9209 135.366 69.7819 134.214C72.7109 133.833 74.5579 134.331 76.4439 136.579C78.8749 139.478 79.0569 139.328 76.3049 141.987ZM58.8559 103.318C60.9349 107.327 63.2669 111.197 65.4029 115.178C68.9179 121.729 72.6989 128.138 76.3649 134.608C76.4849 134.82 76.5759 135.049 76.6809 135.27C76.5819 135.359 76.4829 135.449 76.3839 135.538C73.7039 132.424 70.7779 129.55 67.9329 126.596C64.0739 122.589 60.2179 118.579 56.3709 114.56C55.4379 113.585 54.5849 112.53 53.6219 111.586C53.0189 110.995 53.2179 110.501 53.5509 109.927C54.8279 107.722 56.1159 105.524 57.3609 103.301C57.9169 102.309 58.2869 102.22 58.8559 103.318ZM53.0519 96.032C53.6169 97.196 54.2979 98.311 55.0069 99.396C55.6199 100.334 55.2119 100.868 54.3839 101.208C53.4529 101.59 52.4459 101.504 51.2889 101.481C50.6139 101.339 49.4209 101.913 48.9839 101.146C48.5359 100.36 49.5999 99.64 50.0159 98.901C50.5509 97.952 51.1479 97.038 51.6799 96.088C52.1289 95.286 52.4689 94.83 53.0519 96.032ZM49.8639 90.29C50.3379 91.212 50.8509 92.115 51.3489 93.024C52.2209 94.612 50.6529 97.378 48.8629 97.407C48.4469 97.414 48.0299 97.408 47.6139 97.408C44.6869 97.408 44.7969 97.461 46.0709 94.835C46.8459 93.239 47.7759 91.76 48.6839 90.255C49.1219 89.529 49.4709 89.525 49.8639 90.29ZM46.9669 85.382C48.6419 87.249 48.6129 89.007 47.3349 91.25C46.2799 93.102 45.2749 94.098 43.1299 93.621C42.6829 93.522 42.1949 93.589 41.7269 93.612C41.0239 93.646 40.8339 93.354 41.2539 92.801C43.1949 90.246 44.2669 87.14 46.4369 84.62C46.6289 84.898 46.7719 85.164 46.9669 85.382ZM43.9329 79.79C43.9509 79.838 43.9809 79.884 44.0129 79.924C45.7189 82.026 46.5289 84.12 44.2999 86.449C43.6359 87.142 43.2639 88.124 42.8019 88.997C42.4659 89.632 41.9339 89.852 41.1809 89.897C40.1989 89.639 39.1039 89.592 38.0139 89.678C36.8949 89.766 37.0279 89.292 37.4449 88.601C38.7889 86.374 40.1209 84.139 41.4659 81.912C41.9219 81.157 42.3919 80.41 42.8749 79.672C43.2859 79.044 43.6569 79.049 43.9329 79.79ZM41.1009 74.795C43.0199 78.192 43.0579 78.17 40.9739 81.457C40.4459 82.29 39.8259 83.082 39.4189 83.972C38.7169 85.509 37.6809 86.258 36.2189 85.857C33.4789 85.878 33.4599 85.868 34.7009 83.689C36.3969 80.711 38.1389 77.76 39.8289 74.779C40.3209 73.914 40.5489 73.818 41.1009 74.795ZM38.5429 70.41C40.3119 72.271 39.8479 73.967 38.4939 75.861C37.2639 77.58 36.2769 79.483 35.2799 81.356C34.7149 82.419 33.9799 82.899 32.7919 82.691C31.8489 82.526 30.4619 83.189 30.0509 82.378C29.6739 81.634 30.8209 80.708 31.3179 79.879C33.4969 76.247 35.7099 72.635 37.9939 68.879C38.2249 69.557 38.2539 70.107 38.5429 70.41ZM37.0449 67.576C37.4719 68.412 37.0119 69.102 36.6259 69.755C35.1169 72.308 33.5139 74.807 32.0569 77.389C31.5049 78.369 30.8109 78.688 29.7829 78.601C28.5979 78.5 26.9259 79.087 26.3409 78.283C25.6449 77.327 27.1439 76.317 27.6529 75.316C29.7209 71.256 32.2669 67.487 34.7309 63.522C35.7659 64.871 36.3649 66.247 37.0449 67.576ZM32.7129 59.492C34.3109 61.712 34.1209 63.563 32.5499 65.775C30.7579 68.299 29.0629 70.937 27.7699 73.779C27.1009 75.249 25.8269 74.236 24.9379 74.661C24.0299 74.379 22.7859 75.063 22.3049 74.106C21.8639 73.228 22.8609 72.433 23.3149 71.661C25.7089 67.6 28.1339 63.557 30.5709 59.522C31.6109 57.802 31.5779 57.915 32.7129 59.492ZM28.9279 52.985C29.5649 54.117 30.2099 55.243 30.8479 56.374C31.1359 56.886 31.0159 57.343 30.7239 57.834C28.6299 61.356 26.6059 64.92 24.4579 68.408C23.1849 70.476 23.1009 70.424 20.5169 70.422C19.8429 70.278 18.7049 70.833 18.3079 70.177C17.9169 69.531 18.7339 68.683 19.1539 67.98C21.0009 64.884 22.8909 61.812 24.6899 58.688C25.7769 56.8 27.1009 55.049 27.9539 53.023C28.2039 52.428 28.5719 52.352 28.9279 52.985ZM26.4149 48.136C28.3219 51.339 28.3219 51.245 26.6919 53.867C24.3869 57.573 22.1299 61.312 19.9309 65.082C19.2979 66.167 18.5939 66.525 17.3859 66.192C16.7019 66.003 15.9479 66.07 15.2279 66.022C15.9529 63.397 17.4269 61.236 18.7329 58.999C20.8729 55.332 23.1229 51.729 25.3199 48.095C25.7269 47.42 26.0399 47.507 26.4149 48.136ZM23.7819 43.581C24.2659 44.496 24.7199 45.427 25.1959 46.347C25.4059 46.753 25.1519 47.05 24.9699 47.352C22.1159 52.112 19.2019 56.838 16.4329 61.647C15.6699 62.971 14.6899 63.074 13.7479 62.927C10.7279 62.881 10.7039 62.867 12.0529 60.636C14.7649 56.148 17.5079 51.679 20.2319 47.198C20.9569 46.006 21.6729 44.808 22.3639 43.597C22.8499 42.742 23.3119 42.693 23.7819 43.581ZM20.7509 38.882C21.2609 39.363 20.7439 39.68 20.4219 39.996C16.8959 43.458 13.3679 46.919 9.84894 50.388C7.92194 52.287 6.01292 54.206 4.08392 56.103C3.85292 56.33 3.67093 56.741 2.98993 56.454C4.39493 54.495 5.76893 52.586 7.13593 50.671C9.73093 47.036 12.3229 43.398 14.9139 39.76C15.7589 38.572 19.7499 37.939 20.7509 38.882ZM18.3429 32.953C18.7789 33.841 17.4909 34.725 16.9009 35.545C13.3139 40.525 9.62595 45.433 6.22095 50.543C6.02995 50.83 5.83195 51.152 5.25494 51.206C6.17995 49.061 6.89791 46.931 7.87091 44.884C9.58891 41.268 11.2349 37.615 12.8109 33.935C13.3329 32.715 14.0819 32.275 15.3199 32.484C16.3569 32.661 17.8429 31.935 18.3429 32.953ZM12.1769 25.42C12.8439 25.52 13.5169 25.59 14.1899 25.627C15.9529 25.723 15.9449 25.708 15.2439 27.244C11.4729 35.508 7.70692 43.775 3.93292 52.038C3.87292 52.169 3.74294 52.268 3.64594 52.382C3.54194 52.362 3.43792 52.341 3.33392 52.321C3.91592 50.075 4.44592 47.815 5.09192 45.587C6.88192 39.408 8.69392 33.234 10.0139 26.934C10.2979 25.578 10.9629 25.239 12.1769 25.42ZM-1.31805 8.75502C-0.183052 7.01902 0.779915 5.17002 1.81091 3.36602C2.22791 2.63602 2.56792 2.27702 3.13593 3.31802C4.33292 5.51102 5.62189 7.65402 6.8819 9.81302C7.1009 10.187 7.15491 10.514 7.04791 10.978C6.11891 14.982 5.86195 19.088 5.28094 23.145C5.14894 24.067 5.08392 24.998 4.98792 25.925C5.11691 26.548 4.77491 27.239 5.25891 27.811C5.67791 24.988 6.11389 22.168 6.50189 19.341C6.60089 18.622 6.6989 18.209 7.6239 18.389C8.4789 18.555 9.38992 18.474 10.2739 18.444C11.2539 18.411 11.5669 18.73 11.2839 19.747C10.2399 23.494 9.26894 27.262 8.25793 31.018C6.54494 37.383 4.82493 43.746 3.10193 50.108C2.88093 50.924 2.6219 51.731 2.24091 52.512C1.80591 51.597 2.3969 50.722 2.2229 49.842C2.0799 49.701 1.93694 49.559 1.79395 49.418C1.29395 49.258 1.28191 48.859 1.24591 48.419C0.51091 39.288 -0.231094 30.158 -0.988098 21.03C-1.2591 17.768 -1.56805 14.508 -1.87006 11.249C-1.95506 10.351 -1.85306 9.57402 -1.31805 8.75502ZM-5.19409 18.179C-2.52709 17.83 -2.02406 18.083 -1.89606 19.66C-1.20406 28.186 -0.0720596 36.674 0.335938 45.227C0.401939 46.604 0.637924 47.972 0.794922 49.344C0.650925 49.358 0.506912 49.373 0.362915 49.387C-0.150085 46.235 -0.792114 43.111 -1.49011 39.998C-2.97711 33.371 -4.3661 26.721 -5.7511 20.071C-5.8871 19.419 -6.63909 18.368 -5.19409 18.179ZM-9.02209 25.3C-8.27809 24.625 -7.00908 24.94 -6.00208 25.063C-5.05408 25.179 -5.25707 26.214 -5.11407 26.856C-4.10507 31.366 -3.1731 35.894 -2.1911 40.411C-1.5011 43.587 -0.772057 46.755 -0.0600586 49.926C-0.195061 49.96 -0.329109 49.994 -0.464111 50.029C-1.66411 46.845 -2.87307 43.665 -4.06207 40.477C-5.58807 36.384 -7.09907 32.286 -8.61707 28.19C-8.65307 28.092 -8.7071 27.999 -8.7301 27.899C-8.9341 27.023 -9.7691 25.978 -9.02209 25.3Z" fill="url(#paint0_linear_77_45)"/>
<defs>
<linearGradient id="paint0_linear_77_45" x1="-61.9509" y1="258.4" x2="33.1167" y2="76.6531" gradientUnits="userSpaceOnUse">
<stop stop-color="#8A6441"/>
<stop offset="0.1507" stop-color="#8A6441"/>
<stop offset="0.4585" stop-color="#BFA889"/>
<stop offset="0.6129" stop-color="#D6C6A8"/>
<stop offset="0.7204" stop-color="#E0DCCF"/>
<stop offset="0.8387" stop-color="#D6C6A8"/>
<stop offset="1" stop-color="#8A6441"/>
</linearGradient>
</defs>
</svg>
