<svg width="25" height="15" viewBox="0 0 25 15" fill="none" xmlns="http://www.w3.org/2000/svg">
    <path d="M12.6486 3.63094L22.2189 13.2336C22.219 13.2336 22.219 13.2337 22.2191 13.2337L22.2192 13.2338L12.6486 3.63094ZM12.6486 3.63094L2.78848 13.7672C2.78844 13.7672 2.7884 13.7673 2.78836 13.7673C2.68663 13.8725 2.5649 13.9562 2.43036 14.0134C2.29576 14.0705 2.1511 14.1 2.00494 14.1C1.85878 14.1 1.71412 14.0705 1.57953 14.0134C1.44494 13.9562 1.32316 13.8725 1.22141 13.7672L1.22141 13.7672L1.22121 13.767C1.01511 13.5525 0.9 13.2662 0.9 12.9682C0.9 12.6703 1.01511 12.384 1.22121 12.1695L1.22121 12.1695L1.22161 12.1691L11.8527 1.23354C11.8527 1.2335 11.8528 1.23346 11.8528 1.23341C11.9538 1.12879 12.0745 1.0454 12.208 0.988151C12.3415 0.930874 12.485 0.900908 12.6302 0.900019C12.7755 0.899131 12.9194 0.927337 13.0536 0.982976C13.1877 1.03859 13.3095 1.1205 13.4117 1.22389C13.4117 1.22393 13.4118 1.22397 13.4118 1.22401L23.7668 11.6135L23.767 11.6138C23.977 11.8257 24.0964 12.1115 24.0999 12.4103C24.1034 12.7091 23.9909 12.9976 23.786 13.2145L12.6486 3.63094Z" fill="white" stroke="white" stroke-width="0.2"/>
    </svg>
    