<svg width="32" height="24" viewBox="0 0 32 24" fill="none" xmlns="http://www.w3.org/2000/svg">
<path d="M216.528 11.8291C216.823 11.6405 216.904 11.53 216.519 11.3194C215.915 10.9893 215.345 10.6306 214.793 10.2581C214.151 9.82457 213.625 9.31824 212.902 8.93993C211.89 8.40964 211.848 8.38047 212.61 7.69173C214.031 6.40636 214.329 5.01199 213.638 3.512C213.085 2.30862 212.004 1.35305 210.342 0.712209C209.2 0.272188 207.931 -0.0382536 206.598 0.00381392C204.442 0.0719817 202.285 0.0437214 200.128 0.104213C198.578 0.147815 197.022 0.110044 195.467 0.0747321C193.442 0.0289798 191.414 0.0317584 189.385 0.0901002C187.855 0.13401 186.318 0.0658283 184.783 0.064293C182.908 0.0624507 181.034 0.0962325 179.159 0.0808793C177.305 0.0658333 175.451 0.100224 173.596 0.0649115C171.896 0.03267 170.19 0.0332814 168.49 0.0698218C164.536 0.154878 160.583 0.103293 156.63 0.109741C147.384 0.124787 138.139 0.114968 128.894 0.119881C126.092 0.121416 123.291 0.145669 120.489 0.145669C116.943 0.145669 113.397 0.128176 109.852 0.124491C105.288 0.119578 100.725 0.120195 96.1627 0.119581C86.3415 0.118045 76.5203 0.118352 66.699 0.115589C63.3686 0.114668 60.0387 0.0999209 56.7087 0.103913C49.4228 0.11251 42.1374 0.132775 34.852 0.140759C32.1675 0.143829 29.4825 0.10822 26.7979 0.123573C25.1592 0.133092 23.519 0.140456 21.8821 0.133393C19.4511 0.122646 17.0187 0.200338 14.5882 0.073214C13.4065 0.073214 12.2242 0.0575411 11.0439 0.0793425C10.3886 0.091318 9.71914 0.0722768 9.07988 0.183433C6.83349 0.574016 5.09747 1.39879 3.98938 2.74618C3.54699 3.28415 3.23256 3.85743 3.16788 4.45989C3.02624 5.78271 3.45115 7.0122 4.8241 8.04823C5.063 8.22847 5.06867 8.36665 4.78303 8.5512C3.80194 9.18528 2.87751 9.8562 1.88085 10.4795C1.33412 10.8213 0.962557 11.2933 0.145301 11.4545C-0.151196 11.5128 0.0749467 11.6756 0.21753 11.7609C1.79775 12.7045 3.23019 13.7442 4.77075 14.7139C5.55401 15.2068 5.53419 15.2151 4.85243 15.7877C3.82838 16.6481 3.36475 17.6534 3.42518 18.71C3.54557 20.8272 5.64513 22.5409 8.74702 23.2202C9.78665 23.448 10.8508 23.3844 11.9108 23.3848C18.1821 23.3872 24.4529 23.3863 30.7246 23.3841C33.8681 23.3832 37.012 23.3823 40.1554 23.3731C44.6501 23.3599 49.1448 23.331 53.6399 23.324C59.8248 23.3144 66.0097 23.3178 72.1951 23.3181C74.2743 23.3181 76.3531 23.3298 78.4324 23.3292C84.9388 23.327 91.4452 23.3194 97.9516 23.319C99.7754 23.319 101.599 23.3086 103.423 23.3052C106.379 23.2997 109.335 23.2533 112.291 23.2659C113.826 23.2724 115.362 23.319 116.895 23.2865C118.163 23.2595 119.427 23.2997 120.693 23.2853C123.274 23.2555 125.856 23.2785 128.438 23.2773C131.507 23.2758 134.577 23.2644 137.646 23.2705C140.313 23.2757 142.98 23.3218 145.647 23.3098C149.177 23.2936 152.707 23.2982 156.238 23.2616C159.293 23.23 162.351 23.3034 165.406 23.2767C168.567 23.249 171.728 23.2607 174.889 23.2506C179.623 23.2355 184.356 23.2303 189.09 23.2269C191.555 23.2254 194.02 23.1793 196.487 23.2365C197.819 23.2672 199.155 23.2656 200.491 23.2214C201.938 23.1735 203.388 23.1683 204.835 23.3068C206.182 23.4357 207.516 23.4256 208.815 23.0722C210.813 22.5284 212.302 21.6339 213.127 20.3454C214.257 18.5795 213.813 16.9134 212.096 15.3778C211.686 15.0109 211.672 14.9688 212.15 14.6583C213.602 13.712 215.06 12.7672 216.528 11.8291ZM207.376 1.13963C209.883 1.27074 212.699 2.78548 212.542 4.94198C212.374 7.26214 209.81 8.83462 206.004 8.66696C203.222 8.54445 200.786 6.82766 200.916 5.00156C200.891 2.81466 203.393 0.931748 207.376 1.13963ZM4.78114 5.04302C4.80191 2.82664 7.32591 1.15959 10.6256 1.25478C13.8503 1.13318 16.3842 2.98907 16.3785 5.07679C16.3733 7.1077 13.855 8.77043 10.8055 8.80114C6.93972 8.83982 4.76273 6.97505 4.78114 5.04302ZM4.34725 9.61394C4.41429 9.32776 4.71599 9.0511 4.98133 8.80207C5.28066 8.5208 5.49406 8.53706 5.99829 8.78517C7.4024 9.47606 8.96703 9.86756 10.7488 9.82458C14.202 9.74105 17.09 8.16154 17.768 5.96819C18.1707 4.66533 17.7779 3.46962 16.7468 2.34363C16.4508 2.02029 16.0608 1.74762 15.6425 1.49122C15.5334 1.42428 15.3672 1.373 15.4395 1.25448C15.506 1.14455 15.6854 1.14363 15.8337 1.14639C16.9484 1.16697 18.0631 1.14117 19.1778 1.13933C25.6365 1.1292 32.0967 1.19029 38.5535 1.11506C43.6907 1.05518 48.8251 1.09971 53.961 1.09326C59.7587 1.08589 65.5569 1.07546 71.3552 1.07238C80.1292 1.06778 88.9032 1.06748 97.6773 1.06717C105.2 1.06687 112.722 1.06686 120.245 1.06993C125.316 1.07208 130.387 1.0859 135.458 1.08498C145.433 1.08283 155.408 1.07301 165.383 1.06809C169.153 1.06625 172.924 1.05212 176.693 1.07392C180.546 1.09634 184.398 1.06993 188.25 1.07791C190.717 1.08283 193.183 1.07084 195.651 1.10616C197.572 1.13349 199.498 1.06686 201.42 1.13779C201.576 1.14363 201.795 1.07576 201.872 1.20534C201.945 1.32816 201.74 1.3948 201.625 1.46727C200.349 2.26901 199.636 3.26235 199.392 4.38466C199.179 5.36818 199.532 6.30749 200.263 7.17433C201.561 8.71424 203.566 9.5476 206.274 9.70082C208.049 9.80154 209.586 9.44659 210.995 8.78794C211.647 8.48334 211.706 8.4821 212.258 8.85365C212.411 8.95621 212.547 9.07259 212.719 9.15887C213.478 9.54055 213.606 10.0374 213.359 10.6005C213.084 11.2297 212.273 11.4133 211.421 11.5002C209.629 11.6823 207.822 11.6313 205.557 11.5745C204.887 11.5745 203.756 11.5702 202.625 11.5776C202.317 11.5795 202.098 11.5168 201.868 11.3746C200.475 10.5118 199.175 9.58784 197.775 8.73205C195.93 7.60421 194.188 6.41065 192.372 5.26439C192.36 5.25671 192.341 5.25059 192.336 5.24138C192.044 4.68498 191.359 4.78201 190.677 4.78723C175.11 4.90637 159.542 4.84311 143.975 4.85877C140.762 4.86214 137.549 4.83266 134.339 4.87811C132.042 4.91066 129.745 4.88977 127.451 4.88056C125.323 4.87197 123.197 4.93154 121.069 4.90605C118.655 4.87749 116.24 4.91526 113.825 4.90052C109.737 4.87534 105.65 4.93737 101.562 4.90298C98.4355 4.87657 95.3077 4.91926 92.1798 4.92264C87.8863 4.92724 83.5928 4.92357 79.2992 4.92387C67.2958 4.9248 55.2919 4.92417 43.2885 4.92755C40.976 4.92816 38.663 4.92603 36.351 4.95581C33.5806 4.99174 30.8106 4.99634 28.0401 4.9727C27.3985 4.96717 26.7564 4.94568 26.1171 4.9119C25.8551 4.89808 25.6511 4.93584 25.4783 5.05529C24.172 5.95897 22.7527 6.79049 21.4298 7.68159C19.6825 8.85856 17.8756 9.99746 16.1344 11.1781C15.6604 11.4996 15.1382 11.6627 14.4343 11.6442C12.9178 11.6043 11.3971 11.5662 9.88108 11.5939C8.83295 11.6129 7.79096 11.5576 6.74472 11.5699C4.85243 11.5917 4.09277 10.6985 4.34725 9.61394ZM139.199 18.2163C135.988 18.2178 132.776 18.2273 129.565 18.2283C124.834 18.2298 120.102 18.227 115.371 18.2261C112.516 18.2258 109.66 18.193 106.807 18.2363C104.444 18.2719 102.085 18.2175 99.723 18.2415C96.2128 18.2774 92.7015 18.258 89.1908 18.2642C87.5237 18.2669 85.8566 18.2771 84.1895 18.2783C80.2732 18.2811 76.3569 18.2814 72.4401 18.2805C69.4019 18.2798 66.3638 18.2725 63.3256 18.274C57.6974 18.2765 52.0696 18.2845 46.4414 18.2875C41.8461 18.29 37.2509 18.2888 32.6561 18.2891C30.6448 18.2891 28.6336 18.2826 26.6223 18.2934C26.1856 18.2958 25.8466 18.2117 25.526 18.0247C23.5624 16.8796 21.7259 15.6508 19.9488 14.3881C19.3274 13.9466 18.792 13.4108 18.8208 12.7475C18.8232 12.6929 18.8175 12.6357 18.8388 12.5838C18.9153 12.3965 18.9214 12.1644 19.2505 12.087C19.6018 12.0044 19.7391 12.232 19.9346 12.3557C20.9034 12.9674 21.8765 13.5766 22.8302 14.1984C23.9741 14.9442 25.0955 15.7045 26.2352 16.4531C26.543 16.6555 26.8881 16.8336 27.2054 17.0301C27.4169 17.1609 27.6582 17.1993 27.9438 17.2005C31.3394 17.2137 34.7344 17.2441 38.1314 17.2303C43.9452 17.2064 49.7595 17.2607 55.5742 17.2668C60.4433 17.2721 65.3128 17.2549 70.1819 17.2481C73.8296 17.2429 77.4777 17.2622 81.1244 17.2263C84.5054 17.1929 87.8849 17.2168 91.2653 17.2177C95.0853 17.2186 98.9048 17.1999 102.725 17.1987C112.548 17.195 122.371 17.2002 132.194 17.1929C134.729 17.191 137.264 17.1968 139.799 17.1695C142.4 17.1413 145.002 17.1885 147.603 17.191C153.941 17.1965 160.279 17.1938 166.617 17.1965C173.294 17.1993 179.97 17.2042 186.647 17.2097C187.355 17.2104 188.063 17.1775 188.772 17.2414C189.318 17.2905 189.808 17.1812 190.205 16.9223C192.102 15.6864 194 14.4514 195.895 13.2149C196.431 12.8654 196.959 12.5105 197.496 12.1623C197.756 11.994 197.945 12.0919 198.112 12.2458C198.543 12.6431 198.395 13.4448 197.875 13.9156C197.013 14.6964 195.942 15.3449 194.886 16.0067C193.817 16.6764 192.753 17.3485 191.703 18.0302C191.445 18.1982 191.154 18.2209 190.826 18.2203C187.361 18.2163 183.896 18.2108 180.431 18.2123C176.103 18.2144 171.775 18.2255 167.447 18.2279C162.528 18.2307 157.608 18.2286 152.689 18.2286C152.689 18.2243 152.689 18.22 152.689 18.2157C148.192 18.2157 143.696 18.2141 139.199 18.2163ZM185.516 11.4474C185.328 11.5619 185.133 11.4483 184.99 11.3531C184.495 11.0234 183.996 10.6954 183.521 10.3537C183.314 10.2047 183.106 10.1224 182.784 10.1234C179.691 10.1313 176.598 10.1243 173.505 10.1344C170.651 10.1439 167.797 10.1814 164.943 10.1851C158.334 10.194 151.725 10.1891 145.116 10.1912C141.99 10.1921 138.864 10.1771 135.738 10.2044C133.56 10.2234 131.382 10.2102 129.205 10.209C126.422 10.2075 123.639 10.2007 120.856 10.205C119.474 10.2072 118.09 10.2625 116.709 10.2351C114.091 10.1832 111.473 10.2222 108.855 10.2017C107.355 10.1897 105.853 10.229 104.352 10.233C102.615 10.2376 100.877 10.2308 99.14 10.2256C96.2524 10.217 93.3649 10.1934 90.4778 10.1986C87.3858 10.2041 84.2943 10.1869 81.2024 10.2213C78.5027 10.2514 75.8021 10.2271 73.1016 10.2253C70.3165 10.2234 67.5309 10.2032 64.7463 10.2238C63.2114 10.2351 61.6727 10.2477 60.1435 10.2204C58.0486 10.1829 55.9562 10.2361 53.8628 10.2023C52.4468 10.1792 51.0281 10.2477 49.6108 10.2449C47.1467 10.2403 44.6827 10.1799 42.2196 10.2032C39.8051 10.2262 37.3925 10.2038 34.9795 10.1805C34.0163 10.1712 33.2217 10.3251 32.6221 10.8281C32.5603 10.88 32.488 10.9269 32.4163 10.9733C31.7425 11.4106 31.4055 11.3786 31.0381 10.8053C30.7907 10.4184 30.7945 10.0048 31.0447 9.61761C31.2581 9.28721 31.6642 9.13646 32.2458 9.12848C34.7972 9.09378 37.3477 9.13277 39.8986 9.14474C43.7682 9.16255 47.6382 9.1125 51.5078 9.10728C57.4566 9.0993 63.4054 9.10514 69.3538 9.10514C69.3538 9.09808 69.3538 9.09101 69.3538 9.08395C74.2904 9.08395 79.227 9.0824 84.1635 9.08425C89.1842 9.08609 94.2043 9.09346 99.2249 9.09438C103.263 9.095 107.301 9.08916 111.338 9.08732C113.906 9.08609 116.473 9.09225 119.041 9.08518C122.351 9.07566 125.66 9.04895 128.971 9.04281C133.856 9.0336 138.741 9.03697 143.627 9.03329C148.259 9.02991 152.891 9.02561 157.523 9.01977C160.529 9.01578 163.534 9.00318 166.54 9.00257C169.716 9.00165 172.891 9.01946 176.066 8.99367C178.701 8.97217 181.337 9.04618 183.971 9.01977C184.83 9.01118 185.407 9.20432 185.932 9.60043C186.265 9.8513 186.515 10.0945 186.482 10.4473C186.442 10.9042 185.968 11.172 185.516 11.4474ZM186.271 13.5001C185.764 13.9466 185.271 14.3356 184.235 14.3522C178.032 14.4526 171.829 14.3771 165.627 14.4161C162.062 14.4385 158.495 14.4105 154.929 14.4066C153.476 14.405 152.023 14.4063 150.57 14.4063C150.57 14.3989 150.57 14.3918 150.57 14.3845C146.969 14.3845 143.369 14.3817 139.768 14.3851C133.598 14.3909 127.427 14.4014 121.257 14.4084C118.183 14.4118 115.108 14.4081 112.034 14.4149C109.113 14.4213 106.191 14.4594 103.27 14.4419C100.77 14.4268 98.2703 14.4462 95.7713 14.4468C93.1047 14.4474 90.4367 14.4234 87.7692 14.4465C84.8463 14.4717 81.9228 14.4603 78.9999 14.4618C71.95 14.4658 64.9002 14.4698 57.8508 14.4707C51.41 14.4717 44.9693 14.4738 38.5285 14.4649C36.5191 14.4621 34.5097 14.4185 32.4998 14.4084C31.8842 14.4053 31.5773 14.1318 31.3346 13.8566C30.9909 13.4667 30.7903 13.0364 30.8937 12.5657C30.9574 12.2762 31.2416 12.0898 31.5462 11.9231C31.8053 11.7812 32.0216 11.9372 32.1939 12.0536C32.6972 12.3932 33.1825 12.7435 33.7472 13.0441C33.9431 13.1485 34.1339 13.1961 34.3865 13.1983C40.8088 13.2499 47.2312 13.2465 53.6536 13.2287C56.9642 13.2195 60.2752 13.1958 63.5863 13.2314C66.0692 13.2582 68.555 13.2738 71.0369 13.2317C74.5316 13.1722 78.0249 13.2603 81.5201 13.2066C85.0332 13.1525 88.552 13.2247 92.0656 13.2038C97.0848 13.174 102.104 13.2235 107.123 13.1605C109.25 13.1338 111.38 13.1943 113.507 13.163C116.109 13.1246 118.709 13.1448 121.31 13.1359C123.336 13.1292 125.363 13.1246 127.389 13.1307C130.412 13.1399 133.437 13.1946 136.458 13.1642C145.382 13.0739 154.307 13.1375 163.231 13.1181C169.503 13.1046 175.774 13.1184 182.046 13.12C183.294 13.3724 183.961 12.8083 184.688 12.329C184.818 12.2433 184.937 12.1478 185.083 12.0747C185.282 11.9743 185.503 11.9743 185.665 12.1107C185.942 12.3453 186.205 12.5866 186.361 12.8697C186.485 13.0914 186.479 13.3165 186.271 13.5001ZM185.856 9.26297C185.738 9.18651 185.641 9.09346 185.556 8.9995C185.411 8.8386 185.193 8.77688 184.92 8.78179C181.861 8.83706 178.801 8.80268 175.742 8.80636C168.661 8.81496 161.581 8.81282 154.5 8.81896C151.645 8.82141 148.79 8.84044 145.936 8.84014C143.438 8.83983 140.939 8.78272 138.443 8.82387C135.249 8.87668 132.056 8.86717 128.863 8.86932C117.774 8.87638 106.685 8.87238 95.5957 8.87515C89.7295 8.87668 83.8628 8.88619 77.9961 8.88742C74.8017 8.88804 71.6073 8.87606 68.4133 8.87606C65.9139 8.87606 63.4139 8.87177 60.9145 8.89265C53.1583 8.95744 45.4017 8.93348 37.6451 8.93624C35.6707 8.93686 33.6976 8.85274 31.7218 8.91169C31.4069 8.92121 31.2199 9.01394 31.0311 9.13892C30.0382 9.79695 29.0514 10.459 28.0552 11.1149C27.6109 11.4075 27.4334 11.3796 27.2111 11.0003C26.7276 10.1768 26.8617 9.79909 27.8489 9.18159C28.2993 8.90001 28.7634 8.62611 29.186 8.32765C29.558 8.06511 29.9791 7.97053 30.5296 7.97114C35.9903 7.9779 41.4514 7.96993 46.9125 7.96655C50.1235 7.9644 53.3354 7.9951 56.5454 7.95488C62.9191 7.87535 69.2929 7.92509 75.6662 7.91588C85.4194 7.90175 95.1731 7.91342 104.926 7.91404C105.822 7.91404 106.719 7.91404 107.615 7.91404C107.615 7.90728 107.615 7.90022 107.615 7.89346C111.925 7.89346 116.236 7.90666 120.546 7.88947C124.278 7.87442 128.009 7.86184 131.741 7.87382C136.421 7.88887 141.101 7.85969 145.781 7.85632C149.974 7.85324 154.166 7.86184 158.358 7.86061C166.879 7.85846 175.4 7.85478 183.921 7.84771C184.712 7.8471 185.499 7.93338 186.294 7.86767C186.615 7.84096 186.94 7.90421 187.179 8.06388C187.92 8.55886 188.74 9.00473 189.386 9.55867C189.77 9.88815 190.09 10.2302 190.021 10.6696C189.993 10.8474 189.932 11.0157 189.762 11.1603C189.476 11.4041 189.216 11.4216 188.88 11.2076C187.87 10.5621 186.861 9.91394 185.856 9.26297ZM27.0666 12.0929C27.2573 11.8334 27.542 11.7833 27.8579 11.9866C28.8172 12.6044 29.7568 13.2348 30.7114 13.8554C31.0329 14.0645 31.3639 14.2693 31.7138 14.4578C31.964 14.5926 32.2661 14.6455 32.608 14.6442C34.1112 14.6384 35.6154 14.6273 37.1177 14.655C41.5794 14.7367 46.0419 14.6719 50.504 14.6881C54.4232 14.7023 58.3433 14.6633 62.2624 14.6716C65.4403 14.6783 68.6177 14.6881 71.7956 14.6743C74.6015 14.662 77.4078 14.701 80.2132 14.6746C83.4733 14.6436 86.7329 14.6276 89.9925 14.6455C92.7624 14.6605 95.5324 14.6525 98.3019 14.6581C100.447 14.6623 102.594 14.6722 104.739 14.6562C111.585 14.6049 118.43 14.6479 125.275 14.6277C129.72 14.6144 134.166 14.6255 138.611 14.6246C140.434 14.6243 142.257 14.6181 144.081 14.6184C152.902 14.6209 161.724 14.6273 170.546 14.6267C172.76 14.6264 174.973 14.6356 177.187 14.5957C178.738 14.5678 180.291 14.6105 181.843 14.6166C182.971 14.6209 184.1 14.5119 185.226 14.6452C185.428 14.6691 185.541 14.5644 185.598 14.4603C185.733 14.2106 186.022 14.0427 186.297 13.8652C187.16 13.3079 188.019 12.7487 188.884 12.1933C189.334 11.9043 189.561 11.9467 189.896 12.2952C190.593 13.0202 190.256 13.7854 189.411 14.3209C188.843 14.6805 188.286 15.0477 187.721 15.4085C187.244 15.7128 186.702 15.6634 186.171 15.6849C185.414 15.7156 184.651 15.6928 183.891 15.6928C183.891 15.6889 183.891 15.6852 183.891 15.6812C180.091 15.6812 176.291 15.6824 172.49 15.6809C168.063 15.6793 163.637 15.7159 159.209 15.6928C154.631 15.6689 150.053 15.7131 145.474 15.7168C138.796 15.722 132.119 15.7177 125.442 15.7177C120.675 15.7177 115.909 15.7177 111.142 15.7171C105.448 15.7165 99.7533 15.7137 94.0584 15.7146C83.4587 15.7162 72.8589 15.7128 62.2596 15.7257C57.9665 15.7309 53.673 15.7312 49.3799 15.746C43.0425 15.7675 36.7042 15.7269 30.3668 15.7177C29.8913 15.7171 29.5108 15.6075 29.1992 15.3864C28.5189 14.904 27.7578 14.4735 27.2663 13.8775C26.7781 13.2852 26.611 12.7131 27.0666 12.0929ZM29.0552 15.6195C29.44 15.8722 29.8824 15.9391 30.3838 15.9391C36.3689 15.9419 42.3537 15.9453 48.3388 15.9453C56.6379 15.9453 64.9365 15.9416 73.2356 15.9406C77.9843 15.94 82.733 15.9456 87.4817 15.9391C89.526 15.9363 91.5703 15.8878 93.6142 15.9007C95.895 15.9152 98.1745 15.9376 100.455 15.913C102.802 15.8878 105.151 15.8835 107.498 15.8888C111.333 15.8974 115.167 15.9256 119.002 15.937C121.976 15.9456 124.95 15.9422 127.924 15.9413C130.373 15.9407 132.821 15.9403 135.27 15.9317C138.731 15.9195 142.192 15.8915 145.653 15.8854C150.115 15.8774 154.577 15.8848 159.039 15.8844C161.995 15.8841 164.952 15.8811 167.909 15.8811C172.811 15.8811 177.712 15.8826 182.613 15.8841C184.015 15.8848 185.416 15.8826 186.817 15.8918C187.389 15.8955 187.83 15.7794 188.247 15.5012C189.822 14.4477 191.437 13.4191 193.042 12.3846C193.459 12.1165 193.631 12.1306 193.958 12.4383C194.388 12.8415 194.39 13.2907 194.189 13.7304C194.03 14.0783 193.69 14.3752 193.291 14.6353C192.444 15.1871 191.577 15.726 190.752 16.291C190.029 16.7869 189.22 17.0436 188.121 17.0175C185.877 16.9641 183.628 16.9785 181.381 16.9733C179.033 16.9678 176.685 16.9721 174.338 16.9721C174.338 16.973 174.338 16.9742 174.338 16.9751C172.159 16.9751 169.977 16.9272 167.801 16.9874C165.181 17.0602 162.563 16.9899 159.947 16.9883C155.654 16.9859 151.361 16.9905 147.068 16.9761C143.992 16.9659 140.915 16.9669 137.839 16.9785C134.937 16.9893 132.035 17.0083 129.132 16.9831C126.498 16.9604 123.862 16.9392 121.231 16.9939C118.476 17.0513 115.725 16.9493 112.973 16.9914C110.051 17.0359 107.13 16.989 104.208 17.0212C100.221 17.0654 96.2316 17.0187 92.2436 17.0209C83.9431 17.0255 75.6426 17.0366 67.3421 17.0451C63.0825 17.0494 58.8229 17.0593 54.5634 17.0571C47.7024 17.0541 40.841 17.0473 33.98 17.0326C31.9692 17.0283 29.9589 16.9914 27.9481 16.9702C27.7408 16.9681 27.5538 16.9475 27.3872 16.8511C26.3017 16.2238 25.2904 15.5458 24.3065 14.8549C23.8863 14.5595 23.6795 14.1471 23.4538 13.7568C23.222 13.3558 23.1134 12.9606 23.1876 12.5402C23.2126 12.3984 23.2249 12.2369 23.4458 12.1687C23.7107 12.087 23.841 12.2568 23.9855 12.3492C25.6828 13.4353 27.3801 14.5202 29.0552 15.6195ZM193.659 11.5791C193.339 11.6823 193.16 11.5524 192.956 11.4317C191.183 10.3813 189.475 9.28599 187.812 8.1643C187.226 7.76972 186.604 7.63185 185.802 7.6343C182.847 7.64351 179.892 7.61927 176.937 7.62909C173.169 7.64168 169.401 7.66378 165.634 7.66562C162.866 7.66685 160.095 7.67299 157.326 7.66961C154.454 7.66623 151.58 7.67024 148.707 7.67638C145.53 7.68344 142.354 7.67178 139.177 7.673C135.103 7.67454 131.029 7.68314 126.955 7.68498C121.023 7.68805 115.09 7.68835 109.158 7.68865C99.0989 7.68927 89.0392 7.68866 78.98 7.68897C74.9244 7.68897 70.8684 7.68497 66.8128 7.69265C64.6674 7.69694 62.5226 7.73471 60.3772 7.73656C50.5564 7.74515 40.7357 7.74638 30.9149 7.75007C30.7969 7.75007 30.676 7.75836 30.5603 7.747C29.7525 7.66685 29.2228 7.91589 28.6879 8.29112C27.4155 9.18436 26.0657 10.0309 24.7494 10.8981C24.477 11.0774 24.2234 11.269 23.9458 11.4443C23.6762 11.6144 23.4411 11.6129 23.1998 11.3912C22.3906 10.6469 22.5252 9.81292 23.5322 9.1773C24.8037 8.37464 26.0515 7.55601 27.297 6.73615C27.5326 6.58108 27.7842 6.52796 28.1086 6.52919C32.1146 6.54147 36.1211 6.55099 40.1276 6.55529C42.662 6.55806 45.1964 6.54792 47.7307 6.54761C58.1445 6.54669 68.5583 6.54731 78.972 6.54731C78.972 6.54086 78.972 6.5341 78.972 6.52765C86.0728 6.52765 93.1741 6.53073 100.275 6.52643C105.482 6.52336 110.689 6.49388 115.896 6.50893C118.516 6.5166 121.137 6.54331 123.757 6.51567C125.683 6.4951 127.61 6.48314 129.534 6.49204C132.202 6.50432 134.87 6.52888 137.536 6.49787C142.608 6.43891 147.679 6.47944 152.75 6.46747C158.042 6.45488 163.334 6.46441 168.626 6.46471C175.372 6.46502 182.118 6.46717 188.863 6.46318C189.226 6.46287 189.501 6.52366 189.76 6.69777C191.144 7.62939 192.546 8.54965 193.94 9.47606C194.175 9.63266 194.419 9.78958 194.56 9.99224C194.897 10.478 194.397 11.3412 193.659 11.5791ZM197.817 11.226C197.563 11.3946 197.332 11.3961 197.079 11.2309C196.472 10.8348 195.856 10.4449 195.254 10.0457C193.411 8.82295 191.571 7.59899 189.738 6.37013C189.561 6.25099 189.37 6.23778 189.146 6.23809C183.399 6.24331 177.65 6.24945 171.903 6.25037C166.95 6.25098 161.998 6.23103 157.046 6.24669C153.635 6.25775 150.223 6.24608 146.812 6.26358C144.975 6.27279 143.133 6.32254 141.292 6.2556C140.147 6.21414 138.995 6.27125 137.847 6.27586C134.738 6.28814 131.63 6.30226 128.521 6.30472C119.865 6.31117 111.21 6.31333 102.554 6.31518C97.7207 6.3161 92.8866 6.31271 88.0525 6.31148C84.5885 6.31056 81.124 6.30934 77.66 6.30965C73.3159 6.30995 68.9723 6.31025 64.6282 6.3124C62.2478 6.31363 59.8664 6.29919 57.4863 6.32621C53.9742 6.36583 50.462 6.37166 46.9494 6.37013C43.9594 6.3689 40.9675 6.40054 37.9794 6.34957C34.6679 6.29307 31.3563 6.37964 28.0472 6.29981C27.5647 6.28814 27.2205 6.39685 26.8895 6.61671C24.5997 8.1382 22.2957 9.65109 19.9955 11.1661C19.5451 11.4628 19.4072 11.4496 19.1126 11.0863C18.6651 10.5339 18.8506 9.69869 19.555 9.24301C21.1947 8.18241 22.8472 7.1301 24.4939 6.07442C24.7579 5.90492 25.0544 5.75171 25.2782 5.56225C25.7224 5.18671 26.3013 5.13788 26.9811 5.14433C33.5551 5.20636 40.1295 5.13697 46.7034 5.11763C49.8119 5.10841 52.9209 5.13482 56.0289 5.11609C62.2312 5.07863 68.4332 5.10411 74.6355 5.08661C77.6274 5.07832 80.6193 5.08507 83.6112 5.08507C90.4075 5.08415 97.2038 5.10074 104 5.07741C107.464 5.06543 110.929 5.07278 114.393 5.0605C117.552 5.04914 120.713 5.08723 123.874 5.06082C129.062 5.01752 134.249 5.1164 139.438 5.06236C143.018 5.0252 146.6 5.08937 150.18 5.06757C151.935 5.05682 153.689 5.10472 155.446 5.04361C156.774 4.99756 158.114 5.09153 159.446 5.06697C161.963 5.0206 164.479 5.08323 166.996 5.06665C175.057 5.01291 183.118 5.01414 191.178 5.0209C191.514 5.02121 191.752 5.09859 191.979 5.2469C193.914 6.50494 195.819 7.78292 197.809 9.00257C198.701 9.54853 198.526 10.7568 197.817 11.226ZM10.9278 22.4332C7.51477 22.4347 4.83308 20.7769 4.9648 18.5811C5.11399 16.0939 7.42648 14.849 10.7177 14.7437C14.2053 14.6323 16.6434 16.3883 16.718 18.4242C16.8086 20.8969 13.9032 22.4095 10.9278 22.4332ZM212.029 18.6007C211.926 20.7139 209.53 22.3024 205.83 22.2348C202.883 22.2388 200.442 20.487 200.391 18.438C200.34 16.4194 202.941 14.4259 206.696 14.6329C209.461 14.7855 212.149 16.1488 212.029 18.6007ZM210.82 14.5509C207.966 13.1396 204.198 13.0705 201.325 14.6848C198.651 16.1878 197.979 18.5227 199.231 20.3442C199.583 20.8552 199.995 21.3471 200.617 21.749C200.725 21.8187 200.851 21.9013 200.802 22.0042C200.745 22.1215 200.557 22.0942 200.409 22.1034C199.297 22.1728 198.183 22.1491 197.068 22.1353C196.396 22.127 195.723 22.1808 195.047 22.1553C192.757 22.069 190.467 22.1973 188.175 22.1623C185.98 22.1286 183.783 22.1676 181.587 22.1679C174.843 22.1688 168.099 22.1648 161.355 22.166C153.833 22.1676 146.31 22.1691 138.788 22.178C136.136 22.1811 133.483 22.2176 130.83 22.2167C127.857 22.2155 124.883 22.1798 121.91 22.1758C119.191 22.1722 116.47 22.217 113.751 22.1915C111.537 22.1706 109.323 22.1768 107.109 22.1755C105.118 22.1743 103.126 22.2228 101.136 22.1977C99.2122 22.1734 97.2911 22.2566 95.3648 22.1933C94.3289 22.1593 93.2761 22.2173 92.2346 22.2195C82.4002 22.2403 72.5652 22.2244 62.7303 22.2416C59.508 22.2471 56.2848 22.2253 53.0625 22.2919C51.4931 22.3245 49.9214 22.3005 48.3506 22.3014C39.6663 22.307 30.9824 22.3106 22.2981 22.3189C20.9643 22.3202 19.6305 22.3447 18.2968 22.3549C17.6056 22.3601 16.9172 22.2631 16.2232 22.3352C16.107 22.3472 15.9706 22.342 15.9059 22.2655C15.8266 22.1712 15.93 22.1015 16.0221 22.0358C16.7779 21.4969 17.3875 20.9034 17.8067 20.2189C18.386 19.2732 18.2907 18.3201 17.9238 17.3749C17.4573 16.1731 16.3946 15.2381 14.8129 14.5171C12.5911 13.5044 10.2555 13.4835 7.83629 14.0854C7.30326 14.218 6.85568 14.5057 6.39158 14.7413C6.04692 14.9163 5.7811 14.9037 5.46194 14.7087C4.49644 14.1191 4.00921 13.4366 4.30571 12.559C4.4549 12.1162 4.82128 11.8696 5.50633 11.8668C7.12857 11.8604 8.75128 11.8647 10.374 11.8647C10.374 11.8705 10.374 11.8764 10.374 11.8822C11.9292 11.8822 13.4844 11.8905 15.0391 11.8761C15.3946 11.8727 15.6392 11.9406 15.8814 12.1015C17.7954 13.3721 19.7136 14.6399 21.6442 15.9001C22.8108 16.6616 24.0053 17.4047 25.1785 18.1619C25.5633 18.4104 26.0147 18.512 26.5491 18.512C32.2633 18.5095 37.9775 18.5111 43.6917 18.5111C45.9045 18.5111 48.1179 18.516 50.3308 18.5089C55.417 18.4926 60.5033 18.465 65.5895 18.4527C67.784 18.4475 69.9789 18.4782 72.1733 18.4767C77.3937 18.473 82.6145 18.4543 87.8348 18.4518C98.2476 18.4469 108.66 18.4509 119.074 18.446C122.42 18.4444 125.767 18.4217 129.114 18.4162C134.518 18.407 139.923 18.4027 145.327 18.3984C148.182 18.3962 151.037 18.3965 153.892 18.3999C157.608 18.4042 161.324 18.4202 165.04 18.4177C169.414 18.4149 173.788 18.3689 178.161 18.3971C180.982 18.4153 183.803 18.4008 186.624 18.4168C187.855 18.4239 189.092 18.3971 190.317 18.4632C191.23 18.5123 191.875 18.2593 192.458 17.8862C194.419 16.6309 196.361 15.3628 198.314 14.1017C199.401 13.3994 200.498 12.7027 201.585 12.0004C201.773 11.8785 201.972 11.7987 202.25 11.7999C203.683 11.8051 205.116 11.8051 206.549 11.8073C207.444 11.8088 208.341 11.7845 209.233 11.8199C210.172 11.8573 211.115 11.8064 212.052 11.9264C213.044 12.0535 213.653 12.8473 213.099 13.396C212.712 13.7799 212.276 14.1443 211.83 14.5011C211.458 14.7975 211.297 14.7864 210.82 14.5509Z" fill="url(#paint0_linear_719_1594)"/>
<path d="M10.6057 7.83646C12.6416 7.90248 14.7676 6.59992 14.8285 5.17116C14.9021 3.44271 13.2468 2.34679 11.0727 2.17208C8.35745 1.95406 6.24892 3.63493 6.24561 4.85949C6.24136 6.45376 8.04963 7.75386 10.6057 7.83646Z" fill="url(#paint1_linear_719_1594)"/>
<path d="M10.7705 15.6534C8.41413 15.6908 6.30512 17.0124 6.37216 18.6448C6.44109 20.317 8.37115 21.4888 10.7837 21.5014C13.4565 21.5155 15.2765 20.037 15.2558 18.615C15.2321 16.9731 13.1482 15.615 10.7705 15.6534Z" fill="url(#paint2_linear_719_1594)"/>
<defs>
<linearGradient id="paint0_linear_719_1594" x1="-0.000824923" y1="11.6967" x2="216.779" y2="11.6967" gradientUnits="userSpaceOnUse">
<stop stop-color="#8A6441"/>
<stop offset="0.1507" stop-color="#8A6441"/>
<stop offset="0.4585" stop-color="#BFA889"/>
<stop offset="0.6129" stop-color="#D6C6A8"/>
<stop offset="0.7204" stop-color="#E0DCCF"/>
<stop offset="0.8387" stop-color="#D6C6A8"/>
<stop offset="1" stop-color="#8A6441"/>
</linearGradient>
<linearGradient id="paint1_linear_719_1594" x1="6.24575" y1="4.99589" x2="14.8311" y2="4.99589" gradientUnits="userSpaceOnUse">
<stop stop-color="#8A6441"/>
<stop offset="0.1507" stop-color="#8A6441"/>
<stop offset="0.4585" stop-color="#BFA889"/>
<stop offset="0.6129" stop-color="#D6C6A8"/>
<stop offset="0.7204" stop-color="#E0DCCF"/>
<stop offset="0.8387" stop-color="#D6C6A8"/>
<stop offset="1" stop-color="#8A6441"/>
</linearGradient>
<linearGradient id="paint2_linear_719_1594" x1="6.37098" y1="18.577" x2="15.2565" y2="18.577" gradientUnits="userSpaceOnUse">
<stop stop-color="#8A6441"/>
<stop offset="0.1507" stop-color="#8A6441"/>
<stop offset="0.4585" stop-color="#BFA889"/>
<stop offset="0.6129" stop-color="#D6C6A8"/>
<stop offset="0.7204" stop-color="#E0DCCF"/>
<stop offset="0.8387" stop-color="#D6C6A8"/>
<stop offset="1" stop-color="#8A6441"/>
</linearGradient>
</defs>
</svg>
