<svg width="39" height="24" viewBox="0 0 39 24" fill="none" xmlns="http://www.w3.org/2000/svg">
<path d="M38.5283 11.8291C38.8229 11.6405 38.9041 11.53 38.5189 11.3194C37.915 10.9893 37.3447 10.6306 36.7932 10.2581C36.1511 9.82457 35.6247 9.31824 34.9024 8.93993C33.8896 8.40964 33.8481 8.38047 34.6096 7.69173C36.0312 6.40636 36.3291 5.01199 35.6384 3.512C35.0846 2.30862 34.0044 1.35305 32.342 0.712209C31.1999 0.272188 29.9308 -0.0382536 28.598 0.00381392C26.4418 0.0719817 24.2847 0.0437214 22.1284 0.104213C20.5784 0.147815 19.0218 0.110044 17.4666 0.0747321C15.4421 0.0289798 13.4139 0.0317584 11.3851 0.0901002C9.85497 0.13401 8.3177 0.0658283 6.78328 0.064293C4.90846 0.0624507 3.03365 0.0962325 1.15929 0.0808793C-0.694763 0.0658333 -2.54883 0.100224 -4.40382 0.0649115C-6.10443 0.03267 -7.80975 0.0332814 -9.51036 0.0698218C-13.4635 0.154878 -17.4171 0.103293 -21.3703 0.109741C-30.6155 0.124787 -39.8612 0.114968 -49.1064 0.119881C-51.9081 0.121416 -54.7092 0.145669 -57.5108 0.145669C-61.0565 0.145669 -64.6027 0.128176 -68.1484 0.124491C-72.7115 0.119578 -77.2746 0.120195 -81.8373 0.119581C-91.6585 0.118045 -101.48 0.118352 -111.301 0.115589C-114.631 0.114668 -117.961 0.0999209 -121.291 0.103913C-128.577 0.11251 -135.863 0.132775 -143.148 0.140759C-145.833 0.143829 -148.518 0.10822 -151.202 0.123573C-152.841 0.133092 -154.481 0.140456 -156.118 0.133393C-158.549 0.122646 -160.981 0.200338 -163.412 0.073214C-164.594 0.073214 -165.776 0.0575411 -166.956 0.0793425C-167.611 0.091318 -168.281 0.0722768 -168.92 0.183433C-171.167 0.574016 -172.903 1.39879 -174.011 2.74618C-174.453 3.28415 -174.767 3.85743 -174.832 4.45989C-174.974 5.78271 -174.549 7.0122 -173.176 8.04823C-172.937 8.22847 -172.931 8.36665 -173.217 8.5512C-174.198 9.18528 -175.122 9.8562 -176.119 10.4795C-176.666 10.8213 -177.037 11.2933 -177.855 11.4545C-178.151 11.5128 -177.925 11.6756 -177.782 11.7609C-176.202 12.7045 -174.77 13.7442 -173.229 14.7139C-172.446 15.2068 -172.466 15.2151 -173.148 15.7877C-174.172 16.6481 -174.635 17.6534 -174.575 18.71C-174.454 20.8272 -172.355 22.5409 -169.253 23.2202C-168.213 23.448 -167.149 23.3844 -166.089 23.3848C-159.818 23.3872 -153.547 23.3863 -147.275 23.3841C-144.132 23.3832 -140.988 23.3823 -137.845 23.3731C-133.35 23.3599 -128.855 23.331 -124.36 23.324C-118.175 23.3144 -111.99 23.3178 -105.805 23.3181C-103.726 23.3181 -101.647 23.3298 -99.5676 23.3292C-93.0612 23.327 -86.5548 23.3194 -80.0484 23.319C-78.2246 23.319 -76.4007 23.3086 -74.5769 23.3052C-71.6213 23.2997 -68.6654 23.2533 -65.7089 23.2659C-64.174 23.2724 -62.6377 23.319 -61.1051 23.2865C-59.8375 23.2595 -58.5731 23.2997 -57.3069 23.2853C-54.7262 23.2555 -52.1437 23.2785 -49.5621 23.2773C-46.4927 23.2758 -43.4234 23.2644 -40.3536 23.2705C-37.6866 23.2757 -35.0195 23.3218 -32.3529 23.3098C-28.8228 23.2936 -25.2927 23.2982 -21.7621 23.2616C-18.707 23.23 -15.6495 23.3034 -12.5943 23.2767C-9.43295 23.249 -6.27203 23.2607 -3.11066 23.2506C1.62291 23.2355 6.35599 23.2303 11.0896 23.2269C13.555 23.2254 16.02 23.1793 18.4869 23.2365C19.8188 23.2672 21.1549 23.2656 22.491 23.2214C23.9381 23.1735 25.3885 23.1683 26.8346 23.3068C28.1821 23.4357 29.5163 23.4256 30.8151 23.0722C32.8132 22.5284 34.3018 21.6339 35.1266 20.3454C36.2574 18.5795 35.8131 16.9134 34.0959 15.3778C33.6857 15.0109 33.6725 14.9688 34.1498 14.6583C35.6021 13.712 37.06 12.7672 38.5283 11.8291ZM29.3761 1.13963C31.8826 1.27074 34.6989 2.78548 34.5421 4.94198C34.3736 7.26214 31.8104 8.83462 28.0041 8.66696C25.2223 8.54445 22.7861 6.82766 22.9164 5.00156C22.8909 2.81466 25.3932 0.931748 29.3761 1.13963ZM-173.219 5.04302C-173.198 2.82664 -170.674 1.15959 -167.374 1.25478C-164.15 1.13318 -161.616 2.98907 -161.621 5.07679C-161.627 7.1077 -164.145 8.77043 -167.194 8.80114C-171.06 8.83982 -173.237 6.97505 -173.219 5.04302ZM-173.653 9.61394C-173.586 9.32776 -173.284 9.0511 -173.019 8.80207C-172.719 8.5208 -172.506 8.53706 -172.002 8.78517C-170.598 9.47606 -169.033 9.86756 -167.251 9.82458C-163.798 9.74105 -160.91 8.16154 -160.232 5.96819C-159.829 4.66533 -160.222 3.46962 -161.253 2.34363C-161.549 2.02029 -161.939 1.74762 -162.358 1.49122C-162.467 1.42428 -162.633 1.373 -162.561 1.25448C-162.494 1.14455 -162.315 1.14363 -162.166 1.14639C-161.052 1.16697 -159.937 1.14117 -158.822 1.13933C-152.363 1.1292 -145.903 1.19029 -139.447 1.11506C-134.309 1.05518 -129.175 1.09971 -124.039 1.09326C-118.241 1.08589 -112.443 1.07546 -106.645 1.07238C-97.8708 1.06778 -89.0968 1.06748 -80.3227 1.06717C-72.8003 1.06687 -65.2778 1.06686 -57.7554 1.06993C-52.6842 1.07208 -47.6131 1.0859 -42.5419 1.08498C-32.5668 1.08283 -22.5921 1.07301 -12.617 1.06809C-8.84703 1.06625 -5.07614 1.05212 -1.30666 1.07392C2.54591 1.09634 6.39801 1.06993 10.2501 1.07791C12.717 1.08283 15.1834 1.07084 17.6508 1.10616C19.5723 1.13349 21.4977 1.06686 23.4202 1.13779C23.576 1.14363 23.7951 1.07576 23.872 1.20534C23.9452 1.32816 23.7398 1.3948 23.6246 1.46727C22.3489 2.26901 21.6355 3.26235 21.3924 4.38466C21.179 5.36818 21.5321 6.30749 22.2625 7.17433C23.5609 8.71424 25.5665 9.5476 28.2737 9.70082C30.0493 9.80154 31.5857 9.44659 32.995 8.78794C33.647 8.48334 33.706 8.4821 34.2584 8.85365C34.4109 8.95621 34.5473 9.07259 34.7192 9.15887C35.4779 9.54055 35.6058 10.0374 35.3594 10.6005C35.0841 11.2297 34.2735 11.4133 33.4208 11.5002C31.6291 11.6823 29.8223 11.6313 27.557 11.5745C26.887 11.5745 25.7558 11.5702 24.6246 11.5776C24.3168 11.5795 24.0982 11.5168 23.8682 11.3746C22.475 10.5118 21.1752 9.58784 19.7749 8.73205C17.9298 7.60421 16.1876 6.41065 14.3718 5.26439C14.3595 5.25671 14.3411 5.25059 14.3359 5.24138C14.0437 4.68498 13.3586 4.78201 12.6769 4.78723C-2.89018 4.90637 -18.4577 4.84311 -34.0252 4.85877C-37.2376 4.86214 -40.4509 4.83266 -43.6614 4.87811C-45.9578 4.91066 -48.2552 4.88977 -50.5488 4.88056C-52.6771 4.87197 -54.8031 4.93154 -56.931 4.90605C-59.345 4.87749 -61.7605 4.91526 -64.1749 4.90052C-68.2626 4.87534 -72.3498 4.93737 -76.438 4.90298C-79.5645 4.87657 -82.6923 4.91926 -85.8202 4.92264C-90.1137 4.92724 -94.4072 4.92357 -98.7008 4.92387C-110.704 4.9248 -122.708 4.92417 -134.712 4.92755C-137.024 4.92816 -139.337 4.92603 -141.649 4.95581C-144.419 4.99174 -147.189 4.99634 -149.96 4.9727C-150.602 4.96717 -151.244 4.94568 -151.883 4.9119C-152.145 4.89808 -152.349 4.93584 -152.522 5.05529C-153.828 5.95897 -155.247 6.79049 -156.57 7.68159C-158.318 8.85856 -160.124 9.99746 -161.866 11.1781C-162.34 11.4996 -162.862 11.6627 -163.566 11.6442C-165.082 11.6043 -166.603 11.5662 -168.119 11.5939C-169.167 11.6129 -170.209 11.5576 -171.255 11.5699C-173.148 11.5917 -173.907 10.6985 -173.653 9.61394ZM-38.8013 18.2163C-42.0122 18.2178 -45.2237 18.2273 -48.4346 18.2283C-53.1663 18.2298 -57.8975 18.227 -62.6292 18.2261C-65.4841 18.2258 -68.3396 18.193 -71.1931 18.2363C-73.5557 18.2719 -75.9154 18.2175 -78.277 18.2415C-81.7872 18.2774 -85.2985 18.258 -88.8092 18.2642C-90.4763 18.2669 -92.1434 18.2771 -93.8105 18.2783C-97.7268 18.2811 -101.643 18.2814 -105.56 18.2805C-108.598 18.2798 -111.636 18.2725 -114.674 18.274C-120.303 18.2765 -125.93 18.2845 -131.559 18.2875C-136.154 18.29 -140.749 18.2888 -145.344 18.2891C-147.355 18.2891 -149.366 18.2826 -151.378 18.2934C-151.814 18.2958 -152.153 18.2117 -152.474 18.0247C-154.438 16.8796 -156.274 15.6508 -158.051 14.3881C-158.673 13.9466 -159.208 13.4108 -159.179 12.7475C-159.177 12.6929 -159.182 12.6357 -159.161 12.5838C-159.085 12.3965 -159.079 12.1644 -158.75 12.087C-158.398 12.0044 -158.261 12.232 -158.065 12.3557C-157.097 12.9674 -156.124 13.5766 -155.17 14.1984C-154.026 14.9442 -152.905 15.7045 -151.765 16.4531C-151.457 16.6555 -151.112 16.8336 -150.795 17.0301C-150.583 17.1609 -150.342 17.1993 -150.056 17.2005C-146.661 17.2137 -143.266 17.2441 -139.869 17.2303C-134.055 17.2064 -128.241 17.2607 -122.426 17.2668C-117.557 17.2721 -112.687 17.2549 -107.818 17.2481C-104.17 17.2429 -100.522 17.2622 -96.8756 17.2263C-93.4946 17.1929 -90.1151 17.2168 -86.7347 17.2177C-82.9147 17.2186 -79.0952 17.1999 -75.2752 17.1987C-65.452 17.195 -55.6289 17.2002 -45.8063 17.1929C-43.2714 17.191 -40.7361 17.1968 -38.2007 17.1695C-35.6002 17.1413 -32.9983 17.1885 -30.3969 17.191C-24.059 17.1965 -17.7207 17.1938 -11.3828 17.1965C-4.70645 17.1993 1.96991 17.2042 8.64676 17.2097C9.35495 17.2104 10.0632 17.1775 10.7723 17.2414C11.3176 17.2905 11.8077 17.1812 12.2052 16.9223C14.1018 15.6864 15.9997 14.4514 17.8953 13.2149C18.4312 12.8654 18.9586 12.5105 19.4963 12.1623C19.756 11.994 19.9448 12.0919 20.112 12.2458C20.5435 12.6431 20.3948 13.4448 19.875 13.9156C19.0133 14.6964 17.9416 15.3449 16.8859 16.0067C15.8175 16.6764 14.7528 17.3485 13.7033 18.0302C13.4445 18.1982 13.1542 18.2209 12.8261 18.2203C9.36111 18.2163 5.89569 18.2108 2.43073 18.2123C-1.89728 18.2144 -6.22531 18.2255 -10.5533 18.2279C-15.4724 18.2307 -20.3915 18.2286 -25.3106 18.2286C-25.3106 18.2243 -25.3106 18.22 -25.3106 18.2157C-29.8077 18.2157 -34.3043 18.2141 -38.8013 18.2163ZM7.51604 11.4474C7.32765 11.5619 7.13313 11.4483 6.99007 11.3531C6.49481 11.0234 5.99625 10.6954 5.52081 10.3537C5.31401 10.2047 5.10582 10.1224 4.78383 10.1234C1.6909 10.1313 -1.40202 10.1243 -4.49493 10.1344C-7.34897 10.1439 -10.203 10.1814 -13.057 10.1851C-19.6659 10.194 -26.2747 10.1891 -32.8836 10.1912C-36.0101 10.1921 -39.1365 10.1771 -42.2625 10.2044C-44.4404 10.2234 -46.6178 10.2102 -48.7953 10.209C-51.578 10.2075 -54.3608 10.2007 -57.1435 10.205C-58.5264 10.2072 -59.9102 10.2625 -61.2912 10.2351C-63.9091 10.1832 -66.5271 10.2222 -69.145 10.2017C-70.6454 10.1897 -72.1468 10.229 -73.6477 10.233C-75.3852 10.2376 -77.1226 10.2308 -78.86 10.2256C-81.7476 10.217 -84.6351 10.1934 -87.5222 10.1986C-90.6142 10.2041 -93.7057 10.1869 -96.7976 10.2213C-99.4973 10.2514 -102.198 10.2271 -104.898 10.2253C-107.684 10.2234 -110.469 10.2032 -113.254 10.2238C-114.789 10.2351 -116.327 10.2477 -117.857 10.2204C-119.951 10.1829 -122.044 10.2361 -124.137 10.2023C-125.553 10.1792 -126.972 10.2477 -128.389 10.2449C-130.853 10.2403 -133.317 10.1799 -135.78 10.2032C-138.195 10.2262 -140.607 10.2038 -143.021 10.1805C-143.984 10.1712 -144.778 10.3251 -145.378 10.8281C-145.44 10.88 -145.512 10.9269 -145.584 10.9733C-146.257 11.4106 -146.595 11.3786 -146.962 10.8053C-147.209 10.4184 -147.205 10.0048 -146.955 9.61761C-146.742 9.28721 -146.336 9.13646 -145.754 9.12848C-143.203 9.09378 -140.652 9.13277 -138.101 9.14474C-134.232 9.16255 -130.362 9.1125 -126.492 9.10728C-120.543 9.0993 -114.595 9.10514 -108.646 9.10514C-108.646 9.09808 -108.646 9.09101 -108.646 9.08395C-103.71 9.08395 -98.773 9.0824 -93.8365 9.08425C-88.8158 9.08609 -83.7957 9.09346 -78.7751 9.09438C-74.7374 9.095 -70.6993 9.08916 -66.6616 9.08732C-64.0942 9.08609 -61.5268 9.09225 -58.9593 9.08518C-55.6492 9.07566 -52.3396 9.04895 -49.0295 9.04281C-44.1444 9.0336 -39.2588 9.03697 -34.3732 9.03329C-29.7411 9.02991 -25.1091 9.02561 -20.477 9.01977C-17.4714 9.01578 -14.4659 9.00318 -11.4598 9.00257C-8.28426 9.00165 -5.10919 9.01946 -1.93364 8.99367C0.700836 8.97217 3.3372 9.04618 5.97121 9.01977C6.83049 9.01118 7.40742 9.20432 7.93243 9.60043C8.2648 9.8513 8.51459 10.0945 8.48248 10.4473C8.44188 10.9042 7.96832 11.172 7.51604 11.4474ZM8.27097 13.5001C7.76437 13.9466 7.271 14.3356 6.23514 14.3522C0.0323029 14.4526 -6.17055 14.3771 -12.3729 14.4161C-15.9384 14.4385 -19.5049 14.4105 -23.0709 14.4066C-24.5241 14.405 -25.9768 14.4063 -27.43 14.4063C-27.43 14.3989 -27.43 14.3918 -27.43 14.3845C-31.0305 14.3845 -34.631 14.3817 -38.2319 14.3851C-44.4022 14.3909 -50.5729 14.4014 -56.7431 14.4084C-59.8172 14.4118 -62.8917 14.4081 -65.9657 14.4149C-68.8873 14.4213 -71.8088 14.4594 -74.7299 14.4419C-77.2298 14.4268 -79.7297 14.4462 -82.2287 14.4468C-84.8953 14.4474 -87.5633 14.4234 -90.2308 14.4465C-93.1537 14.4717 -96.0772 14.4603 -99.0001 14.4618C-106.05 14.4658 -113.1 14.4698 -120.149 14.4707C-126.59 14.4717 -133.031 14.4738 -139.472 14.4649C-141.481 14.4621 -143.49 14.4185 -145.5 14.4084C-146.116 14.4053 -146.423 14.1318 -146.665 13.8566C-147.009 13.4667 -147.21 13.0364 -147.106 12.5657C-147.043 12.2762 -146.758 12.0898 -146.454 11.9231C-146.195 11.7812 -145.978 11.9372 -145.806 12.0536C-145.303 12.3932 -144.817 12.7435 -144.253 13.0441C-144.057 13.1485 -143.866 13.1961 -143.614 13.1983C-137.191 13.2499 -130.769 13.2465 -124.346 13.2287C-121.036 13.2195 -117.725 13.1958 -114.414 13.2314C-111.931 13.2582 -109.445 13.2738 -106.963 13.2317C-103.468 13.1722 -99.9751 13.2603 -96.4799 13.2066C-92.9668 13.1525 -89.448 13.2247 -85.9344 13.2038C-80.9152 13.174 -75.896 13.2235 -70.8773 13.1605C-68.7499 13.1338 -66.6201 13.1943 -64.4927 13.163C-61.8913 13.1246 -59.2907 13.1448 -56.6898 13.1359C-54.6639 13.1292 -52.6375 13.1246 -50.6111 13.1307C-47.5876 13.1399 -44.5631 13.1946 -41.542 13.1642C-32.6178 13.0739 -23.6931 13.1375 -14.7689 13.1181C-8.49718 13.1046 -2.22591 13.1184 4.04587 13.12C5.2937 13.3724 5.96083 12.8083 6.6879 12.329C6.81821 12.2433 6.93671 12.1478 7.0826 12.0747C7.28232 11.9743 7.50328 11.9743 7.66475 12.1107C7.94189 12.3453 8.20485 12.5866 8.36113 12.8697C8.48531 13.0914 8.47917 13.3165 8.27097 13.5001ZM7.85596 9.26297C7.73839 9.18651 7.64113 9.09346 7.55614 8.9995C7.41072 8.8386 7.19308 8.77688 6.9202 8.78179C3.86127 8.83706 0.801392 8.80268 -2.258 8.80636C-9.33853 8.81496 -16.419 8.81282 -23.4996 8.81896C-26.3545 8.82141 -29.2095 8.84044 -32.0645 8.84014C-34.562 8.83983 -37.0615 8.78272 -39.5572 8.82387C-42.7507 8.87668 -45.9436 8.86717 -49.1371 8.86932C-60.226 8.87638 -71.3154 8.87238 -82.4043 8.87515C-88.2705 8.87668 -94.1372 8.88619 -100.004 8.88742C-103.198 8.88804 -106.393 8.87606 -109.587 8.87606C-112.086 8.87606 -114.586 8.87177 -117.086 8.89265C-124.842 8.95744 -132.598 8.93348 -140.355 8.93624C-142.329 8.93686 -144.302 8.85274 -146.278 8.91169C-146.593 8.92121 -146.78 9.01394 -146.969 9.13892C-147.962 9.79695 -148.949 10.459 -149.945 11.1149C-150.389 11.4075 -150.567 11.3796 -150.789 11.0003C-151.272 10.1768 -151.138 9.79909 -150.151 9.18159C-149.701 8.90001 -149.237 8.62611 -148.814 8.32765C-148.442 8.06511 -148.021 7.97053 -147.47 7.97114C-142.01 7.9779 -136.549 7.96993 -131.087 7.96655C-127.877 7.9644 -124.665 7.9951 -121.455 7.95488C-115.081 7.87535 -108.707 7.92509 -102.334 7.91588C-92.5806 7.90175 -82.8269 7.91342 -73.0736 7.91404C-72.1775 7.91404 -71.2814 7.91404 -70.3853 7.91404C-70.3853 7.90728 -70.3853 7.90022 -70.3853 7.89346C-66.0748 7.89346 -61.7642 7.90666 -57.4537 7.88947C-53.722 7.87442 -49.9912 7.86184 -46.259 7.87382C-41.5793 7.88887 -36.8986 7.85969 -32.2189 7.85632C-28.0263 7.85324 -23.8343 7.86184 -19.6418 7.86061C-11.1208 7.85846 -2.6003 7.85478 5.92068 7.84771C6.7115 7.8471 7.49855 7.93338 8.29361 7.86767C8.61467 7.84096 8.94044 7.90421 9.17935 8.06388C9.92012 8.55886 10.7402 9.00473 11.3861 9.55867C11.7704 9.88815 12.0905 10.2302 12.0211 10.6696C11.9932 10.8474 11.9318 11.0157 11.7623 11.1603C11.4762 11.4041 11.2156 11.4216 10.8804 11.2076C9.86958 10.5621 8.86111 9.91394 7.85596 9.26297ZM-150.933 12.0929C-150.743 11.8334 -150.458 11.7833 -150.142 11.9866C-149.183 12.6044 -148.243 13.2348 -147.289 13.8554C-146.967 14.0645 -146.636 14.2693 -146.286 14.4578C-146.036 14.5926 -145.734 14.6455 -145.392 14.6442C-143.889 14.6384 -142.385 14.6273 -140.882 14.655C-136.421 14.7367 -131.958 14.6719 -127.496 14.6881C-123.577 14.7023 -119.657 14.6633 -115.738 14.6716C-112.56 14.6783 -109.382 14.6881 -106.204 14.6743C-103.398 14.662 -100.592 14.701 -97.7868 14.6746C-94.5267 14.6436 -91.2671 14.6276 -88.0075 14.6455C-85.2376 14.6605 -82.4676 14.6525 -79.6981 14.6581C-77.5527 14.6623 -75.406 14.6722 -73.2606 14.6562C-66.4152 14.6049 -59.5702 14.6479 -52.7248 14.6277C-48.2797 14.6144 -43.8342 14.6255 -39.3891 14.6246C-37.5657 14.6243 -35.7428 14.6181 -33.9194 14.6184C-25.0977 14.6209 -16.276 14.6273 -7.45425 14.6267C-5.24043 14.6264 -3.0271 14.6356 -0.813293 14.5957C0.737656 14.5678 2.29099 14.6105 3.84334 14.6166C4.97078 14.6209 6.10011 14.5119 7.22614 14.6452C7.42821 14.6691 7.54105 14.5644 7.5977 14.4603C7.7332 14.2106 8.02216 14.0427 8.29692 13.8652C9.15952 13.3079 10.0188 12.7487 10.8842 12.1933C11.3341 11.9043 11.5607 11.9467 11.896 12.2952C12.5928 13.0202 12.2557 13.7854 11.4106 14.3209C10.8431 14.6805 10.2855 15.0477 9.72087 15.4085C9.24402 15.7128 8.702 15.6634 8.17085 15.6849C7.41356 15.7156 6.65108 15.6928 5.89096 15.6928C5.89096 15.6889 5.89096 15.6852 5.89096 15.6812C2.09079 15.6812 -1.70937 15.6824 -5.50954 15.6809C-9.93669 15.6793 -14.3629 15.7159 -18.7905 15.6928C-23.3688 15.6689 -27.9475 15.7131 -32.5262 15.7168C-39.2035 15.722 -45.8809 15.7177 -52.5582 15.7177C-57.3248 15.7177 -62.0914 15.7177 -66.858 15.7171C-72.5524 15.7165 -78.2467 15.7137 -83.9416 15.7146C-94.5413 15.7162 -105.141 15.7128 -115.74 15.7257C-120.033 15.7309 -124.327 15.7312 -128.62 15.746C-134.957 15.7675 -141.296 15.7269 -147.633 15.7177C-148.109 15.7171 -148.489 15.6075 -148.801 15.3864C-149.481 14.904 -150.242 14.4735 -150.734 13.8775C-151.222 13.2852 -151.389 12.7131 -150.933 12.0929ZM-148.945 15.6195C-148.56 15.8722 -148.118 15.9391 -147.616 15.9391C-141.631 15.9419 -135.646 15.9453 -129.661 15.9453C-121.362 15.9453 -113.063 15.9416 -104.764 15.9406C-100.016 15.94 -95.267 15.9456 -90.5183 15.9391C-88.474 15.9363 -86.4297 15.8878 -84.3858 15.9007C-82.105 15.9152 -79.8255 15.9376 -77.5447 15.913C-75.1977 15.8878 -72.8494 15.8835 -70.5019 15.8888C-66.6673 15.8974 -62.8327 15.9256 -58.998 15.937C-56.0241 15.9456 -53.0501 15.9422 -50.0762 15.9413C-47.6273 15.9407 -45.1788 15.9403 -42.7299 15.9317C-39.2687 15.9195 -35.808 15.8915 -32.3468 15.8854C-27.8847 15.8774 -23.4231 15.8848 -18.961 15.8844C-16.0045 15.8841 -13.0476 15.8811 -10.0911 15.8811C-5.18945 15.8811 -0.287796 15.8826 4.61337 15.8841C6.01465 15.8848 7.41592 15.8826 8.81721 15.8918C9.38943 15.8955 9.83041 15.7794 10.2468 15.5012C11.8223 14.4477 13.437 13.4191 15.0422 12.3846C15.4586 12.1165 15.6305 12.1306 15.9582 12.4383C16.3878 12.8415 16.3897 13.2907 16.1886 13.7304C16.0299 14.0783 15.6895 14.3752 15.2906 14.6353C14.444 15.1871 13.5772 15.726 12.7524 16.291C12.0286 16.7869 11.2204 17.0436 10.1212 17.0175C7.87674 16.9641 5.62798 16.9785 3.38063 16.9733C1.0332 16.9678 -1.31468 16.9721 -3.66211 16.9721C-3.66211 16.973 -3.66211 16.9742 -3.66211 16.9751C-5.84099 16.9751 -8.02316 16.9272 -10.1987 16.9874C-12.819 17.0602 -15.4366 16.9899 -18.0531 16.9883C-22.3457 16.9859 -26.6392 16.9905 -30.9318 16.9761C-34.0082 16.9659 -37.0846 16.9669 -40.161 16.9785C-43.0632 16.9893 -45.9654 17.0083 -48.868 16.9831C-51.5015 16.9604 -54.1379 16.9392 -56.7691 16.9939C-59.524 17.0513 -62.2751 16.9493 -65.0271 16.9914C-67.9487 17.0359 -70.8697 16.989 -73.7922 17.0212C-77.7789 17.0654 -81.7684 17.0187 -85.7564 17.0209C-94.0569 17.0255 -102.357 17.0366 -110.658 17.0451C-114.917 17.0494 -119.177 17.0593 -123.437 17.0571C-130.298 17.0541 -137.159 17.0473 -144.02 17.0326C-146.031 17.0283 -148.041 16.9914 -150.052 16.9702C-150.259 16.9681 -150.446 16.9475 -150.613 16.8511C-151.698 16.2238 -152.71 15.5458 -153.693 14.8549C-154.114 14.5595 -154.32 14.1471 -154.546 13.7568C-154.778 13.3558 -154.887 12.9606 -154.812 12.5402C-154.787 12.3984 -154.775 12.2369 -154.554 12.1687C-154.289 12.087 -154.159 12.2568 -154.015 12.3492C-152.317 13.4353 -150.62 14.5202 -148.945 15.6195ZM15.6593 11.5791C15.3392 11.6823 15.1598 11.5524 14.9558 11.4317C13.183 10.3813 11.4753 9.28599 9.81152 8.1643C9.22609 7.76972 8.60428 7.63185 7.80167 7.6343C4.8466 7.64351 1.89154 7.61927 -1.06303 7.62909C-4.8311 7.64168 -8.59915 7.66378 -12.3663 7.66562C-15.1344 7.66685 -17.9048 7.67299 -20.6739 7.66961C-23.5463 7.66623 -26.4197 7.67024 -29.2926 7.67638C-32.4696 7.68344 -35.646 7.67178 -38.823 7.673C-42.897 7.67454 -46.971 7.68314 -51.045 7.68498C-56.9773 7.68805 -62.9096 7.68835 -68.8419 7.68865C-78.9011 7.68927 -88.9608 7.68866 -99.02 7.68897C-103.076 7.68897 -107.132 7.68497 -111.187 7.69265C-113.333 7.69694 -115.477 7.73471 -117.623 7.73656C-127.444 7.74515 -137.264 7.74638 -147.085 7.75007C-147.203 7.75007 -147.324 7.75836 -147.44 7.747C-148.247 7.66685 -148.777 7.91589 -149.312 8.29112C-150.585 9.18436 -151.934 10.0309 -153.251 10.8981C-153.523 11.0774 -153.777 11.269 -154.054 11.4443C-154.324 11.6144 -154.559 11.6129 -154.8 11.3912C-155.609 10.6469 -155.475 9.81292 -154.468 9.1773C-153.196 8.37464 -151.948 7.55601 -150.703 6.73615C-150.467 6.58108 -150.216 6.52796 -149.891 6.52919C-145.885 6.54147 -141.879 6.55099 -137.872 6.55529C-135.338 6.55806 -132.804 6.54792 -130.269 6.54761C-119.856 6.54669 -109.442 6.54731 -99.028 6.54731C-99.028 6.54086 -99.028 6.5341 -99.028 6.52765C-91.9272 6.52765 -84.8259 6.53073 -77.725 6.52643C-72.5179 6.52336 -67.3108 6.49388 -62.1042 6.50893C-59.4839 6.5166 -56.8631 6.54331 -54.2432 6.51567C-52.3174 6.4951 -50.3897 6.48314 -48.4658 6.49204C-45.7982 6.50432 -43.1298 6.52888 -40.4637 6.49787C-35.392 6.43891 -30.3209 6.47944 -25.2498 6.46747C-19.9577 6.45488 -14.666 6.46441 -9.37392 6.46471C-2.62813 6.46502 4.11765 6.46717 10.8629 6.46318C11.2255 6.46287 11.5008 6.52366 11.7595 6.69777C13.1443 7.62939 14.5465 8.54965 15.9398 9.47606C16.1753 9.63266 16.4194 9.78958 16.5601 9.99224C16.8972 10.478 16.3972 11.3412 15.6593 11.5791ZM19.8174 11.226C19.5629 11.3946 19.3315 11.3961 19.0789 11.2309C18.4722 10.8348 17.8561 10.4449 17.2542 10.0457C15.4114 8.82295 13.5706 7.59899 11.7383 6.37013C11.5608 6.25099 11.3705 6.23778 11.1462 6.23809C5.39851 6.24331 -0.34967 6.24945 -6.09737 6.25037C-11.0495 6.25098 -16.0022 6.23103 -20.9539 6.24669C-24.365 6.25775 -27.7766 6.24608 -31.1877 6.26358C-33.0252 6.27279 -34.8666 6.32254 -36.7083 6.2556C-37.8528 6.21414 -39.0048 6.27125 -40.1535 6.27586C-43.262 6.28814 -46.3705 6.30226 -49.4794 6.30472C-58.1345 6.31117 -66.7901 6.31333 -75.4456 6.31518C-80.2793 6.3161 -85.1134 6.31271 -89.9475 6.31148C-93.4115 6.31056 -96.876 6.30934 -100.34 6.30965C-104.684 6.30995 -109.028 6.31025 -113.372 6.3124C-115.752 6.31363 -118.134 6.29919 -120.514 6.32621C-124.026 6.36583 -127.538 6.37166 -131.051 6.37013C-134.041 6.3689 -137.033 6.40054 -140.021 6.34957C-143.332 6.29307 -146.644 6.37964 -149.953 6.29981C-150.435 6.28814 -150.78 6.39685 -151.11 6.61671C-153.4 8.1382 -155.704 9.65109 -158.004 11.1661C-158.455 11.4628 -158.593 11.4496 -158.887 11.0863C-159.335 10.5339 -159.149 9.69869 -158.445 9.24301C-156.805 8.18241 -155.153 7.1301 -153.506 6.07442C-153.242 5.90492 -152.946 5.75171 -152.722 5.56225C-152.278 5.18671 -151.699 5.13788 -151.019 5.14433C-144.445 5.20636 -137.871 5.13697 -131.297 5.11763C-128.188 5.10841 -125.079 5.13482 -121.971 5.11609C-115.769 5.07863 -109.567 5.10411 -103.364 5.08661C-100.373 5.07832 -97.3807 5.08507 -94.3888 5.08507C-87.5925 5.08415 -80.7962 5.10074 -73.9999 5.07741C-70.5359 5.06543 -67.0715 5.07278 -63.6074 5.0605C-60.448 5.04914 -57.2866 5.08723 -54.1261 5.06082C-48.9384 5.01752 -43.7511 5.1164 -38.5624 5.06236C-34.9822 5.0252 -31.4002 5.08937 -27.8195 5.06757C-26.0651 5.05682 -24.3112 5.10472 -22.5544 5.04361C-21.2258 4.99756 -19.8864 5.09153 -18.5545 5.06697C-16.0366 5.0206 -13.5206 5.08323 -11.0037 5.06665C-2.94305 5.01291 5.1176 5.01414 13.1783 5.0209C13.5139 5.02121 13.7519 5.09859 13.9795 5.2469C15.9138 6.50494 17.8193 7.78292 19.8093 9.00257C20.7012 9.54853 20.5255 10.7568 19.8174 11.226ZM-167.072 22.4332C-170.485 22.4347 -173.167 20.7769 -173.035 18.5811C-172.886 16.0939 -170.574 14.849 -167.282 14.7437C-163.795 14.6323 -161.357 16.3883 -161.282 18.4242C-161.191 20.8969 -164.097 22.4095 -167.072 22.4332ZM34.0289 18.6007C33.9255 20.7139 31.5299 22.3024 27.8303 22.2348C24.8833 22.2388 22.4419 20.487 22.3909 18.438C22.3404 16.4194 24.9414 14.4259 28.6957 14.6329C31.4605 14.7855 34.1488 16.1488 34.0289 18.6007ZM32.8198 14.5509C29.9662 13.1396 26.1977 13.0705 23.3253 14.6848C20.6511 16.1878 19.9793 18.5227 21.2314 20.3442C21.5826 20.8552 21.9948 21.3471 22.6171 21.749C22.7247 21.8187 22.8513 21.9013 22.8017 22.0042C22.7455 22.1215 22.5567 22.0942 22.4089 22.1034C21.2965 22.1728 20.1832 22.1491 19.0681 22.1353C18.3958 22.127 17.7235 22.1808 17.0474 22.1553C14.7571 22.069 12.4672 22.1973 10.175 22.1623C7.98012 22.1286 5.78285 22.1676 3.5865 22.1679C-3.15739 22.1688 -9.90082 22.1648 -16.6447 22.166C-24.1672 22.1676 -31.6896 22.1691 -39.212 22.178C-41.8645 22.1811 -44.5174 22.2176 -47.1703 22.2167C-50.1433 22.2155 -53.1167 22.1798 -56.0897 22.1758C-58.8092 22.1722 -61.5296 22.217 -64.2486 22.1915C-66.4633 22.1706 -68.6772 22.1768 -70.8914 22.1755C-72.8824 22.1743 -74.8743 22.2228 -76.8644 22.1977C-78.7878 22.1734 -80.7089 22.2566 -82.6352 22.1933C-83.6711 22.1593 -84.7239 22.2173 -85.7654 22.2195C-95.5998 22.2403 -105.435 22.2244 -115.27 22.2416C-118.492 22.2471 -121.715 22.2253 -124.938 22.2919C-126.507 22.3245 -128.079 22.3005 -129.649 22.3014C-138.334 22.307 -147.018 22.3106 -155.702 22.3189C-157.036 22.3202 -158.369 22.3447 -159.703 22.3549C-160.394 22.3601 -161.083 22.2631 -161.777 22.3352C-161.893 22.3472 -162.029 22.342 -162.094 22.2655C-162.173 22.1712 -162.07 22.1015 -161.978 22.0358C-161.222 21.4969 -160.613 20.9034 -160.193 20.2189C-159.614 19.2732 -159.709 18.3201 -160.076 17.3749C-160.543 16.1731 -161.605 15.2381 -163.187 14.5171C-165.409 13.5044 -167.745 13.4835 -170.164 14.0854C-170.697 14.218 -171.144 14.5057 -171.608 14.7413C-171.953 14.9163 -172.219 14.9037 -172.538 14.7087C-173.504 14.1191 -173.991 13.4366 -173.694 12.559C-173.545 12.1162 -173.179 11.8696 -172.494 11.8668C-170.871 11.8604 -169.249 11.8647 -167.626 11.8647C-167.626 11.8705 -167.626 11.8764 -167.626 11.8822C-166.071 11.8822 -164.516 11.8905 -162.961 11.8761C-162.605 11.8727 -162.361 11.9406 -162.119 12.1015C-160.205 13.3721 -158.286 14.6399 -156.356 15.9001C-155.189 16.6616 -153.995 17.4047 -152.821 18.1619C-152.437 18.4104 -151.985 18.512 -151.451 18.512C-145.737 18.5095 -140.023 18.5111 -134.308 18.5111C-132.095 18.5111 -129.882 18.516 -127.669 18.5089C-122.583 18.4926 -117.497 18.465 -112.41 18.4527C-110.216 18.4475 -108.021 18.4782 -105.827 18.4767C-100.606 18.473 -95.3855 18.4543 -90.1652 18.4518C-79.7524 18.4469 -69.3395 18.4509 -58.9263 18.446C-55.5798 18.4444 -52.2329 18.4217 -48.8864 18.4162C-43.482 18.407 -38.077 18.4027 -32.6726 18.3984C-29.8176 18.3962 -26.9631 18.3965 -24.1081 18.3999C-20.392 18.4042 -16.6759 18.4202 -12.9597 18.4177C-8.58643 18.4149 -4.21216 18.3689 0.160706 18.3971C2.98215 18.4153 5.80267 18.4008 8.62366 18.4168C9.85544 18.4239 11.0924 18.3971 12.3166 18.4632C13.2297 18.5123 13.8751 18.2593 14.4582 17.8862C16.4194 16.6309 18.3613 15.3628 20.314 14.1017C21.4014 13.3994 22.4976 12.7027 23.5849 12.0004C23.7733 11.8785 23.9721 11.7987 24.2497 11.7999C25.6831 11.8051 27.116 11.8051 28.5494 11.8073C29.4441 11.8088 30.3411 11.7845 31.233 11.8199C32.1716 11.8573 33.1153 11.8064 34.052 11.9264C35.0444 12.0535 35.653 12.8473 35.0992 13.396C34.7121 13.7799 34.2758 14.1443 33.8302 14.5011C33.4576 14.7975 33.2966 14.7864 32.8198 14.5509Z" fill="url(#paint0_linear_719_1588)"/>
<path d="M28.2022 15.5307C25.8397 15.5648 23.8044 16.9045 23.8091 18.4939C23.8138 20.1557 26.1947 21.2949 28.0417 21.2786C30.7163 21.2516 32.4174 19.9494 32.5099 18.4641C32.593 17.1275 30.4449 15.4985 28.2022 15.5307Z" fill="url(#paint1_linear_719_1588)"/>
<path d="M24.3804 5.07783C24.5092 6.55817 26.4067 7.75387 28.6578 7.75817C30.9038 7.76247 32.9495 6.5637 32.9731 4.96667C33.0189 3.56616 31.2045 1.92645 28.5639 2.04529C26.4186 2.14201 24.2302 3.35582 24.3804 5.07783Z" fill="url(#paint2_linear_719_1588)"/>
<defs>
<linearGradient id="paint0_linear_719_1588" x1="-178.001" y1="11.6967" x2="38.7793" y2="11.6967" gradientUnits="userSpaceOnUse">
<stop stop-color="#8A6441"/>
<stop offset="0.1507" stop-color="#8A6441"/>
<stop offset="0.4585" stop-color="#BFA889"/>
<stop offset="0.6129" stop-color="#D6C6A8"/>
<stop offset="0.7204" stop-color="#E0DCCF"/>
<stop offset="0.8387" stop-color="#D6C6A8"/>
<stop offset="1" stop-color="#8A6441"/>
</linearGradient>
<linearGradient id="paint1_linear_719_1588" x1="23.8094" y1="18.4044" x2="32.5122" y2="18.4044" gradientUnits="userSpaceOnUse">
<stop stop-color="#8A6441"/>
<stop offset="0.1507" stop-color="#8A6441"/>
<stop offset="0.4585" stop-color="#BFA889"/>
<stop offset="0.6129" stop-color="#D6C6A8"/>
<stop offset="0.7204" stop-color="#E0DCCF"/>
<stop offset="0.8387" stop-color="#D6C6A8"/>
<stop offset="1" stop-color="#8A6441"/>
</linearGradient>
<linearGradient id="paint2_linear_719_1588" x1="24.373" y1="4.89878" x2="32.9739" y2="4.89878" gradientUnits="userSpaceOnUse">
<stop stop-color="#8A6441"/>
<stop offset="0.1507" stop-color="#8A6441"/>
<stop offset="0.4585" stop-color="#BFA889"/>
<stop offset="0.6129" stop-color="#D6C6A8"/>
<stop offset="0.7204" stop-color="#E0DCCF"/>
<stop offset="0.8387" stop-color="#D6C6A8"/>
<stop offset="1" stop-color="#8A6441"/>
</linearGradient>
</defs>
</svg>
