<svg width="25" height="15" viewBox="0 0 25 15" fill="none" xmlns="http://www.w3.org/2000/svg">
    <path d="M12.6486 11.3691L22.2189 1.7664C22.219 1.76635 22.219 1.76631 22.2191 1.76626L22.2192 1.76617L12.6486 11.3691ZM12.6486 11.3691L2.78848 1.23282C2.78844 1.23278 2.7884 1.23274 2.78836 1.2327C2.68663 1.12748 2.5649 1.0438 2.43036 0.986646C2.29576 0.929468 2.1511 0.9 2.00494 0.9C1.85878 0.9 1.71412 0.929468 1.57953 0.986646C1.44494 1.04382 1.32316 1.12754 1.22141 1.23282L1.22141 1.23282L1.22121 1.23302C1.01511 1.44747 0.9 1.73384 0.9 2.03176C0.9 2.32967 1.01511 2.61604 1.22121 2.83049L1.22121 2.83049L1.22161 2.8309L11.8527 13.7665C11.8527 13.7665 11.8528 13.7665 11.8528 13.7666C11.9538 13.8712 12.0745 13.9546 12.208 14.0118C12.3415 14.0691 12.485 14.0991 12.6302 14.1C12.7755 14.1009 12.9194 14.0727 13.0536 14.017C13.1877 13.9614 13.3095 13.8795 13.4117 13.7761C13.4117 13.7761 13.4118 13.776 13.4118 13.776L23.7668 3.38645L23.767 3.38624C23.977 3.17429 24.0964 2.88851 24.0999 2.58967C24.1034 2.29086 23.9909 2.00236 23.786 1.78548L12.6486 11.3691Z" fill="white" stroke="white" stroke-width="0.2"/>
    </svg>
    