<svg width="179" height="41" viewBox="0 0 179 41" fill="none" xmlns="http://www.w3.org/2000/svg">
<g filter="url(#filter0_d_922_1726)">
<mask id="path-1-outside-1_922_1726" maskUnits="userSpaceOnUse" x="4" y="-1" width="171" height="35" fill="black">
<rect fill="white" x="4" y="-1" width="171" height="35"/>
<path d="M22.6863 27.95C23.0913 30.29 23.6763 31.865 25.6113 32.045L13.9113 31.955C17.3313 31.595 16.0263 26.465 15.6213 24.305L9.59133 24.17C9.00633 26.915 7.83633 31.46 11.0763 31.955H4.46133C7.11633 31.505 7.38633 29.435 8.15133 25.925L12.4713 5.45L11.8863 1.445L17.8713 0.544997L22.6863 27.95ZM10.0413 22.91H15.3513L13.2813 7.655H13.1463L10.0413 22.91ZM33.3257 1.04C30.9857 1.04 30.2207 3.515 30.2207 5.27C30.2207 10.445 39.9857 13.955 39.9857 23.45C39.9857 28.715 37.3307 32.315 32.2907 32.315C30.8957 32.315 28.1957 31.235 27.4757 31.955L27.2507 23.9C28.0157 27.95 29.2307 31.37 32.3807 31.37C33.8657 31.37 35.1707 30.605 35.1707 27.32C35.1707 17.825 25.9457 15.98 25.9457 7.25C25.9457 2.165 28.6007 0.0949977 32.8307 0.0949977C34.6307 0.0949977 36.4757 0.859999 36.9707 0.499998L37.4207 9.185C36.8357 6.395 36.8357 1.04 33.3257 1.04ZM40.391 0.544997H49.076C60.641 0.544997 60.641 23.36 49.256 23.36V29.075C49.436 30.785 50.066 32.045 51.821 32.045H43.136H40.391C42.596 32.045 43.091 30.02 43.001 27.545V5C43.091 2.525 42.596 0.544997 40.391 0.544997ZM49.526 22.325C52.496 22.325 52.496 1.22 49.256 1.22V22.325H49.526ZM66.651 27.545C66.651 29.93 67.326 31.865 69.306 32.045H58.146C59.946 31.865 60.711 30.2 60.801 28.13V4.415C60.711 2.345 59.946 0.679998 58.146 0.544997H69.306C67.326 0.679998 66.696 2.615 66.651 5V27.545ZM80.1844 21.2C82.1644 23.135 83.3344 27.5 87.1594 25.295L87.2494 32.045C79.9594 32.09 80.4994 22.28 78.6994 21.425V29.075C78.8794 30.785 79.5094 32.045 81.2644 32.045H69.8344C72.0394 32.045 72.5344 30.02 72.4444 27.545V5C72.5344 2.525 72.0394 0.544997 69.8344 0.544997H78.5194C89.5444 0.544997 90.0844 19.49 80.1844 21.2ZM78.9694 20.345C81.9394 20.345 81.9394 1.22 78.6994 1.22V20.345H78.9694ZM105.699 27.95C106.104 30.29 106.689 31.865 108.624 32.045L96.924 31.955C100.344 31.595 99.039 26.465 98.634 24.305L92.604 24.17C92.019 26.915 90.849 31.46 94.089 31.955H87.474C90.129 31.505 90.399 29.435 91.164 25.925L95.484 5.45L94.899 1.445L100.884 0.544997L105.699 27.95ZM93.054 22.91H98.364L96.294 7.655H96.159L93.054 22.91ZM108.534 0.544997H124.194L125.724 9.14C124.734 6.17 124.104 2.75 120.324 2.75H119.514V29.75C119.919 31.1 120.729 32.045 122.214 32.045L118.299 31.955L114.699 32.045H110.784C112.989 32.045 113.484 30.02 113.439 27.545L113.484 23.27V2.75H112.449C108.669 2.75 107.994 6.17 107.049 9.14L108.534 0.544997ZM134.459 27.545C134.459 29.93 135.134 31.865 137.114 32.045H125.954C127.754 31.865 128.519 30.2 128.609 28.13V4.415C128.519 2.345 127.754 0.679998 125.954 0.544997H137.114C135.134 0.679998 134.504 2.615 134.459 5V27.545ZM153.347 9.455C153.977 6.08 154.742 1.13 151.817 0.544997H158.432C155.777 0.949997 155.282 3.02 154.742 6.575L151.367 28.85L151.997 32.045H145.652L139.577 4.595C139.082 2.255 138.002 0.679998 136.112 0.499998L147.182 0.544997C145.157 0.544997 145.652 3.155 146.282 6.89L150.692 27.275L153.347 9.455ZM168.256 31.1C172.216 31.1 174.106 23.9 174.106 23.9L172.396 31.955L161.596 32.045H157.681C159.886 32.045 160.381 30.02 160.291 27.545L160.426 23.27L160.291 4.91C160.381 2.435 159.886 0.544997 157.681 0.544997H171.721L172.486 9.5C172.486 9.41 171.091 1.31 168.481 1.31H166.231V14.855H167.041C170.056 14.855 170.506 10.4 170.506 10.22V21.965C170.506 21.965 170.236 15.845 167.041 15.845H166.231V31.1H168.256Z"/>
</mask>
<path d="M22.6863 27.95C23.0913 30.29 23.6763 31.865 25.6113 32.045L13.9113 31.955C17.3313 31.595 16.0263 26.465 15.6213 24.305L9.59133 24.17C9.00633 26.915 7.83633 31.46 11.0763 31.955H4.46133C7.11633 31.505 7.38633 29.435 8.15133 25.925L12.4713 5.45L11.8863 1.445L17.8713 0.544997L22.6863 27.95ZM10.0413 22.91H15.3513L13.2813 7.655H13.1463L10.0413 22.91ZM33.3257 1.04C30.9857 1.04 30.2207 3.515 30.2207 5.27C30.2207 10.445 39.9857 13.955 39.9857 23.45C39.9857 28.715 37.3307 32.315 32.2907 32.315C30.8957 32.315 28.1957 31.235 27.4757 31.955L27.2507 23.9C28.0157 27.95 29.2307 31.37 32.3807 31.37C33.8657 31.37 35.1707 30.605 35.1707 27.32C35.1707 17.825 25.9457 15.98 25.9457 7.25C25.9457 2.165 28.6007 0.0949977 32.8307 0.0949977C34.6307 0.0949977 36.4757 0.859999 36.9707 0.499998L37.4207 9.185C36.8357 6.395 36.8357 1.04 33.3257 1.04ZM40.391 0.544997H49.076C60.641 0.544997 60.641 23.36 49.256 23.36V29.075C49.436 30.785 50.066 32.045 51.821 32.045H43.136H40.391C42.596 32.045 43.091 30.02 43.001 27.545V5C43.091 2.525 42.596 0.544997 40.391 0.544997ZM49.526 22.325C52.496 22.325 52.496 1.22 49.256 1.22V22.325H49.526ZM66.651 27.545C66.651 29.93 67.326 31.865 69.306 32.045H58.146C59.946 31.865 60.711 30.2 60.801 28.13V4.415C60.711 2.345 59.946 0.679998 58.146 0.544997H69.306C67.326 0.679998 66.696 2.615 66.651 5V27.545ZM80.1844 21.2C82.1644 23.135 83.3344 27.5 87.1594 25.295L87.2494 32.045C79.9594 32.09 80.4994 22.28 78.6994 21.425V29.075C78.8794 30.785 79.5094 32.045 81.2644 32.045H69.8344C72.0394 32.045 72.5344 30.02 72.4444 27.545V5C72.5344 2.525 72.0394 0.544997 69.8344 0.544997H78.5194C89.5444 0.544997 90.0844 19.49 80.1844 21.2ZM78.9694 20.345C81.9394 20.345 81.9394 1.22 78.6994 1.22V20.345H78.9694ZM105.699 27.95C106.104 30.29 106.689 31.865 108.624 32.045L96.924 31.955C100.344 31.595 99.039 26.465 98.634 24.305L92.604 24.17C92.019 26.915 90.849 31.46 94.089 31.955H87.474C90.129 31.505 90.399 29.435 91.164 25.925L95.484 5.45L94.899 1.445L100.884 0.544997L105.699 27.95ZM93.054 22.91H98.364L96.294 7.655H96.159L93.054 22.91ZM108.534 0.544997H124.194L125.724 9.14C124.734 6.17 124.104 2.75 120.324 2.75H119.514V29.75C119.919 31.1 120.729 32.045 122.214 32.045L118.299 31.955L114.699 32.045H110.784C112.989 32.045 113.484 30.02 113.439 27.545L113.484 23.27V2.75H112.449C108.669 2.75 107.994 6.17 107.049 9.14L108.534 0.544997ZM134.459 27.545C134.459 29.93 135.134 31.865 137.114 32.045H125.954C127.754 31.865 128.519 30.2 128.609 28.13V4.415C128.519 2.345 127.754 0.679998 125.954 0.544997H137.114C135.134 0.679998 134.504 2.615 134.459 5V27.545ZM153.347 9.455C153.977 6.08 154.742 1.13 151.817 0.544997H158.432C155.777 0.949997 155.282 3.02 154.742 6.575L151.367 28.85L151.997 32.045H145.652L139.577 4.595C139.082 2.255 138.002 0.679998 136.112 0.499998L147.182 0.544997C145.157 0.544997 145.652 3.155 146.282 6.89L150.692 27.275L153.347 9.455ZM168.256 31.1C172.216 31.1 174.106 23.9 174.106 23.9L172.396 31.955L161.596 32.045H157.681C159.886 32.045 160.381 30.02 160.291 27.545L160.426 23.27L160.291 4.91C160.381 2.435 159.886 0.544997 157.681 0.544997H171.721L172.486 9.5C172.486 9.41 171.091 1.31 168.481 1.31H166.231V14.855H167.041C170.056 14.855 170.506 10.4 170.506 10.22V21.965C170.506 21.965 170.236 15.845 167.041 15.845H166.231V31.1H168.256Z" fill="#D7A129"/>
<path d="M22.6863 27.95L23.4319 27.821L23.4316 27.8191L22.6863 27.95ZM25.6113 32.045L25.6055 32.8017L25.6814 31.2916L25.6113 32.045ZM13.9113 31.955L13.8321 31.2025L13.9055 32.7117L13.9113 31.955ZM15.6213 24.305L16.365 24.1656L16.2519 23.5623L15.6383 23.5485L15.6213 24.305ZM9.59133 24.17L9.60826 23.4135L8.98186 23.3995L8.85127 24.0123L9.59133 24.17ZM11.0763 31.955V32.7117L11.1906 31.207L11.0763 31.955ZM4.46133 31.955L4.33488 31.209L4.46133 32.7117V31.955ZM8.15133 25.925L8.89067 26.0861L8.89171 26.0812L8.15133 25.925ZM12.4713 5.45L13.2117 5.60621L13.2396 5.47417L13.2201 5.34063L12.4713 5.45ZM11.8863 1.445L11.7738 0.696733L11.0287 0.808781L11.1376 1.55436L11.8863 1.445ZM17.8713 0.544997L18.6166 0.414056L18.4888 -0.313048L17.7588 -0.203268L17.8713 0.544997ZM10.0413 22.91L9.29985 22.7591L9.11512 23.6667H10.0413V22.91ZM15.3513 22.91V23.6667H16.2176L16.1011 22.8083L15.3513 22.91ZM13.2813 7.655L14.0311 7.55326L13.9423 6.89832H13.2813V7.655ZM13.1463 7.655V6.89832H12.5281L12.4049 7.50408L13.1463 7.655ZM21.9407 28.079C22.1441 29.2541 22.4093 30.3619 22.9317 31.2058C23.4914 32.1098 24.3302 32.6858 25.5412 32.7984L25.6814 31.2916C24.9575 31.2242 24.5363 30.9227 24.2185 30.4092C23.8633 29.8356 23.6335 28.9859 23.4319 27.821L21.9407 28.079ZM25.6171 31.2883L13.9171 31.1983L13.9055 32.7117L25.6055 32.8017L25.6171 31.2883ZM13.9905 32.7075C15.0689 32.594 15.8404 32.0822 16.3205 31.3117C16.7746 30.583 16.9299 29.6857 16.957 28.829C17.011 27.1251 16.5569 25.1885 16.365 24.1656L14.8776 24.4444C15.0908 25.5815 15.4917 27.2899 15.4444 28.781C15.4209 29.5218 15.2865 30.1095 15.0361 30.5114C14.8116 30.8716 14.4638 31.136 13.8321 31.2025L13.9905 32.7075ZM15.6383 23.5485L9.60826 23.4135L9.57439 24.9265L15.6044 25.0615L15.6383 23.5485ZM8.85127 24.0123C8.56849 25.3392 8.10077 27.2717 8.14302 28.9256C8.16432 29.7593 8.31458 30.6149 8.75359 31.317C9.21483 32.0546 9.94871 32.5482 10.9621 32.703L11.1906 31.207C10.584 31.1143 10.2491 30.8542 10.0367 30.5146C9.80214 30.1395 9.67396 29.5945 9.65589 28.8869C9.61939 27.4583 10.0292 25.7458 10.3314 24.3277L8.85127 24.0123ZM11.0763 31.1983H4.46133V32.7117H11.0763V31.1983ZM4.58778 32.701C5.34612 32.5725 5.9815 32.3195 6.50835 31.9189C7.03489 31.5186 7.40913 31.0043 7.69487 30.4198C8.2415 29.3017 8.52147 27.78 8.89065 26.0861L7.41201 25.7639C7.01619 27.58 6.77866 28.8483 6.33529 29.7552C6.12603 30.1832 5.88714 30.4901 5.59243 30.7142C5.29804 30.938 4.90403 31.1125 4.33488 31.209L4.58778 32.701ZM8.89171 26.0812L13.2117 5.60621L11.7309 5.29379L7.41095 25.7688L8.89171 26.0812ZM13.2201 5.34063L12.6351 1.33563L11.1376 1.55436L11.7226 5.55936L13.2201 5.34063ZM11.9988 2.19326L17.9839 1.29326L17.7588 -0.203268L11.7738 0.696733L11.9988 2.19326ZM17.1261 0.675938L21.9411 28.0809L23.4316 27.8191L18.6166 0.414056L17.1261 0.675938ZM10.0413 23.6667H15.3513V22.1533H10.0413V23.6667ZM16.1011 22.8083L14.0311 7.55326L12.5315 7.75674L14.6015 23.0117L16.1011 22.8083ZM13.2813 6.89832H13.1463V8.41168H13.2813V6.89832ZM12.4049 7.50408L9.29985 22.7591L10.7828 23.0609L13.8878 7.80592L12.4049 7.50408ZM27.4757 31.955L26.7193 31.9761L26.7683 33.7324L28.0107 32.4901L27.4757 31.955ZM27.2507 23.9L27.9942 23.7596L26.4943 23.9211L27.2507 23.9ZM36.9707 0.499998L37.7263 0.460844L37.6541 -0.932697L36.5256 -0.111955L36.9707 0.499998ZM37.4207 9.185L36.6801 9.34028L38.1763 9.14585L37.4207 9.185ZM33.3257 0.28332C31.8287 0.28332 30.8283 1.09989 30.2403 2.11862C29.6712 3.10472 29.464 4.3038 29.464 5.27H30.9773C30.9773 4.4812 31.1527 3.56528 31.551 2.87513C31.9305 2.21761 32.4827 1.79668 33.3257 1.79668V0.28332ZM29.464 5.27C29.464 6.81032 30.1924 8.16366 31.1439 9.4163C32.0844 10.6544 33.3598 11.9346 34.5408 13.2463C36.9539 15.9262 39.229 18.9961 39.229 23.45H40.7423C40.7423 18.4089 38.1349 14.9763 35.6655 12.2337C34.4053 10.8341 33.2395 9.67314 32.349 8.50088C31.4696 7.34321 30.9773 6.31718 30.9773 5.27H29.464ZM39.229 23.45C39.229 25.965 38.5943 27.9906 37.446 29.3735C36.3139 30.737 34.6152 31.5583 32.2907 31.5583V33.0717C35.0061 33.0717 37.1549 32.093 38.6103 30.3403C40.0495 28.6069 40.7423 26.2 40.7423 23.45H39.229ZM32.2907 31.5583C32.0212 31.5583 31.6534 31.5042 31.1962 31.4149C30.973 31.3713 30.7416 31.322 30.5008 31.271C30.2624 31.2205 30.0155 31.1684 29.7724 31.1218C29.2953 31.0304 28.7876 30.9508 28.3356 30.9508C27.9202 30.9508 27.346 31.0145 26.9406 31.4199L28.0107 32.4901C27.9653 32.5355 27.9986 32.4642 28.3356 32.4642C28.6359 32.4642 29.0254 32.5196 29.4876 32.6082C29.7143 32.6516 29.9476 32.7007 30.1872 32.7515C30.4242 32.8017 30.6686 32.8537 30.9059 32.9001C31.3699 32.9908 31.8626 33.0717 32.2907 33.0717V31.5583ZM28.232 31.9339L28.007 23.8789L26.4943 23.9211L26.7193 31.9761L28.232 31.9339ZM26.5071 24.0404C26.8918 26.0767 27.4048 28.0541 28.2675 29.5347C29.1513 31.0516 30.4579 32.1267 32.3807 32.1267V30.6133C31.1535 30.6133 30.2775 29.9784 29.5751 28.7728C28.8515 27.5309 28.3746 25.7733 27.9942 23.7596L26.5071 24.0404ZM32.3807 32.1267C33.2521 32.1267 34.2024 31.8979 34.909 31.0671C35.5901 30.2662 35.9273 29.0388 35.9273 27.32H34.414C34.414 28.8862 34.0987 29.6838 33.7561 30.0867C33.439 30.4596 32.9942 30.6133 32.3807 30.6133V32.1267ZM35.9273 27.32C35.9273 22.2769 33.4485 19.2564 31.137 16.5108C28.8119 13.749 26.7023 11.3036 26.7023 7.25H25.189C25.189 11.9264 27.692 14.7685 29.9793 17.4855C32.2803 20.2186 34.414 22.8681 34.414 27.32H35.9273ZM26.7023 7.25C26.7023 4.83272 27.3318 3.27281 28.3279 2.30958C29.3288 1.34175 30.8282 0.851676 32.8307 0.851676V-0.661681C30.6031 -0.661681 28.66 -0.116754 27.2759 1.22167C25.887 2.56468 25.189 4.58228 25.189 7.25H26.7023ZM32.8307 0.851676C33.6422 0.851676 34.4749 1.0246 35.2449 1.17512C35.611 1.2467 35.9876 1.31791 36.3093 1.34298C36.4722 1.35568 36.6503 1.35927 36.8247 1.33597C36.9952 1.3132 37.2149 1.25803 37.4157 1.11195L36.5256 -0.111955C36.6027 -0.16803 36.6565 -0.168361 36.6243 -0.164063C36.596 -0.160287 36.5347 -0.157401 36.4269 -0.1658C36.2072 -0.182918 35.9172 -0.235456 35.5352 -0.310124C34.809 -0.452099 33.8191 -0.661681 32.8307 -0.661681V0.851676ZM36.215 0.539151L36.665 9.22415L38.1763 9.14585L37.7263 0.460844L36.215 0.539151ZM38.1612 9.02972C38.0206 8.35913 37.9172 7.54481 37.7756 6.62065C37.6376 5.72061 37.4666 4.74492 37.1941 3.84661C36.9237 2.95512 36.5345 2.074 35.9205 1.40758C35.2822 0.714823 34.4257 0.28332 33.3257 0.28332V1.79668C33.9806 1.79668 34.4404 2.03455 34.8075 2.43304C35.199 2.85787 35.5045 3.48988 35.7459 4.28589C35.9853 5.07508 36.1434 5.96126 36.2797 6.84997C36.4122 7.71456 36.5282 8.61586 36.6801 9.34028L38.1612 9.02972ZM49.256 23.36V22.6033H48.4993V23.36H49.256ZM49.256 29.075H48.4993V29.1147L48.5035 29.1542L49.256 29.075ZM43.001 27.545H42.2443V27.5588L42.2448 27.5725L43.001 27.545ZM43.001 5L42.2448 4.9725L42.2443 4.98625V5H43.001ZM49.256 1.22V0.463321H48.4993V1.22H49.256ZM49.256 22.325H48.4993V23.0817H49.256V22.325ZM40.391 1.30168H49.076V-0.211681H40.391V1.30168ZM49.076 1.30168C51.6784 1.30168 53.6273 2.5697 54.9576 4.53412C56.3032 6.5211 57.0048 9.21675 57.0156 11.9555C57.0264 14.6944 56.346 17.3902 55.0269 19.3766C53.7227 21.3406 51.8081 22.6033 49.256 22.6033V24.1167C52.3964 24.1167 54.7512 22.5276 56.2876 20.2137C57.8092 17.9223 58.5406 14.9144 58.5289 11.9495C58.5172 8.9845 57.762 5.97639 56.2107 3.68556C54.6441 1.37217 52.2561 -0.211681 49.076 -0.211681V1.30168ZM48.4993 23.36V29.075H50.0127V23.36H48.4993ZM48.5035 29.1542C48.5988 30.0592 48.8215 30.9655 49.3441 31.6573C49.9019 32.3958 50.733 32.8017 51.821 32.8017V31.2883C51.154 31.2883 50.7927 31.0642 50.5517 30.7452C50.2755 30.3795 50.0933 29.8008 50.0085 28.9958L48.5035 29.1542ZM51.821 31.2883H43.136V32.8017H51.821V31.2883ZM43.136 31.2883H40.391V32.8017H43.136V31.2883ZM40.391 32.8017C41.0615 32.8017 41.6538 32.6463 42.1512 32.3262C42.6474 32.0069 42.9981 31.5565 43.2399 31.0483C43.7095 30.0614 43.8032 28.7832 43.7572 27.5175L42.2448 27.5725C42.2888 28.7818 42.18 29.7536 41.8734 30.398C41.7271 30.7054 41.5462 30.9159 41.3322 31.0536C41.1194 31.1906 40.8231 31.2883 40.391 31.2883V32.8017ZM43.7577 27.545V5H42.2443V27.545H43.7577ZM43.7572 5.0275C43.8032 3.76264 43.7099 2.49326 43.2381 1.51554C42.9948 1.01132 42.6425 0.567066 42.1458 0.253311C41.6488 -0.0606341 41.0583 -0.211681 40.391 -0.211681V1.30168C40.8262 1.30168 41.1245 1.39813 41.3376 1.53278C41.5511 1.66762 41.7303 1.87305 41.8751 2.1732C42.1796 2.80424 42.2888 3.76236 42.2448 4.9725L43.7572 5.0275ZM49.526 23.0817C49.9567 23.0817 50.3084 22.8849 50.5698 22.636C50.8233 22.3946 51.0216 22.0791 51.1818 21.7465C51.5027 21.0801 51.7484 20.1791 51.9364 19.1654C52.3151 17.1239 52.4935 14.4344 52.4764 11.7677C52.4594 9.10158 52.2467 6.40942 51.8237 4.3644C51.6137 3.34872 51.3421 2.44364 50.989 1.77394C50.663 1.15555 50.1166 0.463321 49.256 0.463321V1.97668C49.2055 1.97668 49.3678 1.94398 49.6503 2.47977C49.9058 2.96425 50.1426 3.708 50.3417 4.67091C50.7372 6.58308 50.9464 9.16717 50.9631 11.7773C50.9798 14.3868 50.8038 16.9736 50.4484 18.8893C50.2695 19.8542 50.0532 20.602 49.8183 21.0898C49.7005 21.3343 49.5975 21.4722 49.5263 21.54C49.4629 21.6003 49.4666 21.5683 49.526 21.5683V23.0817ZM48.4993 1.22V22.325H50.0127V1.22H48.4993ZM49.256 23.0817H49.526V21.5683H49.256V23.0817ZM69.306 32.045V32.8017L69.3745 31.2914L69.306 32.045ZM58.146 32.045L58.0707 31.2921L58.146 32.8017V32.045ZM60.801 28.13L61.5569 28.1629L61.5577 28.1464V28.13H60.801ZM60.801 4.415H61.5577V4.39856L61.5569 4.38213L60.801 4.415ZM58.146 0.544997V-0.211681L58.0894 1.29956L58.146 0.544997ZM69.306 0.544997L69.3575 1.29992L69.306 -0.211681V0.544997ZM66.651 5L65.8944 4.98572L65.8943 4.99286V5H66.651ZM65.8943 27.545C65.8943 28.7894 66.0672 30.0097 66.5639 30.9696C67.0837 31.974 67.9589 32.6823 69.2375 32.7986L69.3745 31.2914C68.6731 31.2277 68.2208 30.8785 67.908 30.2741C67.5722 29.6253 67.4077 28.6856 67.4077 27.545H65.8943ZM69.306 31.2883H58.146V32.8017H69.306V31.2883ZM58.2213 32.7979C59.3783 32.6822 60.2206 32.0716 60.7599 31.1917C61.2798 30.3434 61.5089 29.267 61.5569 28.1629L60.045 28.0971C60.003 29.063 59.8047 29.8541 59.4696 30.4008C59.1539 30.9159 58.7137 31.2278 58.0707 31.2921L58.2213 32.7979ZM61.5577 28.13V4.415H60.0443V28.13H61.5577ZM61.5569 4.38213C61.509 3.27884 61.2801 2.20083 60.7584 1.35663C60.2159 0.478563 59.3665 -0.122268 58.2026 -0.209562L58.0894 1.29956C58.7255 1.34726 59.1586 1.64643 59.471 2.15211C59.8044 2.69167 60.003 3.48115 60.045 4.44787L61.5569 4.38213ZM58.146 1.30168H69.306V-0.211681H58.146V1.30168ZM69.2545 -0.209929C67.9657 -0.122053 67.0951 0.580555 66.5799 1.58279C66.0906 2.5346 65.9177 3.75219 65.8944 4.98572L67.4075 5.01427C67.4292 3.86281 67.5939 2.9204 67.9258 2.27471C68.2318 1.67944 68.6663 1.34705 69.3575 1.29992L69.2545 -0.209929ZM65.8943 5V27.545H67.4077V5H65.8943ZM80.1844 21.2L80.0556 20.4544L78.5966 20.7064L79.6555 21.7412L80.1844 21.2ZM87.1594 25.295L87.916 25.2849L87.8988 23.9953L86.7815 24.6394L87.1594 25.295ZM87.2494 32.045L87.254 32.8017L88.0162 32.797L88.006 32.0349L87.2494 32.045ZM78.6994 21.425L79.024 20.7415L77.9427 20.2279V21.425H78.6994ZM78.6994 29.075H77.9427V29.1147L77.9469 29.1542L78.6994 29.075ZM72.4444 27.545H71.6877V27.5588L71.6882 27.5725L72.4444 27.545ZM72.4444 5L71.6882 4.9725L71.6877 4.98625V5H72.4444ZM78.6994 1.22V0.463321H77.9427V1.22H78.6994ZM78.6994 20.345H77.9427V21.1017H78.6994V20.345ZM79.6555 21.7412C80.0893 22.1651 80.493 22.7376 80.9495 23.397C81.3875 24.0295 81.875 24.7432 82.4349 25.3248C83.0008 25.9126 83.7003 26.4307 84.5926 26.6008C85.4967 26.7732 86.4716 26.5649 87.5373 25.9506L86.7815 24.6394C85.9347 25.1276 85.3289 25.2006 84.876 25.1142C84.4113 25.0256 83.9774 24.7449 83.5251 24.2752C83.0669 23.7993 82.6516 23.1967 82.1937 22.5355C81.7545 21.9011 81.2695 21.2024 80.7132 20.6588L79.6555 21.7412ZM86.4028 25.3051L86.4928 32.0551L88.006 32.0349L87.916 25.2849L86.4028 25.3051ZM87.2447 31.2883C85.6134 31.2984 84.4658 30.765 83.6047 29.9692C82.7225 29.1538 82.1021 28.0256 81.6201 26.7963C81.1338 25.5559 80.8241 24.3171 80.4934 23.231C80.3339 22.707 80.1643 22.2038 79.9639 21.7953C79.7758 21.4121 79.4917 20.9636 79.024 20.7415L78.3747 22.1085C78.3571 22.1001 78.4498 22.1453 78.6052 22.462C78.7483 22.7534 78.8888 23.1566 79.0457 23.6718C79.3478 24.6642 79.6962 26.0354 80.2112 27.3487C80.7304 28.6731 81.4544 30.0425 82.5775 31.0805C83.7217 32.1381 85.2404 32.8141 87.254 32.8017L87.2447 31.2883ZM77.9427 21.425V29.075H79.4561V21.425H77.9427ZM77.9469 29.1542C78.0421 30.0592 78.2649 30.9655 78.7875 31.6573C79.3452 32.3958 80.1764 32.8017 81.2644 32.8017V31.2883C80.5974 31.2883 80.236 31.0642 79.995 30.7452C79.7189 30.3795 79.5366 29.8008 79.4519 28.9958L77.9469 29.1542ZM81.2644 31.2883H69.8344V32.8017H81.2644V31.2883ZM69.8344 32.8017C70.5048 32.8017 71.0972 32.6463 71.5946 32.3262C72.0908 32.0069 72.4414 31.5565 72.6833 31.0483C73.1529 30.0614 73.2466 28.7832 73.2006 27.5175L71.6882 27.5725C71.7322 28.7818 71.6234 29.7536 71.3167 30.398C71.1705 30.7054 70.9896 30.9159 70.7756 31.0536C70.5628 31.1906 70.2664 31.2883 69.8344 31.2883V32.8017ZM73.2011 27.545V5H71.6877V27.545H73.2011ZM73.2006 5.0275C73.2466 3.76264 73.1533 2.49326 72.6815 1.51554C72.4382 1.01132 72.0859 0.567066 71.5892 0.253311C71.0922 -0.0606341 70.5016 -0.211681 69.8344 -0.211681V1.30168C70.2696 1.30168 70.5678 1.39813 70.781 1.53278C70.9944 1.66762 71.1737 1.87305 71.3185 2.1732C71.623 2.80424 71.7322 3.76236 71.6882 4.9725L73.2006 5.0275ZM69.8344 1.30168H78.5194V-0.211681H69.8344V1.30168ZM78.5194 1.30168C81.0314 1.30168 82.9205 2.36979 84.2327 4.00538C85.5603 5.66029 86.3122 7.92076 86.4432 10.2733C86.7094 15.053 84.4485 19.6956 80.0556 20.4544L80.3132 21.9456C85.8202 20.9944 88.2394 15.3095 87.9543 10.1892C87.8096 7.59174 86.9781 5.00908 85.4131 3.05837C83.8326 1.08833 81.5198 -0.211681 78.5194 -0.211681V1.30168ZM78.9694 21.1017C79.792 21.1017 80.3095 20.4467 80.6116 19.8783C80.9393 19.2616 81.1879 18.4326 81.3771 17.5085C81.7582 15.6466 81.9369 13.1995 81.9198 10.7772C81.9027 8.35553 81.6896 5.90548 81.2638 4.03991C81.0524 3.1136 80.7775 2.28077 80.4171 1.66123C80.0739 1.07144 79.5223 0.463321 78.6994 0.463321V1.97668C78.7011 1.97668 78.7301 1.97338 78.7998 2.02846C78.8782 2.09042 78.9859 2.2108 79.109 2.42232C79.3571 2.84868 79.5906 3.50999 79.7884 4.37665C80.181 6.09702 80.3898 8.42822 80.4065 10.7878C80.4231 13.1467 80.2474 15.4809 79.8945 17.205C79.7166 18.0738 79.5033 18.739 79.2752 19.1681C79.0214 19.6457 78.8893 19.5883 78.9694 19.5883V21.1017ZM77.9427 1.22V20.345H79.4561V1.22H77.9427ZM78.6994 21.1017H78.9694V19.5883H78.6994V21.1017ZM105.699 27.95L106.445 27.821L106.444 27.8191L105.699 27.95ZM108.624 32.045L108.618 32.8017L108.694 31.2916L108.624 32.045ZM96.924 31.955L96.8448 31.2025L96.9182 32.7117L96.924 31.955ZM98.634 24.305L99.3777 24.1656L99.2646 23.5623L98.651 23.5485L98.634 24.305ZM92.604 24.17L92.621 23.4135L91.9946 23.3995L91.864 24.0123L92.604 24.17ZM94.089 31.955V32.7117L94.2033 31.207L94.089 31.955ZM87.474 31.955L87.3476 31.209L87.474 32.7117V31.955ZM91.164 25.925L91.9034 26.0861L91.9044 26.0812L91.164 25.925ZM95.484 5.45L96.2244 5.60621L96.2523 5.47417L96.2328 5.34063L95.484 5.45ZM94.899 1.445L94.7865 0.696733L94.0414 0.808781L94.1503 1.55436L94.899 1.445ZM100.884 0.544997L101.629 0.414056L101.502 -0.313048L100.771 -0.203268L100.884 0.544997ZM93.054 22.91L92.3125 22.7591L92.1278 23.6667H93.054V22.91ZM98.364 22.91V23.6667H99.2303L99.1138 22.8083L98.364 22.91ZM96.294 7.655L97.0438 7.55326L96.955 6.89832H96.294V7.655ZM96.159 7.655V6.89832H95.5408L95.4175 7.50408L96.159 7.655ZM104.953 28.079C105.157 29.2541 105.422 30.3619 105.944 31.2058C106.504 32.1098 107.343 32.6858 108.554 32.7984L108.694 31.2916C107.97 31.2242 107.549 30.9227 107.231 30.4092C106.876 29.8356 106.646 28.9859 106.445 27.821L104.953 28.079ZM108.63 31.2883L96.9298 31.1983L96.9182 32.7117L108.618 32.8017L108.63 31.2883ZM97.0032 32.7075C98.0816 32.594 98.8531 32.0822 99.3332 31.3117C99.7873 30.583 99.9426 29.6857 99.9697 28.829C100.024 27.1251 99.5695 25.1885 99.3777 24.1656L97.8903 24.4444C98.1035 25.5815 98.5044 27.2899 98.4571 28.781C98.4336 29.5218 98.2992 30.1095 98.0488 30.5114C97.8243 30.8716 97.4765 31.136 96.8448 31.2025L97.0032 32.7075ZM98.651 23.5485L92.621 23.4135L92.5871 24.9265L98.6171 25.0615L98.651 23.5485ZM91.864 24.0123C91.5812 25.3392 91.1135 27.2717 91.1557 28.9256C91.177 29.7593 91.3273 30.6149 91.7663 31.317C92.2275 32.0546 92.9614 32.5482 93.9747 32.703L94.2033 31.207C93.5966 31.1143 93.2618 30.8542 93.0494 30.5146C92.8148 30.1395 92.6867 29.5945 92.6686 28.8869C92.6321 27.4583 93.0419 25.7458 93.3441 24.3277L91.864 24.0123ZM94.089 31.1983H87.474V32.7117H94.089V31.1983ZM87.6005 32.701C88.3588 32.5725 88.9942 32.3195 89.521 31.9189C90.0476 31.5186 90.4218 31.0043 90.7076 30.4198C91.2542 29.3017 91.5342 27.78 91.9033 26.0861L90.4247 25.7639C90.0289 27.58 89.7914 28.8483 89.348 29.7552C89.1387 30.1832 88.8998 30.4901 88.6051 30.7142C88.3107 30.938 87.9167 31.1125 87.3476 31.209L87.6005 32.701ZM91.9044 26.0812L96.2244 5.60621L94.7436 5.29379L90.4236 25.7688L91.9044 26.0812ZM96.2328 5.34063L95.6478 1.33563L94.1503 1.55436L94.7353 5.55936L96.2328 5.34063ZM95.0115 2.19326L100.997 1.29326L100.771 -0.203268L94.7865 0.696733L95.0115 2.19326ZM100.139 0.675938L104.954 28.0809L106.444 27.8191L101.629 0.414056L100.139 0.675938ZM93.054 23.6667H98.364V22.1533H93.054V23.6667ZM99.1138 22.8083L97.0438 7.55326L95.5442 7.75674L97.6142 23.0117L99.1138 22.8083ZM96.294 6.89832H96.159V8.41168H96.294V6.89832ZM95.4175 7.50408L92.3125 22.7591L93.7955 23.0609L96.9005 7.80592L95.4175 7.50408ZM108.534 0.544997V-0.211681H107.897L107.788 0.416171L108.534 0.544997ZM124.194 0.544997L124.939 0.412385L124.828 -0.211681H124.194V0.544997ZM125.724 9.14L125.006 9.37928L126.469 9.00739L125.724 9.14ZM119.514 2.75V1.99332H118.757V2.75H119.514ZM119.514 29.75H118.757V29.8611L118.789 29.9674L119.514 29.75ZM122.214 32.045V32.8017L122.231 31.2885L122.214 32.045ZM118.299 31.955L118.316 31.1985L118.298 31.1981L118.28 31.1986L118.299 31.955ZM114.699 32.045V32.8017H114.708L114.718 32.8014L114.699 32.045ZM113.439 27.545L112.682 27.537L112.682 27.5479L112.682 27.5588L113.439 27.545ZM113.484 23.27L114.24 23.278V23.27H113.484ZM113.484 2.75H114.24V1.99332H113.484V2.75ZM107.049 9.14L106.303 9.01117L107.77 9.36943L107.049 9.14ZM108.534 1.30168H124.194V-0.211681H108.534V1.30168ZM123.449 0.677609L124.979 9.27261L126.469 9.00739L124.939 0.412385L123.449 0.677609ZM126.442 8.90072C125.975 7.50061 125.529 5.75957 124.715 4.43501C124.293 3.74867 123.75 3.12863 123.015 2.68353C122.276 2.23587 121.388 1.99332 120.324 1.99332V3.50668C121.149 3.50668 121.758 3.69163 122.231 3.97803C122.708 4.26699 123.093 4.68758 123.425 5.22749C124.119 6.35543 124.483 7.80939 125.006 9.37928L126.442 8.90072ZM120.324 1.99332H119.514V3.50668H120.324V1.99332ZM118.757 2.75V29.75H120.27V2.75H118.757ZM118.789 29.9674C119.015 30.7205 119.374 31.4321 119.945 31.9598C120.534 32.5027 121.295 32.8017 122.214 32.8017V31.2883C121.648 31.2883 121.261 31.1148 120.972 30.8477C120.666 30.5654 120.418 30.1295 120.238 29.5326L118.789 29.9674ZM122.231 31.2885L118.316 31.1985L118.281 32.7115L122.196 32.8015L122.231 31.2885ZM118.28 31.1986L114.68 31.2886L114.718 32.8014L118.318 32.7114L118.28 31.1986ZM114.699 31.2883H110.784V32.8017H114.699V31.2883ZM110.784 32.8017C111.454 32.8017 112.046 32.6462 112.544 32.3266C113.04 32.0079 113.392 31.5586 113.636 31.0521C114.111 30.0688 114.218 28.7931 114.195 27.5312L112.682 27.5588C112.704 28.7719 112.586 29.7462 112.273 30.3942C112.124 30.7033 111.941 30.9149 111.726 31.0533C111.512 31.1906 111.216 31.2883 110.784 31.2883V32.8017ZM114.195 27.553L114.24 23.278L112.727 23.262L112.682 27.537L114.195 27.553ZM114.24 23.27V2.75H112.727V23.27H114.24ZM113.484 1.99332H112.449V3.50668H113.484V1.99332ZM112.449 1.99332C111.384 1.99332 110.495 2.23583 109.753 2.68253C109.015 3.12677 108.468 3.74595 108.042 4.43287C107.218 5.76317 106.777 7.4993 106.328 8.91057L107.77 9.36943C108.266 7.8107 108.634 6.35183 109.329 5.22963C109.663 4.6903 110.052 4.26885 110.533 3.97903C111.011 3.69167 111.623 3.50668 112.449 3.50668V1.99332ZM107.794 9.26883L109.279 0.673824L107.788 0.416171L106.303 9.01117L107.794 9.26883ZM137.114 32.045V32.8017L137.182 31.2914L137.114 32.045ZM125.954 32.045L125.878 31.2921L125.954 32.8017V32.045ZM128.609 28.13L129.365 28.1629L129.365 28.1464V28.13H128.609ZM128.609 4.415H129.365V4.39856L129.365 4.38213L128.609 4.415ZM125.954 0.544997V-0.211681L125.897 1.29956L125.954 0.544997ZM137.114 0.544997L137.165 1.29992L137.114 -0.211681V0.544997ZM134.459 5L133.702 4.98572L133.702 4.99286V5H134.459ZM133.702 27.545C133.702 28.7894 133.875 30.0097 134.372 30.9696C134.891 31.974 135.766 32.6823 137.045 32.7986L137.182 31.2914C136.481 31.2277 136.028 30.8785 135.716 30.2741C135.38 29.6253 135.215 28.6856 135.215 27.545H133.702ZM137.114 31.2883H125.954V32.8017H137.114V31.2883ZM126.029 32.7979C127.186 32.6822 128.028 32.0716 128.567 31.1917C129.087 30.3434 129.317 29.267 129.365 28.1629L127.853 28.0971C127.811 29.063 127.612 29.8541 127.277 30.4008C126.961 30.9159 126.521 31.2278 125.878 31.2921L126.029 32.7979ZM129.365 28.13V4.415H127.852V28.13H129.365ZM129.365 4.38213C129.317 3.27884 129.088 2.20083 128.566 1.35663C128.024 0.478563 127.174 -0.122268 126.01 -0.209562L125.897 1.29956C126.533 1.34726 126.966 1.64643 127.279 2.15211C127.612 2.69167 127.811 3.48115 127.853 4.44787L129.365 4.38213ZM125.954 1.30168H137.114V-0.211681H125.954V1.30168ZM137.062 -0.209929C135.773 -0.122053 134.903 0.580555 134.388 1.58279C133.898 2.5346 133.725 3.75219 133.702 4.98572L135.215 5.01427C135.237 3.86281 135.401 2.9204 135.733 2.27471C136.039 1.67944 136.474 1.34705 137.165 1.29992L137.062 -0.209929ZM133.702 5V27.545H135.215V5H133.702ZM153.347 9.455L152.603 9.31615L152.601 9.32978L152.599 9.34349L153.347 9.455ZM151.817 0.544997V-0.211681L151.669 1.28698L151.817 0.544997ZM158.432 0.544997L158.546 1.29302L158.432 -0.211681V0.544997ZM154.742 6.575L153.994 6.46136L153.994 6.46165L154.742 6.575ZM151.367 28.85L150.619 28.7366L150.599 28.867L150.625 28.9964L151.367 28.85ZM151.997 32.045V32.8017H152.917L152.739 31.8986L151.997 32.045ZM145.652 32.045L144.913 32.2085L145.044 32.8017H145.652V32.045ZM139.577 4.595L138.837 4.75161L138.838 4.7585L139.577 4.595ZM136.112 0.499998L136.115 -0.256675L136.04 1.25327L136.112 0.499998ZM147.182 0.544997V1.30168L147.185 -0.211675L147.182 0.544997ZM146.282 6.89L145.536 7.01585L145.539 7.033L145.542 7.04999L146.282 6.89ZM150.692 27.275L149.952 27.435L151.44 27.3865L150.692 27.275ZM154.091 9.59385C154.404 7.91523 154.772 5.74836 154.671 3.91205C154.62 2.99371 154.449 2.08547 154.042 1.34448C153.616 0.572308 152.939 -0.00224912 151.965 -0.196987L151.669 1.28698C152.157 1.38474 152.481 1.64831 152.716 2.07427C152.967 2.5314 153.115 3.18128 153.16 3.99545C153.249 5.62413 152.92 7.61977 152.603 9.31615L154.091 9.59385ZM151.817 1.30168H158.432V-0.211681H151.817V1.30168ZM158.318 -0.203028C157.561 -0.0875125 156.914 0.154011 156.371 0.542866C155.827 0.932251 155.427 1.44078 155.122 2.03142C154.531 3.17392 154.26 4.70885 153.994 6.46136L155.49 6.68863C155.764 4.88614 156.01 3.60858 156.466 2.72608C156.684 2.30422 156.939 1.99712 157.252 1.77338C157.565 1.54911 157.976 1.38001 158.546 1.29302L158.318 -0.203028ZM153.994 6.46165L150.619 28.7366L152.115 28.9634L155.49 6.68835L153.994 6.46165ZM150.625 28.9964L151.255 32.1914L152.739 31.8986L152.109 28.7036L150.625 28.9964ZM151.997 31.2883H145.652V32.8017H151.997V31.2883ZM146.391 31.8815L140.316 4.43149L138.838 4.7585L144.913 32.2085L146.391 31.8815ZM140.317 4.4384C139.802 2.00072 138.586 -0.0244746 136.184 -0.253272L136.04 1.25327C137.418 1.38447 138.362 2.50927 138.837 4.7516L140.317 4.4384ZM136.109 1.25667L147.179 1.30167L147.185 -0.211675L136.115 -0.256675L136.109 1.25667ZM147.182 -0.211681C146.495 -0.211681 145.897 0.0215266 145.494 0.555594C145.128 1.04104 145.008 1.66946 144.98 2.28269C144.925 3.50403 145.228 5.19263 145.536 7.01585L147.028 6.76414C146.706 4.85236 146.446 3.36846 146.492 2.35106C146.515 1.84491 146.612 1.5874 146.703 1.46674C146.757 1.39472 146.856 1.30168 147.182 1.30168V-0.211681ZM145.542 7.04999L149.952 27.435L151.432 27.115L147.022 6.73L145.542 7.04999ZM151.44 27.3865L154.095 9.5665L152.599 9.34349L149.944 27.1635L151.44 27.3865ZM174.106 23.9L174.846 24.0571L173.374 23.7079L174.106 23.9ZM172.396 31.955L172.402 32.7117L173.01 32.7066L173.136 32.1121L172.396 31.955ZM161.596 32.045V32.8017L161.602 32.8017L161.596 32.045ZM160.291 27.545L159.535 27.5211L159.534 27.5468L159.535 27.5725L160.291 27.545ZM160.426 23.27L161.182 23.2939L161.183 23.2792L161.183 23.2644L160.426 23.27ZM160.291 4.91L159.535 4.8825L159.534 4.89903L159.534 4.91556L160.291 4.91ZM171.721 0.544997L172.475 0.480591L172.416 -0.211681H171.721V0.544997ZM172.486 9.5L171.732 9.56441L173.243 9.5H172.486ZM166.231 1.31V0.553319H165.474V1.31H166.231ZM166.231 14.855H165.474V15.6117H166.231V14.855ZM170.506 21.965L169.75 21.9984L171.263 21.965H170.506ZM166.231 15.845V15.0883H165.474V15.845H166.231ZM166.231 31.1H165.474V31.8567H166.231V31.1ZM168.256 31.8567C169.493 31.8567 170.528 31.2906 171.353 30.532C172.173 29.7777 172.828 28.7971 173.333 27.8582C173.84 26.9138 174.215 25.9757 174.462 25.2776C174.586 24.9274 174.679 24.6346 174.742 24.428C174.773 24.3246 174.796 24.2426 174.812 24.1854C174.82 24.1569 174.827 24.1345 174.831 24.1188C174.833 24.111 174.835 24.1048 174.836 24.1003C174.836 24.0981 174.837 24.0963 174.837 24.0949C174.837 24.0942 174.838 24.0937 174.838 24.0932C174.838 24.093 174.838 24.0927 174.838 24.0926C174.838 24.0923 174.838 24.0921 174.106 23.9C173.374 23.7079 173.374 23.7077 173.374 23.7076C173.374 23.7076 173.374 23.7075 173.374 23.7075C173.374 23.7074 173.374 23.7075 173.374 23.7077C173.374 23.7081 173.374 23.7089 173.374 23.7101C173.373 23.7126 173.372 23.7167 173.37 23.7225C173.367 23.734 173.362 23.7521 173.355 23.7763C173.342 23.8246 173.321 23.8973 173.293 23.9908C173.236 24.1779 173.151 24.4476 173.036 24.7724C172.805 25.4243 172.459 26.2862 172 27.1418C171.537 28.0029 170.976 28.8223 170.329 29.418C169.685 30.0094 168.999 30.3433 168.256 30.3433V31.8567ZM173.366 23.7429L171.656 31.7979L173.136 32.1121L174.846 24.0571L173.366 23.7429ZM172.39 31.1983L161.59 31.2883L161.602 32.8017L172.402 32.7117L172.39 31.1983ZM161.596 31.2883H157.681V32.8017H161.596V31.2883ZM157.681 32.8017C158.352 32.8017 158.944 32.6463 159.441 32.3262C159.937 32.0069 160.288 31.5565 160.53 31.0483C161 30.0614 161.093 28.7832 161.047 27.5175L159.535 27.5725C159.579 28.7818 159.47 29.7536 159.163 30.398C159.017 30.7054 158.836 30.9159 158.622 31.0536C158.409 31.1906 158.113 31.2883 157.681 31.2883V32.8017ZM161.047 27.5689L161.182 23.2939L159.67 23.2461L159.535 27.5211L161.047 27.5689ZM161.183 23.2644L161.048 4.90443L159.534 4.91556L159.669 23.2756L161.183 23.2644ZM161.047 4.93749C161.093 3.6745 161.001 2.42239 160.524 1.46293C160.278 0.966662 159.922 0.534879 159.425 0.232406C158.929 -0.0691507 158.342 -0.211681 157.681 -0.211681V1.30168C158.123 1.30168 158.425 1.3954 158.639 1.52556C158.851 1.6548 159.027 1.85021 159.169 2.13582C159.469 2.7401 159.579 3.6705 159.535 4.8825L161.047 4.93749ZM157.681 1.30168H171.721V-0.211681H157.681V1.30168ZM170.967 0.609404L171.732 9.56441L173.24 9.43559L172.475 0.480591L170.967 0.609404ZM173.243 9.5C173.243 9.45707 173.239 9.4219 173.239 9.41986C173.237 9.40866 173.236 9.39901 173.235 9.39282C173.234 9.37995 173.232 9.36685 173.23 9.35535C173.227 9.33159 173.222 9.3017 173.216 9.26718C173.204 9.19752 173.187 9.10124 173.165 8.98249C173.12 8.74476 173.054 8.41282 172.966 8.0182C172.791 7.23086 172.529 6.18344 172.181 5.13316C171.835 4.09224 171.392 3.00463 170.841 2.16272C170.319 1.36436 169.545 0.553319 168.481 0.553319V2.06668C168.722 2.06668 169.102 2.26813 169.575 2.99134C170.019 3.67099 170.414 4.61401 170.744 5.60934C171.071 6.59531 171.32 7.58977 171.489 8.34649C171.573 8.7239 171.636 9.03954 171.677 9.262C171.698 9.37335 171.714 9.46032 171.724 9.5192C171.729 9.54895 171.732 9.56966 171.734 9.58182C171.735 9.58829 171.735 9.58949 171.735 9.58713C171.734 9.5862 171.734 9.58086 171.733 9.57301C171.733 9.56907 171.732 9.56183 171.731 9.55256C171.731 9.54566 171.729 9.52576 171.729 9.5H173.243ZM168.481 0.553319H166.231V2.06668H168.481V0.553319ZM165.474 1.31V14.855H166.988V1.31H165.474ZM166.231 15.6117H167.041V14.0983H166.231V15.6117ZM167.041 15.6117C169.012 15.6117 170.071 14.1309 170.599 12.9043C170.871 12.2737 171.034 11.6461 171.13 11.1697C171.223 10.7126 171.263 10.3415 171.263 10.22H169.749C169.749 10.1885 169.733 10.4417 169.647 10.8706C169.564 11.2802 169.427 11.8001 169.209 12.3057C168.759 13.3516 168.085 14.0983 167.041 14.0983V15.6117ZM169.749 10.22V21.965H171.263V10.22H169.749ZM170.506 21.965C171.262 21.9317 171.262 21.9314 171.262 21.9312C171.262 21.9311 171.262 21.9308 171.262 21.9306C171.262 21.9302 171.262 21.9296 171.262 21.929C171.262 21.9277 171.262 21.9261 171.262 21.9241C171.261 21.9201 171.261 21.9146 171.261 21.9077C171.26 21.894 171.259 21.8745 171.257 21.8498C171.254 21.8003 171.25 21.7296 171.242 21.6406C171.228 21.4628 171.204 21.2113 171.164 20.9104C171.086 20.3118 170.945 19.5025 170.695 18.6842C170.449 17.875 170.079 17.0025 169.513 16.3189C168.933 15.6175 168.119 15.0883 167.041 15.0883V16.6017C167.561 16.6017 167.978 16.8375 168.347 17.2836C168.731 17.7475 169.028 18.405 169.248 19.1258C169.465 19.8375 169.592 20.5582 169.664 21.1071C169.699 21.3799 169.721 21.6065 169.734 21.7634C169.74 21.8418 169.745 21.9025 169.747 21.9427C169.748 21.9628 169.749 21.9777 169.75 21.9871C169.75 21.9918 169.75 21.9952 169.75 21.997C169.75 21.998 169.75 21.9986 169.75 21.9988C169.75 21.9989 169.75 21.9989 169.75 21.9988C169.75 21.9988 169.75 21.9987 169.75 21.9987C169.75 21.9985 169.75 21.9984 170.506 21.965ZM167.041 15.0883H166.231V16.6017H167.041V15.0883ZM165.474 15.845V31.1H166.988V15.845H165.474ZM166.231 31.8567H168.256V30.3433H166.231V31.8567Z" fill="white" mask="url(#path-1-outside-1_922_1726)"/>
</g>
<defs>
<filter id="filter0_d_922_1726" x="0.461426" y="0.0949707" width="177.645" height="40.22" filterUnits="userSpaceOnUse" color-interpolation-filters="sRGB">
<feFlood flood-opacity="0" result="BackgroundImageFix"/>
<feColorMatrix in="SourceAlpha" type="matrix" values="0 0 0 0 0 0 0 0 0 0 0 0 0 0 0 0 0 0 127 0" result="hardAlpha"/>
<feOffset dy="4"/>
<feGaussianBlur stdDeviation="2"/>
<feComposite in2="hardAlpha" operator="out"/>
<feColorMatrix type="matrix" values="0 0 0 0 0 0 0 0 0 0 0 0 0 0 0 0 0 0 0.25 0"/>
<feBlend mode="normal" in2="BackgroundImageFix" result="effect1_dropShadow_922_1726"/>
<feBlend mode="normal" in="SourceGraphic" in2="effect1_dropShadow_922_1726" result="shape"/>
</filter>
</defs>
</svg>
