<svg width="57" height="37" viewBox="0 0 57 37" fill="none" xmlns="http://www.w3.org/2000/svg">
<g filter="url(#filter0_d_1015_1811)">
<mask id="path-1-outside-1_1015_1811" maskUnits="userSpaceOnUse" x="3" y="0" width="51" height="30" fill="black">
<rect fill="white" x="3" width="51" height="30"/>
<path d="M11.1979 9.155C11.5706 8.91233 11.8696 8.66533 12.0949 8.414C12.3289 8.16267 12.5629 7.80733 12.7969 7.348L13.0699 7.478C12.7319 8.26667 12.2032 8.89933 11.4839 9.376C10.7732 9.85267 9.90225 10.091 8.87091 10.091C8.13425 10.091 7.46691 9.961 6.86891 9.701C6.27091 9.43233 5.78558 9.08133 5.41291 8.648C5.04891 8.206 4.76725 7.70767 4.56791 7.153C4.36858 6.58967 4.26891 6.01767 4.26891 5.437C4.26891 4.85633 4.36858 4.28867 4.56791 3.734C4.76725 3.17067 5.04891 2.67233 5.41291 2.239C5.78558 1.80567 6.27091 1.45467 6.86891 1.186C7.46691 0.917333 8.13425 0.782999 8.87091 0.782999C9.90225 0.782999 10.7732 1.02133 11.4839 1.498C12.2032 1.97467 12.7319 2.60733 13.0699 3.396L11.1589 5.762C11.1849 4.96467 11.0462 4.202 10.7429 3.474C10.4396 2.746 10.0366 2.16967 9.53391 1.745C9.03125 1.31167 8.51125 1.10367 7.97391 1.121C6.93391 1.147 6.25791 1.67567 5.94591 2.707C5.65991 3.66033 5.73358 4.787 6.16691 6.087C6.59158 7.35233 7.21125 8.31 8.02591 8.96C9.05725 9.78333 10.1146 9.84833 11.1979 9.155ZM17.9861 0.782999C18.7315 0.782999 19.4031 0.917333 20.0011 1.186C20.5991 1.45467 21.0801 1.80567 21.4441 2.239C21.8168 2.67233 22.1028 3.17067 22.3021 3.734C22.5101 4.28867 22.6141 4.85633 22.6141 5.437C22.6141 6.01767 22.5145 6.58967 22.3151 7.153C22.1158 7.70767 21.8298 8.206 21.4571 8.648C21.0931 9.08133 20.6078 9.43233 20.0011 9.701C19.4031 9.961 18.7315 10.091 17.9861 10.091C17.2495 10.091 16.5778 9.961 15.9711 9.701C15.3731 9.43233 14.8878 9.08133 14.5151 8.648C14.1511 8.206 13.8695 7.70767 13.6701 7.153C13.4708 6.58967 13.3711 6.01767 13.3711 5.437C13.3711 4.85633 13.4708 4.28867 13.6701 3.734C13.8695 3.17067 14.1511 2.67233 14.5151 2.239C14.8878 1.80567 15.3731 1.45467 15.9711 1.186C16.5778 0.917333 17.2495 0.782999 17.9861 0.782999ZM20.6121 8.96C21.0281 8.63933 21.3011 8.22333 21.4311 7.712C21.5698 7.20067 21.5698 6.67633 21.4311 6.139C21.2925 5.593 21.0715 5.03833 20.7681 4.475C20.4735 3.903 20.1008 3.40467 19.6501 2.98C19.2081 2.54667 18.7445 2.18267 18.2591 1.888C17.7825 1.59333 17.2885 1.45033 16.7771 1.459C16.2658 1.46767 15.7978 1.62367 15.3731 1.927C14.9485 2.25633 14.6668 2.681 14.5281 3.201C14.3981 3.71233 14.4025 4.241 14.5411 4.787C14.6798 5.32433 14.8965 5.87467 15.1911 6.438C15.4945 7.00133 15.8715 7.49967 16.3221 7.933C16.7728 8.35767 17.2408 8.71733 17.7261 9.012C18.2115 9.298 18.7098 9.43667 19.2211 9.428C19.7325 9.41933 20.1961 9.26333 20.6121 8.96ZM25.7378 9.74C25.8938 9.74 26.0455 9.701 26.1928 9.623C26.3401 9.545 26.4658 9.44533 26.5698 9.324C26.6825 9.20267 26.7865 9.06833 26.8818 8.921C26.9858 8.77367 27.0681 8.62633 27.1288 8.479C27.1895 8.323 27.2415 8.18433 27.2848 8.063C27.3368 7.94167 27.3758 7.842 27.4018 7.764L27.4278 7.647L26.9338 9.974L22.6958 10C22.9298 10 23.1205 9.935 23.2678 9.805C23.4238 9.675 23.4931 9.506 23.4758 9.298V1.602C23.5018 1.394 23.4325 1.225 23.2678 1.095C23.1118 0.964999 22.9168 0.899999 22.6828 0.899999H25.8808C25.4041 0.899999 25.1658 1.134 25.1658 1.602V9.74H25.7378ZM30.3081 9.74C30.4641 9.74 30.6158 9.701 30.7631 9.623C30.9105 9.545 31.0361 9.44533 31.1401 9.324C31.2528 9.20267 31.3568 9.06833 31.4521 8.921C31.5561 8.77367 31.6385 8.62633 31.6991 8.479C31.7598 8.323 31.8118 8.18433 31.8551 8.063C31.9071 7.94167 31.9461 7.842 31.9721 7.764L31.9981 7.647L31.5041 9.974L27.2661 10C27.5001 10 27.6908 9.935 27.8381 9.805C27.9941 9.675 28.0635 9.506 28.0461 9.298V1.602C28.0721 1.394 28.0028 1.225 27.8381 1.095C27.6821 0.964999 27.4871 0.899999 27.2531 0.899999H30.4511C29.9745 0.899999 29.7361 1.134 29.7361 1.602V9.74H30.3081ZM36.9584 8.817C37.0191 9.19833 37.1101 9.48867 37.2314 9.688C37.3528 9.87867 37.5391 9.98267 37.7904 10L34.4104 9.974C34.5578 9.96533 34.6791 9.92633 34.7744 9.857C34.8784 9.779 34.9478 9.675 34.9824 9.545C35.0258 9.415 35.0561 9.29367 35.0734 9.181C35.0908 9.05967 35.0864 8.908 35.0604 8.726C35.0431 8.544 35.0258 8.40533 35.0084 8.31C34.9911 8.21467 34.9651 8.08467 34.9304 7.92C34.9218 7.85067 34.9131 7.803 34.9044 7.777L33.1624 7.725C33.1538 7.75967 33.1408 7.816 33.1234 7.894C33.0888 8.08467 33.0628 8.232 33.0454 8.336C33.0281 8.43133 33.0064 8.57 32.9804 8.752C32.9631 8.934 32.9588 9.08133 32.9674 9.194C32.9848 9.30667 33.0108 9.428 33.0454 9.558C33.0888 9.67933 33.1538 9.77467 33.2404 9.844C33.3358 9.91333 33.4571 9.95667 33.6044 9.974H31.6804C31.8191 9.95667 31.9404 9.91767 32.0444 9.857C32.1571 9.78767 32.2438 9.71833 32.3044 9.649C32.3651 9.57967 32.4214 9.467 32.4734 9.311C32.5341 9.155 32.5774 9.025 32.6034 8.921C32.6294 8.80833 32.6641 8.63933 32.7074 8.414C32.7248 8.336 32.7378 8.27533 32.7464 8.232L34.0074 2.33L33.8384 1.16L35.5544 0.899999L36.9584 8.817ZM33.2924 7.361H34.8394L34.2414 2.954H34.1894L33.2924 7.361ZM41.4209 5.008C41.6982 5.034 41.9539 5.14667 42.1879 5.346C42.4219 5.54533 42.6039 5.79233 42.7339 6.087C42.8725 6.38167 42.9722 6.70233 43.0329 7.049C43.1022 7.39567 43.1022 7.74233 43.0329 8.089C42.9635 8.43567 42.8465 8.752 42.6819 9.038C42.5172 9.31533 42.2659 9.54067 41.9279 9.714C41.5899 9.88733 41.1912 9.974 40.7319 9.974L38.9639 10H37.8199C38.2532 10 38.5045 9.73133 38.5739 9.194V2.187C38.5912 1.329 38.3355 0.899999 37.8069 0.899999H40.7969C41.1262 0.899999 41.4209 0.973666 41.6809 1.121C41.9409 1.25967 42.1445 1.446 42.2919 1.68C42.4392 1.90533 42.5519 2.15667 42.6299 2.434C42.7079 2.71133 42.7295 2.993 42.6949 3.279C42.6689 3.565 42.6082 3.82933 42.5129 4.072C42.4262 4.31467 42.2832 4.52267 42.0839 4.696C41.8932 4.86933 41.6722 4.97333 41.4209 5.008ZM40.4459 1.173H40.3419V4.995H40.4069C40.5629 4.995 40.6929 4.865 40.7969 4.605C40.9095 4.345 40.9745 4.02867 40.9919 3.656C41.0179 3.27467 41.0179 2.89767 40.9919 2.525C40.9745 2.14367 40.9139 1.823 40.8099 1.563C40.7059 1.303 40.5845 1.173 40.4459 1.173ZM40.4459 9.74C40.6539 9.74 40.8315 9.58833 40.9789 9.285C41.1349 8.973 41.2345 8.60033 41.2779 8.167C41.3212 7.73367 41.3299 7.30033 41.3039 6.867C41.2779 6.425 41.1869 6.05233 41.0309 5.749C40.8835 5.44567 40.6929 5.294 40.4589 5.294H40.3419V9.766L40.4459 9.74ZM48.0994 0.782999C48.8448 0.782999 49.5164 0.917333 50.1144 1.186C50.7124 1.45467 51.1934 1.80567 51.5574 2.239C51.9301 2.67233 52.2161 3.17067 52.4154 3.734C52.6234 4.28867 52.7274 4.85633 52.7274 5.437C52.7274 6.01767 52.6278 6.58967 52.4284 7.153C52.2291 7.70767 51.9431 8.206 51.5704 8.648C51.2064 9.08133 50.7211 9.43233 50.1144 9.701C49.5164 9.961 48.8448 10.091 48.0994 10.091C47.3628 10.091 46.6911 9.961 46.0844 9.701C45.4864 9.43233 45.0011 9.08133 44.6284 8.648C44.2644 8.206 43.9828 7.70767 43.7834 7.153C43.5841 6.58967 43.4844 6.01767 43.4844 5.437C43.4844 4.85633 43.5841 4.28867 43.7834 3.734C43.9828 3.17067 44.2644 2.67233 44.6284 2.239C45.0011 1.80567 45.4864 1.45467 46.0844 1.186C46.6911 0.917333 47.3628 0.782999 48.0994 0.782999ZM50.7254 8.96C51.1414 8.63933 51.4144 8.22333 51.5444 7.712C51.6831 7.20067 51.6831 6.67633 51.5444 6.139C51.4058 5.593 51.1848 5.03833 50.8814 4.475C50.5868 3.903 50.2141 3.40467 49.7634 2.98C49.3214 2.54667 48.8578 2.18267 48.3724 1.888C47.8958 1.59333 47.4018 1.45033 46.8904 1.459C46.3791 1.46767 45.9111 1.62367 45.4864 1.927C45.0618 2.25633 44.7801 2.681 44.6414 3.201C44.5114 3.71233 44.5158 4.241 44.6544 4.787C44.7931 5.32433 45.0098 5.87467 45.3044 6.438C45.6078 7.00133 45.9848 7.49967 46.4354 7.933C46.8861 8.35767 47.3541 8.71733 47.8394 9.012C48.3248 9.298 48.8231 9.43667 49.3344 9.428C49.8458 9.41933 50.3094 9.26333 50.7254 8.96ZM9.86016 24.2C9.99349 24.32 10.1335 24.4867 10.2802 24.7C10.4402 24.9 10.5735 25.0933 10.6802 25.28C10.8002 25.4533 10.9402 25.6267 11.1002 25.8C11.2735 25.96 11.4402 26.0867 11.6002 26.18C11.7735 26.26 11.9735 26.2933 12.2002 26.28C12.4402 26.2533 12.6935 26.1667 12.9602 26.02L13.0202 29C12.5002 29 12.0468 28.9 11.6602 28.7C11.2735 28.4867 10.9735 28.22 10.7602 27.9C10.5468 27.5667 10.3602 27.2067 10.2002 26.82C10.0402 26.42 9.91349 26.0467 9.82016 25.7C9.74016 25.3533 9.64682 25.0467 9.54016 24.78C9.43349 24.5133 9.32016 24.3533 9.20016 24.3V27.68C9.30682 28.56 9.68682 29 10.3402 29H5.26016C6.07349 29 6.46682 28.34 6.44016 27.02V16.98C6.46682 15.66 6.07349 15 5.26016 15H9.12016C9.90682 15 10.5935 15.2133 11.1802 15.64C11.7668 16.0533 12.2002 16.58 12.4802 17.22C12.7735 17.86 12.9402 18.56 12.9802 19.32C13.0202 20.08 12.9335 20.8 12.7202 21.48C12.5202 22.1467 12.1668 22.74 11.6602 23.26C11.1668 23.7667 10.5668 24.08 9.86016 24.2ZM9.34016 23.8C9.59349 23.8 9.80016 23.5133 9.96016 22.94C10.1335 22.3533 10.2335 21.6467 10.2602 20.82C10.3002 19.98 10.2935 19.1467 10.2402 18.32C10.2002 17.48 10.0868 16.7733 9.90016 16.2C9.71349 15.6133 9.48016 15.32 9.20016 15.32V23.8H9.34016ZM21.22 27.18C21.3133 27.7667 21.4533 28.2133 21.64 28.52C21.8267 28.8133 22.1133 28.9733 22.5 29L17.3 28.96C17.5267 28.9467 17.7133 28.8867 17.86 28.78C18.02 28.66 18.1267 28.5 18.18 28.3C18.2467 28.1 18.2933 27.9133 18.32 27.74C18.3467 27.5533 18.34 27.32 18.3 27.04C18.2733 26.76 18.2467 26.5467 18.22 26.4C18.1933 26.2533 18.1533 26.0533 18.1 25.8C18.0867 25.6933 18.0733 25.62 18.06 25.58L15.38 25.5C15.3667 25.5533 15.3467 25.64 15.32 25.76C15.2667 26.0533 15.2267 26.28 15.2 26.44C15.1733 26.5867 15.14 26.8 15.1 27.08C15.0733 27.36 15.0667 27.5867 15.08 27.76C15.1067 27.9333 15.1467 28.12 15.2 28.32C15.2667 28.5067 15.3667 28.6533 15.5 28.76C15.6467 28.8667 15.8333 28.9333 16.06 28.96H13.1C13.3133 28.9333 13.5 28.8733 13.66 28.78C13.8333 28.6733 13.9667 28.5667 14.06 28.46C14.1533 28.3533 14.24 28.18 14.32 27.94C14.4133 27.7 14.48 27.5 14.52 27.34C14.56 27.1667 14.6133 26.9067 14.68 26.56C14.7067 26.44 14.7267 26.3467 14.74 26.28L16.68 17.2L16.42 15.4L19.06 15L21.22 27.18ZM15.58 24.94H17.96L17.04 18.16H16.96L15.58 24.94ZM22.4798 15H29.4398L30.0998 18.82C30.0732 18.7533 30.0198 18.5933 29.9398 18.34C29.8598 18.0867 29.7998 17.9133 29.7598 17.82C29.7332 17.7267 29.6732 17.5733 29.5798 17.36C29.4998 17.1467 29.4265 17 29.3598 16.92C29.2932 16.8267 29.1998 16.7067 29.0798 16.56C28.9598 16.4133 28.8398 16.3133 28.7198 16.26C28.5998 16.1933 28.4465 16.1333 28.2598 16.08C28.0865 16.0267 27.8998 16 27.6998 16H27.3598V28C27.5465 28.6667 27.9465 29 28.5598 29L26.7998 28.96L25.2198 29H23.4598C24.2865 29 24.6798 28.34 24.6398 27.02L24.6798 25.1V16H24.1998C23.9998 16 23.8132 16.0267 23.6398 16.08C23.4665 16.1333 23.3132 16.1933 23.1798 16.26C23.0598 16.3133 22.9398 16.4133 22.8198 16.56C22.6998 16.7067 22.6065 16.8267 22.5398 16.92C22.4732 17 22.3932 17.1467 22.2998 17.36C22.2198 17.5733 22.1598 17.7267 22.1198 17.82C22.0932 17.9133 22.0398 18.0867 21.9598 18.34C21.8798 18.5933 21.8265 18.7533 21.7998 18.82L22.4798 15ZM34.002 27.02C34.002 28.2733 34.3954 28.9333 35.182 29H30.202C30.962 28.9333 31.3554 28.3533 31.382 27.26V16.74C31.3554 15.6467 30.962 15.0667 30.202 15H35.182C34.4087 15.0667 34.0154 15.7267 34.002 16.98V27.02ZM42.3969 18.98C42.4502 18.66 42.4902 18.3933 42.5169 18.18C42.5569 17.9533 42.5902 17.68 42.6169 17.36C42.6569 17.0267 42.6635 16.7467 42.6369 16.52C42.6235 16.2933 42.5835 16.0667 42.5169 15.84C42.4635 15.6 42.3635 15.4133 42.2169 15.28C42.0835 15.1333 41.9102 15.04 41.6969 15H44.6569C44.1102 15.0933 43.7302 15.34 43.5169 15.74C43.3169 16.1267 43.1502 16.7733 43.0169 17.68L41.5169 27.6L41.7769 29H38.9569L36.2769 16.8C36.0235 15.6667 35.5035 15.0667 34.7169 15H39.6369C39.2502 15 39.0369 15.2467 38.9969 15.74C38.9702 16.2333 39.0435 16.8733 39.2169 17.66C39.2302 17.74 39.2369 17.8 39.2369 17.84L41.2169 26.9L42.3969 18.98ZM49.0031 28.6C49.2431 28.6 49.4765 28.54 49.7031 28.42C49.9298 28.3 50.1231 28.1467 50.2831 27.96C50.4565 27.7733 50.6165 27.5667 50.7631 27.34C50.9098 27.1133 51.0298 26.8867 51.1231 26.66C51.2298 26.42 51.3165 26.2067 51.3831 26.02C51.4631 25.8333 51.5231 25.68 51.5631 25.56L51.6031 25.38L50.8431 28.96L46.0631 29H44.3031C45.1165 29 45.5098 28.34 45.4831 27.02L45.5231 25.1L45.4831 16.94C45.4965 16.3267 45.4165 15.8533 45.2431 15.52C45.0831 15.1733 44.7698 15 44.3031 15H50.5431L50.9031 19C50.8898 18.92 50.8431 18.7133 50.7631 18.38C50.6965 18.0467 50.5898 17.64 50.4431 17.16C50.3098 16.68 50.1165 16.26 49.8631 15.9C49.6231 15.54 49.3765 15.36 49.1231 15.36H48.1231V21.36H48.4831C48.7365 21.36 48.9565 21.2933 49.1431 21.16C49.3431 21.0133 49.4965 20.8533 49.6031 20.68C49.7098 20.4933 49.7965 20.2867 49.8631 20.06C49.9298 19.8333 49.9698 19.6667 49.9831 19.56C49.9965 19.4533 50.0098 19.3733 50.0231 19.32V24.52C50.0098 24.4533 49.9965 24.36 49.9831 24.24C49.9831 24.1067 49.9498 23.8867 49.8831 23.58C49.8165 23.26 49.7298 22.9867 49.6231 22.76C49.5298 22.52 49.3831 22.3 49.1831 22.1C48.9831 21.9 48.7498 21.8 48.4831 21.8H48.1231V28.6H49.0031Z"/>
</mask>
<path d="M11.1979 9.155C11.5706 8.91233 11.8696 8.66533 12.0949 8.414C12.3289 8.16267 12.5629 7.80733 12.7969 7.348L13.0699 7.478C12.7319 8.26667 12.2032 8.89933 11.4839 9.376C10.7732 9.85267 9.90225 10.091 8.87091 10.091C8.13425 10.091 7.46691 9.961 6.86891 9.701C6.27091 9.43233 5.78558 9.08133 5.41291 8.648C5.04891 8.206 4.76725 7.70767 4.56791 7.153C4.36858 6.58967 4.26891 6.01767 4.26891 5.437C4.26891 4.85633 4.36858 4.28867 4.56791 3.734C4.76725 3.17067 5.04891 2.67233 5.41291 2.239C5.78558 1.80567 6.27091 1.45467 6.86891 1.186C7.46691 0.917333 8.13425 0.782999 8.87091 0.782999C9.90225 0.782999 10.7732 1.02133 11.4839 1.498C12.2032 1.97467 12.7319 2.60733 13.0699 3.396L11.1589 5.762C11.1849 4.96467 11.0462 4.202 10.7429 3.474C10.4396 2.746 10.0366 2.16967 9.53391 1.745C9.03125 1.31167 8.51125 1.10367 7.97391 1.121C6.93391 1.147 6.25791 1.67567 5.94591 2.707C5.65991 3.66033 5.73358 4.787 6.16691 6.087C6.59158 7.35233 7.21125 8.31 8.02591 8.96C9.05725 9.78333 10.1146 9.84833 11.1979 9.155ZM17.9861 0.782999C18.7315 0.782999 19.4031 0.917333 20.0011 1.186C20.5991 1.45467 21.0801 1.80567 21.4441 2.239C21.8168 2.67233 22.1028 3.17067 22.3021 3.734C22.5101 4.28867 22.6141 4.85633 22.6141 5.437C22.6141 6.01767 22.5145 6.58967 22.3151 7.153C22.1158 7.70767 21.8298 8.206 21.4571 8.648C21.0931 9.08133 20.6078 9.43233 20.0011 9.701C19.4031 9.961 18.7315 10.091 17.9861 10.091C17.2495 10.091 16.5778 9.961 15.9711 9.701C15.3731 9.43233 14.8878 9.08133 14.5151 8.648C14.1511 8.206 13.8695 7.70767 13.6701 7.153C13.4708 6.58967 13.3711 6.01767 13.3711 5.437C13.3711 4.85633 13.4708 4.28867 13.6701 3.734C13.8695 3.17067 14.1511 2.67233 14.5151 2.239C14.8878 1.80567 15.3731 1.45467 15.9711 1.186C16.5778 0.917333 17.2495 0.782999 17.9861 0.782999ZM20.6121 8.96C21.0281 8.63933 21.3011 8.22333 21.4311 7.712C21.5698 7.20067 21.5698 6.67633 21.4311 6.139C21.2925 5.593 21.0715 5.03833 20.7681 4.475C20.4735 3.903 20.1008 3.40467 19.6501 2.98C19.2081 2.54667 18.7445 2.18267 18.2591 1.888C17.7825 1.59333 17.2885 1.45033 16.7771 1.459C16.2658 1.46767 15.7978 1.62367 15.3731 1.927C14.9485 2.25633 14.6668 2.681 14.5281 3.201C14.3981 3.71233 14.4025 4.241 14.5411 4.787C14.6798 5.32433 14.8965 5.87467 15.1911 6.438C15.4945 7.00133 15.8715 7.49967 16.3221 7.933C16.7728 8.35767 17.2408 8.71733 17.7261 9.012C18.2115 9.298 18.7098 9.43667 19.2211 9.428C19.7325 9.41933 20.1961 9.26333 20.6121 8.96ZM25.7378 9.74C25.8938 9.74 26.0455 9.701 26.1928 9.623C26.3401 9.545 26.4658 9.44533 26.5698 9.324C26.6825 9.20267 26.7865 9.06833 26.8818 8.921C26.9858 8.77367 27.0681 8.62633 27.1288 8.479C27.1895 8.323 27.2415 8.18433 27.2848 8.063C27.3368 7.94167 27.3758 7.842 27.4018 7.764L27.4278 7.647L26.9338 9.974L22.6958 10C22.9298 10 23.1205 9.935 23.2678 9.805C23.4238 9.675 23.4931 9.506 23.4758 9.298V1.602C23.5018 1.394 23.4325 1.225 23.2678 1.095C23.1118 0.964999 22.9168 0.899999 22.6828 0.899999H25.8808C25.4041 0.899999 25.1658 1.134 25.1658 1.602V9.74H25.7378ZM30.3081 9.74C30.4641 9.74 30.6158 9.701 30.7631 9.623C30.9105 9.545 31.0361 9.44533 31.1401 9.324C31.2528 9.20267 31.3568 9.06833 31.4521 8.921C31.5561 8.77367 31.6385 8.62633 31.6991 8.479C31.7598 8.323 31.8118 8.18433 31.8551 8.063C31.9071 7.94167 31.9461 7.842 31.9721 7.764L31.9981 7.647L31.5041 9.974L27.2661 10C27.5001 10 27.6908 9.935 27.8381 9.805C27.9941 9.675 28.0635 9.506 28.0461 9.298V1.602C28.0721 1.394 28.0028 1.225 27.8381 1.095C27.6821 0.964999 27.4871 0.899999 27.2531 0.899999H30.4511C29.9745 0.899999 29.7361 1.134 29.7361 1.602V9.74H30.3081ZM36.9584 8.817C37.0191 9.19833 37.1101 9.48867 37.2314 9.688C37.3528 9.87867 37.5391 9.98267 37.7904 10L34.4104 9.974C34.5578 9.96533 34.6791 9.92633 34.7744 9.857C34.8784 9.779 34.9478 9.675 34.9824 9.545C35.0258 9.415 35.0561 9.29367 35.0734 9.181C35.0908 9.05967 35.0864 8.908 35.0604 8.726C35.0431 8.544 35.0258 8.40533 35.0084 8.31C34.9911 8.21467 34.9651 8.08467 34.9304 7.92C34.9218 7.85067 34.9131 7.803 34.9044 7.777L33.1624 7.725C33.1538 7.75967 33.1408 7.816 33.1234 7.894C33.0888 8.08467 33.0628 8.232 33.0454 8.336C33.0281 8.43133 33.0064 8.57 32.9804 8.752C32.9631 8.934 32.9588 9.08133 32.9674 9.194C32.9848 9.30667 33.0108 9.428 33.0454 9.558C33.0888 9.67933 33.1538 9.77467 33.2404 9.844C33.3358 9.91333 33.4571 9.95667 33.6044 9.974H31.6804C31.8191 9.95667 31.9404 9.91767 32.0444 9.857C32.1571 9.78767 32.2438 9.71833 32.3044 9.649C32.3651 9.57967 32.4214 9.467 32.4734 9.311C32.5341 9.155 32.5774 9.025 32.6034 8.921C32.6294 8.80833 32.6641 8.63933 32.7074 8.414C32.7248 8.336 32.7378 8.27533 32.7464 8.232L34.0074 2.33L33.8384 1.16L35.5544 0.899999L36.9584 8.817ZM33.2924 7.361H34.8394L34.2414 2.954H34.1894L33.2924 7.361ZM41.4209 5.008C41.6982 5.034 41.9539 5.14667 42.1879 5.346C42.4219 5.54533 42.6039 5.79233 42.7339 6.087C42.8725 6.38167 42.9722 6.70233 43.0329 7.049C43.1022 7.39567 43.1022 7.74233 43.0329 8.089C42.9635 8.43567 42.8465 8.752 42.6819 9.038C42.5172 9.31533 42.2659 9.54067 41.9279 9.714C41.5899 9.88733 41.1912 9.974 40.7319 9.974L38.9639 10H37.8199C38.2532 10 38.5045 9.73133 38.5739 9.194V2.187C38.5912 1.329 38.3355 0.899999 37.8069 0.899999H40.7969C41.1262 0.899999 41.4209 0.973666 41.6809 1.121C41.9409 1.25967 42.1445 1.446 42.2919 1.68C42.4392 1.90533 42.5519 2.15667 42.6299 2.434C42.7079 2.71133 42.7295 2.993 42.6949 3.279C42.6689 3.565 42.6082 3.82933 42.5129 4.072C42.4262 4.31467 42.2832 4.52267 42.0839 4.696C41.8932 4.86933 41.6722 4.97333 41.4209 5.008ZM40.4459 1.173H40.3419V4.995H40.4069C40.5629 4.995 40.6929 4.865 40.7969 4.605C40.9095 4.345 40.9745 4.02867 40.9919 3.656C41.0179 3.27467 41.0179 2.89767 40.9919 2.525C40.9745 2.14367 40.9139 1.823 40.8099 1.563C40.7059 1.303 40.5845 1.173 40.4459 1.173ZM40.4459 9.74C40.6539 9.74 40.8315 9.58833 40.9789 9.285C41.1349 8.973 41.2345 8.60033 41.2779 8.167C41.3212 7.73367 41.3299 7.30033 41.3039 6.867C41.2779 6.425 41.1869 6.05233 41.0309 5.749C40.8835 5.44567 40.6929 5.294 40.4589 5.294H40.3419V9.766L40.4459 9.74ZM48.0994 0.782999C48.8448 0.782999 49.5164 0.917333 50.1144 1.186C50.7124 1.45467 51.1934 1.80567 51.5574 2.239C51.9301 2.67233 52.2161 3.17067 52.4154 3.734C52.6234 4.28867 52.7274 4.85633 52.7274 5.437C52.7274 6.01767 52.6278 6.58967 52.4284 7.153C52.2291 7.70767 51.9431 8.206 51.5704 8.648C51.2064 9.08133 50.7211 9.43233 50.1144 9.701C49.5164 9.961 48.8448 10.091 48.0994 10.091C47.3628 10.091 46.6911 9.961 46.0844 9.701C45.4864 9.43233 45.0011 9.08133 44.6284 8.648C44.2644 8.206 43.9828 7.70767 43.7834 7.153C43.5841 6.58967 43.4844 6.01767 43.4844 5.437C43.4844 4.85633 43.5841 4.28867 43.7834 3.734C43.9828 3.17067 44.2644 2.67233 44.6284 2.239C45.0011 1.80567 45.4864 1.45467 46.0844 1.186C46.6911 0.917333 47.3628 0.782999 48.0994 0.782999ZM50.7254 8.96C51.1414 8.63933 51.4144 8.22333 51.5444 7.712C51.6831 7.20067 51.6831 6.67633 51.5444 6.139C51.4058 5.593 51.1848 5.03833 50.8814 4.475C50.5868 3.903 50.2141 3.40467 49.7634 2.98C49.3214 2.54667 48.8578 2.18267 48.3724 1.888C47.8958 1.59333 47.4018 1.45033 46.8904 1.459C46.3791 1.46767 45.9111 1.62367 45.4864 1.927C45.0618 2.25633 44.7801 2.681 44.6414 3.201C44.5114 3.71233 44.5158 4.241 44.6544 4.787C44.7931 5.32433 45.0098 5.87467 45.3044 6.438C45.6078 7.00133 45.9848 7.49967 46.4354 7.933C46.8861 8.35767 47.3541 8.71733 47.8394 9.012C48.3248 9.298 48.8231 9.43667 49.3344 9.428C49.8458 9.41933 50.3094 9.26333 50.7254 8.96ZM9.86016 24.2C9.99349 24.32 10.1335 24.4867 10.2802 24.7C10.4402 24.9 10.5735 25.0933 10.6802 25.28C10.8002 25.4533 10.9402 25.6267 11.1002 25.8C11.2735 25.96 11.4402 26.0867 11.6002 26.18C11.7735 26.26 11.9735 26.2933 12.2002 26.28C12.4402 26.2533 12.6935 26.1667 12.9602 26.02L13.0202 29C12.5002 29 12.0468 28.9 11.6602 28.7C11.2735 28.4867 10.9735 28.22 10.7602 27.9C10.5468 27.5667 10.3602 27.2067 10.2002 26.82C10.0402 26.42 9.91349 26.0467 9.82016 25.7C9.74016 25.3533 9.64682 25.0467 9.54016 24.78C9.43349 24.5133 9.32016 24.3533 9.20016 24.3V27.68C9.30682 28.56 9.68682 29 10.3402 29H5.26016C6.07349 29 6.46682 28.34 6.44016 27.02V16.98C6.46682 15.66 6.07349 15 5.26016 15H9.12016C9.90682 15 10.5935 15.2133 11.1802 15.64C11.7668 16.0533 12.2002 16.58 12.4802 17.22C12.7735 17.86 12.9402 18.56 12.9802 19.32C13.0202 20.08 12.9335 20.8 12.7202 21.48C12.5202 22.1467 12.1668 22.74 11.6602 23.26C11.1668 23.7667 10.5668 24.08 9.86016 24.2ZM9.34016 23.8C9.59349 23.8 9.80016 23.5133 9.96016 22.94C10.1335 22.3533 10.2335 21.6467 10.2602 20.82C10.3002 19.98 10.2935 19.1467 10.2402 18.32C10.2002 17.48 10.0868 16.7733 9.90016 16.2C9.71349 15.6133 9.48016 15.32 9.20016 15.32V23.8H9.34016ZM21.22 27.18C21.3133 27.7667 21.4533 28.2133 21.64 28.52C21.8267 28.8133 22.1133 28.9733 22.5 29L17.3 28.96C17.5267 28.9467 17.7133 28.8867 17.86 28.78C18.02 28.66 18.1267 28.5 18.18 28.3C18.2467 28.1 18.2933 27.9133 18.32 27.74C18.3467 27.5533 18.34 27.32 18.3 27.04C18.2733 26.76 18.2467 26.5467 18.22 26.4C18.1933 26.2533 18.1533 26.0533 18.1 25.8C18.0867 25.6933 18.0733 25.62 18.06 25.58L15.38 25.5C15.3667 25.5533 15.3467 25.64 15.32 25.76C15.2667 26.0533 15.2267 26.28 15.2 26.44C15.1733 26.5867 15.14 26.8 15.1 27.08C15.0733 27.36 15.0667 27.5867 15.08 27.76C15.1067 27.9333 15.1467 28.12 15.2 28.32C15.2667 28.5067 15.3667 28.6533 15.5 28.76C15.6467 28.8667 15.8333 28.9333 16.06 28.96H13.1C13.3133 28.9333 13.5 28.8733 13.66 28.78C13.8333 28.6733 13.9667 28.5667 14.06 28.46C14.1533 28.3533 14.24 28.18 14.32 27.94C14.4133 27.7 14.48 27.5 14.52 27.34C14.56 27.1667 14.6133 26.9067 14.68 26.56C14.7067 26.44 14.7267 26.3467 14.74 26.28L16.68 17.2L16.42 15.4L19.06 15L21.22 27.18ZM15.58 24.94H17.96L17.04 18.16H16.96L15.58 24.94ZM22.4798 15H29.4398L30.0998 18.82C30.0732 18.7533 30.0198 18.5933 29.9398 18.34C29.8598 18.0867 29.7998 17.9133 29.7598 17.82C29.7332 17.7267 29.6732 17.5733 29.5798 17.36C29.4998 17.1467 29.4265 17 29.3598 16.92C29.2932 16.8267 29.1998 16.7067 29.0798 16.56C28.9598 16.4133 28.8398 16.3133 28.7198 16.26C28.5998 16.1933 28.4465 16.1333 28.2598 16.08C28.0865 16.0267 27.8998 16 27.6998 16H27.3598V28C27.5465 28.6667 27.9465 29 28.5598 29L26.7998 28.96L25.2198 29H23.4598C24.2865 29 24.6798 28.34 24.6398 27.02L24.6798 25.1V16H24.1998C23.9998 16 23.8132 16.0267 23.6398 16.08C23.4665 16.1333 23.3132 16.1933 23.1798 16.26C23.0598 16.3133 22.9398 16.4133 22.8198 16.56C22.6998 16.7067 22.6065 16.8267 22.5398 16.92C22.4732 17 22.3932 17.1467 22.2998 17.36C22.2198 17.5733 22.1598 17.7267 22.1198 17.82C22.0932 17.9133 22.0398 18.0867 21.9598 18.34C21.8798 18.5933 21.8265 18.7533 21.7998 18.82L22.4798 15ZM34.002 27.02C34.002 28.2733 34.3954 28.9333 35.182 29H30.202C30.962 28.9333 31.3554 28.3533 31.382 27.26V16.74C31.3554 15.6467 30.962 15.0667 30.202 15H35.182C34.4087 15.0667 34.0154 15.7267 34.002 16.98V27.02ZM42.3969 18.98C42.4502 18.66 42.4902 18.3933 42.5169 18.18C42.5569 17.9533 42.5902 17.68 42.6169 17.36C42.6569 17.0267 42.6635 16.7467 42.6369 16.52C42.6235 16.2933 42.5835 16.0667 42.5169 15.84C42.4635 15.6 42.3635 15.4133 42.2169 15.28C42.0835 15.1333 41.9102 15.04 41.6969 15H44.6569C44.1102 15.0933 43.7302 15.34 43.5169 15.74C43.3169 16.1267 43.1502 16.7733 43.0169 17.68L41.5169 27.6L41.7769 29H38.9569L36.2769 16.8C36.0235 15.6667 35.5035 15.0667 34.7169 15H39.6369C39.2502 15 39.0369 15.2467 38.9969 15.74C38.9702 16.2333 39.0435 16.8733 39.2169 17.66C39.2302 17.74 39.2369 17.8 39.2369 17.84L41.2169 26.9L42.3969 18.98ZM49.0031 28.6C49.2431 28.6 49.4765 28.54 49.7031 28.42C49.9298 28.3 50.1231 28.1467 50.2831 27.96C50.4565 27.7733 50.6165 27.5667 50.7631 27.34C50.9098 27.1133 51.0298 26.8867 51.1231 26.66C51.2298 26.42 51.3165 26.2067 51.3831 26.02C51.4631 25.8333 51.5231 25.68 51.5631 25.56L51.6031 25.38L50.8431 28.96L46.0631 29H44.3031C45.1165 29 45.5098 28.34 45.4831 27.02L45.5231 25.1L45.4831 16.94C45.4965 16.3267 45.4165 15.8533 45.2431 15.52C45.0831 15.1733 44.7698 15 44.3031 15H50.5431L50.9031 19C50.8898 18.92 50.8431 18.7133 50.7631 18.38C50.6965 18.0467 50.5898 17.64 50.4431 17.16C50.3098 16.68 50.1165 16.26 49.8631 15.9C49.6231 15.54 49.3765 15.36 49.1231 15.36H48.1231V21.36H48.4831C48.7365 21.36 48.9565 21.2933 49.1431 21.16C49.3431 21.0133 49.4965 20.8533 49.6031 20.68C49.7098 20.4933 49.7965 20.2867 49.8631 20.06C49.9298 19.8333 49.9698 19.6667 49.9831 19.56C49.9965 19.4533 50.0098 19.3733 50.0231 19.32V24.52C50.0098 24.4533 49.9965 24.36 49.9831 24.24C49.9831 24.1067 49.9498 23.8867 49.8831 23.58C49.8165 23.26 49.7298 22.9867 49.6231 22.76C49.5298 22.52 49.3831 22.3 49.1831 22.1C48.9831 21.9 48.7498 21.8 48.4831 21.8H48.1231V28.6H49.0031Z" fill="#D7A129"/>
<path d="M11.1979 9.155L11.6058 9.79235L11.6108 9.78909L11.1979 9.155ZM12.0949 8.414L11.5411 7.89839L11.5363 7.90359L11.5315 7.90888L12.0949 8.414ZM12.7969 7.348L13.1222 6.66482L12.4571 6.34809L12.1227 7.00452L12.7969 7.348ZM13.0699 7.478L13.7654 7.77607L14.0519 7.10753L13.3952 6.79482L13.0699 7.478ZM11.4839 9.376L11.0659 8.74523L11.0624 8.74759L11.4839 9.376ZM6.86891 9.701L6.55879 10.3913L6.56721 10.3949L6.86891 9.701ZM5.41291 8.648L4.82881 9.12903L4.83395 9.13526L4.83921 9.14138L5.41291 8.648ZM4.56791 7.153L3.85457 7.40541L3.85582 7.40891L4.56791 7.153ZM4.56791 3.734L5.28001 3.98991L5.28125 3.98641L4.56791 3.734ZM5.41291 2.239L4.83917 1.74558L4.83352 1.75231L5.41291 2.239ZM11.4839 1.498L11.0624 2.12642L11.0659 2.12876L11.4839 1.498ZM13.0699 3.396L13.6586 3.87145L13.945 3.51687L13.7654 3.09793L13.0699 3.396ZM11.1589 5.762L10.4026 5.73734L10.3291 7.99369L11.7476 6.23745L11.1589 5.762ZM10.7429 3.474L10.0444 3.76503L10.7429 3.474ZM9.53391 1.745L9.03982 2.31814L9.04559 2.32302L9.53391 1.745ZM7.97391 1.121L7.99283 1.87746L7.99831 1.87728L7.97391 1.121ZM5.94591 2.707L5.22165 2.48789L5.22115 2.48957L5.94591 2.707ZM6.16691 6.087L5.44906 6.32628L5.44956 6.32776L6.16691 6.087ZM8.02591 8.96L8.498 8.36865L8.49784 8.36852L8.02591 8.96ZM11.6108 9.78909C12.0226 9.52096 12.3772 9.23263 12.6583 8.91912L11.5315 7.90888C11.3619 8.09804 11.1186 8.30371 10.785 8.5209L11.6108 9.78909ZM12.6487 8.92961C12.9482 8.60794 13.2195 8.18547 13.4711 7.69148L12.1227 7.00452C11.9063 7.4292 11.7096 7.71739 11.5411 7.89839L12.6487 8.92961ZM12.4716 8.03118L12.7446 8.16118L13.3952 6.79482L13.1222 6.66482L12.4716 8.03118ZM12.3744 7.17993C12.0949 7.8322 11.6631 8.34956 11.0659 8.74524L11.9019 10.0068C12.7434 9.44911 13.369 8.70113 13.7654 7.77607L12.3744 7.17993ZM11.0624 8.74759C10.5001 9.12478 9.78338 9.33432 8.87091 9.33432V10.8477C10.0211 10.8477 11.0464 10.5806 11.9054 10.0044L11.0624 8.74759ZM8.87091 9.33432C8.22461 9.33432 7.66181 9.22063 7.17062 9.00707L6.56721 10.3949C7.27201 10.7014 8.04389 10.8477 8.87091 10.8477V9.33432ZM7.17901 9.01078C6.66738 8.78092 6.27699 8.49226 5.98662 8.15462L4.83921 9.14138C5.29417 9.67041 5.87445 10.0837 6.55882 10.3912L7.17901 9.01078ZM5.99702 8.16697C5.68992 7.79407 5.4508 7.37236 5.28001 6.89709L3.85582 7.40891C4.08369 8.04297 4.40791 8.61793 4.82881 9.12903L5.99702 8.16697ZM5.28125 6.90059C5.10976 6.41593 5.02559 5.92918 5.02559 5.437H3.51224C3.51224 6.10616 3.62741 6.76341 3.85458 7.40541L5.28125 6.90059ZM5.02559 5.437C5.02559 4.94489 5.10972 4.46374 5.28001 3.98991L3.85582 3.47809C3.62744 4.1136 3.51224 4.76777 3.51224 5.437H5.02559ZM5.28125 3.98641C5.45204 3.50374 5.68984 3.08577 5.99231 2.72569L4.83352 1.75231C4.40799 2.25889 4.08245 2.83759 3.85458 3.48159L5.28125 3.98641ZM5.98662 2.73238C6.27699 2.39474 6.66738 2.10608 7.17901 1.87622L6.55882 0.495781C5.87445 0.803251 5.29417 1.21659 4.83921 1.74562L5.98662 2.73238ZM7.17901 1.87622C7.6681 1.65648 8.22789 1.53968 8.87091 1.53968V0.0263206C8.0406 0.0263206 7.26573 0.178181 6.55882 0.495781L7.17901 1.87622ZM8.87091 1.53968C9.78338 1.53968 10.5001 1.74922 11.0624 2.12641L11.9054 0.869586C11.0464 0.293446 10.0211 0.0263206 8.87091 0.0263206V1.53968ZM11.0659 2.12876C11.6631 2.52444 12.0949 3.0418 12.3744 3.69407L13.7654 3.09793C13.369 2.17287 12.7434 1.42489 11.9019 0.867238L11.0659 2.12876ZM12.4813 2.92055L10.5703 5.28655L11.7476 6.23745L13.6586 3.87145L12.4813 2.92055ZM11.9152 5.78666C11.9447 4.88246 11.7868 4.01204 11.4414 3.18297L10.0444 3.76503C10.3057 4.39196 10.4252 5.04687 10.4026 5.73734L11.9152 5.78666ZM11.4414 3.18297C11.1009 2.36583 10.6333 1.68322 10.0222 1.16698L9.04559 2.32302C9.43987 2.65612 9.77825 3.12617 10.0444 3.76503L11.4414 3.18297ZM10.028 1.17188C9.41687 0.645067 8.71846 0.339909 7.94952 0.364714L7.99831 1.87728C8.30403 1.86742 8.64562 1.97827 9.03985 2.31812L10.028 1.17188ZM7.955 0.364557C7.30787 0.380736 6.71203 0.55676 6.22077 0.94095C5.73175 1.32339 5.41119 1.86136 5.22165 2.48789L6.67018 2.9261C6.79264 2.5213 6.96607 2.27928 7.15306 2.13305C7.3378 1.98857 7.59996 1.88726 7.99283 1.87744L7.955 0.364557ZM5.22115 2.48957C4.87632 3.639 4.98454 4.9327 5.44907 6.32628L6.88476 5.84772C6.48262 4.6413 6.44351 3.68166 6.67068 2.92443L5.22115 2.48957ZM5.44956 6.32776C5.90769 7.69279 6.59747 8.7883 7.55399 9.55148L8.49784 8.36852C7.82502 7.8317 7.27547 7.01187 6.88427 5.84624L5.44956 6.32776ZM7.55383 9.55135C8.16099 10.0361 8.82744 10.3373 9.54598 10.3815C10.2666 10.4258 10.9586 10.2066 11.6058 9.79233L10.79 8.51767C10.3539 8.79678 9.97561 8.8917 9.63884 8.871C9.30006 8.85017 8.92217 8.70727 8.498 8.36865L7.55383 9.55135ZM20.0011 1.186L19.691 1.87622H19.6911L20.0011 1.186ZM21.4441 2.239L20.8647 2.72572L20.8704 2.73238L21.4441 2.239ZM22.3021 3.734L21.5887 3.98646L21.5936 3.99969L22.3021 3.734ZM22.3151 7.153L23.0272 7.40891L23.0285 7.40541L22.3151 7.153ZM21.4571 8.648L20.8787 8.16025L20.8778 8.16131L21.4571 8.648ZM20.0011 9.701L20.3029 10.3949L20.3075 10.3929L20.0011 9.701ZM15.9711 9.701L15.661 10.3913L15.6731 10.3965L15.9711 9.701ZM14.5151 8.648L13.931 9.12903L13.9362 9.13526L13.9414 9.14138L14.5151 8.648ZM13.6701 7.153L12.9568 7.40541L12.9581 7.40891L13.6701 7.153ZM13.6701 3.734L14.3822 3.98991L14.3835 3.98641L13.6701 3.734ZM14.5151 2.239L13.9414 1.74558L13.9358 1.75231L14.5151 2.239ZM15.9711 1.186L15.6647 0.494121L15.661 0.495781L15.9711 1.186ZM20.6121 8.96L21.058 9.5714L21.0661 9.56546L21.0741 9.5593L20.6121 8.96ZM21.4311 7.712L20.7008 7.51393L20.6978 7.52556L21.4311 7.712ZM21.4311 6.139L20.6977 6.32526L20.6985 6.32808L21.4311 6.139ZM20.7681 4.475L20.0954 4.82158L20.1019 4.83374L20.7681 4.475ZM19.6501 2.98L19.1204 3.52032L19.1258 3.52557L19.1312 3.5307L19.6501 2.98ZM18.2591 1.888L17.8613 2.53165L17.8664 2.5348L18.2591 1.888ZM16.7771 1.459L16.79 2.21557H16.79L16.7771 1.459ZM15.3731 1.927L14.9333 1.31126L14.9212 1.31993L14.9094 1.32906L15.3731 1.927ZM14.5281 3.201L13.797 3.00602L13.7948 3.01456L14.5281 3.201ZM14.5411 4.787L13.8077 4.97326L13.8085 4.97608L14.5411 4.787ZM15.1911 6.438L14.5206 6.78874L14.5249 6.79674L15.1911 6.438ZM16.3221 7.933L15.7977 8.47847L15.8032 8.4837L16.3221 7.933ZM17.7261 9.012L17.3334 9.65886L17.342 9.66391L17.7261 9.012ZM19.2211 9.428L19.2083 8.67143L19.2211 9.428ZM17.9861 1.53968C18.6392 1.53968 19.2031 1.65698 19.691 1.87622L20.3112 0.495781C19.6032 0.177685 18.8238 0.0263206 17.9861 0.0263206V1.53968ZM19.6911 1.87622C20.2015 2.10557 20.5848 2.39243 20.8648 2.72569L22.0235 1.75231C21.5755 1.2189 20.9968 0.803764 20.3112 0.495781L19.6911 1.87622ZM20.8704 2.73238C21.1793 3.09152 21.4193 3.50727 21.5888 3.98641L23.0155 3.48159C22.7864 2.83406 22.4543 2.25315 22.0179 1.74562L20.8704 2.73238ZM21.5936 3.99969C21.7704 4.47114 21.8575 4.94892 21.8575 5.437H23.3708C23.3708 4.76375 23.2499 4.10619 23.0106 3.46831L21.5936 3.99969ZM21.8575 5.437C21.8575 5.92918 21.7733 6.41593 21.6018 6.90059L23.0285 7.40541C23.2557 6.76341 23.3708 6.10616 23.3708 5.437H21.8575ZM21.6031 6.89709C21.4335 7.36883 21.1922 7.78833 20.8787 8.16025L22.0356 9.13575C22.4674 8.62367 22.7981 8.0465 23.0272 7.40891L21.6031 6.89709ZM20.8778 8.16131C20.5997 8.49234 20.2141 8.77915 19.6947 9.00913L20.3075 10.3929C21.0016 10.0855 21.5866 9.67032 22.0365 9.13469L20.8778 8.16131ZM19.6994 9.00707C19.2093 9.22017 18.6425 9.33432 17.9861 9.33432V10.8477C18.8205 10.8477 19.597 10.7018 20.3029 10.3949L19.6994 9.00707ZM17.9861 9.33432C17.34 9.33432 16.7713 9.22069 16.2692 9.0055L15.6731 10.3965C16.3843 10.7013 17.1589 10.8477 17.9861 10.8477V9.33432ZM16.2812 9.01078C15.7696 8.78092 15.3792 8.49226 15.0889 8.15462L13.9414 9.14138C14.3964 9.67041 14.9767 10.0837 15.6611 10.3912L16.2812 9.01078ZM15.0993 8.16697C14.7922 7.79407 14.553 7.37236 14.3822 6.89709L12.9581 7.40891C13.1859 8.04297 13.5101 8.61793 13.931 9.12903L15.0993 8.16697ZM14.3835 6.90059C14.212 6.41593 14.1278 5.92918 14.1278 5.437H12.6145C12.6145 6.10616 12.7296 6.76341 12.9568 7.40541L14.3835 6.90059ZM14.1278 5.437C14.1278 4.94489 14.212 4.46374 14.3822 3.98991L12.9581 3.47809C12.7297 4.1136 12.6145 4.76777 12.6145 5.437H14.1278ZM14.3835 3.98641C14.5543 3.50374 14.7921 3.08577 15.0945 2.72569L13.9358 1.75231C13.5102 2.25889 13.1847 2.83759 12.9568 3.48159L14.3835 3.98641ZM15.0889 2.73238C15.3792 2.39474 15.7696 2.10608 16.2812 1.87622L15.661 0.495781C14.9767 0.803251 14.3964 1.21659 13.9414 1.74562L15.0889 2.73238ZM16.2775 1.87787C16.7776 1.65643 17.3433 1.53968 17.9861 1.53968V0.0263206C17.1556 0.0263206 16.3781 0.178235 15.6647 0.494131L16.2775 1.87787ZM21.0741 9.5593C21.6249 9.13475 21.993 8.57308 22.1645 7.89844L20.6978 7.52556C20.6093 7.87358 20.4314 8.14391 20.1502 8.3607L21.0741 9.5593ZM22.1614 7.91005C22.3361 7.26596 22.3337 6.60805 22.1638 5.94992L20.6985 6.32808C20.806 6.74461 20.8035 7.13538 20.7008 7.51395L22.1614 7.91005ZM22.1645 5.95274C22.0087 5.33924 21.7632 4.72689 21.4344 4.11626L20.1019 4.83374C20.3798 5.34978 20.5762 5.84676 20.6978 6.32526L22.1645 5.95274ZM21.4408 4.12847C21.1084 3.48321 20.6846 2.9151 20.1691 2.4293L19.1312 3.5307C19.517 3.89424 19.8386 4.32279 20.0955 4.82153L21.4408 4.12847ZM20.1799 2.43968C19.7001 1.96933 19.191 1.56855 18.6518 1.2412L17.8664 2.5348C18.2979 2.79678 18.7162 3.124 19.1204 3.52032L20.1799 2.43968ZM18.657 1.24437C18.0694 0.881088 17.4343 0.691074 16.7643 0.70243L16.79 2.21557C17.1426 2.20959 17.4956 2.30558 17.8613 2.53163L18.657 1.24437ZM16.7643 0.70243C16.0964 0.713751 15.4801 0.920754 14.9333 1.31126L15.813 2.54273C16.1156 2.32658 16.4353 2.22158 16.79 2.21557L16.7643 0.70243ZM14.9094 1.32906C14.3537 1.76 13.9783 2.32632 13.797 3.00603L15.2593 3.39597C15.3554 3.03568 15.5432 2.75266 15.8369 2.52494L14.9094 1.32906ZM13.7948 3.01456C13.6316 3.65644 13.6402 4.3135 13.8078 4.97326L15.2745 4.60074C15.1648 4.1685 15.1647 3.76823 15.2615 3.38744L13.7948 3.01456ZM13.8085 4.97608C13.9635 5.57692 14.2029 6.18134 14.5207 6.78872L15.8616 6.08728C15.59 5.568 15.3961 5.07175 15.2738 4.59792L13.8085 4.97608ZM14.5249 6.79674C14.8646 7.42766 15.289 7.98934 15.7977 8.47844L16.8466 7.38756C16.4539 7.00999 16.1243 6.57501 15.8574 6.07926L14.5249 6.79674ZM15.8032 8.4837C16.289 8.94149 16.7989 9.33426 17.3334 9.6588L18.1188 8.3652C17.6827 8.10041 17.2566 7.77384 16.8411 7.3823L15.8032 8.4837ZM17.342 9.66391C17.9349 10.0133 18.5693 10.1958 19.234 10.1846L19.2083 8.67143C18.8504 8.6775 18.4881 8.58271 18.1103 8.36009L17.342 9.66391ZM19.234 10.1846C19.9023 10.1732 20.5169 9.9659 21.058 9.5714L20.1663 8.3486C19.8754 8.56077 19.5627 8.66542 19.2083 8.67143L19.234 10.1846ZM26.1928 9.623L25.8388 8.95426V8.95426L26.1928 9.623ZM26.5698 9.324L26.0153 8.80912L26.0051 8.82014L25.9953 8.83156L26.5698 9.324ZM26.8818 8.921L26.2636 8.48464L26.2548 8.49711L26.2465 8.50993L26.8818 8.921ZM27.1288 8.479L27.8285 8.76711L27.8313 8.76021L27.834 8.75325L27.1288 8.479ZM27.2848 8.063L26.5893 7.76493L26.5801 7.78645L26.5722 7.8085L27.2848 8.063ZM27.4018 7.764L28.1197 8.00328L28.132 7.96625L28.1405 7.92815L27.4018 7.764ZM27.4278 7.647L28.168 7.80413L26.6891 7.48285L27.4278 7.647ZM26.9338 9.974L26.9384 10.7307L27.5475 10.7269L27.674 10.1311L26.9338 9.974ZM22.6958 10L22.6912 9.24334L22.6958 10.7567V10ZM23.2678 9.805L22.7834 9.2237L22.7752 9.23054L22.7672 9.23761L23.2678 9.805ZM23.4758 9.298H22.7191V9.32947L22.7217 9.36084L23.4758 9.298ZM23.4758 1.602L22.725 1.50815L22.7191 1.55489V1.602H23.4758ZM23.2678 1.095L22.7834 1.6763L22.7911 1.6827L22.7989 1.6889L23.2678 1.095ZM25.1658 9.74H24.4091V10.4967H25.1658V9.74ZM25.7378 10.4967C26.0256 10.4967 26.2981 10.4234 26.5468 10.2917L25.8388 8.95426C25.7928 8.97859 25.762 8.98332 25.7378 8.98332V10.4967ZM26.5468 10.2917C26.7744 10.1713 26.9759 10.0129 27.1443 9.81644L25.9953 8.83156C25.9557 8.87772 25.9059 8.91873 25.8388 8.95426L26.5468 10.2917ZM27.1243 9.83888C27.2686 9.6835 27.3993 9.5141 27.5171 9.33207L26.2465 8.50993C26.1736 8.62257 26.0964 8.72183 26.0153 8.80912L27.1243 9.83888ZM27.5 9.35736C27.6324 9.16976 27.7437 8.97308 27.8285 8.76711L26.4291 8.1909C26.3926 8.27959 26.3392 8.37757 26.2636 8.48464L27.5 9.35736ZM27.834 8.75325C27.8965 8.59252 27.9511 8.44706 27.9974 8.3175L26.5722 7.8085C26.5318 7.9216 26.4824 8.05348 26.4236 8.20474L27.834 8.75325ZM27.9803 8.36107C28.0363 8.23047 28.0843 8.10936 28.1197 8.00328L26.684 7.52472C26.6673 7.57464 26.6373 7.65286 26.5893 7.76493L27.9803 8.36107ZM28.1405 7.92815L28.1665 7.81115L26.6891 7.48285L26.6631 7.59985L28.1405 7.92815ZM26.6876 7.48987L26.1936 9.81687L27.674 10.1311L28.168 7.80413L26.6876 7.48987ZM26.9292 9.21734L22.6912 9.24334L22.7004 10.7567L26.9384 10.7307L26.9292 9.21734ZM22.6958 10.7567C23.0771 10.7567 23.4574 10.6468 23.7684 10.3724L22.7672 9.23761C22.7679 9.237 22.7693 9.23588 22.771 9.23489C22.7727 9.23392 22.7728 9.23414 22.7701 9.23505C22.765 9.23681 22.7429 9.24332 22.6958 9.24332V10.7567ZM23.7522 10.3863C24.1039 10.0932 24.267 9.68084 24.2299 9.23516L22.7217 9.36084C22.7219 9.36265 22.7199 9.33468 22.7367 9.29355C22.754 9.25161 22.7774 9.22872 22.7834 9.2237L23.7522 10.3863ZM24.2325 9.298V1.602H22.7191V9.298H24.2325ZM24.2266 1.69585C24.2855 1.22478 24.109 0.795033 23.7367 0.501096L22.7989 1.6889C22.7945 1.68538 22.7649 1.65926 22.7432 1.60645C22.7216 1.55361 22.7242 1.5141 22.725 1.50815L24.2266 1.69585ZM23.7522 0.513702C23.4399 0.253407 23.0654 0.143321 22.6828 0.143321V1.65668C22.7296 1.65668 22.7548 1.6631 22.7653 1.6666C22.7744 1.66963 22.7788 1.67245 22.7834 1.6763L23.7522 0.513702ZM22.6828 1.65668H25.8808V0.143321H22.6828V1.65668ZM25.8808 0.143321C25.5293 0.143321 25.126 0.229663 24.8144 0.535561C24.5003 0.843977 24.4091 1.24781 24.4091 1.602H25.9225C25.9225 1.54701 25.9297 1.53006 25.927 1.53813C25.9254 1.5429 25.9211 1.554 25.912 1.56879C25.9028 1.58384 25.8904 1.60002 25.8747 1.61544C25.859 1.63083 25.8431 1.64246 25.8292 1.65068C25.8155 1.65874 25.806 1.66215 25.8033 1.66302C25.7996 1.66425 25.8213 1.65668 25.8808 1.65668V0.143321ZM24.4091 1.602V9.74H25.9225V1.602H24.4091ZM25.1658 10.4967H25.7378V8.98332H25.1658V10.4967ZM30.7631 9.623L30.4091 8.95426V8.95426L30.7631 9.623ZM31.1401 9.324L30.5856 8.80912L30.5754 8.82014L30.5656 8.83156L31.1401 9.324ZM31.4521 8.921L30.8339 8.48464L30.8251 8.49711L30.8168 8.50993L31.4521 8.921ZM31.6991 8.479L32.3988 8.76711L32.4016 8.76021L32.4043 8.75325L31.6991 8.479ZM31.8551 8.063L31.1596 7.76493L31.1504 7.78645L31.1425 7.8085L31.8551 8.063ZM31.9721 7.764L32.69 8.00328L32.7023 7.96625L32.7108 7.92815L31.9721 7.764ZM31.9981 7.647L32.7383 7.80413L31.2595 7.48285L31.9981 7.647ZM31.5041 9.974L31.5088 10.7307L32.1178 10.7269L32.2443 10.1311L31.5041 9.974ZM27.2661 10L27.2615 9.24334L27.2661 10.7567V10ZM27.8381 9.805L27.3537 9.2237L27.3455 9.23054L27.3375 9.23761L27.8381 9.805ZM28.0461 9.298H27.2894V9.32947L27.2921 9.36084L28.0461 9.298ZM28.0461 1.602L27.2953 1.50815L27.2894 1.55489V1.602H28.0461ZM27.8381 1.095L27.3537 1.6763L27.3614 1.6827L27.3692 1.6889L27.8381 1.095ZM29.7361 9.74H28.9794V10.4967H29.7361V9.74ZM30.3081 10.4967C30.596 10.4967 30.8684 10.4234 31.1172 10.2917L30.4091 8.95426C30.3631 8.97859 30.3323 8.98332 30.3081 8.98332V10.4967ZM31.1172 10.2917C31.3447 10.1713 31.5462 10.0129 31.7146 9.81644L30.5656 8.83156C30.526 8.87772 30.4762 8.91873 30.4091 8.95426L31.1172 10.2917ZM31.6946 9.83888C31.8389 9.6835 31.9696 9.5141 32.0874 9.33207L30.8168 8.50993C30.7439 8.62257 30.6667 8.72183 30.5856 8.80912L31.6946 9.83888ZM32.0703 9.35736C32.2027 9.16976 32.314 8.97308 32.3988 8.76711L30.9994 8.1909C30.9629 8.27959 30.9095 8.37757 30.8339 8.48464L32.0703 9.35736ZM32.4043 8.75325C32.4669 8.59252 32.5214 8.44706 32.5677 8.3175L31.1425 7.8085C31.1021 7.9216 31.0527 8.05348 30.9939 8.20474L32.4043 8.75325ZM32.5506 8.36107C32.6066 8.23047 32.6546 8.10936 32.69 8.00328L31.2543 7.52472C31.2376 7.57464 31.2076 7.65286 31.1596 7.76493L32.5506 8.36107ZM32.7108 7.92815L32.7368 7.81115L31.2595 7.48285L31.2335 7.59985L32.7108 7.92815ZM31.2579 7.48987L30.7639 9.81687L32.2443 10.1311L32.7383 7.80413L31.2579 7.48987ZM31.4995 9.21734L27.2615 9.24334L27.2708 10.7567L31.5088 10.7307L31.4995 9.21734ZM27.2661 10.7567C27.6474 10.7567 28.0277 10.6468 28.3388 10.3724L27.3375 9.23761C27.3382 9.237 27.3396 9.23588 27.3414 9.23489C27.343 9.23392 27.3431 9.23414 27.3405 9.23505C27.3353 9.23681 27.3132 9.24332 27.2661 9.24332V10.7567ZM28.3225 10.3863C28.6742 10.0932 28.8373 9.68084 28.8002 9.23516L27.2921 9.36084C27.2922 9.36265 27.2902 9.33468 27.3071 9.29355C27.3243 9.25161 27.3477 9.22872 27.3537 9.2237L28.3225 10.3863ZM28.8028 9.298V1.602H27.2894V9.298H28.8028ZM28.797 1.69585C28.8558 1.22478 28.6793 0.795033 28.307 0.501096L27.3692 1.6889C27.3648 1.68538 27.3352 1.65926 27.3136 1.60645C27.2919 1.55361 27.2945 1.5141 27.2953 1.50815L28.797 1.69585ZM28.3225 0.513702C28.0102 0.253407 27.6357 0.143321 27.2531 0.143321V1.65668C27.2999 1.65668 27.3251 1.6631 27.3356 1.6666C27.3447 1.66963 27.3491 1.67245 27.3537 1.6763L28.3225 0.513702ZM27.2531 1.65668H30.4511V0.143321H27.2531V1.65668ZM30.4511 0.143321C30.0996 0.143321 29.6963 0.229663 29.3847 0.535561C29.0706 0.843977 28.9794 1.24781 28.9794 1.602H30.4928C30.4928 1.54701 30.5001 1.53006 30.4973 1.53813C30.4957 1.5429 30.4914 1.554 30.4823 1.56879C30.4731 1.58384 30.4607 1.60002 30.445 1.61544C30.4293 1.63083 30.4134 1.64246 30.3995 1.65068C30.3858 1.65874 30.3763 1.66215 30.3737 1.66302C30.3699 1.66425 30.3916 1.65668 30.4511 1.65668V0.143321ZM28.9794 1.602V9.74H30.4928V1.602H28.9794ZM29.7361 10.4967H30.3081V8.98332H29.7361V10.4967ZM36.9584 8.817L37.7058 8.6981L37.7035 8.68487L36.9584 8.817ZM37.2314 9.688L36.5851 10.0814L36.589 10.0879L36.593 10.0942L37.2314 9.688ZM37.7904 10L37.7846 10.7567L37.8425 9.24511L37.7904 10ZM34.4104 9.974L34.366 9.21863L34.4046 10.7307L34.4104 9.974ZM34.7744 9.857L35.2195 10.469L35.2284 10.4623L34.7744 9.857ZM34.9824 9.545L34.2646 9.30572L34.2573 9.32767L34.2513 9.35003L34.9824 9.545ZM35.0734 9.181L35.8214 9.29607L35.8225 9.28801L35.0734 9.181ZM35.0604 8.726L34.3072 8.79774L34.3088 8.81542L34.3114 8.83301L35.0604 8.726ZM35.0084 8.31L35.7529 8.17464V8.17464L35.0084 8.31ZM34.9304 7.92L34.1796 8.01385L34.1835 8.04508L34.19 8.07588L34.9304 7.92ZM34.9044 7.777L35.6223 7.53772L35.4552 7.03642L34.927 7.02066L34.9044 7.777ZM33.1624 7.725L33.185 6.96866L32.5761 6.95048L32.4283 7.54148L33.1624 7.725ZM33.1234 7.894L32.3848 7.72985L32.3816 7.74419L32.379 7.75864L33.1234 7.894ZM33.0454 8.336L33.79 8.47137L33.7918 8.4604L33.0454 8.336ZM32.9804 8.752L32.2314 8.64499L32.2288 8.66258L32.2272 8.68026L32.9804 8.752ZM32.9674 9.194L32.213 9.25204L32.2152 9.28067L32.2195 9.30906L32.9674 9.194ZM33.0454 9.558L32.3143 9.75297L32.3223 9.78312L32.3328 9.8125L33.0454 9.558ZM33.2404 9.844L32.7677 10.4349L32.7813 10.4457L32.7954 10.456L33.2404 9.844ZM33.6044 9.974V10.7307L33.6928 9.2225L33.6044 9.974ZM31.6804 9.974L31.5866 9.22316L31.6804 10.7307V9.974ZM32.0444 9.857L32.4257 10.5106L32.4334 10.5061L32.441 10.5014L32.0444 9.857ZM32.4734 9.311L31.7682 9.03675L31.7615 9.05408L31.7556 9.07172L32.4734 9.311ZM32.6034 8.921L33.3376 9.10455L33.3407 9.09115L32.6034 8.921ZM32.7074 8.414L31.9688 8.24985L31.9664 8.26045L31.9644 8.2711L32.7074 8.414ZM32.7464 8.232L32.0064 8.07388L32.0044 8.0836L32.7464 8.232ZM34.0074 2.33L34.7474 2.4881L34.7757 2.35576L34.7563 2.22182L34.0074 2.33ZM33.8384 1.16L33.7251 0.41186L32.9821 0.524433L33.0895 1.26818L33.8384 1.16ZM35.5544 0.899999L36.2995 0.767872L36.1706 0.0413196L35.4411 0.151859L35.5544 0.899999ZM33.2924 7.361L32.551 7.21008L32.3662 8.11768H33.2924V7.361ZM34.8394 7.361V8.11768H35.7057L35.5892 7.25926L34.8394 7.361ZM34.2414 2.954L34.9912 2.85226L34.9024 2.19732H34.2414V2.954ZM34.1894 2.954V2.19732H33.5713L33.448 2.80308L34.1894 2.954ZM36.2111 8.93589C36.2785 9.35908 36.3898 9.76065 36.5851 10.0814L37.8778 9.29457C37.8304 9.21668 37.7597 9.03759 37.7057 8.69811L36.2111 8.93589ZM36.593 10.0942C36.8596 10.513 37.279 10.7232 37.7384 10.7549L37.8425 9.24511C37.8081 9.24275 37.8107 9.23699 37.831 9.24827C37.8405 9.25357 37.8499 9.26052 37.858 9.26828C37.8659 9.27588 37.8695 9.28135 37.8698 9.28176L36.593 10.0942ZM37.7962 9.24334L34.4163 9.21734L34.4046 10.7307L37.7846 10.7567L37.7962 9.24334ZM34.4549 10.7294C34.7104 10.7143 34.9808 10.6426 35.2195 10.469L34.3294 9.24505C34.3517 9.22879 34.3708 9.22096 34.3804 9.21787C34.389 9.21509 34.3858 9.21746 34.366 9.21863L34.4549 10.7294ZM35.2284 10.4623C35.4733 10.2787 35.6368 10.0278 35.7136 9.73997L34.2513 9.35003C34.2537 9.34118 34.2602 9.32271 34.2748 9.30077C34.2896 9.27856 34.3066 9.26204 34.3204 9.25166L35.2284 10.4623ZM35.7003 9.78428C35.7545 9.62161 35.7963 9.45833 35.8213 9.29606L34.3256 9.06594C34.3158 9.129 34.297 9.20839 34.2646 9.30572L35.7003 9.78428ZM35.8225 9.28801C35.8537 9.06976 35.8411 8.84027 35.8095 8.61899L34.3114 8.83301C34.3317 8.97573 34.3278 9.04957 34.3244 9.07399L35.8225 9.28801ZM35.8137 8.65426C35.7958 8.46607 35.7761 8.30202 35.7529 8.17464L34.264 8.44536C34.2755 8.50865 34.2904 8.62193 34.3072 8.79774L35.8137 8.65426ZM35.7529 8.17464C35.7337 8.06925 35.7061 7.93144 35.6709 7.76412L34.19 8.07588C34.2241 8.2379 34.2485 8.36008 34.264 8.44536L35.7529 8.17464ZM35.6813 7.82615C35.673 7.76029 35.6575 7.64346 35.6223 7.53772L34.1866 8.01628C34.1828 8.00487 34.1801 7.99554 34.1782 7.98899C34.1764 7.98233 34.1751 7.97717 34.1744 7.97387C34.1729 7.96759 34.1725 7.96509 34.173 7.96761C34.1734 7.96985 34.1742 7.9748 34.1754 7.98295C34.1766 7.991 34.178 8.00122 34.1796 8.01385L35.6813 7.82615ZM34.927 7.02066L33.185 6.96866L33.1399 8.48134L34.8819 8.53334L34.927 7.02066ZM32.4283 7.54148C32.4171 7.58656 32.4022 7.65127 32.3848 7.72985L33.8621 8.05815C33.8793 7.98073 33.8905 7.93277 33.8965 7.90852L32.4283 7.54148ZM32.379 7.75864C32.3441 7.95048 32.3173 8.1021 32.299 8.2116L33.7918 8.4604C33.8082 8.3619 33.8335 8.21885 33.8679 8.02936L32.379 7.75864ZM32.301 8.20064C32.281 8.31033 32.2577 8.46029 32.2314 8.64499L33.7295 8.85901C33.7551 8.67971 33.7752 8.55234 33.7899 8.47136L32.301 8.20064ZM32.2272 8.68026C32.2079 8.88251 32.1996 9.07807 32.213 9.25204L33.7219 9.13597C33.7179 9.0846 33.7183 8.98549 33.7337 8.82374L32.2272 8.68026ZM32.2195 9.30906C32.2417 9.45292 32.2738 9.60119 32.3143 9.75297L33.7766 9.36303C33.7477 9.25481 33.7278 9.16041 33.7153 9.07894L32.2195 9.30906ZM32.3328 9.8125C32.4157 10.0444 32.5548 10.2645 32.7677 10.4349L33.7131 9.25313C33.7308 9.26729 33.7437 9.28224 33.7519 9.29424C33.7596 9.30564 33.7605 9.31038 33.758 9.3035L32.3328 9.8125ZM32.7954 10.456C33.0194 10.6189 33.2726 10.6969 33.516 10.7255L33.6928 9.2225C33.6675 9.21952 33.657 9.21575 33.6574 9.2159C33.6585 9.21628 33.6696 9.2205 33.6855 9.23205L32.7954 10.456ZM33.6044 9.21732H31.6804V10.7307H33.6044V9.21732ZM31.7743 10.7248C31.9982 10.6968 32.2204 10.6304 32.4257 10.5106L31.6632 9.2034C31.6604 9.20498 31.64 9.21649 31.5866 9.22316L31.7743 10.7248ZM32.441 10.5014C32.5927 10.4081 32.7467 10.2926 32.8739 10.1473L31.735 9.15072C31.7393 9.14573 31.7365 9.14995 31.7212 9.16213C31.7062 9.17414 31.6826 9.19119 31.6479 9.21257L32.441 10.5014ZM32.8739 10.1473C33.0337 9.96465 33.1285 9.73856 33.1913 9.55028L31.7556 9.07172C31.7377 9.12538 31.7236 9.15775 31.7154 9.1741C31.7115 9.18181 31.7104 9.18315 31.7126 9.1797C31.7147 9.17638 31.7218 9.16573 31.735 9.15072L32.8739 10.1473ZM33.1787 9.58526C33.2452 9.41409 33.3008 9.25141 33.3375 9.10452L31.8693 8.73748C31.8541 8.79859 31.823 8.89591 31.7682 9.03675L33.1787 9.58526ZM33.3407 9.09115C33.37 8.96445 33.4068 8.78434 33.4505 8.5569L31.9644 8.2711C31.9214 8.49433 31.8889 8.65222 31.8661 8.75085L33.3407 9.09115ZM33.4461 8.57815C33.4638 8.49836 33.4782 8.43158 33.4884 8.3804L32.0044 8.0836C31.9973 8.11908 31.9857 8.17364 31.9688 8.24985L33.4461 8.57815ZM33.4864 8.3901L34.7474 2.4881L33.2675 2.1719L32.0065 8.0739L33.4864 8.3901ZM34.7563 2.22182L34.5873 1.05182L33.0895 1.26818L33.2585 2.43817L34.7563 2.22182ZM33.9518 1.90814L35.6678 1.64814L35.4411 0.151859L33.7251 0.41186L33.9518 1.90814ZM34.8094 1.03213L36.2134 8.94913L37.7035 8.68487L36.2995 0.767872L34.8094 1.03213ZM33.2924 8.11768H34.8394V6.60432H33.2924V8.11768ZM35.5892 7.25926L34.9912 2.85226L33.4916 3.05574L34.0896 7.46274L35.5892 7.25926ZM34.2414 2.19732H34.1894V3.71068H34.2414V2.19732ZM33.448 2.80308L32.551 7.21008L34.0339 7.51192L34.9309 3.10492L33.448 2.80308ZM41.4209 5.008L41.3175 4.25842L41.3503 5.76138L41.4209 5.008ZM42.7339 6.087L42.0416 6.39243L42.0453 6.40086L42.0492 6.40919L42.7339 6.087ZM43.0329 7.049L42.2875 7.17944L42.2891 7.18844L42.2909 7.1974L43.0329 7.049ZM43.0329 8.089L42.2909 7.9406V7.9406L43.0329 8.089ZM42.6819 9.038L43.3326 9.42435L43.3376 9.41556L42.6819 9.038ZM41.9279 9.714L41.5826 9.04069L41.9279 9.714ZM40.7319 9.974V9.21724L40.7208 9.2174L40.7319 9.974ZM38.9639 10V10.7568L38.975 10.7566L38.9639 10ZM38.5739 9.194L39.3243 9.29083L39.3306 9.24262V9.194H38.5739ZM38.5739 2.187L37.8174 2.17172L37.8172 2.17936V2.187H38.5739ZM41.6809 1.121L41.3078 1.77933L41.3163 1.7841L41.3248 1.78866L41.6809 1.121ZM42.2919 1.68L41.6515 2.08323L41.6586 2.09409L42.2919 1.68ZM42.6299 2.434L43.3583 2.22913V2.22913L42.6299 2.434ZM42.6949 3.279L41.9437 3.18795L41.9423 3.1992L41.9413 3.21049L42.6949 3.279ZM42.5129 4.072L41.8086 3.79532L41.8043 3.80634L41.8003 3.8175L42.5129 4.072ZM42.0839 4.696L41.5874 4.12501L41.5811 4.13049L41.5749 4.1361L42.0839 4.696ZM40.3419 1.173V0.416321H39.5852V1.173H40.3419ZM40.3419 4.995H39.5852V5.75168H40.3419V4.995ZM40.7969 4.605L40.1026 4.30414L40.0983 4.314L40.0943 4.32398L40.7969 4.605ZM40.9919 3.656L40.237 3.60453L40.2364 3.61268L40.236 3.62084L40.9919 3.656ZM40.9919 2.525L40.236 2.55936L40.2364 2.56852L40.237 2.57766L40.9919 2.525ZM40.8099 1.563L41.5124 1.28198L41.5124 1.28198L40.8099 1.563ZM40.4459 9.74V8.98332H40.3527L40.2624 9.00591L40.4459 9.74ZM40.9789 9.285L40.302 8.94658L40.2982 8.9544L40.9789 9.285ZM41.2779 8.167L42.0308 8.24229L41.2779 8.167ZM41.3039 6.867L40.5485 6.91143L40.5486 6.91232L41.3039 6.867ZM41.0309 5.749L40.3502 6.0796L40.354 6.08737L40.358 6.09507L41.0309 5.749ZM40.3419 5.294V4.53732H39.5852V5.294H40.3419ZM40.3419 9.766H39.5852V10.7351L40.5254 10.5001L40.3419 9.766ZM41.3503 5.76138C41.4567 5.77135 41.5688 5.81265 41.6972 5.92202L42.6786 4.76998C42.3389 4.48068 41.9397 4.29665 41.4915 4.25462L41.3503 5.76138ZM41.6972 5.92202C41.8403 6.04394 41.9553 6.19687 42.0416 6.39243L43.4262 5.78157C43.2525 5.38779 43.0034 5.04672 42.6786 4.76998L41.6972 5.92202ZM42.0492 6.40919C42.157 6.63823 42.2375 6.89379 42.2875 7.17944L43.7782 6.91856C43.7069 6.51088 43.5881 6.1251 43.4185 5.76481L42.0492 6.40919ZM42.2909 7.1974C42.3406 7.4461 42.3406 7.6919 42.2909 7.9406L43.7749 8.2374C43.8638 7.79277 43.8638 7.34523 43.7749 6.9006L42.2909 7.1974ZM42.2909 7.9406C42.2365 8.21246 42.147 8.45055 42.0261 8.66044L43.3376 9.41556C43.5461 9.05345 43.6906 8.65887 43.7749 8.2374L42.2909 7.9406ZM42.0312 8.65169C41.9514 8.78616 41.8167 8.92065 41.5826 9.04069L42.2732 10.3873C42.7151 10.1607 43.083 9.84451 43.3325 9.42431L42.0312 8.65169ZM41.5826 9.04069C41.3716 9.14892 41.096 9.21732 40.7319 9.21732V10.7307C41.2864 10.7307 41.8082 10.6257 42.2732 10.3873L41.5826 9.04069ZM40.7208 9.2174L38.9528 9.2434L38.975 10.7566L40.743 10.7306L40.7208 9.2174ZM38.9639 9.24332H37.8199V10.7567H38.9639V9.24332ZM37.8199 10.7567C38.2055 10.7567 38.5917 10.63 38.886 10.3154C39.1603 10.0222 39.2785 9.64597 39.3243 9.29083L37.8234 9.09717C37.8123 9.18363 37.7964 9.23734 37.7847 9.26691C37.7734 9.29529 37.7687 9.29454 37.7808 9.28157C37.7949 9.26651 37.815 9.25282 37.8344 9.24524C37.851 9.2387 37.8502 9.24332 37.8199 9.24332V10.7567ZM39.3306 9.194V2.187H37.8172V9.194H39.3306ZM39.3304 2.20228C39.3401 1.72134 39.2806 1.22952 39.0451 0.834374C38.7714 0.374976 38.3188 0.143321 37.8069 0.143321V1.65668C37.8354 1.65668 37.8211 1.66182 37.7891 1.6443C37.755 1.62567 37.7421 1.60406 37.7451 1.60912C37.7514 1.61965 37.7734 1.66309 37.7917 1.76172C37.8097 1.85935 37.821 1.99366 37.8174 2.17172L39.3304 2.20228ZM37.8069 1.65668H40.7969V0.143321H37.8069V1.65668ZM40.7969 1.65668C41.0091 1.65668 41.1729 1.70288 41.3078 1.77933L42.0539 0.462673C41.6688 0.24445 41.2433 0.143321 40.7969 0.143321V1.65668ZM41.3248 1.78866C41.4766 1.86959 41.579 1.96788 41.6516 2.08317L42.9322 1.27683C42.7101 0.924116 42.4052 0.649741 42.037 0.453342L41.3248 1.78866ZM41.6586 2.09409C41.7609 2.25056 41.8429 2.43051 41.9015 2.63887L43.3583 2.22913C43.2609 1.88282 43.1176 1.5601 42.9252 1.26591L41.6586 2.09409ZM41.9015 2.63887C41.9524 2.82003 41.9663 3.00112 41.9437 3.18795L43.4461 3.37005C43.4928 2.98488 43.4633 2.60264 43.3583 2.22913L41.9015 2.63887ZM41.9413 3.21049C41.9212 3.43228 41.8752 3.62574 41.8086 3.79532L43.2172 4.34868C43.3412 4.03292 43.4166 3.69771 43.4485 3.34751L41.9413 3.21049ZM41.8003 3.8175C41.7584 3.9347 41.6913 4.03464 41.5874 4.12501L42.5804 5.26699C42.8752 5.01069 43.094 4.69463 43.2255 4.3265L41.8003 3.8175ZM41.5749 4.1361C41.4953 4.20845 41.4151 4.24496 41.3175 4.25842L41.5243 5.75758C41.9294 5.70171 42.2911 5.53022 42.5929 5.2559L41.5749 4.1361ZM40.4459 0.416321H40.3419V1.92968H40.4459V0.416321ZM39.5852 1.173V4.995H41.0986V1.173H39.5852ZM40.3419 5.75168H40.4069V4.23832H40.3419V5.75168ZM40.4069 5.75168C41.0702 5.75168 41.3782 5.18923 41.4994 4.88602L40.0943 4.32398C40.0624 4.40371 40.0511 4.39767 40.0863 4.36245C40.1073 4.34151 40.1463 4.30887 40.2059 4.28177C40.2678 4.25364 40.3371 4.23832 40.4069 4.23832V5.75168ZM41.4912 4.90586C41.6498 4.5398 41.7274 4.12799 41.7477 3.69116L40.236 3.62084C40.2217 3.92934 40.1693 4.1502 40.1026 4.30414L41.4912 4.90586ZM41.7468 3.70747C41.7751 3.29227 41.7752 2.88046 41.7467 2.47234L40.237 2.57766C40.2606 2.91487 40.2606 3.25707 40.237 3.60453L41.7468 3.70747ZM41.7478 2.49064C41.7279 2.05328 41.657 1.64342 41.5124 1.28198L40.1073 1.84402C40.1707 2.00258 40.2212 2.23405 40.236 2.55936L41.7478 2.49064ZM41.5124 1.28198C41.4433 1.10925 41.3447 0.91556 41.1941 0.754204C41.0331 0.581719 40.7804 0.416321 40.4459 0.416321V1.92968C40.3574 1.92968 40.2756 1.90785 40.2082 1.87417C40.1444 1.84225 40.1056 1.80592 40.0877 1.7868C40.0584 1.75544 40.0724 1.75675 40.1073 1.84402L41.5124 1.28198ZM40.4459 10.4967C41.0977 10.4967 41.4709 10.0039 41.6595 9.6156L40.2982 8.9544C40.2763 8.99958 40.2585 9.02808 40.247 9.04425C40.2354 9.06049 40.2333 9.05975 40.2439 9.05075C40.2552 9.04104 40.2801 9.02277 40.3193 9.00738C40.3596 8.99151 40.4035 8.98332 40.4459 8.98332V10.4967ZM41.6557 9.6234C41.8617 9.21143 41.9805 8.74533 42.0308 8.24229L40.525 8.09171C40.4886 8.45534 40.4081 8.73457 40.3021 8.9466L41.6557 9.6234ZM42.0308 8.24229C42.0781 7.76901 42.0876 7.29535 42.0592 6.82168L40.5486 6.91232C40.5721 7.30532 40.5643 7.69832 40.525 8.09171L42.0308 8.24229ZM42.0593 6.82257C42.0288 6.30539 41.9201 5.82345 41.7038 5.40293L40.358 6.09507C40.4537 6.28121 40.5269 6.54461 40.5485 6.91143L42.0593 6.82257ZM41.7115 5.4184C41.5013 4.98563 41.1044 4.53732 40.4589 4.53732V6.05068C40.434 6.05068 40.4034 6.04634 40.3718 6.03503C40.3405 6.02386 40.3185 6.00961 40.3063 5.99993C40.2951 5.99096 40.2955 5.98863 40.3048 6.00116C40.3143 6.01388 40.3303 6.03844 40.3502 6.0796L41.7115 5.4184ZM40.4589 4.53732H40.3419V6.05068H40.4589V4.53732ZM39.5852 5.294V9.766H41.0986V5.294H39.5852ZM40.5254 10.5001L40.6294 10.4741L40.2624 9.00591L40.1584 9.03191L40.5254 10.5001ZM50.1144 1.186L49.8043 1.87622L50.1144 1.186ZM51.5574 2.239L50.978 2.72572L50.9837 2.73238L51.5574 2.239ZM52.4154 3.734L51.702 3.98646L51.7069 3.99969L52.4154 3.734ZM52.4284 7.153L53.1405 7.40891L53.1418 7.40541L52.4284 7.153ZM51.5704 8.648L50.9919 8.16025L50.991 8.16131L51.5704 8.648ZM50.1144 9.701L50.4161 10.3949L50.4208 10.3929L50.1144 9.701ZM46.0844 9.701L45.7743 10.3913L45.7864 10.3965L46.0844 9.701ZM44.6284 8.648L44.0443 9.12903L44.0495 9.13526L44.0547 9.14138L44.6284 8.648ZM43.7834 7.153L43.0701 7.40541L43.0713 7.40891L43.7834 7.153ZM43.7834 3.734L44.4955 3.98991L44.4968 3.98641L43.7834 3.734ZM44.6284 2.239L44.0547 1.74558L44.049 1.75231L44.6284 2.239ZM46.0844 1.186L45.778 0.494121L45.7743 0.495781L46.0844 1.186ZM50.7254 8.96L51.1712 9.5714L51.1794 9.56546L51.1874 9.5593L50.7254 8.96ZM51.5444 7.712L50.814 7.51393L50.8111 7.52556L51.5444 7.712ZM51.5444 6.139L50.811 6.32526L50.8118 6.32808L51.5444 6.139ZM50.8814 4.475L50.2086 4.82158L50.2152 4.83374L50.8814 4.475ZM49.7634 2.98L49.2337 3.52032L49.239 3.52557L49.2445 3.5307L49.7634 2.98ZM48.3724 1.888L47.9745 2.53165L47.9797 2.5348L48.3724 1.888ZM46.8904 1.459L46.9033 2.21557H46.9033L46.8904 1.459ZM45.4864 1.927L45.0466 1.31126L45.0345 1.31993L45.0227 1.32906L45.4864 1.927ZM44.6414 3.201L43.9103 3.00602L43.9081 3.01456L44.6414 3.201ZM44.6544 4.787L43.921 4.97326L43.9218 4.97608L44.6544 4.787ZM45.3044 6.438L44.6339 6.78874L44.6382 6.79674L45.3044 6.438ZM46.4354 7.933L45.9109 8.47847L45.9165 8.4837L46.4354 7.933ZM47.8394 9.012L47.4467 9.65886L47.4553 9.66391L47.8394 9.012ZM49.3344 9.428L49.3216 8.67143L49.3344 9.428ZM48.0994 1.53968C48.7525 1.53968 49.3163 1.65698 49.8043 1.87622L50.4245 0.495781C49.7165 0.177685 48.937 0.0263206 48.0994 0.0263206V1.53968ZM49.8043 1.87622C50.3148 2.10557 50.6981 2.39243 50.978 2.72569L52.1368 1.75231C51.6888 1.2189 51.11 0.803764 50.4245 0.495781L49.8043 1.87622ZM50.9837 2.73238C51.2926 3.09152 51.5326 3.50727 51.7021 3.98641L53.1288 3.48159C52.8996 2.83406 52.5676 2.25315 52.1311 1.74562L50.9837 2.73238ZM51.7069 3.99969C51.8837 4.47114 51.9708 4.94892 51.9708 5.437H53.4841C53.4841 4.76375 53.3631 4.10619 53.1239 3.46831L51.7069 3.99969ZM51.9708 5.437C51.9708 5.92918 51.8866 6.41593 51.7151 6.90059L53.1418 7.40541C53.3689 6.76341 53.4841 6.10616 53.4841 5.437H51.9708ZM51.7163 6.89709C51.5468 7.36883 51.3055 7.78833 50.9919 8.16025L52.1489 9.13575C52.5807 8.62367 52.9114 8.0465 53.1405 7.40891L51.7163 6.89709ZM50.991 8.16131C50.713 8.49234 50.3273 8.77915 49.808 9.00913L50.4208 10.3929C51.1148 10.0855 51.6999 9.67032 52.1498 9.13469L50.991 8.16131ZM49.8127 9.00707C49.3226 9.22017 48.7557 9.33432 48.0994 9.33432V10.8477C48.9338 10.8477 49.7103 10.7018 50.4161 10.3949L49.8127 9.00707ZM48.0994 9.33432C47.4533 9.33432 46.8846 9.22069 46.3825 9.0055L45.7864 10.3965C46.4976 10.7013 47.2722 10.8477 48.0994 10.8477V9.33432ZM46.3945 9.01078C45.8829 8.78092 45.4925 8.49226 45.2021 8.15462L44.0547 9.14138C44.5097 9.67041 45.09 10.0837 45.7743 10.3912L46.3945 9.01078ZM45.2125 8.16697C44.9054 7.79407 44.6663 7.37236 44.4955 6.89709L43.0713 7.40891C43.2992 8.04297 43.6234 8.61793 44.0443 9.12903L45.2125 8.16697ZM44.4968 6.90059C44.3253 6.41593 44.2411 5.92918 44.2411 5.437H42.7278C42.7278 6.10616 42.8429 6.76341 43.0701 7.40541L44.4968 6.90059ZM44.2411 5.437C44.2411 4.94489 44.3252 4.46374 44.4955 3.98991L43.0713 3.47809C42.843 4.1136 42.7278 4.76777 42.7278 5.437H44.2411ZM44.4968 3.98641C44.6676 3.50374 44.9054 3.08577 45.2078 2.72569L44.049 1.75231C43.6235 2.25889 43.298 2.83759 43.0701 3.48159L44.4968 3.98641ZM45.2021 2.73238C45.4925 2.39474 45.8829 2.10608 46.3945 1.87622L45.7743 0.495781C45.09 0.803251 44.5097 1.21659 44.0547 1.74562L45.2021 2.73238ZM46.3908 1.87787C46.8909 1.65643 47.4566 1.53968 48.0994 1.53968V0.0263206C47.2689 0.0263206 46.4913 0.178235 45.778 0.494131L46.3908 1.87787ZM51.1874 9.5593C51.7382 9.13475 52.1063 8.57308 52.2778 7.89844L50.8111 7.52556C50.7226 7.87358 50.5447 8.14391 50.2635 8.3607L51.1874 9.5593ZM52.2747 7.91005C52.4494 7.26596 52.4469 6.60805 52.2771 5.94992L50.8118 6.32808C50.9193 6.74461 50.9168 7.13538 50.8141 7.51395L52.2747 7.91005ZM52.2778 5.95274C52.122 5.33924 51.8765 4.72689 51.5477 4.11626L50.2152 4.83374C50.4931 5.34978 50.6895 5.84676 50.811 6.32526L52.2778 5.95274ZM51.5541 4.12847C51.2217 3.48321 50.7979 2.9151 50.2824 2.4293L49.2445 3.5307C49.6303 3.89424 49.9518 4.32279 50.2088 4.82153L51.5541 4.12847ZM50.2932 2.43968C49.8134 1.96933 49.3043 1.56855 48.7651 1.2412L47.9797 2.5348C48.4112 2.79678 48.8295 3.124 49.2337 3.52032L50.2932 2.43968ZM48.7703 1.24437C48.1826 0.881088 47.5476 0.691074 46.8776 0.70243L46.9033 2.21557C47.2559 2.20959 47.6089 2.30558 47.9746 2.53163L48.7703 1.24437ZM46.8776 0.70243C46.2096 0.713751 45.5933 0.920754 45.0466 1.31126L45.9262 2.54273C46.2289 2.32658 46.5485 2.22158 46.9033 2.21557L46.8776 0.70243ZM45.0227 1.32906C44.467 1.76 44.0916 2.32632 43.9103 3.00603L45.3726 3.39597C45.4686 3.03568 45.6565 2.75266 45.9501 2.52494L45.0227 1.32906ZM43.9081 3.01456C43.7449 3.65644 43.7535 4.3135 43.921 4.97326L45.3878 4.60074C45.278 4.1685 45.278 3.76823 45.3748 3.38744L43.9081 3.01456ZM43.9218 4.97608C44.0768 5.57692 44.3162 6.18134 44.6339 6.78872L45.9749 6.08728C45.7033 5.568 45.5094 5.07175 45.3871 4.59792L43.9218 4.97608ZM44.6382 6.79674C44.9779 7.42766 45.4023 7.98934 45.911 8.47844L46.9599 7.38756C46.5672 7.00999 46.2376 6.57501 45.9707 6.07926L44.6382 6.79674ZM45.9165 8.4837C46.4023 8.94149 46.9122 9.33426 47.4467 9.6588L48.2321 8.3652C47.796 8.10041 47.3699 7.77384 46.9544 7.3823L45.9165 8.4837ZM47.4553 9.66391C48.0482 10.0133 48.6825 10.1958 49.3473 10.1846L49.3216 8.67143C48.9636 8.6775 48.6014 8.58271 48.2236 8.36009L47.4553 9.66391ZM49.3473 10.1846C50.0155 10.1732 50.6302 9.9659 51.1712 9.5714L50.2796 8.3486C49.9886 8.56077 49.676 8.66542 49.3216 8.67143L49.3473 10.1846ZM9.86016 24.2L9.73348 23.454L8.19116 23.7159L9.35396 24.7624L9.86016 24.2ZM10.2802 24.7L9.65662 25.1287L9.67216 25.1513L9.68929 25.1727L10.2802 24.7ZM10.6802 25.28L10.0232 25.6554L10.0394 25.6838L10.058 25.7107L10.6802 25.28ZM11.1002 25.8L10.5441 26.3132L10.5647 26.3355L10.5869 26.356L11.1002 25.8ZM11.6002 26.18L11.2189 26.8336L11.2502 26.8519L11.2831 26.867L11.6002 26.18ZM12.2002 26.28L12.2446 27.0354L12.2642 27.0342L12.2837 27.0321L12.2002 26.28ZM12.9602 26.02L13.7167 26.0048L13.6915 24.7542L12.5955 25.357L12.9602 26.02ZM13.0202 29V29.7567H13.7922L13.7767 28.9848L13.0202 29ZM11.6602 28.7L11.2946 29.3625L11.3035 29.3674L11.3125 29.3721L11.6602 28.7ZM10.7602 27.9L10.1227 28.308L10.1306 28.3197L10.7602 27.9ZM10.2002 26.82L9.49755 27.101L9.50097 27.1093L10.2002 26.82ZM9.82016 25.7L9.08286 25.8701L9.08594 25.8835L9.0895 25.8967L9.82016 25.7ZM9.20016 24.3L9.50747 23.6085L8.44348 23.1357V24.3H9.20016ZM9.20016 27.68H8.44348V27.7257L8.44898 27.7711L9.20016 27.68ZM6.44016 27.02H5.68348V27.0276L5.68363 27.0353L6.44016 27.02ZM6.44016 16.98L5.68363 16.9647L5.68348 16.9724V16.98H6.44016ZM11.1802 15.64L10.735 16.252L10.7443 16.2586L11.1802 15.64ZM12.4802 17.22L11.7868 17.5233L11.7923 17.5353L12.4802 17.22ZM12.9802 19.32L13.7358 19.2802L12.9802 19.32ZM12.7202 21.48L11.9981 21.2535L11.9954 21.2626L12.7202 21.48ZM11.6602 23.26L11.1182 22.7319L11.118 22.7321L11.6602 23.26ZM9.96016 22.94L9.23441 22.7256L9.23133 22.7366L9.96016 22.94ZM10.2602 20.82L9.50425 20.784L9.50387 20.7956L10.2602 20.82ZM10.2402 18.32L9.48423 18.356L9.48505 18.3687L10.2402 18.32ZM9.90016 16.2L9.17908 16.4294L9.18065 16.4343L9.90016 16.2ZM9.20016 15.32V14.5633H8.44348V15.32H9.20016ZM9.20016 23.8H8.44348V24.5567H9.20016V23.8ZM9.35396 24.7624C9.42832 24.8293 9.53019 24.9448 9.65662 25.1287L10.9037 24.2713C10.7368 24.0285 10.5587 23.8106 10.3663 23.6376L9.35396 24.7624ZM9.68929 25.1727C9.82925 25.3476 9.93926 25.5086 10.0232 25.6554L11.3371 24.9046C11.2077 24.6781 11.0511 24.4524 10.871 24.2273L9.68929 25.1727ZM10.058 25.7107C10.2003 25.9162 10.363 26.117 10.5441 26.3132L11.6562 25.2868C11.5173 25.1364 11.4 24.9904 11.3023 24.8493L10.058 25.7107ZM10.5869 26.356C10.7902 26.5437 11.0007 26.7063 11.2189 26.8336L11.9814 25.5264C11.8796 25.467 11.7568 25.3763 11.6134 25.244L10.5869 26.356ZM11.2831 26.867C11.589 27.0082 11.9171 27.0546 12.2446 27.0354L12.1557 25.5246C12.0299 25.532 11.9579 25.5117 11.9172 25.493L11.2831 26.867ZM12.2837 27.0321C12.6444 26.992 12.993 26.8655 13.3248 26.683L12.5955 25.357C12.394 25.4678 12.2359 25.5147 12.1166 25.5279L12.2837 27.0321ZM12.2036 26.0352L12.2636 29.0152L13.7767 28.9848L13.7167 26.0048L12.2036 26.0352ZM13.0202 28.2433C12.5978 28.2433 12.268 28.1625 12.0078 28.0279L11.3125 29.3721C11.8256 29.6375 12.4026 29.7567 13.0202 29.7567V28.2433ZM12.0257 28.0375C11.7294 27.874 11.5264 27.6853 11.3898 27.4803L10.1306 28.3197C10.4205 28.7547 10.8176 29.0993 11.2946 29.3625L12.0257 28.0375ZM11.3975 27.4921C11.2096 27.1985 11.0432 26.8784 10.8993 26.5307L9.50097 27.1093C9.67708 27.5349 9.88408 27.9349 10.1228 28.3079L11.3975 27.4921ZM10.9027 26.539C10.7516 26.1613 10.6351 25.8163 10.5508 25.5033L9.0895 25.8967C9.19188 26.277 9.32869 26.6787 9.4976 27.101L10.9027 26.539ZM10.5575 25.5299C10.4707 25.1539 10.3667 24.809 10.2427 24.499L8.8376 25.061C8.92694 25.2844 9.00961 25.5527 9.08286 25.8701L10.5575 25.5299ZM10.2427 24.499C10.1765 24.3334 10.0956 24.168 9.99262 24.0226C9.89336 23.8825 9.73858 23.7113 9.50747 23.6085L8.89284 24.9915C8.83497 24.9657 8.79744 24.9359 8.77832 24.9185C8.75948 24.9012 8.75345 24.8914 8.75769 24.8974C8.76164 24.903 8.77164 24.9182 8.78637 24.9468C8.80093 24.975 8.81821 25.0125 8.8376 25.061L10.2427 24.499ZM8.44348 24.3V27.68H9.95684V24.3H8.44348ZM8.44898 27.7711C8.51154 28.2872 8.66515 28.7856 8.99248 29.1646C9.34499 29.5727 9.82403 29.7567 10.3402 29.7567V28.2433C10.203 28.2433 10.1653 28.2073 10.1378 28.1754C10.0852 28.1144 9.99544 27.9528 9.95134 27.5889L8.44898 27.7711ZM10.3402 28.2433H5.26016V29.7567H10.3402V28.2433ZM5.26016 29.7567C5.91439 29.7567 6.47254 29.4673 6.81516 28.8924C7.11948 28.3817 7.21106 27.7167 7.19668 27.0047L5.68363 27.0353C5.69592 27.6433 5.60416 27.9683 5.51515 28.1176C5.47772 28.1804 5.44704 28.2021 5.4283 28.2124C5.40753 28.2237 5.35979 28.2433 5.26016 28.2433V29.7567ZM7.19684 27.02V16.98H5.68348V27.02H7.19684ZM7.19668 16.9953C7.21106 16.2833 7.11948 15.6183 6.81516 15.1076C6.47254 14.5327 5.91439 14.2433 5.26016 14.2433V15.7567C5.35979 15.7567 5.40753 15.7763 5.4283 15.7876C5.44704 15.7979 5.47772 15.8196 5.51515 15.8824C5.60416 16.0317 5.69592 16.3567 5.68363 16.9647L7.19668 16.9953ZM5.26016 15.7567H9.12016V14.2433H5.26016V15.7567ZM9.12016 15.7567C9.76116 15.7567 10.2888 15.9274 10.7351 16.252L11.6252 15.028C10.8981 14.4993 10.0525 14.2433 9.12016 14.2433V15.7567ZM10.7443 16.2586C11.2213 16.5946 11.5639 17.0135 11.7869 17.5233L13.1734 16.9167C12.8364 16.1465 12.3124 15.5121 11.616 15.0214L10.7443 16.2586ZM11.7923 17.5353C12.0427 18.0817 12.1891 18.6873 12.2245 19.3598L13.7358 19.2802C13.6912 18.4327 13.5042 17.6383 13.168 16.9047L11.7923 17.5353ZM12.2245 19.3598C12.2601 20.0359 12.1827 20.6652 11.9982 21.2535L13.4421 21.7065C13.6843 20.9348 13.7802 20.1241 13.7358 19.2802L12.2245 19.3598ZM11.9954 21.2626C11.8319 21.8074 11.5436 22.2954 11.1182 22.7319L12.2021 23.7881C12.7901 23.1846 13.2084 22.4859 13.4449 21.6974L11.9954 21.2626ZM11.118 22.7321C10.7382 23.1222 10.2844 23.3605 9.73348 23.454L9.98684 24.946C10.8493 24.7995 11.5955 24.4111 12.2023 23.7879L11.118 22.7321ZM9.34016 24.5567C9.79751 24.5567 10.1137 24.2844 10.299 24.0275C10.4781 23.779 10.5991 23.4654 10.689 23.1434L9.23133 22.7366C9.19793 22.8563 9.1653 22.9492 9.13535 23.0195C9.10488 23.0909 9.08176 23.1281 9.07136 23.1425C9.06058 23.1574 9.07403 23.1335 9.1212 23.1041C9.17505 23.0705 9.25206 23.0433 9.34016 23.0433V24.5567ZM10.6858 23.1544C10.8825 22.4886 10.9884 21.7145 11.0164 20.8444L9.50387 20.7956C9.47861 21.5789 9.38445 22.218 9.23449 22.7256L10.6858 23.1544ZM11.016 20.856C11.0573 19.9882 11.0504 19.1266 10.9953 18.2713L9.48505 18.3687C9.53653 19.1668 9.54301 19.9718 9.50433 20.784L11.016 20.856ZM10.996 18.284C10.9539 17.401 10.8336 16.6229 10.6197 15.9657L9.18065 16.4343C9.34002 16.9237 9.44638 17.559 9.48433 18.356L10.996 18.284ZM10.6212 15.9706C10.5156 15.6385 10.3764 15.3192 10.1773 15.0689C9.96921 14.8073 9.64316 14.5633 9.20016 14.5633V16.0767C9.13106 16.0767 9.06954 16.0569 9.02599 16.032C8.98771 16.0101 8.97907 15.9936 8.99298 16.011C9.0069 16.0285 9.03374 16.0681 9.06852 16.1409C9.10283 16.2128 9.14034 16.3076 9.1791 16.4294L10.6212 15.9706ZM8.44348 15.32V23.8H9.95684V15.32H8.44348ZM9.20016 24.5567H9.34016V23.0433H9.20016V24.5567ZM21.22 27.18L21.9674 27.0611L21.9651 27.0479L21.22 27.18ZM21.64 28.52L20.9936 28.9134L20.9976 28.9199L21.0016 28.9262L21.64 28.52ZM22.5 29L22.4942 29.7567L22.5521 28.2451L22.5 29ZM17.3 28.96L17.2556 28.2046L17.2942 29.7167L17.3 28.96ZM17.86 28.78L18.3051 29.392L18.314 29.3853L17.86 28.78ZM18.18 28.3L17.4622 28.0607L17.4548 28.0827L17.4489 28.105L18.18 28.3ZM18.32 27.74L19.0679 27.8551L19.0691 27.847L18.32 27.74ZM18.3 27.04L17.5467 27.1117L17.5484 27.1294L17.5509 27.147L18.3 27.04ZM18.22 26.4L18.9645 26.2646V26.2646L18.22 26.4ZM18.1 25.8L17.3492 25.8939L17.3531 25.9251L17.3596 25.9559L18.1 25.8ZM18.06 25.58L18.7778 25.3407L18.6108 24.8394L18.0826 24.8237L18.06 25.58ZM15.38 25.5L15.4026 24.7437L14.7937 24.7255L14.6459 25.3165L15.38 25.5ZM15.32 25.76L14.5813 25.5959L14.5782 25.6102L14.5755 25.6246L15.32 25.76ZM15.2 26.44L15.9446 26.5754L15.9464 26.5644L15.2 26.44ZM15.1 27.08L14.3509 26.973L14.3484 26.9906L14.3467 27.0083L15.1 27.08ZM15.08 27.76L14.3256 27.818L14.3278 27.8467L14.3321 27.8751L15.08 27.76ZM15.2 28.32L14.4689 28.515L14.4769 28.5451L14.4874 28.5745L15.2 28.32ZM15.5 28.76L15.0273 29.3509L15.0409 29.3617L15.0549 29.372L15.5 28.76ZM16.06 28.96V29.7167L16.1484 28.2085L16.06 28.96ZM13.1 28.96L13.0061 28.2092L13.1 29.7167V28.96ZM13.66 28.78L14.0413 29.4336L14.049 29.4291L14.0566 29.4244L13.66 28.78ZM14.32 27.94L13.6148 27.6657L13.608 27.6831L13.6022 27.7007L14.32 27.94ZM14.52 27.34L15.2542 27.5236L15.2573 27.5101L14.52 27.34ZM14.68 26.56L13.9413 26.3959L13.939 26.4064L13.9369 26.4171L14.68 26.56ZM14.74 26.28L14 26.1219L13.998 26.1316L14.74 26.28ZM16.68 17.2L17.42 17.3581L17.4483 17.2258L17.4289 17.0918L16.68 17.2ZM16.42 15.4L16.3066 14.6519L15.5637 14.7644L15.6711 15.5082L16.42 15.4ZM19.06 15L19.8051 14.8679L19.6762 14.1413L18.9466 14.2519L19.06 15ZM15.58 24.94L14.8385 24.7891L14.6538 25.6967H15.58V24.94ZM17.96 24.94V25.6967H18.8263L18.7098 24.8383L17.96 24.94ZM17.04 18.16L17.7898 18.0583L17.7009 17.4033H17.04V18.16ZM16.96 18.16V17.4033H16.3418L16.2185 18.0091L16.96 18.16ZM20.4727 27.2989C20.5727 27.9274 20.7331 28.4853 20.9936 28.9134L22.2864 28.1266C22.1736 27.9414 22.054 27.6059 21.9673 27.0611L20.4727 27.2989ZM21.0016 28.9262C21.3335 29.4477 21.8533 29.7139 22.4479 29.7549L22.5521 28.2451C22.3734 28.2328 22.3199 28.179 22.2784 28.1138L21.0016 28.9262ZM22.5058 28.2433L17.3058 28.2033L17.2942 29.7167L22.4942 29.7567L22.5058 28.2433ZM17.3444 29.7154C17.6793 29.6957 18.015 29.6029 18.3051 29.392L17.4149 28.168C17.4117 28.1704 17.374 28.1977 17.2556 28.2046L17.3444 29.7154ZM18.314 29.3853C18.6148 29.1597 18.8157 28.8528 18.9111 28.495L17.4489 28.105C17.4376 28.1472 17.4252 28.1603 17.406 28.1747L18.314 29.3853ZM18.8978 28.5393C18.9754 28.3066 19.0336 28.078 19.0679 27.8551L17.5721 27.6249C17.5531 27.7487 17.5179 27.8934 17.4622 28.0607L18.8978 28.5393ZM19.0691 27.847C19.1096 27.5634 19.0947 27.2523 19.0491 26.933L17.5509 27.147C17.5853 27.3877 17.5837 27.5432 17.5709 27.633L19.0691 27.847ZM19.0533 26.9683C19.026 26.6821 18.997 26.4434 18.9645 26.2646L17.4755 26.5354C17.4964 26.65 17.5207 26.8379 17.5467 27.1117L19.0533 26.9683ZM18.9645 26.2646C18.936 26.1079 18.8943 25.9001 18.8404 25.6441L17.3596 25.9559C17.4123 26.2066 17.4507 26.3987 17.4755 26.5354L18.9645 26.2646ZM18.8508 25.7061C18.8379 25.603 18.8178 25.4605 18.7778 25.3407L17.3422 25.8193C17.3361 25.8012 17.3335 25.79 17.3334 25.7896C17.3331 25.7882 17.3339 25.7914 17.3355 25.8004C17.3389 25.8187 17.3435 25.8489 17.3492 25.8939L18.8508 25.7061ZM18.0826 24.8237L15.4026 24.7437L15.3574 26.2563L18.0374 26.3363L18.0826 24.8237ZM14.6459 25.3165C14.63 25.3802 14.6081 25.4753 14.5813 25.5959L16.0587 25.9241C16.0852 25.8047 16.1034 25.7264 16.1141 25.6835L14.6459 25.3165ZM14.5755 25.6246C14.522 25.9191 14.4812 26.1501 14.4536 26.3156L15.9464 26.5644C15.9721 26.4099 16.0114 26.1875 16.0645 25.8954L14.5755 25.6246ZM14.4555 26.3046C14.4263 26.4657 14.3913 26.6903 14.3509 26.973L15.8491 27.187C15.8887 26.9097 15.9204 26.7077 15.9445 26.5754L14.4555 26.3046ZM14.3467 27.0083C14.3181 27.3085 14.3075 27.5834 14.3256 27.818L15.8344 27.702C15.8258 27.5899 15.8285 27.4115 15.8533 27.1517L14.3467 27.0083ZM14.3321 27.8751C14.3636 28.0796 14.4097 28.2932 14.4689 28.515L15.9311 28.125C15.8836 27.9468 15.8497 27.7871 15.8279 27.6449L14.3321 27.8751ZM14.4874 28.5745C14.5936 28.8717 14.7677 29.1432 15.0273 29.3509L15.9727 28.1691C15.9656 28.1635 15.9398 28.1416 15.9126 28.0655L14.4874 28.5745ZM15.0549 29.372C15.3304 29.5723 15.6488 29.6735 15.9716 29.7115L16.1484 28.2085C16.0179 28.1931 15.963 28.1611 15.9451 28.148L15.0549 29.372ZM16.06 28.2033H13.1V29.7167H16.06V28.2033ZM13.1939 29.7108C13.4924 29.6735 13.78 29.586 14.0413 29.4336L13.2787 28.1264C13.22 28.1606 13.1342 28.1932 13.0061 28.2092L13.1939 29.7108ZM14.0566 29.4244C14.2689 29.2938 14.4696 29.141 14.6295 28.9583L13.4905 27.9617C13.4637 27.9924 13.3978 28.0529 13.2634 28.1356L14.0566 29.4244ZM14.6295 28.9583C14.8219 28.7383 14.9471 28.4516 15.0378 28.1793L13.6022 27.7007C13.5703 27.7964 13.5416 27.8649 13.5182 27.9116C13.4939 27.9601 13.4825 27.9709 13.4905 27.9617L14.6295 28.9583ZM15.0252 28.2143C15.1245 27.9591 15.2034 27.7264 15.2541 27.5235L13.7859 27.1565C13.7566 27.2736 13.7022 27.4409 13.6148 27.6657L15.0252 28.2143ZM15.2573 27.5101C15.3005 27.3228 15.356 27.0517 15.4231 26.7029L13.9369 26.4171C13.8707 26.7617 13.8195 27.0106 13.7827 27.1699L15.2573 27.5101ZM15.4187 26.7241C15.4457 26.6024 15.4671 26.5029 15.482 26.4284L13.998 26.1316C13.9863 26.1904 13.9676 26.2776 13.9413 26.3959L15.4187 26.7241ZM15.48 26.4381L17.42 17.3581L15.94 17.0419L14 26.1219L15.48 26.4381ZM17.4289 17.0918L17.1689 15.2918L15.6711 15.5082L15.9311 17.3082L17.4289 17.0918ZM16.5334 16.1481L19.1734 15.7481L18.9466 14.2519L16.3066 14.6519L16.5334 16.1481ZM18.3149 15.1321L20.4749 27.3121L21.9651 27.0479L19.8051 14.8679L18.3149 15.1321ZM15.58 25.6967H17.96V24.1833H15.58V25.6967ZM18.7098 24.8383L17.7898 18.0583L16.2902 18.2617L17.2102 25.0417L18.7098 24.8383ZM17.04 17.4033H16.96V18.9167H17.04V17.4033ZM16.2185 18.0091L14.8385 24.7891L16.3215 25.0909L17.7015 18.3109L16.2185 18.0091ZM22.4798 15V14.2433H21.846L21.7349 14.8674L22.4798 15ZM29.4398 15L30.1855 14.8712L30.077 14.2433H29.4398V15ZM30.0998 18.82L29.3973 19.101L30.8455 18.6912L30.0998 18.82ZM29.9398 18.34L30.6614 18.1121V18.1121L29.9398 18.34ZM29.7598 17.82L29.0323 18.0279L29.0455 18.074L29.0643 18.1181L29.7598 17.82ZM29.5798 17.36L28.8713 17.6257L28.8785 17.6447L28.8866 17.6633L29.5798 17.36ZM29.3598 16.92L28.7441 17.3598L28.7605 17.3828L28.7785 17.4044L29.3598 16.92ZM29.0798 16.56L29.6655 16.0808L29.6655 16.0808L29.0798 16.56ZM28.7198 16.26L28.3524 16.9215L28.3818 16.9378L28.4125 16.9515L28.7198 16.26ZM28.2598 16.08L28.0373 16.8032L28.0446 16.8055L28.052 16.8076L28.2598 16.08ZM27.3598 16V15.2433H26.6032V16H27.3598ZM27.3598 28H26.6032V28.1039L26.6312 28.204L27.3598 28ZM28.5598 29V29.7567L28.577 28.2435L28.5598 29ZM26.7998 28.96L26.817 28.2035L26.7989 28.2031L26.7807 28.2036L26.7998 28.96ZM25.2198 29V29.7567H25.2294L25.239 29.7564L25.2198 29ZM24.6398 27.02L23.8833 27.0042L23.8829 27.0236L23.8835 27.0429L24.6398 27.02ZM24.6798 25.1L25.4364 25.1158L25.4365 25.1079V25.1H24.6798ZM24.6798 16H25.4365V15.2433H24.6798V16ZM23.6398 16.08L23.4173 15.3568L23.6398 16.08ZM23.1798 16.26L23.4872 16.9515L23.5029 16.9445L23.5182 16.9368L23.1798 16.26ZM22.8198 16.56L22.2342 16.0808L22.2342 16.0808L22.8198 16.56ZM22.5398 16.92L23.1211 17.4044L23.1392 17.3828L23.1556 17.3598L22.5398 16.92ZM22.2998 17.36L21.6066 17.0567L21.5985 17.0753L21.5913 17.0943L22.2998 17.36ZM22.1198 17.82L21.4243 17.5219L21.4055 17.566L21.3923 17.6121L22.1198 17.82ZM21.9598 18.34L21.2383 18.1121L21.2383 18.1121L21.9598 18.34ZM21.7998 18.82L21.0549 18.6874L22.5024 19.101L21.7998 18.82ZM22.4798 15.7567H29.4398V14.2433H22.4798V15.7567ZM28.6942 15.1288L29.3542 18.9488L30.8455 18.6912L30.1855 14.8712L28.6942 15.1288ZM30.8024 18.539C30.7885 18.5041 30.7441 18.3741 30.6614 18.1121L29.2183 18.5679C29.2956 18.8126 29.3579 19.0026 29.3973 19.101L30.8024 18.539ZM30.6614 18.1121C30.5821 17.8611 30.512 17.6542 30.4553 17.5219L29.0643 18.1181C29.0877 18.1725 29.1376 18.3123 29.2183 18.5679L30.6614 18.1121ZM30.4874 17.6121C30.4454 17.4649 30.3665 17.2702 30.2731 17.0567L28.8866 17.6633C28.9799 17.8765 29.021 17.9884 29.0323 18.0279L30.4874 17.6121ZM30.2883 17.0943C30.2054 16.8731 30.0958 16.6212 29.9411 16.4356L28.7785 17.4044C28.7596 17.3816 28.7644 17.3811 28.788 17.4284C28.8093 17.471 28.8374 17.535 28.8713 17.6257L30.2883 17.0943ZM29.9756 16.4802C29.8952 16.3676 29.7902 16.2332 29.6655 16.0808L28.4942 17.0392C28.6095 17.1801 28.6912 17.2857 28.7441 17.3598L29.9756 16.4802ZM29.6655 16.0808C29.5014 15.8803 29.2924 15.6864 29.0272 15.5685L28.4125 16.9515C28.398 16.945 28.3993 16.9428 28.4154 16.9563C28.4317 16.9699 28.4584 16.9954 28.4942 17.0392L29.6655 16.0808ZM29.0873 15.5985C28.9008 15.4949 28.689 15.4157 28.4677 15.3524L28.052 16.8076C28.204 16.851 28.2989 16.8917 28.3524 16.9215L29.0873 15.5985ZM28.4824 15.3568C28.23 15.2791 27.9676 15.2433 27.6998 15.2433V16.7567C27.8321 16.7567 27.9431 16.7742 28.0373 16.8032L28.4824 15.3568ZM27.6998 15.2433H27.3598V16.7567H27.6998V15.2433ZM26.6032 16V28H28.1165V16H26.6032ZM26.6312 28.204C26.7524 28.6371 26.9645 29.0389 27.3154 29.3313C27.6748 29.6308 28.1092 29.7567 28.5598 29.7567V28.2433C28.3972 28.2433 28.3249 28.2026 28.2843 28.1687C28.2352 28.1278 28.1539 28.0296 28.0885 27.796L26.6312 28.204ZM28.577 28.2435L26.817 28.2035L26.7827 29.7165L28.5427 29.7565L28.577 28.2435ZM26.7807 28.2036L25.2007 28.2436L25.239 29.7564L26.819 29.7164L26.7807 28.2036ZM25.2198 28.2433H23.4598V29.7567H25.2198V28.2433ZM23.4598 29.7567C24.1152 29.7567 24.6796 29.4717 25.0248 28.8924C25.3312 28.3783 25.4178 27.7097 25.3962 26.9971L23.8835 27.0429C23.9019 27.6503 23.8118 27.9717 23.7248 28.1176C23.6886 28.1785 23.6585 28.1999 23.6386 28.2107C23.616 28.2229 23.5649 28.2433 23.4598 28.2433V29.7567ZM25.3964 27.0358L25.4364 25.1158L23.9233 25.0842L23.8833 27.0042L25.3964 27.0358ZM25.4365 25.1V16H23.9232V25.1H25.4365ZM24.6798 15.2433H24.1998V16.7567H24.6798V15.2433ZM24.1998 15.2433C23.9321 15.2433 23.6697 15.2791 23.4173 15.3568L23.8624 16.8032C23.9566 16.7742 24.0676 16.7567 24.1998 16.7567V15.2433ZM23.4173 15.3568C23.2124 15.4198 23.019 15.4944 22.8414 15.5832L23.5182 16.9368C23.6073 16.8922 23.7207 16.8468 23.8624 16.8032L23.4173 15.3568ZM22.8725 15.5685C22.6073 15.6864 22.3983 15.8803 22.2342 16.0808L23.4055 17.0392C23.4412 16.9954 23.468 16.9699 23.4843 16.9563C23.5004 16.9428 23.5017 16.945 23.4872 16.9515L22.8725 15.5685ZM22.2342 16.0808C22.1095 16.2332 22.0045 16.3676 21.9241 16.4802L23.1556 17.3598C23.2085 17.2857 23.2902 17.1801 23.4055 17.0392L22.2342 16.0808ZM21.9585 16.4356C21.8176 16.6047 21.7022 16.8383 21.6066 17.0567L22.9931 17.6633C23.0341 17.5696 23.0678 17.5006 23.0941 17.4523C23.1228 17.3997 23.1324 17.3909 23.1211 17.4044L21.9585 16.4356ZM21.5913 17.0943C21.5117 17.3067 21.4569 17.4459 21.4243 17.5219L22.8153 18.1181C22.8628 18.0074 22.928 17.84 23.0083 17.6257L21.5913 17.0943ZM21.3923 17.6121C21.3689 17.694 21.3186 17.8578 21.2383 18.1121L22.6814 18.5679C22.7611 18.3155 22.8175 18.1327 22.8474 18.0279L21.3923 17.6121ZM21.2383 18.1121C21.1556 18.3741 21.1112 18.5041 21.0973 18.539L22.5024 19.101C22.5418 19.0026 22.6041 18.8126 22.6814 18.5679L21.2383 18.1121ZM22.5448 18.9526L23.2248 15.1326L21.7349 14.8674L21.0549 18.6874L22.5448 18.9526ZM35.182 29V29.7567L35.2459 28.246L35.182 29ZM30.202 29L30.1359 28.2462L30.202 29.7567V29ZM31.382 27.26L32.1385 27.2785L32.1387 27.2692V27.26H31.382ZM31.382 16.74H32.1387V16.7308L32.1385 16.7215L31.382 16.74ZM30.202 15V14.2433L30.1359 15.7538L30.202 15ZM35.182 15L35.247 15.7539L35.182 14.2433V15ZM34.002 16.98L33.2454 16.972V16.98H34.002ZM33.2454 27.02C33.2454 27.7058 33.3495 28.3431 33.647 28.8424C33.9726 29.3886 34.4897 29.7007 35.1181 29.754L35.2459 28.246C35.0877 28.2326 35.0148 28.1814 34.947 28.0676C34.8513 27.9069 34.7587 27.5875 34.7587 27.02H33.2454ZM35.182 28.2433H30.202V29.7567H35.182V28.2433ZM30.2682 29.7538C30.8519 29.7026 31.3565 29.4363 31.6933 28.9397C32.0052 28.4798 32.1234 27.8954 32.1385 27.2785L30.6256 27.2416C30.614 27.718 30.5222 27.9702 30.4408 28.0903C30.3842 28.1737 30.3121 28.2308 30.1359 28.2462L30.2682 29.7538ZM32.1387 27.26V16.74H30.6254V27.26H32.1387ZM32.1385 16.7215C32.1234 16.1046 32.0052 15.5202 31.6933 15.0603C31.3565 14.5637 30.8519 14.2974 30.2682 14.2462L30.1359 15.7538C30.3121 15.7692 30.3842 15.8263 30.4408 15.9097C30.5222 16.0298 30.614 16.282 30.6256 16.7584L32.1385 16.7215ZM30.202 15.7567H35.182V14.2433H30.202V15.7567ZM35.117 14.2461C34.4907 14.3001 33.9799 14.6159 33.657 15.1576C33.3615 15.6534 33.2527 16.2872 33.2454 16.972L34.7587 16.988C34.7647 16.4195 34.8592 16.0966 34.957 15.9324C35.0275 15.8141 35.1 15.7666 35.247 15.7539L35.117 14.2461ZM33.2454 16.98V27.02H34.7587V16.98H33.2454ZM42.3969 18.98L41.6504 18.8556L41.6485 18.8685L42.3969 18.98ZM42.5169 18.18L41.7717 18.0485L41.7684 18.0673L41.766 18.0861L42.5169 18.18ZM42.6169 17.36L41.8656 17.2698L41.864 17.2835L41.8628 17.2972L42.6169 17.36ZM42.6369 16.52L41.8815 16.5644L41.8828 16.5865L41.8854 16.6084L42.6369 16.52ZM42.5169 15.84L41.7782 16.0041L41.7837 16.029L41.7909 16.0535L42.5169 15.84ZM42.2169 15.28L41.657 15.789L41.6812 15.8157L41.7079 15.8399L42.2169 15.28ZM41.6969 15V14.2433L41.5574 15.7437L41.6969 15ZM44.6569 15L44.7842 15.7459L44.6569 14.2433V15ZM43.5169 15.74L42.8492 15.3839L42.8448 15.3924L43.5169 15.74ZM43.0169 17.68L43.7651 17.7931L43.7655 17.7901L43.0169 17.68ZM41.5169 27.6L40.7687 27.4869L40.7496 27.6129L40.7729 27.7382L41.5169 27.6ZM41.7769 29V29.7567H42.687L42.5208 28.8618L41.7769 29ZM38.9569 29L38.2178 29.1623L38.3484 29.7567H38.9569V29ZM36.2769 16.8L37.0159 16.6376L37.0153 16.6349L36.2769 16.8ZM34.7169 15V14.2433L34.653 15.754L34.7169 15ZM38.9969 15.74L38.2427 15.6788L38.2418 15.689L38.2413 15.6992L38.9969 15.74ZM39.2169 17.66L39.9633 17.5356L39.96 17.5163L39.9558 17.4972L39.2169 17.66ZM39.2369 17.84H38.4802V17.9217L38.4976 18.0016L39.2369 17.84ZM41.2169 26.9L40.4776 27.0616L41.9653 27.0115L41.2169 26.9ZM43.1433 19.1044C43.1975 18.7788 43.2393 18.5011 43.2677 18.2739L41.766 18.0861C41.7411 18.2855 41.7029 18.5412 41.6505 18.8556L43.1433 19.1044ZM43.262 18.3115C43.3073 18.0552 43.343 17.7576 43.3709 17.4228L41.8628 17.2972C41.8374 17.6024 41.8065 17.8515 41.7717 18.0485L43.262 18.3115ZM43.3682 17.4502C43.4123 17.0825 43.4244 16.7382 43.3884 16.4316L41.8854 16.6084C41.9026 16.7551 41.9015 16.9708 41.8656 17.2698L43.3682 17.4502ZM43.3923 16.4756C43.3754 16.1893 43.325 15.906 43.2428 15.6265L41.7909 16.0535C41.8421 16.2273 41.8717 16.3973 41.8815 16.5644L43.3923 16.4756ZM43.2555 15.6759C43.1766 15.3204 43.0133 14.9814 42.7259 14.7201L41.7079 15.8399C41.7138 15.8453 41.7505 15.8796 41.7782 16.0041L43.2555 15.6759ZM42.7768 14.771C42.5219 14.4907 42.1953 14.3236 41.8363 14.2563L41.5574 15.7437C41.6251 15.7564 41.6451 15.776 41.657 15.789L42.7768 14.771ZM41.6969 15.7567H44.6569V14.2433H41.6969V15.7567ZM44.5295 14.2541C43.8094 14.3771 43.1974 14.7311 42.8492 15.3839L44.1845 16.0961C44.263 15.9489 44.411 15.8096 44.7842 15.7459L44.5295 14.2541ZM42.8448 15.3924C42.5833 15.8978 42.4034 16.6512 42.2682 17.5699L43.7655 17.7901C43.8971 16.8955 44.0504 16.3555 44.189 16.0876L42.8448 15.3924ZM42.2687 17.5669L40.7687 27.4869L42.265 27.7131L43.765 17.7931L42.2687 17.5669ZM40.7729 27.7382L41.0329 29.1382L42.5208 28.8618L42.2608 27.4618L40.7729 27.7382ZM41.7769 28.2433H38.9569V29.7567H41.7769V28.2433ZM39.6959 28.8377L37.0159 16.6376L35.5378 16.9624L38.2178 29.1623L39.6959 28.8377ZM37.0153 16.6349C36.8731 15.9986 36.64 15.4328 36.2687 15.0044C35.8804 14.5563 35.3719 14.2961 34.7808 14.246L34.653 15.754C34.8486 15.7705 34.9934 15.8437 35.1251 15.9956C35.2738 16.1672 35.4273 16.4681 35.5384 16.9651L37.0153 16.6349ZM34.7169 15.7567H39.6369V14.2433H34.7169V15.7567ZM39.6369 14.2433C39.2687 14.2433 38.8919 14.3693 38.6146 14.69C38.3609 14.9833 38.2693 15.3502 38.2427 15.6788L39.7511 15.8012C39.7573 15.7247 39.7685 15.6811 39.7753 15.6613C39.7816 15.6427 39.7806 15.6553 39.7592 15.68C39.7485 15.6923 39.7346 15.7056 39.7174 15.7179C39.7003 15.7303 39.683 15.7396 39.6671 15.7461C39.6351 15.7593 39.6203 15.7567 39.6369 15.7567V14.2433ZM38.2413 15.6992C38.2094 16.29 38.2979 17.0057 38.4779 17.8228L39.9558 17.4972C39.7892 16.741 39.7311 16.1766 39.7524 15.7808L38.2413 15.6992ZM38.4705 17.7844C38.4756 17.8151 38.4784 17.8359 38.4798 17.8486C38.4805 17.8547 38.4807 17.8571 38.4806 17.8566C38.4806 17.8563 38.4802 17.8504 38.4802 17.84H39.9936C39.9936 17.7347 39.978 17.6239 39.9633 17.5356L38.4705 17.7844ZM38.4976 18.0016L40.4776 27.0616L41.9561 26.7384L39.9761 17.6784L38.4976 18.0016ZM41.9653 27.0115L43.1453 19.0915L41.6485 18.8685L40.4685 26.7885L41.9653 27.0115ZM49.7031 28.42L49.3491 27.7513L49.7031 28.42ZM50.2831 27.96L49.7286 27.4451L49.7184 27.4561L49.7086 27.4676L50.2831 27.96ZM50.7631 27.34L50.1278 26.9289L50.7631 27.34ZM51.1231 26.66L50.4317 26.3527L50.4274 26.3622L50.4234 26.3719L51.1231 26.66ZM51.3831 26.02L50.6876 25.7219L50.6784 25.7435L50.6705 25.7655L51.3831 26.02ZM51.5631 25.56L52.281 25.7993L52.2933 25.7623L52.3018 25.7241L51.5631 25.56ZM51.6031 25.38L52.3433 25.5371L50.8645 25.2159L51.6031 25.38ZM50.8431 28.96L50.8495 29.7167L51.4571 29.7116L51.5833 29.1171L50.8431 28.96ZM46.0631 29V29.7567L46.0695 29.7567L46.0631 29ZM45.4831 27.02L44.7266 27.0042L44.7263 27.0198L44.7266 27.0353L45.4831 27.02ZM45.5231 25.1L46.2796 25.1158L46.2798 25.106L46.2798 25.0963L45.5231 25.1ZM45.4831 16.94L44.7266 16.9236L44.7264 16.9336L44.7265 16.9437L45.4831 16.94ZM45.2431 15.52L44.5561 15.8371L44.5636 15.8533L44.5718 15.8691L45.2431 15.52ZM50.5431 15L51.2968 14.9322L51.2348 14.2433H50.5431V15ZM50.9031 19L50.1567 19.1244L51.6568 18.9322L50.9031 19ZM50.7631 18.38L50.0211 18.5284L50.024 18.5426L50.0273 18.5566L50.7631 18.38ZM50.4431 17.16L49.7141 17.3625L49.7166 17.3719L49.7195 17.3811L50.4431 17.16ZM49.8631 15.9L49.2335 16.3197L49.2388 16.3277L49.2443 16.3355L49.8631 15.9ZM48.1231 15.36V14.6033H47.3664V15.36H48.1231ZM48.1231 21.36H47.3664V22.1167H48.1231V21.36ZM49.1431 21.16L49.583 21.7758L49.5906 21.7702L49.1431 21.16ZM49.6031 20.68L50.2476 21.0766L50.254 21.0661L50.2601 21.0554L49.6031 20.68ZM49.8631 20.06L49.1372 19.8465L49.8631 20.06ZM49.9831 19.56L49.2323 19.4661V19.4661L49.9831 19.56ZM50.0231 19.32H50.7798L49.289 19.1365L50.0231 19.32ZM50.0231 24.52L49.2811 24.6684L50.7798 24.52H50.0231ZM49.9831 24.24H49.2264V24.2819L49.2311 24.3236L49.9831 24.24ZM49.8831 23.58L49.1423 23.7343L49.1437 23.7407L49.8831 23.58ZM49.6231 22.76L48.9179 23.0343L48.9274 23.0586L48.9385 23.0822L49.6231 22.76ZM49.1831 22.1L49.7182 21.5649L49.1831 22.1ZM48.1231 21.8V21.0433H47.3664V21.8H48.1231ZM48.1231 28.6H47.3664V29.3567H48.1231V28.6ZM49.0031 29.3567C49.375 29.3567 49.7291 29.2624 50.0572 29.0887L49.3491 27.7513C49.2238 27.8176 49.1113 27.8433 49.0031 27.8433V29.3567ZM50.0572 29.0887C50.3641 28.9263 50.6332 28.7143 50.8576 28.4524L49.7086 27.4676C49.613 27.5791 49.4955 27.6737 49.3491 27.7513L50.0572 29.0887ZM50.8376 28.4749C51.0426 28.2542 51.2293 28.0124 51.3984 27.7511L50.1278 26.9289C50.0036 27.1209 49.8704 27.2925 49.7286 27.4451L50.8376 28.4749ZM51.3984 27.7511C51.5678 27.4893 51.7101 27.2217 51.8228 26.9481L50.4234 26.3719C50.3494 26.5516 50.2518 26.7373 50.1278 26.9289L51.3984 27.7511ZM51.8146 26.9673C51.9267 26.7152 52.021 26.4837 52.0957 26.2745L50.6705 25.7655C50.6119 25.9297 50.5329 26.1248 50.4317 26.3527L51.8146 26.9673ZM52.0786 26.3181C52.1626 26.1221 52.2316 25.9474 52.281 25.7993L50.8453 25.3207C50.8146 25.4126 50.7637 25.5445 50.6876 25.7219L52.0786 26.3181ZM52.3018 25.7241L52.3418 25.5441L50.8645 25.2159L50.8245 25.3959L52.3018 25.7241ZM50.8629 25.2229L50.1029 28.8029L51.5833 29.1171L52.3433 25.5371L50.8629 25.2229ZM50.8368 28.2033L46.0568 28.2433L46.0695 29.7567L50.8495 29.7167L50.8368 28.2033ZM46.0631 28.2433H44.3031V29.7567H46.0631V28.2433ZM44.3031 29.7567C44.9574 29.7567 45.5155 29.4673 45.8581 28.8924C46.1625 28.3817 46.254 27.7167 46.2397 27.0047L44.7266 27.0353C44.7389 27.6433 44.6471 27.9683 44.5581 28.1176C44.5207 28.1804 44.49 28.2021 44.4713 28.2124C44.4505 28.2237 44.4028 28.2433 44.3031 28.2433V29.7567ZM46.2396 27.0358L46.2796 25.1158L44.7666 25.0842L44.7266 27.0042L46.2396 27.0358ZM46.2798 25.0963L46.2398 16.9363L44.7265 16.9437L44.7665 25.1037L46.2798 25.0963ZM46.2396 16.9564C46.2542 16.2877 46.1724 15.6669 45.9145 15.1709L44.5718 15.8691C44.6605 16.0397 44.7388 16.3657 44.7266 16.9236L46.2396 16.9564ZM45.9302 15.2029C45.7874 14.8937 45.5616 14.6378 45.2544 14.4679C44.9567 14.3032 44.6269 14.2433 44.3031 14.2433V15.7567C44.4461 15.7567 44.5062 15.7835 44.5218 15.7921C44.5292 15.7962 44.5323 15.7991 44.5348 15.8019C44.5376 15.805 44.5457 15.8146 44.5561 15.8371L45.9302 15.2029ZM44.3031 15.7567H50.5431V14.2433H44.3031V15.7567ZM49.7895 15.0678L50.1495 19.0678L51.6568 18.9322L51.2968 14.9322L49.7895 15.0678ZM51.6495 18.8756C51.6308 18.7631 51.5764 18.5261 51.4989 18.2034L50.0273 18.5566C50.1099 18.9006 50.1488 19.0769 50.1567 19.1244L51.6495 18.8756ZM51.5051 18.2316C51.4318 17.8652 51.3177 17.4327 51.1668 16.9389L49.7195 17.3811C49.8619 17.8473 49.9611 18.2281 50.0211 18.5284L51.5051 18.2316ZM51.1722 16.9575C51.0187 16.405 50.7912 15.904 50.4819 15.4645L49.2443 16.3355C49.4417 16.616 49.6009 16.955 49.7141 17.3625L51.1722 16.9575ZM50.4927 15.4803C50.2118 15.0588 49.7674 14.6033 49.1231 14.6033V16.1167C49.0588 16.1167 49.031 16.0909 49.0521 16.1062C49.0802 16.1268 49.144 16.1854 49.2335 16.3197L50.4927 15.4803ZM49.1231 14.6033H48.1231V16.1167H49.1231V14.6033ZM47.3664 15.36V21.36H48.8798V15.36H47.3664ZM48.1231 22.1167H48.4831V20.6033H48.1231V22.1167ZM48.4831 22.1167C48.8769 22.1167 49.2546 22.0103 49.5829 21.7757L48.7033 20.5443C48.6583 20.5764 48.596 20.6033 48.4831 20.6033V22.1167ZM49.5906 21.7702C49.8527 21.578 50.0798 21.3492 50.2476 21.0766L48.9587 20.2834C48.9131 20.3575 48.8336 20.4487 48.6957 20.5498L49.5906 21.7702ZM50.2601 21.0554C50.3987 20.8129 50.5074 20.5511 50.5891 20.2735L49.1372 19.8465C49.0855 20.0222 49.0209 20.1738 48.9461 20.3046L50.2601 21.0554ZM50.5891 20.2735C50.657 20.0427 50.7125 19.8258 50.734 19.6539L49.2323 19.4661C49.2271 19.5076 49.2026 19.624 49.1372 19.8465L50.5891 20.2735ZM50.734 19.6539C50.7397 19.6077 50.745 19.5716 50.7495 19.5444C50.7518 19.5309 50.7536 19.5207 50.7551 19.5134C50.7566 19.5059 50.7574 19.5029 50.7572 19.5035L49.289 19.1365C49.2643 19.2354 49.2466 19.352 49.2323 19.4661L50.734 19.6539ZM49.2664 19.32V24.52H50.7798V19.32H49.2664ZM50.7651 24.3716C50.7581 24.3367 50.7476 24.2686 50.7352 24.1564L49.2311 24.3236C49.2453 24.4514 49.2615 24.5699 49.2811 24.6684L50.7651 24.3716ZM50.7398 24.24C50.7398 24.0175 50.6895 23.7271 50.6225 23.4193L49.1437 23.7407C49.2101 24.0462 49.2264 24.1958 49.2264 24.24H50.7398ZM50.6239 23.4257C50.5486 23.0642 50.4459 22.7314 50.3078 22.4378L48.9385 23.0822C49.0136 23.2419 49.0843 23.4558 49.1424 23.7343L50.6239 23.4257ZM50.3284 22.4857C50.1934 22.1387 49.985 21.8318 49.7182 21.5649L48.6481 22.6351C48.7812 22.7682 48.8662 22.9013 48.9179 23.0343L50.3284 22.4857ZM49.7182 21.5649C49.3858 21.2326 48.9636 21.0433 48.4831 21.0433V22.5567C48.536 22.5567 48.5804 22.5674 48.6481 22.6351L49.7182 21.5649ZM48.4831 21.0433H48.1231V22.5567H48.4831V21.0433ZM47.3664 21.8V28.6H48.8798V21.8H47.3664ZM48.1231 29.3567H49.0031V27.8433H48.1231V29.3567Z" fill="white" mask="url(#path-1-outside-1_1015_1811)"/>
</g>
<defs>
<filter id="filter0_d_1015_1811" x="0.268555" y="0.782959" width="56.459" height="36.217" filterUnits="userSpaceOnUse" color-interpolation-filters="sRGB">
<feFlood flood-opacity="0" result="BackgroundImageFix"/>
<feColorMatrix in="SourceAlpha" type="matrix" values="0 0 0 0 0 0 0 0 0 0 0 0 0 0 0 0 0 0 127 0" result="hardAlpha"/>
<feOffset dy="4"/>
<feGaussianBlur stdDeviation="2"/>
<feComposite in2="hardAlpha" operator="out"/>
<feColorMatrix type="matrix" values="0 0 0 0 0 0 0 0 0 0 0 0 0 0 0 0 0 0 0.25 0"/>
<feBlend mode="normal" in2="BackgroundImageFix" result="effect1_dropShadow_1015_1811"/>
<feBlend mode="normal" in="SourceGraphic" in2="effect1_dropShadow_1015_1811" result="shape"/>
</filter>
</defs>
</svg>
