<svg width="221" height="52" viewBox="0 0 221 52" fill="none" xmlns="http://www.w3.org/2000/svg">
<g filter="url(#filter0_d_924_1875)">
<mask id="path-1-outside-1_924_1875" maskUnits="userSpaceOnUse" x="9" y="-1" width="208" height="39" fill="black">
<rect fill="white" x="9" y="-1" width="208" height="39"/>
<path d="M37.3 32.75C40.05 31 41.6 29.55 43.45 25.85L44.55 26.35C42.05 32.05 36.65 36.4 28.4 36.4C4.75 36.4 4.75 0.549997 28.4 0.549997C36.65 0.549997 42.05 4.95 44.55 10.65L37.15 19.75C37.5 10.25 31.25 1.65 24.95 1.85C7.1 2.4 20.6 43.5 37.3 32.75ZM56.0762 24C58.2762 26.15 59.5762 31 63.8262 28.55L63.9262 36.05C55.8262 36.1 56.4262 25.2 54.4262 24.25V32.75C54.6262 34.65 55.3262 36.05 57.2762 36.05H44.5762C47.0262 36.05 47.5762 33.8 47.4762 31.05V6C47.5762 3.25 47.0262 1.05 44.5762 1.05H54.2262C66.4762 1.05 67.0762 22.1 56.0762 24ZM54.7262 23.05C58.0262 23.05 58.0262 1.8 54.4262 1.8V23.05H54.7262ZM77.1758 35C81.5758 35 83.6758 27 83.6758 27L81.7758 35.95L69.7758 36.05H65.4258C67.8758 36.05 68.4258 33.8 68.3258 31.05L68.4758 26.3L68.3258 5.9C68.4258 3.15 67.8758 1.05 65.4258 1.05H81.0258L81.8758 11C81.8758 10.9 80.3258 1.9 77.4258 1.9H74.9258V16.95H75.8258C79.1758 16.95 79.6758 12 79.6758 11.8V24.85C79.6758 24.85 79.3758 18.05 75.8258 18.05H74.9258V35H77.1758ZM103.518 31.5C103.968 34.1 104.618 35.85 106.768 36.05L93.7676 35.95C97.5676 35.55 96.1176 29.85 95.6676 27.45L88.9676 27.3C88.3176 30.35 87.0176 35.4 90.6176 35.95H83.2676C86.2176 35.45 86.5176 33.15 87.3676 29.25L92.1676 6.5L91.5176 2.05L98.1676 1.05L103.518 31.5ZM89.4676 25.9H95.3676L93.0676 8.95H92.9176L89.4676 25.9ZM106.667 1.05H124.067L125.767 10.6C124.667 7.3 123.967 3.5 119.767 3.5H118.867V33.5C119.317 35 120.217 36.05 121.867 36.05L117.517 35.95L113.517 36.05H109.167C111.617 36.05 112.167 33.8 112.117 31.05L112.167 26.3V3.5H111.017C106.817 3.5 106.067 7.3 105.017 10.6L106.667 1.05ZM135.473 31.05C135.473 33.7 136.223 35.85 138.423 36.05H126.023C128.023 35.85 128.873 34 128.973 31.7V5.35C128.873 3.05 128.023 1.2 126.023 1.05H138.423C136.223 1.2 135.523 3.35 135.473 6V31.05ZM156.46 10.95C157.16 7.2 158.01 1.7 154.76 1.05H162.11C159.16 1.5 158.61 3.8 158.01 7.75L154.26 32.5L154.96 36.05H147.91L141.16 5.55C140.61 2.95 139.41 1.2 137.31 0.999998L149.61 1.05C147.36 1.05 147.91 3.95 148.61 8.1L153.51 30.75L156.46 10.95ZM170.775 31.05C170.775 33.7 171.525 35.85 173.725 36.05H161.325C163.325 35.85 164.175 34 164.275 31.7V5.35C164.175 3.05 163.325 1.2 161.325 1.05H173.725C171.525 1.2 170.825 3.35 170.775 6V31.05ZM175.613 1.05H193.013L194.713 10.6C193.613 7.3 192.913 3.5 188.713 3.5H187.813V33.5C188.263 35 189.163 36.05 190.813 36.05L186.463 35.95L182.463 36.05H178.113C180.563 36.05 181.113 33.8 181.063 31.05L181.113 26.3V3.5H179.963C175.763 3.5 175.013 7.3 173.962 10.6L175.613 1.05ZM211.018 5.3C211.468 2.95 211.218 1.05 208.968 1.05H216.168C214.168 1.05 212.918 3.05 212.068 5.85L207.518 24.9L207.668 31.05C207.668 33.8 208.468 36 210.968 36.05C210.968 36.05 210.968 36.05 210.918 36.05H202.618H198.218C200.668 36.05 201.218 33.8 201.168 31.05L201.368 24.85L197.168 5.3C196.268 2.8 195.068 1.05 193.218 1.05H205.268C202.468 1.05 202.968 4.1 203.318 5.9C203.318 5.95 203.318 5.95 203.368 6L206.918 23.05L211.018 5.3Z"/>
</mask>
<path d="M37.3 32.75C40.05 31 41.6 29.55 43.45 25.85L44.55 26.35C42.05 32.05 36.65 36.4 28.4 36.4C4.75 36.4 4.75 0.549997 28.4 0.549997C36.65 0.549997 42.05 4.95 44.55 10.65L37.15 19.75C37.5 10.25 31.25 1.65 24.95 1.85C7.1 2.4 20.6 43.5 37.3 32.75ZM56.0762 24C58.2762 26.15 59.5762 31 63.8262 28.55L63.9262 36.05C55.8262 36.1 56.4262 25.2 54.4262 24.25V32.75C54.6262 34.65 55.3262 36.05 57.2762 36.05H44.5762C47.0262 36.05 47.5762 33.8 47.4762 31.05V6C47.5762 3.25 47.0262 1.05 44.5762 1.05H54.2262C66.4762 1.05 67.0762 22.1 56.0762 24ZM54.7262 23.05C58.0262 23.05 58.0262 1.8 54.4262 1.8V23.05H54.7262ZM77.1758 35C81.5758 35 83.6758 27 83.6758 27L81.7758 35.95L69.7758 36.05H65.4258C67.8758 36.05 68.4258 33.8 68.3258 31.05L68.4758 26.3L68.3258 5.9C68.4258 3.15 67.8758 1.05 65.4258 1.05H81.0258L81.8758 11C81.8758 10.9 80.3258 1.9 77.4258 1.9H74.9258V16.95H75.8258C79.1758 16.95 79.6758 12 79.6758 11.8V24.85C79.6758 24.85 79.3758 18.05 75.8258 18.05H74.9258V35H77.1758ZM103.518 31.5C103.968 34.1 104.618 35.85 106.768 36.05L93.7676 35.95C97.5676 35.55 96.1176 29.85 95.6676 27.45L88.9676 27.3C88.3176 30.35 87.0176 35.4 90.6176 35.95H83.2676C86.2176 35.45 86.5176 33.15 87.3676 29.25L92.1676 6.5L91.5176 2.05L98.1676 1.05L103.518 31.5ZM89.4676 25.9H95.3676L93.0676 8.95H92.9176L89.4676 25.9ZM106.667 1.05H124.067L125.767 10.6C124.667 7.3 123.967 3.5 119.767 3.5H118.867V33.5C119.317 35 120.217 36.05 121.867 36.05L117.517 35.95L113.517 36.05H109.167C111.617 36.05 112.167 33.8 112.117 31.05L112.167 26.3V3.5H111.017C106.817 3.5 106.067 7.3 105.017 10.6L106.667 1.05ZM135.473 31.05C135.473 33.7 136.223 35.85 138.423 36.05H126.023C128.023 35.85 128.873 34 128.973 31.7V5.35C128.873 3.05 128.023 1.2 126.023 1.05H138.423C136.223 1.2 135.523 3.35 135.473 6V31.05ZM156.46 10.95C157.16 7.2 158.01 1.7 154.76 1.05H162.11C159.16 1.5 158.61 3.8 158.01 7.75L154.26 32.5L154.96 36.05H147.91L141.16 5.55C140.61 2.95 139.41 1.2 137.31 0.999998L149.61 1.05C147.36 1.05 147.91 3.95 148.61 8.1L153.51 30.75L156.46 10.95ZM170.775 31.05C170.775 33.7 171.525 35.85 173.725 36.05H161.325C163.325 35.85 164.175 34 164.275 31.7V5.35C164.175 3.05 163.325 1.2 161.325 1.05H173.725C171.525 1.2 170.825 3.35 170.775 6V31.05ZM175.613 1.05H193.013L194.713 10.6C193.613 7.3 192.913 3.5 188.713 3.5H187.813V33.5C188.263 35 189.163 36.05 190.813 36.05L186.463 35.95L182.463 36.05H178.113C180.563 36.05 181.113 33.8 181.063 31.05L181.113 26.3V3.5H179.963C175.763 3.5 175.013 7.3 173.962 10.6L175.613 1.05ZM211.018 5.3C211.468 2.95 211.218 1.05 208.968 1.05H216.168C214.168 1.05 212.918 3.05 212.068 5.85L207.518 24.9L207.668 31.05C207.668 33.8 208.468 36 210.968 36.05C210.968 36.05 210.968 36.05 210.918 36.05H202.618H198.218C200.668 36.05 201.218 33.8 201.168 31.05L201.368 24.85L197.168 5.3C196.268 2.8 195.068 1.05 193.218 1.05H205.268C202.468 1.05 202.968 4.1 203.318 5.9C203.318 5.95 203.318 5.95 203.368 6L206.918 23.05L211.018 5.3Z" fill="#D7A129"/>
<path d="M37.3 32.75L36.8938 32.1116L36.8904 32.1137L37.3 32.75ZM43.45 25.85L43.7631 25.1611L43.0993 24.8594L42.7732 25.5116L43.45 25.85ZM44.55 26.35L45.243 26.6539L45.5429 25.9701L44.8631 25.6611L44.55 26.35ZM44.55 10.65L45.1371 11.1274L45.4285 10.769L45.243 10.3461L44.55 10.65ZM37.15 19.75L36.3938 19.7221L36.3106 21.9816L37.7371 20.2274L37.15 19.75ZM24.95 1.85L24.9733 2.60632L24.974 2.6063L24.95 1.85ZM37.7062 33.3884C39.1064 32.4974 40.2429 31.6567 41.2688 30.5442C42.2944 29.432 43.1817 28.0785 44.1268 26.1884L42.7732 25.5116C41.8683 27.3215 41.0556 28.543 40.1562 29.5183C39.2571 30.4933 38.2436 31.2526 36.8938 32.1116L37.7062 33.3884ZM43.1369 26.5389L44.2369 27.0389L44.8631 25.6611L43.7631 25.1611L43.1369 26.5389ZM43.857 26.0461C41.4726 31.4825 36.3373 35.6433 28.4 35.6433V37.1567C36.9627 37.1567 42.6274 32.6175 45.243 26.6539L43.857 26.0461ZM28.4 35.6433C22.6956 35.6433 18.4715 33.4894 15.665 30.2987C12.8458 27.0935 11.4192 22.7972 11.4192 18.475C11.4192 14.1528 12.8458 9.85652 15.665 6.65131C18.4715 3.46062 22.6956 1.30668 28.4 1.30668V-0.206681C22.2794 -0.206681 17.6347 2.12063 14.5287 5.65181C11.4355 9.16847 9.90582 13.8347 9.90582 18.475C9.90582 23.1153 11.4355 27.7815 14.5287 31.2982C17.6347 34.8294 22.2794 37.1567 28.4 37.1567V35.6433ZM28.4 1.30668C36.3335 1.30668 41.4711 5.51391 43.857 10.9539L45.243 10.3461C42.6289 4.38609 36.9665 -0.206681 28.4 -0.206681V1.30668ZM43.9629 10.1726L36.5629 19.2726L37.7371 20.2274L45.1371 11.1274L43.9629 10.1726ZM37.9062 19.7779C38.0873 14.8607 36.563 10.1747 34.1647 6.73015C31.7822 3.30806 28.4341 0.982331 24.926 1.0937L24.974 2.6063C27.7659 2.51767 30.6928 4.39193 32.9228 7.59485C35.137 10.7753 36.5627 15.1393 36.3938 19.7221L37.9062 19.7779ZM24.9267 1.09368C22.54 1.16722 20.6234 1.924 19.1695 3.20974C17.7238 4.48829 16.7883 6.24276 16.2687 8.23049C15.2342 12.1876 15.8087 17.2033 17.4566 21.7932C19.1048 26.384 21.8756 30.6844 25.379 33.1529C27.1392 34.3932 29.1021 35.1824 31.2049 35.287C33.3132 35.3918 35.5051 34.8053 37.7096 33.3863L36.8904 32.1137C34.9199 33.3822 33.0368 33.8629 31.2801 33.7755C29.5179 33.6879 27.8257 33.0256 26.2507 31.9158C23.0838 29.6844 20.4639 25.691 18.8809 21.2818C17.2976 16.8717 16.8001 12.1811 17.7329 8.61325C18.1968 6.83849 19.0047 5.37577 20.1721 4.34338C21.3313 3.31819 22.8975 2.67028 24.9733 2.60632L24.9267 1.09368ZM56.0762 24L55.9474 23.2544L54.4884 23.5064L55.5473 24.5412L56.0762 24ZM63.8262 28.55L64.5828 28.5399L64.5656 27.2503L63.4483 27.8944L63.8262 28.55ZM63.9262 36.05L63.9308 36.8067L64.6929 36.802L64.6828 36.0399L63.9262 36.05ZM54.4262 24.25L54.7508 23.5665L53.6695 23.0529V24.25H54.4262ZM54.4262 32.75H53.6695V32.7897L53.6737 32.8292L54.4262 32.75ZM47.4762 31.05H46.7195V31.0638L46.72 31.0775L47.4762 31.05ZM47.4762 6L46.72 5.9725L46.7195 5.98625V6H47.4762ZM54.4262 1.8V1.04332H53.6695V1.8H54.4262ZM54.4262 23.05H53.6695V23.8067H54.4262V23.05ZM55.5473 24.5412C56.0361 25.0188 56.4892 25.662 56.9955 26.3932C57.4832 27.0976 58.0208 27.8845 58.6373 28.5248C59.2597 29.1713 60.0222 29.7338 60.9899 29.9183C61.9694 30.1051 63.0321 29.8811 64.2041 29.2056L63.4483 27.8944C62.4952 28.4439 61.8017 28.5324 61.2734 28.4317C60.7332 28.3287 60.2364 28.0037 59.7275 27.4752C59.2128 26.9405 58.7473 26.2649 58.2397 25.5318C57.7507 24.8255 57.2163 24.0562 56.605 23.4588L55.5473 24.5412ZM63.0696 28.5601L63.1696 36.0601L64.6828 36.0399L64.5828 28.5399L63.0696 28.5601ZM63.9215 35.2933C62.0877 35.3047 60.7919 34.7041 59.8195 33.8053C58.8258 32.8869 58.1307 31.62 57.5931 30.2488C57.0512 28.8665 56.7049 27.4827 56.3391 26.2812C56.162 25.6995 55.9752 25.1459 55.7557 24.6985C55.5485 24.2764 55.2435 23.8005 54.7508 23.5665L54.1015 24.9335C54.0966 24.9311 54.1273 24.9444 54.1866 25.0173C54.2461 25.0904 54.3171 25.2022 54.3971 25.3652C54.5592 25.6955 54.7169 26.149 54.8914 26.722C55.2287 27.8298 55.6137 29.346 56.1842 30.8012C56.7591 32.2675 57.5578 33.7756 58.7923 34.9166C60.0479 36.0772 61.7147 36.8203 63.9308 36.8067L63.9215 35.2933ZM53.6695 24.25V32.75H55.1828V24.25H53.6695ZM53.6737 32.8292C53.7789 33.8292 54.0242 34.818 54.5911 35.5686C55.1933 36.3658 56.0907 36.8067 57.2762 36.8067V35.2933C56.5117 35.2933 56.0841 35.0342 55.7987 34.6564C55.4782 34.232 55.2734 33.5708 55.1787 32.6708L53.6737 32.8292ZM57.2762 35.2933H44.5762V36.8067H57.2762V35.2933ZM44.5762 36.8067C45.3079 36.8067 45.9496 36.6372 46.4865 36.2918C47.0221 35.9471 47.4023 35.4599 47.6657 34.9064C48.1784 33.8289 48.2834 32.4257 48.2323 31.0225L46.72 31.0775C46.769 32.4243 46.6489 33.5211 46.2992 34.2561C46.1313 34.6088 45.9209 34.8561 45.6675 35.0192C45.4152 35.1815 45.0695 35.2933 44.5762 35.2933V36.8067ZM48.2328 31.05V6H46.7195V31.05H48.2328ZM48.2323 6.0275C48.2833 4.62514 48.1788 3.23201 47.6639 2.16492C47.3991 1.61601 47.0172 1.13566 46.4811 0.796983C45.9446 0.458116 45.3047 0.293318 44.5762 0.293318V1.80668C45.0726 1.80668 45.4202 1.91688 45.6728 2.07645C45.9258 2.23621 46.1345 2.47774 46.3009 2.82258C46.6485 3.54299 46.769 4.62486 46.72 5.9725L48.2323 6.0275ZM44.5762 1.80668H54.2262V0.293318H44.5762V1.80668ZM54.2262 1.80668C57.0445 1.80668 59.167 3.00635 60.6399 4.84225C62.1282 6.69748 62.9681 9.22701 63.1144 11.8546C63.4112 17.1843 60.8903 22.4006 55.9474 23.2544L56.205 24.7456C62.262 23.6994 64.9412 17.4407 64.6254 11.7704C64.4655 8.89799 63.546 6.04626 61.8203 3.89524C60.0791 1.7249 57.5329 0.293318 54.2262 0.293318V1.80668ZM54.7262 23.8067C55.59 23.8067 56.1437 23.1185 56.4766 22.492C56.8352 21.8171 57.1095 20.9052 57.319 19.8814C57.7409 17.8204 57.9393 15.1076 57.9203 12.4197C57.9014 9.73241 57.6648 7.01673 57.1936 4.95194C56.9594 3.92602 56.6563 3.01018 56.262 2.33254C55.8851 1.68464 55.2941 1.04332 54.4262 1.04332V2.55668C54.4582 2.55668 54.6548 2.57942 54.954 3.09363C55.2359 3.5781 55.4976 4.32241 55.7182 5.28868C56.1563 7.20827 56.3885 9.80509 56.407 12.4303C56.4255 15.0549 56.2301 17.6546 55.8364 19.5779C55.6382 20.5464 55.3991 21.2946 55.1402 21.7818C55.0111 22.0248 54.8964 22.1655 54.8119 22.2384C54.7722 22.2727 54.7462 22.2858 54.7353 22.2904C54.7299 22.2926 54.7272 22.2932 54.7269 22.2933C54.7266 22.2933 54.7266 22.2933 54.7262 22.2933V23.8067ZM53.6695 1.8V23.05H55.1828V1.8H53.6695ZM54.4262 23.8067H54.7262V22.2933H54.4262V23.8067ZM83.6758 27L84.416 27.1571L82.9439 26.8079L83.6758 27ZM81.7758 35.95L81.7821 36.7067L82.3898 36.7016L82.516 36.1071L81.7758 35.95ZM69.7758 36.05L69.7758 36.8067L69.7821 36.8067L69.7758 36.05ZM68.3258 31.05L67.5695 31.0261L67.5687 31.0518L67.5696 31.0775L68.3258 31.05ZM68.4758 26.3L69.2321 26.3239L69.2325 26.3092L69.2324 26.2944L68.4758 26.3ZM68.3258 5.9L67.5696 5.8725L67.569 5.88902L67.5691 5.90556L68.3258 5.9ZM81.0258 1.05L81.7797 0.985591L81.7206 0.293318H81.0258V1.05ZM81.8758 11L81.1218 11.0644L82.6325 11H81.8758ZM74.9258 1.9V1.14332H74.1691V1.9H74.9258ZM74.9258 16.95H74.1691V17.7067H74.9258V16.95ZM79.6758 24.85L78.9198 24.8834L80.4325 24.85H79.6758ZM74.9258 18.05V17.2933H74.1691V18.05H74.9258ZM74.9258 35H74.1691V35.7567H74.9258V35ZM77.1758 35.7567C78.5227 35.7567 79.6533 35.1406 80.5598 34.307C81.4616 33.4777 82.1839 32.3971 82.7423 31.3582C83.3037 30.3138 83.7184 29.2757 83.9922 28.5026C84.1295 28.1149 84.2324 27.7909 84.3014 27.5624C84.3359 27.448 84.3619 27.3574 84.3796 27.2944C84.3885 27.2629 84.3952 27.2383 84.3999 27.2211C84.4022 27.2125 84.404 27.2058 84.4053 27.2009C84.406 27.1985 84.4065 27.1965 84.4069 27.1951C84.4071 27.1943 84.4072 27.1937 84.4074 27.1932C84.4074 27.193 84.4075 27.1927 84.4075 27.1926C84.4076 27.1923 84.4077 27.1921 83.6758 27C82.9439 26.8079 82.9439 26.8077 82.944 26.8076C82.944 26.8076 82.944 26.8075 82.944 26.8075C82.944 26.8075 82.944 26.8076 82.9439 26.8079C82.9438 26.8083 82.9435 26.8093 82.9431 26.8107C82.9424 26.8135 82.9411 26.8182 82.9394 26.8248C82.9358 26.8378 82.9302 26.8582 82.9226 26.8853C82.9074 26.9395 82.8841 27.0207 82.8525 27.1251C82.7895 27.3341 82.6939 27.6351 82.5656 27.9974C82.3082 28.7243 81.9229 29.6862 81.4093 30.6418C80.8927 31.6029 80.2649 32.5223 79.5355 33.193C78.8108 33.8594 78.0289 34.2433 77.1758 34.2433V35.7567ZM82.9356 26.8429L81.0356 35.7929L82.516 36.1071L84.416 27.1571L82.9356 26.8429ZM81.7695 35.1933L69.7695 35.2933L69.7821 36.8067L81.7821 36.7067L81.7695 35.1933ZM69.7758 35.2933H65.4258V36.8067H69.7758V35.2933ZM65.4258 36.8067C66.1575 36.8067 66.7992 36.6372 67.3361 36.2918C67.8717 35.9471 68.2519 35.4599 68.5153 34.9064C69.028 33.8289 69.133 32.4257 69.082 31.0225L67.5696 31.0775C67.6186 32.4243 67.4985 33.5211 67.1488 34.2561C66.9809 34.6088 66.7705 34.8561 66.5171 35.0192C66.2648 35.1815 65.9191 35.2933 65.4258 35.2933V36.8067ZM69.0821 31.0739L69.2321 26.3239L67.7195 26.2761L67.5695 31.0261L69.0821 31.0739ZM69.2324 26.2944L69.0824 5.89443L67.5691 5.90556L67.7191 26.3056L69.2324 26.2944ZM69.082 5.92749C69.1329 4.527 69.0292 3.15364 68.5098 2.1073C68.2419 1.5676 67.8566 1.10097 67.3196 0.774515C66.7841 0.448974 66.148 0.293318 65.4258 0.293318V1.80668C65.9286 1.80668 66.2799 1.91352 66.5335 2.06767C66.7856 2.2209 66.9909 2.45115 67.1543 2.78019C67.4974 3.47135 67.6187 4.523 67.5696 5.8725L69.082 5.92749ZM65.4258 1.80668H81.0258V0.293318H65.4258V1.80668ZM80.2719 1.1144L81.1218 11.0644L82.6297 10.9356L81.7797 0.985591L80.2719 1.1144ZM82.6325 11C82.6325 10.957 82.6285 10.9217 82.6283 10.9195C82.6271 10.9081 82.6259 10.8982 82.6251 10.8917C82.6233 10.8783 82.6213 10.8644 82.6194 10.8519C82.6155 10.8261 82.6102 10.7934 82.6038 10.7553C82.5908 10.6785 82.5719 10.5721 82.5472 10.4405C82.4977 10.1772 82.4242 9.8093 82.3269 9.37179C82.1329 8.49867 81.8422 7.33781 81.4565 6.17441C81.074 5.02036 80.5839 3.81995 79.9777 2.8935C79.4 2.01061 78.562 1.14332 77.4258 1.14332V2.65668C77.7395 2.65668 78.1828 2.91438 78.7114 3.72212C79.2114 4.4863 79.6526 5.54213 80.02 6.65059C80.3844 7.74968 80.6624 8.85758 80.8496 9.70008C80.943 10.1204 81.0132 10.472 81.0599 10.72C81.0832 10.8442 81.1004 10.9413 81.1116 11.0073C81.1172 11.0407 81.1209 11.0642 81.1231 11.0783C81.1242 11.0858 81.1245 11.0878 81.1242 11.086C81.1241 11.0854 81.1235 11.0803 81.1227 11.0726C81.1223 11.0688 81.1216 11.0616 81.121 11.0524C81.1205 11.0456 81.1191 11.0257 81.1191 11H82.6325ZM77.4258 1.14332H74.9258V2.65668H77.4258V1.14332ZM74.1691 1.9V16.95H75.6825V1.9H74.1691ZM74.9258 17.7067H75.8258V16.1933H74.9258V17.7067ZM75.8258 17.7067C77.9646 17.7067 79.1193 16.1022 79.702 14.7493C80.0008 14.0556 80.1811 13.3642 80.2871 12.8386C80.3891 12.3323 80.4325 11.9265 80.4325 11.8H78.9191C78.9191 11.7735 78.8999 12.0614 78.8036 12.5395C78.7111 12.9983 78.557 13.5819 78.3121 14.1507C77.8072 15.3228 77.037 16.1933 75.8258 16.1933V17.7067ZM78.9191 11.8V24.85H80.4325V11.8H78.9191ZM79.6758 24.85C80.4317 24.8166 80.4317 24.8164 80.4317 24.8162C80.4317 24.8161 80.4317 24.8158 80.4317 24.8156C80.4317 24.8151 80.4316 24.8145 80.4316 24.8139C80.4315 24.8125 80.4315 24.8108 80.4314 24.8086C80.4311 24.8043 80.4308 24.7983 80.4305 24.7908C80.4297 24.7757 80.4285 24.7544 80.4268 24.7272C80.4234 24.6727 80.4181 24.5947 80.4101 24.4964C80.3942 24.3 80.3673 24.0219 80.3237 23.6891C80.2368 23.0268 80.0814 22.1325 79.8058 21.2292C79.5329 20.335 79.1262 19.3775 78.508 18.6302C77.8751 17.865 76.9925 17.2933 75.8258 17.2933V18.8067C76.4341 18.8067 76.9202 19.085 77.3419 19.5948C77.7785 20.1225 78.1124 20.865 78.3583 21.6708C78.6014 22.4675 78.7429 23.2732 78.8232 23.8859C78.8631 24.1906 78.8875 24.4437 78.9018 24.6192C78.9089 24.7069 78.9135 24.7749 78.9163 24.8201C78.9177 24.8427 78.9186 24.8595 78.9192 24.8702C78.9195 24.8755 78.9196 24.8793 78.9198 24.8815C78.9198 24.8827 78.9198 24.8834 78.9199 24.8837C78.9199 24.8838 78.9199 24.8839 78.9199 24.8838C78.9199 24.8838 78.9199 24.8837 78.9199 24.8837C78.9198 24.8835 78.9198 24.8834 79.6758 24.85ZM75.8258 17.2933H74.9258V18.8067H75.8258V17.2933ZM74.1691 18.05V35H75.6825V18.05H74.1691ZM74.9258 35.7567H77.1758V34.2433H74.9258V35.7567ZM103.518 31.5L104.263 31.371L104.263 31.3691L103.518 31.5ZM106.768 36.05L106.762 36.8067L106.838 35.2966L106.768 36.05ZM93.7676 35.95L93.6884 35.1975L93.7618 36.7067L93.7676 35.95ZM95.6676 27.45L96.4113 27.3106L96.2982 26.7072L95.6845 26.6935L95.6676 27.45ZM88.9676 27.3L88.9845 26.5435L88.3581 26.5295L88.2275 27.1423L88.9676 27.3ZM90.6176 35.95V36.7067L90.7319 35.202L90.6176 35.95ZM83.2676 35.95L83.1411 35.204L83.2676 36.7067V35.95ZM87.3676 29.25L88.1069 29.4111L88.108 29.4062L87.3676 29.25ZM92.1676 6.5L92.908 6.65621L92.9358 6.52417L92.9163 6.39063L92.1676 6.5ZM91.5176 2.05L91.4051 1.30173L90.6599 1.41378L90.7688 2.15936L91.5176 2.05ZM98.1676 1.05L98.9128 0.919056L98.7851 0.191952L98.0551 0.301731L98.1676 1.05ZM89.4676 25.9L88.7261 25.7491L88.5414 26.6567H89.4676V25.9ZM95.3676 25.9V26.6567H96.2339L96.1174 25.7983L95.3676 25.9ZM93.0676 8.95L93.8174 8.84826L93.7285 8.19332H93.0676V8.95ZM92.9176 8.95V8.19332H92.2994L92.1761 8.79908L92.9176 8.95ZM102.772 31.629C102.998 32.9341 103.291 34.1507 103.862 35.0733C104.47 36.0561 105.379 36.6808 106.697 36.8034L106.838 35.2966C106.006 35.2192 105.515 34.8689 105.148 34.2767C104.745 33.6243 104.487 32.6659 104.263 31.371L102.772 31.629ZM106.773 35.2933L93.7734 35.1933L93.7618 36.7067L106.762 36.8067L106.773 35.2933ZM93.8468 36.7025C95.0201 36.579 95.8538 36.0241 96.3731 35.1908C96.8663 34.3993 97.0377 33.4195 97.0676 32.474C97.1273 30.5926 96.6256 28.4535 96.4113 27.3106L94.9239 27.5894C95.1596 28.8465 95.6079 30.7574 95.555 32.426C95.5287 33.2555 95.3783 33.9257 95.0887 34.3904C94.8251 34.8134 94.415 35.121 93.6884 35.1975L93.8468 36.7025ZM95.6845 26.6935L88.9845 26.5435L88.9506 28.0565L95.6506 28.2065L95.6845 26.6935ZM88.2275 27.1423C87.9122 28.6217 87.3958 30.7567 87.4424 32.5818C87.4659 33.5012 87.6316 34.4346 88.108 35.1965C88.6067 35.9939 89.4 36.5294 90.5033 36.698L90.7319 35.202C90.0352 35.0956 89.641 34.7936 89.3912 34.3941C89.1192 33.9591 88.9755 33.3363 88.9553 32.5432C88.9144 30.9433 89.3729 29.0283 89.7076 27.4577L88.2275 27.1423ZM90.6176 35.1933H83.2676V36.7067H90.6176V35.1933ZM83.394 36.696C84.2261 36.555 84.9187 36.2782 85.4912 35.843C86.0633 35.408 86.4716 34.8481 86.7849 34.2073C87.3865 32.9767 87.6952 31.3 88.1069 29.4111L86.6283 29.0889C86.1899 31.1 85.9237 32.5233 85.4253 33.5427C85.1885 34.0269 84.9156 34.3795 84.5752 34.6383C84.2352 34.8968 83.784 35.095 83.1411 35.204L83.394 36.696ZM88.108 29.4062L92.908 6.65621L91.4272 6.34379L86.6272 29.0938L88.108 29.4062ZM92.9163 6.39063L92.2663 1.94063L90.7688 2.15936L91.4188 6.60936L92.9163 6.39063ZM91.6301 2.79826L98.2801 1.79826L98.0551 0.301731L91.4051 1.30173L91.6301 2.79826ZM97.4223 1.18094L102.772 31.6309L104.263 31.3691L98.9128 0.919056L97.4223 1.18094ZM89.4676 26.6567H95.3676V25.1433H89.4676V26.6567ZM96.1174 25.7983L93.8174 8.84826L92.3178 9.05174L94.6178 26.0017L96.1174 25.7983ZM93.0676 8.19332H92.9176V9.70668H93.0676V8.19332ZM92.1761 8.79908L88.7261 25.7491L90.2091 26.0509L93.6591 9.10092L92.1761 8.79908ZM106.667 1.05V0.293318H106.03L105.922 0.921171L106.667 1.05ZM124.067 1.05L124.812 0.917385L124.701 0.293318H124.067V1.05ZM125.767 10.6L125.049 10.8393L126.512 10.4674L125.767 10.6ZM118.867 3.5V2.74332H118.111V3.5H118.867ZM118.867 33.5H118.111V33.6111L118.142 33.7174L118.867 33.5ZM121.867 36.05V36.8067L121.885 35.2935L121.867 36.05ZM117.517 35.95L117.535 35.1935L117.516 35.1931L117.498 35.1936L117.517 35.95ZM113.517 36.05V36.8067H113.527L113.536 36.8064L113.517 36.05ZM112.117 31.05L111.361 31.042L111.36 31.0529L111.361 31.0638L112.117 31.05ZM112.167 26.3L112.924 26.308V26.3H112.167ZM112.167 3.5H112.924V2.74332H112.167V3.5ZM105.017 10.6L104.272 10.4712L105.738 10.8294L105.017 10.6ZM106.667 1.80668H124.067V0.293318H106.667V1.80668ZM123.322 1.18261L125.022 10.7326L126.512 10.4674L124.812 0.917385L123.322 1.18261ZM126.485 10.3607C125.963 8.79561 125.472 6.87707 124.574 5.41626C124.111 4.6618 123.516 3.98394 122.714 3.49806C121.907 3.00962 120.937 2.74332 119.767 2.74332V4.25668C120.698 4.25668 121.39 4.46538 121.93 4.79256C122.474 5.1223 122.911 5.6007 123.285 6.20874C124.062 7.47293 124.471 9.10439 125.049 10.8393L126.485 10.3607ZM119.767 2.74332H118.867V4.25668H119.767V2.74332ZM118.111 3.5V33.5H119.624V3.5H118.111ZM118.142 33.7174C118.391 34.5455 118.784 35.3209 119.404 35.8935C120.041 36.4815 120.866 36.8067 121.867 36.8067V35.2933C121.219 35.2933 120.768 35.0935 120.43 34.7815C120.076 34.4541 119.794 33.9545 119.592 33.2826L118.142 33.7174ZM121.885 35.2935L117.535 35.1935L117.5 36.7065L121.85 36.8065L121.885 35.2935ZM117.498 35.1936L113.498 35.2936L113.536 36.8064L117.536 36.7064L117.498 35.1936ZM113.517 35.2933H109.167V36.8067H113.517V35.2933ZM109.167 36.8067C109.899 36.8067 110.54 36.6372 111.078 36.2921C111.613 35.948 111.995 35.462 112.261 34.9102C112.78 33.8363 112.899 32.4356 112.874 31.0362L111.361 31.0638C111.385 32.4144 111.255 33.5137 110.898 34.2523C110.727 34.6067 110.515 34.8551 110.26 35.0188C110.006 35.1816 109.66 35.2933 109.167 35.2933V36.8067ZM112.874 31.058L112.924 26.308L111.411 26.292L111.361 31.042L112.874 31.058ZM112.924 26.3V3.5H111.411V26.3H112.924ZM112.167 2.74332H111.017V4.25668H112.167V2.74332ZM111.017 2.74332C109.848 2.74332 108.875 3.00958 108.065 3.49706C107.26 3.98209 106.66 4.65908 106.193 5.41412C105.284 6.88067 104.798 8.7943 104.296 10.3706L105.738 10.8294C106.287 9.1057 106.7 7.46933 107.479 6.21088C107.855 5.60342 108.297 5.12416 108.846 4.79356C109.391 4.46542 110.087 4.25668 111.017 4.25668V2.74332ZM105.763 10.7288L107.413 1.17882L105.922 0.921171L104.272 10.4712L105.763 10.7288ZM138.423 36.05V36.8067L138.491 35.2964L138.423 36.05ZM126.023 36.05L125.947 35.2971L126.023 36.8067V36.05ZM128.973 31.7L129.729 31.7329L129.729 31.7164V31.7H128.973ZM128.973 5.35H129.729V5.33356L129.729 5.31713L128.973 5.35ZM126.023 1.05V0.293318L125.966 1.80456L126.023 1.05ZM138.423 1.05L138.474 1.80492L138.423 0.293318V1.05ZM135.473 6L134.716 5.98572L134.716 5.99286V6H135.473ZM134.716 31.05C134.716 32.4269 134.908 33.7672 135.451 34.8165C136.017 35.9102 136.966 36.6773 138.354 36.8036L138.491 35.2964C137.68 35.2227 137.154 34.8148 136.795 34.121C136.413 33.3828 136.229 32.3231 136.229 31.05H134.716ZM138.423 35.2933H126.023V36.8067H138.423V35.2933ZM126.098 36.8029C127.355 36.6772 128.269 36.0153 128.855 35.0579C129.423 34.1321 129.676 32.952 129.729 31.7329L128.217 31.6671C128.17 32.748 127.948 33.6429 127.565 34.2671C127.202 34.8597 126.69 35.2228 125.947 35.2971L126.098 36.8029ZM129.729 31.7V5.35H128.216V31.7H129.729ZM129.729 5.31713C129.676 4.09884 129.423 2.91708 128.854 1.99601C128.264 1.04106 127.343 0.390231 126.079 0.295438L125.966 1.80456C126.702 1.85976 127.206 2.20893 127.566 2.79149C127.947 3.40792 128.17 4.30115 128.217 5.38287L129.729 5.31713ZM126.023 1.80668H138.423V0.293318H126.023V1.80668ZM138.371 0.295071C136.972 0.390446 136.029 1.15056 135.468 2.24154C134.934 3.2821 134.742 4.61969 134.716 5.98572L136.229 6.01427C136.253 4.73031 136.437 3.6679 136.814 2.93346C137.166 2.24944 137.673 1.85955 138.474 1.80492L138.371 0.295071ZM134.716 6V31.05H136.229V6H134.716ZM156.46 10.95L155.716 10.8111L155.713 10.8248L155.711 10.8385L156.46 10.95ZM154.76 1.05V0.293318L154.611 1.79198L154.76 1.05ZM162.11 1.05L162.224 1.79802L162.11 0.293318V1.05ZM158.01 7.75L157.262 7.63636L157.262 7.63665L158.01 7.75ZM154.26 32.5L153.512 32.3866L153.492 32.517L153.517 32.6464L154.26 32.5ZM154.96 36.05V36.8067H155.88L155.702 35.9036L154.96 36.05ZM147.91 36.05L147.171 36.2135L147.302 36.8067H147.91V36.05ZM141.16 5.55L140.419 5.70661L140.421 5.7135L141.16 5.55ZM137.31 0.999998L137.313 0.243325L137.238 1.75327L137.31 0.999998ZM149.61 1.05V1.80668L149.613 0.293324L149.61 1.05ZM148.61 8.1L147.864 8.22585L147.867 8.243L147.87 8.25999L148.61 8.1ZM153.51 30.75L152.77 30.91L154.258 30.8615L153.51 30.75ZM157.204 11.0888C157.552 9.22273 157.959 6.82461 157.847 4.7958C157.791 3.78121 157.602 2.7864 157.158 1.97885C156.696 1.14012 155.963 0.519001 154.908 0.308012L154.611 1.79198C155.181 1.90599 155.561 2.21612 155.832 2.70864C156.12 3.23234 156.285 3.96878 156.335 4.8792C156.436 6.70038 156.068 8.92727 155.716 10.8111L157.204 11.0888ZM154.76 1.80668H162.11V0.293318H154.76V1.80668ZM161.996 0.301971C161.165 0.428737 160.459 0.693074 159.868 1.11599C159.277 1.53944 158.84 2.09328 158.506 2.74017C157.858 3.99517 157.558 5.68635 157.262 7.63636L158.758 7.86364C159.062 5.86364 159.337 4.42983 159.851 3.43483C160.098 2.95672 160.389 2.60431 160.749 2.3465C161.11 2.08817 161.58 1.89626 162.224 1.79802L161.996 0.301971ZM157.262 7.63665L153.512 32.3866L155.008 32.6134L158.758 7.86335L157.262 7.63665ZM153.517 32.6464L154.217 36.1964L155.702 35.9036L155.002 32.3536L153.517 32.6464ZM154.96 35.2933H147.91V36.8067H154.96V35.2933ZM148.649 35.8865L141.899 5.38649L140.421 5.7135L147.171 36.2135L148.649 35.8865ZM141.9 5.3934C141.329 2.69572 139.994 0.495525 137.382 0.246727L137.238 1.75327C138.826 1.90447 139.89 3.20427 140.419 5.7066L141.9 5.3934ZM137.307 1.75667L149.607 1.80667L149.613 0.293324L137.313 0.243325L137.307 1.75667ZM149.61 0.293318C148.867 0.293318 148.23 0.544651 147.802 1.11239C147.41 1.63151 147.278 2.30915 147.248 2.98456C147.187 4.33028 147.521 6.19513 147.864 8.22585L149.356 7.97414C148.998 5.85486 148.708 4.19471 148.759 3.05293C148.785 2.48459 148.894 2.17786 149.01 2.02354C149.09 1.91784 149.228 1.80668 149.61 1.80668V0.293318ZM147.87 8.25999L152.77 30.91L154.249 30.59L149.349 7.94L147.87 8.25999ZM154.258 30.8615L157.208 11.0615L155.711 10.8385L152.761 30.6385L154.258 30.8615ZM173.725 36.05V36.8067L173.794 35.2964L173.725 36.05ZM161.325 36.05L161.25 35.2971L161.325 36.8067V36.05ZM164.275 31.7L165.031 31.7329L165.032 31.7164V31.7H164.275ZM164.275 5.35H165.032V5.33356L165.031 5.31713L164.275 5.35ZM161.325 1.05V0.293318L161.269 1.80456L161.325 1.05ZM173.725 1.05L173.777 1.80492L173.725 0.293318V1.05ZM170.775 6L170.019 5.98572L170.019 5.99286V6H170.775ZM170.019 31.05C170.019 32.4269 170.21 33.7672 170.753 34.8165C171.319 35.9102 172.268 36.6773 173.657 36.8036L173.794 35.2964C172.983 35.2227 172.456 34.8148 172.097 34.121C171.715 33.3828 171.532 32.3231 171.532 31.05H170.019ZM173.725 35.2933H161.325V36.8067H173.725V35.2933ZM161.401 36.8029C162.658 36.6772 163.571 36.0153 164.158 35.0579C164.725 34.1321 164.978 32.952 165.031 31.7329L163.519 31.6671C163.472 32.748 163.25 33.6429 162.868 34.2671C162.505 34.8597 161.993 35.2228 161.25 35.2971L161.401 36.8029ZM165.032 31.7V5.35H163.519V31.7H165.032ZM165.031 5.31713C164.978 4.09884 164.726 2.91708 164.157 1.99601C163.567 1.04106 162.646 0.390231 161.382 0.295438L161.269 1.80456C162.005 1.85976 162.509 2.20893 162.869 2.79149C163.25 3.40792 163.472 4.30115 163.519 5.38287L165.031 5.31713ZM161.325 1.80668H173.725V0.293318H161.325V1.80668ZM173.674 0.295071C172.275 0.390446 171.332 1.15056 170.771 2.24154C170.236 3.2821 170.045 4.61969 170.019 5.98572L171.532 6.01427C171.556 4.73031 171.74 3.6679 172.117 2.93346C172.469 2.24944 172.976 1.85955 173.777 1.80492L173.674 0.295071ZM170.019 6V31.05H171.532V6H170.019ZM175.613 1.05V0.293318H174.975L174.867 0.921171L175.613 1.05ZM193.012 1.05L193.757 0.917385L193.646 0.293318H193.012V1.05ZM194.712 10.6L193.995 10.8393L195.457 10.4674L194.712 10.6ZM187.812 3.5V2.74332H187.056V3.5H187.812ZM187.812 33.5H187.056V33.6111L187.088 33.7174L187.812 33.5ZM190.812 36.05V36.8067L190.83 35.2935L190.812 36.05ZM186.462 35.95L186.48 35.1935L186.462 35.1931L186.444 35.1936L186.462 35.95ZM182.462 36.05V36.8067H182.472L182.481 36.8064L182.462 36.05ZM181.062 31.05L180.306 31.042L180.306 31.0529L180.306 31.0638L181.062 31.05ZM181.113 26.3L181.869 26.308V26.3H181.113ZM181.113 3.5H181.869V2.74332H181.113V3.5ZM173.962 10.6L173.217 10.4712L174.684 10.8294L173.962 10.6ZM175.613 1.80668H193.012V0.293318H175.613V1.80668ZM192.268 1.18261L193.968 10.7326L195.457 10.4674L193.757 0.917385L192.268 1.18261ZM195.43 10.3607C194.909 8.79561 194.418 6.87707 193.52 5.41626C193.056 4.6618 192.462 3.98394 191.659 3.49806C190.853 3.00962 189.882 2.74332 188.712 2.74332V4.25668C189.643 4.25668 190.335 4.46538 190.875 4.79256C191.42 5.1223 191.857 5.6007 192.23 6.20874C193.007 7.47293 193.416 9.10439 193.995 10.8393L195.43 10.3607ZM188.712 2.74332H187.812V4.25668H188.712V2.74332ZM187.056 3.5V33.5H188.569V3.5H187.056ZM187.088 33.7174C187.336 34.5455 187.729 35.3209 188.349 35.8935C188.986 36.4815 189.811 36.8067 190.812 36.8067V35.2933C190.164 35.2933 189.714 35.0935 189.376 34.7815C189.021 34.4541 188.739 33.9545 188.537 33.2826L187.088 33.7174ZM190.83 35.2935L186.48 35.1935L186.445 36.7065L190.795 36.8065L190.83 35.2935ZM186.444 35.1936L182.444 35.2936L182.481 36.8064L186.481 36.7064L186.444 35.1936ZM182.462 35.2933H178.113V36.8067H182.462V35.2933ZM178.113 36.8067C178.844 36.8067 179.486 36.6372 180.023 36.2921C180.559 35.948 180.94 35.462 181.206 34.9102C181.725 33.8363 181.844 32.4356 181.819 31.0362L180.306 31.0638C180.331 32.4144 180.2 33.5137 179.844 34.2523C179.672 34.6067 179.46 34.8551 179.205 35.0188C178.952 35.1816 178.606 35.2933 178.113 35.2933V36.8067ZM181.819 31.058L181.869 26.308L180.356 26.292L180.306 31.042L181.819 31.058ZM181.869 26.3V3.5H180.356V26.3H181.869ZM181.113 2.74332H179.962V4.25668H181.113V2.74332ZM179.962 2.74332C178.793 2.74332 177.82 3.00958 177.01 3.49706C176.205 3.98209 175.605 4.65908 175.138 5.41412C174.23 6.88067 173.743 8.7943 173.241 10.3706L174.684 10.8294C175.232 9.1057 175.645 7.46933 176.425 6.21088C176.801 5.60342 177.242 5.12416 177.791 4.79356C178.336 4.46542 179.032 4.25668 179.962 4.25668V2.74332ZM174.708 10.7288L176.358 1.17882L174.867 0.921171L173.217 10.4712L174.708 10.7288ZM211.018 5.3L211.755 5.4703L211.758 5.45636L211.761 5.44231L211.018 5.3ZM212.068 5.85L211.344 5.6302L211.337 5.65203L211.332 5.67421L212.068 5.85ZM207.518 24.9L206.782 24.7242L206.759 24.82L206.762 24.9184L207.518 24.9ZM207.668 31.05H208.425V31.0408L208.424 31.0315L207.668 31.05ZM210.968 36.05V36.8067L210.983 35.2935L210.968 36.05ZM201.168 31.05L200.412 31.0256L200.411 31.0447L200.411 31.0638L201.168 31.05ZM201.368 24.85L202.124 24.8744L202.127 24.7817L202.108 24.6911L201.368 24.85ZM197.168 5.3L197.908 5.14107L197.897 5.09145L197.88 5.0437L197.168 5.3ZM203.318 5.9H204.075V5.82711L204.061 5.75557L203.318 5.9ZM203.368 6L204.109 5.84576L204.063 5.62464L203.903 5.46494L203.368 6ZM206.918 23.05L206.177 23.2042L207.655 23.2203L206.918 23.05ZM211.761 5.44231C211.991 4.24312 212.079 3.00389 211.714 2.02869C211.523 1.51812 211.202 1.06503 210.711 0.747866C210.226 0.434561 209.635 0.293318 208.968 0.293318V1.80668C209.426 1.80668 209.71 1.90293 209.89 2.01932C210.065 2.13184 210.2 2.30063 210.297 2.5588C210.507 3.12111 210.495 4.00688 210.275 5.15769L211.761 5.44231ZM208.968 1.80668H216.168V0.293318H208.968V1.80668ZM216.168 0.293318C214.873 0.293318 213.86 0.955564 213.092 1.93212C212.338 2.89024 211.78 4.19418 211.344 5.6302L212.792 6.0698C213.206 4.70581 213.698 3.60976 214.281 2.86788C214.851 2.14443 215.463 1.80668 216.168 1.80668V0.293318ZM211.332 5.67421L206.782 24.7242L208.254 25.0758L212.804 6.02578L211.332 5.67421ZM206.762 24.9184L206.912 31.0685L208.424 31.0315L208.274 24.8815L206.762 24.9184ZM206.911 31.05C206.911 32.4749 207.114 33.8684 207.723 34.9369C208.365 36.0641 209.431 36.7761 210.953 36.8065L210.983 35.2935C210.005 35.2739 209.421 34.8609 209.038 34.1881C208.621 33.4566 208.425 32.3751 208.425 31.05H206.911ZM210.968 36.05V35.2933H210.968C210.968 35.2933 210.968 35.2933 210.968 35.2933H210.968H210.968C210.968 35.2933 210.968 35.2933 210.968 35.2933C210.968 35.2933 210.968 35.2933 210.968 35.2933C210.968 35.2933 210.968 35.2933 210.968 35.2933C210.968 35.2933 210.968 35.2933 210.968 35.2933C210.968 35.2933 210.968 35.2933 210.968 35.2933H210.968C210.968 35.2933 210.968 35.2933 210.968 35.2933H210.968H210.968C210.968 35.2933 210.968 35.2933 210.968 35.2933C210.968 35.2933 210.968 35.2933 210.968 35.2933H210.968H210.968C210.968 35.2933 210.968 35.2933 210.968 35.2933C210.968 35.2933 210.968 35.2933 210.968 35.2933H210.968C210.968 35.2933 210.968 35.2933 210.968 35.2933H210.968C210.968 35.2933 210.968 35.2933 210.968 35.2933H210.968C210.968 35.2933 210.968 35.2933 210.968 35.2933C210.968 35.2933 210.968 35.2933 210.968 35.2933H210.968C210.968 35.2933 210.968 35.2933 210.968 35.2933C210.968 35.2933 210.968 35.2933 210.968 35.2933C210.968 35.2933 210.968 35.2933 210.968 35.2933H210.967H210.967C210.967 35.2933 210.967 35.2933 210.967 35.2933C210.967 35.2933 210.967 35.2933 210.967 35.2933C210.967 35.2933 210.967 35.2933 210.967 35.2933C210.967 35.2933 210.967 35.2933 210.967 35.2933C210.967 35.2933 210.967 35.2933 210.967 35.2933C210.967 35.2933 210.967 35.2933 210.967 35.2933C210.967 35.2933 210.967 35.2933 210.967 35.2933C210.967 35.2933 210.967 35.2933 210.967 35.2933C210.967 35.2933 210.967 35.2933 210.967 35.2933C210.967 35.2933 210.967 35.2933 210.967 35.2933C210.967 35.2933 210.967 35.2933 210.967 35.2933C210.967 35.2933 210.967 35.2933 210.967 35.2933C210.967 35.2933 210.967 35.2933 210.967 35.2933C210.967 35.2933 210.967 35.2933 210.967 35.2933C210.967 35.2933 210.967 35.2933 210.967 35.2933H210.967H210.967C210.967 35.2933 210.967 35.2933 210.967 35.2933C210.967 35.2933 210.967 35.2933 210.967 35.2933C210.967 35.2933 210.967 35.2933 210.967 35.2933H210.967H210.967C210.967 35.2933 210.967 35.2933 210.967 35.2933C210.967 35.2933 210.967 35.2933 210.967 35.2933H210.967C210.967 35.2933 210.967 35.2933 210.967 35.2933H210.967H210.967C210.967 35.2933 210.967 35.2933 210.967 35.2933H210.967C210.967 35.2933 210.967 35.2933 210.967 35.2933H210.967C210.967 35.2933 210.967 35.2933 210.967 35.2933H210.967C210.967 35.2933 210.967 35.2933 210.967 35.2933H210.967C210.967 35.2933 210.967 35.2933 210.967 35.2933H210.967C210.967 35.2933 210.967 35.2933 210.967 35.2933C210.967 35.2933 210.967 35.2933 210.967 35.2933H210.967C210.967 35.2933 210.967 35.2933 210.967 35.2933C210.967 35.2933 210.967 35.2933 210.967 35.2933H210.967C210.967 35.2933 210.967 35.2933 210.967 35.2933C210.967 35.2933 210.967 35.2933 210.967 35.2933C210.967 35.2933 210.967 35.2933 210.967 35.2933H210.967C210.966 35.2933 210.966 35.2933 210.966 35.2933C210.966 35.2933 210.966 35.2933 210.966 35.2933C210.966 35.2933 210.966 35.2933 210.966 35.2933C210.966 35.2933 210.966 35.2933 210.966 35.2933C210.966 35.2933 210.966 35.2933 210.966 35.2933C210.966 35.2933 210.966 35.2933 210.966 35.2933C210.966 35.2933 210.966 35.2933 210.966 35.2933C210.966 35.2933 210.966 35.2933 210.966 35.2933C210.966 35.2933 210.966 35.2933 210.966 35.2933C210.966 35.2933 210.966 35.2933 210.966 35.2933C210.966 35.2933 210.966 35.2933 210.966 35.2933C210.966 35.2933 210.966 35.2933 210.966 35.2933C210.966 35.2933 210.966 35.2933 210.966 35.2933C210.966 35.2933 210.966 35.2933 210.966 35.2933C210.966 35.2933 210.966 35.2933 210.966 35.2933C210.966 35.2933 210.966 35.2933 210.966 35.2933C210.966 35.2933 210.966 35.2933 210.966 35.2933C210.966 35.2933 210.966 35.2933 210.966 35.2933C210.966 35.2933 210.966 35.2933 210.966 35.2933C210.966 35.2933 210.966 35.2933 210.966 35.2933C210.966 35.2933 210.966 35.2933 210.966 35.2933C210.966 35.2933 210.966 35.2933 210.966 35.2933C210.966 35.2933 210.966 35.2933 210.966 35.2933C210.966 35.2933 210.966 35.2933 210.966 35.2933C210.966 35.2933 210.966 35.2933 210.966 35.2933C210.966 35.2933 210.966 35.2933 210.966 35.2933C210.966 35.2933 210.966 35.2933 210.966 35.2933C210.966 35.2933 210.966 35.2933 210.966 35.2933C210.966 35.2933 210.966 35.2933 210.966 35.2933C210.966 35.2933 210.965 35.2933 210.965 35.2933C210.965 35.2933 210.965 35.2933 210.965 35.2933C210.965 35.2933 210.965 35.2933 210.965 35.2933C210.965 35.2933 210.965 35.2933 210.965 35.2933C210.965 35.2933 210.965 35.2933 210.965 35.2933C210.965 35.2933 210.965 35.2933 210.965 35.2933C210.965 35.2933 210.965 35.2933 210.965 35.2933C210.965 35.2933 210.965 35.2933 210.965 35.2933C210.965 35.2933 210.965 35.2933 210.965 35.2933C210.965 35.2933 210.965 35.2933 210.965 35.2933C210.965 35.2933 210.965 35.2933 210.965 35.2933C210.965 35.2933 210.965 35.2933 210.965 35.2933C210.965 35.2933 210.965 35.2933 210.965 35.2933C210.965 35.2933 210.965 35.2933 210.965 35.2933C210.965 35.2933 210.965 35.2933 210.965 35.2933C210.965 35.2933 210.965 35.2933 210.965 35.2933C210.965 35.2933 210.965 35.2933 210.965 35.2933C210.965 35.2933 210.965 35.2933 210.965 35.2933C210.965 35.2933 210.965 35.2933 210.965 35.2933C210.965 35.2933 210.965 35.2933 210.965 35.2933C210.965 35.2933 210.965 35.2933 210.965 35.2933C210.965 35.2933 210.965 35.2933 210.965 35.2933C210.965 35.2933 210.965 35.2933 210.965 35.2933C210.965 35.2933 210.964 35.2933 210.964 35.2933C210.964 35.2933 210.964 35.2933 210.964 35.2933C210.964 35.2933 210.964 35.2933 210.964 35.2933C210.964 35.2933 210.964 35.2933 210.964 35.2933C210.964 35.2933 210.964 35.2933 210.964 35.2933C210.964 35.2933 210.964 35.2933 210.964 35.2933C210.964 35.2933 210.964 35.2933 210.964 35.2933C210.964 35.2933 210.964 35.2933 210.964 35.2933C210.964 35.2933 210.964 35.2933 210.964 35.2933C210.964 35.2933 210.964 35.2933 210.964 35.2933C210.964 35.2933 210.964 35.2933 210.964 35.2933C210.964 35.2933 210.964 35.2933 210.964 35.2933C210.964 35.2933 210.964 35.2933 210.964 35.2933C210.964 35.2933 210.964 35.2933 210.964 35.2933C210.964 35.2933 210.964 35.2933 210.964 35.2933C210.964 35.2933 210.964 35.2933 210.964 35.2933C210.964 35.2933 210.964 35.2933 210.964 35.2933C210.964 35.2933 210.964 35.2933 210.964 35.2933C210.964 35.2933 210.964 35.2933 210.964 35.2933C210.963 35.2933 210.963 35.2933 210.963 35.2933C210.963 35.2933 210.963 35.2933 210.963 35.2933C210.963 35.2933 210.963 35.2933 210.963 35.2933C210.963 35.2933 210.963 35.2933 210.963 35.2933C210.963 35.2933 210.963 35.2933 210.963 35.2933C210.963 35.2933 210.963 35.2933 210.963 35.2933C210.963 35.2933 210.963 35.2933 210.963 35.2933C210.963 35.2933 210.963 35.2933 210.963 35.2933C210.963 35.2933 210.963 35.2933 210.963 35.2933C210.963 35.2933 210.963 35.2933 210.963 35.2933C210.963 35.2933 210.963 35.2933 210.963 35.2933C210.963 35.2933 210.963 35.2933 210.963 35.2933C210.963 35.2933 210.963 35.2933 210.963 35.2933C210.963 35.2933 210.963 35.2933 210.963 35.2933C210.963 35.2933 210.963 35.2933 210.963 35.2933C210.963 35.2933 210.963 35.2933 210.962 35.2933C210.962 35.2933 210.962 35.2933 210.962 35.2933C210.962 35.2933 210.962 35.2933 210.962 35.2933C210.962 35.2933 210.962 35.2933 210.962 35.2933C210.962 35.2933 210.962 35.2933 210.962 35.2933C210.962 35.2933 210.962 35.2933 210.962 35.2933C210.962 35.2933 210.962 35.2933 210.962 35.2933C210.962 35.2933 210.962 35.2933 210.962 35.2933C210.962 35.2933 210.962 35.2933 210.962 35.2933C210.962 35.2933 210.962 35.2933 210.962 35.2933C210.962 35.2933 210.962 35.2933 210.962 35.2933C210.962 35.2933 210.962 35.2933 210.962 35.2933C210.962 35.2933 210.962 35.2933 210.962 35.2933C210.962 35.2933 210.962 35.2933 210.962 35.2933C210.962 35.2933 210.962 35.2933 210.962 35.2933C210.961 35.2933 210.961 35.2933 210.961 35.2933C210.961 35.2933 210.961 35.2933 210.961 35.2933C210.961 35.2933 210.961 35.2933 210.961 35.2933C210.961 35.2933 210.961 35.2933 210.961 35.2933C210.961 35.2933 210.961 35.2933 210.961 35.2933C210.961 35.2933 210.961 35.2933 210.961 35.2933C210.961 35.2933 210.961 35.2933 210.961 35.2933C210.961 35.2933 210.961 35.2933 210.961 35.2933C210.961 35.2933 210.961 35.2933 210.961 35.2933C210.961 35.2933 210.961 35.2933 210.961 35.2933C210.961 35.2933 210.961 35.2933 210.961 35.2933C210.961 35.2933 210.961 35.2933 210.961 35.2933C210.961 35.2933 210.96 35.2933 210.96 35.2933C210.96 35.2933 210.96 35.2933 210.96 35.2933C210.96 35.2933 210.96 35.2933 210.96 35.2933C210.96 35.2933 210.96 35.2933 210.96 35.2933C210.96 35.2933 210.96 35.2933 210.96 35.2933C210.96 35.2933 210.96 35.2933 210.96 35.2933C210.96 35.2933 210.96 35.2933 210.96 35.2933C210.96 35.2933 210.96 35.2933 210.96 35.2933C210.96 35.2933 210.96 35.2933 210.96 35.2933C210.96 35.2933 210.96 35.2933 210.96 35.2933C210.96 35.2933 210.96 35.2933 210.96 35.2933C210.96 35.2933 210.96 35.2933 210.96 35.2933C210.96 35.2933 210.959 35.2933 210.959 35.2933C210.959 35.2933 210.959 35.2933 210.959 35.2933C210.959 35.2933 210.959 35.2933 210.959 35.2933C210.959 35.2933 210.959 35.2933 210.959 35.2933C210.959 35.2933 210.959 35.2933 210.959 35.2933C210.959 35.2933 210.959 35.2933 210.959 35.2933C210.959 35.2933 210.959 35.2933 210.959 35.2933C210.959 35.2933 210.959 35.2933 210.959 35.2933C210.959 35.2933 210.959 35.2933 210.959 35.2933C210.959 35.2933 210.959 35.2933 210.959 35.2933C210.959 35.2933 210.959 35.2933 210.958 35.2933C210.958 35.2933 210.958 35.2933 210.958 35.2933C210.958 35.2933 210.958 35.2933 210.958 35.2933C210.958 35.2933 210.958 35.2933 210.958 35.2933C210.958 35.2933 210.958 35.2933 210.958 35.2933C210.958 35.2933 210.958 35.2933 210.958 35.2933C210.958 35.2933 210.958 35.2933 210.958 35.2933C210.958 35.2933 210.958 35.2933 210.958 35.2933C210.958 35.2933 210.958 35.2933 210.958 35.2933C210.958 35.2933 210.958 35.2933 210.958 35.2933C210.958 35.2933 210.958 35.2933 210.958 35.2933C210.957 35.2933 210.957 35.2933 210.957 35.2933C210.957 35.2933 210.957 35.2933 210.957 35.2933C210.957 35.2933 210.957 35.2933 210.957 35.2933C210.957 35.2933 210.957 35.2933 210.957 35.2933C210.957 35.2933 210.957 35.2933 210.957 35.2933C210.957 35.2933 210.957 35.2933 210.957 35.2933C210.957 35.2933 210.957 35.2933 210.957 35.2933C210.957 35.2933 210.957 35.2933 210.957 35.2933C210.957 35.2933 210.957 35.2933 210.957 35.2933C210.957 35.2933 210.956 35.2933 210.956 35.2933C210.956 35.2933 210.956 35.2933 210.956 35.2933C210.956 35.2933 210.956 35.2933 210.956 35.2933C210.956 35.2933 210.956 35.2933 210.956 35.2933C210.956 35.2933 210.956 35.2933 210.956 35.2933C210.956 35.2933 210.956 35.2933 210.956 35.2933C210.956 35.2933 210.956 35.2933 210.956 35.2933C210.956 35.2933 210.956 35.2933 210.956 35.2933C210.956 35.2933 210.956 35.2933 210.956 35.2933C210.955 35.2933 210.955 35.2933 210.955 35.2933C210.955 35.2933 210.955 35.2933 210.955 35.2933C210.955 35.2933 210.955 35.2933 210.955 35.2933C210.955 35.2933 210.955 35.2933 210.955 35.2933C210.955 35.2933 210.955 35.2933 210.955 35.2933C210.955 35.2933 210.955 35.2933 210.955 35.2933C210.955 35.2933 210.955 35.2933 210.955 35.2933C210.955 35.2933 210.955 35.2933 210.955 35.2933C210.955 35.2933 210.954 35.2933 210.954 35.2933C210.954 35.2933 210.954 35.2933 210.954 35.2933C210.954 35.2933 210.954 35.2933 210.954 35.2933C210.954 35.2933 210.954 35.2933 210.954 35.2933C210.954 35.2933 210.954 35.2933 210.954 35.2933C210.954 35.2933 210.954 35.2933 210.954 35.2933C210.954 35.2933 210.954 35.2933 210.954 35.2933C210.954 35.2933 210.954 35.2933 210.954 35.2933C210.954 35.2933 210.954 35.2933 210.953 35.2933C210.953 35.2933 210.953 35.2933 210.953 35.2933C210.953 35.2933 210.953 35.2933 210.953 35.2933C210.953 35.2933 210.953 35.2933 210.953 35.2933C210.953 35.2933 210.953 35.2933 210.953 35.2933C210.953 35.2933 210.953 35.2933 210.953 35.2933C210.953 35.2933 210.953 35.2933 210.953 35.2933C210.953 35.2933 210.953 35.2933 210.953 35.2933C210.952 35.2933 210.952 35.2933 210.952 35.2933C210.952 35.2933 210.952 35.2933 210.952 35.2933C210.952 35.2933 210.952 35.2933 210.952 35.2933C210.952 35.2933 210.952 35.2933 210.952 35.2933C210.952 35.2933 210.952 35.2933 210.952 35.2933C210.952 35.2933 210.952 35.2933 210.952 35.2933C210.952 35.2933 210.952 35.2933 210.952 35.2933C210.952 35.2933 210.951 35.2933 210.951 35.2933C210.951 35.2933 210.951 35.2933 210.951 35.2933C210.951 35.2933 210.951 35.2933 210.951 35.2933C210.951 35.2933 210.951 35.2933 210.951 35.2933C210.951 35.2933 210.951 35.2933 210.951 35.2933C210.951 35.2933 210.951 35.2933 210.951 35.2933C210.951 35.2933 210.951 35.2933 210.951 35.2933C210.951 35.2933 210.95 35.2933 210.95 35.2933C210.95 35.2933 210.95 35.2933 210.95 35.2933C210.95 35.2933 210.95 35.2933 210.95 35.2933C210.95 35.2933 210.95 35.2933 210.95 35.2933C210.95 35.2933 210.95 35.2933 210.95 35.2933C210.95 35.2933 210.95 35.2933 210.95 35.2933C210.95 35.2933 210.95 35.2933 210.95 35.2933C210.95 35.2933 210.949 35.2933 210.949 35.2933C210.949 35.2933 210.949 35.2933 210.949 35.2933C210.949 35.2933 210.949 35.2933 210.949 35.2933C210.949 35.2933 210.949 35.2933 210.949 35.2933C210.949 35.2933 210.949 35.2933 210.949 35.2933C210.949 35.2933 210.949 35.2933 210.949 35.2933C210.949 35.2933 210.949 35.2933 210.948 35.2933C210.948 35.2933 210.948 35.2933 210.948 35.2933C210.948 35.2933 210.948 35.2933 210.948 35.2933C210.948 35.2933 210.948 35.2933 210.948 35.2933C210.948 35.2933 210.948 35.2933 210.948 35.2933C210.948 35.2933 210.948 35.2933 210.948 35.2933C210.948 35.2933 210.948 35.2933 210.948 35.2933C210.947 35.2933 210.947 35.2933 210.947 35.2933C210.947 35.2933 210.947 35.2933 210.947 35.2933C210.947 35.2933 210.947 35.2933 210.947 35.2933C210.947 35.2933 210.947 35.2933 210.947 35.2933C210.947 35.2933 210.947 35.2933 210.947 35.2933C210.947 35.2933 210.947 35.2933 210.947 35.2933C210.946 35.2933 210.946 35.2933 210.946 35.2933C210.946 35.2933 210.946 35.2933 210.946 35.2933C210.946 35.2933 210.946 35.2933 210.946 35.2933C210.946 35.2933 210.946 35.2933 210.946 35.2933C210.946 35.2933 210.946 35.2933 210.946 35.2933C210.946 35.2933 210.946 35.2933 210.946 35.2933C210.945 35.2933 210.945 35.2933 210.945 35.2933C210.945 35.2933 210.945 35.2933 210.945 35.2933C210.945 35.2933 210.945 35.2933 210.945 35.2933C210.945 35.2933 210.945 35.2933 210.945 35.2933C210.945 35.2933 210.945 35.2933 210.945 35.2933C210.945 35.2933 210.945 35.2933 210.944 35.2933C210.944 35.2933 210.944 35.2933 210.944 35.2933C210.944 35.2933 210.944 35.2933 210.944 35.2933C210.944 35.2933 210.944 35.2933 210.944 35.2933C210.944 35.2933 210.944 35.2933 210.944 35.2933C210.944 35.2933 210.944 35.2933 210.944 35.2933C210.944 35.2933 210.943 35.2933 210.943 35.2933C210.943 35.2933 210.943 35.2933 210.943 35.2933C210.943 35.2933 210.943 35.2933 210.943 35.2933C210.943 35.2933 210.943 35.2933 210.943 35.2933C210.943 35.2933 210.943 35.2933 210.943 35.2933C210.943 35.2933 210.943 35.2933 210.942 35.2933C210.942 35.2933 210.942 35.2933 210.942 35.2933C210.942 35.2933 210.942 35.2933 210.942 35.2933C210.942 35.2933 210.942 35.2933 210.942 35.2933C210.942 35.2933 210.942 35.2933 210.942 35.2933C210.942 35.2933 210.942 35.2933 210.942 35.2933C210.941 35.2933 210.941 35.2933 210.941 35.2933C210.941 35.2933 210.941 35.2933 210.941 35.2933C210.941 35.2933 210.941 35.2933 210.941 35.2933C210.941 35.2933 210.941 35.2933 210.941 35.2933C210.941 35.2933 210.941 35.2933 210.941 35.2933C210.941 35.2933 210.94 35.2933 210.94 35.2933C210.94 35.2933 210.94 35.2933 210.94 35.2933C210.94 35.2933 210.94 35.2933 210.94 35.2933C210.94 35.2933 210.94 35.2933 210.94 35.2933C210.94 35.2933 210.94 35.2933 210.94 35.2933C210.939 35.2933 210.939 35.2933 210.939 35.2933C210.939 35.2933 210.939 35.2933 210.939 35.2933C210.939 35.2933 210.939 35.2933 210.939 35.2933C210.939 35.2933 210.939 35.2933 210.939 35.2933C210.939 35.2933 210.939 35.2933 210.939 35.2933C210.938 35.2933 210.938 35.2933 210.938 35.2933C210.938 35.2933 210.938 35.2933 210.938 35.2933C210.938 35.2933 210.938 35.2933 210.938 35.2933C210.938 35.2933 210.938 35.2933 210.938 35.2933C210.938 35.2933 210.938 35.2933 210.938 35.2933C210.937 35.2933 210.937 35.2933 210.937 35.2933C210.937 35.2933 210.937 35.2933 210.937 35.2933C210.937 35.2933 210.937 35.2933 210.937 35.2933C210.937 35.2933 210.937 35.2933 210.937 35.2933C210.937 35.2933 210.937 35.2933 210.936 35.2933C210.936 35.2933 210.936 35.2933 210.936 35.2933C210.936 35.2933 210.936 35.2933 210.936 35.2933C210.936 35.2933 210.936 35.2933 210.936 35.2933C210.936 35.2933 210.936 35.2933 210.936 35.2933C210.936 35.2933 210.935 35.2933 210.935 35.2933C210.935 35.2933 210.935 35.2933 210.935 35.2933C210.935 35.2933 210.935 35.2933 210.935 35.2933C210.935 35.2933 210.935 35.2933 210.935 35.2933C210.935 35.2933 210.935 35.2933 210.934 35.2933C210.934 35.2933 210.934 35.2933 210.934 35.2933C210.934 35.2933 210.934 35.2933 210.934 35.2933C210.934 35.2933 210.934 35.2933 210.934 35.2933C210.934 35.2933 210.934 35.2933 210.934 35.2933C210.933 35.2933 210.933 35.2933 210.933 35.2933C210.933 35.2933 210.933 35.2933 210.933 35.2933C210.933 35.2933 210.933 35.2933 210.933 35.2933C210.933 35.2933 210.933 35.2933 210.933 35.2933C210.933 35.2933 210.932 35.2933 210.932 35.2933C210.932 35.2933 210.932 35.2933 210.932 35.2933C210.932 35.2933 210.932 35.2933 210.932 35.2933C210.932 35.2933 210.932 35.2933 210.932 35.2933C210.932 35.2933 210.932 35.2933 210.931 35.2933C210.931 35.2933 210.931 35.2933 210.931 35.2933C210.931 35.2933 210.931 35.2933 210.931 35.2933C210.931 35.2933 210.931 35.2933 210.931 35.2933C210.931 35.2933 210.931 35.2933 210.931 35.2933C210.93 35.2933 210.93 35.2933 210.93 35.2933C210.93 35.2933 210.93 35.2933 210.93 35.2933C210.93 35.2933 210.93 35.2933 210.93 35.2933C210.93 35.2933 210.93 35.2933 210.93 35.2933C210.929 35.2933 210.929 35.2933 210.929 35.2933C210.929 35.2933 210.929 35.2933 210.929 35.2933C210.929 35.2933 210.929 35.2933 210.929 35.2933C210.929 35.2933 210.929 35.2933 210.929 35.2933C210.928 35.2933 210.928 35.2933 210.928 35.2933C210.928 35.2933 210.928 35.2933 210.928 35.2933C210.928 35.2933 210.928 35.2933 210.928 35.2933C210.928 35.2933 210.928 35.2933 210.928 35.2933C210.927 35.2933 210.927 35.2933 210.927 35.2933C210.927 35.2933 210.927 35.2933 210.927 35.2933C210.927 35.2933 210.927 35.2933 210.927 35.2933C210.927 35.2933 210.927 35.2933 210.927 35.2933C210.926 35.2933 210.926 35.2933 210.926 35.2933C210.926 35.2933 210.926 35.2933 210.926 35.2933C210.926 35.2933 210.926 35.2933 210.926 35.2933C210.926 35.2933 210.926 35.2933 210.925 35.2933C210.925 35.2933 210.925 35.2933 210.925 35.2933C210.925 35.2933 210.925 35.2933 210.925 35.2933C210.925 35.2933 210.925 35.2933 210.925 35.2933C210.925 35.2933 210.924 35.2933 210.924 35.2933C210.924 35.2933 210.924 35.2933 210.924 35.2933C210.924 35.2933 210.924 35.2933 210.924 35.2933C210.924 35.2933 210.924 35.2933 210.924 35.2933C210.924 35.2933 210.923 35.2933 210.923 35.2933C210.923 35.2933 210.923 35.2933 210.923 35.2933C210.923 35.2933 210.923 35.2933 210.923 35.2933C210.923 35.2933 210.923 35.2933 210.923 35.2933C210.922 35.2933 210.922 35.2933 210.922 35.2933C210.922 35.2933 210.922 35.2933 210.922 35.2933C210.922 35.2933 210.922 35.2933 210.922 35.2933C210.922 35.2933 210.921 35.2933 210.921 35.2933C210.921 35.2933 210.921 35.2933 210.921 35.2933C210.921 35.2933 210.921 35.2933 210.921 35.2933C210.921 35.2933 210.921 35.2933 210.921 35.2933C210.92 35.2933 210.92 35.2933 210.92 35.2933C210.92 35.2933 210.92 35.2933 210.92 35.2933C210.92 35.2933 210.92 35.2933 210.92 35.2933C210.92 35.2933 210.92 35.2933 210.919 35.2933C210.919 35.2933 210.919 35.2933 210.919 35.2933C210.919 35.2933 210.919 35.2933 210.919 35.2933C210.919 35.2933 210.919 35.2933 210.919 35.2933C210.918 35.2933 210.918 35.2933 210.918 35.2933C210.918 35.2933 210.918 35.2933 210.918 35.2933V36.8067C210.918 36.8067 210.918 36.8067 210.918 36.8067C210.918 36.8067 210.918 36.8067 210.919 36.8067C210.919 36.8067 210.919 36.8067 210.919 36.8067C210.919 36.8067 210.919 36.8067 210.919 36.8067C210.919 36.8067 210.919 36.8067 210.919 36.8067C210.92 36.8067 210.92 36.8067 210.92 36.8067C210.92 36.8067 210.92 36.8067 210.92 36.8067C210.92 36.8067 210.92 36.8067 210.92 36.8067C210.92 36.8067 210.92 36.8067 210.921 36.8067C210.921 36.8067 210.921 36.8067 210.921 36.8067C210.921 36.8067 210.921 36.8067 210.921 36.8067C210.921 36.8067 210.921 36.8067 210.921 36.8067C210.921 36.8067 210.922 36.8067 210.922 36.8067C210.922 36.8067 210.922 36.8067 210.922 36.8067C210.922 36.8067 210.922 36.8067 210.922 36.8067C210.922 36.8067 210.922 36.8067 210.923 36.8067C210.923 36.8067 210.923 36.8067 210.923 36.8067C210.923 36.8067 210.923 36.8067 210.923 36.8067C210.923 36.8067 210.923 36.8067 210.923 36.8067C210.923 36.8067 210.924 36.8067 210.924 36.8067C210.924 36.8067 210.924 36.8067 210.924 36.8067C210.924 36.8067 210.924 36.8067 210.924 36.8067C210.924 36.8067 210.924 36.8067 210.924 36.8067C210.924 36.8067 210.925 36.8067 210.925 36.8067C210.925 36.8067 210.925 36.8067 210.925 36.8067C210.925 36.8067 210.925 36.8067 210.925 36.8067C210.925 36.8067 210.925 36.8067 210.925 36.8067C210.926 36.8067 210.926 36.8067 210.926 36.8067C210.926 36.8067 210.926 36.8067 210.926 36.8067C210.926 36.8067 210.926 36.8067 210.926 36.8067C210.926 36.8067 210.926 36.8067 210.927 36.8067C210.927 36.8067 210.927 36.8067 210.927 36.8067C210.927 36.8067 210.927 36.8067 210.927 36.8067C210.927 36.8067 210.927 36.8067 210.927 36.8067C210.927 36.8067 210.927 36.8067 210.928 36.8067C210.928 36.8067 210.928 36.8067 210.928 36.8067C210.928 36.8067 210.928 36.8067 210.928 36.8067C210.928 36.8067 210.928 36.8067 210.928 36.8067C210.928 36.8067 210.928 36.8067 210.929 36.8067C210.929 36.8067 210.929 36.8067 210.929 36.8067C210.929 36.8067 210.929 36.8067 210.929 36.8067C210.929 36.8067 210.929 36.8067 210.929 36.8067C210.929 36.8067 210.929 36.8067 210.93 36.8067C210.93 36.8067 210.93 36.8067 210.93 36.8067C210.93 36.8067 210.93 36.8067 210.93 36.8067C210.93 36.8067 210.93 36.8067 210.93 36.8067C210.93 36.8067 210.93 36.8067 210.931 36.8067C210.931 36.8067 210.931 36.8067 210.931 36.8067C210.931 36.8067 210.931 36.8067 210.931 36.8067C210.931 36.8067 210.931 36.8067 210.931 36.8067C210.931 36.8067 210.931 36.8067 210.931 36.8067C210.932 36.8067 210.932 36.8067 210.932 36.8067C210.932 36.8067 210.932 36.8067 210.932 36.8067C210.932 36.8067 210.932 36.8067 210.932 36.8067C210.932 36.8067 210.932 36.8067 210.932 36.8067C210.932 36.8067 210.933 36.8067 210.933 36.8067C210.933 36.8067 210.933 36.8067 210.933 36.8067C210.933 36.8067 210.933 36.8067 210.933 36.8067C210.933 36.8067 210.933 36.8067 210.933 36.8067C210.933 36.8067 210.933 36.8067 210.934 36.8067C210.934 36.8067 210.934 36.8067 210.934 36.8067C210.934 36.8067 210.934 36.8067 210.934 36.8067C210.934 36.8067 210.934 36.8067 210.934 36.8067C210.934 36.8067 210.934 36.8067 210.934 36.8067C210.935 36.8067 210.935 36.8067 210.935 36.8067C210.935 36.8067 210.935 36.8067 210.935 36.8067C210.935 36.8067 210.935 36.8067 210.935 36.8067C210.935 36.8067 210.935 36.8067 210.935 36.8067C210.935 36.8067 210.936 36.8067 210.936 36.8067C210.936 36.8067 210.936 36.8067 210.936 36.8067C210.936 36.8067 210.936 36.8067 210.936 36.8067C210.936 36.8067 210.936 36.8067 210.936 36.8067C210.936 36.8067 210.936 36.8067 210.936 36.8067C210.937 36.8067 210.937 36.8067 210.937 36.8067C210.937 36.8067 210.937 36.8067 210.937 36.8067C210.937 36.8067 210.937 36.8067 210.937 36.8067C210.937 36.8067 210.937 36.8067 210.937 36.8067C210.937 36.8067 210.937 36.8067 210.938 36.8067C210.938 36.8067 210.938 36.8067 210.938 36.8067C210.938 36.8067 210.938 36.8067 210.938 36.8067C210.938 36.8067 210.938 36.8067 210.938 36.8067C210.938 36.8067 210.938 36.8067 210.938 36.8067C210.938 36.8067 210.938 36.8067 210.939 36.8067C210.939 36.8067 210.939 36.8067 210.939 36.8067C210.939 36.8067 210.939 36.8067 210.939 36.8067C210.939 36.8067 210.939 36.8067 210.939 36.8067C210.939 36.8067 210.939 36.8067 210.939 36.8067C210.939 36.8067 210.939 36.8067 210.94 36.8067C210.94 36.8067 210.94 36.8067 210.94 36.8067C210.94 36.8067 210.94 36.8067 210.94 36.8067C210.94 36.8067 210.94 36.8067 210.94 36.8067C210.94 36.8067 210.94 36.8067 210.94 36.8067C210.94 36.8067 210.941 36.8067 210.941 36.8067C210.941 36.8067 210.941 36.8067 210.941 36.8067C210.941 36.8067 210.941 36.8067 210.941 36.8067C210.941 36.8067 210.941 36.8067 210.941 36.8067C210.941 36.8067 210.941 36.8067 210.941 36.8067C210.941 36.8067 210.941 36.8067 210.942 36.8067C210.942 36.8067 210.942 36.8067 210.942 36.8067C210.942 36.8067 210.942 36.8067 210.942 36.8067C210.942 36.8067 210.942 36.8067 210.942 36.8067C210.942 36.8067 210.942 36.8067 210.942 36.8067C210.942 36.8067 210.942 36.8067 210.942 36.8067C210.943 36.8067 210.943 36.8067 210.943 36.8067C210.943 36.8067 210.943 36.8067 210.943 36.8067C210.943 36.8067 210.943 36.8067 210.943 36.8067C210.943 36.8067 210.943 36.8067 210.943 36.8067C210.943 36.8067 210.943 36.8067 210.943 36.8067C210.943 36.8067 210.944 36.8067 210.944 36.8067C210.944 36.8067 210.944 36.8067 210.944 36.8067C210.944 36.8067 210.944 36.8067 210.944 36.8067C210.944 36.8067 210.944 36.8067 210.944 36.8067C210.944 36.8067 210.944 36.8067 210.944 36.8067C210.944 36.8067 210.944 36.8067 210.944 36.8067C210.945 36.8067 210.945 36.8067 210.945 36.8067C210.945 36.8067 210.945 36.8067 210.945 36.8067C210.945 36.8067 210.945 36.8067 210.945 36.8067C210.945 36.8067 210.945 36.8067 210.945 36.8067C210.945 36.8067 210.945 36.8067 210.945 36.8067C210.945 36.8067 210.945 36.8067 210.946 36.8067C210.946 36.8067 210.946 36.8067 210.946 36.8067C210.946 36.8067 210.946 36.8067 210.946 36.8067C210.946 36.8067 210.946 36.8067 210.946 36.8067C210.946 36.8067 210.946 36.8067 210.946 36.8067C210.946 36.8067 210.946 36.8067 210.946 36.8067C210.946 36.8067 210.946 36.8067 210.947 36.8067C210.947 36.8067 210.947 36.8067 210.947 36.8067C210.947 36.8067 210.947 36.8067 210.947 36.8067C210.947 36.8067 210.947 36.8067 210.947 36.8067C210.947 36.8067 210.947 36.8067 210.947 36.8067C210.947 36.8067 210.947 36.8067 210.947 36.8067C210.947 36.8067 210.947 36.8067 210.948 36.8067C210.948 36.8067 210.948 36.8067 210.948 36.8067C210.948 36.8067 210.948 36.8067 210.948 36.8067C210.948 36.8067 210.948 36.8067 210.948 36.8067C210.948 36.8067 210.948 36.8067 210.948 36.8067C210.948 36.8067 210.948 36.8067 210.948 36.8067C210.948 36.8067 210.948 36.8067 210.948 36.8067C210.949 36.8067 210.949 36.8067 210.949 36.8067C210.949 36.8067 210.949 36.8067 210.949 36.8067C210.949 36.8067 210.949 36.8067 210.949 36.8067C210.949 36.8067 210.949 36.8067 210.949 36.8067C210.949 36.8067 210.949 36.8067 210.949 36.8067C210.949 36.8067 210.949 36.8067 210.949 36.8067C210.949 36.8067 210.95 36.8067 210.95 36.8067C210.95 36.8067 210.95 36.8067 210.95 36.8067C210.95 36.8067 210.95 36.8067 210.95 36.8067C210.95 36.8067 210.95 36.8067 210.95 36.8067C210.95 36.8067 210.95 36.8067 210.95 36.8067C210.95 36.8067 210.95 36.8067 210.95 36.8067C210.95 36.8067 210.95 36.8067 210.95 36.8067C210.95 36.8067 210.951 36.8067 210.951 36.8067C210.951 36.8067 210.951 36.8067 210.951 36.8067C210.951 36.8067 210.951 36.8067 210.951 36.8067C210.951 36.8067 210.951 36.8067 210.951 36.8067C210.951 36.8067 210.951 36.8067 210.951 36.8067C210.951 36.8067 210.951 36.8067 210.951 36.8067C210.951 36.8067 210.951 36.8067 210.951 36.8067C210.951 36.8067 210.952 36.8067 210.952 36.8067C210.952 36.8067 210.952 36.8067 210.952 36.8067C210.952 36.8067 210.952 36.8067 210.952 36.8067C210.952 36.8067 210.952 36.8067 210.952 36.8067C210.952 36.8067 210.952 36.8067 210.952 36.8067C210.952 36.8067 210.952 36.8067 210.952 36.8067C210.952 36.8067 210.952 36.8067 210.952 36.8067C210.952 36.8067 210.952 36.8067 210.953 36.8067C210.953 36.8067 210.953 36.8067 210.953 36.8067C210.953 36.8067 210.953 36.8067 210.953 36.8067C210.953 36.8067 210.953 36.8067 210.953 36.8067C210.953 36.8067 210.953 36.8067 210.953 36.8067C210.953 36.8067 210.953 36.8067 210.953 36.8067C210.953 36.8067 210.953 36.8067 210.953 36.8067C210.953 36.8067 210.953 36.8067 210.953 36.8067C210.954 36.8067 210.954 36.8067 210.954 36.8067C210.954 36.8067 210.954 36.8067 210.954 36.8067C210.954 36.8067 210.954 36.8067 210.954 36.8067C210.954 36.8067 210.954 36.8067 210.954 36.8067C210.954 36.8067 210.954 36.8067 210.954 36.8067C210.954 36.8067 210.954 36.8067 210.954 36.8067C210.954 36.8067 210.954 36.8067 210.954 36.8067C210.954 36.8067 210.954 36.8067 210.954 36.8067C210.954 36.8067 210.955 36.8067 210.955 36.8067C210.955 36.8067 210.955 36.8067 210.955 36.8067C210.955 36.8067 210.955 36.8067 210.955 36.8067C210.955 36.8067 210.955 36.8067 210.955 36.8067C210.955 36.8067 210.955 36.8067 210.955 36.8067C210.955 36.8067 210.955 36.8067 210.955 36.8067C210.955 36.8067 210.955 36.8067 210.955 36.8067C210.955 36.8067 210.955 36.8067 210.955 36.8067C210.955 36.8067 210.955 36.8067 210.956 36.8067C210.956 36.8067 210.956 36.8067 210.956 36.8067C210.956 36.8067 210.956 36.8067 210.956 36.8067C210.956 36.8067 210.956 36.8067 210.956 36.8067C210.956 36.8067 210.956 36.8067 210.956 36.8067C210.956 36.8067 210.956 36.8067 210.956 36.8067C210.956 36.8067 210.956 36.8067 210.956 36.8067C210.956 36.8067 210.956 36.8067 210.956 36.8067C210.956 36.8067 210.956 36.8067 210.956 36.8067C210.956 36.8067 210.957 36.8067 210.957 36.8067C210.957 36.8067 210.957 36.8067 210.957 36.8067C210.957 36.8067 210.957 36.8067 210.957 36.8067C210.957 36.8067 210.957 36.8067 210.957 36.8067C210.957 36.8067 210.957 36.8067 210.957 36.8067C210.957 36.8067 210.957 36.8067 210.957 36.8067C210.957 36.8067 210.957 36.8067 210.957 36.8067C210.957 36.8067 210.957 36.8067 210.957 36.8067C210.957 36.8067 210.957 36.8067 210.957 36.8067C210.957 36.8067 210.957 36.8067 210.958 36.8067C210.958 36.8067 210.958 36.8067 210.958 36.8067C210.958 36.8067 210.958 36.8067 210.958 36.8067C210.958 36.8067 210.958 36.8067 210.958 36.8067C210.958 36.8067 210.958 36.8067 210.958 36.8067C210.958 36.8067 210.958 36.8067 210.958 36.8067C210.958 36.8067 210.958 36.8067 210.958 36.8067C210.958 36.8067 210.958 36.8067 210.958 36.8067C210.958 36.8067 210.958 36.8067 210.958 36.8067C210.958 36.8067 210.958 36.8067 210.958 36.8067C210.958 36.8067 210.958 36.8067 210.958 36.8067C210.959 36.8067 210.959 36.8067 210.959 36.8067C210.959 36.8067 210.959 36.8067 210.959 36.8067C210.959 36.8067 210.959 36.8067 210.959 36.8067C210.959 36.8067 210.959 36.8067 210.959 36.8067C210.959 36.8067 210.959 36.8067 210.959 36.8067C210.959 36.8067 210.959 36.8067 210.959 36.8067C210.959 36.8067 210.959 36.8067 210.959 36.8067C210.959 36.8067 210.959 36.8067 210.959 36.8067C210.959 36.8067 210.959 36.8067 210.959 36.8067C210.959 36.8067 210.959 36.8067 210.959 36.8067C210.959 36.8067 210.96 36.8067 210.96 36.8067C210.96 36.8067 210.96 36.8067 210.96 36.8067C210.96 36.8067 210.96 36.8067 210.96 36.8067C210.96 36.8067 210.96 36.8067 210.96 36.8067C210.96 36.8067 210.96 36.8067 210.96 36.8067C210.96 36.8067 210.96 36.8067 210.96 36.8067C210.96 36.8067 210.96 36.8067 210.96 36.8067C210.96 36.8067 210.96 36.8067 210.96 36.8067C210.96 36.8067 210.96 36.8067 210.96 36.8067C210.96 36.8067 210.96 36.8067 210.96 36.8067C210.96 36.8067 210.96 36.8067 210.96 36.8067C210.96 36.8067 210.96 36.8067 210.96 36.8067C210.96 36.8067 210.961 36.8067 210.961 36.8067C210.961 36.8067 210.961 36.8067 210.961 36.8067C210.961 36.8067 210.961 36.8067 210.961 36.8067C210.961 36.8067 210.961 36.8067 210.961 36.8067C210.961 36.8067 210.961 36.8067 210.961 36.8067C210.961 36.8067 210.961 36.8067 210.961 36.8067C210.961 36.8067 210.961 36.8067 210.961 36.8067C210.961 36.8067 210.961 36.8067 210.961 36.8067C210.961 36.8067 210.961 36.8067 210.961 36.8067C210.961 36.8067 210.961 36.8067 210.961 36.8067C210.961 36.8067 210.961 36.8067 210.961 36.8067C210.961 36.8067 210.961 36.8067 210.961 36.8067C210.961 36.8067 210.961 36.8067 210.962 36.8067C210.962 36.8067 210.962 36.8067 210.962 36.8067C210.962 36.8067 210.962 36.8067 210.962 36.8067C210.962 36.8067 210.962 36.8067 210.962 36.8067C210.962 36.8067 210.962 36.8067 210.962 36.8067C210.962 36.8067 210.962 36.8067 210.962 36.8067C210.962 36.8067 210.962 36.8067 210.962 36.8067C210.962 36.8067 210.962 36.8067 210.962 36.8067C210.962 36.8067 210.962 36.8067 210.962 36.8067C210.962 36.8067 210.962 36.8067 210.962 36.8067C210.962 36.8067 210.962 36.8067 210.962 36.8067C210.962 36.8067 210.962 36.8067 210.962 36.8067C210.962 36.8067 210.962 36.8067 210.962 36.8067C210.962 36.8067 210.962 36.8067 210.962 36.8067C210.962 36.8067 210.962 36.8067 210.962 36.8067C210.963 36.8067 210.963 36.8067 210.963 36.8067C210.963 36.8067 210.963 36.8067 210.963 36.8067C210.963 36.8067 210.963 36.8067 210.963 36.8067C210.963 36.8067 210.963 36.8067 210.963 36.8067C210.963 36.8067 210.963 36.8067 210.963 36.8067C210.963 36.8067 210.963 36.8067 210.963 36.8067C210.963 36.8067 210.963 36.8067 210.963 36.8067C210.963 36.8067 210.963 36.8067 210.963 36.8067C210.963 36.8067 210.963 36.8067 210.963 36.8067C210.963 36.8067 210.963 36.8067 210.963 36.8067C210.963 36.8067 210.963 36.8067 210.963 36.8067C210.963 36.8067 210.963 36.8067 210.963 36.8067C210.963 36.8067 210.963 36.8067 210.963 36.8067C210.963 36.8067 210.963 36.8067 210.963 36.8067C210.963 36.8067 210.963 36.8067 210.963 36.8067C210.963 36.8067 210.963 36.8067 210.964 36.8067C210.964 36.8067 210.964 36.8067 210.964 36.8067C210.964 36.8067 210.964 36.8067 210.964 36.8067C210.964 36.8067 210.964 36.8067 210.964 36.8067C210.964 36.8067 210.964 36.8067 210.964 36.8067C210.964 36.8067 210.964 36.8067 210.964 36.8067C210.964 36.8067 210.964 36.8067 210.964 36.8067C210.964 36.8067 210.964 36.8067 210.964 36.8067C210.964 36.8067 210.964 36.8067 210.964 36.8067C210.964 36.8067 210.964 36.8067 210.964 36.8067C210.964 36.8067 210.964 36.8067 210.964 36.8067C210.964 36.8067 210.964 36.8067 210.964 36.8067C210.964 36.8067 210.964 36.8067 210.964 36.8067C210.964 36.8067 210.964 36.8067 210.964 36.8067C210.964 36.8067 210.964 36.8067 210.964 36.8067C210.964 36.8067 210.964 36.8067 210.964 36.8067C210.964 36.8067 210.964 36.8067 210.964 36.8067C210.964 36.8067 210.964 36.8067 210.964 36.8067C210.964 36.8067 210.964 36.8067 210.964 36.8067C210.964 36.8067 210.965 36.8067 210.965 36.8067C210.965 36.8067 210.965 36.8067 210.965 36.8067C210.965 36.8067 210.965 36.8067 210.965 36.8067C210.965 36.8067 210.965 36.8067 210.965 36.8067C210.965 36.8067 210.965 36.8067 210.965 36.8067C210.965 36.8067 210.965 36.8067 210.965 36.8067C210.965 36.8067 210.965 36.8067 210.965 36.8067C210.965 36.8067 210.965 36.8067 210.965 36.8067C210.965 36.8067 210.965 36.8067 210.965 36.8067C210.965 36.8067 210.965 36.8067 210.965 36.8067C210.965 36.8067 210.965 36.8067 210.965 36.8067C210.965 36.8067 210.965 36.8067 210.965 36.8067C210.965 36.8067 210.965 36.8067 210.965 36.8067C210.965 36.8067 210.965 36.8067 210.965 36.8067C210.965 36.8067 210.965 36.8067 210.965 36.8067C210.965 36.8067 210.965 36.8067 210.965 36.8067C210.965 36.8067 210.965 36.8067 210.965 36.8067C210.965 36.8067 210.965 36.8067 210.965 36.8067C210.965 36.8067 210.965 36.8067 210.965 36.8067C210.965 36.8067 210.965 36.8067 210.965 36.8067C210.965 36.8067 210.965 36.8067 210.965 36.8067C210.965 36.8067 210.965 36.8067 210.965 36.8067C210.965 36.8067 210.965 36.8067 210.965 36.8067C210.965 36.8067 210.966 36.8067 210.966 36.8067C210.966 36.8067 210.966 36.8067 210.966 36.8067C210.966 36.8067 210.966 36.8067 210.966 36.8067C210.966 36.8067 210.966 36.8067 210.966 36.8067C210.966 36.8067 210.966 36.8067 210.966 36.8067C210.966 36.8067 210.966 36.8067 210.966 36.8067C210.966 36.8067 210.966 36.8067 210.966 36.8067C210.966 36.8067 210.966 36.8067 210.966 36.8067C210.966 36.8067 210.966 36.8067 210.966 36.8067C210.966 36.8067 210.966 36.8067 210.966 36.8067C210.966 36.8067 210.966 36.8067 210.966 36.8067C210.966 36.8067 210.966 36.8067 210.966 36.8067C210.966 36.8067 210.966 36.8067 210.966 36.8067C210.966 36.8067 210.966 36.8067 210.966 36.8067C210.966 36.8067 210.966 36.8067 210.966 36.8067C210.966 36.8067 210.966 36.8067 210.966 36.8067C210.966 36.8067 210.966 36.8067 210.966 36.8067C210.966 36.8067 210.966 36.8067 210.966 36.8067C210.966 36.8067 210.966 36.8067 210.966 36.8067C210.966 36.8067 210.966 36.8067 210.966 36.8067C210.966 36.8067 210.966 36.8067 210.966 36.8067C210.966 36.8067 210.966 36.8067 210.966 36.8067C210.966 36.8067 210.966 36.8067 210.966 36.8067C210.966 36.8067 210.966 36.8067 210.966 36.8067C210.966 36.8067 210.966 36.8067 210.966 36.8067C210.966 36.8067 210.966 36.8067 210.966 36.8067C210.966 36.8067 210.966 36.8067 210.966 36.8067C210.966 36.8067 210.966 36.8067 210.966 36.8067C210.966 36.8067 210.966 36.8067 210.966 36.8067C210.966 36.8067 210.966 36.8067 210.967 36.8067H210.967C210.967 36.8067 210.967 36.8067 210.967 36.8067C210.967 36.8067 210.967 36.8067 210.967 36.8067C210.967 36.8067 210.967 36.8067 210.967 36.8067H210.967C210.967 36.8067 210.967 36.8067 210.967 36.8067C210.967 36.8067 210.967 36.8067 210.967 36.8067H210.967C210.967 36.8067 210.967 36.8067 210.967 36.8067C210.967 36.8067 210.967 36.8067 210.967 36.8067H210.967C210.967 36.8067 210.967 36.8067 210.967 36.8067H210.967C210.967 36.8067 210.967 36.8067 210.967 36.8067H210.967C210.967 36.8067 210.967 36.8067 210.967 36.8067H210.967C210.967 36.8067 210.967 36.8067 210.967 36.8067H210.967C210.967 36.8067 210.967 36.8067 210.967 36.8067H210.967H210.967C210.967 36.8067 210.967 36.8067 210.967 36.8067H210.967C210.967 36.8067 210.967 36.8067 210.967 36.8067C210.967 36.8067 210.967 36.8067 210.967 36.8067H210.967H210.967C210.967 36.8067 210.967 36.8067 210.967 36.8067C210.967 36.8067 210.967 36.8067 210.967 36.8067C210.967 36.8067 210.967 36.8067 210.967 36.8067H210.967H210.967C210.967 36.8067 210.967 36.8067 210.967 36.8067C210.967 36.8067 210.967 36.8067 210.967 36.8067C210.967 36.8067 210.967 36.8067 210.967 36.8067C210.967 36.8067 210.967 36.8067 210.967 36.8067C210.967 36.8067 210.967 36.8067 210.967 36.8067C210.967 36.8067 210.967 36.8067 210.967 36.8067C210.967 36.8067 210.967 36.8067 210.967 36.8067C210.967 36.8067 210.967 36.8067 210.967 36.8067C210.967 36.8067 210.967 36.8067 210.967 36.8067C210.967 36.8067 210.967 36.8067 210.967 36.8067C210.967 36.8067 210.967 36.8067 210.967 36.8067C210.967 36.8067 210.967 36.8067 210.967 36.8067C210.967 36.8067 210.967 36.8067 210.967 36.8067C210.967 36.8067 210.967 36.8067 210.967 36.8067C210.967 36.8067 210.967 36.8067 210.967 36.8067H210.967H210.968C210.968 36.8067 210.968 36.8067 210.968 36.8067C210.968 36.8067 210.968 36.8067 210.968 36.8067C210.968 36.8067 210.968 36.8067 210.968 36.8067H210.968C210.968 36.8067 210.968 36.8067 210.968 36.8067C210.968 36.8067 210.968 36.8067 210.968 36.8067H210.968C210.968 36.8067 210.968 36.8067 210.968 36.8067H210.968C210.968 36.8067 210.968 36.8067 210.968 36.8067H210.968C210.968 36.8067 210.968 36.8067 210.968 36.8067C210.968 36.8067 210.968 36.8067 210.968 36.8067H210.968H210.968C210.968 36.8067 210.968 36.8067 210.968 36.8067C210.968 36.8067 210.968 36.8067 210.968 36.8067H210.968H210.968C210.968 36.8067 210.968 36.8067 210.968 36.8067H210.968C210.968 36.8067 210.968 36.8067 210.968 36.8067C210.968 36.8067 210.968 36.8067 210.968 36.8067C210.968 36.8067 210.968 36.8067 210.968 36.8067C210.968 36.8067 210.968 36.8067 210.968 36.8067C210.968 36.8067 210.968 36.8067 210.968 36.8067H210.968H210.968C210.968 36.8067 210.968 36.8067 210.968 36.8067H210.968V36.05ZM210.918 35.2933H202.618V36.8067H210.918V35.2933ZM202.618 35.2933H198.218V36.8067H202.618V35.2933ZM198.218 36.8067C198.95 36.8067 199.591 36.6372 200.128 36.2921C200.664 35.948 201.046 35.462 201.312 34.9102C201.83 33.8363 201.95 32.4356 201.925 31.0362L200.411 31.0638C200.436 32.4144 200.306 33.5137 199.949 34.2523C199.778 34.6067 199.565 34.8551 199.311 35.0188C199.057 35.1816 198.711 35.2933 198.218 35.2933V36.8067ZM201.924 31.0744L202.124 24.8744L200.612 24.8256L200.412 31.0256L201.924 31.0744ZM202.108 24.6911L197.908 5.14107L196.428 5.45893L200.628 25.0089L202.108 24.6911ZM197.88 5.0437C197.418 3.75967 196.855 2.59704 196.123 1.74466C195.376 0.874301 194.419 0.293318 193.218 0.293318V1.80668C193.867 1.80668 194.435 2.10069 194.975 2.73033C195.531 3.37796 196.018 4.34032 196.456 5.5563L197.88 5.0437ZM193.218 1.80668H205.268V0.293318H193.218V1.80668ZM205.268 0.293318C204.426 0.293318 203.733 0.526327 203.221 0.997796C202.718 1.45978 202.476 2.0711 202.367 2.6634C202.156 3.81378 202.404 5.16612 202.575 6.04442L204.061 5.75557C203.882 4.83388 203.705 3.76121 203.856 2.9366C203.928 2.5414 204.064 2.27772 204.245 2.11157C204.415 1.95492 204.71 1.80668 205.268 1.80668V0.293318ZM202.561 5.9C202.561 5.9041 202.561 5.91775 202.562 5.93173C202.562 5.9462 202.563 5.97281 202.566 6.00498C202.573 6.07957 202.593 6.18011 202.647 6.28839C202.695 6.38374 202.752 6.44881 202.777 6.47651C202.8 6.50258 202.826 6.52829 202.833 6.53506L203.903 5.46494C203.885 5.44671 203.892 5.45366 203.901 5.46412C203.912 5.47619 203.96 5.52876 204.001 5.61161C204.049 5.70739 204.066 5.79542 204.072 5.8544C204.076 5.89262 204.075 5.9265 204.075 5.9H202.561ZM202.627 6.15424L206.177 23.2042L207.659 22.8958L204.109 5.84576L202.627 6.15424ZM207.655 23.2203L211.755 5.4703L210.281 5.1297L206.181 22.8797L207.655 23.2203Z" fill="white" mask="url(#path-1-outside-1_924_1875)"/>
</g>
<defs>
<filter id="filter0_d_924_1875" x="0.75" y="0.550049" width="219.418" height="50.95" filterUnits="userSpaceOnUse" color-interpolation-filters="sRGB">
<feFlood flood-opacity="0" result="BackgroundImageFix"/>
<feColorMatrix in="SourceAlpha" type="matrix" values="0 0 0 0 0 0 0 0 0 0 0 0 0 0 0 0 0 0 127 0" result="hardAlpha"/>
<feOffset dy="4"/>
<feGaussianBlur stdDeviation="2"/>
<feComposite in2="hardAlpha" operator="out"/>
<feColorMatrix type="matrix" values="0 0 0 0 0 0 0 0 0 0 0 0 0 0 0 0 0 0 0.25 0"/>
<feBlend mode="normal" in2="BackgroundImageFix" result="effect1_dropShadow_924_1875"/>
<feBlend mode="normal" in="SourceGraphic" in2="effect1_dropShadow_924_1875" result="shape"/>
</filter>
</defs>
</svg>
