<svg width="216" height="47" viewBox="0 0 216 47" fill="none" xmlns="http://www.w3.org/2000/svg">
<g filter="url(#filter0_d_924_1871)">
<mask id="path-1-outside-1_924_1871" maskUnits="userSpaceOnUse" x="3" y="0" width="210" height="34" fill="black">
<rect fill="white" x="3" width="210" height="34"/>
<path d="M21.94 28.04C22.336 30.328 22.908 31.868 24.8 32.044L13.36 31.956C16.704 31.604 15.428 26.588 15.032 24.476L9.136 24.344C8.564 27.028 7.42 31.472 10.588 31.956H4.12C6.716 31.516 6.98 29.492 7.728 26.06L11.952 6.04L11.38 2.124L17.232 1.244L21.94 28.04ZM9.576 23.112H14.768L12.744 8.196H12.612L9.576 23.112ZM46.6412 29.14C49.0612 27.6 50.4252 26.324 52.0532 23.068L53.0212 23.508C50.8212 28.524 46.0692 32.352 38.8092 32.352C17.9972 32.352 17.9972 0.803998 38.8092 0.803998C46.0692 0.803998 50.8212 4.676 53.0212 9.692L46.5092 17.7C46.8172 9.34 41.3172 1.772 35.7732 1.948C20.0652 2.432 31.9452 38.6 46.6412 29.14ZM64.1322 1.244H75.3522C73.4162 1.376 72.7562 3.18 72.7562 5.028V27.644C72.7562 29.976 73.4162 31.868 75.3522 32.044H64.1322C65.9362 31.868 66.6842 30.24 66.7282 28.216V15.984H61.4922V28.7C61.7122 30.504 62.4162 31.868 64.0442 32.044H53.1322C54.4522 31.912 55.2002 30.988 55.5522 29.668V3.576C55.2002 2.256 54.4522 1.332 53.1322 1.244H64.0442C62.4162 1.376 61.7122 2.74 61.4922 4.544V15.192H66.7282V5.028C66.6842 3.004 65.9362 1.376 64.1322 1.244ZM84.2206 27.644C84.2206 29.976 84.8806 31.868 86.8166 32.044H75.9046C77.6646 31.868 78.4126 30.24 78.5006 28.216V5.028C78.4126 3.004 77.6646 1.376 75.9046 1.244H86.8166C84.8806 1.376 84.2646 3.268 84.2206 5.6V27.644ZM97.6733 31.12C101.545 31.12 103.393 24.08 103.393 24.08L101.721 31.956L91.1613 32.044H87.3333C89.4893 32.044 89.9733 30.064 89.8853 27.644L90.0173 23.464L89.8853 5.512C89.9733 3.092 89.4893 1.244 87.3333 1.244H101.061L101.809 10C101.809 9.912 100.445 1.992 97.8933 1.992H95.6933V15.236H96.4853C99.4333 15.236 99.8733 10.88 99.8733 10.704V22.188C99.8733 22.188 99.6093 16.204 96.4853 16.204H95.6933V31.12H97.6733ZM119.49 9.956C120.106 6.656 120.854 1.816 117.994 1.244H124.462C121.866 1.64 121.382 3.664 120.854 7.14L117.554 28.92L118.17 32.044H111.966L106.026 5.204C105.542 2.916 104.486 1.376 102.638 1.2L113.462 1.244C111.482 1.244 111.966 3.796 112.582 7.448L116.894 27.38L119.49 9.956ZM134.068 31.12C137.94 31.12 139.788 24.08 139.788 24.08L138.116 31.956L127.556 32.044H123.728C125.884 32.044 126.368 30.064 126.28 27.644L126.412 23.464L126.28 5.512C126.368 3.092 125.884 1.244 123.728 1.244H137.456L138.204 10C138.204 9.912 136.84 1.992 134.288 1.992H132.088V15.236H132.88C135.828 15.236 136.268 10.88 136.268 10.704V22.188C136.268 22.188 136.004 16.204 132.88 16.204H132.088V31.12H134.068ZM161.297 1.244C159.625 1.244 158.613 2.344 158.613 3.928V29.316C158.965 30.9 159.625 32.044 161.297 32.044H149.857C151.837 32.044 152.409 30.416 152.673 28.304V8.24L148.493 32.044L143.961 7.184V27.688C144.225 30.108 144.709 32.044 146.865 32.044H140.441C142.509 32.044 143.037 30.196 143.301 27.864V5.116C143.037 2.872 142.553 1.332 140.617 1.244H149.153L150.781 13.52L152.937 1.244H158.613H161.297ZM172.138 31.12C176.01 31.12 177.858 24.08 177.858 24.08L176.186 31.956L165.626 32.044H161.798C163.954 32.044 164.438 30.064 164.35 27.644L164.482 23.464L164.35 5.512C164.438 3.092 163.954 1.244 161.798 1.244H175.526L176.274 10C176.274 9.912 174.91 1.992 172.358 1.992H170.158V15.236H170.95C173.898 15.236 174.338 10.88 174.338 10.704V22.188C174.338 22.188 174.074 16.204 170.95 16.204H170.158V31.12H172.138ZM190.303 21.88V4.192C190.127 2.564 189.467 1.244 187.795 1.244H193.955C191.799 1.244 191.315 3.18 191.403 5.6L191.315 32.088H186.475L182.119 10.528L182.251 27.644C182.207 30.064 182.691 32.044 184.847 32.044H178.643C180.227 32.044 180.931 30.988 181.151 29.492L180.931 5.468C181.019 3.048 180.535 1.244 178.379 1.244H185.859L190.303 21.88ZM194.997 1.244H210.309L211.805 9.648C210.837 6.744 210.221 3.4 206.525 3.4H205.733V29.8C206.129 31.12 206.921 32.044 208.373 32.044L204.545 31.956L201.025 32.044H197.197C199.353 32.044 199.837 30.064 199.793 27.644L199.837 23.464V3.4H198.825C195.129 3.4 194.469 6.744 193.545 9.648L194.997 1.244Z"/>
</mask>
<path d="M21.94 28.04C22.336 30.328 22.908 31.868 24.8 32.044L13.36 31.956C16.704 31.604 15.428 26.588 15.032 24.476L9.136 24.344C8.564 27.028 7.42 31.472 10.588 31.956H4.12C6.716 31.516 6.98 29.492 7.728 26.06L11.952 6.04L11.38 2.124L17.232 1.244L21.94 28.04ZM9.576 23.112H14.768L12.744 8.196H12.612L9.576 23.112ZM46.6412 29.14C49.0612 27.6 50.4252 26.324 52.0532 23.068L53.0212 23.508C50.8212 28.524 46.0692 32.352 38.8092 32.352C17.9972 32.352 17.9972 0.803998 38.8092 0.803998C46.0692 0.803998 50.8212 4.676 53.0212 9.692L46.5092 17.7C46.8172 9.34 41.3172 1.772 35.7732 1.948C20.0652 2.432 31.9452 38.6 46.6412 29.14ZM64.1322 1.244H75.3522C73.4162 1.376 72.7562 3.18 72.7562 5.028V27.644C72.7562 29.976 73.4162 31.868 75.3522 32.044H64.1322C65.9362 31.868 66.6842 30.24 66.7282 28.216V15.984H61.4922V28.7C61.7122 30.504 62.4162 31.868 64.0442 32.044H53.1322C54.4522 31.912 55.2002 30.988 55.5522 29.668V3.576C55.2002 2.256 54.4522 1.332 53.1322 1.244H64.0442C62.4162 1.376 61.7122 2.74 61.4922 4.544V15.192H66.7282V5.028C66.6842 3.004 65.9362 1.376 64.1322 1.244ZM84.2206 27.644C84.2206 29.976 84.8806 31.868 86.8166 32.044H75.9046C77.6646 31.868 78.4126 30.24 78.5006 28.216V5.028C78.4126 3.004 77.6646 1.376 75.9046 1.244H86.8166C84.8806 1.376 84.2646 3.268 84.2206 5.6V27.644ZM97.6733 31.12C101.545 31.12 103.393 24.08 103.393 24.08L101.721 31.956L91.1613 32.044H87.3333C89.4893 32.044 89.9733 30.064 89.8853 27.644L90.0173 23.464L89.8853 5.512C89.9733 3.092 89.4893 1.244 87.3333 1.244H101.061L101.809 10C101.809 9.912 100.445 1.992 97.8933 1.992H95.6933V15.236H96.4853C99.4333 15.236 99.8733 10.88 99.8733 10.704V22.188C99.8733 22.188 99.6093 16.204 96.4853 16.204H95.6933V31.12H97.6733ZM119.49 9.956C120.106 6.656 120.854 1.816 117.994 1.244H124.462C121.866 1.64 121.382 3.664 120.854 7.14L117.554 28.92L118.17 32.044H111.966L106.026 5.204C105.542 2.916 104.486 1.376 102.638 1.2L113.462 1.244C111.482 1.244 111.966 3.796 112.582 7.448L116.894 27.38L119.49 9.956ZM134.068 31.12C137.94 31.12 139.788 24.08 139.788 24.08L138.116 31.956L127.556 32.044H123.728C125.884 32.044 126.368 30.064 126.28 27.644L126.412 23.464L126.28 5.512C126.368 3.092 125.884 1.244 123.728 1.244H137.456L138.204 10C138.204 9.912 136.84 1.992 134.288 1.992H132.088V15.236H132.88C135.828 15.236 136.268 10.88 136.268 10.704V22.188C136.268 22.188 136.004 16.204 132.88 16.204H132.088V31.12H134.068ZM161.297 1.244C159.625 1.244 158.613 2.344 158.613 3.928V29.316C158.965 30.9 159.625 32.044 161.297 32.044H149.857C151.837 32.044 152.409 30.416 152.673 28.304V8.24L148.493 32.044L143.961 7.184V27.688C144.225 30.108 144.709 32.044 146.865 32.044H140.441C142.509 32.044 143.037 30.196 143.301 27.864V5.116C143.037 2.872 142.553 1.332 140.617 1.244H149.153L150.781 13.52L152.937 1.244H158.613H161.297ZM172.138 31.12C176.01 31.12 177.858 24.08 177.858 24.08L176.186 31.956L165.626 32.044H161.798C163.954 32.044 164.438 30.064 164.35 27.644L164.482 23.464L164.35 5.512C164.438 3.092 163.954 1.244 161.798 1.244H175.526L176.274 10C176.274 9.912 174.91 1.992 172.358 1.992H170.158V15.236H170.95C173.898 15.236 174.338 10.88 174.338 10.704V22.188C174.338 22.188 174.074 16.204 170.95 16.204H170.158V31.12H172.138ZM190.303 21.88V4.192C190.127 2.564 189.467 1.244 187.795 1.244H193.955C191.799 1.244 191.315 3.18 191.403 5.6L191.315 32.088H186.475L182.119 10.528L182.251 27.644C182.207 30.064 182.691 32.044 184.847 32.044H178.643C180.227 32.044 180.931 30.988 181.151 29.492L180.931 5.468C181.019 3.048 180.535 1.244 178.379 1.244H185.859L190.303 21.88ZM194.997 1.244H210.309L211.805 9.648C210.837 6.744 210.221 3.4 206.525 3.4H205.733V29.8C206.129 31.12 206.921 32.044 208.373 32.044L204.545 31.956L201.025 32.044H197.197C199.353 32.044 199.837 30.064 199.793 27.644L199.837 23.464V3.4H198.825C195.129 3.4 194.469 6.744 193.545 9.648L194.997 1.244Z" fill="url(#paint0_linear_924_1871)"/>
<path d="M21.94 28.04L22.6856 27.911L22.6853 27.9091L21.94 28.04ZM24.8 32.044L24.7942 32.8007L24.8701 31.2906L24.8 32.044ZM13.36 31.956L13.2808 31.2035L13.3542 32.7127L13.36 31.956ZM15.032 24.476L15.7757 24.3366L15.6626 23.7332L15.0489 23.7195L15.032 24.476ZM9.136 24.344L9.15294 23.5875L8.52654 23.5735L8.39594 24.1863L9.136 24.344ZM10.588 31.956V32.7127L10.7023 31.208L10.588 31.956ZM4.12 31.956L3.99355 31.21L4.12 32.7127V31.956ZM7.728 26.06L8.46734 26.2211L8.46838 26.2162L7.728 26.06ZM11.952 6.04L12.6924 6.19621L12.7202 6.06417L12.7007 5.93063L11.952 6.04ZM11.38 2.124L11.2675 1.37573L10.5224 1.48778L10.6313 2.23336L11.38 2.124ZM17.232 1.244L17.9773 1.11306L17.8495 0.385952L17.1195 0.495732L17.232 1.244ZM9.576 23.112L8.83452 22.9611L8.64979 23.8687H9.576V23.112ZM14.768 23.112V23.8687H15.6343L15.5178 23.0103L14.768 23.112ZM12.744 8.196L13.4938 8.09426L13.4049 7.43932H12.744V8.196ZM12.612 8.196V7.43932H11.9938L11.8705 8.04508L12.612 8.196ZM21.1944 28.169C21.3933 29.3181 21.653 30.4042 22.1656 31.2323C22.7155 32.1206 23.5403 32.6868 24.7299 32.7974L24.8701 31.2906C24.1677 31.2252 23.7605 30.9334 23.4524 30.4357C23.107 29.8778 22.8827 29.0499 22.6856 27.911L21.1944 28.169ZM24.8058 31.2873L13.3658 31.1993L13.3542 32.7127L24.7942 32.8007L24.8058 31.2873ZM13.4392 32.7085C14.4986 32.597 15.2576 32.0938 15.7299 31.3359C16.1761 30.6198 16.3282 29.739 16.3548 28.9C16.4077 27.2316 15.963 25.3355 15.7757 24.3366L14.2883 24.6154C14.497 25.7285 14.8883 27.3964 14.8422 28.852C14.8193 29.575 14.6881 30.1462 14.4455 30.5356C14.2289 30.8832 13.8934 31.139 13.2808 31.2035L13.4392 32.7085ZM15.0489 23.7195L9.15294 23.5875L9.11906 25.1005L15.0151 25.2325L15.0489 23.7195ZM8.39594 24.1863C8.11966 25.4827 7.66169 27.3747 7.70307 28.9943C7.72393 29.8109 7.87109 30.651 8.30262 31.3411C8.75637 32.0667 9.47838 32.5519 10.4737 32.704L10.7023 31.208C10.1136 31.1181 9.79063 30.8663 9.58576 30.5387C9.35866 30.1755 9.23357 29.6461 9.21593 28.9557C9.18031 27.5613 9.58034 25.8893 9.87606 24.5017L8.39594 24.1863ZM10.588 31.1993H4.12V32.7127H10.588V31.1993ZM4.24645 32.702C4.99005 32.576 5.61398 32.3277 6.13171 31.9341C6.64913 31.5407 7.01655 31.0356 7.29679 30.4623C7.83242 29.3667 8.10664 27.876 8.46732 26.2211L6.98868 25.8989C6.60136 27.676 6.36958 28.9133 5.93721 29.7977C5.73345 30.2144 5.50137 30.5123 5.21579 30.7294C4.93052 30.9463 4.54795 31.116 3.99355 31.21L4.24645 32.702ZM8.46838 26.2162L12.6924 6.19621L11.2116 5.88379L6.98762 25.9038L8.46838 26.2162ZM12.7007 5.93063L12.1287 2.01463L10.6313 2.23336L11.2033 6.14936L12.7007 5.93063ZM11.4925 2.87226L17.3445 1.99226L17.1195 0.495732L11.2675 1.37573L11.4925 2.87226ZM16.4867 1.37494L21.1947 28.1709L22.6853 27.9091L17.9773 1.11306L16.4867 1.37494ZM9.576 23.8687H14.768V22.3553H9.576V23.8687ZM15.5178 23.0103L13.4938 8.09426L11.9942 8.29774L14.0182 23.2137L15.5178 23.0103ZM12.744 7.43932H12.612V8.95268H12.744V7.43932ZM11.8705 8.04508L8.83452 22.9611L10.3175 23.2629L13.3535 8.34692L11.8705 8.04508ZM46.6412 29.14L46.2349 28.5016L46.2316 28.5037L46.6412 29.14ZM52.0532 23.068L52.3663 22.3791L51.7025 22.0774L51.3764 22.7296L52.0532 23.068ZM53.0212 23.508L53.7141 23.8119L54.0141 23.1281L53.3343 22.8191L53.0212 23.508ZM53.0212 9.692L53.6083 10.1694L53.8997 9.81105L53.7141 9.38807L53.0212 9.692ZM46.5092 17.7L45.753 17.6721L45.6698 19.9316L47.0963 18.1774L46.5092 17.7ZM35.7732 1.948L35.7965 2.70432L35.7972 2.7043L35.7732 1.948ZM47.0474 29.7784C48.2825 28.9924 49.2901 28.2477 50.2005 27.2605C51.1106 26.2735 51.8959 25.0745 52.73 23.4064L51.3764 22.7296C50.5825 24.3175 49.8717 25.3845 49.0879 26.2345C48.3043 27.0843 47.4198 27.7476 46.2349 28.5016L47.0474 29.7784ZM51.7401 23.7569L52.7081 24.1969L53.3343 22.8191L52.3663 22.3791L51.7401 23.7569ZM52.3282 23.2041C50.2438 27.9565 45.7565 31.5953 38.8092 31.5953V33.1087C46.3819 33.1087 51.3985 29.0915 53.7141 23.8119L52.3282 23.2041ZM38.8092 31.5953C33.8143 31.5953 30.1224 29.7103 27.6706 26.9229C25.2061 24.121 23.9569 20.3624 23.9569 16.578C23.9569 12.7936 25.2061 9.03502 27.6706 6.23313C30.1224 3.44574 33.8143 1.56068 38.8092 1.56068V0.0473191C33.3981 0.0473191 29.2855 2.10575 26.5343 5.23362C23.7958 8.34697 22.4435 12.4754 22.4435 16.578C22.4435 20.6806 23.7958 24.809 26.5343 27.9224C29.2855 31.0502 33.3981 33.1087 38.8092 33.1087V31.5953ZM38.8092 1.56068C45.7527 1.56068 50.2423 5.23991 52.3282 9.99593L53.7141 9.38807C51.4001 4.11209 46.3857 0.0473191 38.8092 0.0473191V1.56068ZM52.4341 9.2146L45.9221 17.2226L47.0963 18.1774L53.6083 10.1694L52.4341 9.2146ZM47.2654 17.7279C47.4255 13.3807 46.0781 9.23774 43.9567 6.19065C41.8509 3.16606 38.8793 1.09233 35.7492 1.1917L35.7972 2.7043C38.211 2.62767 40.7615 4.24993 42.7147 7.05535C44.6522 9.83826 45.9009 13.6593 45.753 17.6721L47.2654 17.7279ZM35.7499 1.19168C33.6309 1.25697 31.9233 1.92946 30.6262 3.07656C29.3373 4.21644 28.5064 5.77788 28.0458 7.53987C27.1294 11.0455 27.6395 15.4788 29.0935 19.5287C30.5479 23.5795 32.9952 27.3822 36.0984 29.5688C37.6585 30.668 39.4021 31.3702 41.273 31.4632C43.1494 31.5565 45.0968 31.0341 47.0508 29.7763L46.2316 28.5037C44.5116 29.6109 42.873 30.0276 41.3481 29.9518C39.8178 29.8757 38.345 29.3005 36.9701 28.3317C34.2034 26.3823 31.907 22.8865 30.5179 19.0173C29.1284 15.1472 28.6953 11.039 29.51 7.92263C29.9149 6.37361 30.6182 5.10393 31.6288 4.21019C32.6312 3.32366 33.9885 2.76003 35.7965 2.70432L35.7499 1.19168ZM64.1322 1.244V0.487319L64.077 1.99866L64.1322 1.244ZM75.3522 1.244L75.4037 1.99892L75.3522 0.487319V1.244ZM75.3522 32.044V32.8007L75.4207 31.2904L75.3522 32.044ZM64.1322 32.044L64.0587 31.2909L64.1322 32.8007V32.044ZM66.7282 28.216L67.4847 28.2324L67.4849 28.2242V28.216H66.7282ZM66.7282 15.984H67.4849V15.2273H66.7282V15.984ZM61.4922 15.984V15.2273H60.7355V15.984H61.4922ZM61.4922 28.7H60.7355V28.746L60.7411 28.7916L61.4922 28.7ZM64.0442 32.044V32.8007L64.1255 31.2917L64.0442 32.044ZM53.1322 32.044L53.0569 31.2911L53.1322 32.8007V32.044ZM55.5522 29.668L56.2833 29.863L56.3089 29.7672V29.668H55.5522ZM55.5522 3.576H56.3089V3.47684L56.2833 3.38103L55.5522 3.576ZM53.1322 1.244V0.487319L53.0819 1.999L53.1322 1.244ZM64.0442 1.244L64.1054 1.9982L64.0442 0.487319V1.244ZM61.4922 4.544L60.7411 4.4524L60.7355 4.49803V4.544H61.4922ZM61.4922 15.192H60.7355V15.9487H61.4922V15.192ZM66.7282 15.192V15.9487H67.4849V15.192H66.7282ZM66.7282 5.028H67.4849V5.01977L67.4847 5.01155L66.7282 5.028ZM64.1322 2.00068H75.3522V0.487319H64.1322V2.00068ZM75.3008 0.489071C74.0607 0.573624 73.1964 1.21575 72.6744 2.11155C72.1748 2.96901 71.9995 4.03125 71.9995 5.028H73.5129C73.5129 4.17675 73.6676 3.41298 73.982 2.87345C74.274 2.37225 74.7078 2.04637 75.4037 1.99892L75.3008 0.489071ZM71.9995 5.028V27.644H73.5129V5.028H71.9995ZM71.9995 27.644C71.9995 28.8619 72.1687 30.0582 72.6562 31.0003C73.1667 31.9867 74.0271 32.6833 75.2837 32.7976L75.4207 31.2904C74.7413 31.2287 74.3038 30.8913 74.0003 30.3047C73.6737 29.6738 73.5129 28.7581 73.5129 27.644H71.9995ZM75.3522 31.2873H64.1322V32.8007H75.3522V31.2873ZM64.2057 32.7971C65.3583 32.6847 66.2012 32.0899 66.7354 31.2184C67.2493 30.3799 67.4611 29.3181 67.4847 28.2324L65.9717 28.1996C65.9513 29.1379 65.7671 29.9021 65.4451 30.4276C65.1432 30.9201 64.7102 31.2273 64.0587 31.2909L64.2057 32.7971ZM67.4849 28.216V15.984H65.9715V28.216H67.4849ZM66.7282 15.2273H61.4922V16.7407H66.7282V15.2273ZM60.7355 15.984V28.7H62.2489V15.984H60.7355ZM60.7411 28.7916C60.8583 29.7524 61.1123 30.6819 61.6179 31.4129C62.1447 32.1747 62.9215 32.6837 63.9629 32.7963L64.1255 31.2917C63.5389 31.2283 63.1497 30.9673 62.8626 30.5521C62.5541 30.1061 62.3462 29.4516 62.2433 28.6084L60.7411 28.7916ZM64.0442 31.2873H53.1322V32.8007H64.0442V31.2873ZM53.2075 32.7969C54.0424 32.7134 54.7275 32.3709 55.2511 31.8255C55.7624 31.2929 56.086 30.603 56.2833 29.863L54.8211 29.473C54.6664 30.053 54.4401 30.4851 54.1594 30.7775C53.8909 31.0571 53.5421 31.2426 53.0569 31.2911L53.2075 32.7969ZM56.3089 29.668V3.576H54.7955V29.668H56.3089ZM56.2833 3.38103C56.0863 2.64208 55.7623 1.9494 55.2476 1.42032C54.7187 0.876753 54.0253 0.545177 53.1826 0.488995L53.0819 1.999C53.5592 2.03082 53.8998 2.20524 54.1629 2.47567C54.4401 2.7606 54.6661 3.18991 54.8211 3.77097L56.2833 3.38103ZM53.1322 2.00068H64.0442V0.487319H53.1322V2.00068ZM63.9831 0.489794C62.9348 0.574785 62.1506 1.07351 61.6198 1.83386C61.1121 2.56106 60.8582 3.49262 60.7411 4.4524L62.2433 4.6356C62.3463 3.79138 62.5543 3.13893 62.8607 2.70014C63.1439 2.29449 63.5256 2.04521 64.1054 1.9982L63.9831 0.489794ZM60.7355 4.544V15.192H62.2489V4.544H60.7355ZM61.4922 15.9487H66.7282V14.4353H61.4922V15.9487ZM67.4849 15.192V5.028H65.9715V15.192H67.4849ZM67.4847 5.01155C67.4611 3.92678 67.2496 2.86333 66.7339 2.02876C66.1964 1.15889 65.3464 0.574142 64.1874 0.489336L64.077 1.99866C64.722 2.04585 65.148 2.34111 65.4465 2.82424C65.7668 3.34267 65.9513 4.10522 65.9717 5.04444L67.4847 5.01155ZM86.8166 32.044V32.8007L86.8851 31.2904L86.8166 32.044ZM75.9046 32.044L75.8293 31.2911L75.9046 32.8007V32.044ZM78.5006 28.216L79.2566 28.2489L79.2573 28.2324V28.216H78.5006ZM78.5006 5.028H79.2573V5.01156L79.2566 4.99513L78.5006 5.028ZM75.9046 1.244V0.487319L75.848 1.99856L75.9046 1.244ZM86.8166 1.244L86.8681 1.99892L86.8166 0.487319V1.244ZM84.2206 5.6L83.4641 5.58572L83.4639 5.59286V5.6H84.2206ZM83.4639 27.644C83.4639 28.8619 83.6331 30.0582 84.1206 31.0003C84.6311 31.9867 85.4915 32.6833 86.7481 32.7976L86.8851 31.2904C86.2057 31.2287 85.7682 30.8913 85.4647 30.3047C85.1381 29.6738 84.9773 28.7581 84.9773 27.644H83.4639ZM86.8166 31.2873H75.9046V32.8007H86.8166V31.2873ZM75.9799 32.7969C77.1169 32.6832 77.945 32.0828 78.4748 31.2184C78.9852 30.3856 79.2096 29.33 79.2566 28.2489L77.7447 28.1831C77.7037 29.126 77.5101 29.8964 77.1845 30.4276C76.8783 30.9272 76.4523 31.2288 75.8293 31.2911L75.9799 32.7969ZM79.2573 28.216V5.028H77.7439V28.216H79.2573ZM79.2566 4.99513C79.2096 3.91484 78.9855 2.85758 78.4733 2.02876C77.9403 1.16606 77.1051 0.575232 75.9612 0.489438L75.848 1.99856C76.4641 2.04476 76.883 2.33393 77.1859 2.82424C77.5098 3.34842 77.7036 4.11715 77.7447 5.06087L79.2566 4.99513ZM75.9046 2.00068H86.8166V0.487319H75.9046V2.00068ZM86.7652 0.489071C85.4983 0.575447 84.6423 1.26656 84.1362 2.25104C83.656 3.1851 83.4869 4.37869 83.4641 5.58572L84.9772 5.61427C84.9984 4.48931 85.1593 3.5709 85.4821 2.94296C85.779 2.36544 86.1989 2.04455 86.8681 1.99892L86.7652 0.489071ZM83.4639 5.6V27.644H84.9773V5.6H83.4639ZM103.393 24.08L104.133 24.2371L102.661 23.8879L103.393 24.08ZM101.721 31.956L101.728 32.7127L102.335 32.7076L102.461 32.1131L101.721 31.956ZM91.1613 32.044V32.8007L91.1676 32.8007L91.1613 32.044ZM89.8853 27.644L89.129 27.6201L89.1282 27.6458L89.1291 27.6715L89.8853 27.644ZM90.0173 23.464L90.7736 23.4879L90.774 23.4732L90.7739 23.4584L90.0173 23.464ZM89.8853 5.512L89.1291 5.4845L89.1285 5.50103L89.1286 5.51756L89.8853 5.512ZM101.061 1.244L101.815 1.17959L101.756 0.487319H101.061V1.244ZM101.809 10L101.055 10.0644L102.566 10H101.809ZM95.6933 1.992V1.23532H94.9366V1.992H95.6933ZM95.6933 15.236H94.9366V15.9927H95.6933V15.236ZM99.8733 22.188L99.1173 22.2213L100.63 22.188H99.8733ZM95.6933 16.204V15.4473H94.9366V16.204H95.6933ZM95.6933 31.12H94.9366V31.8767H95.6933V31.12ZM97.6733 31.8767C98.8882 31.8767 99.9041 31.3206 100.713 30.577C101.517 29.8377 102.158 28.8771 102.652 27.9582C103.149 27.0338 103.515 26.1157 103.757 25.4326C103.879 25.0899 103.97 24.8034 104.031 24.6011C104.061 24.4999 104.084 24.4196 104.1 24.3636C104.108 24.3357 104.114 24.3138 104.118 24.2984C104.12 24.2907 104.122 24.2846 104.123 24.2802C104.124 24.278 104.124 24.2762 104.124 24.2749C104.125 24.2742 104.125 24.2736 104.125 24.2732C104.125 24.2729 104.125 24.2727 104.125 24.2726C104.125 24.2723 104.125 24.2721 103.393 24.08C102.661 23.8879 102.661 23.8877 102.661 23.8876C102.661 23.8876 102.662 23.8875 102.662 23.8875C102.662 23.8874 102.661 23.8875 102.661 23.8877C102.661 23.888 102.661 23.8888 102.661 23.89C102.66 23.8924 102.659 23.8964 102.658 23.902C102.655 23.9133 102.65 23.9309 102.643 23.9545C102.63 24.0016 102.609 24.0726 102.582 24.1639C102.527 24.3466 102.443 24.6101 102.331 24.9274C102.105 25.5643 101.768 26.4062 101.319 27.2418C100.867 28.0829 100.32 28.8823 99.6884 29.463C99.0615 30.0394 98.3944 30.3633 97.6733 30.3633V31.8767ZM102.653 23.9229L100.981 31.7989L102.461 32.1131L104.133 24.2371L102.653 23.9229ZM101.715 31.1993L91.155 31.2873L91.1676 32.8007L101.728 32.7127L101.715 31.1993ZM91.1613 31.2873H87.3333V32.8007H91.1613V31.2873ZM87.3333 32.8007C87.9915 32.8007 88.574 32.6481 89.0635 32.3331C89.5518 32.0189 89.8965 31.5758 90.134 31.0766C90.595 30.1079 90.6865 28.8547 90.6415 27.6165L89.1291 27.6715C89.1721 28.8533 89.0655 29.8001 88.7675 30.4264C88.6255 30.7247 88.4506 30.9279 88.2445 31.0605C88.0396 31.1924 87.7531 31.2873 87.3333 31.2873V32.8007ZM90.6416 27.6679L90.7736 23.4879L89.261 23.4401L89.129 27.6201L90.6416 27.6679ZM90.7739 23.4584L90.6419 5.50643L89.1286 5.51756L89.2606 23.4696L90.7739 23.4584ZM90.6415 5.53949C90.6864 4.304 90.5962 3.07614 90.1285 2.13405C89.8865 1.64647 89.5367 1.22166 89.047 0.923984C88.5589 0.627224 87.982 0.487319 87.3333 0.487319V2.00068C87.7626 2.00068 88.0547 2.09177 88.2609 2.21714C88.4656 2.34159 88.6356 2.53002 88.773 2.80694C89.0644 3.39385 89.1722 4.3 89.1291 5.4845L90.6415 5.53949ZM87.3333 2.00068H101.061V0.487319H87.3333V2.00068ZM100.307 1.3084L101.055 10.0644L102.563 9.93559L101.815 1.17959L100.307 1.3084ZM102.566 10C102.566 9.95708 102.562 9.92194 102.562 9.91994C102.561 9.90878 102.559 9.89918 102.559 9.89305C102.557 9.88029 102.555 9.86734 102.553 9.85605C102.55 9.83269 102.545 9.80336 102.539 9.76955C102.528 9.70132 102.511 9.60708 102.489 9.49088C102.446 9.25826 102.381 8.93352 102.295 8.54748C102.124 7.77729 101.867 6.75256 101.527 5.72491C101.189 4.70661 100.755 3.64157 100.215 2.81656C99.7036 2.03511 98.9425 1.23532 97.8933 1.23532V2.74868C98.12 2.74868 98.4864 2.93888 98.9486 3.64519C99.3823 4.30793 99.7676 5.22838 100.09 6.20109C100.409 7.16443 100.653 8.1362 100.818 8.87577C100.9 9.2446 100.961 9.55305 101.002 9.7704C101.022 9.87919 101.038 9.96412 101.047 10.0216C101.052 10.0506 101.055 10.0708 101.057 10.0825C101.058 10.0888 101.058 10.0898 101.058 10.0874C101.058 10.0864 101.057 10.081 101.056 10.0731C101.056 10.0691 101.055 10.0619 101.054 10.0526C101.054 10.0457 101.053 10.0258 101.053 10H102.566ZM97.8933 1.23532H95.6933V2.74868H97.8933V1.23532ZM94.9366 1.992V15.236H96.45V1.992H94.9366ZM95.6933 15.9927H96.4853V14.4793H95.6933V15.9927ZM96.4853 15.9927C98.423 15.9927 99.4623 14.5367 99.9797 13.3353C100.246 12.7173 100.406 12.1025 100.5 11.6359C100.59 11.1887 100.63 10.8245 100.63 10.704H99.1166C99.1166 10.6715 99.1012 10.9178 99.0167 11.3368C98.9361 11.7365 98.8021 12.2437 98.5898 12.7367C98.1502 13.7573 97.4955 14.4793 96.4853 14.4793V15.9927ZM99.1166 10.704V22.188H100.63V10.704H99.1166ZM99.8733 22.188C100.629 22.1546 100.629 22.1544 100.629 22.1542C100.629 22.1541 100.629 22.1538 100.629 22.1536C100.629 22.1532 100.629 22.1526 100.629 22.152C100.629 22.1508 100.629 22.1492 100.629 22.1472C100.629 22.1433 100.628 22.1379 100.628 22.1311C100.627 22.1176 100.626 22.0986 100.625 22.0743C100.622 22.0259 100.617 21.9566 100.61 21.8695C100.596 21.6954 100.572 21.4492 100.533 21.1546C100.457 20.5688 100.319 19.7765 100.075 18.9752C99.8328 18.183 99.4705 17.3275 98.9156 16.6567C98.346 15.968 97.5455 15.4473 96.4853 15.4473V16.9607C96.9871 16.9607 97.3911 17.188 97.7495 17.6213C98.1228 18.0725 98.4123 18.713 98.6271 19.4168C98.839 20.1115 98.9627 20.8152 99.033 21.3514C99.0679 21.6178 99.0892 21.8391 99.1017 21.9923C99.1079 22.0688 99.1119 22.1281 99.1143 22.1673C99.1155 22.1868 99.1163 22.2014 99.1168 22.2105C99.117 22.2151 99.1172 22.2183 99.1173 22.2201C99.1173 22.221 99.1173 22.2216 99.1174 22.2218C99.1174 22.2219 99.1174 22.2219 99.1174 22.2218C99.1174 22.2218 99.1174 22.2217 99.1174 22.2217C99.1173 22.2215 99.1173 22.2213 99.8733 22.188ZM96.4853 15.4473H95.6933V16.9607H96.4853V15.4473ZM94.9366 16.204V31.12H96.45V16.204H94.9366ZM95.6933 31.8767H97.6733V30.3633H95.6933V31.8767ZM119.49 9.956L118.746 9.81715L118.744 9.83078L118.742 9.84449L119.49 9.956ZM117.994 1.244V0.487319L117.846 1.98598L117.994 1.244ZM124.462 1.244L124.576 1.99202L124.462 0.487319V1.244ZM120.854 7.14L120.106 7.02637L120.106 7.02665L120.854 7.14ZM117.554 28.92L116.806 28.8066L116.786 28.937L116.812 29.0664L117.554 28.92ZM118.17 32.044V32.8007H119.091L118.912 31.8976L118.17 32.044ZM111.966 32.044L111.227 32.2075L111.359 32.8007H111.966V32.044ZM106.026 5.204L105.286 5.36061L105.287 5.3675L106.026 5.204ZM102.638 1.2L102.641 0.443325L102.566 1.95327L102.638 1.2ZM113.462 1.244V2.00068L113.465 0.487325L113.462 1.244ZM112.582 7.448L111.836 7.57385L111.839 7.591L111.842 7.60799L112.582 7.448ZM116.894 27.38L116.154 27.54L117.642 27.4915L116.894 27.38ZM120.234 10.0948C120.54 8.45373 120.9 6.33311 120.801 4.5353C120.751 3.63621 120.584 2.74528 120.184 2.0176C119.766 1.25875 119.1 0.693501 118.142 0.502013L117.846 1.98598C118.318 2.08049 118.631 2.33475 118.858 2.74739C119.102 3.19122 119.246 3.82378 119.29 4.6187C119.378 6.20888 119.056 8.15827 118.746 9.81715L120.234 10.0948ZM117.994 2.00068H124.462V0.487319H117.994V2.00068ZM124.348 0.495972C123.605 0.609238 122.971 0.846199 122.437 1.22824C121.903 1.61081 121.51 2.11028 121.21 2.68967C120.632 3.80967 120.366 5.31335 120.106 7.02637L121.602 7.25364C121.87 5.49064 122.11 4.24433 122.555 3.38433C122.767 2.97372 123.015 2.67568 123.318 2.45875C123.622 2.2413 124.021 2.07676 124.576 1.99202L124.348 0.495972ZM120.106 7.02665L116.806 28.8066L118.302 29.0334L121.602 7.25336L120.106 7.02665ZM116.812 29.0664L117.428 32.1904L118.912 31.8976L118.296 28.7736L116.812 29.0664ZM118.17 31.2873H111.966V32.8007H118.17V31.2873ZM112.705 31.8805L106.765 5.04049L105.287 5.3675L111.227 32.2075L112.705 31.8805ZM106.766 5.0474C106.262 2.66172 105.07 0.671525 102.71 0.446728L102.566 1.95327C103.902 2.08047 104.822 3.17027 105.286 5.3606L106.766 5.0474ZM102.635 1.95667L113.459 2.00067L113.465 0.487325L102.641 0.443325L102.635 1.95667ZM113.462 0.487319C112.787 0.487319 112.196 0.716902 111.798 1.24423C111.437 1.72294 111.32 2.34153 111.293 2.94231C111.239 4.13878 111.535 5.79213 111.836 7.57385L113.328 7.32214C113.013 5.45186 112.76 4.00321 112.804 3.01068C112.827 2.51697 112.921 2.2693 113.007 2.15539C113.056 2.09009 113.147 2.00068 113.462 2.00068V0.487319ZM111.842 7.60799L116.154 27.54L117.634 27.22L113.322 7.288L111.842 7.60799ZM117.642 27.4915L120.238 10.0675L118.742 9.84449L116.146 27.2685L117.642 27.4915ZM139.788 24.08L140.528 24.2371L139.056 23.8879L139.788 24.08ZM138.116 31.956L138.122 32.7127L138.73 32.7076L138.856 32.1131L138.116 31.956ZM127.556 32.044V32.8007L127.562 32.8007L127.556 32.044ZM126.28 27.644L125.524 27.6201L125.523 27.6458L125.524 27.6715L126.28 27.644ZM126.412 23.464L127.168 23.4879L127.169 23.4732L127.168 23.4584L126.412 23.464ZM126.28 5.512L125.524 5.4845L125.523 5.50103L125.523 5.51756L126.28 5.512ZM137.456 1.244L138.21 1.17959L138.151 0.487319H137.456V1.244ZM138.204 10L137.45 10.0644L138.96 10H138.204ZM132.088 1.992V1.23532H131.331V1.992H132.088ZM132.088 15.236H131.331V15.9927H132.088V15.236ZM136.268 22.188L135.512 22.2213L137.024 22.188H136.268ZM132.088 16.204V15.4473H131.331V16.204H132.088ZM132.088 31.12H131.331V31.8767H132.088V31.12ZM134.068 31.8767C135.283 31.8767 136.299 31.3206 137.107 30.577C137.911 29.8377 138.552 28.8771 139.046 27.9582C139.543 27.0338 139.91 26.1157 140.152 25.4326C140.273 25.0899 140.364 24.8034 140.425 24.6011C140.456 24.4999 140.479 24.4196 140.495 24.3636C140.502 24.3357 140.508 24.3138 140.513 24.2984C140.515 24.2907 140.516 24.2846 140.518 24.2802C140.518 24.278 140.519 24.2762 140.519 24.2749C140.519 24.2742 140.519 24.2736 140.519 24.2732C140.519 24.2729 140.52 24.2727 140.52 24.2726C140.52 24.2723 140.52 24.2721 139.788 24.08C139.056 23.8879 139.056 23.8877 139.056 23.8876C139.056 23.8876 139.056 23.8875 139.056 23.8875C139.056 23.8874 139.056 23.8875 139.056 23.8877C139.056 23.888 139.056 23.8888 139.055 23.89C139.055 23.8924 139.054 23.8964 139.052 23.902C139.049 23.9133 139.044 23.9309 139.038 23.9545C139.024 24.0016 139.004 24.0726 138.976 24.1639C138.921 24.3466 138.838 24.6101 138.725 24.9274C138.5 25.5643 138.162 26.4062 137.713 27.2418C137.261 28.0829 136.714 28.8823 136.083 29.463C135.456 30.0394 134.789 30.3633 134.068 30.3633V31.8767ZM139.048 23.9229L137.376 31.7989L138.856 32.1131L140.528 24.2371L139.048 23.9229ZM138.11 31.1993L127.55 31.2873L127.562 32.8007L138.122 32.7127L138.11 31.1993ZM127.556 31.2873H123.728V32.8007H127.556V31.2873ZM123.728 32.8007C124.386 32.8007 124.969 32.6481 125.458 32.3331C125.946 32.0189 126.291 31.5758 126.529 31.0766C126.99 30.1079 127.081 28.8547 127.036 27.6165L125.524 27.6715C125.567 28.8533 125.46 29.8001 125.162 30.4264C125.02 30.7247 124.845 30.9279 124.639 31.0605C124.434 31.1924 124.148 31.2873 123.728 31.2873V32.8007ZM127.036 27.6679L127.168 23.4879L125.656 23.4401L125.524 27.6201L127.036 27.6679ZM127.168 23.4584L127.036 5.50643L125.523 5.51756L125.655 23.4696L127.168 23.4584ZM127.036 5.53949C127.081 4.304 126.991 3.07614 126.523 2.13405C126.281 1.64647 125.931 1.22166 125.442 0.923984C124.953 0.627224 124.377 0.487319 123.728 0.487319V2.00068C124.157 2.00068 124.449 2.09177 124.655 2.21714C124.86 2.34159 125.03 2.53002 125.168 2.80694C125.459 3.39385 125.567 4.3 125.524 5.4845L127.036 5.53949ZM123.728 2.00068H137.456V0.487319H123.728V2.00068ZM136.702 1.3084L137.45 10.0644L138.958 9.93559L138.21 1.17959L136.702 1.3084ZM138.96 10C138.96 9.95708 138.957 9.92194 138.956 9.91994C138.955 9.90878 138.954 9.89918 138.953 9.89305C138.952 9.88029 138.95 9.86734 138.948 9.85605C138.944 9.83269 138.94 9.80336 138.934 9.76955C138.922 9.70132 138.906 9.60708 138.884 9.49088C138.84 9.25826 138.775 8.93352 138.689 8.54748C138.518 7.77729 138.262 6.75256 137.921 5.72491C137.583 4.70661 137.149 3.64157 136.609 2.81656C136.098 2.03511 135.337 1.23532 134.288 1.23532V2.74868C134.515 2.74868 134.881 2.93888 135.343 3.64519C135.777 4.30793 136.162 5.22838 136.485 6.20109C136.804 7.16443 137.048 8.1362 137.212 8.87577C137.294 9.2446 137.356 9.55305 137.397 9.7704C137.417 9.87919 137.432 9.96412 137.442 10.0216C137.447 10.0506 137.45 10.0708 137.452 10.0825C137.453 10.0888 137.453 10.0898 137.452 10.0874C137.452 10.0864 137.452 10.081 137.451 10.0731C137.45 10.0691 137.45 10.0619 137.449 10.0526C137.449 10.0457 137.447 10.0258 137.447 10H138.96ZM134.288 1.23532H132.088V2.74868H134.288V1.23532ZM131.331 1.992V15.236H132.844V1.992H131.331ZM132.088 15.9927H132.88V14.4793H132.088V15.9927ZM132.88 15.9927C134.818 15.9927 135.857 14.5367 136.374 13.3353C136.64 12.7173 136.801 12.1025 136.895 11.6359C136.985 11.1887 137.024 10.8245 137.024 10.704H135.511C135.511 10.6715 135.496 10.9178 135.411 11.3368C135.331 11.7365 135.197 12.2437 134.984 12.7367C134.545 13.7573 133.89 14.4793 132.88 14.4793V15.9927ZM135.511 10.704V22.188H137.024V10.704H135.511ZM136.268 22.188C137.024 22.1546 137.024 22.1544 137.024 22.1542C137.024 22.1541 137.024 22.1538 137.024 22.1536C137.024 22.1532 137.024 22.1526 137.024 22.152C137.024 22.1508 137.023 22.1492 137.023 22.1472C137.023 22.1433 137.023 22.1379 137.023 22.1311C137.022 22.1176 137.021 22.0986 137.019 22.0743C137.016 22.0259 137.012 21.9566 137.005 21.8695C136.99 21.6954 136.967 21.4492 136.928 21.1546C136.851 20.5688 136.714 19.7765 136.469 18.9752C136.227 18.183 135.865 17.3275 135.31 16.6567C134.741 15.968 133.94 15.4473 132.88 15.4473V16.9607C133.382 16.9607 133.786 17.188 134.144 17.6213C134.517 18.0725 134.807 18.713 135.022 19.4168C135.234 20.1115 135.357 20.8152 135.427 21.3514C135.462 21.6178 135.484 21.8391 135.496 21.9923C135.502 22.0688 135.506 22.1281 135.509 22.1673C135.51 22.1868 135.511 22.2014 135.511 22.2105C135.512 22.2151 135.512 22.2183 135.512 22.2201C135.512 22.221 135.512 22.2216 135.512 22.2218C135.512 22.2219 135.512 22.2219 135.512 22.2218C135.512 22.2218 135.512 22.2217 135.512 22.2217C135.512 22.2215 135.512 22.2213 136.268 22.188ZM132.88 15.4473H132.088V16.9607H132.88V15.4473ZM131.331 16.204V31.12H132.844V16.204H131.331ZM132.088 31.8767H134.068V30.3633H132.088V31.8767ZM158.613 29.316H157.856V29.3991L157.874 29.4801L158.613 29.316ZM152.673 28.304L153.423 28.3979L153.429 28.3511V28.304H152.673ZM152.673 8.24H153.429L151.927 8.10913L152.673 8.24ZM148.493 32.044L147.748 32.1797L149.238 32.1749L148.493 32.044ZM143.961 7.184L144.705 7.04829L143.204 7.184H143.961ZM143.961 27.688H143.204V27.7292L143.208 27.7701L143.961 27.688ZM143.301 27.864L144.052 27.9491L144.057 27.9067V27.864H143.301ZM143.301 5.116H144.057V5.07164L144.052 5.02759L143.301 5.116ZM140.617 1.244V0.487319L140.582 1.9999L140.617 1.244ZM149.153 1.244L149.903 1.14452L149.816 0.487319H149.153V1.244ZM150.781 13.52L150.03 13.6195L151.526 13.6509L150.781 13.52ZM152.937 1.244V0.487319H152.301L152.191 1.11311L152.937 1.244ZM161.297 0.487319C160.29 0.487319 159.412 0.822654 158.786 1.46328C158.163 2.10108 157.856 2.97379 157.856 3.928H159.369C159.369 3.29821 159.568 2.82892 159.869 2.52072C160.167 2.21534 160.632 2.00068 161.297 2.00068V0.487319ZM157.856 3.928V29.316H159.369V3.928H157.856ZM157.874 29.4801C158.059 30.3125 158.346 31.142 158.887 31.7686C159.461 32.4336 160.261 32.8007 161.297 32.8007V31.2873C160.66 31.2873 160.294 31.0824 160.032 30.7794C159.737 30.438 159.518 29.9035 159.351 29.1519L157.874 29.4801ZM161.297 31.2873H149.857V32.8007H161.297V31.2873ZM149.857 32.8007C150.458 32.8007 150.995 32.6762 151.461 32.419C151.926 32.1618 152.28 31.7944 152.548 31.3699C153.067 30.548 153.29 29.4683 153.423 28.3979L151.922 28.2101C151.792 29.2517 151.596 30.042 151.268 30.5621C151.113 30.8086 150.935 30.9802 150.729 31.0942C150.522 31.2083 150.245 31.2873 149.857 31.2873V32.8007ZM153.429 28.304V8.24H151.916V28.304H153.429ZM151.927 8.10913L147.747 31.9131L149.238 32.1749L153.418 8.37087L151.927 8.10913ZM149.237 31.9083L144.705 7.04829L143.216 7.31971L147.748 32.1797L149.237 31.9083ZM143.204 7.184V27.688H144.717V7.184H143.204ZM143.208 27.7701C143.34 28.9754 143.536 30.2013 144.037 31.1322C144.296 31.6137 144.65 32.0422 145.139 32.3463C145.63 32.6518 146.208 32.8007 146.865 32.8007V31.2873C146.443 31.2873 146.152 31.1942 145.938 31.0611C145.722 30.9266 145.534 30.7198 145.369 30.4148C145.024 29.7727 144.845 28.8206 144.713 27.6059L143.208 27.7701ZM146.865 31.2873H140.441V32.8007H146.865V31.2873ZM140.441 32.8007C141.074 32.8007 141.636 32.6576 142.116 32.3651C142.594 32.074 142.946 31.6633 143.207 31.1992C143.712 30.3005 143.92 29.1185 144.052 27.9491L142.549 27.7789C142.417 28.9415 142.229 29.8495 141.887 30.4578C141.725 30.7472 141.54 30.9442 141.329 31.0725C141.121 31.1994 140.841 31.2873 140.441 31.2873V32.8007ZM144.057 27.864V5.116H142.544V27.864H144.057ZM144.052 5.02759C143.92 3.90452 143.722 2.8153 143.239 1.98924C142.987 1.56008 142.652 1.18839 142.203 0.920614C141.755 0.653564 141.235 0.514665 140.651 0.488099L140.582 1.9999C140.966 2.01733 141.233 2.10393 141.428 2.22051C141.622 2.33636 141.788 2.50641 141.933 2.75376C142.241 3.2807 142.417 4.08348 142.549 5.20441L144.052 5.02759ZM140.617 2.00068H149.153V0.487319H140.617V2.00068ZM148.402 1.34347L150.03 13.6195L151.531 13.4205L149.903 1.14452L148.402 1.34347ZM151.526 13.6509L153.682 1.37489L152.191 1.11311L150.035 13.3891L151.526 13.6509ZM152.937 2.00068H158.613V0.487319H152.937V2.00068ZM158.613 2.00068H161.297V0.487319H158.613V2.00068ZM177.858 24.08L178.598 24.2371L177.126 23.8879L177.858 24.08ZM176.186 31.956L176.192 32.7127L176.8 32.7076L176.926 32.1131L176.186 31.956ZM165.626 32.044V32.8007L165.632 32.8007L165.626 32.044ZM164.35 27.644L163.594 27.6201L163.593 27.6458L163.594 27.6715L164.35 27.644ZM164.482 23.464L165.238 23.4879L165.239 23.4732L165.239 23.4584L164.482 23.464ZM164.35 5.512L163.594 5.4845L163.593 5.50103L163.593 5.51756L164.35 5.512ZM175.526 1.244L176.28 1.17959L176.221 0.487319H175.526V1.244ZM176.274 10L175.52 10.0644L177.031 10H176.274ZM170.158 1.992V1.23532H169.401V1.992H170.158ZM170.158 15.236H169.401V15.9927H170.158V15.236ZM174.338 22.188L173.582 22.2213L175.095 22.188H174.338ZM170.158 16.204V15.4473H169.401V16.204H170.158ZM170.158 31.12H169.401V31.8767H170.158V31.12ZM172.138 31.8767C173.353 31.8767 174.369 31.3206 175.178 30.577C175.981 29.8377 176.623 28.8771 177.117 27.9582C177.614 27.0338 177.98 26.1157 178.222 25.4326C178.344 25.0899 178.435 24.8034 178.496 24.6011C178.526 24.4999 178.549 24.4196 178.565 24.3636C178.573 24.3357 178.579 24.3138 178.583 24.2984C178.585 24.2907 178.587 24.2846 178.588 24.2802C178.588 24.278 178.589 24.2762 178.589 24.2749C178.589 24.2742 178.59 24.2736 178.59 24.2732C178.59 24.2729 178.59 24.2727 178.59 24.2726C178.59 24.2723 178.59 24.2721 177.858 24.08C177.126 23.8879 177.126 23.8877 177.126 23.8876C177.126 23.8876 177.126 23.8875 177.126 23.8875C177.126 23.8874 177.126 23.8875 177.126 23.8877C177.126 23.888 177.126 23.8888 177.126 23.89C177.125 23.8924 177.124 23.8964 177.122 23.902C177.119 23.9133 177.115 23.9309 177.108 23.9545C177.095 24.0016 177.074 24.0726 177.047 24.1639C176.992 24.3466 176.908 24.6101 176.796 24.9274C176.57 25.5643 176.233 26.4062 175.784 27.2418C175.332 28.0829 174.785 28.8823 174.153 29.463C173.526 30.0394 172.859 30.3633 172.138 30.3633V31.8767ZM177.118 23.9229L175.446 31.7989L176.926 32.1131L178.598 24.2371L177.118 23.9229ZM176.18 31.1993L165.62 31.2873L165.632 32.8007L176.192 32.7127L176.18 31.1993ZM165.626 31.2873H161.798V32.8007H165.626V31.2873ZM161.798 32.8007C162.456 32.8007 163.039 32.6481 163.528 32.3331C164.017 32.0189 164.361 31.5758 164.599 31.0766C165.06 30.1079 165.151 28.8547 165.106 27.6165L163.594 27.6715C163.637 28.8533 163.53 29.8001 163.232 30.4264C163.09 30.7247 162.915 30.9279 162.709 31.0605C162.504 31.1924 162.218 31.2873 161.798 31.2873V32.8007ZM165.106 27.6679L165.238 23.4879L163.726 23.4401L163.594 27.6201L165.106 27.6679ZM165.239 23.4584L165.107 5.50643L163.593 5.51756L163.725 23.4696L165.239 23.4584ZM165.106 5.53949C165.151 4.304 165.061 3.07614 164.593 2.13405C164.351 1.64647 164.002 1.22166 163.512 0.923984C163.024 0.627224 162.447 0.487319 161.798 0.487319V2.00068C162.227 2.00068 162.52 2.09177 162.726 2.21714C162.93 2.34159 163.1 2.53002 163.238 2.80694C163.529 3.39385 163.637 4.3 163.594 5.4845L165.106 5.53949ZM161.798 2.00068H175.526V0.487319H161.798V2.00068ZM174.772 1.3084L175.52 10.0644L177.028 9.93559L176.28 1.17959L174.772 1.3084ZM177.031 10C177.031 9.95708 177.027 9.92194 177.027 9.91994C177.026 9.90878 177.024 9.89918 177.024 9.89305C177.022 9.88029 177.02 9.86734 177.018 9.85605C177.015 9.83269 177.01 9.80336 177.004 9.76955C176.993 9.70132 176.976 9.60708 176.954 9.49088C176.91 9.25826 176.846 8.93352 176.76 8.54748C176.589 7.77729 176.332 6.75256 175.991 5.72491C175.654 4.70661 175.22 3.64157 174.68 2.81656C174.168 2.03511 173.407 1.23532 172.358 1.23532V2.74868C172.585 2.74868 172.951 2.93888 173.413 3.64519C173.847 4.30793 174.232 5.22838 174.555 6.20109C174.874 7.16443 175.118 8.1362 175.282 8.87577C175.364 9.2446 175.426 9.55305 175.467 9.7704C175.487 9.87919 175.502 9.96412 175.512 10.0216C175.517 10.0506 175.52 10.0708 175.522 10.0825C175.523 10.0888 175.523 10.0898 175.523 10.0874C175.523 10.0864 175.522 10.081 175.521 10.0731C175.521 10.0691 175.52 10.0619 175.519 10.0526C175.519 10.0457 175.517 10.0258 175.517 10H177.031ZM172.358 1.23532H170.158V2.74868H172.358V1.23532ZM169.401 1.992V15.236H170.915V1.992H169.401ZM170.158 15.9927H170.95V14.4793H170.158V15.9927ZM170.95 15.9927C172.888 15.9927 173.927 14.5367 174.445 13.3353C174.711 12.7173 174.871 12.1025 174.965 11.6359C175.055 11.1887 175.095 10.8245 175.095 10.704H173.581C173.581 10.6715 173.566 10.9178 173.482 11.3368C173.401 11.7365 173.267 12.2437 173.055 12.7367C172.615 13.7573 171.96 14.4793 170.95 14.4793V15.9927ZM173.581 10.704V22.188H175.095V10.704H173.581ZM174.338 22.188C175.094 22.1546 175.094 22.1544 175.094 22.1542C175.094 22.1541 175.094 22.1538 175.094 22.1536C175.094 22.1532 175.094 22.1526 175.094 22.152C175.094 22.1508 175.094 22.1492 175.094 22.1472C175.094 22.1433 175.093 22.1379 175.093 22.1311C175.092 22.1176 175.091 22.0986 175.09 22.0743C175.087 22.0259 175.082 21.9566 175.075 21.8695C175.061 21.6954 175.037 21.4492 174.998 21.1546C174.921 20.5688 174.784 19.7765 174.539 18.9752C174.298 18.183 173.935 17.3275 173.38 16.6567C172.811 15.968 172.01 15.4473 170.95 15.4473V16.9607C171.452 16.9607 171.856 17.188 172.214 17.6213C172.588 18.0725 172.877 18.713 173.092 19.4168C173.304 20.1115 173.428 20.8152 173.498 21.3514C173.533 21.6178 173.554 21.8391 173.566 21.9923C173.573 22.0688 173.577 22.1281 173.579 22.1673C173.58 22.1868 173.581 22.2014 173.582 22.2105C173.582 22.2151 173.582 22.2183 173.582 22.2201C173.582 22.221 173.582 22.2216 173.582 22.2218C173.582 22.2219 173.582 22.2219 173.582 22.2218C173.582 22.2218 173.582 22.2217 173.582 22.2217C173.582 22.2215 173.582 22.2213 174.338 22.188ZM170.95 15.4473H170.158V16.9607H170.95V15.4473ZM169.401 16.204V31.12H170.915V16.204H169.401ZM170.158 31.8767H172.138V30.3633H170.158V31.8767ZM190.303 21.88L189.563 22.0393L191.06 21.88H190.303ZM190.303 4.192H191.06V4.15122L191.055 4.11067L190.303 4.192ZM191.403 5.6L192.16 5.60251L192.16 5.5875L192.159 5.5725L191.403 5.6ZM191.315 32.088V32.8447H192.069L192.072 32.0905L191.315 32.088ZM186.475 32.088L185.733 32.2379L185.856 32.8447H186.475V32.088ZM182.119 10.528L182.861 10.3781L181.362 10.5338L182.119 10.528ZM182.251 27.644L183.007 27.6578L183.008 27.648L183.008 27.6382L182.251 27.644ZM181.151 29.492L181.9 29.6021L181.908 29.5439L181.908 29.4851L181.151 29.492ZM180.931 5.468L180.175 5.4405L180.174 5.45771L180.174 5.47493L180.931 5.468ZM185.859 1.244L186.599 1.0847L186.47 0.487319H185.859V1.244ZM191.06 21.88V4.192H189.546V21.88H191.06ZM191.055 4.11067C190.961 3.23668 190.729 2.34532 190.217 1.6565C189.676 0.926796 188.865 0.487319 187.795 0.487319V2.00068C188.396 2.00068 188.752 2.2212 189.002 2.55849C189.283 2.93667 189.469 3.51932 189.551 4.27333L191.055 4.11067ZM187.795 2.00068H193.955V0.487319H187.795V2.00068ZM193.955 0.487319C193.3 0.487319 192.719 0.635616 192.23 0.944577C191.741 1.25335 191.395 1.69038 191.156 2.18567C190.693 3.14551 190.602 4.39014 190.647 5.6275L192.159 5.5725C192.116 4.38986 192.223 3.45649 192.519 2.84333C192.659 2.55211 192.833 2.3539 193.038 2.22404C193.244 2.09438 193.532 2.00068 193.955 2.00068V0.487319ZM190.646 5.59749L190.558 32.0855L192.072 32.0905L192.16 5.60251L190.646 5.59749ZM191.315 31.3313H186.475V32.8447H191.315V31.3313ZM187.217 31.9381L182.861 10.3781L181.377 10.6779L185.733 32.2379L187.217 31.9381ZM181.362 10.5338L181.494 27.6498L183.008 27.6382L182.876 10.5222L181.362 10.5338ZM181.494 27.6302C181.472 28.8646 181.577 30.1153 182.042 31.0805C182.283 31.5779 182.628 32.0198 183.117 32.3335C183.606 32.6481 184.189 32.8007 184.847 32.8007V31.2873C184.427 31.2873 184.14 31.1924 183.934 31.0601C183.727 30.9269 183.55 30.7226 183.405 30.4225C183.101 29.7927 182.986 28.8434 183.007 27.6578L181.494 27.6302ZM184.847 31.2873H178.643V32.8007H184.847V31.2873ZM178.643 32.8007C179.622 32.8007 180.411 32.4645 180.974 31.8321C181.512 31.2272 181.779 30.425 181.9 29.6021L180.402 29.3819C180.303 30.055 180.108 30.5288 179.843 30.8259C179.603 31.0955 179.247 31.2873 178.643 31.2873V32.8007ZM181.908 29.4851L181.688 5.46107L180.174 5.47493L180.394 29.4989L181.908 29.4851ZM181.687 5.4955C181.732 4.26099 181.642 3.04139 181.172 2.10813C180.929 1.62438 180.577 1.20576 180.087 0.913705C179.599 0.62309 179.024 0.487319 178.379 0.487319V2.00068C178.811 2.00068 179.105 2.0904 179.312 2.21366C179.517 2.33548 179.685 2.51912 179.821 2.78887C180.11 3.3626 180.218 4.25501 180.175 5.4405L181.687 5.4955ZM178.379 2.00068H185.859V0.487319H178.379V2.00068ZM185.119 1.4033L189.563 22.0393L191.043 21.7207L186.599 1.0847L185.119 1.4033ZM194.997 1.244V0.487319H194.36L194.251 1.11517L194.997 1.244ZM210.309 1.244L211.054 1.11139L210.943 0.487319H210.309V1.244ZM211.805 9.648L211.087 9.88728L212.55 9.51539L211.805 9.648ZM205.733 3.4V2.64332H204.976V3.4H205.733ZM205.733 29.8H204.976V29.9111L205.008 30.0174L205.733 29.8ZM208.373 32.044V32.8007L208.39 31.2875L208.373 32.044ZM204.545 31.956L204.562 31.1995L204.544 31.1991L204.526 31.1996L204.545 31.956ZM201.025 32.044V32.8007H201.034L201.044 32.8004L201.025 32.044ZM199.793 27.644L199.036 27.636L199.036 27.6469L199.036 27.6578L199.793 27.644ZM199.837 23.464L200.593 23.472V23.464H199.837ZM199.837 3.4H200.593V2.64332H199.837V3.4ZM193.545 9.648L192.799 9.51917L194.266 9.87743L193.545 9.648ZM194.997 2.00068H210.309V0.487319H194.997V2.00068ZM209.564 1.37661L211.06 9.78061L212.55 9.51539L211.054 1.11139L209.564 1.37661ZM212.523 9.40872C212.067 8.04161 211.63 6.33607 210.832 5.03876C210.419 4.36605 209.886 3.75757 209.165 3.32062C208.439 2.88112 207.568 2.64332 206.525 2.64332V4.15668C207.329 4.15668 207.922 4.33688 208.381 4.61512C208.845 4.89593 209.22 5.30495 209.543 5.83124C210.22 6.93193 210.575 8.35039 211.087 9.88728L212.523 9.40872ZM206.525 2.64332H205.733V4.15668H206.525V2.64332ZM204.976 3.4V29.8H206.489V3.4H204.976ZM205.008 30.0174C205.229 30.7555 205.582 31.4544 206.144 31.973C206.722 32.507 207.47 32.8007 208.373 32.8007V31.2873C207.823 31.2873 207.45 31.119 207.17 30.861C206.874 30.5876 206.632 30.1645 206.458 29.5826L205.008 30.0174ZM208.39 31.2875L204.562 31.1995L204.527 32.7125L208.355 32.8005L208.39 31.2875ZM204.526 31.1996L201.006 31.2876L201.044 32.8004L204.564 32.7124L204.526 31.1996ZM201.025 31.2873H197.197V32.8007H201.025V31.2873ZM197.197 32.8007C197.855 32.8007 198.437 32.6481 198.927 32.3335C199.415 32.0198 199.761 31.5779 200.001 31.0805C200.467 30.1153 200.572 28.8646 200.549 27.6302L199.036 27.6578C199.058 28.8434 198.942 29.7927 198.638 30.4225C198.494 30.7226 198.317 30.9269 198.109 31.0601C197.903 31.1924 197.616 31.2873 197.197 31.2873V32.8007ZM200.549 27.652L200.593 23.472L199.08 23.456L199.036 27.636L200.549 27.652ZM200.593 23.464V3.4H199.08V23.464H200.593ZM199.837 2.64332H198.825V4.15668H199.837V2.64332ZM198.825 2.64332C197.781 2.64332 196.909 2.88108 196.18 3.31962C195.456 3.75571 194.919 4.36333 194.502 5.03662C193.695 6.33967 193.262 8.0403 192.824 9.41857L194.266 9.87743C194.751 8.3517 195.111 6.92833 195.789 5.83338C196.114 5.30767 196.493 4.89779 196.961 4.61613C197.425 4.33692 198.02 4.15668 198.825 4.15668V2.64332ZM194.29 9.77683L195.742 1.37282L194.251 1.11517L192.799 9.51917L194.29 9.77683Z" fill="white" mask="url(#path-1-outside-1_924_1871)"/>
</g>
<defs>
<filter id="filter0_d_924_1871" x="0.120117" y="0.803955" width="215.685" height="45.796" filterUnits="userSpaceOnUse" color-interpolation-filters="sRGB">
<feFlood flood-opacity="0" result="BackgroundImageFix"/>
<feColorMatrix in="SourceAlpha" type="matrix" values="0 0 0 0 0 0 0 0 0 0 0 0 0 0 0 0 0 0 127 0" result="hardAlpha"/>
<feOffset dy="4"/>
<feGaussianBlur stdDeviation="2"/>
<feComposite in2="hardAlpha" operator="out"/>
<feColorMatrix type="matrix" values="0 0 0 0 0 0 0 0 0 0 0 0 0 0 0 0 0 0 0.25 0"/>
<feBlend mode="normal" in2="BackgroundImageFix" result="effect1_dropShadow_924_1871"/>
<feBlend mode="normal" in="SourceGraphic" in2="effect1_dropShadow_924_1871" result="shape"/>
</filter>
<linearGradient id="paint0_linear_924_1871" x1="108.5" y1="-1" x2="108.5" y2="41" gradientUnits="userSpaceOnUse">
<stop offset="0.20997"/>
<stop offset="1" stop-color="#D7A129"/>
</linearGradient>
</defs>
</svg>
