<svg width="217" height="62" viewBox="0 0 217 62" fill="none" xmlns="http://www.w3.org/2000/svg">
<g filter="url(#filter0_d_924_1879)">
<mask id="path-1-outside-1_924_1879" maskUnits="userSpaceOnUse" x="10" y="4" width="204" height="46" fill="black">
<rect fill="white" x="10" y="4" width="204" height="46"/>
<path d="M32.712 6.169C60.56 6.169 60.678 48.472 32.712 48.472C4.746 48.472 4.746 6.169 32.712 6.169ZM44.63 43.339C58.318 32.66 34.541 0.740997 20.853 11.42C6.811 22.276 31.001 53.841 44.63 43.339ZM68.4402 7.762H65.4902V25.521H66.5522C70.5052 25.521 71.0952 19.68 71.0952 19.444V34.843C71.0952 34.843 70.7412 26.819 66.5522 26.819H65.4902V43.752C65.7852 46.23 66.8472 48.059 69.2662 48.059H57.4662H54.2802C56.1682 48.059 57.1122 46.938 57.4662 45.286V9.355C57.1122 7.703 56.1682 6.759 54.2802 6.759H72.6882L73.6912 18.5C73.6912 18.382 71.8622 7.762 68.4402 7.762ZM113.745 42.69C114.276 45.758 115.043 47.823 117.58 48.059L102.24 47.941C106.724 47.469 105.013 40.743 104.482 37.911L96.5763 37.734C95.8093 41.333 94.2753 47.292 98.5233 47.941H89.8503C93.3313 47.351 93.6853 44.637 94.6883 40.035L100.352 13.19L99.5853 7.939L107.432 6.759L113.745 42.69ZM97.1663 36.082H104.128L101.414 16.081H101.237L97.1663 36.082ZM131.284 33.84C133.88 36.377 135.414 42.1 140.429 39.209L140.547 48.059C130.989 48.118 131.697 35.256 129.337 34.135V44.165C129.573 46.407 130.399 48.059 132.7 48.059H117.714C120.605 48.059 121.254 45.404 121.136 42.159V12.6C121.254 9.355 120.605 6.759 117.714 6.759H129.101C143.556 6.759 144.264 31.598 131.284 33.84ZM129.691 32.719C133.585 32.719 133.585 7.644 129.337 7.644V32.719H129.691ZM143.85 6.759H164.382L166.388 18.028C165.09 14.134 164.264 9.65 159.308 9.65H158.246V45.05C158.777 46.82 159.839 48.059 161.786 48.059L156.653 47.941L151.933 48.059H146.8C149.691 48.059 150.34 45.404 150.281 42.159L150.34 36.554V9.65H148.983C144.027 9.65 143.142 14.134 141.903 18.028L143.85 6.759ZM208.831 44.047L212.253 45.581V47.469H204.111L201.633 42.926C200.335 44.873 198.978 46.23 197.621 46.938C196.205 47.646 194.73 48 193.196 48C190.305 48 188.181 47.115 186.765 45.286C185.349 43.457 184.641 40.92 184.641 37.793C184.641 36.141 184.818 34.666 185.29 33.368C185.762 32.07 186.47 30.772 187.414 29.533C188.358 28.235 189.833 26.583 191.721 24.577L191.485 24.223C189.656 20.801 188.712 17.733 188.712 14.96C188.712 13.131 189.066 11.479 189.774 10.063C190.482 8.706 191.367 7.644 192.488 6.877C193.609 6.11 194.73 5.756 195.91 5.756C197.503 5.756 198.801 6.405 199.863 7.644C200.925 8.942 201.456 10.535 201.456 12.541C201.456 15.668 199.981 18.913 197.031 22.158L203.639 34.43C204.406 31.893 204.819 29.356 204.819 26.76C204.819 25.993 204.701 25.462 204.583 25.167C204.465 24.872 204.229 24.636 203.816 24.459C203.403 24.282 202.754 24.046 201.751 23.869V21.627H210.837V23.869C209.952 24.046 209.244 24.223 208.831 24.459C208.359 24.754 208.064 25.049 207.887 25.462C207.71 25.875 207.533 26.524 207.415 27.35C207.179 28.589 206.825 30.005 206.412 31.657C205.94 33.309 205.409 34.902 204.819 36.554L208.831 44.047ZM194.081 9.178C193.668 9.886 193.432 10.948 193.432 12.305C193.432 13.485 193.609 14.606 193.963 15.786C194.317 16.907 194.966 18.323 195.851 19.975C196.559 19.031 197.031 18.028 197.267 17.025C197.562 16.022 197.68 14.901 197.68 13.544C197.68 11.656 197.503 10.24 197.09 9.414C196.677 8.529 196.146 8.116 195.497 8.116C194.966 8.116 194.494 8.47 194.081 9.178ZM197.857 43.221C198.801 42.69 199.686 41.864 200.453 40.802L192.783 26.583C191.898 27.704 191.131 28.884 190.6 30.241C190.069 31.598 189.774 33.191 189.774 35.02C189.774 36.554 190.01 38.029 190.423 39.386C190.836 40.802 191.485 41.923 192.252 42.808C193.078 43.634 194.022 44.047 195.143 44.047C196.028 44.047 196.972 43.811 197.857 43.221Z"/>
</mask>
<path d="M32.712 6.169C60.56 6.169 60.678 48.472 32.712 48.472C4.746 48.472 4.746 6.169 32.712 6.169ZM44.63 43.339C58.318 32.66 34.541 0.740997 20.853 11.42C6.811 22.276 31.001 53.841 44.63 43.339ZM68.4402 7.762H65.4902V25.521H66.5522C70.5052 25.521 71.0952 19.68 71.0952 19.444V34.843C71.0952 34.843 70.7412 26.819 66.5522 26.819H65.4902V43.752C65.7852 46.23 66.8472 48.059 69.2662 48.059H57.4662H54.2802C56.1682 48.059 57.1122 46.938 57.4662 45.286V9.355C57.1122 7.703 56.1682 6.759 54.2802 6.759H72.6882L73.6912 18.5C73.6912 18.382 71.8622 7.762 68.4402 7.762ZM113.745 42.69C114.276 45.758 115.043 47.823 117.58 48.059L102.24 47.941C106.724 47.469 105.013 40.743 104.482 37.911L96.5763 37.734C95.8093 41.333 94.2753 47.292 98.5233 47.941H89.8503C93.3313 47.351 93.6853 44.637 94.6883 40.035L100.352 13.19L99.5853 7.939L107.432 6.759L113.745 42.69ZM97.1663 36.082H104.128L101.414 16.081H101.237L97.1663 36.082ZM131.284 33.84C133.88 36.377 135.414 42.1 140.429 39.209L140.547 48.059C130.989 48.118 131.697 35.256 129.337 34.135V44.165C129.573 46.407 130.399 48.059 132.7 48.059H117.714C120.605 48.059 121.254 45.404 121.136 42.159V12.6C121.254 9.355 120.605 6.759 117.714 6.759H129.101C143.556 6.759 144.264 31.598 131.284 33.84ZM129.691 32.719C133.585 32.719 133.585 7.644 129.337 7.644V32.719H129.691ZM143.85 6.759H164.382L166.388 18.028C165.09 14.134 164.264 9.65 159.308 9.65H158.246V45.05C158.777 46.82 159.839 48.059 161.786 48.059L156.653 47.941L151.933 48.059H146.8C149.691 48.059 150.34 45.404 150.281 42.159L150.34 36.554V9.65H148.983C144.027 9.65 143.142 14.134 141.903 18.028L143.85 6.759ZM208.831 44.047L212.253 45.581V47.469H204.111L201.633 42.926C200.335 44.873 198.978 46.23 197.621 46.938C196.205 47.646 194.73 48 193.196 48C190.305 48 188.181 47.115 186.765 45.286C185.349 43.457 184.641 40.92 184.641 37.793C184.641 36.141 184.818 34.666 185.29 33.368C185.762 32.07 186.47 30.772 187.414 29.533C188.358 28.235 189.833 26.583 191.721 24.577L191.485 24.223C189.656 20.801 188.712 17.733 188.712 14.96C188.712 13.131 189.066 11.479 189.774 10.063C190.482 8.706 191.367 7.644 192.488 6.877C193.609 6.11 194.73 5.756 195.91 5.756C197.503 5.756 198.801 6.405 199.863 7.644C200.925 8.942 201.456 10.535 201.456 12.541C201.456 15.668 199.981 18.913 197.031 22.158L203.639 34.43C204.406 31.893 204.819 29.356 204.819 26.76C204.819 25.993 204.701 25.462 204.583 25.167C204.465 24.872 204.229 24.636 203.816 24.459C203.403 24.282 202.754 24.046 201.751 23.869V21.627H210.837V23.869C209.952 24.046 209.244 24.223 208.831 24.459C208.359 24.754 208.064 25.049 207.887 25.462C207.71 25.875 207.533 26.524 207.415 27.35C207.179 28.589 206.825 30.005 206.412 31.657C205.94 33.309 205.409 34.902 204.819 36.554L208.831 44.047ZM194.081 9.178C193.668 9.886 193.432 10.948 193.432 12.305C193.432 13.485 193.609 14.606 193.963 15.786C194.317 16.907 194.966 18.323 195.851 19.975C196.559 19.031 197.031 18.028 197.267 17.025C197.562 16.022 197.68 14.901 197.68 13.544C197.68 11.656 197.503 10.24 197.09 9.414C196.677 8.529 196.146 8.116 195.497 8.116C194.966 8.116 194.494 8.47 194.081 9.178ZM197.857 43.221C198.801 42.69 199.686 41.864 200.453 40.802L192.783 26.583C191.898 27.704 191.131 28.884 190.6 30.241C190.069 31.598 189.774 33.191 189.774 35.02C189.774 36.554 190.01 38.029 190.423 39.386C190.836 40.802 191.485 41.923 192.252 42.808C193.078 43.634 194.022 44.047 195.143 44.047C196.028 44.047 196.972 43.811 197.857 43.221Z" fill="url(#paint0_linear_924_1879)"/>
<path d="M44.63 43.339L45.0919 43.9384L45.0954 43.9356L44.63 43.339ZM20.853 11.42L21.3158 12.0186L21.3184 12.0166L20.853 11.42ZM32.712 6.92568C39.4654 6.92568 44.4842 9.48259 47.8251 13.2787C51.1786 17.0894 52.8784 22.1928 52.8856 27.3216C52.8927 32.4503 51.2072 37.5528 47.858 41.3626C44.5216 45.1577 39.4959 47.7153 32.712 47.7153V49.2287C39.9111 49.2287 45.358 46.4984 48.9946 42.3618C52.6184 38.2397 54.4065 32.7664 54.3989 27.3194C54.3913 21.8725 52.588 16.4001 48.9611 12.2789C45.3215 8.14328 39.8826 5.41232 32.712 5.41232V6.92568ZM32.712 47.7153C25.9281 47.7153 20.8946 45.1576 17.5488 41.3618C14.1902 37.5516 12.4942 32.4489 12.4942 27.3205C12.4942 22.1921 14.1902 17.0894 17.5488 13.2792C20.8946 9.48337 25.9281 6.92568 32.712 6.92568V5.41232C25.5129 5.41232 20.0592 8.1425 16.4135 12.2785C12.7805 16.4001 10.9808 21.8731 10.9808 27.3205C10.9808 32.7679 12.7805 38.2409 16.4135 42.3625C20.0592 46.4985 25.5129 49.2287 32.712 49.2287V47.7153ZM45.0954 43.9356C48.7853 41.0569 49.9052 36.7613 49.3657 32.2548C48.828 27.764 46.6434 22.9846 43.6143 18.9182C40.5858 14.8527 36.6585 11.4266 32.5611 9.70293C28.4434 7.97068 24.0829 7.94042 20.3876 10.8234L21.3184 12.0166C24.4671 9.56007 28.2118 9.51507 31.9742 11.0979C35.757 12.6892 39.4849 15.9081 42.4007 19.8223C45.3158 23.7356 47.3645 28.2709 47.863 32.4347C48.3597 36.5827 47.3187 40.2816 44.1646 42.7424L45.0954 43.9356ZM20.3902 10.8214C16.6154 13.7397 15.448 18.0427 15.9761 22.5521C16.5018 27.0413 18.7054 31.8006 21.7612 35.8449C24.8167 39.889 28.7793 43.2906 32.8994 45.0073C37.0368 46.7311 41.41 46.7755 45.0919 43.9384L44.1681 42.7396C41.0355 45.1535 37.2741 45.1905 33.4815 43.6103C29.6717 42.023 25.9089 38.824 22.9686 34.9326C20.0285 31.0414 17.9656 26.5303 17.4792 22.3761C16.995 18.2419 18.0696 14.5283 21.3158 12.0186L20.3902 10.8214ZM65.4902 7.762V7.00532H64.7335V7.762H65.4902ZM65.4902 25.521H64.7335V26.2777H65.4902V25.521ZM71.0952 34.843L70.3392 34.8764L71.8519 34.843H71.0952ZM65.4902 26.819V26.0623H64.7335V26.819H65.4902ZM65.4902 43.752H64.7335V43.7969L64.7388 43.8414L65.4902 43.752ZM57.4662 45.286L58.2061 45.4445L58.2229 45.3662V45.286H57.4662ZM57.4662 9.355H58.2229V9.27484L58.2061 9.19645L57.4662 9.355ZM72.6882 6.759L73.4421 6.69459L73.383 6.00232H72.6882V6.759ZM73.6912 18.5L72.9373 18.5644L74.4479 18.5H73.6912ZM68.4402 7.00532H65.4902V8.51868H68.4402V7.00532ZM64.7335 7.762V25.521H66.2469V7.762H64.7335ZM65.4902 26.2777H66.5522V24.7643H65.4902V26.2777ZM66.5522 26.2777C68.9925 26.2777 70.3205 24.4504 71.001 22.8703C71.3488 22.0629 71.5592 21.2568 71.683 20.6426C71.8029 20.0477 71.8519 19.5795 71.8519 19.444H70.3385C70.3385 19.4265 70.3137 19.7769 70.1995 20.3436C70.0891 20.8909 69.905 21.5893 69.6111 22.2717C69.0084 23.6711 68.0649 24.7643 66.5522 24.7643V26.2777ZM70.3385 19.444V34.843H71.8519V19.444H70.3385ZM71.0952 34.843C71.8511 34.8096 71.8511 34.8094 71.8511 34.8092C71.8511 34.809 71.8511 34.8088 71.8511 34.8085C71.8511 34.808 71.851 34.8074 71.851 34.8066C71.8509 34.8051 71.8508 34.8032 71.8507 34.8007C71.8505 34.7958 71.8501 34.789 71.8497 34.7803C71.8488 34.7629 71.8474 34.7381 71.8454 34.7064C71.8415 34.643 71.8353 34.5518 71.826 34.4368C71.8073 34.207 71.7758 33.8811 71.7247 33.4909C71.6228 32.7138 71.4406 31.6665 71.1183 30.6102C70.7988 29.563 70.3254 28.4525 69.6123 27.5904C68.8844 26.7105 67.8787 26.0623 66.5522 26.0623V27.5757C67.3202 27.5757 67.9296 27.9305 68.4462 28.5551C68.9777 29.1975 69.3782 30.093 69.6708 31.0518C69.9606 32.0015 70.1288 32.9602 70.2242 33.6876C70.2716 34.0497 70.3006 34.3507 70.3176 34.5596C70.3261 34.664 70.3316 34.7452 70.3349 34.7993C70.3366 34.8264 70.3377 34.8467 70.3384 34.8597C70.3387 34.8662 70.339 34.8709 70.3391 34.8737C70.3392 34.8751 70.3392 34.876 70.3392 34.8764C70.3393 34.8767 70.3393 34.8768 70.3393 34.8768C70.3393 34.8767 70.3393 34.8766 70.3393 34.8766C70.3393 34.8765 70.3392 34.8764 71.0952 34.843ZM66.5522 26.0623H65.4902V27.5757H66.5522V26.0623ZM64.7335 26.819V43.752H66.2469V26.819H64.7335ZM64.7388 43.8414C64.8943 45.1476 65.2608 46.3815 65.9875 47.3032C66.7424 48.2607 67.836 48.8157 69.2662 48.8157V47.3023C68.2774 47.3023 67.6305 46.9428 67.1759 46.3662C66.6931 45.754 66.3811 44.8344 66.2416 43.6626L64.7388 43.8414ZM69.2662 47.3023H57.4662V48.8157H69.2662V47.3023ZM57.4662 47.3023H54.2802V48.8157H57.4662V47.3023ZM54.2802 48.8157C55.3848 48.8157 56.2889 48.4824 56.9675 47.8426C57.6317 47.2163 58.0093 46.363 58.2061 45.4445L56.7263 45.1275C56.5691 45.861 56.2977 46.3942 55.9293 46.7414C55.5754 47.0751 55.0636 47.3023 54.2802 47.3023V48.8157ZM58.2229 45.286V9.355H56.7095V45.286H58.2229ZM58.2061 9.19645C58.0076 8.27006 57.6236 7.44816 56.9409 6.86298C56.2519 6.27245 55.3517 6.00232 54.2802 6.00232V7.51568C55.0967 7.51568 55.6124 7.71754 55.956 8.01201C56.3058 8.31183 56.5708 8.78794 56.7263 9.51354L58.2061 9.19645ZM54.2802 7.51568H72.6882V6.00232H54.2802V7.51568ZM71.9343 6.8234L72.9373 18.5644L74.4451 18.4356L73.4421 6.69459L71.9343 6.8234ZM74.4479 18.5C74.4479 18.4569 74.4439 18.4213 74.4436 18.4187C74.4425 18.407 74.4412 18.3967 74.4403 18.3897C74.4384 18.3752 74.4362 18.3599 74.434 18.3456C74.4296 18.3162 74.4234 18.2785 74.4159 18.234C74.4008 18.1443 74.3786 18.0195 74.3496 17.865C74.2914 17.5556 74.205 17.123 74.0906 16.6083C73.8623 15.5807 73.5203 14.2157 73.0672 12.8487C72.6171 11.491 72.0433 10.0875 71.3375 9.0089C70.6602 7.97386 69.7069 7.00532 68.4402 7.00532V8.51868C68.8844 8.51868 69.443 8.87763 70.0711 9.83753C70.6707 10.7539 71.1958 12.0128 71.6307 13.3248C72.0625 14.6276 72.3917 15.9396 72.6133 16.9366C72.7238 17.4341 72.807 17.8504 72.8623 18.1445C72.8899 18.2916 72.9104 18.4071 72.9237 18.486C72.9304 18.5257 72.935 18.5543 72.9377 18.5721C72.9391 18.5813 72.9395 18.5847 72.9394 18.584C72.9394 18.5839 72.9388 18.5792 72.9381 18.5719C72.9377 18.5682 72.937 18.5612 72.9364 18.5521C72.9359 18.5454 72.9345 18.5257 72.9345 18.5H74.4479ZM113.745 42.69L114.491 42.561L114.491 42.5591L113.745 42.69ZM117.58 48.059L117.574 48.8157L117.65 47.3056L117.58 48.059ZM102.24 47.941L102.161 47.1885L102.234 48.6977L102.24 47.941ZM104.482 37.911L105.226 37.7716L105.113 37.1683L104.499 37.1545L104.482 37.911ZM96.5763 37.734L96.5932 36.9775L95.9668 36.9635L95.8362 37.5763L96.5763 37.734ZM98.5233 47.941V48.6977L98.6376 47.193L98.5233 47.941ZM89.8503 47.941L89.7238 47.195L89.8503 48.6977V47.941ZM94.6883 40.035L95.4276 40.1961L95.4286 40.1912L94.6883 40.035ZM100.352 13.19L101.093 13.3462L101.121 13.2142L101.101 13.0806L100.352 13.19ZM99.5853 7.939L99.4728 7.19073L98.7276 7.30278L98.8365 8.04836L99.5853 7.939ZM107.432 6.759L108.178 6.62806L108.05 5.90095L107.32 6.01073L107.432 6.759ZM97.1663 36.082L96.4248 35.9311L96.2401 36.8387H97.1663V36.082ZM104.128 36.082V36.8387H104.995L104.878 35.9803L104.128 36.082ZM101.414 16.081L102.164 15.9793L102.075 15.3243H101.414V16.081ZM101.237 16.081V15.3243H100.619L100.496 15.9301L101.237 16.081ZM113 42.819C113.266 44.3581 113.608 45.7704 114.267 46.8348C114.963 47.9593 115.998 48.6718 117.51 48.8124L117.65 47.3056C116.625 47.2102 116.008 46.7722 115.554 46.0382C115.062 45.2441 114.755 44.0899 114.491 42.561L113 42.819ZM117.586 47.3023L102.246 47.1843L102.234 48.6977L117.574 48.8157L117.586 47.3023ZM102.319 48.6935C103.664 48.552 104.609 47.9194 105.199 46.9731C105.763 46.0685 105.963 44.9402 105.998 43.835C106.068 41.6341 105.481 39.1305 105.226 37.7716L103.739 38.0504C104.015 39.5235 104.549 41.7989 104.486 43.787C104.454 44.7763 104.275 45.595 103.915 46.1728C103.581 46.7088 103.059 47.094 102.161 47.1885L102.319 48.6935ZM104.499 37.1545L96.5932 36.9775L96.5593 38.4905L104.465 38.6675L104.499 37.1545ZM95.8362 37.5763C95.4624 39.3302 94.8582 41.8297 94.9127 43.9631C94.9401 45.0365 95.1337 46.11 95.6775 46.9797C96.2435 47.8848 97.1437 48.4957 98.409 48.689L98.6376 47.193C97.7789 47.0618 97.2778 46.6844 96.9606 46.1773C96.6213 45.6346 96.4498 44.8717 96.4256 43.9244C96.3768 42.0163 96.9231 39.7368 97.3163 37.8917L95.8362 37.5763ZM98.5233 47.1843H89.8503V48.6977H98.5233V47.1843ZM89.9767 48.687C90.9416 48.5235 91.7371 48.204 92.3917 47.7063C93.046 47.2089 93.5156 46.5668 93.8783 45.8248C94.5789 44.3917 94.9394 42.436 95.4276 40.1961L93.949 39.8739C93.4341 42.236 93.1161 43.9383 92.5187 45.1602C92.2325 45.7457 91.8982 46.1804 91.4758 46.5016C91.0536 46.8225 90.4995 47.0635 89.7238 47.195L89.9767 48.687ZM95.4286 40.1912L101.093 13.3462L99.6119 13.0338L93.9479 39.8788L95.4286 40.1912ZM101.101 13.0806L100.334 7.82963L98.8365 8.04836L99.6035 13.2994L101.101 13.0806ZM99.6978 8.68726L107.545 7.50726L107.32 6.01073L99.4728 7.19073L99.6978 8.68726ZM106.687 6.88994L113 42.8209L114.491 42.5591L108.178 6.62806L106.687 6.88994ZM97.1663 36.8387H104.128V35.3253H97.1663V36.8387ZM104.878 35.9803L102.164 15.9793L100.664 16.1827L103.378 36.1837L104.878 35.9803ZM101.414 15.3243H101.237V16.8377H101.414V15.3243ZM100.496 15.9301L96.4248 35.9311L97.9077 36.2329L101.979 16.2319L100.496 15.9301ZM131.284 33.84L131.155 33.0944L129.696 33.3464L130.755 34.3812L131.284 33.84ZM140.429 39.209L141.186 39.1989L141.168 37.9093L140.051 38.5534L140.429 39.209ZM140.547 48.059L140.552 48.8157L141.314 48.811L141.304 48.0489L140.547 48.059ZM129.337 34.135L129.662 33.4515L128.58 32.9379V34.135H129.337ZM129.337 44.165H128.58V44.2047L128.584 44.2442L129.337 44.165ZM121.136 42.159H120.379V42.1728L120.38 42.1865L121.136 42.159ZM121.136 12.6L120.38 12.5725L120.379 12.5862V12.6H121.136ZM129.337 7.644V6.88732H128.58V7.644H129.337ZM129.337 32.719H128.58V33.4757H129.337V32.719ZM130.755 34.3812C131.343 34.9556 131.885 35.7259 132.481 36.5865C133.058 37.4203 133.686 38.3387 134.404 39.0848C135.128 39.8371 136.004 40.4794 137.108 40.6898C138.223 40.9024 139.444 40.6504 140.807 39.8646L140.051 38.5534C138.907 39.2131 138.055 39.3298 137.391 39.2032C136.715 39.0743 136.105 38.6694 135.494 38.0352C134.878 37.3948 134.322 36.5875 133.725 35.725C133.146 34.8894 132.523 33.9929 131.813 33.2988L130.755 34.3812ZM139.672 39.2191L139.79 48.0691L141.304 48.0489L141.186 39.1989L139.672 39.2191ZM140.542 47.3023C138.344 47.3159 136.782 46.5944 135.609 45.5102C134.414 44.4065 133.585 42.8899 132.947 41.2633C132.305 39.6256 131.893 37.9808 131.464 36.5714C131.255 35.8858 131.037 35.2416 130.783 34.7242C130.542 34.2321 130.199 33.7069 129.662 33.4515L129.012 34.8185C129.065 34.8434 129.216 34.9653 129.425 35.3909C129.621 35.7912 129.81 36.3353 130.016 37.0122C130.417 38.3279 130.868 40.1051 131.538 41.8157C132.213 43.5374 133.146 45.2952 134.581 46.6216C136.038 47.9675 137.971 48.8316 140.552 48.8157L140.542 47.3023ZM128.58 34.135V44.165H130.094V34.135H128.58ZM128.584 44.2442C128.708 45.4152 128.993 46.5525 129.64 47.4088C130.322 48.3118 131.339 48.8157 132.7 48.8157V47.3023C131.76 47.3023 131.213 46.9802 130.848 46.4967C130.447 45.9665 130.202 45.1568 130.089 44.0858L128.584 44.2442ZM132.7 47.3023H117.714V48.8157H132.7V47.3023ZM117.714 48.8157C118.556 48.8157 119.287 48.6209 119.894 48.2298C120.501 47.8393 120.934 47.2861 121.237 46.651C121.827 45.4104 121.952 43.7822 121.892 42.1315L120.38 42.1865C120.438 43.7808 120.297 45.1026 119.87 46.0007C119.663 46.435 119.4 46.7484 119.075 46.9572C118.752 47.1652 118.317 47.3023 117.714 47.3023V48.8157ZM121.893 42.159V12.6H120.379V42.159H121.893ZM121.892 12.6275C121.952 10.9776 121.827 9.36176 121.235 8.13379C120.931 7.50444 120.496 6.95913 119.889 6.57559C119.282 6.19186 118.553 6.00232 117.714 6.00232V7.51568C118.321 7.51568 118.757 7.65063 119.081 7.85506C119.405 8.05968 119.667 8.36618 119.872 8.79145C120.297 9.67274 120.438 10.9774 120.38 12.5725L121.892 12.6275ZM117.714 7.51568H129.101V6.00232H117.714V7.51568ZM129.101 7.51568C132.47 7.51568 135.013 8.95216 136.775 11.1486C138.553 13.3644 139.551 16.3783 139.725 19.5008C140.077 25.8205 137.088 32.0696 131.155 33.0944L131.413 34.5856C138.46 33.3684 141.607 26.077 141.236 19.4167C141.049 16.0492 139.971 12.7132 137.956 10.2016C135.925 7.67071 132.959 6.00232 129.101 6.00232V7.51568ZM129.691 33.4757C130.629 33.4757 131.248 32.7277 131.636 31.9967C132.05 31.2172 132.371 30.1558 132.617 28.9528C133.112 26.5331 133.346 23.3423 133.324 20.1762C133.302 17.0108 133.023 13.817 132.47 11.3936C132.195 10.1884 131.841 9.12313 131.386 8.3409C130.948 7.58841 130.286 6.88732 129.337 6.88732V8.40068C129.45 8.40068 129.717 8.48318 130.077 9.10198C130.42 9.69104 130.733 10.5848 130.994 11.7303C131.514 14.0085 131.789 17.0835 131.811 20.1868C131.832 23.2895 131.602 26.3674 131.134 28.6493C130.9 29.797 130.614 30.6946 130.3 31.2865C129.96 31.9267 129.726 31.9623 129.691 31.9623V33.4757ZM128.58 7.644V32.719H130.094V7.644H128.58ZM129.337 33.4757H129.691V31.9623H129.337V33.4757ZM143.85 6.759V6.00232H143.213L143.105 6.63017L143.85 6.759ZM164.382 6.759L165.127 6.62638L165.016 6.00232H164.382V6.759ZM166.388 18.028L165.671 18.2673L167.133 17.8954L166.388 18.028ZM158.246 9.65V8.89332H157.49V9.65H158.246ZM158.246 45.05H157.49V45.1611L157.522 45.2674L158.246 45.05ZM161.786 48.059V48.8157L161.804 47.3025L161.786 48.059ZM156.653 47.941L156.671 47.1845L156.653 47.1841L156.635 47.1846L156.653 47.941ZM151.933 48.059V48.8157H151.943L151.952 48.8154L151.933 48.059ZM150.281 42.159L149.525 42.151L149.525 42.1619L149.525 42.1728L150.281 42.159ZM150.34 36.554L151.097 36.562V36.554H150.34ZM150.34 9.65H151.097V8.89332H150.34V9.65ZM141.903 18.028L141.158 17.8992L142.625 18.2574L141.903 18.028ZM143.85 7.51568H164.382V6.00232H143.85V7.51568ZM163.638 6.89161L165.644 18.1606L167.133 17.8954L165.127 6.62638L163.638 6.89161ZM167.106 17.7887C166.486 15.9266 165.914 13.6886 164.865 11.9825C164.326 11.1054 163.639 10.3235 162.715 9.76422C161.787 9.20237 160.667 8.89332 159.308 8.89332V10.4067C160.428 10.4067 161.27 10.6581 161.931 11.0587C162.597 11.4619 163.126 12.0443 163.576 12.775C164.503 14.2844 164.993 16.2354 165.671 18.2673L167.106 17.7887ZM159.308 8.89332H158.246V10.4067H159.308V8.89332ZM157.49 9.65V45.05H159.003V9.65H157.49ZM157.522 45.2674C157.811 46.2305 158.264 47.1206 158.972 47.7743C159.697 48.4432 160.636 48.8157 161.786 48.8157V47.3023C160.99 47.3023 160.425 47.0553 159.999 46.6622C159.556 46.2539 159.213 45.6395 158.971 44.8326L157.522 45.2674ZM161.804 47.3025L156.671 47.1845L156.636 48.6975L161.769 48.8155L161.804 47.3025ZM156.635 47.1846L151.915 47.3026L151.952 48.8154L156.672 48.6974L156.635 47.1846ZM151.933 47.3023H146.8V48.8157H151.933V47.3023ZM146.8 48.8157C147.643 48.8157 148.373 48.6209 148.981 48.2301C149.588 47.8403 150.023 47.2882 150.329 46.6548C150.926 45.4178 151.068 43.7921 151.038 42.1452L149.525 42.1728C149.554 43.7709 149.401 45.0952 148.966 45.9969C148.755 46.4329 148.489 46.7474 148.163 46.9568C147.839 47.1653 147.404 47.3023 146.8 47.3023V48.8157ZM151.038 42.167L151.097 36.562L149.584 36.546L149.525 42.151L151.038 42.167ZM151.097 36.554V9.65H149.584V36.554H151.097ZM150.34 8.89332H148.983V10.4067H150.34V8.89332ZM148.983 8.89332C147.625 8.89332 146.502 9.20233 145.57 9.76322C144.643 10.3216 143.95 11.1027 143.406 11.9804C142.346 13.6922 141.778 15.9253 141.182 17.7986L142.625 18.2574C143.268 16.2367 143.762 14.2808 144.693 12.7771C145.145 12.047 145.68 11.4637 146.351 11.0597C147.018 10.6582 147.864 10.4067 148.983 10.4067V8.89332ZM142.649 18.1568L144.596 6.88782L143.105 6.63017L141.158 17.8992L142.649 18.1568ZM208.831 44.047L208.164 44.4042L208.286 44.6318L208.521 44.7375L208.831 44.047ZM212.253 45.581H213.009V45.091L212.562 44.8905L212.253 45.581ZM212.253 47.469V48.2257H213.009V47.469H212.253ZM204.111 47.469L203.446 47.8313L203.661 48.2257H204.111V47.469ZM201.633 42.926L202.297 42.5637L201.698 41.4646L201.003 42.5063L201.633 42.926ZM197.621 46.938L197.959 47.6149L197.971 47.6089L197.621 46.938ZM186.765 45.286L187.363 44.8228L186.765 45.286ZM185.29 33.368L186.001 33.6266L185.29 33.368ZM187.414 29.533L188.016 29.9916L188.021 29.9849L188.026 29.9781L187.414 29.533ZM191.721 24.577L192.272 25.0956L192.684 24.6577L192.35 24.1573L191.721 24.577ZM191.485 24.223L190.817 24.5797L190.835 24.6121L190.855 24.6427L191.485 24.223ZM189.774 10.063L189.103 9.71293L189.097 9.7246L189.774 10.063ZM192.488 6.877L192.06 6.25251V6.25251L192.488 6.877ZM199.863 7.644L200.448 7.16484L200.443 7.15814L200.437 7.15156L199.863 7.644ZM197.031 22.158L196.471 21.649L196.111 22.0452L196.364 22.5167L197.031 22.158ZM203.639 34.43L202.972 34.7887L203.836 36.3923L204.363 34.649L203.639 34.43ZM203.816 24.459L203.518 25.1545L203.816 24.459ZM201.751 23.869H200.994V24.5038L201.619 24.6142L201.751 23.869ZM201.751 21.627V20.8703H200.994V21.627H201.751ZM210.837 21.627H211.593V20.8703H210.837V21.627ZM210.837 23.869L210.985 24.611L211.593 24.4893V23.869H210.837ZM208.831 24.459L208.455 23.802L208.442 23.8094L208.43 23.8173L208.831 24.459ZM207.887 25.462L207.191 25.1639V25.1639L207.887 25.462ZM207.415 27.35L208.158 27.4916L208.161 27.4744L208.164 27.457L207.415 27.35ZM206.412 31.657L207.139 31.8649L207.143 31.8528L207.146 31.8405L206.412 31.657ZM204.819 36.554L204.106 36.2995L203.993 36.6154L204.152 36.9112L204.819 36.554ZM194.081 9.178L193.427 8.79673V8.79673L194.081 9.178ZM193.963 15.786L193.238 16.0035L193.241 16.0139L193.963 15.786ZM195.851 19.975L195.184 20.3323L195.744 21.3783L196.456 20.429L195.851 19.975ZM197.267 17.025L196.541 16.8115L196.535 16.8314L196.53 16.8517L197.267 17.025ZM197.09 9.414L196.404 9.73399L196.408 9.74325L196.413 9.75239L197.09 9.414ZM197.857 43.221L197.486 42.5615L197.461 42.5755L197.437 42.5914L197.857 43.221ZM200.453 40.802L201.066 41.245L201.344 40.8604L201.119 40.4428L200.453 40.802ZM192.783 26.583L193.449 26.2238L192.902 25.2106L192.189 26.1141L192.783 26.583ZM190.6 30.241L189.895 29.9653L190.6 30.241ZM190.423 39.386L191.149 39.1741L191.147 39.1657L190.423 39.386ZM192.252 42.808L191.68 43.3036L191.698 43.324L191.717 43.3431L192.252 42.808ZM208.521 44.7375L211.943 46.2715L212.562 44.8905L209.14 43.3565L208.521 44.7375ZM211.496 45.581V47.469H213.009V45.581H211.496ZM212.253 46.7123H204.111V48.2257H212.253V46.7123ZM204.775 47.1067L202.297 42.5637L200.968 43.2883L203.446 47.8313L204.775 47.1067ZM201.003 42.5063C199.742 44.3986 198.471 45.6411 197.271 46.2671L197.971 47.6089C199.485 46.8189 200.928 45.3474 202.262 43.3457L201.003 42.5063ZM197.282 46.2612C195.968 46.9184 194.608 47.2433 193.196 47.2433V48.7567C194.851 48.7567 196.441 48.3736 197.959 47.6148L197.282 46.2612ZM193.196 47.2433C190.47 47.2433 188.598 46.4184 187.363 44.8228L186.166 45.7492C187.763 47.8116 190.139 48.7567 193.196 48.7567V47.2433ZM187.363 44.8228C186.082 43.1684 185.397 40.8147 185.397 37.793H183.884C183.884 41.0253 184.615 43.7456 186.166 45.7492L187.363 44.8228ZM185.397 37.793C185.397 36.1894 185.57 34.8111 186.001 33.6266L184.579 33.1094C184.065 34.5209 183.884 36.0926 183.884 37.793H185.397ZM186.001 33.6266C186.445 32.4044 187.115 31.1733 188.016 29.9916L186.812 29.0744C185.824 30.3707 185.078 31.7356 184.579 33.1094L186.001 33.6266ZM188.026 29.9781C188.938 28.7231 190.383 27.1024 192.272 25.0956L191.17 24.0584C189.282 26.0636 187.777 27.7469 186.802 29.0879L188.026 29.9781ZM192.35 24.1573L192.114 23.8033L190.855 24.6427L191.091 24.9967L192.35 24.1573ZM192.152 23.8663C190.356 20.5065 189.468 17.564 189.468 14.96H187.955C187.955 17.902 188.955 21.0955 190.817 24.5797L192.152 23.8663ZM189.468 14.96C189.468 13.2281 189.803 11.6955 190.45 10.4014L189.097 9.7246C188.328 11.2625 187.955 13.0339 187.955 14.96H189.468ZM190.445 10.413C191.107 9.14399 191.915 8.18552 192.915 7.50149L192.06 6.25251C190.818 7.10248 189.857 8.26801 189.103 9.71299L190.445 10.413ZM192.915 7.50149C193.923 6.81212 194.897 6.51268 195.91 6.51268V4.99932C194.563 4.99932 193.295 5.40788 192.06 6.25251L192.915 7.50149ZM195.91 6.51268C197.261 6.51268 198.356 7.04881 199.288 8.13644L200.437 7.15156C199.245 5.76118 197.744 4.99932 195.91 4.99932V6.51268ZM199.277 8.12316C200.211 9.26475 200.699 10.6801 200.699 12.541H202.212C202.212 10.3899 201.638 8.61924 200.448 7.16484L199.277 8.12316ZM200.699 12.541C200.699 15.4189 199.342 18.4905 196.471 21.649L197.591 22.667C200.619 19.3355 202.212 15.9171 202.212 12.541H200.699ZM196.364 22.5167L202.972 34.7887L204.305 34.0713L197.697 21.7993L196.364 22.5167ZM204.363 34.649C205.149 32.049 205.575 29.4381 205.575 26.76H204.062C204.062 29.2739 203.662 31.737 202.914 34.211L204.363 34.649ZM205.575 26.76C205.575 25.9242 205.448 25.2927 205.285 24.886L203.88 25.448C203.953 25.6313 204.062 26.0618 204.062 26.76H205.575ZM205.285 24.886C205.076 24.3638 204.666 24.0003 204.114 23.7635L203.518 25.1545C203.791 25.2717 203.853 25.3802 203.88 25.448L205.285 24.886ZM204.114 23.7635C203.653 23.5659 202.948 23.3119 201.882 23.1238L201.619 24.6142C202.559 24.7801 203.153 24.9981 203.518 25.1545L204.114 23.7635ZM202.507 23.869V21.627H200.994V23.869H202.507ZM201.751 22.3837H210.837V20.8703H201.751V22.3837ZM210.08 21.627V23.869H211.593V21.627H210.08ZM210.688 23.127C209.828 23.2991 208.994 23.4944 208.455 23.802L209.206 25.116C209.494 24.9516 210.076 24.7929 210.985 24.611L210.688 23.127ZM208.43 23.8173C207.879 24.1616 207.449 24.5614 207.191 25.1639L208.582 25.7601C208.678 25.5366 208.838 25.3464 209.232 25.1007L208.43 23.8173ZM207.191 25.1639C206.98 25.6576 206.789 26.3764 206.666 27.243L208.164 27.457C208.276 26.6716 208.44 26.0924 208.582 25.7601L207.191 25.1639ZM206.671 27.2084C206.44 28.4219 206.092 29.815 205.678 31.4735L207.146 31.8405C207.557 30.195 207.917 28.7561 208.158 27.4916L206.671 27.2084ZM205.684 31.4491C205.218 33.0804 204.693 34.6571 204.106 36.2995L205.531 36.8085C206.125 35.1469 206.661 33.5376 207.139 31.8649L205.684 31.4491ZM204.152 36.9112L208.164 44.4042L209.498 43.6898L205.486 36.1968L204.152 36.9112ZM193.427 8.79673C192.92 9.66563 192.675 10.8784 192.675 12.305H194.188C194.188 11.0176 194.415 10.1064 194.734 9.55926L193.427 8.79673ZM192.675 12.305C192.675 13.5655 192.865 14.7598 193.238 16.0034L194.687 15.5686C194.353 14.4522 194.188 13.4045 194.188 12.305H192.675ZM193.241 16.0139C193.616 17.2014 194.291 18.6656 195.184 20.3323L196.518 19.6177C195.641 17.9804 195.017 16.6126 194.684 15.5581L193.241 16.0139ZM196.456 20.429C197.221 19.4085 197.741 18.3111 198.003 17.1983L196.53 16.8517C196.32 17.7449 195.896 18.6535 195.245 19.521L196.456 20.429ZM197.993 17.2385C198.315 16.1413 198.436 14.9418 198.436 13.544H196.923C196.923 14.8602 196.808 15.9027 196.541 16.8115L197.993 17.2385ZM198.436 13.544C198.436 11.6558 198.267 10.0766 197.766 9.0756L196.413 9.75239C196.738 10.4034 196.923 11.6562 196.923 13.544H198.436ZM197.775 9.09401C197.299 8.07319 196.561 7.35932 195.497 7.35932V8.87268C195.731 8.87268 196.054 8.98481 196.404 9.73399L197.775 9.09401ZM195.497 7.35932C194.57 7.35932 193.897 7.99175 193.427 8.79673L194.734 9.55927C195.091 8.94825 195.361 8.87268 195.497 8.87268V7.35932ZM198.228 43.8805C199.286 43.2854 200.249 42.377 201.066 41.245L199.839 40.359C199.123 41.351 198.316 42.0946 197.486 42.5615L198.228 43.8805ZM201.119 40.4428L193.449 26.2238L192.117 26.9422L199.787 41.1612L201.119 40.4428ZM192.189 26.1141C191.276 27.2702 190.462 28.5155 189.895 29.9653L191.304 30.5167C191.799 29.2525 192.519 28.1378 193.377 27.0519L192.189 26.1141ZM189.895 29.9653C189.325 31.4216 189.017 33.1097 189.017 35.02H190.53C190.53 33.2723 190.812 31.7744 191.304 30.5167L189.895 29.9653ZM189.017 35.02C189.017 36.6313 189.265 38.1805 189.699 39.6063L191.147 39.1657C190.755 37.8775 190.53 36.4767 190.53 35.02H189.017ZM189.696 39.5979C190.14 41.1189 190.842 42.3366 191.68 43.3036L192.824 42.3124C192.128 41.5094 191.531 40.4851 191.149 39.1741L189.696 39.5979ZM191.717 43.3431C192.674 44.2999 193.806 44.8037 195.143 44.8037V43.2903C194.237 43.2903 193.482 42.9681 192.787 42.2729L191.717 43.3431ZM195.143 44.8037C196.165 44.8037 197.257 44.53 198.276 43.8506L197.437 42.5914C196.686 43.092 195.891 43.2903 195.143 43.2903V44.8037Z" fill="white" mask="url(#path-1-outside-1_924_1879)"/>
</g>
<defs>
<filter id="filter0_d_924_1879" x="0.746094" y="0.740967" width="215.506" height="61.1" filterUnits="userSpaceOnUse" color-interpolation-filters="sRGB">
<feFlood flood-opacity="0" result="BackgroundImageFix"/>
<feColorMatrix in="SourceAlpha" type="matrix" values="0 0 0 0 0 0 0 0 0 0 0 0 0 0 0 0 0 0 127 0" result="hardAlpha"/>
<feOffset dy="4"/>
<feGaussianBlur stdDeviation="2"/>
<feComposite in2="hardAlpha" operator="out"/>
<feColorMatrix type="matrix" values="0 0 0 0 0 0 0 0 0 0 0 0 0 0 0 0 0 0 0.25 0"/>
<feBlend mode="normal" in2="BackgroundImageFix" result="effect1_dropShadow_924_1879"/>
<feBlend mode="normal" in="SourceGraphic" in2="effect1_dropShadow_924_1879" result="shape"/>
</filter>
<linearGradient id="paint0_linear_924_1879" x1="112" y1="3" x2="112" y2="60" gradientUnits="userSpaceOnUse">
<stop/>
<stop offset="0.63" stop-color="#D7A129"/>
</linearGradient>
</defs>
</svg>
