<svg width="62" height="34" viewBox="0 0 62 34" fill="none" xmlns="http://www.w3.org/2000/svg">
<g filter="url(#filter0_d_1015_1802)">
<mask id="path-1-outside-1_1015_1802" maskUnits="userSpaceOnUse" x="4" y="-1" width="55" height="30" fill="black">
<rect fill="white" x="4" y="-1" width="55" height="30"/>
<path d="M14.0389 11.56C14.7856 11.63 15.4739 11.9333 16.1039 12.47C16.7339 13.0067 17.2239 13.6717 17.5739 14.465C17.9473 15.2583 18.2156 16.1217 18.3789 17.055C18.5656 17.9883 18.5656 18.9217 18.3789 19.855C18.1923 20.7883 17.8773 21.64 17.4339 22.41C16.9906 23.1567 16.3139 23.7633 15.4039 24.23C14.4939 24.6967 13.4206 24.93 12.1839 24.93L7.42395 25H4.34395C5.51061 25 6.18728 24.2767 6.37395 22.83V3.965C6.42061 1.655 5.73228 0.499998 4.30895 0.499998H12.3589C13.2456 0.499998 14.0389 0.698332 14.7389 1.095C15.4389 1.46833 15.9873 1.97 16.3839 2.6C16.7806 3.20667 17.0839 3.88333 17.2939 4.63C17.5039 5.37667 17.5623 6.135 17.4689 6.905C17.3989 7.675 17.2356 8.38667 16.9789 9.04C16.7456 9.69333 16.3606 10.2533 15.8239 10.72C15.3106 11.1867 14.7156 11.4667 14.0389 11.56ZM11.4139 1.235H11.1339V11.525H11.3089C11.7289 11.525 12.0789 11.175 12.3589 10.475C12.6623 9.775 12.8373 8.92333 12.8839 7.92C12.9539 6.89333 12.9539 5.87833 12.8839 4.875C12.8373 3.84833 12.6739 2.985 12.3939 2.285C12.1139 1.585 11.7873 1.235 11.4139 1.235ZM11.4139 24.3C11.9739 24.3 12.4523 23.8917 12.8489 23.075C13.2689 22.235 13.5373 21.2317 13.6539 20.065C13.7706 18.8983 13.7939 17.7317 13.7239 16.565C13.6539 15.375 13.4089 14.3717 12.9889 13.555C12.5923 12.7383 12.0789 12.33 11.4489 12.33H11.1339V24.37L11.4139 24.3ZM27.0611 24.3C27.4811 24.3 27.8895 24.195 28.2861 23.985C28.6828 23.775 29.0211 23.5067 29.3011 23.18C29.6045 22.8533 29.8845 22.4917 30.1411 22.095C30.3978 21.6983 30.6078 21.3017 30.7711 20.905C30.9578 20.485 31.1095 20.1117 31.2261 19.785C31.3661 19.4583 31.4711 19.19 31.5411 18.98L31.6111 18.665L30.2811 24.93L21.9161 25H18.8361C20.2595 25 20.9478 23.845 20.9011 21.535L20.9711 18.175L20.9011 3.895C20.9245 2.82167 20.7845 1.99333 20.4811 1.41C20.2011 0.803332 19.6528 0.499998 18.8361 0.499998H29.7561L30.3861 7.5C30.3628 7.36 30.2811 6.99833 30.1411 6.415C30.0245 5.83167 29.8378 5.12 29.5811 4.28C29.3478 3.44 29.0095 2.705 28.5661 2.075C28.1461 1.445 27.7145 1.13 27.2711 1.13H25.5211V11.63H26.1511C26.5945 11.63 26.9795 11.5133 27.3061 11.28C27.6561 11.0233 27.9245 10.7433 28.1111 10.44C28.2978 10.1133 28.4495 9.75167 28.5661 9.355C28.6828 8.95833 28.7528 8.66667 28.7761 8.48C28.7995 8.29333 28.8228 8.15333 28.8461 8.06V17.16C28.8228 17.0433 28.7995 16.88 28.7761 16.67C28.7761 16.4367 28.7178 16.0517 28.6011 15.515C28.4845 14.955 28.3328 14.4767 28.1461 14.08C27.9828 13.66 27.7261 13.275 27.3761 12.925C27.0261 12.575 26.6178 12.4 26.1511 12.4H25.5211V24.3H27.0611ZM38.3604 0.885C37.5437 0.885 36.9371 1.235 36.5404 1.935C36.1437 2.61166 35.9454 3.37 35.9454 4.21C35.9454 4.93333 36.2021 5.69167 36.7154 6.485C37.2521 7.255 37.8937 8.03667 38.6404 8.83C39.3871 9.6 40.1337 10.4283 40.8804 11.315C41.6271 12.1783 42.2571 13.2283 42.7704 14.465C43.3071 15.6783 43.5754 16.9733 43.5754 18.35C43.5754 20.4267 43.0504 22.095 42.0004 23.355C40.9504 24.615 39.4804 25.245 37.5904 25.245C37.3571 25.245 37.0304 25.1983 36.6104 25.105C36.1904 25.0117 35.8171 24.93 35.4904 24.86C35.1871 24.79 34.8487 24.755 34.4754 24.755C34.1254 24.7317 33.9037 24.79 33.8104 24.93L33.6704 18.665C33.8337 19.5517 34.0087 20.31 34.1954 20.94C34.4054 21.57 34.6621 22.1767 34.9654 22.76C35.2687 23.32 35.6421 23.7517 36.0854 24.055C36.5521 24.3583 37.0771 24.51 37.6604 24.51C39.1071 24.51 39.8304 23.46 39.8304 21.36C39.8304 20.1933 39.6437 19.1083 39.2704 18.105C38.9204 17.0783 38.4771 16.215 37.9404 15.515C37.4037 14.815 36.8204 14.08 36.1904 13.31C35.5837 12.54 35.0121 11.8283 34.4754 11.175C33.9387 10.4983 33.4954 9.69333 33.1454 8.76C32.7954 7.80333 32.6204 6.8 32.6204 5.75C32.6204 2.04 34.4054 0.184998 37.9754 0.184998C38.3721 0.184998 38.8387 0.231665 39.3754 0.324998C39.9121 0.418332 40.2971 0.488332 40.5304 0.534998C40.7637 0.558332 40.9971 0.534999 41.2304 0.464999L41.5454 7.255C41.4987 6.99833 41.4287 6.59 41.3354 6.03C41.2654 5.47 41.1954 4.99167 41.1254 4.595C41.0554 4.19833 40.9504 3.755 40.8104 3.265C40.6704 2.75167 40.4954 2.34333 40.2854 2.04C40.0987 1.71333 39.8421 1.445 39.5154 1.235C39.1887 1.00167 38.8037 0.885 38.3604 0.885ZM44.5272 0.499998H56.7072L57.8622 7.185C57.8156 7.06833 57.7222 6.78833 57.5822 6.345C57.4422 5.90166 57.3372 5.59833 57.2672 5.435C57.2206 5.27167 57.1156 5.00333 56.9522 4.63C56.8122 4.25667 56.6839 4 56.5672 3.86C56.4506 3.69667 56.2872 3.48667 56.0772 3.23C55.8672 2.97333 55.6572 2.79833 55.4472 2.705C55.2372 2.58833 54.9689 2.48333 54.6422 2.39C54.3389 2.29667 54.0122 2.25 53.6622 2.25H53.0672V23.25C53.3939 24.4167 54.0939 25 55.1672 25L52.0872 24.93L49.3222 25H46.2422C47.6889 25 48.3772 23.845 48.3072 21.535L48.3772 18.175V2.25H47.5372C47.1872 2.25 46.8606 2.29667 46.5572 2.39C46.2539 2.48333 45.9856 2.58833 45.7522 2.705C45.5422 2.79833 45.3322 2.97333 45.1222 3.23C44.9122 3.48667 44.7489 3.69667 44.6322 3.86C44.5156 4 44.3756 4.25667 44.2122 4.63C44.0722 5.00333 43.9672 5.27167 43.8972 5.435C43.8506 5.59833 43.7572 5.90166 43.6172 6.345C43.4772 6.78833 43.3839 7.06833 43.3372 7.185L44.5272 0.499998Z"/>
</mask>
<path d="M14.0389 11.56C14.7856 11.63 15.4739 11.9333 16.1039 12.47C16.7339 13.0067 17.2239 13.6717 17.5739 14.465C17.9473 15.2583 18.2156 16.1217 18.3789 17.055C18.5656 17.9883 18.5656 18.9217 18.3789 19.855C18.1923 20.7883 17.8773 21.64 17.4339 22.41C16.9906 23.1567 16.3139 23.7633 15.4039 24.23C14.4939 24.6967 13.4206 24.93 12.1839 24.93L7.42395 25H4.34395C5.51061 25 6.18728 24.2767 6.37395 22.83V3.965C6.42061 1.655 5.73228 0.499998 4.30895 0.499998H12.3589C13.2456 0.499998 14.0389 0.698332 14.7389 1.095C15.4389 1.46833 15.9873 1.97 16.3839 2.6C16.7806 3.20667 17.0839 3.88333 17.2939 4.63C17.5039 5.37667 17.5623 6.135 17.4689 6.905C17.3989 7.675 17.2356 8.38667 16.9789 9.04C16.7456 9.69333 16.3606 10.2533 15.8239 10.72C15.3106 11.1867 14.7156 11.4667 14.0389 11.56ZM11.4139 1.235H11.1339V11.525H11.3089C11.7289 11.525 12.0789 11.175 12.3589 10.475C12.6623 9.775 12.8373 8.92333 12.8839 7.92C12.9539 6.89333 12.9539 5.87833 12.8839 4.875C12.8373 3.84833 12.6739 2.985 12.3939 2.285C12.1139 1.585 11.7873 1.235 11.4139 1.235ZM11.4139 24.3C11.9739 24.3 12.4523 23.8917 12.8489 23.075C13.2689 22.235 13.5373 21.2317 13.6539 20.065C13.7706 18.8983 13.7939 17.7317 13.7239 16.565C13.6539 15.375 13.4089 14.3717 12.9889 13.555C12.5923 12.7383 12.0789 12.33 11.4489 12.33H11.1339V24.37L11.4139 24.3ZM27.0611 24.3C27.4811 24.3 27.8895 24.195 28.2861 23.985C28.6828 23.775 29.0211 23.5067 29.3011 23.18C29.6045 22.8533 29.8845 22.4917 30.1411 22.095C30.3978 21.6983 30.6078 21.3017 30.7711 20.905C30.9578 20.485 31.1095 20.1117 31.2261 19.785C31.3661 19.4583 31.4711 19.19 31.5411 18.98L31.6111 18.665L30.2811 24.93L21.9161 25H18.8361C20.2595 25 20.9478 23.845 20.9011 21.535L20.9711 18.175L20.9011 3.895C20.9245 2.82167 20.7845 1.99333 20.4811 1.41C20.2011 0.803332 19.6528 0.499998 18.8361 0.499998H29.7561L30.3861 7.5C30.3628 7.36 30.2811 6.99833 30.1411 6.415C30.0245 5.83167 29.8378 5.12 29.5811 4.28C29.3478 3.44 29.0095 2.705 28.5661 2.075C28.1461 1.445 27.7145 1.13 27.2711 1.13H25.5211V11.63H26.1511C26.5945 11.63 26.9795 11.5133 27.3061 11.28C27.6561 11.0233 27.9245 10.7433 28.1111 10.44C28.2978 10.1133 28.4495 9.75167 28.5661 9.355C28.6828 8.95833 28.7528 8.66667 28.7761 8.48C28.7995 8.29333 28.8228 8.15333 28.8461 8.06V17.16C28.8228 17.0433 28.7995 16.88 28.7761 16.67C28.7761 16.4367 28.7178 16.0517 28.6011 15.515C28.4845 14.955 28.3328 14.4767 28.1461 14.08C27.9828 13.66 27.7261 13.275 27.3761 12.925C27.0261 12.575 26.6178 12.4 26.1511 12.4H25.5211V24.3H27.0611ZM38.3604 0.885C37.5437 0.885 36.9371 1.235 36.5404 1.935C36.1437 2.61166 35.9454 3.37 35.9454 4.21C35.9454 4.93333 36.2021 5.69167 36.7154 6.485C37.2521 7.255 37.8937 8.03667 38.6404 8.83C39.3871 9.6 40.1337 10.4283 40.8804 11.315C41.6271 12.1783 42.2571 13.2283 42.7704 14.465C43.3071 15.6783 43.5754 16.9733 43.5754 18.35C43.5754 20.4267 43.0504 22.095 42.0004 23.355C40.9504 24.615 39.4804 25.245 37.5904 25.245C37.3571 25.245 37.0304 25.1983 36.6104 25.105C36.1904 25.0117 35.8171 24.93 35.4904 24.86C35.1871 24.79 34.8487 24.755 34.4754 24.755C34.1254 24.7317 33.9037 24.79 33.8104 24.93L33.6704 18.665C33.8337 19.5517 34.0087 20.31 34.1954 20.94C34.4054 21.57 34.6621 22.1767 34.9654 22.76C35.2687 23.32 35.6421 23.7517 36.0854 24.055C36.5521 24.3583 37.0771 24.51 37.6604 24.51C39.1071 24.51 39.8304 23.46 39.8304 21.36C39.8304 20.1933 39.6437 19.1083 39.2704 18.105C38.9204 17.0783 38.4771 16.215 37.9404 15.515C37.4037 14.815 36.8204 14.08 36.1904 13.31C35.5837 12.54 35.0121 11.8283 34.4754 11.175C33.9387 10.4983 33.4954 9.69333 33.1454 8.76C32.7954 7.80333 32.6204 6.8 32.6204 5.75C32.6204 2.04 34.4054 0.184998 37.9754 0.184998C38.3721 0.184998 38.8387 0.231665 39.3754 0.324998C39.9121 0.418332 40.2971 0.488332 40.5304 0.534998C40.7637 0.558332 40.9971 0.534999 41.2304 0.464999L41.5454 7.255C41.4987 6.99833 41.4287 6.59 41.3354 6.03C41.2654 5.47 41.1954 4.99167 41.1254 4.595C41.0554 4.19833 40.9504 3.755 40.8104 3.265C40.6704 2.75167 40.4954 2.34333 40.2854 2.04C40.0987 1.71333 39.8421 1.445 39.5154 1.235C39.1887 1.00167 38.8037 0.885 38.3604 0.885ZM44.5272 0.499998H56.7072L57.8622 7.185C57.8156 7.06833 57.7222 6.78833 57.5822 6.345C57.4422 5.90166 57.3372 5.59833 57.2672 5.435C57.2206 5.27167 57.1156 5.00333 56.9522 4.63C56.8122 4.25667 56.6839 4 56.5672 3.86C56.4506 3.69667 56.2872 3.48667 56.0772 3.23C55.8672 2.97333 55.6572 2.79833 55.4472 2.705C55.2372 2.58833 54.9689 2.48333 54.6422 2.39C54.3389 2.29667 54.0122 2.25 53.6622 2.25H53.0672V23.25C53.3939 24.4167 54.0939 25 55.1672 25L52.0872 24.93L49.3222 25H46.2422C47.6889 25 48.3772 23.845 48.3072 21.535L48.3772 18.175V2.25H47.5372C47.1872 2.25 46.8606 2.29667 46.5572 2.39C46.2539 2.48333 45.9856 2.58833 45.7522 2.705C45.5422 2.79833 45.3322 2.97333 45.1222 3.23C44.9122 3.48667 44.7489 3.69667 44.6322 3.86C44.5156 4 44.3756 4.25667 44.2122 4.63C44.0722 5.00333 43.9672 5.27167 43.8972 5.435C43.8506 5.59833 43.7572 5.90166 43.6172 6.345C43.4772 6.78833 43.3839 7.06833 43.3372 7.185L44.5272 0.499998Z" fill="url(#paint0_linear_1015_1802)"/>
<path d="M14.0389 11.56L13.9023 10.5694L13.9456 12.5556L14.0389 11.56ZM17.5739 14.465L16.659 14.8686L16.6639 14.8798L16.6691 14.8908L17.5739 14.465ZM18.3789 17.055L17.3939 17.2274L17.396 17.2393L17.3984 17.2511L18.3789 17.055ZM18.3789 19.855L17.3984 19.6589L18.3789 19.855ZM17.4339 22.41L18.2939 22.9206L18.3006 22.909L17.4339 22.41ZM15.4039 24.23L14.9476 23.3402L15.4039 24.23ZM12.1839 24.93V23.93H12.1766L12.1692 23.9301L12.1839 24.93ZM7.42395 25V26H7.4313L7.43865 25.9999L7.42395 25ZM6.37395 22.83L7.36572 22.958L7.37395 22.8942V22.83H6.37395ZM6.37395 3.965L5.37415 3.9448L5.37395 3.9549V3.965H6.37395ZM14.7389 1.095L14.2459 1.96502L14.2571 1.97133L14.2684 1.97735L14.7389 1.095ZM16.3839 2.6L15.5377 3.13281L15.5423 3.14007L15.547 3.14725L16.3839 2.6ZM17.2939 4.63L18.2566 4.35925V4.35925L17.2939 4.63ZM17.4689 6.905L16.4762 6.78467L16.4744 6.79954L16.4731 6.81446L17.4689 6.905ZM16.9789 9.04L16.0482 8.67435L16.0425 8.68892L16.0372 8.70366L16.9789 9.04ZM15.8239 10.72L15.1678 9.96539L15.1594 9.97264L15.1513 9.98006L15.8239 10.72ZM11.1339 1.235V0.234999H10.1339V1.235H11.1339ZM11.1339 11.525H10.1339V12.525H11.1339V11.525ZM12.3589 10.475L11.4414 10.0774L11.4357 10.0904L11.4305 10.1036L12.3589 10.475ZM12.8839 7.92L11.8863 7.85198L11.8855 7.86275L11.885 7.87354L12.8839 7.92ZM12.8839 4.875L11.885 4.92041L11.8855 4.93251L11.8864 4.9446L12.8839 4.875ZM12.3939 2.285L13.3224 1.91361L13.3224 1.91361L12.3939 2.285ZM11.4139 24.3V23.3H11.2908L11.1714 23.3299L11.4139 24.3ZM12.8489 23.075L11.9545 22.6278L11.9494 22.6381L12.8489 23.075ZM13.6539 20.065L14.649 20.1645L14.649 20.1645L13.6539 20.065ZM13.7239 16.565L12.7257 16.6237L12.7257 16.6249L13.7239 16.565ZM12.9889 13.555L12.0894 13.9919L12.0944 14.0022L12.0997 14.0123L12.9889 13.555ZM11.1339 12.33V11.33H10.1339V12.33H11.1339ZM11.1339 24.37H10.1339V25.6508L11.3765 25.3401L11.1339 24.37ZM13.9456 12.5556C14.4664 12.6045 14.9651 12.8135 15.4555 13.2312L16.7524 11.7088C15.9828 11.0532 15.1048 10.6555 14.1323 10.5644L13.9456 12.5556ZM15.4555 13.2312C15.9654 13.6656 16.3668 14.2063 16.659 14.8686L18.4889 14.0614C18.0811 13.137 17.5025 12.3477 16.7524 11.7088L15.4555 13.2312ZM16.6691 14.8908C17.0016 15.5974 17.2447 16.3747 17.3939 17.2274L19.364 16.8826C19.1865 15.8686 18.8929 14.9193 18.4788 14.0392L16.6691 14.8908ZM17.3984 17.2511C17.5591 18.055 17.5591 18.855 17.3984 19.6589L19.3595 20.0511C19.5721 18.9883 19.5721 17.9217 19.3595 16.8589L17.3984 17.2511ZM17.3984 19.6589C17.2315 20.4934 16.9527 21.2416 16.5673 21.911L18.3006 22.909C18.8018 22.0384 19.1531 21.0833 19.3595 20.0511L17.3984 19.6589ZM16.5741 21.8995C16.2429 22.4573 15.7203 22.9439 14.9476 23.3402L15.8603 25.1198C16.9076 24.5827 17.7384 23.856 18.2938 22.9205L16.5741 21.8995ZM14.9476 23.3402C14.2054 23.7208 13.2948 23.93 12.1839 23.93V25.93C13.5465 25.93 14.7825 25.6725 15.8603 25.1198L14.9476 23.3402ZM12.1692 23.9301L7.40924 24.0001L7.43865 25.9999L12.1987 25.9299L12.1692 23.9301ZM7.42395 24H4.34395V26H7.42395V24ZM4.34395 26C5.15049 26 5.89557 25.7405 6.45672 25.1407C6.9915 24.569 7.25764 23.7956 7.36572 22.958L5.38217 22.702C5.30358 23.3111 5.13806 23.6227 4.99617 23.7743C4.88065 23.8978 4.70406 24 4.34395 24V26ZM7.37395 22.83V3.965H5.37395V22.83H7.37395ZM7.37374 3.9852C7.39846 2.76155 7.23816 1.67054 6.75172 0.854307C6.21467 -0.0468423 5.34779 -0.500002 4.30895 -0.500002V1.5C4.69344 1.5 4.88239 1.62434 5.03367 1.87819C5.23557 2.21695 5.3961 2.85845 5.37415 3.9448L7.37374 3.9852ZM4.30895 1.5H12.3589V-0.500002H4.30895V1.5ZM12.3589 1.5C13.0909 1.5 13.7113 1.66204 14.2459 1.96502L15.232 0.224977C14.3666 -0.265374 13.4003 -0.500002 12.3589 -0.500002V1.5ZM14.2684 1.97735C14.8253 2.27439 15.2398 2.6597 15.5377 3.13281L17.2302 2.06719C16.7347 1.2803 16.0526 0.662276 15.2095 0.212646L14.2684 1.97735ZM15.547 3.14725C15.8841 3.66291 16.1469 4.24524 16.3313 4.90074L18.2566 4.35925C18.021 3.52143 17.6771 2.75042 17.2209 2.05275L15.547 3.14725ZM16.3313 4.90074C16.5055 5.52032 16.5537 6.14573 16.4762 6.78467L18.4617 7.02533C18.5709 6.12426 18.5023 5.23302 18.2566 4.35925L16.3313 4.90074ZM16.4731 6.81446C16.4108 7.49961 16.2669 8.11761 16.0482 8.67435L17.9097 9.40565C18.2043 8.65572 18.3871 7.85039 18.4648 6.99554L16.4731 6.81446ZM16.0372 8.70366C15.8631 9.19119 15.5783 9.60838 15.1678 9.96539L16.4801 11.4746C17.1429 10.8983 17.6281 10.1955 17.9207 9.37634L16.0372 8.70366ZM15.1513 9.98006C14.7847 10.3133 14.3758 10.5041 13.9023 10.5694L14.1756 12.5506C15.0554 12.4293 15.8365 12.0601 16.4966 11.4599L15.1513 9.98006ZM11.4139 0.234999H11.1339V2.235H11.4139V0.234999ZM10.1339 1.235V11.525H12.1339V1.235H10.1339ZM11.1339 12.525H11.3089V10.525H11.1339V12.525ZM11.3089 12.525C12.3994 12.525 12.9846 11.6035 13.2874 10.8464L11.4305 10.1036C11.317 10.3872 11.2219 10.5128 11.1793 10.5554C11.1625 10.5723 11.1672 10.5625 11.197 10.549C11.2298 10.5341 11.2702 10.525 11.3089 10.525V12.525ZM13.2765 10.8726C13.6406 10.0324 13.8323 9.05459 13.8829 7.96646L11.885 7.87354C11.8423 8.79207 11.684 9.51755 11.4414 10.0774L13.2765 10.8726ZM13.8816 7.98802C13.9547 6.91659 13.9548 5.8556 13.8815 4.8054L11.8864 4.9446C11.9531 5.90107 11.9532 6.87007 11.8863 7.85198L13.8816 7.98802ZM13.8829 4.82959C13.8329 3.72888 13.656 2.74767 13.3224 1.91361L11.4655 2.65639C11.6918 3.22232 11.8417 3.96779 11.885 4.92041L13.8829 4.82959ZM13.3224 1.91361C13.1598 1.50714 12.9522 1.11752 12.67 0.815181C12.3741 0.498133 11.951 0.234999 11.4139 0.234999V2.235C11.3445 2.235 11.2825 2.21729 11.238 2.19505C11.1982 2.17515 11.1899 2.16054 11.2079 2.17982C11.2524 2.22748 11.3481 2.36286 11.4655 2.65639L13.3224 1.91361ZM11.4139 25.3C12.5605 25.3 13.2972 24.4409 13.7485 23.5119L11.9494 22.6381C11.7867 22.9731 11.6421 23.149 11.5434 23.2332C11.4615 23.3031 11.4264 23.3 11.4139 23.3V25.3ZM13.7434 23.5222C14.2294 22.5501 14.5231 21.4233 14.649 20.1645L12.6589 19.9655C12.5515 21.04 12.3085 21.9199 11.9545 22.6278L13.7434 23.5222ZM14.649 20.1645C14.7709 18.945 14.7953 17.7251 14.7221 16.5051L12.7257 16.6249C12.7925 17.7383 12.7703 18.8516 12.6589 19.9655L14.649 20.1645ZM14.7222 16.5063C14.6464 15.2169 14.3779 14.0692 13.8782 13.0977L12.0997 14.0123C12.44 14.6741 12.6615 15.5331 12.7257 16.6237L14.7222 16.5063ZM13.8885 13.1181C13.4087 12.1304 12.6228 11.33 11.4489 11.33V13.33C11.5351 13.33 11.7759 13.3463 12.0894 13.9919L13.8885 13.1181ZM11.4489 11.33H11.1339V13.33H11.4489V11.33ZM10.1339 12.33V24.37H12.1339V12.33H10.1339ZM11.3765 25.3401L11.6565 25.2701L11.1714 23.3299L10.8914 23.3999L11.3765 25.3401ZM28.2861 23.985L27.8182 23.1012L28.2861 23.985ZM29.3011 23.18L28.5683 22.4995L28.5548 22.5141L28.5419 22.5292L29.3011 23.18ZM30.1411 22.095L29.3016 21.5517L30.1411 22.095ZM30.7711 20.905L29.8573 20.4989L29.8517 20.5115L29.8465 20.5243L30.7711 20.905ZM31.2261 19.785L30.307 19.3911L30.2948 19.4195L30.2844 19.4487L31.2261 19.785ZM31.5411 18.98L32.4898 19.2962L32.5061 19.2473L32.5173 19.1969L31.5411 18.98ZM31.6111 18.665L32.5893 18.8727L30.6349 18.4481L31.6111 18.665ZM30.2811 24.93L30.2895 25.93L31.0926 25.9232L31.2593 25.1377L30.2811 24.93ZM21.9161 25V26L21.9245 26L21.9161 25ZM20.9011 21.535L19.9014 21.5142L19.9009 21.5347L19.9013 21.5552L20.9011 21.535ZM20.9711 18.175L21.9709 18.1958L21.9712 18.183L21.9711 18.1701L20.9711 18.175ZM20.9011 3.895L19.9014 3.87326L19.9011 3.88658L19.9011 3.8999L20.9011 3.895ZM20.4811 1.41L19.5732 1.82906L19.583 1.85045L19.5939 1.87135L20.4811 1.41ZM29.7561 0.499998L30.7521 0.410361L30.6702 -0.500002H29.7561V0.499998ZM30.3861 7.5L29.3997 7.6644L31.3821 7.41036L30.3861 7.5ZM30.1411 6.415L29.1606 6.61112L29.1643 6.62982L29.1687 6.64837L30.1411 6.415ZM29.5811 4.28L28.6176 4.54764L28.621 4.55998L28.6248 4.57222L29.5811 4.28ZM28.5661 2.075L27.7341 2.6297L27.7411 2.64019L27.7483 2.65049L28.5661 2.075ZM25.5211 1.13V0.129999H24.5211V1.13H25.5211ZM25.5211 11.63H24.5211V12.63H25.5211V11.63ZM27.3061 11.28L27.8874 12.0938L27.8975 12.0864L27.3061 11.28ZM28.1111 10.44L28.9628 10.9641L28.9713 10.9503L28.9794 10.9361L28.1111 10.44ZM28.5661 9.355L27.6068 9.07283L28.5661 9.355ZM28.7761 8.48L27.7839 8.35596V8.35597L28.7761 8.48ZM28.8461 8.06H29.8461L27.876 7.81747L28.8461 8.06ZM28.8461 17.16L27.8656 17.3561L29.8461 17.16H28.8461ZM28.7761 16.67H27.7761V16.7254L27.7822 16.7804L28.7761 16.67ZM28.6011 15.515L27.6221 15.719L27.624 15.7274L28.6011 15.515ZM28.1461 14.08L27.2141 14.4424L27.2266 14.4746L27.2413 14.5058L28.1461 14.08ZM27.3761 12.925L28.0832 12.2179V12.2179L27.3761 12.925ZM25.5211 12.4V11.4H24.5211V12.4H25.5211ZM25.5211 24.3H24.5211V25.3H25.5211V24.3ZM27.0611 25.3C27.6554 25.3 28.2234 25.1497 28.754 24.8688L27.8182 23.1012C27.5556 23.2403 27.3069 23.3 27.0611 23.3V25.3ZM28.754 24.8688C29.2567 24.6027 29.6952 24.2568 30.0604 23.8308L28.5419 22.5292C28.347 22.7565 28.1089 22.9473 27.8182 23.1012L28.754 24.8688ZM30.0339 23.8605C30.379 23.4888 30.6944 23.0808 30.9807 22.6383L29.3016 21.5517C29.0746 21.9026 28.8299 22.2179 28.5683 22.4995L30.0339 23.8605ZM30.9807 22.6383C31.2673 22.1953 31.5069 21.7444 31.6958 21.2857L29.8465 20.5243C29.7087 20.8589 29.5283 21.2014 29.3016 21.5517L30.9807 22.6383ZM31.6849 21.3111C31.8787 20.8751 32.0406 20.4778 32.1679 20.1213L30.2844 19.4487C30.1784 19.7456 30.0369 20.0949 29.8573 20.4989L31.6849 21.3111ZM32.1453 20.1789C32.2905 19.84 32.4074 19.5433 32.4898 19.2962L30.5925 18.6638C30.5348 18.8367 30.4417 19.0767 30.307 19.3911L32.1453 20.1789ZM32.5173 19.1969L32.5873 18.8819L30.6349 18.4481L30.5649 18.7631L32.5173 19.1969ZM30.6329 18.4573L29.3029 24.7223L31.2593 25.1377L32.5893 18.8727L30.6329 18.4573ZM30.2728 23.93L21.9078 24L21.9245 26L30.2895 25.93L30.2728 23.93ZM21.9161 24H18.8361V26H21.9161V24ZM18.8361 26C19.875 26 20.7419 25.5468 21.2789 24.6457C21.7653 23.8295 21.9256 22.7385 21.9009 21.5148L19.9013 21.5552C19.9233 22.6415 19.7628 23.283 19.5609 23.6218C19.4096 23.8757 19.2206 24 18.8361 24V26ZM21.9009 21.5558L21.9709 18.1958L19.9713 18.1542L19.9014 21.5142L21.9009 21.5558ZM21.9711 18.1701L21.9011 3.8901L19.9011 3.8999L19.9711 18.1799L21.9711 18.1701ZM21.9009 3.91673C21.9258 2.77014 21.7835 1.747 21.3683 0.948646L19.5939 1.87135C19.7854 2.23967 19.9231 2.87319 19.9014 3.87326L21.9009 3.91673ZM21.3891 0.990941C21.1662 0.507978 20.817 0.114166 20.3439 -0.147535C19.8834 -0.402322 19.3639 -0.500002 18.8361 -0.500002V1.5C19.125 1.5 19.2881 1.55399 19.3758 1.60253C19.4511 1.64417 19.5161 1.70535 19.5732 1.82906L21.3891 0.990941ZM18.8361 1.5H29.7561V-0.500002H18.8361V1.5ZM28.7602 0.589636L29.3902 7.58964L31.3821 7.41036L30.7521 0.410361L28.7602 0.589636ZM31.3725 7.3356C31.342 7.15268 31.2501 6.75088 31.1135 6.18163L29.1687 6.64837C29.3121 7.24578 29.3836 7.56732 29.3997 7.6644L31.3725 7.3356ZM31.1217 6.21888C30.9963 5.59184 30.7997 4.84603 30.5375 3.98778L28.6248 4.57222C28.8759 5.39396 29.0526 6.07149 29.1606 6.61112L31.1217 6.21888ZM30.5447 4.01236C30.2847 3.07651 29.9011 2.23448 29.3839 1.49951L27.7483 2.65049C28.1178 3.17551 28.4109 3.80349 28.6176 4.54764L30.5447 4.01236ZM29.3982 1.5203C28.9241 0.809123 28.2311 0.129999 27.2711 0.129999V2.13C27.2403 2.13 27.2573 2.11518 27.3379 2.17404C27.4279 2.23973 27.5644 2.37511 27.7341 2.6297L29.3982 1.5203ZM27.2711 0.129999H25.5211V2.13H27.2711V0.129999ZM24.5211 1.13V11.63H26.5211V1.13H24.5211ZM25.5211 12.63H26.1511V10.63H25.5211V12.63ZM26.1511 12.63C26.7801 12.63 27.3734 12.4608 27.8874 12.0937L26.7249 10.4663C26.5855 10.5658 26.4088 10.63 26.1511 10.63V12.63ZM27.8975 12.0864C28.3295 11.7696 28.6954 11.3987 28.9628 10.9641L27.2595 9.9159C27.1536 10.088 26.9827 10.2771 26.7148 10.4736L27.8975 12.0864ZM28.9794 10.9361C29.2082 10.5357 29.389 10.1012 29.5255 9.63717L27.6068 9.07283C27.5099 9.40215 27.3874 9.69101 27.2429 9.94386L28.9794 10.9361ZM29.5255 9.63717C29.6438 9.23499 29.7343 8.87694 29.7684 8.60403L27.7839 8.35597C27.7713 8.45639 27.7218 8.68168 27.6068 9.07283L29.5255 9.63717ZM29.7684 8.60404C29.7905 8.42723 29.808 8.33564 29.8163 8.30253L27.876 7.81747C27.8376 7.97102 27.8084 8.15944 27.7839 8.35596L29.7684 8.60404ZM27.8461 8.06V17.16H29.8461V8.06H27.8461ZM29.8267 16.9639C29.8118 16.8892 29.7922 16.7592 29.77 16.5596L27.7822 16.7804C27.8067 17.0008 27.8338 17.1974 27.8656 17.3561L29.8267 16.9639ZM29.7761 16.67C29.7761 16.3189 29.6953 15.8408 29.5783 15.3026L27.624 15.7274C27.7403 16.2625 27.7761 16.5545 27.7761 16.67H29.7761ZM29.5801 15.311C29.452 14.6963 29.2792 14.1393 29.051 13.6542L27.2413 14.5058C27.3864 14.814 27.5169 15.2137 27.6222 15.719L29.5801 15.311ZM29.0781 13.7176C28.8598 13.1561 28.5216 12.6562 28.0832 12.2179L26.669 13.6321C26.9307 13.8938 27.1058 14.1639 27.2141 14.4424L29.0781 13.7176ZM28.0832 12.2179C27.5583 11.693 26.9004 11.4 26.1511 11.4V13.4C26.3352 13.4 26.4939 13.457 26.669 13.6321L28.0832 12.2179ZM26.1511 11.4H25.5211V13.4H26.1511V11.4ZM24.5211 12.4V24.3H26.5211V12.4H24.5211ZM25.5211 25.3H27.0611V23.3H25.5211V25.3ZM36.5404 1.935L37.4031 2.44072L37.4068 2.43439L37.4104 2.42801L36.5404 1.935ZM36.7154 6.485L35.8758 7.02825L35.8852 7.04269L35.895 7.05679L36.7154 6.485ZM38.6404 8.83L37.9122 9.51536L37.9173 9.52079L37.9225 9.52615L38.6404 8.83ZM40.8804 11.315L40.1154 11.9592L40.124 11.9692L40.8804 11.315ZM42.7704 14.465L41.8468 14.8484L41.8512 14.859L41.8559 14.8695L42.7704 14.465ZM42.0004 23.355L42.7686 23.9952L42.0004 23.355ZM36.6104 25.105L36.8273 24.1288L36.6104 25.105ZM35.4904 24.86L35.2655 25.8344L35.2732 25.8362L35.2809 25.8378L35.4904 24.86ZM34.4754 24.755L34.4089 25.7528L34.4421 25.755H34.4754V24.755ZM33.8104 24.93L32.8106 24.9523L32.8816 28.126L34.6424 25.4847L33.8104 24.93ZM33.6704 18.665L34.6538 18.4838L32.6706 18.6873L33.6704 18.665ZM34.1954 20.94L33.2366 21.2241L33.2414 21.2402L33.2467 21.2562L34.1954 20.94ZM34.9654 22.76L34.0782 23.2214L34.0821 23.2289L34.0861 23.2363L34.9654 22.76ZM36.0854 24.055L35.5207 24.8803L35.5305 24.887L35.5404 24.8934L36.0854 24.055ZM39.2704 18.105L38.3239 18.4277L38.3283 18.4408L38.3332 18.4537L39.2704 18.105ZM37.9404 15.515L38.734 14.9066V14.9066L37.9404 15.515ZM36.1904 13.31L35.4049 13.9289L35.4106 13.9361L35.4164 13.9432L36.1904 13.31ZM34.4754 11.175L33.6919 11.7964L33.6972 11.8031L33.7027 11.8097L34.4754 11.175ZM33.1454 8.76L32.2062 9.10359L32.2091 9.11112L33.1454 8.76ZM40.5304 0.534998L40.3343 1.51558L40.3822 1.52517L40.4309 1.53003L40.5304 0.534998ZM41.2304 0.464999L42.2293 0.418657L42.17 -0.860904L40.943 -0.492827L41.2304 0.464999ZM41.5454 7.255L40.5615 7.43389L42.5443 7.20866L41.5454 7.255ZM41.3354 6.03L40.3431 6.15403L40.3456 6.17427L40.349 6.1944L41.3354 6.03ZM41.1254 4.595L42.1102 4.42121V4.42121L41.1254 4.595ZM40.8104 3.265L39.8456 3.52814L39.8489 3.53972L40.8104 3.265ZM40.2854 2.04L39.4171 2.53614L39.4386 2.57367L39.4632 2.60921L40.2854 2.04ZM39.5154 1.235L38.9342 2.04873L38.9541 2.06295L38.9746 2.07618L39.5154 1.235ZM38.3604 -0.115C37.1903 -0.115 36.2479 0.422842 35.6704 1.44199L37.4104 2.42801C37.6262 2.04716 37.8971 1.885 38.3604 1.885V-0.115ZM35.6777 1.42928C35.1847 2.27021 34.9454 3.20529 34.9454 4.21H36.9454C36.9454 3.53471 37.1027 2.95312 37.4031 2.44072L35.6777 1.42928ZM34.9454 4.21C34.9454 5.17697 35.2893 6.12187 35.8758 7.02825L37.555 5.94175C37.1148 5.26146 36.9454 4.6897 36.9454 4.21H34.9454ZM35.895 7.05679C36.4636 7.87261 37.1372 8.69198 37.9122 9.51536L39.3686 8.14464C38.6502 7.38135 38.0405 6.63739 37.5358 5.91321L35.895 7.05679ZM37.9225 9.52615C38.6516 10.2781 39.3827 11.0889 40.1155 11.9591L41.6453 10.6709C40.8848 9.76773 40.1225 8.92191 39.3583 8.13385L37.9225 9.52615ZM40.124 11.9692C40.79 12.7391 41.3675 13.6937 41.8468 14.8484L43.694 14.0816C43.1466 12.763 42.4641 11.6175 41.6368 10.6608L40.124 11.9692ZM41.8559 14.8695C42.334 15.9506 42.5754 17.1073 42.5754 18.35H44.5754C44.5754 16.8394 44.2801 15.4061 43.6849 14.0605L41.8559 14.8695ZM42.5754 18.35C42.5754 20.2565 42.0961 21.6781 41.2322 22.7148L42.7686 23.9952C44.0047 22.5119 44.5754 20.5968 44.5754 18.35H42.5754ZM41.2322 22.7148C40.4023 23.7107 39.2341 24.245 37.5904 24.245V26.245C39.7267 26.245 41.4985 25.5193 42.7686 23.9952L41.2322 22.7148ZM37.5904 24.245C37.4672 24.245 37.225 24.2172 36.8273 24.1288L36.3935 26.0812C36.8357 26.1795 37.2469 26.245 37.5904 26.245V24.245ZM36.8273 24.1288C36.4055 24.0351 36.0296 23.9529 35.6999 23.8822L35.2809 25.8378C35.6045 25.9071 35.9753 25.9883 36.3935 26.0812L36.8273 24.1288ZM35.7153 23.8856C35.3253 23.7956 34.9099 23.755 34.4754 23.755V25.755C34.7875 25.755 35.0488 25.7844 35.2655 25.8344L35.7153 23.8856ZM34.5419 23.7572C34.3099 23.7417 34.0476 23.7469 33.7921 23.8142C33.5311 23.8829 33.2031 24.0382 32.9783 24.3753L34.6424 25.4847C34.511 25.6818 34.3405 25.738 34.3011 25.7483C34.2673 25.7572 34.2909 25.7449 34.4089 25.7528L34.5419 23.7572ZM34.8101 24.9077L34.6701 18.6427L32.6706 18.6873L32.8106 24.9523L34.8101 24.9077ZM32.6869 18.8462C32.8545 19.7558 33.037 20.5504 33.2366 21.2241L35.1542 20.6559C34.9805 20.0696 34.813 19.3476 34.6538 18.4838L32.6869 18.8462ZM33.2467 21.2562C33.4732 21.9356 33.7503 22.5909 34.0782 23.2214L35.8526 22.2986C35.5738 21.7625 35.3376 21.2044 35.1441 20.6238L33.2467 21.2562ZM34.0861 23.2363C34.4511 23.9102 34.924 24.472 35.5207 24.8803L36.6501 23.2297C36.3601 23.0313 36.0863 22.7298 35.8447 22.2837L34.0861 23.2363ZM35.5404 24.8934C36.1773 25.3074 36.8934 25.51 37.6604 25.51V23.51C37.2607 23.51 36.9268 23.4092 36.6304 23.2166L35.5404 24.8934ZM37.6604 25.51C38.6612 25.51 39.5357 25.1255 40.1114 24.2898C40.6407 23.5214 40.8304 22.4938 40.8304 21.36H38.8304C38.8304 22.3262 38.6584 22.8736 38.4644 23.1552C38.3167 23.3695 38.1062 23.51 37.6604 23.51V25.51ZM40.8304 21.36C40.8304 20.085 40.626 18.8808 40.2076 17.7563L38.3332 18.4537C38.6614 19.3359 38.8304 20.3017 38.8304 21.36H40.8304ZM40.2169 17.7823C39.8396 16.6755 39.35 15.7101 38.734 14.9066L37.1468 16.1234C37.6041 16.7199 38.0012 17.4812 38.3239 18.4277L40.2169 17.7823ZM38.734 14.9066C38.1902 14.1972 37.6002 13.4539 36.9643 12.6768L35.4164 13.9432C36.0406 14.7061 36.6173 15.4328 37.1468 16.1234L38.734 14.9066ZM36.9759 12.6911C36.3657 11.9166 35.7897 11.1996 35.2481 10.5403L33.7027 11.8097C34.2344 12.4571 34.8018 13.1634 35.4049 13.9289L36.9759 12.6911ZM35.2589 10.5536C34.796 9.96999 34.4007 9.25943 34.0817 8.40888L32.2091 9.11112C32.5901 10.1272 33.0814 11.0267 33.6919 11.7964L35.2589 10.5536ZM34.0845 8.41642C33.776 7.57321 33.6204 6.68645 33.6204 5.75H31.6204C31.6204 6.91355 31.8148 8.03345 32.2063 9.10358L34.0845 8.41642ZM33.6204 5.75C33.6204 4.03972 34.0324 2.94237 34.6797 2.26963C35.3202 1.60406 36.3545 1.185 37.9754 1.185V-0.815002C36.0262 -0.815002 34.3831 -0.306558 33.2386 0.882868C32.1009 2.06513 31.6204 3.75027 31.6204 5.75H33.6204ZM37.9754 1.185C38.2979 1.185 38.7047 1.22336 39.204 1.31021L39.5467 -0.660213C38.9728 -0.76003 38.4462 -0.815002 37.9754 -0.815002V1.185ZM39.204 1.31021C39.7402 1.40345 40.1144 1.4716 40.3343 1.51558L40.7265 -0.445583C40.4797 -0.494935 40.0839 -0.56679 39.5467 -0.660213L39.204 1.31021ZM40.4309 1.53003C40.7994 1.56689 41.1641 1.52892 41.5177 1.42282L40.943 -0.492827C40.83 -0.458922 40.728 -0.450225 40.6299 -0.460039L40.4309 1.53003ZM40.2315 0.511341L40.5465 7.30134L42.5443 7.20866L42.2293 0.418657L40.2315 0.511341ZM42.5293 7.07611C42.484 6.82718 42.415 6.42501 42.3218 5.8656L40.349 6.1944C40.4424 6.75499 40.5134 7.16949 40.5615 7.43389L42.5293 7.07611ZM42.3277 5.90596C42.2563 5.33535 42.184 4.83946 42.1102 4.42121L40.1406 4.76878C40.2068 5.14387 40.2744 5.60465 40.3431 6.15403L42.3277 5.90596ZM42.1102 4.42121C42.0328 3.98301 41.919 3.50525 41.7719 2.99028L39.8489 3.53972C39.9817 4.00475 40.0779 4.41366 40.1406 4.76879L42.1102 4.42121ZM41.7752 3.00188C41.6174 2.4233 41.4038 1.89869 41.1076 1.47079L39.4632 2.60921C39.587 2.78797 39.7234 3.08004 39.8456 3.52812L41.7752 3.00188ZM41.1536 1.54386C40.8845 1.07293 40.5136 0.687916 40.0561 0.393821L38.9746 2.07618C39.1705 2.20208 39.3129 2.35374 39.4171 2.53614L41.1536 1.54386ZM40.0966 0.421265C39.5827 0.054179 38.9893 -0.115 38.3604 -0.115V1.885C38.6181 1.885 38.7947 1.94915 38.9342 2.04873L40.0966 0.421265ZM44.5272 0.499998V-0.500002H43.6895L43.5427 0.324743L44.5272 0.499998ZM56.7072 0.499998L57.6926 0.329746L57.5493 -0.500002H56.7072V0.499998ZM57.8622 7.185L56.9338 7.55639L58.8476 7.01475L57.8622 7.185ZM57.5822 6.345L58.5358 6.04387L58.5358 6.04387L57.5822 6.345ZM57.2672 5.435L56.3057 5.70972L56.3231 5.77066L56.3481 5.82892L57.2672 5.435ZM56.9522 4.63L56.0159 4.98112L56.0253 5.00624L56.0361 5.03082L56.9522 4.63ZM56.5672 3.86L55.7535 4.44124L55.7752 4.47156L55.799 4.50018L56.5672 3.86ZM56.0772 3.23L56.8512 2.59676V2.59676L56.0772 3.23ZM55.4472 2.705L54.9616 3.57916L55.0005 3.60075L55.0411 3.61881L55.4472 2.705ZM54.6422 2.39L54.3481 3.34578L54.3578 3.34875L54.3675 3.35152L54.6422 2.39ZM53.0672 2.25V1.25H52.0672V2.25H53.0672ZM53.0672 23.25H52.0672V23.3874L52.1043 23.5196L53.0672 23.25ZM55.1672 25V26L55.1899 24.0003L55.1672 25ZM52.0872 24.93L52.1099 23.9303L52.0859 23.9297L52.0619 23.9303L52.0872 24.93ZM49.3222 25V26H49.3349L49.3475 25.9997L49.3222 25ZM48.3072 21.535L47.3074 21.5142L47.3069 21.5397L47.3077 21.5653L48.3072 21.535ZM48.3772 18.175L49.377 18.1958L49.3772 18.1854V18.175H48.3772ZM48.3772 2.25H49.3772V1.25H48.3772V2.25ZM46.5572 2.39L46.2631 1.43422V1.43422L46.5572 2.39ZM45.7522 2.705L46.1584 3.61881L46.1791 3.60958L46.1994 3.59943L45.7522 2.705ZM45.1222 3.23L44.3483 2.59676L44.3483 2.59676L45.1222 3.23ZM44.6322 3.86L45.4004 4.50018L45.4243 4.47156L45.446 4.44124L44.6322 3.86ZM44.2122 4.63L43.2961 4.22918L43.2853 4.25376L43.2759 4.27888L44.2122 4.63ZM43.8972 5.435L42.9781 5.04108L42.9531 5.09934L42.9357 5.16028L43.8972 5.435ZM43.6172 6.345L42.6636 6.04387L43.6172 6.345ZM43.3372 7.185L42.3527 7.00974L44.2657 7.55639L43.3372 7.185ZM44.5272 1.5H56.7072V-0.500002H44.5272V1.5ZM55.7218 0.670251L56.8768 7.35525L58.8476 7.01475L57.6926 0.329746L55.7218 0.670251ZM58.7907 6.81361C58.7608 6.73898 58.6794 6.49859 58.5358 6.04387L56.6286 6.64613C56.765 7.07807 56.8703 7.39769 56.9338 7.55639L58.7907 6.81361ZM58.5358 6.04387C58.3968 5.60354 58.2784 5.25585 58.1864 5.04108L56.3481 5.82892C56.396 5.94081 56.4877 6.19979 56.6286 6.64613L58.5358 6.04387ZM58.2288 5.16028C58.1617 4.92575 58.0318 4.6027 57.8684 4.22918L56.0361 5.03082C56.1993 5.40397 56.2794 5.61758 56.3057 5.70972L58.2288 5.16028ZM57.8886 4.27888C57.7447 3.89516 57.5684 3.49937 57.3354 3.21981L55.799 4.50018C55.7882 4.48722 55.8096 4.51079 55.8565 4.60471C55.9004 4.69239 55.9538 4.81563 56.0159 4.98112L57.8886 4.27888ZM57.381 3.27876C57.2461 3.09 57.0674 2.86099 56.8512 2.59676L55.3033 3.86324C55.5071 4.11235 55.655 4.30334 55.7535 4.44124L57.381 3.27876ZM56.8512 2.59676C56.583 2.26894 56.2553 1.96982 55.8534 1.79119L55.0411 3.61881C55.0592 3.62685 55.1515 3.67772 55.3033 3.86324L56.8512 2.59676ZM55.9329 1.83084C55.635 1.66535 55.2894 1.53489 54.917 1.42848L54.3675 3.35152C54.6484 3.43177 54.8395 3.51131 54.9616 3.57916L55.9329 1.83084ZM54.9363 1.43422C54.5285 1.30873 54.1018 1.25 53.6622 1.25V3.25C53.9227 3.25 54.1493 3.2846 54.3481 3.34578L54.9363 1.43422ZM53.6622 1.25H53.0672V3.25H53.6622V1.25ZM52.0672 2.25V23.25H54.0672V2.25H52.0672ZM52.1043 23.5196C52.3045 24.2347 52.6476 24.8729 53.197 25.3307C53.7577 25.7979 54.4403 26 55.1672 26V24C54.8209 24 54.6168 23.9104 54.4774 23.7943C54.3268 23.6688 54.1566 23.4319 54.0302 22.9804L52.1043 23.5196ZM55.1899 24.0003L52.1099 23.9303L52.0645 25.9297L55.1445 25.9997L55.1899 24.0003ZM52.0619 23.9303L49.2969 24.0003L49.3475 25.9997L52.1125 25.9297L52.0619 23.9303ZM49.3222 24H46.2422V26H49.3222V24ZM46.2422 26C47.2854 26 48.1619 25.5527 48.7025 24.6457C49.1917 23.8249 49.3439 22.7293 49.3068 21.5047L47.3077 21.5653C47.3406 22.6507 47.1836 23.2876 46.9845 23.6218C46.8367 23.8698 46.6457 24 46.2422 24V26ZM49.307 21.5558L49.377 18.1958L47.3774 18.1542L47.3074 21.5142L49.307 21.5558ZM49.3772 18.175V2.25H47.3772V18.175H49.3772ZM48.3772 1.25H47.5372V3.25H48.3772V1.25ZM47.5372 1.25C47.0977 1.25 46.671 1.30873 46.2631 1.43422L46.8513 3.34578C47.0501 3.2846 47.2768 3.25 47.5372 3.25V1.25ZM46.2631 1.43422C45.918 1.54042 45.5968 1.66467 45.305 1.81057L46.1994 3.59943C46.3743 3.51199 46.5898 3.42625 46.8513 3.34578L46.2631 1.43422ZM45.3461 1.79119C44.9442 1.96982 44.6165 2.26894 44.3483 2.59676L45.8962 3.86324C46.048 3.67772 46.1403 3.62685 46.1584 3.61881L45.3461 1.79119ZM44.3483 2.59676C44.1321 2.86099 43.9533 3.09 43.8185 3.27876L45.446 4.44124C45.5445 4.30334 45.6924 4.11235 45.8962 3.86323L44.3483 2.59676ZM43.864 3.21981C43.6492 3.4776 43.4623 3.84912 43.2961 4.22918L45.1284 5.03082C45.2026 4.86124 45.2657 4.73155 45.3176 4.63635C45.3727 4.5354 45.4011 4.49942 45.4004 4.50018L43.864 3.21981ZM43.2759 4.27888C43.1364 4.65097 43.0383 4.90064 42.9781 5.04108L44.8164 5.82892C44.8962 5.64269 45.0081 5.35569 45.1486 4.98112L43.2759 4.27888ZM42.9357 5.16028C42.8934 5.30846 42.804 5.59926 42.6636 6.04387L44.5708 6.64613C44.7104 6.20407 44.8078 5.8882 44.8587 5.70972L42.9357 5.16028ZM42.6636 6.04387C42.52 6.49859 42.4386 6.73898 42.4087 6.81361L44.2657 7.55639C44.3292 7.39769 44.4344 7.07807 44.5708 6.64613L42.6636 6.04387ZM44.3218 7.36026L45.5117 0.675254L43.5427 0.324743L42.3527 7.00974L44.3218 7.36026Z" fill="white" mask="url(#path-1-outside-1_1015_1802)"/>
</g>
<defs>
<filter id="filter0_d_1015_1802" x="0.308594" y="0.184937" width="61.5537" height="33.0601" filterUnits="userSpaceOnUse" color-interpolation-filters="sRGB">
<feFlood flood-opacity="0" result="BackgroundImageFix"/>
<feColorMatrix in="SourceAlpha" type="matrix" values="0 0 0 0 0 0 0 0 0 0 0 0 0 0 0 0 0 0 127 0" result="hardAlpha"/>
<feOffset dy="4"/>
<feGaussianBlur stdDeviation="2"/>
<feComposite in2="hardAlpha" operator="out"/>
<feColorMatrix type="matrix" values="0 0 0 0 0 0 0 0 0 0 0 0 0 0 0 0 0 0 0.25 0"/>
<feBlend mode="normal" in2="BackgroundImageFix" result="effect1_dropShadow_1015_1802"/>
<feBlend mode="normal" in="SourceGraphic" in2="effect1_dropShadow_1015_1802" result="shape"/>
</filter>
<linearGradient id="paint0_linear_1015_1802" x1="31" y1="-2" x2="31" y2="32" gradientUnits="userSpaceOnUse">
<stop offset="0.14724"/>
<stop offset="0.6825" stop-color="#D7A129"/>
</linearGradient>
</defs>
</svg>
