<svg width="222" height="50" viewBox="0 0 222 50" fill="none" xmlns="http://www.w3.org/2000/svg">
<g filter="url(#filter0_d_924_1872)">
<mask id="path-1-outside-1_924_1872" maskUnits="userSpaceOnUse" x="8" y="3" width="211" height="34" fill="black">
<rect fill="white" x="8" y="3" width="211" height="34"/>
<path d="M24.824 4.513C45.12 4.513 45.206 35.344 24.824 35.344C4.442 35.344 4.442 4.513 24.824 4.513ZM33.51 31.603C43.486 23.82 26.157 0.556997 16.181 8.34C5.947 16.252 23.577 39.257 33.51 31.603ZM50.8632 5.674H48.7132V18.617H49.4872C52.3682 18.617 52.7982 14.36 52.7982 14.188V25.411C52.7982 25.411 52.5402 19.563 49.4872 19.563H48.7132V31.904C48.9282 33.71 49.7022 35.043 51.4652 35.043H42.8652H40.5432C41.9192 35.043 42.6072 34.226 42.8652 33.022V6.835C42.6072 5.631 41.9192 4.943 40.5432 4.943H53.9592L54.6902 13.5C54.6902 13.414 53.3572 5.674 50.8632 5.674ZM90.8051 32.205C93.1701 30.7 94.5031 29.453 96.0941 26.271L97.0402 26.701C94.8901 31.603 90.2462 35.344 83.1511 35.344C62.8121 35.344 62.8121 4.513 83.1511 4.513C90.2462 4.513 94.8901 8.297 97.0402 13.199L90.6762 21.025C90.9771 12.855 85.6021 5.459 80.1841 5.631C64.8331 6.104 76.4431 41.45 90.8051 32.205ZM106.953 24.68C108.845 26.529 109.963 30.7 113.618 28.593L113.704 35.043C106.738 35.086 107.254 25.712 105.534 24.895V32.205C105.706 33.839 106.308 35.043 107.985 35.043H97.0627C99.1697 35.043 99.6427 33.108 99.5567 30.743V9.2C99.6427 6.835 99.1697 4.943 97.0627 4.943H105.362C115.897 4.943 116.413 23.046 106.953 24.68ZM105.792 23.863C108.63 23.863 108.63 5.588 105.534 5.588V23.863H105.792ZM123.163 30.743C123.163 33.022 123.808 34.871 125.7 35.043H115.036C116.756 34.871 117.487 33.28 117.573 31.302V8.641C117.487 6.663 116.756 5.072 115.036 4.943H125.7C123.808 5.072 123.206 6.921 123.163 9.2V30.743ZM127.323 4.943H142.287L143.749 13.156C142.803 10.318 142.201 7.05 138.589 7.05H137.815V32.85C138.202 34.14 138.976 35.043 140.395 35.043L136.654 34.957L133.214 35.043H129.473C131.58 35.043 132.053 33.108 132.01 30.743L132.053 26.658V7.05H131.064C127.452 7.05 126.807 10.318 125.904 13.156L127.323 4.943ZM152.096 30.743C152.096 33.022 152.741 34.871 154.633 35.043H143.969C145.689 34.871 146.42 33.28 146.506 31.302V8.641C146.42 6.663 145.689 5.072 143.969 4.943H154.633C152.741 5.072 152.139 6.921 152.096 9.2V30.743ZM177.813 32.205C180.178 30.7 181.511 29.453 183.102 26.271L184.048 26.701C181.898 31.603 177.254 35.344 170.159 35.344C149.82 35.344 149.82 4.513 170.159 4.513C177.254 4.513 181.898 8.297 184.048 13.199L177.684 21.025C177.985 12.855 172.61 5.459 167.192 5.631C151.841 6.104 163.451 41.45 177.813 32.205ZM199.655 31.13C200.042 33.366 200.601 34.871 202.45 35.043L191.27 34.957C194.538 34.613 193.291 29.711 192.904 27.647L187.142 27.518C186.583 30.141 185.465 34.484 188.561 34.957H182.24C184.777 34.527 185.035 32.549 185.766 29.195L189.894 9.63L189.335 5.803L195.054 4.943L199.655 31.13ZM187.572 26.314H192.646L190.668 11.737H190.539L187.572 26.314ZM211.713 34.14C215.497 34.14 217.303 27.26 217.303 27.26L215.669 34.957L201.608 35C203.113 35 204.317 34.14 204.231 32.721V7.265C204.36 5.803 203.07 4.943 201.608 4.943H212.186C210.466 4.943 209.778 5.803 209.778 7.265V34.14H211.713Z"/>
</mask>
<path d="M24.824 4.513C45.12 4.513 45.206 35.344 24.824 35.344C4.442 35.344 4.442 4.513 24.824 4.513ZM33.51 31.603C43.486 23.82 26.157 0.556997 16.181 8.34C5.947 16.252 23.577 39.257 33.51 31.603ZM50.8632 5.674H48.7132V18.617H49.4872C52.3682 18.617 52.7982 14.36 52.7982 14.188V25.411C52.7982 25.411 52.5402 19.563 49.4872 19.563H48.7132V31.904C48.9282 33.71 49.7022 35.043 51.4652 35.043H42.8652H40.5432C41.9192 35.043 42.6072 34.226 42.8652 33.022V6.835C42.6072 5.631 41.9192 4.943 40.5432 4.943H53.9592L54.6902 13.5C54.6902 13.414 53.3572 5.674 50.8632 5.674ZM90.8051 32.205C93.1701 30.7 94.5031 29.453 96.0941 26.271L97.0402 26.701C94.8901 31.603 90.2462 35.344 83.1511 35.344C62.8121 35.344 62.8121 4.513 83.1511 4.513C90.2462 4.513 94.8901 8.297 97.0402 13.199L90.6762 21.025C90.9771 12.855 85.6021 5.459 80.1841 5.631C64.8331 6.104 76.4431 41.45 90.8051 32.205ZM106.953 24.68C108.845 26.529 109.963 30.7 113.618 28.593L113.704 35.043C106.738 35.086 107.254 25.712 105.534 24.895V32.205C105.706 33.839 106.308 35.043 107.985 35.043H97.0627C99.1697 35.043 99.6427 33.108 99.5567 30.743V9.2C99.6427 6.835 99.1697 4.943 97.0627 4.943H105.362C115.897 4.943 116.413 23.046 106.953 24.68ZM105.792 23.863C108.63 23.863 108.63 5.588 105.534 5.588V23.863H105.792ZM123.163 30.743C123.163 33.022 123.808 34.871 125.7 35.043H115.036C116.756 34.871 117.487 33.28 117.573 31.302V8.641C117.487 6.663 116.756 5.072 115.036 4.943H125.7C123.808 5.072 123.206 6.921 123.163 9.2V30.743ZM127.323 4.943H142.287L143.749 13.156C142.803 10.318 142.201 7.05 138.589 7.05H137.815V32.85C138.202 34.14 138.976 35.043 140.395 35.043L136.654 34.957L133.214 35.043H129.473C131.58 35.043 132.053 33.108 132.01 30.743L132.053 26.658V7.05H131.064C127.452 7.05 126.807 10.318 125.904 13.156L127.323 4.943ZM152.096 30.743C152.096 33.022 152.741 34.871 154.633 35.043H143.969C145.689 34.871 146.42 33.28 146.506 31.302V8.641C146.42 6.663 145.689 5.072 143.969 4.943H154.633C152.741 5.072 152.139 6.921 152.096 9.2V30.743ZM177.813 32.205C180.178 30.7 181.511 29.453 183.102 26.271L184.048 26.701C181.898 31.603 177.254 35.344 170.159 35.344C149.82 35.344 149.82 4.513 170.159 4.513C177.254 4.513 181.898 8.297 184.048 13.199L177.684 21.025C177.985 12.855 172.61 5.459 167.192 5.631C151.841 6.104 163.451 41.45 177.813 32.205ZM199.655 31.13C200.042 33.366 200.601 34.871 202.45 35.043L191.27 34.957C194.538 34.613 193.291 29.711 192.904 27.647L187.142 27.518C186.583 30.141 185.465 34.484 188.561 34.957H182.24C184.777 34.527 185.035 32.549 185.766 29.195L189.894 9.63L189.335 5.803L195.054 4.943L199.655 31.13ZM187.572 26.314H192.646L190.668 11.737H190.539L187.572 26.314ZM211.713 34.14C215.497 34.14 217.303 27.26 217.303 27.26L215.669 34.957L201.608 35C203.113 35 204.317 34.14 204.231 32.721V7.265C204.36 5.803 203.07 4.943 201.608 4.943H212.186C210.466 4.943 209.778 5.803 209.778 7.265V34.14H211.713Z" fill="url(#paint0_linear_924_1872)"/>
<path d="M33.51 31.603L33.9719 32.2024L33.9754 32.1996L33.51 31.603ZM16.181 8.34L16.6438 8.93864L16.6464 8.93659L16.181 8.34ZM24.824 5.26968C29.6894 5.26968 33.2902 7.10959 35.6846 9.83024C38.0916 12.5654 39.3164 16.2348 39.3216 19.9296C39.3267 23.6243 38.1122 27.2928 35.7085 30.0271C33.3176 32.7467 29.7119 34.5873 24.824 34.5873V36.1007C30.1271 36.1007 34.154 34.0874 36.8451 31.0263C39.5234 27.9797 40.8405 23.9404 40.8349 19.9274C40.8293 15.9145 39.501 11.8761 36.8206 8.83044C34.1275 5.77028 30.1066 3.75632 24.824 3.75632V5.26968ZM24.824 34.5873C19.9361 34.5873 16.3246 32.7466 13.9268 30.0263C11.5162 27.2916 10.2942 23.6229 10.2942 19.9285C10.2942 16.2341 11.5162 12.5654 13.9268 9.83069C16.3246 7.11037 19.9361 5.26968 24.824 5.26968V3.75632C19.5209 3.75632 15.4892 5.7695 12.7915 8.83C10.1065 11.8761 8.78082 15.9151 8.78082 19.9285C8.78082 23.9419 10.1065 27.9809 12.7915 31.027C15.4892 34.0875 19.5209 36.1007 24.824 36.1007V34.5873ZM33.9754 32.1996C36.7373 30.0449 37.5642 26.8333 37.1652 23.5003C36.768 20.183 35.1574 16.6666 32.9343 13.6822C30.7118 10.6987 27.8225 8.17365 24.7936 6.89943C21.7444 5.61668 18.4829 5.58442 15.7156 7.74341L16.6464 8.93659C18.8671 7.20407 21.5128 7.16107 24.2067 8.29438C26.921 9.43622 29.6109 11.7541 31.7207 14.5863C33.8298 17.4176 35.3045 20.6899 35.6625 23.6802C36.0187 26.6547 35.2707 29.2696 33.0446 31.0064L33.9754 32.1996ZM15.7182 7.74136C12.8954 9.92368 12.032 13.1397 12.4228 16.4771C12.8113 19.7943 14.4364 23.2966 16.6792 26.2649C18.9217 29.233 21.8368 31.7396 24.8817 33.0083C27.9438 34.2841 31.214 34.3275 33.9719 32.2024L33.0481 31.0036C30.8395 32.7055 28.1811 32.7435 25.4637 31.6113C22.7292 30.472 20.0139 28.168 17.8866 25.3526C15.7595 22.5374 14.2751 19.2833 13.9259 16.3011C13.579 13.3389 14.3496 10.7123 16.6438 8.93864L15.7182 7.74136ZM48.7132 5.674V4.91732H47.9565V5.674H48.7132ZM48.7132 18.617H47.9565V19.3737H48.7132V18.617ZM52.7982 25.411L52.0422 25.4444L53.5549 25.411H52.7982ZM48.7132 19.563V18.8063H47.9565V19.563H48.7132ZM48.7132 31.904H47.9565V31.9489L47.9618 31.9934L48.7132 31.904ZM42.8652 33.022L43.6051 33.1805L43.6219 33.1022V33.022H42.8652ZM42.8652 6.835H43.6219V6.75484L43.6051 6.67645L42.8652 6.835ZM53.9592 4.943L54.7131 4.87859L54.654 4.18632H53.9592V4.943ZM54.6902 13.5L53.9363 13.5644L55.4469 13.5H54.6902ZM50.8632 4.91732H48.7132V6.43068H50.8632V4.91732ZM47.9565 5.674V18.617H49.4699V5.674H47.9565ZM48.7132 19.3737H49.4872V17.8603H48.7132V19.3737ZM49.4872 19.3737C51.3915 19.3737 52.4115 17.9424 52.918 16.7663C53.1788 16.1609 53.3357 15.5588 53.4277 15.1021C53.5159 14.6647 53.5549 14.3075 53.5549 14.188H52.0415C52.0415 14.1545 52.0267 14.3939 51.9442 14.8031C51.8656 15.1929 51.735 15.6873 51.5281 16.1677C51.0994 17.1631 50.4639 17.8603 49.4872 17.8603V19.3737ZM52.0415 14.188V25.411H53.5549V14.188H52.0415ZM52.7982 25.411C53.5541 25.3776 53.5541 25.3774 53.5541 25.3772C53.5541 25.3771 53.5541 25.3768 53.5541 25.3766C53.5541 25.3762 53.554 25.3756 53.554 25.375C53.554 25.3738 53.5539 25.3722 53.5538 25.3703C53.5536 25.3664 53.5533 25.3611 53.553 25.3545C53.5523 25.3413 53.5513 25.3226 53.5498 25.2989C53.5469 25.2514 53.5423 25.1836 53.5353 25.0983C53.5215 24.928 53.4982 24.687 53.4604 24.3989C53.3853 23.8258 53.2506 23.0505 53.0113 22.2662C52.7748 21.491 52.4199 20.6525 51.8756 19.9944C51.3164 19.3185 50.5297 18.8063 49.4872 18.8063V20.3197C49.9712 20.3197 50.3616 20.5385 50.7095 20.9591C51.0722 21.3975 51.3542 22.021 51.5638 22.7078C51.7706 23.3855 51.8913 24.0722 51.9599 24.5956C51.994 24.8557 52.0148 25.0717 52.027 25.2211C52.033 25.2958 52.0369 25.3536 52.0393 25.3918C52.0405 25.4109 52.0413 25.425 52.0417 25.4339C52.042 25.4384 52.0421 25.4415 52.0422 25.4432C52.0422 25.4441 52.0423 25.4446 52.0423 25.4448C52.0423 25.4449 52.0423 25.4449 52.0423 25.4449C52.0423 25.4448 52.0423 25.4447 52.0423 25.4447C52.0423 25.4445 52.0422 25.4444 52.7982 25.411ZM49.4872 18.8063H48.7132V20.3197H49.4872V18.8063ZM47.9565 19.563V31.904H49.4699V19.563H47.9565ZM47.9618 31.9934C48.0773 32.9636 48.3518 33.9055 48.9145 34.6193C49.5054 35.3687 50.363 35.7997 51.4652 35.7997V34.2863C50.8044 34.2863 50.3935 34.0508 50.1029 33.6822C49.7841 33.278 49.5641 32.6504 49.4646 31.8146L47.9618 31.9934ZM51.4652 34.2863H42.8652V35.7997H51.4652V34.2863ZM42.8652 34.2863H40.5432V35.7997H42.8652V34.2863ZM40.5432 35.7997C41.3918 35.7997 42.1039 35.5424 42.6425 35.0345C43.1667 34.5403 43.4563 33.875 43.6051 33.1805L42.1253 32.8635C42.0161 33.373 41.8327 33.7182 41.6043 33.9334C41.3904 34.1351 41.0706 34.2863 40.5432 34.2863V35.7997ZM43.6219 33.022V6.835H42.1085V33.022H43.6219ZM43.6051 6.67645C43.4546 5.97406 43.1586 5.32816 42.6159 4.86298C42.0669 4.39245 41.3587 4.18632 40.5432 4.18632V5.69968C41.1037 5.69968 41.4274 5.83754 41.631 6.01201C41.8408 6.19183 42.0178 6.49194 42.1253 6.99355L43.6051 6.67645ZM40.5432 5.69968H53.9592V4.18632H40.5432V5.69968ZM53.2053 5.0074L53.9363 13.5644L55.4441 13.4356L54.7131 4.87859L53.2053 5.0074ZM55.4469 13.5C55.4469 13.4571 55.4429 13.422 55.4427 13.42C55.4416 13.4089 55.4404 13.3993 55.4396 13.3933C55.438 13.3806 55.4361 13.3678 55.4344 13.3567C55.431 13.3338 55.4263 13.305 55.4207 13.2719C55.4094 13.2051 55.3931 13.1129 55.3717 12.9993C55.3289 12.7718 55.2655 12.4542 55.1816 12.0768C55.0143 11.3237 54.7633 10.3217 54.4302 9.31666C54.1001 8.32099 53.6753 7.27851 53.1465 6.4704C52.6462 5.70586 51.8979 4.91732 50.8632 4.91732V6.43068C51.0754 6.43068 51.429 6.60963 51.8801 7.29903C52.3027 7.94486 52.6787 8.84276 52.9937 9.79284C53.3055 10.7336 53.5437 11.6826 53.7043 12.4051C53.7843 12.7653 53.8445 13.0666 53.8844 13.2788C53.9043 13.385 53.919 13.4679 53.9285 13.5239C53.9333 13.5523 53.9364 13.5718 53.9381 13.5832C53.939 13.5893 53.9391 13.5902 53.9388 13.5876C53.9387 13.5865 53.938 13.5811 53.9371 13.5732C53.9367 13.5692 53.936 13.5619 53.9354 13.5526C53.9349 13.5457 53.9335 13.5258 53.9335 13.5H55.4469ZM90.8051 32.205L90.3989 31.5666L90.3956 31.5687L90.8051 32.205ZM96.0941 26.271L96.4073 25.5821L95.7435 25.2804L95.4174 25.9326L96.0941 26.271ZM97.0402 26.701L97.7331 27.0049L98.033 26.3211L97.3533 26.0121L97.0402 26.701ZM97.0402 13.199L97.6272 13.6764L97.9186 13.3181L97.7331 12.8951L97.0402 13.199ZM90.6761 21.025L89.92 20.9971L89.8367 23.2566L91.2632 21.5024L90.6761 21.025ZM80.1842 5.631L80.2075 6.38732L80.2082 6.3873L80.1842 5.631ZM91.2114 32.8434C92.419 32.0749 93.405 31.3462 94.2962 30.3798C95.1871 29.4137 95.9554 28.2405 96.7709 26.6094L95.4174 25.9326C94.6419 27.4835 93.9482 28.5248 93.1836 29.3539C92.4193 30.1828 91.5563 30.8301 90.3989 31.5666L91.2114 32.8434ZM95.781 26.9599L96.727 27.3899L97.3533 26.0121L96.4073 25.5821L95.781 26.9599ZM96.3472 26.3971C94.3128 31.0355 89.9334 34.5873 83.1512 34.5873V36.1007C90.5589 36.1007 95.4675 32.1705 97.7331 27.0049L96.3472 26.3971ZM83.1512 34.5873C78.2745 34.5873 74.6713 32.7471 72.2786 30.0269C69.8732 27.2922 68.6536 23.6233 68.6536 19.9285C68.6536 16.2337 69.8732 12.5648 72.2786 9.83009C74.6713 7.10993 78.2745 5.26968 83.1512 5.26968V3.75632C77.8583 3.75632 73.8344 5.76994 71.1423 8.83059C68.4629 11.8767 67.1402 15.9155 67.1402 19.9285C67.1402 23.9415 68.4629 27.9803 71.1423 31.0264C73.8344 34.0871 77.8583 36.1007 83.1512 36.1007V34.5873ZM83.1512 5.26968C89.9296 5.26968 94.3112 8.86091 96.3472 13.5029L97.7331 12.8951C95.4691 7.73309 90.5627 3.75632 83.1512 3.75632V5.26968ZM96.4531 12.7216L90.0891 20.5476L91.2632 21.5024L97.6272 13.6764L96.4531 12.7216ZM91.4323 21.0529C91.589 16.8007 90.2711 12.7482 88.1958 9.7674C86.1361 6.80906 83.2273 4.77733 80.1601 4.8747L80.2082 6.3873C82.559 6.31267 85.0467 7.89293 86.9538 10.6321C88.8452 13.3488 90.0643 17.0793 89.92 20.9971L91.4323 21.0529ZM80.1608 4.87468C78.0865 4.93859 76.4137 5.59704 75.1428 6.72102C73.88 7.8378 73.0665 9.36707 72.6157 11.0914C71.719 14.5218 72.2184 18.8581 73.6401 22.8179C75.0621 26.7788 77.4556 30.4985 80.4921 32.6381C82.0188 33.7139 83.7258 34.4015 85.5581 34.4926C87.3959 34.584 89.3025 34.0722 91.2147 32.8413L90.3956 31.5687C88.7173 32.6491 87.1194 33.055 85.6333 32.9811C84.1416 32.907 82.7053 32.3463 81.3638 31.401C78.6638 29.4986 76.4213 26.0857 75.0644 22.3066C73.7073 18.5264 73.2849 14.5153 74.0799 11.4742C74.475 9.9628 75.1609 8.72529 76.1453 7.85466C77.1216 6.99124 78.444 6.44165 80.2075 6.38732L80.1608 4.87468ZM106.953 24.68L106.824 23.9344L105.365 24.1864L106.424 25.2212L106.953 24.68ZM113.618 28.593L114.374 28.5829L114.357 27.2933L113.24 27.9374L113.618 28.593ZM113.704 35.043L113.708 35.7997L114.47 35.795L114.46 35.0329L113.704 35.043ZM105.534 24.895L105.858 24.2115L104.777 23.6979V24.895H105.534ZM105.534 32.205H104.777V32.2447L104.781 32.2842L105.534 32.205ZM99.5567 30.743H98.8V30.7568L98.8005 30.7705L99.5567 30.743ZM99.5567 9.2L98.8005 9.1725L98.8 9.18625V9.2H99.5567ZM105.534 5.588V4.83132H104.777V5.588H105.534ZM105.534 23.863H104.777V24.6197H105.534V23.863ZM106.424 25.2212C106.836 25.6236 107.22 26.1679 107.656 26.7985C108.074 27.4023 108.542 28.0867 109.079 28.6448C109.622 29.2091 110.297 29.7094 111.159 29.8738C112.033 30.0404 112.972 29.8384 113.996 29.2486L113.24 27.9374C112.435 28.4011 111.865 28.4678 111.442 28.3872C111.007 28.3043 110.599 28.0414 110.169 27.5952C109.734 27.1428 109.338 26.5695 108.9 25.937C108.481 25.3314 108.016 24.6609 107.482 24.1388L106.424 25.2212ZM112.861 28.6031L112.947 35.0531L114.46 35.0329L114.374 28.5829L112.861 28.6031ZM113.699 34.2863C112.149 34.2959 111.06 33.7894 110.244 33.0347C109.406 32.2605 108.816 31.1879 108.356 30.0153C107.892 28.8316 107.597 27.6508 107.28 26.611C107.128 26.1101 106.965 25.627 106.772 25.234C106.592 24.8663 106.316 24.4289 105.858 24.2115L105.209 25.5785C105.181 25.5654 105.266 25.5996 105.414 25.9007C105.549 26.1766 105.683 26.5596 105.832 27.0517C106.12 27.9979 106.454 29.3111 106.947 30.5677C107.444 31.8354 108.138 33.1492 109.217 34.1461C110.316 35.1625 111.776 35.8116 113.708 35.7997L113.699 34.2863ZM104.777 24.895V32.205H106.29V24.895H104.777ZM104.781 32.2842C104.872 33.1512 105.086 34.0245 105.591 34.6928C106.131 35.4078 106.936 35.7997 107.985 35.7997V34.2863C107.357 34.2863 107.022 34.0762 106.799 33.7807C106.54 33.4385 106.367 32.8928 106.286 32.1258L104.781 32.2842ZM107.985 34.2863H97.0627V35.7997H107.985V34.2863ZM97.0627 35.7997C97.7086 35.7997 98.2812 35.6499 98.7628 35.34C99.2432 35.0308 99.5821 34.5951 99.8153 34.105C100.268 33.1544 100.357 31.9262 100.313 30.7155L98.8005 30.7705C98.8425 31.9248 98.7381 32.8466 98.4488 33.4547C98.3111 33.744 98.142 33.9399 97.9438 34.0674C97.7468 34.1942 97.4702 34.2863 97.0627 34.2863V35.7997ZM100.313 30.743V9.2H98.8V30.743H100.313ZM100.313 9.2275C100.357 8.01764 100.268 6.79776 99.8135 5.85579C99.5788 5.36944 99.2383 4.93963 98.7574 4.63584C98.2762 4.33187 97.7054 4.18632 97.0627 4.18632V5.69968C97.4734 5.69968 97.7518 5.79063 97.9492 5.91531C98.1469 6.04018 98.3143 6.23118 98.4505 6.51345C98.7378 7.10874 98.8425 8.01736 98.8005 9.1725L100.313 9.2275ZM97.0627 5.69968H105.362V4.18632H97.0627V5.69968ZM105.362 5.69968C107.751 5.69968 109.547 6.71516 110.795 8.27063C112.058 9.84542 112.775 11.9983 112.9 14.2408C113.154 18.8005 110.997 23.2136 106.824 23.9344L107.081 25.4256C112.368 24.5124 114.684 19.057 114.411 14.1567C114.272 11.6692 113.476 9.1942 111.975 7.32362C110.459 5.43371 108.24 4.18632 105.362 4.18632V5.69968ZM105.792 24.6197C106.598 24.6197 107.101 23.978 107.391 23.4328C107.706 22.8393 107.944 22.0436 108.125 21.1593C108.49 19.3771 108.661 17.0363 108.645 14.7202C108.628 12.4048 108.424 10.061 108.017 8.2751C107.815 7.38863 107.551 6.589 107.204 5.99271C106.874 5.42616 106.339 4.83132 105.534 4.83132V6.34468C105.535 6.34468 105.538 6.34453 105.545 6.34748C105.554 6.35094 105.576 6.36083 105.609 6.38691C105.679 6.44265 105.78 6.5539 105.896 6.7538C106.131 7.15692 106.353 7.78502 106.541 8.61184C106.916 10.2525 107.115 12.4775 107.131 14.7308C107.147 16.9835 106.979 19.2114 106.643 20.8558C106.473 21.6848 106.27 22.3168 106.054 22.7227C105.813 23.1769 105.695 23.1063 105.792 23.1063V24.6197ZM104.777 5.588V23.863H106.29V5.588H104.777ZM105.534 24.6197H105.792V23.1063H105.534V24.6197ZM125.7 35.043V35.7997L125.769 34.2894L125.7 35.043ZM115.036 35.043L114.961 34.2901L115.036 35.7997V35.043ZM117.573 31.302L118.329 31.3349L118.33 31.3184V31.302H117.573ZM117.573 8.641H118.33V8.62456L118.329 8.60813L117.573 8.641ZM115.036 4.943V4.18632L114.98 5.69756L115.036 4.943ZM125.7 4.943L125.752 5.69792L125.7 4.18632V4.943ZM123.163 9.2L122.407 9.18572L122.407 9.19286V9.2H123.163ZM122.407 30.743C122.407 31.9344 122.572 33.1067 123.05 34.0309C123.552 34.9995 124.397 35.6843 125.632 35.7966L125.769 34.2894C125.111 34.2297 124.689 33.904 124.394 33.3354C124.077 32.7223 123.92 31.8306 123.92 30.743H122.407ZM125.7 34.2863H115.036V35.7997H125.7V34.2863ZM115.112 35.7959C116.229 35.6842 117.042 35.0941 117.563 34.2452C118.064 33.4279 118.283 32.393 118.329 31.3349L116.817 31.2691C116.777 32.189 116.589 32.9386 116.272 33.4543C115.976 33.9384 115.564 34.2298 114.961 34.2901L115.112 35.7959ZM118.33 31.302V8.641H116.817V31.302H118.33ZM118.329 8.60813C118.283 7.55084 118.064 6.51433 117.561 5.70088C117.038 4.85356 116.217 4.27273 115.093 4.18844L114.98 5.69756C115.576 5.74226 115.98 6.02143 116.274 6.49636C116.588 7.00517 116.777 7.75315 116.817 8.67387L118.329 8.60813ZM115.036 5.69968H125.7V4.18632H115.036V5.69968ZM125.649 4.18807C124.404 4.27295 123.562 4.95256 123.065 5.91929C122.594 6.8356 122.429 8.00519 122.407 9.18572L123.92 9.21427C123.941 8.11581 124.098 7.2214 124.411 6.61121C124.699 6.05144 125.105 5.74205 125.752 5.69792L125.649 4.18807ZM122.407 9.2V30.743H123.92V9.2H122.407ZM127.323 4.943V4.18632H126.686L126.578 4.81417L127.323 4.943ZM142.287 4.943L143.032 4.81039L142.921 4.18632H142.287V4.943ZM143.749 13.156L143.031 13.3953L144.494 13.0234L143.749 13.156ZM137.815 7.05V6.29332H137.059V7.05H137.815ZM137.815 32.85H137.059V32.9611L137.09 33.0674L137.815 32.85ZM140.395 35.043V35.7997L140.413 34.2865L140.395 35.043ZM136.654 34.957L136.672 34.2005L136.653 34.2001L136.635 34.2006L136.654 34.957ZM133.214 35.043V35.7997H133.224L133.233 35.7994L133.214 35.043ZM132.01 30.743L131.254 30.735L131.253 30.7459L131.254 30.7568L132.01 30.743ZM132.053 26.658L132.81 26.666V26.658H132.053ZM132.053 7.05H132.81V6.29332H132.053V7.05ZM125.904 13.156L125.159 13.0272L126.625 13.3854L125.904 13.156ZM127.323 5.69968H142.287V4.18632H127.323V5.69968ZM141.542 5.07561L143.004 13.2886L144.494 13.0234L143.032 4.81039L141.542 5.07561ZM144.467 12.9167C144.022 11.5826 143.594 9.91257 142.814 8.64251C142.408 7.98342 141.886 7.38651 141.178 6.95772C140.466 6.52637 139.612 6.29332 138.589 6.29332V7.80668C139.373 7.80668 139.948 7.98213 140.394 8.25222C140.845 8.52487 141.209 8.92233 141.524 9.43499C142.184 10.5084 142.53 11.8914 143.031 13.3953L144.467 12.9167ZM138.589 6.29332H137.815V7.80668H138.589V6.29332ZM137.059 7.05V32.85H138.572V7.05H137.059ZM137.09 33.0674C137.307 33.7905 137.653 34.4766 138.205 34.9863C138.774 35.5112 139.509 35.7997 140.395 35.7997V34.2863C139.862 34.2863 139.501 34.1233 139.231 33.8742C138.945 33.6099 138.71 33.1995 138.54 32.6326L137.09 33.0674ZM140.413 34.2865L136.672 34.2005L136.637 35.7135L140.378 35.7995L140.413 34.2865ZM136.635 34.2006L133.195 34.2866L133.233 35.7994L136.673 35.7134L136.635 34.2006ZM133.214 34.2863H129.473V35.7997H133.214V34.2863ZM129.473 35.7997C130.119 35.7997 130.692 35.6499 131.174 35.3404C131.654 35.0318 131.994 34.5972 132.229 34.1088C132.687 33.1618 132.789 31.9361 132.767 30.7292L131.254 30.7568C131.275 31.9149 131.162 32.8392 130.867 33.4509C130.726 33.7419 130.555 33.9389 130.356 34.067C130.158 34.1943 129.881 34.2863 129.473 34.2863V35.7997ZM132.767 30.751L132.81 26.666L131.297 26.65L131.254 30.735L132.767 30.751ZM132.81 26.658V7.05H131.297V26.658H132.81ZM132.053 6.29332H131.064V7.80668H132.053V6.29332ZM131.064 6.29332C130.042 6.29332 129.186 6.52633 128.471 6.95672C127.76 7.38465 127.234 7.9807 126.825 8.64037C126.035 9.91617 125.611 11.5813 125.183 12.9266L126.625 13.3854C127.1 11.8927 127.45 10.5048 128.112 9.43713C128.429 8.92505 128.797 8.52672 129.251 8.25322C129.702 7.98217 130.281 7.80668 131.064 7.80668V6.29332ZM126.65 13.2848L128.069 5.07182L126.578 4.81417L125.159 13.0272L126.65 13.2848ZM154.633 35.043V35.7997L154.701 34.2894L154.633 35.043ZM143.969 35.043L143.894 34.2901L143.969 35.7997V35.043ZM146.506 31.302L147.262 31.3349L147.263 31.3184V31.302H146.506ZM146.506 8.641H147.263V8.62456L147.262 8.60813L146.506 8.641ZM143.969 4.943V4.18632L143.912 5.69756L143.969 4.943ZM154.633 4.943L154.684 5.69792L154.633 4.18632V4.943ZM152.096 9.2L151.339 9.18572L151.339 9.19286V9.2H152.096ZM151.339 30.743C151.339 31.9344 151.505 33.1067 151.983 34.0309C152.484 34.9995 153.33 35.6843 154.564 35.7966L154.701 34.2894C154.044 34.2297 153.621 33.904 153.327 33.3354C153.01 32.7223 152.853 31.8306 152.853 30.743H151.339ZM154.633 34.2863H143.969V35.7997H154.633V34.2863ZM144.044 35.7959C145.161 35.6842 145.975 35.0941 146.495 34.2452C146.996 33.4279 147.216 32.393 147.262 31.3349L145.75 31.2691C145.71 32.189 145.521 32.9386 145.205 33.4543C144.908 33.9384 144.497 34.2298 143.894 34.2901L144.044 35.7959ZM147.263 31.302V8.641H145.749V31.302H147.263ZM147.262 8.60813C147.216 7.55084 146.997 6.51433 146.494 5.70088C145.97 4.85356 145.149 4.27273 144.026 4.18844L143.912 5.69756C144.508 5.74226 144.913 6.02143 145.206 6.49636C145.521 7.00517 145.71 7.75315 145.75 8.67387L147.262 8.60813ZM143.969 5.69968H154.633V4.18632H143.969V5.69968ZM154.581 4.18807C153.337 4.27295 152.495 4.95256 151.998 5.91929C151.527 6.8356 151.362 8.00519 151.339 9.18572L152.852 9.21427C152.873 8.11581 153.03 7.2214 153.344 6.61121C153.632 6.05144 154.037 5.74205 154.684 5.69792L154.581 4.18807ZM151.339 9.2V30.743H152.853V9.2H151.339ZM177.813 32.205L177.407 31.5666L177.403 31.5687L177.813 32.205ZM183.102 26.271L183.415 25.5821L182.751 25.2804L182.425 25.9326L183.102 26.271ZM184.048 26.701L184.741 27.0049L185.041 26.3211L184.361 26.0121L184.048 26.701ZM184.048 13.199L184.635 13.6764L184.926 13.3181L184.741 12.8951L184.048 13.199ZM177.684 21.025L176.928 20.9971L176.845 23.2566L178.271 21.5024L177.684 21.025ZM167.192 5.631L167.215 6.38732L167.216 6.3873L167.192 5.631ZM178.219 32.8434C179.427 32.0749 180.413 31.3462 181.304 30.3798C182.195 29.4137 182.963 28.2405 183.779 26.6094L182.425 25.9326C181.65 27.4835 180.956 28.5248 180.191 29.3539C179.427 30.1828 178.564 30.8301 177.407 31.5666L178.219 32.8434ZM182.789 26.9599L183.735 27.3899L184.361 26.0121L183.415 25.5821L182.789 26.9599ZM183.355 26.3971C181.321 31.0355 176.941 34.5873 170.159 34.5873V36.1007C177.567 36.1007 182.475 32.1705 184.741 27.0049L183.355 26.3971ZM170.159 34.5873C165.282 34.5873 161.679 32.7471 159.286 30.0269C156.881 27.2922 155.661 23.6233 155.661 19.9285C155.661 16.2337 156.881 12.5648 159.286 9.83009C161.679 7.10993 165.282 5.26968 170.159 5.26968V3.75632C164.866 3.75632 160.842 5.76994 158.15 8.83059C155.471 11.8767 154.148 15.9155 154.148 19.9285C154.148 23.9415 155.471 27.9803 158.15 31.0264C160.842 34.0871 164.866 36.1007 170.159 36.1007V34.5873ZM170.159 5.26968C176.937 5.26968 181.319 8.86091 183.355 13.5029L184.741 12.8951C182.477 7.73309 177.57 3.75632 170.159 3.75632V5.26968ZM183.461 12.7216L177.097 20.5476L178.271 21.5024L184.635 13.6764L183.461 12.7216ZM178.44 21.0529C178.597 16.8007 177.279 12.7482 175.204 9.7674C173.144 6.80906 170.235 4.77733 167.168 4.8747L167.216 6.3873C169.567 6.31267 172.055 7.89293 173.962 10.6321C175.853 13.3488 177.072 17.0793 176.928 20.9971L178.44 21.0529ZM167.169 4.87468C165.094 4.93859 163.422 5.59704 162.151 6.72102C160.888 7.8378 160.074 9.36707 159.624 11.0914C158.727 14.5218 159.226 18.8581 160.648 22.8179C162.07 26.7788 164.463 30.4985 167.5 32.6381C169.027 33.7139 170.734 34.4015 172.566 34.4926C174.404 34.584 176.31 34.0722 178.223 32.8413L177.403 31.5687C175.725 32.6491 174.127 33.055 172.641 32.9811C171.149 32.907 169.713 32.3463 168.372 31.401C165.672 29.4986 163.429 26.0857 162.072 22.3066C160.715 18.5264 160.293 14.5153 161.088 11.4742C161.483 9.9628 162.169 8.72529 163.153 7.85466C164.129 6.99124 165.452 6.44165 167.215 6.38732L167.169 4.87468ZM199.655 31.13L200.4 31.001L200.4 30.9991L199.655 31.13ZM202.45 35.043L202.444 35.7997L202.52 34.2896L202.45 35.043ZM191.27 34.957L191.19 34.2045L191.264 35.7137L191.27 34.957ZM192.904 27.647L193.647 27.5076L193.534 26.9042L192.921 26.8905L192.904 27.647ZM187.142 27.518L187.159 26.7615L186.532 26.7475L186.402 27.3603L187.142 27.518ZM188.561 34.957V35.7137L188.675 34.209L188.561 34.957ZM182.24 34.957L182.113 34.211L182.24 35.7137V34.957ZM185.766 29.195L186.505 29.3561L186.506 29.3512L185.766 29.195ZM189.894 9.63L190.634 9.78621L190.662 9.65417L190.642 9.52063L189.894 9.63ZM189.335 5.803L189.222 5.05473L188.477 5.16678L188.586 5.91236L189.335 5.803ZM195.054 4.943L195.799 4.81206L195.671 4.08495L194.941 4.19473L195.054 4.943ZM187.572 26.314L186.83 26.1631L186.645 27.0707H187.572V26.314ZM192.646 26.314V27.0707H193.512L193.395 26.2123L192.646 26.314ZM190.668 11.737L191.417 11.6353L191.329 10.9803H190.668V11.737ZM190.539 11.737V10.9803H189.92L189.797 11.5861L190.539 11.737ZM198.909 31.259C199.103 32.3821 199.358 33.4464 199.86 34.2588C200.401 35.1313 201.211 35.6878 202.38 35.7964L202.52 34.2896C201.839 34.2262 201.446 33.9442 201.147 33.4622C200.812 32.9201 200.593 32.1139 200.4 31.001L198.909 31.259ZM202.455 34.2863L191.275 34.2003L191.264 35.7137L202.444 35.7997L202.455 34.2863ZM191.349 35.7095C192.389 35.6 193.136 35.1054 193.6 34.3601C194.039 33.6565 194.188 32.7922 194.214 31.971C194.265 30.3381 193.83 28.4825 193.647 27.5076L192.16 27.7864C192.364 28.8755 192.746 30.5029 192.701 31.923C192.679 32.6283 192.551 33.183 192.316 33.5598C192.107 33.8948 191.784 34.142 191.19 34.2045L191.349 35.7095ZM192.921 26.8905L187.159 26.7615L187.125 28.2745L192.887 28.4035L192.921 26.8905ZM186.402 27.3603C186.132 28.6262 185.684 30.4777 185.724 32.0631C185.744 32.8625 185.889 33.687 186.313 34.3652C186.759 35.0788 187.469 35.5557 188.446 35.705L188.675 34.209C188.104 34.1218 187.793 33.8784 187.596 33.5628C187.376 33.2116 187.254 32.6977 187.237 32.0244C187.202 30.6643 187.592 29.0328 187.882 27.6757L186.402 27.3603ZM188.561 34.2003H182.24V35.7137H188.561V34.2003ZM182.366 35.703C183.095 35.5795 183.707 35.336 184.216 34.9493C184.724 34.5629 185.085 34.0668 185.36 33.5048C185.884 32.4317 186.153 30.972 186.505 29.3561L185.026 29.0339C184.647 30.772 184.421 31.9783 184 32.8402C183.802 33.2457 183.577 33.5344 183.3 33.7446C183.024 33.9545 182.653 34.1195 182.113 34.211L182.366 35.703ZM186.506 29.3512L190.634 9.78621L189.153 9.47379L185.025 29.0388L186.506 29.3512ZM190.642 9.52063L190.083 5.69363L188.586 5.91236L189.145 9.73936L190.642 9.52063ZM189.447 6.55126L195.166 5.69126L194.941 4.19473L189.222 5.05473L189.447 6.55126ZM194.308 5.07394L198.909 31.2609L200.4 30.9991L195.799 4.81206L194.308 5.07394ZM187.572 27.0707H192.646V25.5573H187.572V27.0707ZM193.395 26.2123L191.417 11.6353L189.918 11.8387L191.896 26.4157L193.395 26.2123ZM190.668 10.9803H190.539V12.4937H190.668V10.9803ZM189.797 11.5861L186.83 26.1631L188.313 26.4649L191.28 11.8879L189.797 11.5861ZM217.303 27.26L218.043 27.4171L216.571 27.0679L217.303 27.26ZM215.669 34.957L215.671 35.7137L216.282 35.7118L216.409 35.1141L215.669 34.957ZM201.608 35L201.606 34.2433L201.608 35.7567V35ZM204.231 32.721H203.474V32.7439L203.476 32.7668L204.231 32.721ZM204.231 7.265L203.477 7.19849L203.474 7.23168V7.265H204.231ZM209.778 34.14H209.021V34.8967H209.778V34.14ZM211.713 34.8967C212.906 34.8967 213.903 34.3506 214.695 33.622C215.483 32.8977 216.11 31.9571 216.594 31.0582C217.08 30.1538 217.438 29.2557 217.675 28.5876C217.794 28.2524 217.883 27.9721 217.943 27.7742C217.972 27.6752 217.995 27.5966 218.01 27.5419C218.018 27.5145 218.024 27.493 218.028 27.4779C218.03 27.4704 218.032 27.4644 218.033 27.4601C218.033 27.4579 218.034 27.4562 218.034 27.4549C218.034 27.4542 218.035 27.4536 218.035 27.4532C218.035 27.4529 218.035 27.4527 218.035 27.4526C218.035 27.4523 218.035 27.4521 217.303 27.26C216.571 27.0679 216.571 27.0677 216.571 27.0676C216.571 27.0676 216.571 27.0675 216.571 27.0675C216.571 27.0674 216.571 27.0675 216.571 27.0677C216.571 27.068 216.571 27.0687 216.571 27.0699C216.57 27.0722 216.569 27.0761 216.568 27.0816C216.565 27.0925 216.56 27.1097 216.553 27.1327C216.54 27.1787 216.521 27.2479 216.494 27.337C216.44 27.5154 216.358 27.7726 216.249 28.0824C216.028 28.7043 215.699 29.5262 215.261 30.3418C214.819 31.1629 214.286 31.9423 213.671 32.508C213.06 33.0694 212.412 33.3833 211.713 33.3833V34.8967ZM216.563 27.1029L214.929 34.7999L216.409 35.1141L218.043 27.4171L216.563 27.1029ZM215.667 34.2003L201.606 34.2433L201.61 35.7567L215.671 35.7137L215.667 34.2003ZM201.608 35.7567C202.496 35.7567 203.354 35.504 203.996 34.9777C204.657 34.4356 205.044 33.6336 204.986 32.6752L203.476 32.7668C203.504 33.2274 203.332 33.5649 203.036 33.8076C202.721 34.066 202.226 34.2433 201.608 34.2433V35.7567ZM204.988 32.721V7.265H203.474V32.721H204.988ZM204.985 7.33151C205.073 6.33499 204.665 5.51498 203.994 4.96868C203.344 4.44014 202.476 4.18632 201.608 4.18632V5.69968C202.202 5.69968 202.711 5.87586 203.039 6.14282C203.345 6.39202 203.518 6.73301 203.477 7.19849L204.985 7.33151ZM201.608 5.69968H212.186V4.18632H201.608V5.69968ZM212.186 4.18632C211.21 4.18632 210.376 4.43106 209.795 5.02807C209.218 5.62133 209.021 6.42839 209.021 7.265H210.535C210.535 6.6396 210.683 6.28567 210.879 6.08342C211.073 5.88493 211.442 5.69968 212.186 5.69968V4.18632ZM209.021 7.265V34.14H210.535V7.265H209.021ZM209.778 34.8967H211.713V33.3833H209.778V34.8967Z" fill="white" mask="url(#path-1-outside-1_924_1872)"/>
</g>
<defs>
<filter id="filter0_d_924_1872" x="0.441895" y="0.557007" width="220.861" height="48.8929" filterUnits="userSpaceOnUse" color-interpolation-filters="sRGB">
<feFlood flood-opacity="0" result="BackgroundImageFix"/>
<feColorMatrix in="SourceAlpha" type="matrix" values="0 0 0 0 0 0 0 0 0 0 0 0 0 0 0 0 0 0 127 0" result="hardAlpha"/>
<feOffset dy="4"/>
<feGaussianBlur stdDeviation="2"/>
<feComposite in2="hardAlpha" operator="out"/>
<feColorMatrix type="matrix" values="0 0 0 0 0 0 0 0 0 0 0 0 0 0 0 0 0 0 0.25 0"/>
<feBlend mode="normal" in2="BackgroundImageFix" result="effect1_dropShadow_924_1872"/>
<feBlend mode="normal" in="SourceGraphic" in2="effect1_dropShadow_924_1872" result="shape"/>
</filter>
<linearGradient id="paint0_linear_924_1872" x1="113.5" y1="2" x2="113.5" y2="43" gradientUnits="userSpaceOnUse">
<stop/>
<stop offset="0.475" stop-color="#D79F29"/>
</linearGradient>
</defs>
</svg>
