<svg width="59" height="17" viewBox="0 0 59 17" fill="none" xmlns="http://www.w3.org/2000/svg">
<g filter="url(#filter0_d_1015_1810)">
<mask id="path-1-outside-1_1015_1810" maskUnits="userSpaceOnUse" x="4" y="-1" width="52" height="10" fill="black">
<rect fill="white" x="4" y="-1" width="52" height="10"/>
<path d="M4.34846 0.299999H6.47146C6.77946 0.299999 7.05812 0.365999 7.30746 0.498C7.56412 0.622666 7.77312 0.791333 7.93446 1.004C8.10312 1.21667 8.24612 1.46233 8.36346 1.741C8.48079 2.01967 8.55046 2.31667 8.57246 2.632C8.60179 2.94 8.60179 3.248 8.57246 3.556C8.55046 3.864 8.48446 4.15733 8.37446 4.436C8.26446 4.71467 8.12879 4.96033 7.96746 5.173C7.80612 5.38567 7.59712 5.558 7.34046 5.69C7.09112 5.81467 6.81612 5.877 6.51546 5.877V7.274C6.57412 7.758 6.78312 8 7.14246 8H5.03046H4.34846C4.79579 8 5.01212 7.637 4.99746 6.911V1.389C5.01212 0.663 4.79579 0.299999 4.34846 0.299999ZM6.59246 5.635C6.73179 5.635 6.84546 5.459 6.93346 5.107C7.02879 4.74767 7.08379 4.315 7.09846 3.809C7.12046 3.303 7.11679 2.797 7.08746 2.291C7.06546 1.785 7.00312 1.356 6.90046 1.004C6.79779 0.652 6.66946 0.476 6.51546 0.476V5.635H6.59246ZM11.2076 5.36C11.2809 5.426 11.3579 5.51767 11.4386 5.635C11.5266 5.745 11.5999 5.85133 11.6586 5.954C11.7246 6.04933 11.8016 6.14467 11.8896 6.24C11.9849 6.328 12.0766 6.39767 12.1646 6.449C12.2599 6.493 12.3699 6.51133 12.4946 6.504C12.6266 6.48933 12.7659 6.44167 12.9126 6.361L12.9456 8C12.6596 8 12.4102 7.945 12.1976 7.835C11.9849 7.71767 11.8199 7.571 11.7026 7.395C11.5852 7.21167 11.4826 7.01367 11.3946 6.801C11.3066 6.581 11.2369 6.37567 11.1856 6.185C11.1416 5.99433 11.0902 5.82567 11.0316 5.679C10.9729 5.53233 10.9106 5.44433 10.8446 5.415V7.274C10.9032 7.758 11.1122 8 11.4716 8H8.67756C9.12489 8 9.34123 7.637 9.32656 6.911V1.389C9.34123 0.663 9.12489 0.299999 8.67756 0.299999H10.8006C11.2332 0.299999 11.6109 0.417333 11.9336 0.652C12.2562 0.879333 12.4946 1.169 12.6486 1.521C12.8099 1.873 12.9016 2.258 12.9236 2.676C12.9456 3.094 12.8979 3.49 12.7806 3.864C12.6706 4.23067 12.4762 4.557 12.1976 4.843C11.9262 5.12167 11.5962 5.294 11.2076 5.36ZM10.9216 5.14C11.0609 5.14 11.1746 4.98233 11.2626 4.667C11.3579 4.34433 11.4129 3.95567 11.4276 3.501C11.4496 3.039 11.4459 2.58067 11.4166 2.126C11.3946 1.664 11.3322 1.27533 11.2296 0.96C11.1269 0.637333 10.9986 0.476 10.8446 0.476V5.14H10.9216ZM17.2575 0.200999C17.8881 0.200999 18.4565 0.314666 18.9625 0.542C19.4685 0.769333 19.8755 1.06633 20.1835 1.433C20.4988 1.79967 20.7408 2.22133 20.9095 2.698C21.0855 3.16733 21.1735 3.64767 21.1735 4.139C21.1735 4.63033 21.0891 5.11433 20.9205 5.591C20.7518 6.06033 20.5098 6.482 20.1945 6.856C19.8865 7.22267 19.4758 7.51967 18.9625 7.747C18.4565 7.967 17.8881 8.077 17.2575 8.077C16.6341 8.077 16.0658 7.967 15.5525 7.747C15.0465 7.51967 14.6358 7.22267 14.3205 6.856C14.0125 6.482 13.7741 6.06033 13.6055 5.591C13.4368 5.11433 13.3525 4.63033 13.3525 4.139C13.3525 3.64767 13.4368 3.16733 13.6055 2.698C13.7741 2.22133 14.0125 1.79967 14.3205 1.433C14.6358 1.06633 15.0465 0.769333 15.5525 0.542C16.0658 0.314666 16.6341 0.200999 17.2575 0.200999ZM19.4795 7.12C19.8315 6.84867 20.0625 6.49667 20.1725 6.064C20.2898 5.63133 20.2898 5.18767 20.1725 4.733C20.0551 4.271 19.8681 3.80167 19.6115 3.325C19.3621 2.841 19.0468 2.41933 18.6655 2.06C18.2915 1.69333 17.8991 1.38533 17.4885 1.136C17.0851 0.886666 16.6671 0.765666 16.2345 0.773C15.8018 0.780333 15.4058 0.912333 15.0465 1.169C14.6871 1.44767 14.4488 1.807 14.3315 2.247C14.2215 2.67967 14.2251 3.127 14.3425 3.589C14.4598 4.04367 14.6431 4.50933 14.8925 4.986C15.1491 5.46267 15.4681 5.88433 15.8495 6.251C16.2308 6.61033 16.6268 6.91467 17.0375 7.164C17.4481 7.406 17.8698 7.52333 18.3025 7.516C18.7351 7.50867 19.1275 7.37667 19.4795 7.12ZM23.3357 0.299999C23.7023 0.299999 24.0397 0.387999 24.3477 0.563999C24.6557 0.74 24.9087 0.978333 25.1067 1.279C25.3047 1.57233 25.4697 1.90967 25.6017 2.291C25.741 2.67233 25.8253 3.07567 25.8547 3.501C25.884 3.92633 25.884 4.35167 25.8547 4.777C25.8253 5.20233 25.741 5.60933 25.6017 5.998C25.4623 6.37933 25.2937 6.72033 25.0957 7.021C24.8977 7.31433 24.6447 7.549 24.3367 7.725C24.0287 7.89367 23.6913 7.978 23.3247 7.978L21.2897 8C21.693 7.96333 21.8873 7.60033 21.8727 6.911V1.367C21.88 1.04433 21.8397 0.791333 21.7517 0.607999C21.671 0.424666 21.517 0.322 21.2897 0.299999H23.3357ZM23.5667 7.78C23.772 7.74333 23.9443 7.46833 24.0837 6.955C24.223 6.44167 24.3073 5.833 24.3367 5.129C24.366 4.41767 24.3623 3.71 24.3257 3.006C24.2963 2.302 24.2083 1.708 24.0617 1.224C23.915 0.739999 23.7353 0.498 23.5227 0.498H23.3687L23.3577 7.791L23.5667 7.78ZM29.0704 0.299999H30.6214C30.174 0.299999 29.9577 0.655666 29.9724 1.367L29.9174 5.866C29.9174 6.26933 29.8734 6.62133 29.7854 6.922C29.7047 7.21533 29.591 7.44633 29.4444 7.615C29.2977 7.77633 29.14 7.89367 28.9714 7.967C28.81 8.04033 28.6377 8.077 28.4544 8.077C27.897 8.077 27.4607 7.88267 27.1454 7.494C26.83 7.10533 26.6724 6.56633 26.6724 5.877L26.6284 1.356C26.6357 1.01867 26.5917 0.758333 26.4964 0.575C26.4084 0.391666 26.236 0.299999 25.9794 0.299999H28.7844C28.5277 0.299999 28.3517 0.391666 28.2564 0.575C28.1684 0.758333 28.128 1.01867 28.1354 1.356L28.1134 5.877C28.1134 6.933 28.403 7.461 28.9824 7.461C29.195 7.461 29.3747 7.33267 29.5214 7.076C29.6754 6.812 29.7487 6.416 29.7414 5.888L29.7194 1.367C29.7267 1.02967 29.6827 0.769333 29.5874 0.586C29.4994 0.395333 29.327 0.299999 29.0704 0.299999ZM36.5107 7.285C36.826 7.07967 37.079 6.87067 37.2697 6.658C37.4677 6.44533 37.6657 6.14467 37.8637 5.756L38.0947 5.866C37.8087 6.53333 37.3613 7.06867 36.7527 7.472C36.1513 7.87533 35.4143 8.077 34.5417 8.077C33.9183 8.077 33.3537 7.967 32.8477 7.747C32.3417 7.51967 31.931 7.22267 31.6157 6.856C31.3077 6.482 31.0693 6.06033 30.9007 5.591C30.732 5.11433 30.6477 4.63033 30.6477 4.139C30.6477 3.64767 30.732 3.16733 30.9007 2.698C31.0693 2.22133 31.3077 1.79967 31.6157 1.433C31.931 1.06633 32.3417 0.769333 32.8477 0.542C33.3537 0.314666 33.9183 0.200999 34.5417 0.200999C35.4143 0.200999 36.1513 0.402666 36.7527 0.806C37.3613 1.20933 37.8087 1.74467 38.0947 2.412L36.4777 4.414C36.4997 3.73933 36.3823 3.094 36.1257 2.478C35.869 1.862 35.528 1.37433 35.1027 1.015C34.6773 0.648333 34.2373 0.472333 33.7827 0.487C32.9027 0.509 32.3307 0.956333 32.0667 1.829C31.8247 2.63567 31.887 3.589 32.2537 4.689C32.613 5.75967 33.1373 6.57 33.8267 7.12C34.6993 7.81667 35.594 7.87167 36.5107 7.285ZM38.5585 0.299999H42.3865L42.7495 2.401C42.7349 2.36433 42.7055 2.27633 42.6615 2.137C42.6175 1.99767 42.5845 1.90233 42.5625 1.851C42.5479 1.79967 42.5149 1.71533 42.4635 1.598C42.4195 1.48067 42.3792 1.4 42.3425 1.356C42.3059 1.30467 42.2545 1.23867 42.1885 1.158C42.1225 1.07733 42.0565 1.02233 41.9905 0.993C41.9245 0.956333 41.8402 0.923333 41.7375 0.894C41.6422 0.864666 41.5395 0.85 41.4295 0.85H41.2425V7.45C41.3452 7.81667 41.5652 8 41.9025 8L40.9345 7.978L40.0655 8H39.0975C39.5522 8 39.7685 7.637 39.7465 6.911L39.7685 5.855V0.85H39.5045C39.3945 0.85 39.2919 0.864666 39.1965 0.894C39.1012 0.923333 39.0169 0.956333 38.9435 0.993C38.8775 1.02233 38.8115 1.07733 38.7455 1.158C38.6795 1.23867 38.6282 1.30467 38.5915 1.356C38.5549 1.4 38.5109 1.48067 38.4595 1.598C38.4155 1.71533 38.3825 1.79967 38.3605 1.851C38.3459 1.90233 38.3165 1.99767 38.2725 2.137C38.2285 2.27633 38.1992 2.36433 38.1845 2.401L38.5585 0.299999ZM44.8957 6.911C44.8957 7.60033 45.1121 7.96333 45.5447 8H42.8057C43.2237 7.96333 43.4401 7.64433 43.4547 7.043V1.257C43.4401 0.655666 43.2237 0.336666 42.8057 0.299999H45.5447C45.1194 0.336666 44.9031 0.699666 44.8957 1.389V6.911ZM49.5129 2.489C49.5422 2.313 49.5642 2.16633 49.5789 2.049C49.6009 1.92433 49.6192 1.774 49.6339 1.598C49.6559 1.41467 49.6596 1.26067 49.6449 1.136C49.6376 1.01133 49.6156 0.886666 49.5789 0.761999C49.5496 0.629999 49.4946 0.527333 49.4139 0.453999C49.3406 0.373333 49.2452 0.322 49.1279 0.299999H50.7559C50.4552 0.351333 50.2462 0.487 50.1289 0.706999C50.0189 0.919666 49.9272 1.27533 49.8539 1.774L49.0289 7.23L49.1719 8H47.6209L46.1469 1.29C46.0076 0.666666 45.7216 0.336666 45.2889 0.299999H47.9949C47.7822 0.299999 47.6649 0.435666 47.6429 0.706999C47.6282 0.978333 47.6686 1.33033 47.7639 1.763C47.7712 1.807 47.7749 1.84 47.7749 1.862L48.8639 6.845L49.5129 2.489ZM53.1463 7.78C53.2783 7.78 53.4067 7.747 53.5313 7.681C53.656 7.615 53.7623 7.53067 53.8503 7.428C53.9457 7.32533 54.0337 7.21167 54.1143 7.087C54.195 6.96233 54.261 6.83767 54.3123 6.713C54.371 6.581 54.4187 6.46367 54.4553 6.361C54.4993 6.25833 54.5323 6.174 54.5543 6.108L54.5763 6.009L54.1583 7.978L51.5293 8H50.5613C51.0087 8 51.225 7.637 51.2103 6.911L51.2323 5.855L51.2103 1.367C51.2177 1.02967 51.1737 0.769333 51.0783 0.586C50.9903 0.395333 50.818 0.299999 50.5613 0.299999H53.9933L54.1913 2.5C54.184 2.456 54.1583 2.34233 54.1143 2.159C54.0777 1.97567 54.019 1.752 53.9383 1.488C53.865 1.224 53.7587 0.993 53.6193 0.795C53.4873 0.597 53.3517 0.498 53.2123 0.498H52.6623V3.798H52.8603C52.9997 3.798 53.1207 3.76133 53.2233 3.688C53.3333 3.60733 53.4177 3.51933 53.4763 3.424C53.535 3.32133 53.5827 3.20767 53.6193 3.083C53.656 2.95833 53.678 2.86667 53.6853 2.808C53.6927 2.74933 53.7 2.70533 53.7073 2.676V5.536C53.7 5.49933 53.6927 5.448 53.6853 5.382C53.6853 5.30867 53.667 5.18767 53.6303 5.019C53.5937 4.843 53.546 4.69267 53.4873 4.568C53.436 4.436 53.3553 4.315 53.2453 4.205C53.1353 4.095 53.007 4.04 52.8603 4.04H52.6623V7.78H53.1463Z"/>
</mask>
<path d="M4.34846 0.299999H6.47146C6.77946 0.299999 7.05812 0.365999 7.30746 0.498C7.56412 0.622666 7.77312 0.791333 7.93446 1.004C8.10312 1.21667 8.24612 1.46233 8.36346 1.741C8.48079 2.01967 8.55046 2.31667 8.57246 2.632C8.60179 2.94 8.60179 3.248 8.57246 3.556C8.55046 3.864 8.48446 4.15733 8.37446 4.436C8.26446 4.71467 8.12879 4.96033 7.96746 5.173C7.80612 5.38567 7.59712 5.558 7.34046 5.69C7.09112 5.81467 6.81612 5.877 6.51546 5.877V7.274C6.57412 7.758 6.78312 8 7.14246 8H5.03046H4.34846C4.79579 8 5.01212 7.637 4.99746 6.911V1.389C5.01212 0.663 4.79579 0.299999 4.34846 0.299999ZM6.59246 5.635C6.73179 5.635 6.84546 5.459 6.93346 5.107C7.02879 4.74767 7.08379 4.315 7.09846 3.809C7.12046 3.303 7.11679 2.797 7.08746 2.291C7.06546 1.785 7.00312 1.356 6.90046 1.004C6.79779 0.652 6.66946 0.476 6.51546 0.476V5.635H6.59246ZM11.2076 5.36C11.2809 5.426 11.3579 5.51767 11.4386 5.635C11.5266 5.745 11.5999 5.85133 11.6586 5.954C11.7246 6.04933 11.8016 6.14467 11.8896 6.24C11.9849 6.328 12.0766 6.39767 12.1646 6.449C12.2599 6.493 12.3699 6.51133 12.4946 6.504C12.6266 6.48933 12.7659 6.44167 12.9126 6.361L12.9456 8C12.6596 8 12.4102 7.945 12.1976 7.835C11.9849 7.71767 11.8199 7.571 11.7026 7.395C11.5852 7.21167 11.4826 7.01367 11.3946 6.801C11.3066 6.581 11.2369 6.37567 11.1856 6.185C11.1416 5.99433 11.0902 5.82567 11.0316 5.679C10.9729 5.53233 10.9106 5.44433 10.8446 5.415V7.274C10.9032 7.758 11.1122 8 11.4716 8H8.67756C9.12489 8 9.34123 7.637 9.32656 6.911V1.389C9.34123 0.663 9.12489 0.299999 8.67756 0.299999H10.8006C11.2332 0.299999 11.6109 0.417333 11.9336 0.652C12.2562 0.879333 12.4946 1.169 12.6486 1.521C12.8099 1.873 12.9016 2.258 12.9236 2.676C12.9456 3.094 12.8979 3.49 12.7806 3.864C12.6706 4.23067 12.4762 4.557 12.1976 4.843C11.9262 5.12167 11.5962 5.294 11.2076 5.36ZM10.9216 5.14C11.0609 5.14 11.1746 4.98233 11.2626 4.667C11.3579 4.34433 11.4129 3.95567 11.4276 3.501C11.4496 3.039 11.4459 2.58067 11.4166 2.126C11.3946 1.664 11.3322 1.27533 11.2296 0.96C11.1269 0.637333 10.9986 0.476 10.8446 0.476V5.14H10.9216ZM17.2575 0.200999C17.8881 0.200999 18.4565 0.314666 18.9625 0.542C19.4685 0.769333 19.8755 1.06633 20.1835 1.433C20.4988 1.79967 20.7408 2.22133 20.9095 2.698C21.0855 3.16733 21.1735 3.64767 21.1735 4.139C21.1735 4.63033 21.0891 5.11433 20.9205 5.591C20.7518 6.06033 20.5098 6.482 20.1945 6.856C19.8865 7.22267 19.4758 7.51967 18.9625 7.747C18.4565 7.967 17.8881 8.077 17.2575 8.077C16.6341 8.077 16.0658 7.967 15.5525 7.747C15.0465 7.51967 14.6358 7.22267 14.3205 6.856C14.0125 6.482 13.7741 6.06033 13.6055 5.591C13.4368 5.11433 13.3525 4.63033 13.3525 4.139C13.3525 3.64767 13.4368 3.16733 13.6055 2.698C13.7741 2.22133 14.0125 1.79967 14.3205 1.433C14.6358 1.06633 15.0465 0.769333 15.5525 0.542C16.0658 0.314666 16.6341 0.200999 17.2575 0.200999ZM19.4795 7.12C19.8315 6.84867 20.0625 6.49667 20.1725 6.064C20.2898 5.63133 20.2898 5.18767 20.1725 4.733C20.0551 4.271 19.8681 3.80167 19.6115 3.325C19.3621 2.841 19.0468 2.41933 18.6655 2.06C18.2915 1.69333 17.8991 1.38533 17.4885 1.136C17.0851 0.886666 16.6671 0.765666 16.2345 0.773C15.8018 0.780333 15.4058 0.912333 15.0465 1.169C14.6871 1.44767 14.4488 1.807 14.3315 2.247C14.2215 2.67967 14.2251 3.127 14.3425 3.589C14.4598 4.04367 14.6431 4.50933 14.8925 4.986C15.1491 5.46267 15.4681 5.88433 15.8495 6.251C16.2308 6.61033 16.6268 6.91467 17.0375 7.164C17.4481 7.406 17.8698 7.52333 18.3025 7.516C18.7351 7.50867 19.1275 7.37667 19.4795 7.12ZM23.3357 0.299999C23.7023 0.299999 24.0397 0.387999 24.3477 0.563999C24.6557 0.74 24.9087 0.978333 25.1067 1.279C25.3047 1.57233 25.4697 1.90967 25.6017 2.291C25.741 2.67233 25.8253 3.07567 25.8547 3.501C25.884 3.92633 25.884 4.35167 25.8547 4.777C25.8253 5.20233 25.741 5.60933 25.6017 5.998C25.4623 6.37933 25.2937 6.72033 25.0957 7.021C24.8977 7.31433 24.6447 7.549 24.3367 7.725C24.0287 7.89367 23.6913 7.978 23.3247 7.978L21.2897 8C21.693 7.96333 21.8873 7.60033 21.8727 6.911V1.367C21.88 1.04433 21.8397 0.791333 21.7517 0.607999C21.671 0.424666 21.517 0.322 21.2897 0.299999H23.3357ZM23.5667 7.78C23.772 7.74333 23.9443 7.46833 24.0837 6.955C24.223 6.44167 24.3073 5.833 24.3367 5.129C24.366 4.41767 24.3623 3.71 24.3257 3.006C24.2963 2.302 24.2083 1.708 24.0617 1.224C23.915 0.739999 23.7353 0.498 23.5227 0.498H23.3687L23.3577 7.791L23.5667 7.78ZM29.0704 0.299999H30.6214C30.174 0.299999 29.9577 0.655666 29.9724 1.367L29.9174 5.866C29.9174 6.26933 29.8734 6.62133 29.7854 6.922C29.7047 7.21533 29.591 7.44633 29.4444 7.615C29.2977 7.77633 29.14 7.89367 28.9714 7.967C28.81 8.04033 28.6377 8.077 28.4544 8.077C27.897 8.077 27.4607 7.88267 27.1454 7.494C26.83 7.10533 26.6724 6.56633 26.6724 5.877L26.6284 1.356C26.6357 1.01867 26.5917 0.758333 26.4964 0.575C26.4084 0.391666 26.236 0.299999 25.9794 0.299999H28.7844C28.5277 0.299999 28.3517 0.391666 28.2564 0.575C28.1684 0.758333 28.128 1.01867 28.1354 1.356L28.1134 5.877C28.1134 6.933 28.403 7.461 28.9824 7.461C29.195 7.461 29.3747 7.33267 29.5214 7.076C29.6754 6.812 29.7487 6.416 29.7414 5.888L29.7194 1.367C29.7267 1.02967 29.6827 0.769333 29.5874 0.586C29.4994 0.395333 29.327 0.299999 29.0704 0.299999ZM36.5107 7.285C36.826 7.07967 37.079 6.87067 37.2697 6.658C37.4677 6.44533 37.6657 6.14467 37.8637 5.756L38.0947 5.866C37.8087 6.53333 37.3613 7.06867 36.7527 7.472C36.1513 7.87533 35.4143 8.077 34.5417 8.077C33.9183 8.077 33.3537 7.967 32.8477 7.747C32.3417 7.51967 31.931 7.22267 31.6157 6.856C31.3077 6.482 31.0693 6.06033 30.9007 5.591C30.732 5.11433 30.6477 4.63033 30.6477 4.139C30.6477 3.64767 30.732 3.16733 30.9007 2.698C31.0693 2.22133 31.3077 1.79967 31.6157 1.433C31.931 1.06633 32.3417 0.769333 32.8477 0.542C33.3537 0.314666 33.9183 0.200999 34.5417 0.200999C35.4143 0.200999 36.1513 0.402666 36.7527 0.806C37.3613 1.20933 37.8087 1.74467 38.0947 2.412L36.4777 4.414C36.4997 3.73933 36.3823 3.094 36.1257 2.478C35.869 1.862 35.528 1.37433 35.1027 1.015C34.6773 0.648333 34.2373 0.472333 33.7827 0.487C32.9027 0.509 32.3307 0.956333 32.0667 1.829C31.8247 2.63567 31.887 3.589 32.2537 4.689C32.613 5.75967 33.1373 6.57 33.8267 7.12C34.6993 7.81667 35.594 7.87167 36.5107 7.285ZM38.5585 0.299999H42.3865L42.7495 2.401C42.7349 2.36433 42.7055 2.27633 42.6615 2.137C42.6175 1.99767 42.5845 1.90233 42.5625 1.851C42.5479 1.79967 42.5149 1.71533 42.4635 1.598C42.4195 1.48067 42.3792 1.4 42.3425 1.356C42.3059 1.30467 42.2545 1.23867 42.1885 1.158C42.1225 1.07733 42.0565 1.02233 41.9905 0.993C41.9245 0.956333 41.8402 0.923333 41.7375 0.894C41.6422 0.864666 41.5395 0.85 41.4295 0.85H41.2425V7.45C41.3452 7.81667 41.5652 8 41.9025 8L40.9345 7.978L40.0655 8H39.0975C39.5522 8 39.7685 7.637 39.7465 6.911L39.7685 5.855V0.85H39.5045C39.3945 0.85 39.2919 0.864666 39.1965 0.894C39.1012 0.923333 39.0169 0.956333 38.9435 0.993C38.8775 1.02233 38.8115 1.07733 38.7455 1.158C38.6795 1.23867 38.6282 1.30467 38.5915 1.356C38.5549 1.4 38.5109 1.48067 38.4595 1.598C38.4155 1.71533 38.3825 1.79967 38.3605 1.851C38.3459 1.90233 38.3165 1.99767 38.2725 2.137C38.2285 2.27633 38.1992 2.36433 38.1845 2.401L38.5585 0.299999ZM44.8957 6.911C44.8957 7.60033 45.1121 7.96333 45.5447 8H42.8057C43.2237 7.96333 43.4401 7.64433 43.4547 7.043V1.257C43.4401 0.655666 43.2237 0.336666 42.8057 0.299999H45.5447C45.1194 0.336666 44.9031 0.699666 44.8957 1.389V6.911ZM49.5129 2.489C49.5422 2.313 49.5642 2.16633 49.5789 2.049C49.6009 1.92433 49.6192 1.774 49.6339 1.598C49.6559 1.41467 49.6596 1.26067 49.6449 1.136C49.6376 1.01133 49.6156 0.886666 49.5789 0.761999C49.5496 0.629999 49.4946 0.527333 49.4139 0.453999C49.3406 0.373333 49.2452 0.322 49.1279 0.299999H50.7559C50.4552 0.351333 50.2462 0.487 50.1289 0.706999C50.0189 0.919666 49.9272 1.27533 49.8539 1.774L49.0289 7.23L49.1719 8H47.6209L46.1469 1.29C46.0076 0.666666 45.7216 0.336666 45.2889 0.299999H47.9949C47.7822 0.299999 47.6649 0.435666 47.6429 0.706999C47.6282 0.978333 47.6686 1.33033 47.7639 1.763C47.7712 1.807 47.7749 1.84 47.7749 1.862L48.8639 6.845L49.5129 2.489ZM53.1463 7.78C53.2783 7.78 53.4067 7.747 53.5313 7.681C53.656 7.615 53.7623 7.53067 53.8503 7.428C53.9457 7.32533 54.0337 7.21167 54.1143 7.087C54.195 6.96233 54.261 6.83767 54.3123 6.713C54.371 6.581 54.4187 6.46367 54.4553 6.361C54.4993 6.25833 54.5323 6.174 54.5543 6.108L54.5763 6.009L54.1583 7.978L51.5293 8H50.5613C51.0087 8 51.225 7.637 51.2103 6.911L51.2323 5.855L51.2103 1.367C51.2177 1.02967 51.1737 0.769333 51.0783 0.586C50.9903 0.395333 50.818 0.299999 50.5613 0.299999H53.9933L54.1913 2.5C54.184 2.456 54.1583 2.34233 54.1143 2.159C54.0777 1.97567 54.019 1.752 53.9383 1.488C53.865 1.224 53.7587 0.993 53.6193 0.795C53.4873 0.597 53.3517 0.498 53.2123 0.498H52.6623V3.798H52.8603C52.9997 3.798 53.1207 3.76133 53.2233 3.688C53.3333 3.60733 53.4177 3.51933 53.4763 3.424C53.535 3.32133 53.5827 3.20767 53.6193 3.083C53.656 2.95833 53.678 2.86667 53.6853 2.808C53.6927 2.74933 53.7 2.70533 53.7073 2.676V5.536C53.7 5.49933 53.6927 5.448 53.6853 5.382C53.6853 5.30867 53.667 5.18767 53.6303 5.019C53.5937 4.843 53.546 4.69267 53.4873 4.568C53.436 4.436 53.3553 4.315 53.2453 4.205C53.1353 4.095 53.007 4.04 52.8603 4.04H52.6623V7.78H53.1463Z" fill="#D7A129"/>
<path d="M7.30746 0.498L6.95342 1.16674L6.96504 1.17289L6.97686 1.17864L7.30746 0.498ZM7.93446 1.004L7.33162 1.46133L7.33654 1.46781L7.3416 1.4742L7.93446 1.004ZM8.36346 1.741L7.66608 2.03463V2.03463L8.36346 1.741ZM8.57246 2.632L7.81761 2.68466L7.81828 2.69421L7.81919 2.70374L8.57246 2.632ZM8.57246 3.556L7.81919 3.48426L7.81834 3.49317L7.8177 3.50209L8.57246 3.556ZM8.37446 4.436L9.07829 4.71383L9.07829 4.71383L8.37446 4.436ZM7.96746 5.173L8.5703 5.63033L8.5703 5.63033L7.96746 5.173ZM7.34046 5.69L7.67888 6.36684L7.68652 6.36291L7.34046 5.69ZM6.51546 5.877V5.12032H5.75878V5.877H6.51546ZM6.51546 7.274H5.75878V7.31969L5.76428 7.36505L6.51546 7.274ZM4.99746 6.911H4.24078V6.91864L4.24093 6.92628L4.99746 6.911ZM4.99746 1.389L4.24093 1.37372L4.24078 1.38136V1.389H4.99746ZM6.93346 5.107L6.20201 4.91294L6.19937 4.92348L6.93346 5.107ZM7.09846 3.809L6.34241 3.77613L6.3421 3.78708L7.09846 3.809ZM7.08746 2.291L6.33141 2.32387L6.33205 2.33479L7.08746 2.291ZM6.90046 1.004L7.62687 0.79213V0.792129L6.90046 1.004ZM6.51546 0.476V-0.280679H5.75878V0.476H6.51546ZM6.51546 5.635H5.75878V6.39168H6.51546V5.635ZM4.34846 1.05668H6.47146V-0.456679H4.34846V1.05668ZM6.47146 1.05668C6.66761 1.05668 6.82295 1.09767 6.95342 1.16674L7.6615 -0.170744C7.2933 -0.365672 6.8913 -0.456679 6.47146 -0.456679V1.05668ZM6.97686 1.17864C7.13405 1.25498 7.24712 1.34995 7.33162 1.46133L8.5373 0.546673C8.29912 0.232718 7.9942 -0.00965196 7.63805 -0.182639L6.97686 1.17864ZM7.3416 1.4742C7.46303 1.6273 7.57241 1.81218 7.66608 2.03463L9.06084 1.44737C8.91984 1.11248 8.74322 0.806032 8.52731 0.533804L7.3416 1.4742ZM7.66608 2.03463C7.7497 2.23324 7.80113 2.44846 7.81761 2.68466L9.3273 2.57934C9.29978 2.18487 9.21188 1.80609 9.06084 1.44737L7.66608 2.03463ZM7.81919 2.70374C7.84398 2.96402 7.84398 3.22398 7.81919 3.48426L9.32573 3.62774C9.35961 3.27202 9.35961 2.91598 9.32573 2.56026L7.81919 2.70374ZM7.8177 3.50209C7.80102 3.73567 7.7515 3.95331 7.67063 4.15817L9.07829 4.71383C9.21742 4.36136 9.2999 3.99233 9.32721 3.60991L7.8177 3.50209ZM7.67063 4.15817C7.58291 4.3804 7.47953 4.5642 7.36462 4.71567L8.5703 5.63033C8.77805 5.35647 8.94601 5.04893 9.07829 4.71383L7.67063 4.15817ZM7.36462 4.71567C7.27712 4.83102 7.15874 4.93257 6.99439 5.01709L7.68652 6.36291C8.03551 6.18343 8.33513 5.94032 8.5703 5.63033L7.36462 4.71567ZM7.00206 5.01321C6.86591 5.08128 6.70808 5.12032 6.51546 5.12032V6.63368C6.92417 6.63368 7.31633 6.54805 7.67885 6.36679L7.00206 5.01321ZM5.75878 5.877V7.274H7.27214V5.877H5.75878ZM5.76428 7.36505C5.80284 7.68324 5.9017 8.03306 6.14354 8.31308C6.41054 8.62225 6.77333 8.75668 7.14246 8.75668V7.24332C7.13803 7.24332 7.16084 7.24279 7.19759 7.25843C7.2366 7.27504 7.26839 7.3002 7.28888 7.32392C7.307 7.3449 7.30605 7.35278 7.29761 7.32987C7.28892 7.30631 7.27597 7.25998 7.26664 7.18295L5.76428 7.36505ZM7.14246 7.24332H5.03046V8.75668H7.14246V7.24332ZM5.03046 7.24332H4.34846V8.75668H5.03046V7.24332ZM4.34846 8.75668C4.81969 8.75668 5.24209 8.54152 5.49621 8.11512C5.71203 7.75298 5.76236 7.31066 5.75398 6.89572L4.24093 6.92628C4.24386 7.07134 4.23461 7.17677 4.22112 7.24965C4.20743 7.32354 4.19264 7.34635 4.1962 7.34037C4.20302 7.32894 4.2284 7.29495 4.27754 7.26807C4.32464 7.24231 4.35659 7.24332 4.34846 7.24332V8.75668ZM5.75414 6.911V1.389H4.24078V6.911H5.75414ZM5.75398 1.40428C5.76236 0.989338 5.71203 0.547021 5.49621 0.184875C5.24209 -0.241524 4.81969 -0.456679 4.34846 -0.456679V1.05668C4.35659 1.05668 4.32464 1.05769 4.27754 1.03193C4.2284 1.00505 4.20302 0.971061 4.1962 0.959625C4.19264 0.953648 4.20743 0.976463 4.22112 1.05035C4.23461 1.12323 4.24386 1.22866 4.24093 1.37372L5.75398 1.40428ZM6.59246 6.39168C7.0316 6.39168 7.29632 6.10169 7.41785 5.91352C7.54104 5.72277 7.61588 5.49718 7.66754 5.29052L6.19937 4.92348C6.18276 4.98991 6.16767 5.03687 6.15577 5.06801C6.14331 5.10064 6.13849 5.10498 6.14657 5.09248C6.15358 5.08162 6.18731 5.03143 6.26003 4.98084C6.34119 4.92438 6.45653 4.87832 6.59246 4.87832V6.39168ZM7.66483 5.30104C7.77934 4.86943 7.83903 4.37571 7.85482 3.83092L6.3421 3.78708C6.32855 4.25429 6.27824 4.62591 6.20208 4.91296L7.66483 5.30104ZM7.85442 3.84187C7.87753 3.3103 7.87368 2.77872 7.84287 2.24721L6.33205 2.33479C6.3599 2.81528 6.36338 3.2957 6.34249 3.77613L7.85442 3.84187ZM7.84342 2.25813C7.81971 1.71269 7.75159 1.21975 7.62687 0.79213L6.17405 1.21587C6.25466 1.49225 6.31121 1.85731 6.33149 2.32387L7.84342 2.25813ZM7.62687 0.792129C7.5654 0.581393 7.47779 0.353058 7.33861 0.162186C7.19495 -0.0348383 6.92419 -0.280679 6.51546 -0.280679V1.23268C6.40109 1.23268 6.30064 1.19775 6.22586 1.15113C6.1577 1.10864 6.12407 1.06515 6.11581 1.05381C6.10707 1.04183 6.11195 1.04553 6.12541 1.07629C6.13833 1.10584 6.15515 1.15108 6.17405 1.21587L7.62687 0.792129ZM5.75878 0.476V5.635H7.27214V0.476H5.75878ZM6.51546 6.39168H6.59246V4.87832H6.51546V6.39168ZM11.2076 5.36L11.0809 4.614L9.53856 4.8759L10.7014 5.92243L11.2076 5.36ZM11.4386 5.635L10.815 6.06368L10.8306 6.08628L10.8477 6.10769L11.4386 5.635ZM11.6586 5.954L11.0016 6.32942L11.0178 6.35782L11.0364 6.38471L11.6586 5.954ZM11.8896 6.24L11.3335 6.75324L11.3541 6.77548L11.3763 6.79601L11.8896 6.24ZM12.1646 6.449L11.7833 7.1026L11.8146 7.12085L11.8475 7.13603L12.1646 6.449ZM12.4946 6.504L12.539 7.25937L12.5586 7.25822L12.5781 7.25605L12.4946 6.504ZM12.9126 6.361L13.6691 6.34577L13.6439 5.09518L12.5479 5.69799L12.9126 6.361ZM12.9456 8V8.75668H13.7176L13.7021 7.98477L12.9456 8ZM12.1976 7.835L11.832 8.49753L11.8409 8.50243L11.8499 8.5071L12.1976 7.835ZM11.7026 7.395L11.0651 7.80296L11.073 7.81473L11.7026 7.395ZM11.3946 6.801L10.692 7.08204L10.6954 7.09032L11.3946 6.801ZM11.1856 6.185L10.4483 6.35515L10.4513 6.36849L10.4549 6.38172L11.1856 6.185ZM10.8446 5.415L11.1519 4.72354L10.0879 4.25065V5.415H10.8446ZM10.8446 7.274H10.0879V7.31969L10.0934 7.36505L10.8446 7.274ZM9.32656 6.911H8.56988V6.91864L8.57003 6.92628L9.32656 6.911ZM9.32656 1.389L8.57003 1.37372L8.56988 1.38136V1.389H9.32656ZM11.9336 0.651999L11.4885 1.26402L11.4977 1.27057L11.9336 0.651999ZM12.6486 1.521L11.9552 1.82434L11.9607 1.83627L12.6486 1.521ZM12.9236 2.676L13.6792 2.63623V2.63623L12.9236 2.676ZM12.7806 3.864L12.0585 3.63748L12.0558 3.64657L12.7806 3.864ZM12.1976 4.843L11.6556 4.31494L11.6554 4.31513L12.1976 4.843ZM11.2626 4.667L10.5368 4.45257L10.5337 4.46361L11.2626 4.667ZM11.4276 3.501L10.6716 3.465L10.6713 3.4766L11.4276 3.501ZM11.4166 2.126L10.6606 2.162L10.6614 2.17472L11.4166 2.126ZM11.2296 0.96L10.5085 1.18943L10.5101 1.19426L11.2296 0.96ZM10.8446 0.476V-0.280679H10.0879V0.476H10.8446ZM10.8446 5.14H10.0879V5.89668H10.8446V5.14ZM10.7014 5.92243C10.7157 5.93535 10.7546 5.97578 10.815 6.06368L12.0621 5.20632C11.9612 5.05955 11.8461 4.91665 11.7138 4.79757L10.7014 5.92243ZM10.8477 6.10769C10.9157 6.19265 10.9657 6.26656 11.0016 6.32942L12.3155 5.57858C12.2341 5.43611 12.1375 5.29735 12.0294 5.16231L10.8477 6.10769ZM11.0364 6.38471C11.1247 6.51224 11.2244 6.63498 11.3335 6.75324L12.4456 5.72676C12.3787 5.65436 12.3244 5.58643 12.2807 5.52329L11.0364 6.38471ZM11.3763 6.79601C11.5016 6.91165 11.6371 7.01731 11.7833 7.1026L12.5458 5.7954C12.516 5.77802 12.4682 5.74435 12.4028 5.68399L11.3763 6.79601ZM11.8475 7.13603C12.0754 7.24125 12.3135 7.27264 12.539 7.25937L12.4501 5.74863C12.4376 5.74936 12.436 5.74821 12.443 5.74937C12.4504 5.75061 12.4643 5.75397 12.4817 5.76197L11.8475 7.13603ZM12.5781 7.25605C12.8308 7.22798 13.0654 7.14051 13.2772 7.02401L12.5479 5.69799C12.4664 5.74282 12.4223 5.75069 12.411 5.75195L12.5781 7.25605ZM12.156 6.37623L12.189 8.01523L13.7021 7.98477L13.6691 6.34577L12.156 6.37623ZM12.9456 7.24332C12.7572 7.24332 12.6314 7.2075 12.5452 7.1629L11.8499 8.5071C12.189 8.6825 12.562 8.75668 12.9456 8.75668V7.24332ZM12.5631 7.17247C12.4408 7.105 12.3728 7.03629 12.3322 6.97527L11.073 7.81473C11.2669 8.10571 11.529 8.33034 11.832 8.49753L12.5631 7.17247ZM12.3399 6.98711C12.248 6.84348 12.1656 6.68542 12.0937 6.51168L10.6954 7.09032C10.7995 7.34191 10.9225 7.57985 11.0652 7.80289L12.3399 6.98711ZM12.0971 6.51998C12.018 6.32226 11.9585 6.14534 11.9162 5.98828L10.4549 6.38172C10.5153 6.60599 10.5951 6.83974 10.692 7.08202L12.0971 6.51998ZM11.9229 6.01485C11.8721 5.79492 11.8101 5.58796 11.7341 5.39798L10.329 5.96002C10.3703 6.06337 10.411 6.19375 10.4483 6.35515L11.9229 6.01485ZM11.7341 5.39798C11.6919 5.29241 11.6357 5.17498 11.5583 5.06563C11.4845 4.96149 11.356 4.81425 11.1519 4.72354L10.5372 6.10646C10.3991 6.04508 10.3348 5.95651 10.3233 5.94037C10.3082 5.91902 10.3126 5.91892 10.329 5.96002L11.7341 5.39798ZM10.0879 5.415V7.274H11.6012V5.415H10.0879ZM10.0934 7.36505C10.1319 7.68324 10.2308 8.03306 10.4726 8.31308C10.7396 8.62225 11.1024 8.75668 11.4716 8.75668V7.24332C11.4671 7.24332 11.4899 7.24279 11.5267 7.25843C11.5657 7.27504 11.5975 7.3002 11.618 7.32392C11.6361 7.3449 11.6352 7.35278 11.6267 7.32987C11.618 7.30631 11.6051 7.25998 11.5957 7.18295L10.0934 7.36505ZM11.4716 7.24332H8.67756V8.75668H11.4716V7.24332ZM8.67756 8.75668C9.14879 8.75668 9.57119 8.54152 9.82531 8.11512C10.0411 7.75298 10.0915 7.31066 10.0831 6.89572L8.57003 6.92628C8.57296 7.07134 8.56371 7.17677 8.55022 7.24965C8.53654 7.32354 8.52174 7.34635 8.52531 7.34037C8.53212 7.32894 8.5575 7.29495 8.60664 7.26807C8.65374 7.24231 8.6857 7.24332 8.67756 7.24332V8.75668ZM10.0832 6.911V1.389H8.56988V6.911H10.0832ZM10.0831 1.40428C10.0915 0.989338 10.0411 0.547021 9.82531 0.184875C9.57119 -0.241524 9.14879 -0.456679 8.67756 -0.456679V1.05668C8.6857 1.05668 8.65374 1.05769 8.60664 1.03193C8.5575 1.00505 8.53212 0.971061 8.52531 0.959625C8.52174 0.953648 8.53654 0.976463 8.55022 1.05035C8.56371 1.12323 8.57296 1.22866 8.57003 1.37372L10.0831 1.40428ZM8.67756 1.05668H10.8006V-0.456679H8.67756V1.05668ZM10.8006 1.05668C11.0876 1.05668 11.3062 1.1314 11.4885 1.26395L12.3786 0.0400461C11.9155 -0.296733 11.3789 -0.456679 10.8006 -0.456679V1.05668ZM11.4977 1.27057C11.7107 1.42058 11.8583 1.60251 11.9553 1.82429L13.3418 1.21771C13.1308 0.73549 12.8018 0.338086 12.3694 0.0334281L11.4977 1.27057ZM11.9607 1.83627C12.0791 2.09473 12.1505 2.38529 12.1679 2.71577L13.6792 2.63623C13.6526 2.13071 13.5406 1.65127 13.3364 1.20573L11.9607 1.83627ZM12.1679 2.71577C12.1855 3.04987 12.1471 3.35523 12.0586 3.6375L13.5025 4.0905C13.6487 3.62477 13.7056 3.13813 13.6792 2.63623L12.1679 2.71577ZM12.0558 3.64657C11.9823 3.89139 11.853 4.11236 11.6556 4.31494L12.7395 5.37106C13.0995 5.00164 13.3588 4.56995 13.5053 4.08143L12.0558 3.64657ZM11.6554 4.31513C11.4976 4.47723 11.3138 4.57446 11.0809 4.614L11.3342 6.106C11.8787 6.01354 12.3549 5.7661 12.7397 5.37087L11.6554 4.31513ZM10.9216 5.89668C11.3219 5.89668 11.5864 5.65667 11.7251 5.46426C11.8578 5.28022 11.9375 5.06345 11.9914 4.87039L10.5337 4.46361C10.5183 4.51877 10.505 4.55531 10.4957 4.57717C10.4858 4.60026 10.4847 4.59706 10.4975 4.57924C10.51 4.56194 10.548 4.51378 10.621 4.46825C10.7008 4.41857 10.805 4.38332 10.9216 4.38332V5.89668ZM11.9882 4.8814C12.1069 4.47965 12.1678 4.02348 12.1838 3.5254L10.6713 3.4766C10.658 3.88786 10.6089 4.20902 10.5369 4.4526L11.9882 4.8814ZM12.1834 3.53699C12.2067 3.04719 12.2028 2.56057 12.1717 2.07728L10.6614 2.17472C10.6889 2.60076 10.6924 3.03081 10.6717 3.46501L12.1834 3.53699ZM12.1724 2.09001C12.1483 1.58497 12.079 1.12492 11.9491 0.725743L10.5101 1.19426C10.5854 1.42575 10.6408 1.74303 10.6607 2.16199L12.1724 2.09001ZM11.9506 0.730571C11.887 0.530527 11.795 0.310168 11.6485 0.125949C11.4929 -0.069695 11.2246 -0.280679 10.8446 -0.280679V1.23268C10.744 1.23268 10.6523 1.20462 10.5798 1.16323C10.5127 1.12486 10.4765 1.08357 10.4641 1.06805C10.4518 1.05255 10.4537 1.0508 10.4649 1.07417C10.4755 1.09656 10.4907 1.13362 10.5085 1.18943L11.9506 0.730571ZM10.0879 0.476V5.14H11.6012V0.476H10.0879ZM10.8446 5.89668H10.9216V4.38332H10.8446V5.89668ZM18.9625 0.542L18.6524 1.23222L18.9625 0.542ZM20.1835 1.433L19.604 1.91972L19.6098 1.92638L20.1835 1.433ZM20.9095 2.698L20.196 2.95046L20.201 2.96369L20.9095 2.698ZM20.9205 5.591L21.6326 5.84691L21.6338 5.84341L20.9205 5.591ZM20.1945 6.856L19.616 6.36825L19.6151 6.36931L20.1945 6.856ZM18.9625 7.747L19.2642 8.44094L19.2689 8.43887L18.9625 7.747ZM15.5525 7.747L15.2423 8.43732L15.2544 8.4425L15.5525 7.747ZM14.3205 6.856L13.7364 7.33703L13.7415 7.34326L13.7468 7.34938L14.3205 6.856ZM13.6055 5.591L12.8921 5.84341L12.8934 5.84691L13.6055 5.591ZM13.6055 2.698L14.3176 2.95391L14.3188 2.95041L13.6055 2.698ZM14.3205 1.433L13.7467 0.939582L13.7411 0.94631L14.3205 1.433ZM15.5525 0.542L15.2461 -0.149879L15.2424 -0.148219L15.5525 0.542ZM19.4795 7.12L19.9253 7.7314L19.9334 7.72546L19.9414 7.7193L19.4795 7.12ZM20.1725 6.064L19.4421 5.86593L19.4391 5.87756L20.1725 6.064ZM20.1725 4.733L19.4391 4.91926L19.4398 4.92208L20.1725 4.733ZM19.6115 3.325L18.9387 3.67158L18.9452 3.68374L19.6115 3.325ZM18.6655 2.06L18.1357 2.60032L18.1411 2.60557L18.1465 2.6107L18.6655 2.06ZM17.4885 1.136L17.0906 1.77965L17.0958 1.7828L17.4885 1.136ZM16.2345 0.773L16.2473 1.52957H16.2473L16.2345 0.773ZM15.0465 1.169L14.6067 0.553264L14.5945 0.561926L14.5828 0.571057L15.0465 1.169ZM14.3315 2.247L13.6003 2.05202L13.5981 2.06056L14.3315 2.247ZM14.3425 3.589L13.6091 3.77526L13.6098 3.77808L14.3425 3.589ZM14.8925 4.986L14.2219 5.33674L14.2262 5.34474L14.8925 4.986ZM15.8495 6.251L15.325 6.79647L15.3305 6.8017L15.8495 6.251ZM17.0375 7.164L16.6447 7.81085L16.6533 7.81591L17.0375 7.164ZM18.3025 7.516L18.2896 6.75943L18.3025 7.516ZM17.2575 0.957678C17.7959 0.957678 18.2564 1.05431 18.6524 1.23222L19.2726 -0.148219C18.6566 -0.424981 17.9804 -0.555679 17.2575 -0.555679V0.957678ZM18.6524 1.23222C19.0709 1.42024 19.3801 1.6531 19.6041 1.91969L20.7629 0.94631C20.3708 0.47957 19.8661 0.118431 19.2726 -0.148219L18.6524 1.23222ZM19.6098 1.92638C19.8613 2.21885 20.0573 2.55794 20.1961 2.95041L21.6228 2.44559C21.4244 1.88473 21.1363 1.38048 20.7572 0.939615L19.6098 1.92638ZM20.201 2.96369C20.3458 3.34981 20.4168 3.74025 20.4168 4.139H21.9302C21.9302 3.55508 21.8252 2.98486 21.618 2.43231L20.201 2.96369ZM20.4168 4.139C20.4168 4.54184 20.348 4.94059 20.2071 5.33859L21.6338 5.84341C21.8303 5.28807 21.9302 4.71882 21.9302 4.139H20.4168ZM20.2084 5.33509C20.0695 5.7215 19.8722 6.06433 19.616 6.36825L20.773 7.34375C21.1474 6.89967 21.4341 6.39917 21.6326 5.84691L20.2084 5.33509ZM19.6151 6.36931C19.393 6.63368 19.0821 6.86648 18.6561 7.05513L19.2689 8.43887C19.8696 8.17285 20.3799 7.81166 20.7739 7.34269L19.6151 6.36931ZM18.6608 7.05307C18.2626 7.22617 17.7991 7.32032 17.2575 7.32032V8.83368C17.9772 8.83368 18.6503 8.70783 19.2642 8.44093L18.6608 7.05307ZM17.2575 7.32032C16.7247 7.32032 16.2593 7.22669 15.8505 7.0515L15.2544 8.4425C15.8723 8.70731 16.5436 8.83368 17.2575 8.83368V7.32032ZM15.8626 7.05678C15.4429 6.86825 15.1272 6.63359 14.8942 6.36262L13.7468 7.34938C14.1444 7.81174 14.65 8.17108 15.2424 8.43722L15.8626 7.05678ZM14.9046 6.37497C14.6535 6.07007 14.4577 5.72503 14.3176 5.33509L12.8934 5.84691C13.0906 6.39564 13.3715 6.89393 13.7364 7.33703L14.9046 6.37497ZM14.3188 5.33859C14.178 4.94059 14.1092 4.54184 14.1092 4.139H12.5958C12.5958 4.71882 12.6956 5.28807 12.8921 5.84341L14.3188 5.33859ZM14.1092 4.139C14.1092 3.73623 14.1779 3.3424 14.3176 2.95391L12.8934 2.44209C12.6957 2.99226 12.5958 3.5591 12.5958 4.139H14.1092ZM14.3188 2.95041C14.4589 2.55441 14.6534 2.2131 14.8999 1.91969L13.7411 0.94631C13.3715 1.38623 13.0893 1.88826 12.8921 2.44559L14.3188 2.95041ZM14.8942 1.92638C15.1272 1.65541 15.4429 1.42075 15.8626 1.23222L15.2424 -0.148219C14.65 0.117918 14.1444 0.477256 13.7468 0.939616L14.8942 1.92638ZM15.8589 1.23387C16.2656 1.05376 16.728 0.957678 17.2575 0.957678V-0.555679C16.5403 -0.555679 15.8661 -0.424431 15.2461 -0.149869L15.8589 1.23387ZM19.9414 7.7193C20.4282 7.34409 20.7543 6.84642 20.9058 6.25044L19.4391 5.87756C19.3706 6.14692 19.2348 6.35325 19.0175 6.5207L19.9414 7.7193ZM20.9028 6.26205C21.0561 5.69662 21.0537 5.11939 20.9051 4.54392L19.4398 4.92208C19.526 5.25595 19.5235 5.56604 19.4422 5.86595L20.9028 6.26205ZM20.9059 4.54674C20.7714 4.01724 20.5598 3.49022 20.2777 2.96626L18.9452 3.68374C19.1764 4.11311 19.3389 4.52476 19.4391 4.91926L20.9059 4.54674ZM20.2841 2.97847C19.9971 2.42121 19.6306 1.92976 19.1844 1.5093L18.1465 2.6107C18.463 2.9089 18.7272 3.26079 18.9388 3.67153L20.2841 2.97847ZM19.1952 1.51968C18.7834 1.116 18.3457 0.771221 17.8812 0.4892L17.0958 1.7828C17.4526 1.99944 17.7995 2.27067 18.1357 2.60032L19.1952 1.51968ZM17.8864 0.492373C17.372 0.174422 16.813 0.0064069 16.2216 0.0164299L16.2473 1.52957C16.5213 1.52493 16.7983 1.59891 17.0906 1.77963L17.8864 0.492373ZM16.2217 0.0164299C15.6324 0.0264177 15.088 0.209421 14.6067 0.553264L15.4863 1.78473C15.7236 1.61525 15.9713 1.53425 16.2473 1.52957L16.2217 0.0164299ZM14.5828 0.571057C14.0924 0.951335 13.7603 1.45232 13.6003 2.05203L15.0626 2.44197C15.1373 2.16168 15.2819 1.944 15.5102 1.76694L14.5828 0.571057ZM13.5981 2.06056C13.4549 2.62377 13.4629 3.1995 13.6091 3.77526L15.0759 3.40274C14.9874 3.0545 14.988 2.73556 15.0648 2.43344L13.5981 2.06056ZM13.6098 3.77808C13.7435 4.29625 13.9496 4.816 14.222 5.33672L15.563 4.63528C15.3367 4.20266 15.1761 3.79108 15.0751 3.39992L13.6098 3.77808ZM14.2262 5.34474C14.5193 5.88899 14.8857 6.37401 15.325 6.79644L16.3739 5.70556C16.0506 5.39466 15.779 5.03634 15.5587 4.62726L14.2262 5.34474ZM15.3305 6.8017C15.747 7.19416 16.1849 7.53159 16.6448 7.8108L17.4302 6.5172C17.0687 6.29774 16.7146 6.02651 16.3684 5.7003L15.3305 6.8017ZM16.6533 7.81591C17.1715 8.12129 17.7293 8.2825 18.3153 8.27257L18.2896 6.75943C18.0104 6.76416 17.7247 6.69071 17.4216 6.51209L16.6533 7.81591ZM18.3153 8.27257C18.9049 8.26258 19.4483 8.07923 19.9253 7.7314L19.0337 6.5086C18.8067 6.6741 18.5654 6.75476 18.2896 6.75943L18.3153 8.27257ZM24.3477 0.563999L24.7231 -0.0929814V-0.0929818L24.3477 0.563999ZM25.1067 1.279L24.4747 1.69519L24.4795 1.70234L25.1067 1.279ZM25.6017 2.291L24.8865 2.53855L24.8909 2.55069L25.6017 2.291ZM25.8547 3.501L25.0998 3.55306V3.55306L25.8547 3.501ZM25.8547 4.777L25.0998 4.72494L25.8547 4.777ZM25.6017 5.998L26.3124 6.25769L26.314 6.25335L25.6017 5.998ZM25.0957 7.021L25.7229 7.44437L25.7276 7.43717L25.0957 7.021ZM24.3367 7.725L24.7002 8.38879L24.7121 8.38198L24.3367 7.725ZM23.3247 7.978V7.22128L23.3165 7.22137L23.3247 7.978ZM21.2897 8L21.2212 7.24643L21.2978 8.75663L21.2897 8ZM21.8727 6.911H21.116V6.91905L21.1162 6.9271L21.8727 6.911ZM21.8727 1.367L21.1162 1.34981L21.116 1.3584V1.367H21.8727ZM21.7517 0.607999L21.0591 0.912743L21.0641 0.924177L21.0695 0.935437L21.7517 0.607999ZM21.2897 0.299999V-0.456679L21.2168 1.05316L21.2897 0.299999ZM23.5667 7.78L23.6064 8.53563L23.6534 8.53316L23.6997 8.5249L23.5667 7.78ZM24.0837 6.955L24.8139 7.15321L24.0837 6.955ZM24.3367 5.129L25.0927 5.1605L25.0927 5.16018L24.3367 5.129ZM24.3257 3.006L23.5696 3.0375L23.57 3.04536L24.3257 3.006ZM24.0617 1.224L24.7858 1.00456V1.00456L24.0617 1.224ZM23.3687 0.498V-0.258679H22.6131L22.612 0.496858L23.3687 0.498ZM23.3577 7.791L22.601 7.78986L22.5998 8.58861L23.3974 8.54663L23.3577 7.791ZM23.3357 1.05668C23.5753 1.05668 23.7825 1.11257 23.9722 1.22098L24.7231 -0.0929818C24.2968 -0.33657 23.8294 -0.456679 23.3357 -0.456679V1.05668ZM23.9722 1.22098C24.1754 1.33708 24.3411 1.49228 24.4747 1.69517L25.7386 0.862834C25.4762 0.464384 25.1359 0.142921 24.7231 -0.0929814L23.9722 1.22098ZM24.4795 1.70234C24.636 1.93414 24.7732 2.21084 24.8866 2.53852L26.3167 2.04348C26.1661 1.60849 25.9734 1.21053 25.7338 0.855658L24.4795 1.70234ZM24.8909 2.55069C25.0047 2.86196 25.0751 3.1951 25.0998 3.55306L26.6095 3.44894C26.5756 2.95623 26.4773 2.48271 26.3124 2.03131L24.8909 2.55069ZM25.0998 3.55306C25.1267 3.94373 25.1267 4.33427 25.0998 4.72494L26.6095 4.82906C26.6413 4.36906 26.6413 3.90894 26.6095 3.44894L25.0998 3.55306ZM25.0998 4.72494C25.0751 5.08315 25.0045 5.42158 24.8894 5.74265L26.314 6.25335C26.4775 5.79709 26.5756 5.32152 26.6095 4.82906L25.0998 4.72494ZM24.8909 5.73831C24.7692 6.07149 24.6257 6.35886 24.4637 6.60483L25.7276 7.43717C25.9616 7.08181 26.1555 6.68718 26.3124 6.25769L24.8909 5.73831ZM24.4685 6.59766C24.3355 6.79461 24.1688 6.94943 23.9612 7.06802L24.7121 8.38198C25.1205 8.14857 25.4598 7.83406 25.7228 7.44434L24.4685 6.59766ZM23.9732 7.06132C23.7816 7.16623 23.5701 7.22132 23.3247 7.22132V8.73468C23.8125 8.73468 24.2757 8.6211 24.7001 8.38868L23.9732 7.06132ZM23.3165 7.22137L21.2815 7.24337L21.2978 8.75663L23.3328 8.73463L23.3165 7.22137ZM21.3582 8.75357C21.8184 8.71173 22.1901 8.45879 22.405 8.05738C22.5919 7.7082 22.6376 7.29213 22.6292 6.8949L21.1162 6.9271C21.1191 7.06448 21.111 7.16666 21.0986 7.23947C21.0925 7.27521 21.0858 7.30099 21.0802 7.31848C21.0746 7.33594 21.0708 7.34323 21.0708 7.34312C21.0722 7.34044 21.0897 7.31084 21.1324 7.28231C21.1755 7.25347 21.2122 7.24724 21.2212 7.24643L21.3582 8.75357ZM22.6293 6.911V1.367H21.116V6.911H22.6293ZM22.6291 1.38419C22.6378 1.00508 22.595 0.61633 22.4338 0.280561L21.0695 0.935437C21.0843 0.966336 21.1222 1.08358 21.1162 1.34981L22.6291 1.38419ZM22.4443 0.303255C22.2359 -0.170364 21.8162 -0.409255 21.3625 -0.453161L21.2168 1.05316C21.235 1.05493 21.2041 1.05524 21.1559 1.02309C21.103 0.987792 21.0719 0.941858 21.0591 0.912743L22.4443 0.303255ZM21.2897 1.05668H23.3357V-0.456679H21.2897V1.05668ZM23.6997 8.5249C24.1055 8.45243 24.3539 8.16705 24.4911 7.94806C24.6339 7.72016 24.7355 7.44212 24.8139 7.15321L23.3534 6.75679C23.3242 6.86448 23.2957 6.95031 23.2693 7.01711C23.2425 7.08488 23.2211 7.12467 23.2087 7.14444C23.1956 7.16543 23.2009 7.15061 23.2329 7.1242C23.2685 7.09479 23.3362 7.05251 23.4336 7.0351L23.6997 8.5249ZM24.8139 7.15321C24.9719 6.57117 25.0617 5.90386 25.0927 5.1605L23.5806 5.0975C23.5529 5.76214 23.4741 6.31217 23.3534 6.75679L24.8139 7.15321ZM25.0927 5.16018C25.123 4.42557 25.1192 3.69437 25.0813 2.96664L23.57 3.04536C23.6054 3.72563 23.609 4.40976 23.5806 5.09782L25.0927 5.16018ZM25.0817 2.9745C25.0506 2.2297 24.9566 1.56824 24.7858 1.00456L23.3375 1.44344C23.46 1.84775 23.542 2.3743 23.5696 3.0375L25.0817 2.9745ZM24.7858 1.00456C24.7019 0.72778 24.5897 0.450953 24.4245 0.228443C24.2551 0.000374913 23.9577 -0.258679 23.5227 -0.258679V1.25468C23.4238 1.25468 23.3387 1.22439 23.2787 1.18739C23.2252 1.15436 23.205 1.12461 23.2094 1.13056C23.2133 1.13586 23.2302 1.16081 23.2553 1.2166C23.2799 1.27121 23.3078 1.34555 23.3375 1.44344L24.7858 1.00456ZM23.5227 -0.258679H23.3687V1.25468H23.5227V-0.258679ZM22.612 0.496858L22.601 7.78986L24.1143 7.79214L24.1253 0.499141L22.612 0.496858ZM23.3974 8.54663L23.6064 8.53563L23.5269 7.02437L23.3179 7.03537L23.3974 8.54663ZM29.9724 1.367L30.729 1.37625L30.7291 1.36382L30.7289 1.3514L29.9724 1.367ZM29.9174 5.866L29.1607 5.85675V5.866H29.9174ZM29.7854 6.922L29.059 6.70942L29.0558 6.72136L29.7854 6.922ZM29.4444 7.615L30.0043 8.124L30.0099 8.11782L30.0153 8.11152L29.4444 7.615ZM28.9714 7.967L28.6696 7.27298L28.6582 7.27814L28.9714 7.967ZM27.1454 7.494L26.5577 7.97074L27.1454 7.494ZM26.6724 5.877H27.4291L27.429 5.86964L26.6724 5.877ZM26.6284 1.356L25.8719 1.33955L25.8716 1.35146L25.8717 1.36336L26.6284 1.356ZM26.4964 0.575L25.8142 0.902438L25.8194 0.913354L25.825 0.924096L26.4964 0.575ZM28.2564 0.575L27.585 0.225905L27.5794 0.236646L27.5742 0.247561L28.2564 0.575ZM28.1354 1.356L28.892 1.35968L28.8921 1.34962L28.8919 1.33955L28.1354 1.356ZM28.1134 5.877L27.3567 5.87332V5.877H28.1134ZM29.5214 7.076L28.8677 6.69472L28.8644 6.70058L29.5214 7.076ZM29.7414 5.888L28.9847 5.89168L28.9848 5.89851L29.7414 5.888ZM29.7194 1.367L28.9629 1.35055L28.9626 1.36062L28.9627 1.37068L29.7194 1.367ZM29.5874 0.586L28.9003 0.903092L28.9078 0.919279L28.916 0.935096L29.5874 0.586ZM29.0704 1.05668H30.6214V-0.456679H29.0704V1.05668ZM30.6214 -0.456679C30.1573 -0.456679 29.7345 -0.249618 29.4771 0.173528C29.258 0.533745 29.2074 0.973307 29.2158 1.3826L30.7289 1.3514C30.726 1.21079 30.7352 1.10964 30.7482 1.04071C30.7614 0.970943 30.7752 0.951537 30.7701 0.959971C30.7616 0.973921 30.735 1.00769 30.6866 1.03363C30.6407 1.05823 30.6108 1.05668 30.6214 1.05668V-0.456679ZM29.2157 1.35775L29.1607 5.85675L30.674 5.87525L30.729 1.37625L29.2157 1.35775ZM29.1607 5.866C29.1607 6.2169 29.1221 6.49433 29.0591 6.70945L30.5116 7.13455C30.6246 6.74833 30.674 6.32176 30.674 5.866H29.1607ZM29.0558 6.72136C28.9949 6.94278 28.9239 7.0604 28.8734 7.11848L30.0153 8.11152C30.2582 7.83227 30.4145 7.48789 30.5149 7.12264L29.0558 6.72136ZM28.8845 7.106C28.7966 7.20262 28.7236 7.2496 28.6696 7.27307L29.2731 8.66093C29.5564 8.53773 29.7988 8.35005 30.0043 8.124L28.8845 7.106ZM28.6582 7.27814C28.5987 7.30522 28.5335 7.32032 28.4544 7.32032V8.83368C28.7419 8.83368 29.0214 8.77544 29.2845 8.65586L28.6582 7.27814ZM28.4544 7.32032C28.0957 7.32032 27.8871 7.20723 27.733 7.01726L26.5577 7.97074C27.0343 8.55811 27.6983 8.83368 28.4544 8.83368V7.32032ZM27.733 7.01726C27.5619 6.80642 27.429 6.45766 27.429 5.877H25.9157C25.9157 6.67501 26.0981 7.40425 26.5577 7.97074L27.733 7.01726ZM27.429 5.86964L27.385 1.34864L25.8717 1.36336L25.9157 5.88436L27.429 5.86964ZM27.3849 1.37245C27.3934 0.979677 27.3476 0.571937 27.1677 0.225904L25.825 0.924096C25.8357 0.944729 25.878 1.05766 25.8719 1.33955L27.3849 1.37245ZM27.1785 0.247562C27.0678 0.016916 26.8913 -0.174365 26.6565 -0.299301C26.4319 -0.418761 26.194 -0.456679 25.9794 -0.456679V1.05668C26.0214 1.05668 25.998 1.06459 25.9458 1.0368C25.9188 1.02247 25.8905 1.00181 25.865 0.974885C25.8398 0.948205 25.8236 0.922112 25.8142 0.902438L27.1785 0.247562ZM25.9794 1.05668H28.7844V-0.456679H25.9794V1.05668ZM28.7844 -0.456679C28.3268 -0.456679 27.8443 -0.272687 27.585 0.225905L28.9277 0.924095C28.9191 0.940658 28.9044 0.96307 28.8816 0.986136C28.8586 1.00941 28.8334 1.02736 28.8094 1.03986C28.7625 1.0643 28.7431 1.05668 28.7844 1.05668V-0.456679ZM27.5742 0.247561C27.4115 0.586555 27.3704 0.985176 27.3789 1.37245L28.8919 1.33955C28.8856 1.05216 28.9252 0.930111 28.9385 0.902439L27.5742 0.247561ZM27.3787 1.35232L27.3567 5.87332L28.87 5.88068L28.892 1.35968L27.3787 1.35232ZM27.3567 5.877C27.3567 6.44941 27.4309 6.99825 27.6672 7.42895C27.7916 7.6557 27.9679 7.86203 28.2093 8.00867C28.4521 8.15623 28.7187 8.21768 28.9824 8.21768V6.70432C28.9564 6.70432 28.9695 6.69977 28.9951 6.71533C29.0192 6.72997 29.0144 6.7383 28.994 6.70105C28.9406 6.60375 28.87 6.36059 28.87 5.877H27.3567ZM28.9824 8.21768C29.5676 8.21768 29.956 7.84058 30.1783 7.45142L28.8644 6.70058C28.8278 6.76459 28.813 6.76601 28.8368 6.74902C28.8501 6.73954 28.8715 6.72722 28.9004 6.71776C28.9296 6.7082 28.9581 6.70432 28.9824 6.70432V8.21768ZM30.175 7.45727C30.4321 7.01652 30.506 6.45532 30.498 5.87749L28.9848 5.89851C28.9914 6.37668 28.9186 6.60748 28.8678 6.69473L30.175 7.45727ZM30.498 5.88432L30.476 1.36332L28.9627 1.37068L28.9847 5.89168L30.498 5.88432ZM30.4759 1.38345C30.4844 0.990677 30.4386 0.582936 30.2587 0.236903L28.916 0.935096C28.9267 0.955729 28.969 1.06866 28.9629 1.35055L30.4759 1.38345ZM30.2744 0.268908C30.1677 0.0376523 29.9951 -0.159693 29.7584 -0.29062C29.5312 -0.416316 29.2891 -0.456679 29.0704 -0.456679V1.05668C29.1083 1.05668 29.0807 1.06398 29.0258 1.03362C28.9979 1.01818 28.9701 0.996755 28.946 0.970228C28.9222 0.944083 28.908 0.919637 28.9003 0.903092L30.2744 0.268908ZM36.5107 7.285L36.9186 7.92235L36.9236 7.9191L36.5107 7.285ZM37.2697 6.658L36.7158 6.14239L36.711 6.14759L36.7063 6.15288L37.2697 6.658ZM37.8637 5.756L38.189 5.07282L37.5238 4.75609L37.1894 5.41252L37.8637 5.756ZM38.0947 5.866L38.7901 6.16407L39.0767 5.49553L38.42 5.18282L38.0947 5.866ZM36.7527 7.472L36.3347 6.84123L36.3312 6.84359L36.7527 7.472ZM32.8477 7.747L32.5375 8.43727L32.5459 8.44093L32.8477 7.747ZM31.6157 6.856L31.0315 7.33703L31.0367 7.34326L31.042 7.34938L31.6157 6.856ZM30.9007 5.591L30.1873 5.84341L30.1886 5.84691L30.9007 5.591ZM30.9007 2.698L31.6128 2.95391L31.614 2.95041L30.9007 2.698ZM31.6157 1.433L31.0419 0.939582L31.0363 0.94631L31.6157 1.433ZM36.7527 0.806L36.3312 1.43442L36.3347 1.43676L36.7527 0.806ZM38.0947 2.412L38.6833 2.88745L38.9697 2.53287L38.7901 2.11393L38.0947 2.412ZM36.4777 4.414L35.7214 4.38934L35.6478 6.64569L37.0663 4.88945L36.4777 4.414ZM36.1257 2.478L35.4272 2.76903V2.76903L36.1257 2.478ZM35.1027 1.015L34.6086 1.58814L34.6143 1.59302L35.1027 1.015ZM33.7827 0.487L33.8016 1.24346L33.807 1.24328L33.7827 0.487ZM32.0667 1.829L31.3424 1.60989L31.3419 1.61157L32.0667 1.829ZM32.2537 4.689L31.5358 4.92828L31.5363 4.92976L32.2537 4.689ZM33.8267 7.12L34.2987 6.52865L34.2986 6.52852L33.8267 7.12ZM36.9236 7.9191C37.278 7.68829 37.5866 7.43796 37.8331 7.16312L36.7063 6.15288C36.5713 6.30337 36.374 6.47104 36.0978 6.6509L36.9236 7.9191ZM37.8235 7.17361C38.0869 6.89061 38.3222 6.5228 38.5379 6.09948L37.1894 5.41252C37.0091 5.76653 36.8484 6.00006 36.7158 6.14239L37.8235 7.17361ZM37.5383 6.43918L37.7693 6.54918L38.42 5.18282L38.189 5.07282L37.5383 6.43918ZM37.3992 5.56793C37.1716 6.09887 36.8211 6.51889 36.3347 6.84124L37.1706 8.10276C37.9015 7.61845 38.4457 6.9678 38.7901 6.16407L37.3992 5.56793ZM36.3312 6.84359C35.8781 7.14745 35.2955 7.32032 34.5417 7.32032V8.83368C35.5332 8.83368 36.4245 8.60322 37.1741 8.10041L36.3312 6.84359ZM34.5417 7.32032C34.0087 7.32032 33.5486 7.22663 33.1494 7.05307L32.5459 8.44093C33.1588 8.70737 33.828 8.83368 34.5417 8.83368V7.32032ZM33.1578 7.05678C32.7381 6.86825 32.4224 6.63359 32.1894 6.36262L31.042 7.34938C31.4396 7.81174 31.9452 8.17108 32.5376 8.43722L33.1578 7.05678ZM32.1998 6.37497C31.9487 6.07007 31.7529 5.72503 31.6127 5.33509L30.1886 5.84691C30.3858 6.39564 30.6666 6.89393 31.0315 7.33703L32.1998 6.37497ZM31.614 5.33859C31.4732 4.94059 31.4043 4.54184 31.4043 4.139H29.891C29.891 4.71882 29.9908 5.28807 30.1873 5.84341L31.614 5.33859ZM31.4043 4.139C31.4043 3.73623 31.4731 3.3424 31.6127 2.95391L30.1886 2.44209C29.9908 2.99226 29.891 3.5591 29.891 4.139H31.4043ZM31.614 2.95041C31.7541 2.55441 31.9486 2.2131 32.195 1.91969L31.0363 0.94631C30.6667 1.38623 30.3845 1.88826 30.1873 2.44559L31.614 2.95041ZM32.1894 1.92638C32.4224 1.65541 32.7381 1.42075 33.1578 1.23222L32.5376 -0.148219C31.9452 0.117918 31.4396 0.477256 31.042 0.939616L32.1894 1.92638ZM33.1578 1.23222C33.5548 1.05382 34.012 0.957678 34.5417 0.957678V-0.555679C33.8247 -0.555679 33.1525 -0.424486 32.5376 -0.148219L33.1578 1.23222ZM34.5417 0.957678C35.2955 0.957678 35.8781 1.13055 36.3312 1.43441L37.1741 0.177586C36.4245 -0.32522 35.5332 -0.555679 34.5417 -0.555679V0.957678ZM36.3347 1.43676C36.8211 1.75911 37.1716 2.17913 37.3992 2.71007L38.7901 2.11393C38.4457 1.3102 37.9015 0.659554 37.1706 0.175238L36.3347 1.43676ZM37.506 1.93655L35.889 3.93855L37.0663 4.88945L38.6833 2.88745L37.506 1.93655ZM37.2339 4.43866C37.2594 3.65713 37.1229 2.90404 36.8241 2.18697L35.4272 2.76903C35.6417 3.28396 35.7399 3.82154 35.7214 4.38934L37.2339 4.43866ZM36.8241 2.18697C36.5303 1.48183 36.1247 0.887884 35.591 0.436984L34.6143 1.59302C34.9313 1.86078 35.2077 2.24217 35.4272 2.76903L36.8241 2.18697ZM35.5967 0.441884C35.0629 -0.0182664 34.4445 -0.291424 33.7583 -0.269286L33.807 1.24328C34.0301 1.23609 34.2917 1.31493 34.6086 1.58812L35.5967 0.441884ZM33.7637 -0.269443C33.1966 -0.255264 32.6668 -0.100573 32.2275 0.24295C31.7905 0.584721 31.5079 1.0627 31.3424 1.60989L32.7909 2.0481C32.8894 1.72264 33.0248 1.54061 33.1598 1.43505C33.2925 1.33124 33.4887 1.25126 33.8016 1.24344L33.7637 -0.269443ZM31.3419 1.61157C31.0411 2.61433 31.1379 3.7347 31.5358 4.92828L32.9715 4.44972C32.636 3.4433 32.6082 2.657 32.7914 2.04643L31.3419 1.61157ZM31.5363 4.92976C31.9291 6.10013 32.5235 7.0483 33.3547 7.71148L34.2986 6.52852C33.7511 6.0917 33.2969 5.41921 32.971 4.44824L31.5363 4.92976ZM33.3546 7.71135C33.8824 8.13273 34.4685 8.39983 35.1057 8.439C35.745 8.4783 36.3547 8.28322 36.9185 7.92233L36.1028 6.64767C35.75 6.87345 35.454 6.9442 35.1986 6.9285C34.9411 6.91267 34.6436 6.80394 34.2987 6.52865L33.3546 7.71135ZM38.5585 0.299999V-0.456679H37.9247L37.8136 0.167387L38.5585 0.299999ZM42.3865 0.299999L43.1322 0.171173L43.0237 -0.456679H42.3865V0.299999ZM42.7495 2.401L42.047 2.68202L43.4952 2.27217L42.7495 2.401ZM42.6615 2.137L43.3831 1.90914V1.90914L42.6615 2.137ZM42.5625 1.851L41.835 2.05888L41.8482 2.10499L41.867 2.14907L42.5625 1.851ZM42.4635 1.598L41.755 1.86369L41.7622 1.88269L41.7703 1.90129L42.4635 1.598ZM42.3425 1.356L41.7268 1.79581L41.7432 1.81875L41.7612 1.84041L42.3425 1.356ZM42.1885 1.158L42.7742 0.678843V0.678841L42.1885 1.158ZM41.9905 0.993L41.6231 1.65446L41.6525 1.6708L41.6832 1.68446L41.9905 0.993ZM41.7375 0.894L41.515 1.61722L41.5223 1.61946L41.5297 1.62156L41.7375 0.894ZM41.2425 0.85V0.0933208H40.4859V0.85H41.2425ZM41.2425 7.45H40.4859V7.55394L40.5139 7.65402L41.2425 7.45ZM41.9025 8V8.75668L41.9197 7.24352L41.9025 8ZM40.9345 7.978L40.9517 7.22152L40.9336 7.2211L40.9154 7.22156L40.9345 7.978ZM40.0655 8V8.75668H40.0751L40.0847 8.75644L40.0655 8ZM39.7465 6.911L38.99 6.89524L38.9896 6.91458L38.9902 6.93392L39.7465 6.911ZM39.7685 5.855L40.5251 5.87076L40.5252 5.86288V5.855H39.7685ZM39.7685 0.85H40.5252V0.0933208H39.7685V0.85ZM39.1965 0.894L38.974 0.170782L39.1965 0.894ZM38.9435 0.993L39.2509 1.68446L39.2666 1.67748L39.2819 1.66979L38.9435 0.993ZM38.7455 1.158L38.1599 0.678841L38.1599 0.678843L38.7455 1.158ZM38.5915 1.356L39.1728 1.84041L39.1909 1.81875L39.2073 1.79581L38.5915 1.356ZM38.4595 1.598L37.7663 1.29471L37.7582 1.31331L37.751 1.33231L38.4595 1.598ZM38.3605 1.851L37.665 1.55293L37.6462 1.59701L37.633 1.64312L38.3605 1.851ZM38.2725 2.137L37.551 1.90914V1.90914L38.2725 2.137ZM38.1845 2.401L37.4396 2.26839L38.8871 2.68202L38.1845 2.401ZM38.5585 1.05668H42.3865V-0.456679H38.5585V1.05668ZM41.6409 0.428826L42.0039 2.52983L43.4952 2.27217L43.1322 0.171173L41.6409 0.428826ZM43.4521 2.11998C43.4538 2.12426 43.4489 2.11177 43.4344 2.06822C43.4215 2.02952 43.4045 1.97689 43.3831 1.90914L41.94 2.36486C41.9813 2.49557 42.0196 2.61355 42.047 2.68202L43.4521 2.11998ZM43.3831 1.90914C43.3398 1.77208 43.2967 1.64318 43.258 1.55293L41.867 2.14907C41.8666 2.14793 41.8683 2.15204 41.8726 2.16344C41.8767 2.17432 41.882 2.18914 41.8887 2.20852C41.9022 2.24749 41.9192 2.29914 41.94 2.36486L43.3831 1.90914ZM43.2901 1.64312C43.26 1.53792 43.2082 1.41218 43.1568 1.29471L41.7703 1.90129C41.7935 1.95424 41.8104 1.99498 41.8221 2.02498C41.835 2.0579 41.8372 2.06652 41.835 2.05888L43.2901 1.64312ZM43.172 1.33231C43.1251 1.20712 43.0485 1.02119 42.9238 0.871585L41.7612 1.84041C41.7514 1.82862 41.7439 1.81855 41.7386 1.811C41.7332 1.8034 41.7294 1.79741 41.727 1.7935C41.7224 1.78606 41.7213 1.78355 41.7235 1.7879C41.7255 1.79198 41.7294 1.80019 41.7351 1.81339C41.7406 1.82646 41.7473 1.84308 41.755 1.86369L43.172 1.33231ZM42.9583 0.916188C42.9079 0.845613 42.8449 0.765228 42.7742 0.678843L41.6029 1.63716C41.6642 1.71211 41.7039 1.76372 41.7268 1.79581L42.9583 0.916188ZM42.7742 0.678841C42.6641 0.544335 42.5091 0.395412 42.2979 0.301538L41.6832 1.68446C41.6417 1.66599 41.616 1.64657 41.6051 1.63755C41.5944 1.62861 41.5941 1.62645 41.6029 1.63716L42.7742 0.678841ZM42.358 0.331543C42.2255 0.257933 42.0827 0.205669 41.9454 0.166435L41.5297 1.62156C41.562 1.63079 41.5856 1.63898 41.6021 1.6454C41.6187 1.65192 41.6248 1.65541 41.6231 1.65446L42.358 0.331543ZM41.9601 0.170782C41.7857 0.117114 41.6073 0.0933208 41.4295 0.0933208V1.60668C41.4718 1.60668 41.4988 1.61222 41.515 1.61722L41.9601 0.170782ZM41.4295 0.0933208H41.2425V1.60668H41.4295V0.0933208ZM40.4859 0.85V7.45H41.9992V0.85H40.4859ZM40.5139 7.65402C40.5931 7.93706 40.7392 8.22638 41.0001 8.4438C41.2695 8.66827 41.5899 8.75668 41.9025 8.75668V7.24332C41.8867 7.24332 41.8909 7.24121 41.908 7.24684C41.9266 7.25297 41.9489 7.26449 41.969 7.2812C42.0099 7.31529 41.9946 7.32961 41.9712 7.24598L40.5139 7.65402ZM41.9197 7.24352L40.9517 7.22152L40.9174 8.73448L41.8853 8.75648L41.9197 7.24352ZM40.9154 7.22156L40.0464 7.24356L40.0847 8.75644L40.9537 8.73444L40.9154 7.22156ZM40.0655 7.24332H39.0975V8.75668H40.0655V7.24332ZM39.0975 8.75668C39.5669 8.75668 39.994 8.54597 40.2508 8.11512C40.4687 7.74952 40.5155 7.30373 40.5029 6.88808L38.9902 6.93392C38.9946 7.07843 38.9862 7.18288 38.9734 7.25451C38.9605 7.32707 38.9462 7.34808 38.9508 7.34037C38.9588 7.32695 38.9851 7.29276 39.0338 7.26641C39.0799 7.24146 39.1096 7.24332 39.0975 7.24332V8.75668ZM40.5031 6.92676L40.5251 5.87076L39.012 5.83924L38.99 6.89524L40.5031 6.92676ZM40.5252 5.855V0.85H39.0119V5.855H40.5252ZM39.7685 0.0933208H39.5045V1.60668H39.7685V0.0933208ZM39.5045 0.0933208C39.3268 0.0933208 39.1484 0.117114 38.974 0.170782L39.4191 1.61722C39.4353 1.61222 39.4623 1.60668 39.5045 1.60668V0.0933208ZM38.974 0.170782C38.847 0.209848 38.7227 0.257418 38.6051 0.316206L39.2819 1.66979C39.311 1.65525 39.3554 1.63682 39.4191 1.61722L38.974 0.170782ZM38.6362 0.301538C38.425 0.395412 38.27 0.544336 38.1599 0.678841L39.3312 1.63716C39.3399 1.62645 39.3397 1.62861 39.329 1.63755C39.3181 1.64657 39.2924 1.66599 39.2509 1.68446L38.6362 0.301538ZM38.1599 0.678843C38.0892 0.765228 38.0262 0.845613 37.9758 0.916188L39.2073 1.79581C39.2302 1.76372 39.2699 1.71211 39.3312 1.63716L38.1599 0.678843ZM38.0102 0.871585C37.8993 1.00472 37.8199 1.17229 37.7663 1.29471L39.1528 1.90129C39.1728 1.85555 39.187 1.8271 39.1953 1.81184C39.1993 1.80455 39.2002 1.80345 39.198 1.80694C39.1961 1.80984 39.1878 1.82242 39.1728 1.84041L38.0102 0.871585ZM37.751 1.33231C37.7074 1.44871 37.6796 1.51892 37.665 1.55293L39.056 2.14907C39.0855 2.08041 39.1237 1.98196 39.168 1.86369L37.751 1.33231ZM37.633 1.64312C37.6216 1.68299 37.5953 1.76884 37.551 1.90914L38.9941 2.36486C39.0378 2.22649 39.0702 2.12167 39.0881 2.05888L37.633 1.64312ZM37.551 1.90914C37.5296 1.97689 37.5126 2.02952 37.4997 2.06822C37.4852 2.11177 37.4803 2.12426 37.482 2.11998L38.8871 2.68202C38.9145 2.61355 38.9528 2.49557 38.9941 2.36486L37.551 1.90914ZM38.9295 2.53361L39.3035 0.432611L37.8136 0.167387L37.4396 2.26839L38.9295 2.53361ZM45.5447 8V8.75668L45.6086 7.24602L45.5447 8ZM42.8057 8L42.7396 7.24622L42.8057 8.75668V8ZM43.4547 7.043L44.2112 7.06145L44.2114 7.05223V7.043H43.4547ZM43.4547 1.257H44.2114V1.24777L44.2112 1.23855L43.4547 1.257ZM42.8057 0.299999V-0.456679L42.7396 1.05378L42.8057 0.299999ZM45.5447 0.299999L45.6097 1.05388L45.5447 -0.456679V0.299999ZM44.8957 1.389L44.1391 1.38095V1.389H44.8957ZM44.1391 6.911C44.1391 7.31479 44.1989 7.73681 44.408 8.08763C44.6451 8.4854 45.0294 8.71572 45.4809 8.75398L45.6086 7.24602C45.6019 7.24546 45.6246 7.2467 45.6576 7.26701C45.6728 7.27638 45.6854 7.28695 45.6949 7.29679C45.6994 7.30151 45.7027 7.30551 45.7049 7.30842C45.7071 7.31131 45.708 7.31293 45.708 7.31287C45.7072 7.31148 45.6919 7.28452 45.6775 7.21444C45.6632 7.14479 45.6524 7.04574 45.6524 6.911H44.1391ZM45.5447 7.24332H42.8057V8.75668H45.5447V7.24332ZM42.8719 8.75378C43.2846 8.71758 43.6595 8.52404 43.9077 8.15795C44.1311 7.82857 44.2022 7.43236 44.2112 7.06145L42.6983 7.02455C42.6956 7.13308 42.6842 7.20823 42.672 7.25685C42.6599 7.30518 42.6497 7.31676 42.6552 7.30855C42.6631 7.29702 42.682 7.27601 42.7114 7.25955C42.7389 7.24409 42.7537 7.24498 42.7396 7.24622L42.8719 8.75378ZM44.2114 7.043V1.257H42.6981V7.043H44.2114ZM44.2112 1.23855C44.2022 0.867641 44.1311 0.471433 43.9077 0.142049C43.6595 -0.224044 43.2846 -0.417576 42.8719 -0.453785L42.7396 1.05378C42.7537 1.05502 42.7389 1.05591 42.7114 1.04045C42.682 1.02399 42.6631 1.00298 42.6552 0.99145C42.6497 0.983236 42.6599 0.994823 42.672 1.04315C42.6842 1.09177 42.6956 1.16692 42.6983 1.27545L44.2112 1.23855ZM42.8057 1.05668H45.5447V-0.456679H42.8057V1.05668ZM45.4798 -0.453883C45.0274 -0.41489 44.6478 -0.180855 44.4135 0.212374C44.2065 0.559693 44.1434 0.978196 44.1391 1.38095L45.6524 1.39705C45.6538 1.26165 45.6655 1.16151 45.6806 1.0905C45.6958 1.019 45.7116 0.990237 45.7135 0.987125C45.714 0.986318 45.7106 0.992141 45.7018 1.00135C45.6928 1.0108 45.6804 1.02137 45.665 1.03097C45.6314 1.05188 45.6068 1.05414 45.6097 1.05388L45.4798 -0.453883ZM44.1391 1.389V6.911H45.6524V1.389H44.1391ZM49.5129 2.489L48.7664 2.36458L48.7645 2.37749L49.5129 2.489ZM49.5789 2.049L48.8337 1.9175L48.8304 1.93625L48.8281 1.95515L49.5789 2.049ZM49.6339 1.598L48.8826 1.50785L48.881 1.52148L48.8798 1.53516L49.6339 1.598ZM49.6449 1.136L48.8895 1.18043L48.8908 1.20248L48.8934 1.22441L49.6449 1.136ZM49.5789 0.761999L48.8403 0.926146L48.8458 0.951042L48.853 0.975508L49.5789 0.761999ZM49.4139 0.454L48.854 0.962997L48.8783 0.989659L48.9049 1.0139L49.4139 0.454ZM49.1279 0.299999V-0.456679L48.9885 1.04372L49.1279 0.299999ZM50.7559 0.299999L50.8833 1.04589L50.7559 -0.456679V0.299999ZM50.1289 0.707L49.4612 0.350887L49.4568 0.359365L50.1289 0.707ZM49.8539 1.774L50.6021 1.88713L50.6025 1.88409L49.8539 1.774ZM49.0289 7.23L48.2807 7.11687L48.2617 7.24287L48.285 7.36816L49.0289 7.23ZM49.1719 8V8.75668H50.0821L49.9159 7.86184L49.1719 8ZM47.6209 8L46.8819 8.16235L47.0124 8.75668H47.6209V8ZM46.1469 1.29L46.886 1.12765L46.8854 1.12493L46.1469 1.29ZM45.2889 0.299999V-0.456679L45.225 1.05398L45.2889 0.299999ZM47.6429 0.707L46.8887 0.645848L46.8879 0.655993L46.8873 0.666158L47.6429 0.707ZM47.7639 1.763L48.5103 1.6386L48.5071 1.61929L48.5029 1.60018L47.7639 1.763ZM47.7749 1.862H47.0182V1.94372L47.0357 2.02355L47.7749 1.862ZM48.8639 6.845L48.1247 7.00655L49.6123 6.95651L48.8639 6.845ZM50.2593 2.6134C50.2896 2.43178 50.3133 2.27412 50.3297 2.14285L48.8281 1.95515C48.8152 2.05854 48.7949 2.19421 48.7665 2.3646L50.2593 2.6134ZM50.3241 2.1805C50.3513 2.0262 50.3721 1.85162 50.388 1.66084L48.8798 1.53516C48.8664 1.69638 48.8505 1.82247 48.8337 1.9175L50.3241 2.1805ZM50.3852 1.68815C50.4113 1.47053 50.4205 1.25225 50.3964 1.04759L48.8934 1.22441C48.8987 1.26909 48.9005 1.3588 48.8826 1.50785L50.3852 1.68815ZM50.4003 1.09157C50.3894 0.90733 50.357 0.725985 50.3048 0.548491L48.853 0.975508C48.8741 1.04735 48.8857 1.11534 48.8895 1.18043L50.4003 1.09157ZM50.3176 0.597852C50.2626 0.35042 50.1443 0.0954062 49.9229 -0.105898L48.9049 1.0139C48.8772 0.988681 48.8591 0.962801 48.8487 0.94332C48.8388 0.924983 48.8382 0.916948 48.8403 0.926146L50.3176 0.597852ZM49.9738 -0.054998C49.779 -0.269316 49.5304 -0.394402 49.2674 -0.443719L48.9885 1.04372C48.9783 1.04181 48.9563 1.03612 48.9287 1.02123C48.9003 1.00598 48.8746 0.985648 48.854 0.962997L49.9738 -0.054998ZM49.1279 1.05668H50.7559V-0.456679H49.1279V1.05668ZM50.6286 -0.445886C50.1544 -0.364935 49.7134 -0.121906 49.4613 0.350915L50.7966 1.06308C50.7969 1.06247 50.7954 1.06532 50.7916 1.06938C50.7879 1.07344 50.7852 1.07524 50.7856 1.07494C50.7868 1.07421 50.8122 1.05801 50.8833 1.04589L50.6286 -0.445886ZM49.4568 0.359365C49.2854 0.690805 49.1804 1.15317 49.1053 1.66391L50.6025 1.88409C50.6741 1.39749 50.7524 1.14853 50.801 1.05463L49.4568 0.359365ZM49.1057 1.66087L48.2807 7.11687L49.7771 7.34313L50.6021 1.88713L49.1057 1.66087ZM48.285 7.36816L48.428 8.13816L49.9159 7.86184L49.7729 7.09184L48.285 7.36816ZM49.1719 7.24332H47.6209V8.75668H49.1719V7.24332ZM48.36 7.83765L46.886 1.12765L45.4079 1.45235L46.8819 8.16235L48.36 7.83765ZM46.8854 1.12493C46.8001 0.743579 46.654 0.372827 46.3997 0.0794276C46.1284 -0.233656 45.7669 -0.418884 45.3528 -0.453977L45.225 1.05398C45.2431 1.05551 45.2459 1.05852 45.242 1.05652C45.2382 1.05456 45.2431 1.05555 45.2561 1.07057C45.2878 1.10717 45.3544 1.21309 45.4085 1.45507L46.8854 1.12493ZM45.2889 1.05668H47.9949V-0.456679H45.2889V1.05668ZM47.9949 -0.456679C47.7137 -0.456679 47.4045 -0.358438 47.1751 -0.0932334C46.9694 0.14455 46.9064 0.428198 46.8887 0.645848L48.3971 0.768151C48.4015 0.714468 48.4081 0.794615 48.3197 0.896732C48.272 0.951941 48.21 0.996928 48.141 1.02528C48.0752 1.05232 48.0219 1.05668 47.9949 1.05668V-0.456679ZM46.8873 0.666158C46.8674 1.03503 46.9229 1.46268 47.025 1.92582L48.5029 1.60018C48.4142 1.19799 48.3891 0.921634 48.3985 0.747841L46.8873 0.666158ZM47.0175 1.8874C47.0196 1.90011 47.0202 1.90518 47.0201 1.90431C47.02 1.90366 47.0196 1.89996 47.0192 1.89377C47.0188 1.88787 47.0182 1.87685 47.0182 1.862H48.5316C48.5316 1.77472 48.519 1.69092 48.5103 1.6386L47.0175 1.8874ZM47.0357 2.02355L48.1247 7.00655L49.6031 6.68345L48.5141 1.70045L47.0357 2.02355ZM49.6123 6.95651L50.2613 2.60051L48.7645 2.37749L48.1155 6.73349L49.6123 6.95651ZM53.5313 7.681L53.1773 7.01226L53.5313 7.681ZM53.8503 7.428L53.2959 6.91312L53.2856 6.92414L53.2758 6.93556L53.8503 7.428ZM54.1143 7.087L53.4791 6.67593L53.4791 6.67593L54.1143 7.087ZM54.3123 6.713L53.6209 6.40568L53.6166 6.41523L53.6127 6.42489L54.3123 6.713ZM54.4553 6.361L53.7598 6.06293L53.7506 6.08445L53.7428 6.1065L54.4553 6.361ZM54.5543 6.108L55.2722 6.34728L55.2845 6.31025L55.293 6.27214L54.5543 6.108ZM54.5763 6.009L55.3165 6.16613L53.8377 5.84486L54.5763 6.009ZM54.1583 7.978L54.1647 8.73465L54.7723 8.72957L54.8985 8.13513L54.1583 7.978ZM51.5293 8V8.75671L51.5357 8.75665L51.5293 8ZM51.2103 6.911L50.4538 6.89524L50.4535 6.91076L50.4538 6.92628L51.2103 6.911ZM51.2323 5.855L51.9889 5.87076L51.9891 5.86103L51.989 5.85129L51.2323 5.855ZM51.2103 1.367L50.4538 1.35055L50.4536 1.36063L50.4537 1.37071L51.2103 1.367ZM51.0783 0.586L50.3913 0.903092L50.3988 0.919279L50.407 0.935096L51.0783 0.586ZM53.9933 0.299999L54.747 0.232172L54.685 -0.456679H53.9933V0.299999ZM54.1913 2.5L53.445 2.62439L54.945 2.43217L54.1913 2.5ZM54.1143 2.159L53.3724 2.3074L53.3752 2.32155L53.3786 2.33559L54.1143 2.159ZM53.9383 1.488L53.2093 1.69052L53.2119 1.69985L53.2147 1.70912L53.9383 1.488ZM53.6193 0.795L52.9898 1.21473L52.995 1.22266L53.0005 1.23046L53.6193 0.795ZM52.6623 0.498V-0.258679H51.9057V0.498H52.6623ZM52.6623 3.798H51.9057V4.55468H52.6623V3.798ZM53.2233 3.688L53.6632 4.30378L53.6708 4.29819L53.2233 3.688ZM53.4763 3.424L54.1208 3.82057L54.1272 3.8101L54.1333 3.79942L53.4763 3.424ZM53.6193 3.083L52.8934 2.86949V2.86949L53.6193 3.083ZM53.6853 2.808L52.9345 2.71414V2.71415L53.6853 2.808ZM53.7073 2.676H54.464L52.9733 2.49248L53.7073 2.676ZM53.7073 5.536L52.9654 5.68439L54.464 5.536H53.7073ZM53.6853 5.382H52.9287V5.42391L52.9333 5.46556L53.6853 5.382ZM53.6303 5.019L52.8895 5.17333L52.8909 5.17974L53.6303 5.019ZM53.4873 4.568L52.7821 4.84226L52.7916 4.86658L52.8027 4.89019L53.4873 4.568ZM53.2453 4.205L53.7804 3.66995V3.66995L53.2453 4.205ZM52.6623 4.04V3.28332H51.9057V4.04H52.6623ZM52.6623 7.78H51.9057V8.53668H52.6623V7.78ZM53.1463 8.53668C53.4102 8.53668 53.6593 8.46941 53.8854 8.34974L53.1773 7.01226C53.154 7.02458 53.1465 7.02332 53.1463 7.02332V8.53668ZM53.8854 8.34974C54.0903 8.24127 54.2724 8.09828 54.4249 7.92044L53.2758 6.93556C53.2523 6.96305 53.2218 6.98873 53.1773 7.01226L53.8854 8.34974ZM54.4048 7.94288C54.5318 7.80617 54.6465 7.65743 54.7496 7.49807L53.4791 6.67593C53.4208 6.7659 53.3596 6.8445 53.2959 6.91312L54.4048 7.94288ZM54.7496 7.49807C54.853 7.33834 54.9414 7.17271 55.012 7.00111L53.6127 6.42489C53.5807 6.50263 53.537 6.58632 53.4791 6.67593L54.7496 7.49807ZM55.0038 7.02032C55.0679 6.87617 55.1232 6.74068 55.1679 6.6155L53.7428 6.1065C53.7141 6.18665 53.6742 6.28583 53.6209 6.40568L55.0038 7.02032ZM55.1508 6.65907C55.1988 6.54714 55.2408 6.44136 55.2722 6.34728L53.8365 5.86872C53.8239 5.90664 53.7999 5.96953 53.7598 6.06293L55.1508 6.65907ZM55.293 6.27214L55.315 6.17314L53.8377 5.84486L53.8157 5.94386L55.293 6.27214ZM53.8362 5.85187L53.4182 7.82087L54.8985 8.13513L55.3165 6.16613L53.8362 5.85187ZM54.152 7.22135L51.523 7.24335L51.5357 8.75665L54.1647 8.73465L54.152 7.22135ZM51.5293 7.24332H50.5613V8.75668H51.5293V7.24332ZM50.5613 8.75668C51.0326 8.75668 51.455 8.54152 51.7091 8.11512C51.9249 7.75298 51.9753 7.31066 51.9669 6.89572L50.4538 6.92628C50.4568 7.07134 50.4475 7.17677 50.434 7.24965C50.4203 7.32354 50.4055 7.34635 50.4091 7.34037C50.4159 7.32894 50.4413 7.29495 50.4904 7.26807C50.5375 7.24231 50.5695 7.24332 50.5613 7.24332V8.75668ZM51.9669 6.92676L51.9889 5.87076L50.4758 5.83924L50.4538 6.89524L51.9669 6.92676ZM51.989 5.85129L51.967 1.36329L50.4537 1.37071L50.4757 5.85871L51.989 5.85129ZM51.9668 1.38345C51.9754 0.990677 51.9296 0.582936 51.7497 0.236904L50.407 0.935096C50.4177 0.955729 50.46 1.06866 50.4538 1.35055L51.9668 1.38345ZM51.7654 0.268908C51.6586 0.0376521 51.4861 -0.159693 51.2494 -0.29062C51.0222 -0.416316 50.7801 -0.456679 50.5613 -0.456679V1.05668C50.5993 1.05668 50.5717 1.06398 50.5168 1.03362C50.4889 1.01818 50.4611 0.996755 50.437 0.970229C50.4132 0.944083 50.3989 0.919637 50.3913 0.903092L51.7654 0.268908ZM50.5613 1.05668H53.9933V-0.456679H50.5613V1.05668ZM53.2397 0.367826L53.4377 2.56783L54.945 2.43217L54.747 0.232172L53.2397 0.367826ZM54.9377 2.37561C54.925 2.29912 54.8916 2.15509 54.8501 1.98241L53.3786 2.33559C53.4002 2.4257 53.4167 2.49627 53.4285 2.54842C53.4416 2.60654 53.4453 2.62639 53.445 2.62439L54.9377 2.37561ZM54.8563 2.0106C54.813 1.7942 54.7469 1.5447 54.662 1.26688L53.2147 1.70912C53.2911 1.9593 53.3423 2.15714 53.3724 2.3074L54.8563 2.0106ZM54.6674 1.28548C54.5739 0.948956 54.4334 0.636971 54.2382 0.359536L53.0005 1.23046C53.084 1.34903 53.1561 1.49904 53.2093 1.69052L54.6674 1.28548ZM54.2489 0.37527C54.076 0.115846 53.7426 -0.258679 53.2123 -0.258679V1.25468C53.091 1.25468 53.007 1.20863 52.9726 1.18349C52.9452 1.16351 52.9542 1.16144 52.9898 1.21473L54.2489 0.37527ZM53.2123 -0.258679H52.6623V1.25468H53.2123V-0.258679ZM51.9057 0.498V3.798H53.419V0.498H51.9057ZM52.6623 4.55468H52.8603V3.04132H52.6623V4.55468ZM52.8603 4.55468C53.1401 4.55468 53.4188 4.47828 53.6632 4.30373L52.7835 3.07226C52.7994 3.06093 52.818 3.05186 52.8362 3.04634C52.8537 3.04104 52.8632 3.04132 52.8603 3.04132V4.55468ZM53.6708 4.29819C53.8429 4.172 54.001 4.01521 54.1208 3.82057L52.8319 3.02743C52.8344 3.02346 52.8238 3.04266 52.7759 3.07781L53.6708 4.29819ZM54.1333 3.79942C54.2239 3.64089 54.2936 3.47214 54.3453 3.29651L52.8934 2.86949C52.8717 2.9432 52.8461 3.00177 52.8194 3.04858L54.1333 3.79942ZM54.3453 3.29651C54.3832 3.16767 54.4207 3.02578 54.4362 2.90185L52.9345 2.71415C52.9357 2.70432 52.9354 2.71164 52.9276 2.74416C52.9204 2.77398 52.9094 2.81518 52.8934 2.86949L54.3453 3.29651ZM54.4362 2.90186C54.439 2.87967 54.4412 2.86461 54.4427 2.8554C54.4435 2.85095 54.4439 2.849 54.4438 2.84915C54.4438 2.84928 54.4436 2.8502 54.4433 2.85183C54.4429 2.85344 54.4423 2.85605 54.4414 2.85952L52.9733 2.49248C52.9545 2.56738 52.9428 2.64802 52.9345 2.71414L54.4362 2.90186ZM52.9507 2.676V5.536H54.464V2.676H52.9507ZM54.4493 5.38761C54.4494 5.38776 54.449 5.3858 54.4482 5.38135C54.4475 5.37697 54.4466 5.37092 54.4454 5.36299C54.4431 5.34692 54.4404 5.32565 54.4374 5.29844L52.9333 5.46556C52.9415 5.53943 52.9517 5.61594 52.9654 5.68439L54.4493 5.38761ZM54.442 5.382C54.442 5.21953 54.4067 5.02811 54.3698 4.85826L52.8909 5.17974C52.9071 5.25418 52.9174 5.30994 52.9235 5.3496C52.9302 5.39383 52.9287 5.39998 52.9287 5.382H54.442ZM54.3711 4.86467C54.3258 4.64723 54.2622 4.43741 54.172 4.24581L52.8027 4.89019C52.8299 4.94792 52.8615 5.03877 52.8896 5.17333L54.3711 4.86467ZM54.1926 4.29374C54.0996 4.0547 53.9572 3.84679 53.7804 3.66995L52.7103 4.74005C52.7535 4.78321 52.7724 4.8173 52.7821 4.84226L54.1926 4.29374ZM53.7804 3.66995C53.538 3.4276 53.2208 3.28332 52.8603 3.28332V4.79668C52.8365 4.79668 52.8033 4.79164 52.7685 4.77675C52.7347 4.76223 52.7156 4.74536 52.7103 4.74005L53.7804 3.66995ZM52.8603 3.28332H52.6623V4.79668H52.8603V3.28332ZM51.9057 4.04V7.78H53.419V4.04H51.9057ZM52.6623 8.53668H53.1463V7.02332H52.6623V8.53668Z" fill="white" mask="url(#path-1-outside-1_1015_1810)"/>
</g>
<defs>
<filter id="filter0_d_1015_1810" x="0.348633" y="0.20105" width="58.2275" height="15.964" filterUnits="userSpaceOnUse" color-interpolation-filters="sRGB">
<feFlood flood-opacity="0" result="BackgroundImageFix"/>
<feColorMatrix in="SourceAlpha" type="matrix" values="0 0 0 0 0 0 0 0 0 0 0 0 0 0 0 0 0 0 127 0" result="hardAlpha"/>
<feOffset dy="4"/>
<feGaussianBlur stdDeviation="2"/>
<feComposite in2="hardAlpha" operator="out"/>
<feColorMatrix type="matrix" values="0 0 0 0 0 0 0 0 0 0 0 0 0 0 0 0 0 0 0.25 0"/>
<feBlend mode="normal" in2="BackgroundImageFix" result="effect1_dropShadow_1015_1810"/>
<feBlend mode="normal" in="SourceGraphic" in2="effect1_dropShadow_1015_1810" result="shape"/>
</filter>
</defs>
</svg>
