<svg width="202" height="86" viewBox="0 0 202 86" fill="none" xmlns="http://www.w3.org/2000/svg">
<g filter="url(#filter0_d_924_1882)">
<mask id="path-1-outside-1_924_1882" maskUnits="userSpaceOnUse" x="3" y="7" width="196" height="64" fill="black">
<rect fill="white" x="3" y="7" width="196" height="64"/>
<path d="M18.385 10.52C13.965 10.52 12.52 15.195 12.52 18.51C12.52 28.285 30.965 34.915 30.965 52.85C30.965 62.795 25.95 69.595 16.43 69.595C13.795 69.595 8.695 67.555 7.335 68.915L6.91 53.7C8.355 61.35 10.65 67.81 16.6 67.81C19.405 67.81 21.87 66.365 21.87 60.16C21.87 42.225 4.445 38.74 4.445 22.25C4.445 12.645 9.46 8.735 17.45 8.735C20.85 8.735 24.335 10.18 25.27 9.5L26.12 25.905C25.015 20.635 25.015 10.52 18.385 10.52ZM31.7307 9.58499H48.1357C69.9807 9.58499 69.9807 52.68 48.4757 52.68V63.475C48.8157 66.705 50.0057 69.085 53.3207 69.085H36.9157H31.7307C35.8957 69.085 36.8307 65.26 36.6607 60.585V18C36.8307 13.325 35.8957 9.58499 31.7307 9.58499ZM48.9857 50.725C54.5957 50.725 54.5957 10.86 48.4757 10.86V50.725H48.9857ZM96.8679 8.735C136.988 8.735 137.158 69.68 96.8679 69.68C56.5779 69.68 56.5779 8.735 96.8679 8.735ZM114.038 62.285C133.758 46.9 99.5029 0.914995 79.7829 16.3C59.5529 31.94 94.4029 77.415 114.038 62.285ZM147.321 48.6C151.061 52.255 153.271 60.5 160.496 56.335L160.666 69.085C146.896 69.17 147.916 50.64 144.516 49.025V63.475C144.856 66.705 146.046 69.085 149.361 69.085H127.771C131.936 69.085 132.871 65.26 132.701 60.585V18C132.871 13.325 131.936 9.58499 127.771 9.58499H144.176C165.001 9.58499 166.021 45.37 147.321 48.6ZM145.026 46.985C150.636 46.985 150.636 10.86 144.516 10.86V46.985H145.026ZM165.425 9.58499H195.005L197.895 25.82C196.025 20.21 194.835 13.75 187.695 13.75H186.165V64.75C186.93 67.3 188.46 69.085 191.265 69.085L183.87 68.915L177.07 69.085H169.675C173.84 69.085 174.775 65.26 174.69 60.585L174.775 52.51V13.75H172.82C165.68 13.75 164.405 20.21 162.62 25.82L165.425 9.58499Z"/>
</mask>
<path d="M18.385 10.52C13.965 10.52 12.52 15.195 12.52 18.51C12.52 28.285 30.965 34.915 30.965 52.85C30.965 62.795 25.95 69.595 16.43 69.595C13.795 69.595 8.695 67.555 7.335 68.915L6.91 53.7C8.355 61.35 10.65 67.81 16.6 67.81C19.405 67.81 21.87 66.365 21.87 60.16C21.87 42.225 4.445 38.74 4.445 22.25C4.445 12.645 9.46 8.735 17.45 8.735C20.85 8.735 24.335 10.18 25.27 9.5L26.12 25.905C25.015 20.635 25.015 10.52 18.385 10.52ZM31.7307 9.58499H48.1357C69.9807 9.58499 69.9807 52.68 48.4757 52.68V63.475C48.8157 66.705 50.0057 69.085 53.3207 69.085H36.9157H31.7307C35.8957 69.085 36.8307 65.26 36.6607 60.585V18C36.8307 13.325 35.8957 9.58499 31.7307 9.58499ZM48.9857 50.725C54.5957 50.725 54.5957 10.86 48.4757 10.86V50.725H48.9857ZM96.8679 8.735C136.988 8.735 137.158 69.68 96.8679 69.68C56.5779 69.68 56.5779 8.735 96.8679 8.735ZM114.038 62.285C133.758 46.9 99.5029 0.914995 79.7829 16.3C59.5529 31.94 94.4029 77.415 114.038 62.285ZM147.321 48.6C151.061 52.255 153.271 60.5 160.496 56.335L160.666 69.085C146.896 69.17 147.916 50.64 144.516 49.025V63.475C144.856 66.705 146.046 69.085 149.361 69.085H127.771C131.936 69.085 132.871 65.26 132.701 60.585V18C132.871 13.325 131.936 9.58499 127.771 9.58499H144.176C165.001 9.58499 166.021 45.37 147.321 48.6ZM145.026 46.985C150.636 46.985 150.636 10.86 144.516 10.86V46.985H145.026ZM165.425 9.58499H195.005L197.895 25.82C196.025 20.21 194.835 13.75 187.695 13.75H186.165V64.75C186.93 67.3 188.46 69.085 191.265 69.085L183.87 68.915L177.07 69.085H169.675C173.84 69.085 174.775 65.26 174.69 60.585L174.775 52.51V13.75H172.82C165.68 13.75 164.405 20.21 162.62 25.82L165.425 9.58499Z" fill="#D7A129"/>
<path d="M7.335 68.915L6.57862 68.9361L6.62768 70.6924L7.87005 69.4501L7.335 68.915ZM6.91 53.7L7.65353 53.5596L6.15362 53.7211L6.91 53.7ZM25.27 9.5L26.0257 9.46084L25.9535 8.0673L24.8249 8.88804L25.27 9.5ZM26.12 25.905L25.3794 26.0603L26.8757 25.8658L26.12 25.905ZM18.385 9.76332C15.848 9.76332 14.1576 11.1299 13.1396 12.8936C12.1405 14.6247 11.7633 16.7638 11.7633 18.51H13.2767C13.2767 16.9412 13.622 15.0853 14.4504 13.6501C15.2599 12.2476 16.502 11.2767 18.385 11.2767V9.76332ZM11.7633 18.51C11.7633 21.2003 13.0342 23.6112 14.7995 25.9351C16.5537 28.2444 18.9141 30.6096 21.1802 33.1263C25.7632 38.2162 30.2083 44.1761 30.2083 52.85H31.7217C31.7217 43.5889 26.9443 37.2663 22.3048 32.1137C19.9596 29.5091 17.7088 27.2631 16.0046 25.0196C14.3114 22.7907 13.2767 20.7072 13.2767 18.51H11.7633ZM30.2083 52.85C30.2083 57.705 28.9836 61.7006 26.6853 64.4685C24.4032 67.217 20.9945 68.8383 16.43 68.8383V70.3517C21.3855 70.3517 25.2443 68.573 27.8497 65.4353C30.4389 62.3169 31.7217 57.94 31.7217 52.85H30.2083ZM16.43 68.8383C15.8506 68.8383 15.1002 68.7242 14.2336 68.5549C13.8058 68.4713 13.363 68.377 12.9097 68.281C12.459 68.1855 11.9986 68.0884 11.5468 68.0018C10.6522 67.8304 9.74573 67.6908 8.9593 67.6908C8.20952 67.6908 7.36535 67.8145 6.79995 68.3799L7.87005 69.4501C7.98465 69.3355 8.28798 69.2042 8.9593 69.2042C9.59396 69.2042 10.3822 69.3196 11.262 69.4882C11.6973 69.5716 12.1441 69.6657 12.5961 69.7615C13.0456 69.8567 13.5013 69.9537 13.9434 70.0401C14.8167 70.2108 15.6919 70.3517 16.43 70.3517V68.8383ZM8.09138 68.8939L7.66638 53.6789L6.15362 53.7211L6.57862 68.9361L8.09138 68.8939ZM6.16647 53.8404C6.8911 57.6767 7.84417 61.3141 9.41183 64.0047C11.0007 66.7316 13.2772 68.5667 16.6 68.5667V67.0533C13.9728 67.0533 12.1268 65.6584 10.7194 63.2428C9.29083 60.7909 8.3739 57.3733 7.65353 53.5596L6.16647 53.8404ZM16.6 68.5667C18.1314 68.5667 19.7017 68.1679 20.8633 66.8021C21.9994 65.4662 22.6267 63.3388 22.6267 60.16H21.1133C21.1133 63.1862 20.5081 64.8838 19.7105 65.8217C18.9383 66.7296 17.8736 67.0533 16.6 67.0533V68.5667ZM22.6267 60.16C22.6267 50.8969 18.0978 45.3564 13.7364 40.1758C9.3612 34.979 5.20168 30.1836 5.20168 22.25H3.68832C3.68832 30.8064 8.2413 35.9985 12.5786 41.1505C16.9297 46.3186 21.1133 51.4881 21.1133 60.16H22.6267ZM5.20168 22.25C5.20168 17.5727 6.42112 14.4228 8.47725 12.4346C10.5381 10.4417 13.5675 9.49167 17.45 9.49167V7.97832C13.3425 7.97832 9.86937 8.98324 7.42525 11.3467C4.97638 13.7147 3.68832 17.3223 3.68832 22.25H5.20168ZM17.45 9.49167C19.0615 9.49167 20.7042 9.83459 22.1392 10.1151C22.8379 10.2517 23.5107 10.3779 24.073 10.4217C24.3562 10.4438 24.6407 10.4477 24.9052 10.4124C25.1657 10.3776 25.4592 10.298 25.7151 10.1119L24.8249 8.88804C24.847 8.87197 24.8271 8.89601 24.7048 8.91234C24.5865 8.92815 24.4187 8.93072 24.1906 8.91295C23.7303 8.87708 23.144 8.76954 22.4296 8.62987C21.0383 8.3579 19.2385 7.97832 17.45 7.97832V9.49167ZM24.5143 9.53915L25.3643 25.9442L26.8757 25.8658L26.0257 9.46084L24.5143 9.53915ZM26.8606 25.7497C26.59 24.4591 26.3891 22.8823 26.1255 21.1632C25.8657 19.4681 25.5485 17.6649 25.0485 16.0166C24.5506 14.3751 23.8526 12.8215 22.7917 11.6701C21.7065 10.4923 20.265 9.76332 18.385 9.76332V11.2767C19.82 11.2767 20.8647 11.812 21.6788 12.6955C22.5171 13.6054 23.1313 14.9099 23.6003 16.4559C24.0672 17.9951 24.3715 19.7088 24.6296 21.3925C24.8841 23.0521 25.0975 24.7159 25.3794 26.0603L26.8606 25.7497ZM48.4757 52.68V51.9233H47.719V52.68H48.4757ZM48.4757 63.475H47.719V63.5147L47.7231 63.5542L48.4757 63.475ZM36.6607 60.585H35.904V60.5988L35.9045 60.6125L36.6607 60.585ZM36.6607 18L35.9045 17.9725L35.904 17.9862V18H36.6607ZM48.4757 10.86V10.1033H47.719V10.86H48.4757ZM48.4757 50.725H47.719V51.4817H48.4757V50.725ZM31.7307 10.3417H48.1357V8.82832H31.7307V10.3417ZM48.1357 10.3417C53.3081 10.3417 57.1845 12.8772 59.8023 16.7429C62.4353 20.6311 63.7844 25.8617 63.8052 31.1355C63.826 36.4094 62.5181 41.6402 59.9366 45.5278C57.3699 49.3931 53.5578 51.9233 48.4757 51.9233V53.4367C54.146 53.4367 58.3983 50.5801 61.1973 46.365C63.9813 42.1723 65.3403 36.6294 65.3186 31.1295C65.2969 25.6295 63.8941 20.0864 61.0553 15.8943C58.2012 11.6797 53.8858 8.82832 48.1357 8.82832V10.3417ZM47.719 52.68V63.475H49.2323V52.68H47.719ZM47.7231 63.5542C47.8984 65.2192 48.3012 66.7855 49.1787 67.9473C50.0915 69.1558 51.4527 69.8417 53.3207 69.8417V68.3283C51.8737 68.3283 50.9823 67.8242 50.3863 67.0352C49.7552 66.1995 49.3929 64.9608 49.2282 63.3958L47.7231 63.5542ZM53.3207 68.3283H36.9157V69.8417H53.3207V68.3283ZM36.9157 68.3283H31.7307V69.8417H36.9157V68.3283ZM31.7307 69.8417C32.8911 69.8417 33.8785 69.5738 34.6915 69.0506C35.5033 68.5281 36.0902 67.784 36.5046 66.9133C37.3192 65.2014 37.5029 62.9232 37.4168 60.5575L35.9045 60.6125C35.9885 62.9218 35.7896 64.8936 35.138 66.263C34.8192 66.9329 34.4021 67.4372 33.8725 67.778C33.3441 68.1181 32.6527 68.3283 31.7307 68.3283V69.8417ZM37.4173 60.585V18H35.904V60.585H37.4173ZM37.4168 18.0275C37.5028 15.6626 37.3195 13.4033 36.5028 11.7105C36.087 10.8488 35.4984 10.1158 34.6861 9.60268C33.8735 9.08936 32.8879 8.82832 31.7307 8.82832V10.3417C32.6559 10.3417 33.3491 10.5481 33.8779 10.8822C34.407 11.2164 34.8225 11.7105 35.1398 12.3682C35.7893 13.7142 35.9885 15.6624 35.9045 17.9725L37.4168 18.0275ZM48.9857 51.4817C49.5813 51.4817 50.0877 51.2116 50.4934 50.8253C50.8913 50.4466 51.2235 49.9295 51.5072 49.3404C52.0751 48.1611 52.5261 46.5272 52.8773 44.6341C53.5823 40.8339 53.9181 35.7994 53.8861 30.7877C53.854 25.7766 53.4538 20.7394 52.6671 16.9356C52.2752 15.0406 51.7777 13.4027 51.1541 12.22C50.5576 11.0887 49.6962 10.1033 48.4757 10.1033V11.6167C48.7851 11.6167 49.2625 11.8771 49.8154 12.9259C50.3414 13.9233 50.8041 15.3999 51.1851 17.2422C51.9444 20.9131 52.3411 25.8422 52.3728 30.7973C52.4044 35.7518 52.071 40.6836 51.3893 44.3581C51.0472 46.2023 50.6257 47.6829 50.1437 48.6837C49.9025 49.1847 49.6654 49.5241 49.4499 49.7293C49.2423 49.927 49.0913 49.9683 48.9857 49.9683V51.4817ZM47.719 10.86V50.725H49.2323V10.86H47.719ZM48.4757 51.4817H48.9857V49.9683H48.4757V51.4817ZM114.038 62.285L114.5 62.8844L114.503 62.8816L114.038 62.285ZM79.7829 16.3L80.2457 16.8986L80.2483 16.8966L79.7829 16.3ZM96.8679 9.49167C106.689 9.49167 114.012 13.2137 118.891 18.7576C123.783 24.3159 126.255 31.7495 126.265 39.2086C126.275 46.6676 123.824 54.1003 118.939 59.6577C114.066 65.2006 106.733 68.9233 96.8679 68.9233V70.4367C107.148 70.4367 114.902 66.5413 120.075 60.6569C125.236 54.7872 127.789 46.9837 127.778 39.2064C127.767 31.4292 125.192 23.6266 120.027 17.7578C114.85 11.8744 107.106 7.97832 96.8679 7.97832V9.49167ZM96.8679 68.9233C87.003 68.9233 79.6587 65.2005 74.7724 59.657C69.8734 54.0991 67.4071 46.6661 67.4071 39.2075C67.4071 31.7489 69.8734 24.3159 74.7724 18.758C79.6587 13.2145 87.003 9.49167 96.8679 9.49167V7.97832C86.5878 7.97832 78.8233 11.8736 73.6371 17.7573C68.4636 23.6266 65.8937 31.4299 65.8937 39.2075C65.8937 46.9851 68.4636 54.7884 73.6371 60.6577C78.8233 66.5414 86.5878 70.4367 96.8679 70.4367V68.9233ZM114.503 62.8816C119.701 58.8264 121.297 52.7693 120.529 46.3558C119.763 39.9581 116.646 33.1263 112.307 27.3017C107.969 21.4779 102.355 16.5878 96.5211 14.1336C90.6671 11.6709 84.5208 11.6439 79.3174 15.7034L80.2483 16.8966C84.905 13.2636 90.4355 13.2153 95.9343 15.5286C101.453 17.8503 106.868 22.5333 111.094 28.2058C115.318 33.8774 118.3 40.465 119.027 46.5357C119.752 52.5907 118.235 58.0511 113.572 61.6884L114.503 62.8816ZM79.3201 15.7014C73.9983 19.8157 72.3369 25.8851 73.088 32.2989C73.8367 38.6927 76.9804 45.4946 81.3573 51.2874C85.734 57.08 91.3987 61.936 97.2662 64.3807C103.151 66.8325 109.316 66.8785 114.5 62.8844L113.576 61.6856C108.942 65.2565 103.388 65.2919 97.8482 62.9837C92.2911 60.6684 86.8261 56.015 82.5647 50.3751C78.3035 44.7354 75.3006 38.1817 74.5911 32.1229C73.8839 26.0843 75.4525 20.6043 80.2457 16.8986L79.3201 15.7014ZM147.321 48.6L147.192 47.8544L145.733 48.1064L146.792 49.1412L147.321 48.6ZM160.496 56.335L161.252 56.3249L161.235 55.0353L160.118 55.6794L160.496 56.335ZM160.666 69.085L160.67 69.8417L161.432 69.837L161.422 69.0749L160.666 69.085ZM144.516 49.025L144.84 48.3415L143.759 47.8279V49.025H144.516ZM144.516 63.475H143.759V63.5147L143.763 63.5542L144.516 63.475ZM132.701 60.585H131.944V60.5988L131.945 60.6125L132.701 60.585ZM132.701 18L131.945 17.9725L131.944 17.9862V18H132.701ZM144.516 10.86V10.1033H143.759V10.86H144.516ZM144.516 46.985H143.759V47.7417H144.516V46.985ZM146.792 49.1412C147.666 49.9951 148.464 51.1326 149.319 52.367C150.155 53.5745 151.044 54.8732 152.056 55.9248C153.075 56.9826 154.278 57.8557 155.773 58.1408C157.281 58.4282 158.958 58.0949 160.874 56.9906L160.118 55.6794C158.421 56.6576 157.113 56.8556 156.057 56.6542C154.989 56.4506 154.051 55.8149 153.146 54.8752C152.236 53.9293 151.419 52.7417 150.563 51.5055C149.726 50.2961 148.846 49.0324 147.85 48.0588L146.792 49.1412ZM159.739 56.3451L159.909 69.0951L161.422 69.0749L161.252 56.3249L159.739 56.3451ZM160.661 68.3283C157.41 68.3484 155.077 67.2775 153.325 65.6579C151.551 64.0188 150.333 61.7806 149.406 59.4163C148.475 57.0409 147.873 54.6421 147.261 52.6323C146.961 51.6464 146.653 50.7404 146.3 50.0208C145.96 49.3264 145.508 48.6586 144.84 48.3415L144.191 49.7085C144.373 49.7951 144.634 50.0597 144.942 50.6875C145.237 51.29 145.516 52.0959 145.813 53.073C146.397 54.9892 147.038 57.5204 147.997 59.9687C148.962 62.4281 150.283 64.9075 152.298 66.7693C154.333 68.6506 157.037 69.8641 160.67 69.8417L160.661 68.3283ZM143.759 49.025V63.475H145.272V49.025H143.759ZM143.763 63.5542C143.938 65.2192 144.341 66.7855 145.219 67.9473C146.132 69.1558 147.493 69.8417 149.361 69.8417V68.3283C147.914 68.3283 147.022 67.8242 146.426 67.0352C145.795 66.1995 145.433 64.9608 145.268 63.3958L143.763 63.5542ZM149.361 68.3283H127.771V69.8417H149.361V68.3283ZM127.771 69.8417C128.931 69.8417 129.919 69.5738 130.732 69.0506C131.543 68.5281 132.13 67.784 132.545 66.9133C133.359 65.2014 133.543 62.9232 133.457 60.5575L131.945 60.6125C132.029 62.9218 131.83 64.8936 131.178 66.263C130.859 66.9329 130.442 67.4372 129.913 67.778C129.384 68.1181 128.693 68.3283 127.771 68.3283V69.8417ZM133.457 60.585V18H131.944V60.585H133.457ZM133.457 18.0275C133.543 15.6626 133.36 13.4033 132.543 11.7105C132.127 10.8488 131.538 10.1158 130.726 9.60268C129.914 9.08936 128.928 8.82832 127.771 8.82832V10.3417C128.696 10.3417 129.389 10.5481 129.918 10.8822C130.447 11.2164 130.863 11.7105 131.18 12.3682C131.829 13.7142 132.029 15.6624 131.945 17.9725L133.457 18.0275ZM127.771 10.3417H144.176V8.82832H127.771V10.3417ZM144.176 10.3417C149.138 10.3417 152.894 12.4623 155.492 15.7004C158.105 18.9578 159.561 23.3708 159.815 27.9233C160.326 37.103 155.985 46.3356 147.192 47.8544L147.449 49.3456C157.357 47.6344 161.856 37.3595 161.326 27.8392C161.058 23.0417 159.523 18.3066 156.673 14.7534C153.806 11.1808 149.626 8.82832 144.176 8.82832V10.3417ZM145.026 47.7417C146.178 47.7417 146.985 46.8211 147.534 45.7878C148.108 44.7062 148.562 43.2132 148.915 41.4922C149.622 38.0366 149.958 33.4645 149.926 28.9172C149.894 24.3705 149.493 19.7955 148.704 16.3362C148.311 14.613 147.81 13.1161 147.179 12.0317C146.565 10.9771 145.699 10.1033 144.516 10.1033V11.6167C144.863 11.6167 145.335 11.8718 145.871 12.7928C146.389 13.684 146.849 15.0094 147.228 16.6729C147.985 19.987 148.381 24.4432 148.413 28.9278C148.444 33.4117 148.111 37.8709 147.432 41.1887C147.091 42.8544 146.672 44.1837 146.197 45.0777C145.697 46.02 145.276 46.2283 145.026 46.2283V47.7417ZM143.759 10.86V46.985H145.272V10.86H143.759ZM144.516 47.7417H145.026V46.2283H144.516V47.7417ZM165.425 9.58499V8.82832H164.788L164.679 9.45617L165.425 9.58499ZM195.005 9.58499L195.75 9.45238L195.639 8.82832H195.005V9.58499ZM197.895 25.82L197.177 26.0593L198.64 25.6874L197.895 25.82ZM186.165 13.75V12.9933H185.408V13.75H186.165ZM186.165 64.75H185.408V64.8611L185.44 64.9674L186.165 64.75ZM191.265 69.085V69.8417L191.282 68.3285L191.265 69.085ZM183.87 68.915L183.887 68.1585L183.869 68.1581L183.851 68.1586L183.87 68.915ZM177.07 69.085V69.8417H177.079L177.089 69.8414L177.07 69.085ZM174.69 60.585L173.933 60.577L173.933 60.5879L173.933 60.5988L174.69 60.585ZM174.775 52.51L175.532 52.518V52.51H174.775ZM174.775 13.75H175.532V12.9933H174.775V13.75ZM162.62 25.82L161.874 25.6912L163.341 26.0494L162.62 25.82ZM165.425 10.3417H195.005V8.82832H165.425V10.3417ZM194.26 9.71761L197.15 25.9526L198.64 25.6874L195.75 9.45238L194.26 9.71761ZM198.613 25.5807C197.706 22.8606 196.9 19.6996 195.416 17.285C194.659 16.0537 193.704 14.9711 192.43 14.1998C191.152 13.4259 189.6 12.9933 187.695 12.9933V14.5067C189.36 14.5067 190.634 14.8816 191.646 15.4943C192.662 16.1095 193.46 16.9926 194.127 18.0775C195.49 20.2954 196.214 23.1694 197.177 26.0593L198.613 25.5807ZM187.695 12.9933H186.165V14.5067H187.695V12.9933ZM185.408 13.75V64.75H186.922V13.75H185.408ZM185.44 64.9674C185.846 66.3205 186.475 67.5421 187.437 68.4298C188.415 69.3327 189.686 69.8417 191.265 69.8417V68.3283C190.039 68.3283 189.143 67.9448 188.463 67.3177C187.767 66.6754 187.249 65.7295 186.89 64.5326L185.44 64.9674ZM191.282 68.3285L183.887 68.1585L183.853 69.6715L191.248 69.8415L191.282 68.3285ZM183.851 68.1586L177.051 68.3286L177.089 69.8414L183.889 69.6714L183.851 68.1586ZM177.07 68.3283H169.675V69.8417H177.07V68.3283ZM169.675 69.8417C170.836 69.8417 171.823 69.5737 172.637 69.051C173.449 68.5291 174.038 67.7861 174.458 66.9171C175.282 65.2088 175.49 62.9331 175.447 60.5712L173.933 60.5988C173.976 62.9119 173.758 64.8862 173.095 66.2592C172.771 66.9308 172.35 67.4362 171.819 67.7776C171.289 68.1181 170.597 68.3283 169.675 68.3283V69.8417ZM175.447 60.593L175.532 52.518L174.018 52.502L173.933 60.577L175.447 60.593ZM175.532 52.51V13.75H174.018V52.51H175.532ZM174.775 12.9933H172.82V14.5067H174.775V12.9933ZM172.82 12.9933C170.915 12.9933 169.359 13.4258 168.075 14.1988C166.795 14.9693 165.831 16.051 165.069 17.2829C163.57 19.7032 162.768 22.8593 161.899 25.5906L163.341 26.0494C164.257 23.1707 164.985 20.2918 166.355 18.0796C167.027 16.9953 167.832 16.1113 168.855 15.4953C169.875 14.8817 171.155 14.5067 172.82 14.5067V12.9933ZM163.366 25.9488L166.171 9.71382L164.679 9.45617L161.874 25.6912L163.366 25.9488Z" fill="white" mask="url(#path-1-outside-1_924_1882)"/>
</g>
<defs>
<filter id="filter0_d_924_1882" x="0.444824" y="0.915039" width="201.45" height="84.5" filterUnits="userSpaceOnUse" color-interpolation-filters="sRGB">
<feFlood flood-opacity="0" result="BackgroundImageFix"/>
<feColorMatrix in="SourceAlpha" type="matrix" values="0 0 0 0 0 0 0 0 0 0 0 0 0 0 0 0 0 0 127 0" result="hardAlpha"/>
<feOffset dy="4"/>
<feGaussianBlur stdDeviation="2"/>
<feComposite in2="hardAlpha" operator="out"/>
<feColorMatrix type="matrix" values="0 0 0 0 0 0 0 0 0 0 0 0 0 0 0 0 0 0 0.25 0"/>
<feBlend mode="normal" in2="BackgroundImageFix" result="effect1_dropShadow_924_1882"/>
<feBlend mode="normal" in="SourceGraphic" in2="effect1_dropShadow_924_1882" result="shape"/>
</filter>
</defs>
</svg>
