<svg width="217" height="48" viewBox="0 0 217 48" fill="none" xmlns="http://www.w3.org/2000/svg">
<g filter="url(#filter0_d_924_1874)">
<mask id="path-1-outside-1_924_1874" maskUnits="userSpaceOnUse" x="4" y="1" width="210" height="34" fill="black">
<rect fill="white" x="4" y="1" width="210" height="34"/>
<path d="M6.333 2.943H21.297L22.759 11.156C21.813 8.318 21.211 5.05 17.599 5.05H16.825V30.85C17.212 32.14 17.986 33.043 19.405 33.043L15.664 32.957L12.224 33.043H8.483C10.59 33.043 11.063 31.108 11.02 28.743L11.063 24.658V5.05H10.074C6.462 5.05 5.817 8.318 4.914 11.156L6.333 2.943ZM33.7717 2.943H44.7367C42.8447 3.072 42.1997 4.835 42.1997 6.641V28.743C42.1997 31.022 42.8447 32.871 44.7367 33.043H33.7717C35.5347 32.871 36.2657 31.28 36.3087 29.302V17.348H31.1917V29.775C31.4067 31.538 32.0947 32.871 33.6857 33.043H23.0217C24.3117 32.914 25.0427 32.011 25.3867 30.721V5.222C25.0427 3.932 24.3117 3.029 23.0217 2.943H33.6857C32.0947 3.072 31.4067 4.405 31.1917 6.168V16.574H36.3087V6.641C36.2657 4.663 35.5347 3.072 33.7717 2.943ZM53.4036 28.743C53.4036 31.022 54.0486 32.871 55.9406 33.043H45.2766C46.9966 32.871 47.7276 31.28 47.8136 29.302V6.641C47.7276 4.663 46.9966 3.072 45.2766 2.943H55.9406C54.0486 3.072 53.4466 4.921 53.4036 7.2V28.743ZM67.8835 23.11V5.824C67.7115 4.233 67.0665 2.943 65.4325 2.943H71.4525C69.3455 2.943 68.8725 4.835 68.9585 7.2L68.8725 33.086H64.1425L59.8855 12.016L60.0145 28.743C59.9715 31.108 60.4445 33.043 62.5515 33.043H56.4885C58.0365 33.043 58.7245 32.011 58.9395 30.549L58.7245 7.071C58.8105 4.706 58.3375 2.943 56.2305 2.943H63.5405L67.8835 23.11ZM86.7037 20.917H86.7467L102.055 21.003C99.9477 27.711 95.2177 33.301 87.4777 33.301C66.6657 33.301 66.4507 2.47 86.5747 2.47C93.6697 2.47 98.3137 6.254 100.464 11.113L94.0997 18.939C94.7447 9.221 85.4997 0.534998 79.1787 5.136C69.3317 12.231 85.4997 39.407 94.7877 30.42C97.8407 27.453 94.1857 21.046 86.7037 20.917ZM110.226 21.562L109.925 22.422V28.743C109.925 31.022 110.57 32.871 112.462 33.043H101.798C103.518 32.871 104.249 31.28 104.335 29.302V6.512C104.249 4.491 103.518 2.943 101.798 2.943H112.462C110.57 2.943 109.968 4.792 109.925 7.071V20.014L114.397 6.684C115.558 3.502 113.494 2.943 112.978 2.943H119.084C117.45 3.029 116.289 4.018 115.343 6.77L112.978 13.607L118.095 29.173C119.041 31.323 120.202 33 122.266 33.043L113.451 32.957L110.226 21.562ZM130.291 28.743C130.291 31.022 130.936 32.871 132.828 33.043H122.164C123.884 32.871 124.615 31.28 124.701 29.302V6.641C124.615 4.663 123.884 3.072 122.164 2.943H132.828C130.936 3.072 130.334 4.921 130.291 7.2V28.743ZM144.771 23.11V5.824C144.599 4.233 143.954 2.943 142.32 2.943H148.34C146.233 2.943 145.76 4.835 145.846 7.2L145.76 33.086H141.03L136.773 12.016L136.902 28.743C136.859 31.108 137.332 33.043 139.439 33.043H133.376C134.924 33.043 135.612 32.011 135.827 30.549L135.612 7.071C135.698 4.706 135.225 2.943 133.118 2.943H140.428L144.771 23.11ZM163.591 20.917H163.634L178.942 21.003C176.835 27.711 172.105 33.301 164.365 33.301C143.553 33.301 143.338 2.47 163.462 2.47C170.557 2.47 175.201 6.254 177.351 11.113L170.987 18.939C171.632 9.221 162.387 0.534998 156.066 5.136C146.219 12.231 162.387 39.407 171.675 30.42C174.728 27.453 171.073 21.046 163.591 20.917ZM210.07 30.119L212.564 31.237V32.613H206.63L204.824 29.302C203.878 30.721 202.889 31.71 201.9 32.226C200.868 32.742 199.793 33 198.675 33C196.568 33 195.02 32.355 193.988 31.022C192.956 29.689 192.44 27.84 192.44 25.561C192.44 24.357 192.569 23.282 192.913 22.336C193.257 21.39 193.773 20.444 194.461 19.541C195.149 18.595 196.224 17.391 197.6 15.929L197.428 15.671C196.095 13.177 195.407 10.941 195.407 8.92C195.407 7.587 195.665 6.383 196.181 5.351C196.697 4.362 197.342 3.588 198.159 3.029C198.976 2.47 199.793 2.212 200.653 2.212C201.814 2.212 202.76 2.685 203.534 3.588C204.308 4.534 204.695 5.695 204.695 7.157C204.695 9.436 203.62 11.801 201.47 14.166L206.286 23.11C206.845 21.261 207.146 19.412 207.146 17.52C207.146 16.961 207.06 16.574 206.974 16.359C206.888 16.144 206.716 15.972 206.415 15.843C206.114 15.714 205.641 15.542 204.91 15.413V13.779H211.532V15.413C210.887 15.542 210.371 15.671 210.07 15.843C209.726 16.058 209.511 16.273 209.382 16.574C209.253 16.875 209.124 17.348 209.038 17.95C208.866 18.853 208.608 19.885 208.307 21.089C207.963 22.293 207.576 23.454 207.146 24.658L210.07 30.119ZM199.32 4.706C199.019 5.222 198.847 5.996 198.847 6.985C198.847 7.845 198.976 8.662 199.234 9.522C199.492 10.339 199.965 11.371 200.61 12.575C201.126 11.887 201.47 11.156 201.642 10.425C201.857 9.694 201.943 8.877 201.943 7.888C201.943 6.512 201.814 5.48 201.513 4.878C201.212 4.233 200.825 3.932 200.352 3.932C199.965 3.932 199.621 4.19 199.32 4.706ZM202.072 29.517C202.76 29.13 203.405 28.528 203.964 27.754L198.374 17.391C197.729 18.208 197.17 19.068 196.783 20.057C196.396 21.046 196.181 22.207 196.181 23.54C196.181 24.658 196.353 25.733 196.654 26.722C196.955 27.754 197.428 28.571 197.987 29.216C198.589 29.818 199.277 30.119 200.094 30.119C200.739 30.119 201.427 29.947 202.072 29.517Z"/>
</mask>
<path d="M6.333 2.943H21.297L22.759 11.156C21.813 8.318 21.211 5.05 17.599 5.05H16.825V30.85C17.212 32.14 17.986 33.043 19.405 33.043L15.664 32.957L12.224 33.043H8.483C10.59 33.043 11.063 31.108 11.02 28.743L11.063 24.658V5.05H10.074C6.462 5.05 5.817 8.318 4.914 11.156L6.333 2.943ZM33.7717 2.943H44.7367C42.8447 3.072 42.1997 4.835 42.1997 6.641V28.743C42.1997 31.022 42.8447 32.871 44.7367 33.043H33.7717C35.5347 32.871 36.2657 31.28 36.3087 29.302V17.348H31.1917V29.775C31.4067 31.538 32.0947 32.871 33.6857 33.043H23.0217C24.3117 32.914 25.0427 32.011 25.3867 30.721V5.222C25.0427 3.932 24.3117 3.029 23.0217 2.943H33.6857C32.0947 3.072 31.4067 4.405 31.1917 6.168V16.574H36.3087V6.641C36.2657 4.663 35.5347 3.072 33.7717 2.943ZM53.4036 28.743C53.4036 31.022 54.0486 32.871 55.9406 33.043H45.2766C46.9966 32.871 47.7276 31.28 47.8136 29.302V6.641C47.7276 4.663 46.9966 3.072 45.2766 2.943H55.9406C54.0486 3.072 53.4466 4.921 53.4036 7.2V28.743ZM67.8835 23.11V5.824C67.7115 4.233 67.0665 2.943 65.4325 2.943H71.4525C69.3455 2.943 68.8725 4.835 68.9585 7.2L68.8725 33.086H64.1425L59.8855 12.016L60.0145 28.743C59.9715 31.108 60.4445 33.043 62.5515 33.043H56.4885C58.0365 33.043 58.7245 32.011 58.9395 30.549L58.7245 7.071C58.8105 4.706 58.3375 2.943 56.2305 2.943H63.5405L67.8835 23.11ZM86.7037 20.917H86.7467L102.055 21.003C99.9477 27.711 95.2177 33.301 87.4777 33.301C66.6657 33.301 66.4507 2.47 86.5747 2.47C93.6697 2.47 98.3137 6.254 100.464 11.113L94.0997 18.939C94.7447 9.221 85.4997 0.534998 79.1787 5.136C69.3317 12.231 85.4997 39.407 94.7877 30.42C97.8407 27.453 94.1857 21.046 86.7037 20.917ZM110.226 21.562L109.925 22.422V28.743C109.925 31.022 110.57 32.871 112.462 33.043H101.798C103.518 32.871 104.249 31.28 104.335 29.302V6.512C104.249 4.491 103.518 2.943 101.798 2.943H112.462C110.57 2.943 109.968 4.792 109.925 7.071V20.014L114.397 6.684C115.558 3.502 113.494 2.943 112.978 2.943H119.084C117.45 3.029 116.289 4.018 115.343 6.77L112.978 13.607L118.095 29.173C119.041 31.323 120.202 33 122.266 33.043L113.451 32.957L110.226 21.562ZM130.291 28.743C130.291 31.022 130.936 32.871 132.828 33.043H122.164C123.884 32.871 124.615 31.28 124.701 29.302V6.641C124.615 4.663 123.884 3.072 122.164 2.943H132.828C130.936 3.072 130.334 4.921 130.291 7.2V28.743ZM144.771 23.11V5.824C144.599 4.233 143.954 2.943 142.32 2.943H148.34C146.233 2.943 145.76 4.835 145.846 7.2L145.76 33.086H141.03L136.773 12.016L136.902 28.743C136.859 31.108 137.332 33.043 139.439 33.043H133.376C134.924 33.043 135.612 32.011 135.827 30.549L135.612 7.071C135.698 4.706 135.225 2.943 133.118 2.943H140.428L144.771 23.11ZM163.591 20.917H163.634L178.942 21.003C176.835 27.711 172.105 33.301 164.365 33.301C143.553 33.301 143.338 2.47 163.462 2.47C170.557 2.47 175.201 6.254 177.351 11.113L170.987 18.939C171.632 9.221 162.387 0.534998 156.066 5.136C146.219 12.231 162.387 39.407 171.675 30.42C174.728 27.453 171.073 21.046 163.591 20.917ZM210.07 30.119L212.564 31.237V32.613H206.63L204.824 29.302C203.878 30.721 202.889 31.71 201.9 32.226C200.868 32.742 199.793 33 198.675 33C196.568 33 195.02 32.355 193.988 31.022C192.956 29.689 192.44 27.84 192.44 25.561C192.44 24.357 192.569 23.282 192.913 22.336C193.257 21.39 193.773 20.444 194.461 19.541C195.149 18.595 196.224 17.391 197.6 15.929L197.428 15.671C196.095 13.177 195.407 10.941 195.407 8.92C195.407 7.587 195.665 6.383 196.181 5.351C196.697 4.362 197.342 3.588 198.159 3.029C198.976 2.47 199.793 2.212 200.653 2.212C201.814 2.212 202.76 2.685 203.534 3.588C204.308 4.534 204.695 5.695 204.695 7.157C204.695 9.436 203.62 11.801 201.47 14.166L206.286 23.11C206.845 21.261 207.146 19.412 207.146 17.52C207.146 16.961 207.06 16.574 206.974 16.359C206.888 16.144 206.716 15.972 206.415 15.843C206.114 15.714 205.641 15.542 204.91 15.413V13.779H211.532V15.413C210.887 15.542 210.371 15.671 210.07 15.843C209.726 16.058 209.511 16.273 209.382 16.574C209.253 16.875 209.124 17.348 209.038 17.95C208.866 18.853 208.608 19.885 208.307 21.089C207.963 22.293 207.576 23.454 207.146 24.658L210.07 30.119ZM199.32 4.706C199.019 5.222 198.847 5.996 198.847 6.985C198.847 7.845 198.976 8.662 199.234 9.522C199.492 10.339 199.965 11.371 200.61 12.575C201.126 11.887 201.47 11.156 201.642 10.425C201.857 9.694 201.943 8.877 201.943 7.888C201.943 6.512 201.814 5.48 201.513 4.878C201.212 4.233 200.825 3.932 200.352 3.932C199.965 3.932 199.621 4.19 199.32 4.706ZM202.072 29.517C202.76 29.13 203.405 28.528 203.964 27.754L198.374 17.391C197.729 18.208 197.17 19.068 196.783 20.057C196.396 21.046 196.181 22.207 196.181 23.54C196.181 24.658 196.353 25.733 196.654 26.722C196.955 27.754 197.428 28.571 197.987 29.216C198.589 29.818 199.277 30.119 200.094 30.119C200.739 30.119 201.427 29.947 202.072 29.517Z" fill="#D7A129"/>
<path d="M6.333 2.943V2.18632H5.69585L5.58737 2.81417L6.333 2.943ZM21.297 2.943L22.042 2.81039L21.9309 2.18632H21.297V2.943ZM22.759 11.156L22.0412 11.3953L23.504 11.0234L22.759 11.156ZM16.825 5.05V4.29332H16.0683V5.05H16.825ZM16.825 30.85H16.0683V30.9611L16.1002 31.0674L16.825 30.85ZM19.405 33.043V33.7997L19.4224 32.2865L19.405 33.043ZM15.664 32.957L15.6814 32.2005L15.6632 32.2001L15.6451 32.2006L15.664 32.957ZM12.224 33.043V33.7997H12.2335L12.2429 33.7994L12.224 33.043ZM11.02 28.743L10.2634 28.735L10.2632 28.7459L10.2634 28.7568L11.02 28.743ZM11.063 24.658L11.8197 24.666V24.658H11.063ZM11.063 5.05H11.8197V4.29332H11.063V5.05ZM4.914 11.156L4.16837 11.0272L5.63506 11.3854L4.914 11.156ZM6.333 3.69968H21.297V2.18632H6.333V3.69968ZM20.552 3.07561L22.014 11.2886L23.504 11.0234L22.042 2.81039L20.552 3.07561ZM23.4768 10.9167C23.0321 9.58261 22.6041 7.91257 21.8234 6.64251C21.4183 5.98342 20.8961 5.38651 20.188 4.95772C19.4757 4.52637 18.6216 4.29332 17.599 4.29332V5.80668C18.3824 5.80668 18.9581 5.98213 19.4041 6.25222C19.8543 6.52487 20.219 6.92233 20.5341 7.43499C21.1939 8.50843 21.5399 9.89139 22.0412 11.3953L23.4768 10.9167ZM17.599 4.29332H16.825V5.80668H17.599V4.29332ZM16.0683 5.05V30.85H17.5817V5.05H16.0683ZM16.1002 31.0674C16.3172 31.7905 16.6627 32.4766 17.2148 32.9863C17.7835 33.5112 18.5189 33.7997 19.405 33.7997V32.2863C18.8721 32.2863 18.511 32.1233 18.2412 31.8742C17.9548 31.6099 17.7198 31.1995 17.5498 30.6326L16.1002 31.0674ZM19.4224 32.2865L15.6814 32.2005L15.6466 33.7135L19.3876 33.7995L19.4224 32.2865ZM15.6451 32.2006L12.2051 32.2866L12.2429 33.7994L15.6829 33.7134L15.6451 32.2006ZM12.224 32.2863H8.483V33.7997H12.224V32.2863ZM8.483 33.7997C9.12913 33.7997 9.70141 33.6499 10.1833 33.3404C10.6637 33.0318 11.0034 32.5972 11.2392 32.1088C11.6964 31.1618 11.7985 29.9361 11.7766 28.7292L10.2634 28.7568C10.2845 29.9149 10.1716 30.8392 9.87632 31.4509C9.73583 31.7419 9.56494 31.9389 9.36542 32.067C9.16734 32.1943 8.89037 32.2863 8.483 32.2863V33.7997ZM11.7766 28.751L11.8196 24.666L10.3064 24.65L10.2634 28.735L11.7766 28.751ZM11.8197 24.658V5.05H10.3063V24.658H11.8197ZM11.063 4.29332H10.074V5.80668H11.063V4.29332ZM10.074 4.29332C9.05142 4.29332 8.19546 4.52633 7.48062 4.95672C6.76986 5.38465 6.24332 5.9807 5.83481 6.64037C5.04475 7.91617 4.62098 9.5813 4.19294 10.9266L5.63506 11.3854C6.11002 9.8927 6.46025 8.50483 7.12144 7.43713C7.43856 6.92505 7.80695 6.52672 8.26122 6.25322C8.71142 5.98217 9.29058 5.80668 10.074 5.80668V4.29332ZM5.65963 11.2848L7.07863 3.07182L5.58737 2.81417L4.16837 11.0272L5.65963 11.2848ZM33.7717 2.943V2.18632L33.7165 3.69766L33.7717 2.943ZM44.7367 2.943L44.7882 3.69792L44.7367 2.18632V2.943ZM44.7367 33.043V33.7997L44.8052 32.2894L44.7367 33.043ZM33.7717 33.043L33.6982 32.2899L33.7717 33.7997V33.043ZM36.3087 29.302L37.0652 29.3184L37.0654 29.3102V29.302H36.3087ZM36.3087 17.348H37.0654V16.5913H36.3087V17.348ZM31.1917 17.348V16.5913H30.435V17.348H31.1917ZM31.1917 29.775H30.435V29.821L30.4406 29.8666L31.1917 29.775ZM33.6857 33.043V33.7997L33.767 32.2907L33.6857 33.043ZM23.0217 33.043L22.9464 32.2901L23.0217 33.7997V33.043ZM25.3867 30.721L26.1178 30.916L26.1434 30.8202V30.721H25.3867ZM25.3867 5.222H26.1434V5.12284L26.1178 5.02703L25.3867 5.222ZM23.0217 2.943V2.18632L22.9714 3.698L23.0217 2.943ZM33.6857 2.943L33.7469 3.6972L33.6857 2.18632V2.943ZM31.1917 6.168L30.4406 6.0764L30.435 6.12203V6.168H31.1917ZM31.1917 16.574H30.435V17.3307H31.1917V16.574ZM36.3087 16.574V17.3307H37.0654V16.574H36.3087ZM36.3087 6.641H37.0654V6.63277L37.0652 6.62455L36.3087 6.641ZM33.7717 3.69968H44.7367V2.18632H33.7717V3.69968ZM44.6852 2.18807C43.4671 2.27112 42.6176 2.90225 42.1049 3.78218C41.6145 4.62376 41.443 5.66525 41.443 6.641H42.9564C42.9564 5.81075 43.1074 5.06773 43.4125 4.54407C43.6953 4.05875 44.1143 3.74387 44.7882 3.69792L44.6852 2.18807ZM41.443 6.641V28.743H42.9564V6.641H41.443ZM41.443 28.743C41.443 29.9344 41.6084 31.1067 42.0867 32.0309C42.5879 32.9995 43.4336 33.6843 44.6682 33.7966L44.8052 32.2894C44.1478 32.2297 43.725 31.904 43.4307 31.3354C43.1135 30.7223 42.9564 29.8306 42.9564 28.743H41.443ZM44.7367 32.2863H33.7717V33.7997H44.7367V32.2863ZM33.8452 33.7961C34.9773 33.6857 35.8057 33.1012 36.3303 32.2452C36.8348 31.4221 37.0421 30.3811 37.0652 29.3184L35.5522 29.2856C35.5323 30.2009 35.3526 30.9444 35.0401 31.4543C34.7477 31.9313 34.3291 32.2283 33.6982 32.2899L33.8452 33.7961ZM37.0654 29.302V17.348H35.552V29.302H37.0654ZM36.3087 16.5913H31.1917V18.1047H36.3087V16.5913ZM30.435 17.348V29.775H31.9484V17.348H30.435ZM30.4406 29.8666C30.5553 30.8069 30.804 31.7184 31.3004 32.436C31.818 33.1845 32.5815 33.6847 33.6044 33.7953L33.767 32.2907C33.1989 32.2293 32.8229 31.977 32.545 31.5752C32.2459 31.1426 32.0432 30.5061 31.9428 29.6834L30.4406 29.8666ZM33.6857 32.2863H23.0217V33.7997H33.6857V32.2863ZM23.097 33.7959C23.9169 33.7139 24.5903 33.3774 25.1048 32.8414C25.6071 32.3182 25.9245 31.641 26.1178 30.916L24.6556 30.526C24.5049 31.091 24.2848 31.5103 24.0131 31.7934C23.7536 32.0636 23.4166 32.2431 22.9464 32.2901L23.097 33.7959ZM26.1434 30.721V5.222H24.63V30.721H26.1434ZM26.1178 5.02703C25.9248 4.30308 25.6071 3.62315 25.1013 3.10332C24.5814 2.569 23.8998 2.24318 23.072 2.18799L22.9714 3.698C23.4336 3.72882 23.7625 3.89749 24.0166 4.15867C24.2848 4.43435 24.5046 4.85091 24.6556 5.41697L26.1178 5.02703ZM23.0217 3.69968H33.6857V2.18632H23.0217V3.69968ZM33.6246 2.18879C32.5948 2.27229 31.8238 2.76251 31.3023 3.50961C30.8038 4.22356 30.5551 5.13712 30.4406 6.0764L31.9428 6.2596C32.0433 5.43588 32.2461 4.80143 32.5431 4.37589C32.8171 3.98349 33.1856 3.74271 33.7469 3.6972L33.6246 2.18879ZM30.435 6.168V16.574H31.9484V6.168H30.435ZM31.1917 17.3307H36.3087V15.8173H31.1917V17.3307ZM37.0654 16.574V6.641H35.552V16.574H37.0654ZM37.0652 6.62455C37.0421 5.56278 36.8351 4.52008 36.3289 3.70088C35.8009 2.84639 34.9654 2.27164 33.8269 2.18834L33.7165 3.69766C34.341 3.74335 34.7525 4.02861 35.0415 4.49636C35.3523 4.99942 35.5323 5.74122 35.5522 6.65744L37.0652 6.62455ZM55.9406 33.043V33.7997L56.0091 32.2894L55.9406 33.043ZM45.2766 33.043L45.2013 32.2901L45.2766 33.7997V33.043ZM47.8136 29.302L48.5695 29.3349L48.5702 29.3184V29.302H47.8136ZM47.8136 6.641H48.5702V6.62456L48.5695 6.60813L47.8136 6.641ZM45.2766 2.943V2.18632L45.22 3.69756L45.2766 2.943ZM55.9406 2.943L55.992 3.69792L55.9406 2.18632V2.943ZM53.4036 7.2L52.647 7.18572L52.6469 7.19286V7.2H53.4036ZM52.6469 28.743C52.6469 29.9344 52.8123 31.1067 53.2905 32.0309C53.7918 32.9995 54.6374 33.6843 55.872 33.7966L56.0091 32.2894C55.3517 32.2297 54.9288 31.904 54.6346 31.3354C54.3173 30.7223 54.1602 29.8306 54.1602 28.743H52.6469ZM55.9406 32.2863H45.2766V33.7997H55.9406V32.2863ZM45.3518 33.7959C46.4689 33.6842 47.2826 33.0941 47.803 32.2452C48.3039 31.4279 48.5235 30.393 48.5695 29.3349L47.0576 29.2691C47.0176 30.189 46.8287 30.9386 46.5127 31.4543C46.216 31.9384 45.8042 32.2298 45.2013 32.2901L45.3518 33.7959ZM48.5702 29.302V6.641H47.0569V29.302H48.5702ZM48.5695 6.60813C48.5236 5.55084 48.3041 4.51433 47.8015 3.70088C47.278 2.85356 46.4571 2.27273 45.3331 2.18844L45.22 3.69756C45.8161 3.74226 46.2206 4.02143 46.5141 4.49636C46.8285 5.00517 47.0176 5.75315 47.0576 6.67387L48.5695 6.60813ZM45.2766 3.69968H55.9406V2.18632H45.2766V3.69968ZM55.8891 2.18807C54.6443 2.27295 53.8027 2.95256 53.3057 3.91929C52.8347 4.8356 52.6693 6.00519 52.647 7.18572L54.1601 7.21427C54.1808 6.11581 54.3379 5.2214 54.6516 4.61121C54.9394 4.05144 55.3449 3.74205 55.992 3.69792L55.8891 2.18807ZM52.6469 7.2V28.743H54.1602V7.2H52.6469ZM67.8835 23.11L67.1437 23.2693L68.6401 23.11H67.8835ZM67.8835 5.824H68.6401V5.78322L68.6358 5.74267L67.8835 5.824ZM68.9585 7.2L69.7151 7.20251L69.7152 7.1875L69.7146 7.1725L68.9585 7.2ZM68.8725 33.086V33.8427H69.6266L69.6291 33.0885L68.8725 33.086ZM64.1425 33.086L63.4008 33.2359L63.5234 33.8427H64.1425V33.086ZM59.8855 12.016L60.6272 11.8661L59.1288 12.0218L59.8855 12.016ZM60.0145 28.743L60.771 28.7568L60.7712 28.747L60.7711 28.7372L60.0145 28.743ZM58.9395 30.549L59.6881 30.6591L59.6967 30.6009L59.6961 30.5421L58.9395 30.549ZM58.7245 7.071L57.9683 7.0435L57.9677 7.06071L57.9678 7.07793L58.7245 7.071ZM63.5405 2.943L64.2802 2.7837L64.1515 2.18632H63.5405V2.943ZM68.6401 23.11V5.824H67.1268V23.11H68.6401ZM68.6358 5.74267C68.5433 4.88718 68.3161 4.01257 67.8138 3.33588C67.2812 2.6183 66.4841 2.18632 65.4325 2.18632V3.69968C66.0149 3.69968 66.3573 3.9127 66.5986 4.23787C66.8703 4.60392 67.0517 5.16982 67.1312 5.90533L68.6358 5.74267ZM65.4325 3.69968H71.4525V2.18632H65.4325V3.69968ZM71.4525 2.18632C70.8097 2.18632 70.2389 2.33187 69.7577 2.63584C69.2768 2.93963 68.9363 3.36944 68.7016 3.85579C68.2471 4.79776 68.1583 6.01764 68.2023 7.2275L69.7146 7.1725C69.6726 6.01736 69.7774 5.10874 70.0646 4.51345C70.2008 4.23118 70.3682 4.04018 70.5659 3.91531C70.7633 3.79063 71.0417 3.69968 71.4525 3.69968V2.18632ZM68.2018 7.19748L68.1158 33.0835L69.6291 33.0885L69.7151 7.20251L68.2018 7.19748ZM68.8725 32.3293H64.1425V33.8427H68.8725V32.3293ZM64.8842 32.9361L60.6272 11.8661L59.1438 12.1659L63.4008 33.2359L64.8842 32.9361ZM59.1288 12.0218L59.2578 28.7488L60.7711 28.7372L60.6421 12.0102L59.1288 12.0218ZM59.2579 28.7292C59.236 29.9361 59.3381 31.1618 59.7953 32.1088C60.031 32.5972 60.3708 33.0318 60.8512 33.3404C61.3331 33.6499 61.9053 33.7997 62.5515 33.7997V32.2863C62.1441 32.2863 61.8671 32.1943 61.6691 32.067C61.4695 31.9389 61.2986 31.7419 61.1581 31.4509C60.8629 30.8392 60.75 29.9149 60.771 28.7568L59.2579 28.7292ZM62.5515 32.2863H56.4885V33.7997H62.5515V32.2863ZM56.4885 33.7997C57.4499 33.7997 58.2251 33.4695 58.779 32.8474C59.3085 32.2527 59.5696 31.465 59.6881 30.6591L58.1908 30.4389C58.0944 31.095 57.904 31.5543 57.6487 31.8411C57.4178 32.1005 57.075 32.2863 56.4885 32.2863V33.7997ZM59.6961 30.5421L59.4811 7.06407L57.9678 7.07793L58.1828 30.5559L59.6961 30.5421ZM59.4806 7.0985C59.5245 5.89149 59.4371 4.69589 58.9756 3.77975C58.7363 3.30456 58.3907 2.89279 57.9086 2.60544C57.4289 2.31953 56.8638 2.18632 56.2305 2.18632V3.69968C56.6507 3.69968 56.9348 3.78684 57.1337 3.9054C57.3302 4.02252 57.4925 4.19931 57.624 4.46049C57.9044 5.0171 58.0104 5.88551 57.9683 7.0435L59.4806 7.0985ZM56.2305 3.69968H63.5405V2.18632H56.2305V3.69968ZM62.8007 3.1023L67.1437 23.2693L68.6232 22.9507L64.2802 2.7837L62.8007 3.1023ZM86.7037 20.917V20.1603L86.6907 21.6736L86.7037 20.917ZM86.7467 20.917L86.7509 20.1603H86.7467V20.917ZM102.055 21.003L102.777 21.2298L103.084 20.2521L102.059 20.2463L102.055 21.003ZM100.464 11.113L101.051 11.5904L101.343 11.2307L101.156 10.8068L100.464 11.113ZM94.0997 18.939L93.3447 18.8889L93.1873 21.2604L94.6868 19.4164L94.0997 18.939ZM79.1787 5.136L79.621 5.74993L79.624 5.74777L79.1787 5.136ZM94.7877 30.42L95.3139 30.9638L95.315 30.9626L94.7877 30.42ZM86.7037 21.6737H86.7467V20.1603H86.7037V21.6737ZM86.7424 21.6737L102.05 21.7597L102.059 20.2463L86.7509 20.1603L86.7424 21.6737ZM101.333 20.7762C99.2788 27.3153 94.7558 32.5443 87.4777 32.5443V34.0577C95.6796 34.0577 100.617 28.1067 102.777 21.2298L101.333 20.7762ZM87.4777 32.5443C82.477 32.5443 78.7681 30.6994 76.286 27.9742C73.792 25.2357 72.4987 21.565 72.4317 17.8718C72.3648 14.1778 73.5254 10.5117 75.8731 7.78059C78.2077 5.06468 81.7544 3.22668 86.5747 3.22668V1.71332C81.3329 1.71332 77.3601 3.72919 74.7255 6.79409C72.104 9.84375 70.8459 13.8855 70.9186 17.8992C70.9914 21.9138 72.3964 25.9508 75.1672 28.9932C77.95 32.0487 82.0724 34.0577 87.4777 34.0577V32.5443ZM86.5747 3.22668C93.354 3.22668 97.7362 6.81896 99.7717 11.4192L101.156 10.8068C98.8912 5.68904 93.9853 1.71332 86.5747 1.71332V3.22668ZM99.8766 10.6356L93.5126 18.4616L94.6868 19.4164L101.051 11.5904L99.8766 10.6356ZM94.8547 18.9891C95.1934 13.8858 92.9413 9.06803 89.7669 6.11395C86.6047 3.17119 82.3047 1.92472 78.7334 4.52423L79.624 5.74777C82.3737 3.74628 85.8567 4.54231 88.736 7.2218C91.6031 9.88997 93.651 14.2742 93.3447 18.8889L94.8547 18.9891ZM78.7364 4.52208C75.9725 6.51349 75.1159 9.86393 75.4031 13.4048C75.6908 16.9534 77.1289 20.847 79.1604 24.2008C81.1874 27.5472 83.8612 30.4475 86.6951 31.9291C88.1194 32.6736 89.6167 33.0763 91.1058 32.9592C92.6073 32.8411 94.0373 32.199 95.3139 30.9638L94.2615 29.8762C93.2161 30.8877 92.1091 31.3623 90.9871 31.4505C89.8527 31.5397 88.64 31.2382 87.3962 30.5879C84.8941 29.2799 82.3998 26.6278 80.4548 23.4167C78.5142 20.213 77.176 16.544 76.9115 13.2825C76.6463 10.0132 77.4614 7.30601 79.621 5.74992L78.7364 4.52208ZM95.315 30.9626C97.2131 29.1181 96.903 26.3205 95.3052 24.155C93.6864 21.961 90.6733 20.2286 86.7167 20.1604L86.6907 21.6736C90.2161 21.7343 92.7715 23.27 94.0874 25.0535C95.4244 26.8655 95.4153 28.7549 94.2603 29.8774L95.315 30.9626ZM110.226 21.562L110.954 21.3559L110.302 19.0532L109.512 21.312L110.226 21.562ZM109.925 22.422L109.211 22.172L109.168 22.2934V22.422H109.925ZM112.462 33.043V33.7997L112.531 32.2894L112.462 33.043ZM101.798 33.043L101.723 32.2901L101.798 33.7997V33.043ZM104.335 29.302L105.091 29.3349L105.092 29.3184V29.302H104.335ZM104.335 6.512H105.092V6.49591L105.091 6.47983L104.335 6.512ZM109.925 7.071L109.168 7.05672L109.168 7.06386V7.071H109.925ZM109.925 20.014H109.168L110.642 20.2547L109.925 20.014ZM114.397 6.684L113.686 6.42464L113.683 6.43394L113.68 6.44333L114.397 6.684ZM119.084 2.943L119.124 3.69863L119.084 2.18632V2.943ZM115.343 6.77L116.058 7.01736L116.059 7.01598L115.343 6.77ZM112.978 13.607L112.263 13.3596L112.179 13.6008L112.259 13.8433L112.978 13.607ZM118.095 29.173L117.376 29.4093L117.388 29.4442L117.402 29.4777L118.095 29.173ZM122.266 33.043L122.259 33.7996L122.282 32.2865L122.266 33.043ZM113.451 32.957L112.723 33.1631L112.877 33.7081L113.444 33.7136L113.451 32.957ZM109.512 21.312L109.211 22.172L110.639 22.672L110.94 21.812L109.512 21.312ZM109.168 22.422V28.743H110.682V22.422H109.168ZM109.168 28.743C109.168 29.9344 109.334 31.1067 109.812 32.0309C110.313 32.9995 111.159 33.6843 112.394 33.7966L112.531 32.2894C111.873 32.2297 111.45 31.904 111.156 31.3354C110.839 30.7223 110.682 29.8306 110.682 28.743H109.168ZM112.462 32.2863H101.798V33.7997H112.462V32.2863ZM101.873 33.7959C102.99 33.6842 103.804 33.0941 104.324 32.2452C104.825 31.4279 105.045 30.393 105.091 29.3349L103.579 29.2691C103.539 30.189 103.35 30.9386 103.034 31.4543C102.737 31.9384 102.326 32.2298 101.723 32.2901L101.873 33.7959ZM105.092 29.302V6.512H103.578V29.302H105.092ZM105.091 6.47983C105.045 5.40575 104.827 4.36137 104.317 3.56234C103.779 2.71923 102.933 2.18632 101.798 2.18632V3.69968C102.383 3.69968 102.763 3.94076 103.042 4.3769C103.348 4.85712 103.539 5.59725 103.579 6.54417L105.091 6.47983ZM101.798 3.69968H112.462V2.18632H101.798V3.69968ZM112.462 2.18632C111.86 2.18632 111.322 2.33537 110.863 2.63209C110.408 2.92617 110.073 3.33785 109.83 3.80055C109.355 4.70463 109.191 5.87866 109.168 7.05672L110.682 7.08527C110.702 5.98434 110.86 5.09436 111.17 4.5042C111.319 4.21977 111.493 4.02676 111.684 3.90294C111.872 3.78175 112.118 3.69968 112.462 3.69968V2.18632ZM109.168 7.071V20.014H110.682V7.071H109.168ZM110.642 20.2547L115.114 6.92467L113.68 6.44333L109.208 19.7733L110.642 20.2547ZM115.108 6.94336C115.741 5.20704 115.567 3.96187 114.904 3.14398C114.289 2.38469 113.4 2.18632 112.978 2.18632V3.69968C112.978 3.69968 112.987 3.69973 113.007 3.70196C113.026 3.70411 113.051 3.7079 113.081 3.71411C113.141 3.72664 113.215 3.74757 113.293 3.7797C113.45 3.84446 113.607 3.9461 113.728 4.09652C113.937 4.35362 114.214 4.97896 113.686 6.42464L115.108 6.94336ZM112.978 3.69968H119.084V2.18632H112.978V3.69968ZM119.044 2.18736C118.063 2.239 117.184 2.572 116.425 3.31698C115.693 4.03668 115.118 5.09763 114.627 6.52402L116.059 7.01598C116.514 5.69037 116.993 4.88082 117.486 4.39651C117.953 3.93749 118.471 3.733 119.124 3.69863L119.044 2.18736ZM114.628 6.52264L112.263 13.3596L113.693 13.8544L116.058 7.01736L114.628 6.52264ZM112.259 13.8433L117.376 29.4093L118.814 28.9367L113.697 13.3707L112.259 13.8433ZM117.402 29.4777C118.346 31.6216 119.679 33.7459 122.25 33.7995L122.282 32.2865C120.725 32.2541 119.736 31.0244 118.788 28.8683L117.402 29.4777ZM122.273 32.2864L113.458 32.2004L113.444 33.7136L122.259 33.7996L122.273 32.2864ZM114.179 32.7509L110.954 21.3559L109.498 21.7681L112.723 33.1631L114.179 32.7509ZM132.828 33.043V33.7997L132.897 32.2894L132.828 33.043ZM122.164 33.043L122.089 32.2901L122.164 33.7997V33.043ZM124.701 29.302L125.457 29.3349L125.458 29.3184V29.302H124.701ZM124.701 6.641H125.458V6.62456L125.457 6.60813L124.701 6.641ZM122.164 2.943V2.18632L122.108 3.69756L122.164 2.943ZM132.828 2.943L132.88 3.69792L132.828 2.18632V2.943ZM130.291 7.2L129.535 7.18572L129.535 7.19286V7.2H130.291ZM129.535 28.743C129.535 29.9344 129.7 31.1067 130.178 32.0309C130.679 32.9995 131.525 33.6843 132.76 33.7966L132.897 32.2894C132.239 32.2297 131.817 31.904 131.522 31.3354C131.205 30.7223 131.048 29.8306 131.048 28.743H129.535ZM132.828 32.2863H122.164V33.7997H132.828V32.2863ZM122.24 33.7959C123.357 33.6842 124.17 33.0941 124.691 32.2452C125.192 31.4279 125.411 30.393 125.457 29.3349L123.945 29.2691C123.905 30.189 123.716 30.9386 123.4 31.4543C123.104 31.9384 122.692 32.2298 122.089 32.2901L122.24 33.7959ZM125.458 29.302V6.641H123.945V29.302H125.458ZM125.457 6.60813C125.411 5.55084 125.192 4.51433 124.689 3.70088C124.166 2.85356 123.345 2.27273 122.221 2.18844L122.108 3.69756C122.704 3.74226 123.108 4.02143 123.402 4.49636C123.716 5.00517 123.905 5.75315 123.945 6.67387L125.457 6.60813ZM122.164 3.69968H132.828V2.18632H122.164V3.69968ZM132.777 2.18807C131.532 2.27295 130.69 2.95256 130.193 3.91929C129.722 4.8356 129.557 6.00519 129.535 7.18572L131.048 7.21427C131.069 6.11581 131.226 5.2214 131.539 4.61121C131.827 4.05144 132.233 3.74205 132.88 3.69792L132.777 2.18807ZM129.535 7.2V28.743H131.048V7.2H129.535ZM144.771 23.11L144.031 23.2693L145.528 23.11H144.771ZM144.771 5.824H145.528V5.78322L145.523 5.74267L144.771 5.824ZM145.846 7.2L146.603 7.20251L146.603 7.1875L146.602 7.1725L145.846 7.2ZM145.76 33.086V33.8427H146.514L146.517 33.0885L145.76 33.086ZM141.03 33.086L140.288 33.2359L140.411 33.8427H141.03V33.086ZM136.773 12.016L137.515 11.8661L136.017 12.0218L136.773 12.016ZM136.902 28.743L137.659 28.7568L137.659 28.747L137.659 28.7372L136.902 28.743ZM135.827 30.549L136.576 30.6591L136.584 30.6009L136.584 30.5421L135.827 30.549ZM135.612 7.071L134.856 7.0435L134.855 7.06071L134.856 7.07793L135.612 7.071ZM140.428 2.943L141.168 2.7837L141.039 2.18632H140.428V2.943ZM145.528 23.11V5.824H144.014V23.11H145.528ZM145.523 5.74267C145.431 4.88718 145.204 4.01257 144.702 3.33588C144.169 2.6183 143.372 2.18632 142.32 2.18632V3.69968C142.903 3.69968 143.245 3.9127 143.486 4.23787C143.758 4.60392 143.939 5.16982 144.019 5.90533L145.523 5.74267ZM142.32 3.69968H148.34V2.18632H142.32V3.69968ZM148.34 2.18632C147.697 2.18632 147.127 2.33187 146.645 2.63584C146.164 2.93963 145.824 3.36944 145.589 3.85579C145.135 4.79776 145.046 6.01764 145.09 7.2275L146.602 7.1725C146.56 6.01736 146.665 5.10874 146.952 4.51345C147.088 4.23118 147.256 4.04018 147.454 3.91531C147.651 3.79063 147.929 3.69968 148.34 3.69968V2.18632ZM145.089 7.19748L145.003 33.0835L146.517 33.0885L146.603 7.20251L145.089 7.19748ZM145.76 32.3293H141.03V33.8427H145.76V32.3293ZM141.772 32.9361L137.515 11.8661L136.031 12.1659L140.288 33.2359L141.772 32.9361ZM136.017 12.0218L136.146 28.7488L137.659 28.7372L137.53 12.0102L136.017 12.0218ZM136.146 28.7292C136.124 29.9361 136.226 31.1618 136.683 32.1088C136.919 32.5972 137.258 33.0318 137.739 33.3404C138.221 33.6499 138.793 33.7997 139.439 33.7997V32.2863C139.032 32.2863 138.755 32.1943 138.557 32.067C138.357 31.9389 138.186 31.7419 138.046 31.4509C137.751 30.8392 137.638 29.9149 137.659 28.7568L136.146 28.7292ZM139.439 32.2863H133.376V33.7997H139.439V32.2863ZM133.376 33.7997C134.338 33.7997 135.113 33.4695 135.667 32.8474C136.196 32.2527 136.457 31.465 136.576 30.6591L135.079 30.4389C134.982 31.095 134.792 31.5543 134.536 31.8411C134.305 32.1005 133.963 32.2863 133.376 32.2863V33.7997ZM136.584 30.5421L136.369 7.06407L134.856 7.07793L135.071 30.5559L136.584 30.5421ZM136.368 7.0985C136.412 5.89149 136.325 4.69589 135.863 3.77975C135.624 3.30456 135.278 2.89279 134.796 2.60544C134.317 2.31953 133.751 2.18632 133.118 2.18632V3.69968C133.538 3.69968 133.823 3.78684 134.021 3.9054C134.218 4.02252 134.38 4.19931 134.512 4.46049C134.792 5.0171 134.898 5.88551 134.856 7.0435L136.368 7.0985ZM133.118 3.69968H140.428V2.18632H133.118V3.69968ZM139.688 3.1023L144.031 23.2693L145.511 22.9507L141.168 2.7837L139.688 3.1023ZM163.591 20.917V20.1603L163.578 21.6736L163.591 20.917ZM163.634 20.917L163.639 20.1603H163.634V20.917ZM178.942 21.003L179.664 21.2298L179.971 20.2521L178.947 20.2463L178.942 21.003ZM177.351 11.113L177.938 11.5904L178.231 11.2307L178.043 10.8068L177.351 11.113ZM170.987 18.939L170.232 18.8889L170.075 21.2604L171.574 19.4164L170.987 18.939ZM156.066 5.136L156.509 5.74993L156.512 5.74777L156.066 5.136ZM171.675 30.42L172.202 30.9638L172.203 30.9626L171.675 30.42ZM163.591 21.6737H163.634V20.1603H163.591V21.6737ZM163.63 21.6737L178.938 21.7597L178.947 20.2463L163.639 20.1603L163.63 21.6737ZM178.22 20.7762C176.167 27.3153 171.643 32.5443 164.365 32.5443V34.0577C172.567 34.0577 177.504 28.1067 179.664 21.2298L178.22 20.7762ZM164.365 32.5443C159.365 32.5443 155.656 30.6994 153.174 27.9742C150.68 25.2357 149.386 21.565 149.319 17.8718C149.252 14.1778 150.413 10.5117 152.761 7.78059C155.095 5.06468 158.642 3.22668 163.462 3.22668V1.71332C158.221 1.71332 154.248 3.72919 151.613 6.79409C148.992 9.84375 147.734 13.8855 147.806 17.8992C147.879 21.9138 149.284 25.9508 152.055 28.9932C154.838 32.0487 158.96 34.0577 164.365 34.0577V32.5443ZM163.462 3.22668C170.242 3.22668 174.624 6.81896 176.659 11.4192L178.043 10.8068C175.779 5.68904 170.873 1.71332 163.462 1.71332V3.22668ZM176.764 10.6356L170.4 18.4616L171.574 19.4164L177.938 11.5904L176.764 10.6356ZM171.742 18.9891C172.081 13.8858 169.829 9.06803 166.655 6.11395C163.492 3.17119 159.192 1.92472 155.621 4.52423L156.512 5.74777C159.261 3.74628 162.744 4.54231 165.624 7.2218C168.491 9.88997 170.539 14.2742 170.232 18.8889L171.742 18.9891ZM155.624 4.52208C152.86 6.51349 152.004 9.86393 152.291 13.4048C152.579 16.9534 154.017 20.847 156.048 24.2008C158.075 27.5472 160.749 30.4475 163.583 31.9291C165.007 32.6736 166.504 33.0763 167.993 32.9592C169.495 32.8411 170.925 32.199 172.202 30.9638L171.149 29.8762C170.104 30.8877 168.997 31.3623 167.875 31.4505C166.74 31.5397 165.528 31.2382 164.284 30.5879C161.782 29.2799 159.288 26.6278 157.342 23.4167C155.402 20.213 154.064 16.544 153.799 13.2825C153.534 10.0132 154.349 7.30601 156.509 5.74992L155.624 4.52208ZM172.203 30.9626C174.101 29.1181 173.791 26.3205 172.193 24.155C170.574 21.961 167.561 20.2286 163.604 20.1604L163.578 21.6736C167.104 21.7343 169.659 23.27 170.975 25.0535C172.312 26.8655 172.303 28.7549 171.148 29.8774L172.203 30.9626ZM210.07 30.119L209.403 30.4762L209.525 30.7038L209.761 30.8095L210.07 30.119ZM212.564 31.237H213.321V30.747L212.874 30.5465L212.564 31.237ZM212.564 32.613V33.3697H213.321V32.613H212.564ZM206.63 32.613L205.966 32.9753L206.181 33.3697H206.63V32.613ZM204.824 29.302L205.489 28.9397L204.889 27.8406L204.195 28.8823L204.824 29.302ZM201.9 32.226L202.239 32.9029L202.25 32.8969L201.9 32.226ZM193.988 31.022L194.587 30.5588L193.988 31.022ZM192.913 22.336L193.624 22.5946L192.913 22.336ZM194.461 19.541L195.063 19.9996L195.068 19.9929L195.073 19.9861L194.461 19.541ZM197.6 15.929L198.151 16.4476L198.564 16.0097L198.23 15.5093L197.6 15.929ZM197.428 15.671L196.761 16.0277L196.778 16.0601L196.799 16.0907L197.428 15.671ZM196.181 5.351L195.51 5.00093L195.505 5.0126L196.181 5.351ZM198.159 3.029L197.732 2.40451V2.40451L198.159 3.029ZM203.534 3.588L204.12 3.10884L204.115 3.10214L204.109 3.09556L203.534 3.588ZM201.47 14.166L200.91 13.657L200.55 14.0532L200.804 14.5247L201.47 14.166ZM206.286 23.11L205.62 23.4687L206.484 25.0723L207.011 23.329L206.286 23.11ZM206.415 15.843L206.117 16.5385V16.5385L206.415 15.843ZM204.91 15.413H204.154V16.0478L204.779 16.1582L204.91 15.413ZM204.91 13.779V13.0223H204.154V13.779H204.91ZM211.532 13.779H212.289V13.0223H211.532V13.779ZM211.532 15.413L211.681 16.155L212.289 16.0333V15.413H211.532ZM210.07 15.843L209.695 15.186L209.682 15.1934L209.669 15.2013L210.07 15.843ZM209.382 16.574L208.687 16.2759V16.2759L209.382 16.574ZM209.038 17.95L209.782 18.0916L209.785 18.0744L209.787 18.057L209.038 17.95ZM208.307 21.089L209.035 21.2969L209.038 21.2848L209.041 21.2725L208.307 21.089ZM207.146 24.658L206.434 24.4035L206.321 24.7194L206.479 25.0152L207.146 24.658ZM199.32 4.706L198.667 4.32473V4.32473L199.32 4.706ZM199.234 9.522L198.51 9.73945L198.513 9.74986L199.234 9.522ZM200.61 12.575L199.943 12.9323L200.504 13.9783L201.216 13.029L200.61 12.575ZM201.642 10.425L200.916 10.2115L200.911 10.2314L200.906 10.2517L201.642 10.425ZM201.513 4.878L200.828 5.19799L200.832 5.20725L200.837 5.21639L201.513 4.878ZM202.072 29.517L201.701 28.8575L201.676 28.8715L201.653 28.8874L202.072 29.517ZM203.964 27.754L204.578 28.197L204.856 27.8124L204.63 27.3948L203.964 27.754ZM198.374 17.391L199.04 17.0318L198.494 16.0186L197.78 16.9221L198.374 17.391ZM196.783 20.057L196.079 19.7813L196.783 20.057ZM196.654 26.722L197.381 26.5101L197.378 26.5017L196.654 26.722ZM197.987 29.216L197.416 29.7116L197.433 29.732L197.452 29.7511L197.987 29.216ZM209.761 30.8095L212.255 31.9275L212.874 30.5465L210.38 29.4285L209.761 30.8095ZM211.808 31.237V32.613H213.321V31.237H211.808ZM212.564 31.8563H206.63V33.3697H212.564V31.8563ZM207.295 32.2507L205.489 28.9397L204.16 29.6643L205.966 32.9753L207.295 32.2507ZM204.195 28.8823C203.285 30.2466 202.382 31.1211 201.55 31.5551L202.25 32.8969C203.396 32.2989 204.472 31.1954 205.454 29.7217L204.195 28.8823ZM201.562 31.5492C200.632 32.0144 199.672 32.2433 198.675 32.2433V33.7567C199.915 33.7567 201.105 33.4696 202.239 32.9028L201.562 31.5492ZM198.675 32.2433C196.734 32.2433 195.438 31.6584 194.587 30.5588L193.39 31.4852C194.603 33.0516 196.403 33.7567 198.675 33.7567V32.2433ZM194.587 30.5588C193.69 29.4004 193.197 27.7347 193.197 25.561H191.684C191.684 27.9453 192.223 29.9776 193.39 31.4852L194.587 30.5588ZM193.197 25.561C193.197 24.4054 193.322 23.4271 193.624 22.5946L192.202 22.0774C191.817 23.1369 191.684 24.3086 191.684 25.561H193.197ZM193.624 22.5946C193.941 21.7244 194.419 20.8453 195.063 19.9996L193.859 19.0824C193.128 20.0427 192.574 21.0556 192.202 22.0774L193.624 22.5946ZM195.073 19.9861C195.73 19.0831 196.775 17.9104 198.151 16.4476L197.049 15.4104C195.674 16.8716 194.569 18.1069 193.849 19.0959L195.073 19.9861ZM198.23 15.5093L198.058 15.2513L196.799 16.0907L196.971 16.3487L198.23 15.5093ZM198.096 15.3143C196.796 12.8825 196.164 10.772 196.164 8.92H194.651C194.651 11.11 195.395 13.4715 196.761 16.0277L198.096 15.3143ZM196.164 8.92C196.164 7.68411 196.403 6.59952 196.858 5.6894L195.505 5.0126C194.928 6.16648 194.651 7.48989 194.651 8.92H196.164ZM196.852 5.70101C197.322 4.79999 197.891 4.12952 198.587 3.65349L197.732 2.40451C196.794 3.04648 196.072 3.92401 195.51 5.00099L196.852 5.70101ZM198.587 3.65349C199.29 3.17212 199.96 2.96868 200.653 2.96868V1.45532C199.627 1.45532 198.663 1.76788 197.732 2.40451L198.587 3.65349ZM200.653 2.96868C201.573 2.96868 202.316 3.32881 202.96 4.08044L204.109 3.09556C203.205 2.04118 202.056 1.45532 200.653 1.45532V2.96868ZM202.949 4.06716C203.595 4.85675 203.939 5.84014 203.939 7.157H205.452C205.452 5.54985 205.022 4.21124 204.12 3.10884L202.949 4.06716ZM203.939 7.157C203.939 9.18687 202.982 11.3785 200.91 13.657L202.03 14.675C204.259 12.2235 205.452 9.68513 205.452 7.157H203.939ZM200.804 14.5247L205.62 23.4687L206.953 22.7513L202.137 13.8073L200.804 14.5247ZM207.011 23.329C207.589 21.417 207.903 19.4941 207.903 17.52H206.39C206.39 19.3299 206.102 21.105 205.562 22.891L207.011 23.329ZM207.903 17.52C207.903 16.8922 207.808 16.4047 207.677 16.078L206.272 16.64C206.313 16.7433 206.39 17.0298 206.39 17.52H207.903ZM207.677 16.078C207.5 15.6358 207.154 15.3363 206.713 15.1475L206.117 16.5385C206.205 16.5759 206.243 16.6067 206.257 16.6198C206.268 16.6299 206.27 16.6343 206.272 16.64L207.677 16.078ZM206.713 15.1475C206.364 14.9979 205.836 14.8079 205.042 14.6678L204.779 16.1582C205.447 16.2761 205.864 16.4301 206.117 16.5385L206.713 15.1475ZM205.667 15.413V13.779H204.154V15.413H205.667ZM204.91 14.5357H211.532V13.0223H204.91V14.5357ZM210.776 13.779V15.413H212.289V13.779H210.776ZM211.384 14.671C210.763 14.7951 210.121 14.9424 209.695 15.186L210.446 16.5C210.621 16.3996 211.011 16.2889 211.681 16.155L211.384 14.671ZM209.669 15.2013C209.247 15.4656 208.897 15.7854 208.687 16.2759L210.078 16.8721C210.126 16.7606 210.206 16.6504 210.471 16.4847L209.669 15.2013ZM208.687 16.2759C208.523 16.6576 208.381 17.2004 208.289 17.843L209.787 18.057C209.868 17.4956 209.983 17.0924 210.078 16.8721L208.687 16.2759ZM208.295 17.8084C208.128 18.6859 207.876 19.695 207.573 20.9055L209.041 21.2725C209.341 20.075 209.605 19.0201 209.782 18.0916L208.295 17.8084ZM207.58 20.8811C207.242 22.0644 206.86 23.2091 206.434 24.4035L207.859 24.9125C208.292 23.6989 208.685 22.5216 209.035 21.2969L207.58 20.8811ZM206.479 25.0152L209.403 30.4762L210.737 29.7618L207.813 24.3008L206.479 25.0152ZM198.667 4.32473C198.272 5.00163 198.091 5.92637 198.091 6.985H199.604C199.604 6.06563 199.767 5.44237 199.974 5.08727L198.667 4.32473ZM198.091 6.985C198.091 7.92553 198.233 8.81581 198.51 9.73943L199.959 9.30457C199.72 8.50819 199.604 7.76446 199.604 6.985H198.091ZM198.513 9.74986C198.792 10.6334 199.29 11.7136 199.943 12.9323L201.277 12.2177C200.64 11.0284 200.193 10.0446 199.956 9.29414L198.513 9.74986ZM201.216 13.029C201.789 12.2645 202.181 11.4391 202.379 10.5983L200.906 10.2517C200.76 10.8729 200.464 11.5095 200.005 12.121L201.216 13.029ZM202.368 10.6385C202.611 9.81334 202.7 8.91778 202.7 7.888H201.187C201.187 8.83622 201.104 9.57466 200.916 10.2115L202.368 10.6385ZM202.7 7.888C202.7 6.51179 202.579 5.31658 202.19 4.5396L200.837 5.21639C201.05 5.64342 201.187 6.51221 201.187 7.888H202.7ZM202.199 4.55801C201.835 3.77719 201.24 3.17532 200.352 3.17532V4.68868C200.413 4.68868 200.461 4.70271 200.523 4.75239C200.598 4.81283 200.708 4.941 200.828 5.19799L202.199 4.55801ZM200.352 3.17532C199.57 3.17532 199.024 3.71175 198.667 4.32473L199.974 5.08727C200.092 4.88486 200.192 4.78054 200.258 4.73084C200.314 4.68859 200.341 4.68868 200.352 4.68868V3.17532ZM202.443 30.1765C203.245 29.7254 203.968 29.041 204.578 28.197L203.351 27.311C202.842 28.015 202.275 28.5346 201.701 28.8575L202.443 30.1765ZM204.63 27.3948L199.04 17.0318L197.708 17.7502L203.298 28.1132L204.63 27.3948ZM197.78 16.9221C197.108 17.7742 196.502 18.6995 196.079 19.7813L197.488 20.3327C197.839 19.4365 198.351 18.6418 198.968 17.8599L197.78 16.9221ZM196.079 19.7813C195.653 20.8696 195.425 22.1257 195.425 23.54H196.938C196.938 22.2883 197.14 21.2224 197.488 20.3327L196.079 19.7813ZM195.425 23.54C195.425 24.7353 195.609 25.8845 195.93 26.9423L197.378 26.5017C197.098 25.5815 196.938 24.5807 196.938 23.54H195.425ZM195.928 26.9339C196.26 28.0709 196.785 28.9846 197.416 29.7116L198.559 28.7204C198.071 28.1574 197.651 27.4371 197.381 26.5101L195.928 26.9339ZM197.452 29.7511C198.185 30.4839 199.062 30.8757 200.094 30.8757V29.3623C199.493 29.3623 198.994 29.1521 198.522 28.6809L197.452 29.7511ZM200.094 30.8757C200.876 30.8757 201.713 30.666 202.492 30.1466L201.653 28.8874C201.142 29.228 200.602 29.3623 200.094 29.3623V30.8757Z" fill="white" mask="url(#path-1-outside-1_924_1874)"/>
</g>
<defs>
<filter id="filter0_d_924_1874" x="0.914062" y="0.535034" width="215.65" height="46.8719" filterUnits="userSpaceOnUse" color-interpolation-filters="sRGB">
<feFlood flood-opacity="0" result="BackgroundImageFix"/>
<feColorMatrix in="SourceAlpha" type="matrix" values="0 0 0 0 0 0 0 0 0 0 0 0 0 0 0 0 0 0 127 0" result="hardAlpha"/>
<feOffset dy="4"/>
<feGaussianBlur stdDeviation="2"/>
<feComposite in2="hardAlpha" operator="out"/>
<feColorMatrix type="matrix" values="0 0 0 0 0 0 0 0 0 0 0 0 0 0 0 0 0 0 0.25 0"/>
<feBlend mode="normal" in2="BackgroundImageFix" result="effect1_dropShadow_924_1874"/>
<feBlend mode="normal" in="SourceGraphic" in2="effect1_dropShadow_924_1874" result="shape"/>
</filter>
</defs>
</svg>
