<svg width="58" height="22" viewBox="0 0 58 22" fill="none" xmlns="http://www.w3.org/2000/svg">
<g filter="url(#filter0_d_1015_1801)">
<mask id="path-1-outside-1_1015_1801" maskUnits="userSpaceOnUse" x="4" y="-1" width="51" height="15" fill="black">
<rect fill="white" x="4" y="-1" width="51" height="15"/>
<path d="M9.22468 0.399999H11.7627C11.0307 0.399999 10.6767 0.981999 10.7007 2.146L10.6107 9.508C10.6107 10.168 10.5387 10.744 10.3947 11.236C10.2627 11.716 10.0767 12.094 9.83668 12.37C9.59668 12.634 9.33868 12.826 9.06268 12.946C8.79868 13.066 8.51668 13.126 8.21668 13.126C7.30468 13.126 6.59068 12.808 6.07468 12.172C5.55868 11.536 5.30068 10.654 5.30068 9.526L5.22868 2.128C5.24068 1.576 5.16868 1.15 5.01268 0.85C4.86868 0.549999 4.58668 0.399999 4.16668 0.399999H8.75668C8.33668 0.399999 8.04868 0.549999 7.89268 0.85C7.74868 1.15 7.68268 1.576 7.69468 2.128L7.65868 9.526C7.65868 11.254 8.13268 12.118 9.08068 12.118C9.42868 12.118 9.72268 11.908 9.96268 11.488C10.2147 11.056 10.3347 10.408 10.3227 9.544L10.2867 2.146C10.2987 1.594 10.2267 1.168 10.0707 0.868C9.92668 0.555999 9.64468 0.399999 9.22468 0.399999ZM11.6437 0.399999H15.1177C15.6217 0.399999 16.0777 0.507999 16.4857 0.723999C16.9057 0.927999 17.2477 1.204 17.5117 1.552C17.7877 1.9 18.0217 2.302 18.2137 2.758C18.4057 3.214 18.5197 3.7 18.5557 4.216C18.6037 4.72 18.6037 5.224 18.5557 5.728C18.5197 6.232 18.4117 6.712 18.2317 7.168C18.0517 7.624 17.8297 8.026 17.5657 8.374C17.3017 8.722 16.9597 9.004 16.5397 9.22C16.1317 9.424 15.6817 9.526 15.1897 9.526V11.812C15.2857 12.604 15.6277 13 16.2157 13H12.7597H11.6437C12.3757 13 12.7297 12.406 12.7057 11.218V2.182C12.7297 0.993999 12.3757 0.399999 11.6437 0.399999ZM15.3157 9.13C15.5437 9.13 15.7297 8.842 15.8737 8.266C16.0297 7.678 16.1197 6.97 16.1437 6.142C16.1797 5.314 16.1737 4.486 16.1257 3.658C16.0897 2.83 15.9877 2.128 15.8197 1.552C15.6517 0.976 15.4417 0.688 15.1897 0.688V9.13H15.3157ZM22.8815 12.64C23.0975 12.64 23.3075 12.586 23.5115 12.478C23.7155 12.37 23.8895 12.232 24.0335 12.064C24.1895 11.896 24.3335 11.71 24.4655 11.506C24.6095 11.302 24.7235 11.098 24.8075 10.894C24.8915 10.678 24.9635 10.486 25.0235 10.318C25.0955 10.15 25.1495 10.012 25.1855 9.904L25.2215 9.742L24.5375 12.964L18.6695 13C18.9935 13 19.2575 12.91 19.4615 12.73C19.6775 12.55 19.7735 12.316 19.7495 12.028V1.372C19.7855 1.084 19.6895 0.849999 19.4615 0.669999C19.2455 0.489999 18.9755 0.399999 18.6515 0.399999H23.0795C22.4195 0.399999 22.0895 0.723999 22.0895 1.372V12.64H22.8815ZM31.7656 0.237999C32.7976 0.237999 33.7276 0.423999 34.5556 0.795999C35.3836 1.168 36.0496 1.654 36.5536 2.254C37.0696 2.854 37.4656 3.544 37.7416 4.324C38.0296 5.092 38.1736 5.878 38.1736 6.682C38.1736 7.486 38.0356 8.278 37.7596 9.058C37.4836 9.826 37.0876 10.516 36.5716 11.128C36.0676 11.728 35.3956 12.214 34.5556 12.586C33.7276 12.946 32.7976 13.126 31.7656 13.126C30.7456 13.126 29.8156 12.946 28.9756 12.586C28.1476 12.214 27.4756 11.728 26.9596 11.128C26.4556 10.516 26.0656 9.826 25.7896 9.058C25.5136 8.278 25.3756 7.486 25.3756 6.682C25.3756 5.878 25.5136 5.092 25.7896 4.324C26.0656 3.544 26.4556 2.854 26.9596 2.254C27.4756 1.654 28.1476 1.168 28.9756 0.795999C29.8156 0.423999 30.7456 0.237999 31.7656 0.237999ZM35.4016 11.56C35.9776 11.116 36.3556 10.54 36.5356 9.832C36.7276 9.124 36.7276 8.398 36.5356 7.654C36.3436 6.898 36.0376 6.13 35.6176 5.35C35.2096 4.558 34.6936 3.868 34.0696 3.28C33.4576 2.68 32.8156 2.176 32.1436 1.768C31.4836 1.36 30.7996 1.162 30.0916 1.174C29.3836 1.186 28.7356 1.402 28.1476 1.822C27.5596 2.278 27.1696 2.866 26.9776 3.586C26.7976 4.294 26.8036 5.026 26.9956 5.782C27.1876 6.526 27.4876 7.288 27.8956 8.068C28.3156 8.848 28.8376 9.538 29.4616 10.138C30.0856 10.726 30.7336 11.224 31.4056 11.632C32.0776 12.028 32.7676 12.22 33.4756 12.208C34.1836 12.196 34.8256 11.98 35.4016 11.56ZM44.5525 11.362C44.6365 11.89 44.7625 12.292 44.9305 12.568C45.0985 12.832 45.3565 12.976 45.7045 13L41.0245 12.964C41.2285 12.952 41.3965 12.898 41.5285 12.802C41.6725 12.694 41.7685 12.55 41.8165 12.37C41.8765 12.19 41.9185 12.022 41.9425 11.866C41.9665 11.698 41.9605 11.488 41.9245 11.236C41.9005 10.984 41.8765 10.792 41.8525 10.66C41.8285 10.528 41.7925 10.348 41.7445 10.12C41.7325 10.024 41.7205 9.958 41.7085 9.922L39.2965 9.85C39.2845 9.898 39.2665 9.976 39.2425 10.084C39.1945 10.348 39.1585 10.552 39.1345 10.696C39.1105 10.828 39.0805 11.02 39.0445 11.272C39.0205 11.524 39.0145 11.728 39.0265 11.884C39.0505 12.04 39.0865 12.208 39.1345 12.388C39.1945 12.556 39.2845 12.688 39.4045 12.784C39.5365 12.88 39.7045 12.94 39.9085 12.964H37.2445C37.4365 12.94 37.6045 12.886 37.7485 12.802C37.9045 12.706 38.0245 12.61 38.1085 12.514C38.1925 12.418 38.2705 12.262 38.3425 12.046C38.4265 11.83 38.4865 11.65 38.5225 11.506C38.5585 11.35 38.6065 11.116 38.6665 10.804C38.6905 10.696 38.7085 10.612 38.7205 10.552L40.4665 2.38L40.2325 0.76L42.6085 0.399999L44.5525 11.362ZM39.4765 9.346H41.6185L40.7905 3.244H40.7185L39.4765 9.346ZM49.1473 0.399999C49.7473 0.399999 50.2993 0.543999 50.8033 0.831999C51.3073 1.12 51.7213 1.51 52.0453 2.002C52.3693 2.482 52.6393 3.034 52.8553 3.658C53.0833 4.282 53.2213 4.942 53.2693 5.638C53.3173 6.334 53.3173 7.03 53.2693 7.726C53.2213 8.422 53.0833 9.088 52.8553 9.724C52.6273 10.348 52.3513 10.906 52.0273 11.398C51.7033 11.878 51.2893 12.262 50.7853 12.55C50.2813 12.826 49.7293 12.964 49.1293 12.964L45.7993 13C46.4593 12.94 46.7773 12.346 46.7533 11.218V2.146C46.7653 1.618 46.6993 1.204 46.5553 0.903999C46.4233 0.603999 46.1713 0.435999 45.7993 0.399999H49.1473ZM49.5253 12.64C49.8613 12.58 50.1433 12.13 50.3713 11.29C50.5993 10.45 50.7373 9.454 50.7853 8.302C50.8333 7.138 50.8273 5.98 50.7673 4.828C50.7193 3.676 50.5753 2.704 50.3353 1.912C50.0953 1.12 49.8013 0.723999 49.4533 0.723999H49.2013L49.1833 12.658L49.5253 12.64Z"/>
</mask>
<path d="M9.22468 0.399999H11.7627C11.0307 0.399999 10.6767 0.981999 10.7007 2.146L10.6107 9.508C10.6107 10.168 10.5387 10.744 10.3947 11.236C10.2627 11.716 10.0767 12.094 9.83668 12.37C9.59668 12.634 9.33868 12.826 9.06268 12.946C8.79868 13.066 8.51668 13.126 8.21668 13.126C7.30468 13.126 6.59068 12.808 6.07468 12.172C5.55868 11.536 5.30068 10.654 5.30068 9.526L5.22868 2.128C5.24068 1.576 5.16868 1.15 5.01268 0.85C4.86868 0.549999 4.58668 0.399999 4.16668 0.399999H8.75668C8.33668 0.399999 8.04868 0.549999 7.89268 0.85C7.74868 1.15 7.68268 1.576 7.69468 2.128L7.65868 9.526C7.65868 11.254 8.13268 12.118 9.08068 12.118C9.42868 12.118 9.72268 11.908 9.96268 11.488C10.2147 11.056 10.3347 10.408 10.3227 9.544L10.2867 2.146C10.2987 1.594 10.2267 1.168 10.0707 0.868C9.92668 0.555999 9.64468 0.399999 9.22468 0.399999ZM11.6437 0.399999H15.1177C15.6217 0.399999 16.0777 0.507999 16.4857 0.723999C16.9057 0.927999 17.2477 1.204 17.5117 1.552C17.7877 1.9 18.0217 2.302 18.2137 2.758C18.4057 3.214 18.5197 3.7 18.5557 4.216C18.6037 4.72 18.6037 5.224 18.5557 5.728C18.5197 6.232 18.4117 6.712 18.2317 7.168C18.0517 7.624 17.8297 8.026 17.5657 8.374C17.3017 8.722 16.9597 9.004 16.5397 9.22C16.1317 9.424 15.6817 9.526 15.1897 9.526V11.812C15.2857 12.604 15.6277 13 16.2157 13H12.7597H11.6437C12.3757 13 12.7297 12.406 12.7057 11.218V2.182C12.7297 0.993999 12.3757 0.399999 11.6437 0.399999ZM15.3157 9.13C15.5437 9.13 15.7297 8.842 15.8737 8.266C16.0297 7.678 16.1197 6.97 16.1437 6.142C16.1797 5.314 16.1737 4.486 16.1257 3.658C16.0897 2.83 15.9877 2.128 15.8197 1.552C15.6517 0.976 15.4417 0.688 15.1897 0.688V9.13H15.3157ZM22.8815 12.64C23.0975 12.64 23.3075 12.586 23.5115 12.478C23.7155 12.37 23.8895 12.232 24.0335 12.064C24.1895 11.896 24.3335 11.71 24.4655 11.506C24.6095 11.302 24.7235 11.098 24.8075 10.894C24.8915 10.678 24.9635 10.486 25.0235 10.318C25.0955 10.15 25.1495 10.012 25.1855 9.904L25.2215 9.742L24.5375 12.964L18.6695 13C18.9935 13 19.2575 12.91 19.4615 12.73C19.6775 12.55 19.7735 12.316 19.7495 12.028V1.372C19.7855 1.084 19.6895 0.849999 19.4615 0.669999C19.2455 0.489999 18.9755 0.399999 18.6515 0.399999H23.0795C22.4195 0.399999 22.0895 0.723999 22.0895 1.372V12.64H22.8815ZM31.7656 0.237999C32.7976 0.237999 33.7276 0.423999 34.5556 0.795999C35.3836 1.168 36.0496 1.654 36.5536 2.254C37.0696 2.854 37.4656 3.544 37.7416 4.324C38.0296 5.092 38.1736 5.878 38.1736 6.682C38.1736 7.486 38.0356 8.278 37.7596 9.058C37.4836 9.826 37.0876 10.516 36.5716 11.128C36.0676 11.728 35.3956 12.214 34.5556 12.586C33.7276 12.946 32.7976 13.126 31.7656 13.126C30.7456 13.126 29.8156 12.946 28.9756 12.586C28.1476 12.214 27.4756 11.728 26.9596 11.128C26.4556 10.516 26.0656 9.826 25.7896 9.058C25.5136 8.278 25.3756 7.486 25.3756 6.682C25.3756 5.878 25.5136 5.092 25.7896 4.324C26.0656 3.544 26.4556 2.854 26.9596 2.254C27.4756 1.654 28.1476 1.168 28.9756 0.795999C29.8156 0.423999 30.7456 0.237999 31.7656 0.237999ZM35.4016 11.56C35.9776 11.116 36.3556 10.54 36.5356 9.832C36.7276 9.124 36.7276 8.398 36.5356 7.654C36.3436 6.898 36.0376 6.13 35.6176 5.35C35.2096 4.558 34.6936 3.868 34.0696 3.28C33.4576 2.68 32.8156 2.176 32.1436 1.768C31.4836 1.36 30.7996 1.162 30.0916 1.174C29.3836 1.186 28.7356 1.402 28.1476 1.822C27.5596 2.278 27.1696 2.866 26.9776 3.586C26.7976 4.294 26.8036 5.026 26.9956 5.782C27.1876 6.526 27.4876 7.288 27.8956 8.068C28.3156 8.848 28.8376 9.538 29.4616 10.138C30.0856 10.726 30.7336 11.224 31.4056 11.632C32.0776 12.028 32.7676 12.22 33.4756 12.208C34.1836 12.196 34.8256 11.98 35.4016 11.56ZM44.5525 11.362C44.6365 11.89 44.7625 12.292 44.9305 12.568C45.0985 12.832 45.3565 12.976 45.7045 13L41.0245 12.964C41.2285 12.952 41.3965 12.898 41.5285 12.802C41.6725 12.694 41.7685 12.55 41.8165 12.37C41.8765 12.19 41.9185 12.022 41.9425 11.866C41.9665 11.698 41.9605 11.488 41.9245 11.236C41.9005 10.984 41.8765 10.792 41.8525 10.66C41.8285 10.528 41.7925 10.348 41.7445 10.12C41.7325 10.024 41.7205 9.958 41.7085 9.922L39.2965 9.85C39.2845 9.898 39.2665 9.976 39.2425 10.084C39.1945 10.348 39.1585 10.552 39.1345 10.696C39.1105 10.828 39.0805 11.02 39.0445 11.272C39.0205 11.524 39.0145 11.728 39.0265 11.884C39.0505 12.04 39.0865 12.208 39.1345 12.388C39.1945 12.556 39.2845 12.688 39.4045 12.784C39.5365 12.88 39.7045 12.94 39.9085 12.964H37.2445C37.4365 12.94 37.6045 12.886 37.7485 12.802C37.9045 12.706 38.0245 12.61 38.1085 12.514C38.1925 12.418 38.2705 12.262 38.3425 12.046C38.4265 11.83 38.4865 11.65 38.5225 11.506C38.5585 11.35 38.6065 11.116 38.6665 10.804C38.6905 10.696 38.7085 10.612 38.7205 10.552L40.4665 2.38L40.2325 0.76L42.6085 0.399999L44.5525 11.362ZM39.4765 9.346H41.6185L40.7905 3.244H40.7185L39.4765 9.346ZM49.1473 0.399999C49.7473 0.399999 50.2993 0.543999 50.8033 0.831999C51.3073 1.12 51.7213 1.51 52.0453 2.002C52.3693 2.482 52.6393 3.034 52.8553 3.658C53.0833 4.282 53.2213 4.942 53.2693 5.638C53.3173 6.334 53.3173 7.03 53.2693 7.726C53.2213 8.422 53.0833 9.088 52.8553 9.724C52.6273 10.348 52.3513 10.906 52.0273 11.398C51.7033 11.878 51.2893 12.262 50.7853 12.55C50.2813 12.826 49.7293 12.964 49.1293 12.964L45.7993 13C46.4593 12.94 46.7773 12.346 46.7533 11.218V2.146C46.7653 1.618 46.6993 1.204 46.5553 0.903999C46.4233 0.603999 46.1713 0.435999 45.7993 0.399999H49.1473ZM49.5253 12.64C49.8613 12.58 50.1433 12.13 50.3713 11.29C50.5993 10.45 50.7373 9.454 50.7853 8.302C50.8333 7.138 50.8273 5.98 50.7673 4.828C50.7193 3.676 50.5753 2.704 50.3353 1.912C50.0953 1.12 49.8013 0.723999 49.4533 0.723999H49.2013L49.1833 12.658L49.5253 12.64Z" fill="black"/>
<path d="M10.7007 2.146L11.4573 2.15525L11.4575 2.14282L11.4572 2.1304L10.7007 2.146ZM10.6107 9.508L9.854 9.49875V9.508H10.6107ZM10.3947 11.236L9.66837 11.0234L9.66509 11.0354L10.3947 11.236ZM9.83668 12.37L10.3966 12.879L10.4022 12.8728L10.4077 12.8665L9.83668 12.37ZM9.06268 12.946L8.76093 12.252L8.74956 12.2571L9.06268 12.946ZM6.07468 12.172L5.48707 12.6487H5.48707L6.07468 12.172ZM5.30068 9.526H6.05739L6.05732 9.51864L5.30068 9.526ZM5.22868 2.128L4.47218 2.11155L4.47192 2.12346L4.47204 2.13536L5.22868 2.128ZM5.01268 0.85L4.33052 1.17744L4.33576 1.18835L4.34134 1.1991L5.01268 0.85ZM7.89268 0.85L7.22134 0.500904L7.21576 0.511646L7.21052 0.522561L7.89268 0.85ZM7.69468 2.128L8.45135 2.13168L8.4514 2.12162L8.45118 2.11155L7.69468 2.128ZM7.65868 9.526L6.902 9.52232V9.526H7.65868ZM9.96268 11.488L9.30905 11.1067L9.3057 11.1126L9.96268 11.488ZM10.3227 9.544L9.56598 9.54768L9.56607 9.55451L10.3227 9.544ZM10.2867 2.146L9.53018 2.12955L9.52996 2.13962L9.53001 2.14968L10.2867 2.146ZM10.0707 0.868L9.38365 1.18509L9.39112 1.20128L9.39934 1.2171L10.0707 0.868ZM9.22468 1.15668H11.7627V-0.35668H9.22468V1.15668ZM11.7627 -0.35668C11.1563 -0.35668 10.6279 -0.0930351 10.3017 0.443278C10.0138 0.916661 9.93106 1.52597 9.94416 2.1616L11.4572 2.1304C11.4463 1.60203 11.5286 1.33834 11.5947 1.22972C11.6206 1.18709 11.6376 1.17842 11.642 1.17607C11.6489 1.17238 11.681 1.15668 11.7627 1.15668V-0.35668ZM9.94406 2.13675L9.85406 9.49875L11.3673 9.51725L11.4573 2.15525L9.94406 2.13675ZM9.854 9.508C9.854 10.1156 9.78743 10.617 9.66847 11.0234L11.1209 11.4486C11.2899 10.871 11.3674 10.2204 11.3674 9.508H9.854ZM9.66509 11.0354C9.55286 11.4434 9.40953 11.7081 9.26569 11.8735L10.4077 12.8665C10.7438 12.4799 10.9725 11.9886 11.1243 11.4366L9.66509 11.0354ZM9.27678 11.861C9.09562 12.0603 8.92229 12.1819 8.76097 12.2521L9.36439 13.6399C9.75507 13.4701 10.0977 13.2077 10.3966 12.879L9.27678 11.861ZM8.74956 12.2571C8.58732 12.3309 8.41249 12.3693 8.21668 12.3693V13.8827C8.62087 13.8827 9.01004 13.8011 9.3758 13.6349L8.74956 12.2571ZM8.21668 12.3693C7.50336 12.3693 7.01708 12.1326 6.66229 11.6953L5.48707 12.6487C6.16428 13.4834 7.106 13.8827 8.21668 13.8827V12.3693ZM6.66229 11.6953C6.29056 11.2371 6.05736 10.5453 6.05736 9.526H4.544C4.544 10.7627 4.8268 11.8349 5.48707 12.6487L6.66229 11.6953ZM6.05732 9.51864L5.98532 2.12064L4.47204 2.13536L4.54404 9.53336L6.05732 9.51864ZM5.98518 2.14444C5.99838 1.53701 5.92462 0.963603 5.68402 0.500904L4.34134 1.1991C4.41274 1.3364 4.48297 1.61499 4.47218 2.11155L5.98518 2.14444ZM5.69484 0.522562C5.55613 0.233582 5.33824 -0.00144887 5.04853 -0.155551C4.76911 -0.304178 4.46294 -0.35668 4.16668 -0.35668V1.15668C4.29042 1.15668 4.33525 1.17918 4.33783 1.18055C4.3383 1.1808 4.33408 1.17837 4.3293 1.17332C4.32475 1.16852 4.32596 1.16795 4.33052 1.17744L5.69484 0.522562ZM4.16668 1.15668H8.75668V-0.35668H4.16668V1.15668ZM8.75668 -0.35668C8.13577 -0.35668 7.54128 -0.114354 7.22134 0.500904L8.56402 1.1991C8.57057 1.18649 8.57424 1.18338 8.57306 1.18457C8.57168 1.18597 8.57121 1.1857 8.57522 1.18361C8.58429 1.17888 8.63378 1.15668 8.75668 1.15668V-0.35668ZM7.21052 0.522561C6.9918 0.978222 6.92509 1.54251 6.93818 2.14445L8.45118 2.11155C8.44027 1.60949 8.50556 1.32178 8.57484 1.17744L7.21052 0.522561ZM6.93801 2.12432L6.90201 9.52232L8.41535 9.52968L8.45135 2.13168L6.93801 2.12432ZM6.902 9.526C6.902 10.4344 7.02233 11.2353 7.35078 11.834C7.52126 12.1447 7.75518 12.414 8.06564 12.6027C8.37763 12.7922 8.72485 12.8747 9.08068 12.8747V11.3613C8.96251 11.3613 8.89498 11.3358 8.85147 11.3093C8.80643 11.282 8.7441 11.2273 8.67758 11.106C8.53203 10.8407 8.41536 10.3456 8.41536 9.526H6.902ZM9.08068 12.8747C9.80125 12.8747 10.3039 12.4159 10.6197 11.8634L9.3057 11.1126C9.22246 11.2583 9.15574 11.3209 9.12237 11.3448C9.09847 11.3618 9.09067 11.3613 9.08068 11.3613V12.8747ZM10.6163 11.8693C10.9714 11.2605 11.092 10.4473 11.0793 9.53349L9.56607 9.55451C9.57738 10.3687 9.45797 10.8515 9.30908 11.1067L10.6163 11.8693ZM11.0793 9.54032L11.0433 2.14232L9.53001 2.14968L9.56601 9.54768L11.0793 9.54032ZM11.0432 2.16245C11.0564 1.55501 10.9826 0.981603 10.742 0.518903L9.39934 1.2171C9.47074 1.3544 9.54098 1.63299 9.53018 2.12955L11.0432 2.16245ZM10.7577 0.550907C10.623 0.258985 10.409 0.0161403 10.1175 -0.14512C9.83541 -0.301149 9.52508 -0.35668 9.22468 -0.35668V1.15668C9.28344 1.15668 9.32391 1.16219 9.34966 1.16791C9.37478 1.17349 9.38461 1.17896 9.3849 1.17912C9.38519 1.17928 9.38408 1.17868 9.38217 1.17718C9.38026 1.17567 9.37852 1.17402 9.37723 1.1726C9.37414 1.16921 9.37728 1.1713 9.38365 1.18509L10.7577 0.550907ZM16.4857 0.723999L16.1317 1.39274L16.1433 1.39889L16.1551 1.40464L16.4857 0.723999ZM17.5117 1.552L16.9089 2.00933L16.9138 2.01581L16.9189 2.0222L17.5117 1.552ZM18.2137 2.758L17.5163 3.05163L18.2137 2.758ZM18.5557 4.216L17.8009 4.26866L17.8015 4.27821L17.8024 4.28774L18.5557 4.216ZM18.5557 5.728L17.8024 5.65626L17.8016 5.66517L17.801 5.67409L18.5557 5.728ZM18.2317 7.168L18.9355 7.44583V7.44583L18.2317 7.168ZM17.5657 8.374L18.1686 8.83133L17.5657 8.374ZM16.5397 9.22L16.8781 9.89684L16.8858 9.89291L16.5397 9.22ZM15.1897 9.526V8.76932H14.433V9.526H15.1897ZM15.1897 11.812H14.433V11.8577L14.4385 11.9031L15.1897 11.812ZM12.7057 11.218H11.949V11.2256L11.9492 11.2333L12.7057 11.218ZM12.7057 2.182L11.9492 2.16672L11.949 2.17436V2.182H12.7057ZM15.8737 8.266L15.1423 8.07194L15.1396 8.08248L15.8737 8.266ZM16.1437 6.142L15.3877 6.10913L15.3874 6.12008L16.1437 6.142ZM16.1257 3.658L15.3697 3.69087L15.3703 3.70179L16.1257 3.658ZM15.8197 1.552L16.5461 1.34013V1.34013L15.8197 1.552ZM15.1897 0.688V-0.068679H14.433V0.688H15.1897ZM15.1897 9.13H14.433V9.88668H15.1897V9.13ZM11.6437 1.15668H15.1177V-0.35668H11.6437V1.15668ZM15.1177 1.15668C15.5099 1.15668 15.8425 1.23967 16.1317 1.39274L16.8398 0.0552558C16.3129 -0.223672 15.7336 -0.35668 15.1177 -0.35668V1.15668ZM16.1551 1.40464C16.4756 1.56032 16.7217 1.76261 16.9089 2.00933L18.1146 1.09467C17.7737 0.645384 17.3358 0.295681 16.8163 0.0433607L16.1551 1.40464ZM16.9189 2.0222C17.1476 2.31063 17.348 2.65185 17.5163 3.05163L18.9111 2.46437C18.6954 1.95215 18.4278 1.48936 18.1046 1.0818L16.9189 2.0222ZM17.5163 3.05163C17.6746 3.42758 17.7704 3.8318 17.8009 4.26866L19.3106 4.16334C19.269 3.5682 19.1368 3.00042 18.9111 2.46437L17.5163 3.05163ZM17.8024 4.28774C17.8459 4.74402 17.8459 5.19998 17.8024 5.65626L19.309 5.79974C19.3615 5.24802 19.3615 4.69598 19.309 4.14426L17.8024 4.28774ZM17.801 5.67409C17.7703 6.10367 17.6788 6.50797 17.5279 6.89017L18.9355 7.44583C19.1447 6.91603 19.2692 6.36033 19.3105 5.78191L17.801 5.67409ZM17.5279 6.89017C17.3702 7.28973 17.1805 7.62986 16.9629 7.91667L18.1686 8.83133C18.479 8.42214 18.7333 7.95827 18.9355 7.44583L17.5279 6.89017ZM16.9629 7.91667C16.7727 8.16735 16.5213 8.37857 16.1936 8.54709L16.8858 9.89291C17.3981 9.62943 17.8307 9.27665 18.1686 8.83133L16.9629 7.91667ZM16.2013 8.54321C15.9065 8.69061 15.5737 8.76932 15.1897 8.76932V10.2827C15.7898 10.2827 16.3569 10.1574 16.8781 9.89679L16.2013 8.54321ZM14.433 9.526V11.812H15.9464V9.526H14.433ZM14.4385 11.9031C14.4958 12.3752 14.6372 12.8406 14.9455 13.1976C15.279 13.5837 15.7322 13.7567 16.2157 13.7567V12.2433C16.1541 12.2433 16.1257 12.2332 16.1173 12.2296C16.1111 12.2269 16.1036 12.2232 16.0909 12.2084C16.0572 12.1694 15.9797 12.0408 15.9409 11.7209L14.4385 11.9031ZM16.2157 12.2433H12.7597V13.7567H16.2157V12.2433ZM12.7597 12.2433H11.6437V13.7567H12.7597V12.2433ZM11.6437 13.7567C12.2573 13.7567 12.7853 13.4838 13.1082 12.9419C13.3929 12.4642 13.4753 11.8487 13.4622 11.2027L11.9492 11.2333C11.9601 11.7753 11.8776 12.0508 11.8082 12.1671C11.7806 12.2134 11.7624 12.2228 11.7587 12.2248C11.753 12.2279 11.723 12.2433 11.6437 12.2433V13.7567ZM13.4624 11.218V2.182H11.949V11.218H13.4624ZM13.4622 2.19728C13.4753 1.55134 13.3929 0.93577 13.1082 0.458124C12.7853 -0.0837745 12.2573 -0.35668 11.6437 -0.35668V1.15668C11.723 1.15668 11.753 1.17213 11.7587 1.17524C11.7624 1.17724 11.7806 1.18656 11.8082 1.23287C11.8776 1.34923 11.9601 1.62466 11.9492 2.16672L13.4622 2.19728ZM15.3157 9.88668C15.7992 9.88668 16.1042 9.56869 16.2619 9.32452C16.4212 9.07777 16.5281 8.76818 16.6078 8.44952L15.1396 8.08248C15.109 8.20491 15.0789 8.30087 15.051 8.37401C15.0225 8.44864 15.0006 8.48798 14.9906 8.50348C14.9795 8.52062 14.9941 8.49143 15.0467 8.45484C15.1078 8.41238 15.202 8.37332 15.3157 8.37332V9.88668ZM16.6051 8.46004C16.7803 7.79976 16.8749 7.03071 16.9001 6.16392L15.3874 6.12008C15.3645 6.90929 15.2792 7.55624 15.1423 8.07196L16.6051 8.46004ZM16.8997 6.17487C16.9368 5.3213 16.9306 4.46772 16.8811 3.61421L15.3703 3.70179C15.4168 4.50428 15.4226 5.3067 15.3877 6.10913L16.8997 6.17487ZM16.8817 3.62513C16.844 2.75769 16.7362 1.99175 16.5461 1.34013L15.0933 1.76387C15.2392 2.26425 15.3355 2.90231 15.3697 3.69087L16.8817 3.62513ZM16.5461 1.34013C16.452 1.01739 16.3276 0.705058 16.1476 0.458185C15.9631 0.205162 15.6474 -0.068679 15.1897 -0.068679V1.44468C15.0998 1.44468 15.0229 1.41675 14.9705 1.38413C14.9248 1.35564 14.9127 1.33315 14.9248 1.34981C14.9365 1.36583 14.9608 1.40453 14.9926 1.47729C15.0239 1.54884 15.0581 1.64308 15.0933 1.76387L16.5461 1.34013ZM14.433 0.688V9.13H15.9464V0.688H14.433ZM15.1897 9.88668H15.3157V8.37332H15.1897V9.88668ZM23.5115 12.478L23.1574 11.8093L23.5115 12.478ZM24.0335 12.064L23.479 11.5491L23.4688 11.5601L23.459 11.5716L24.0335 12.064ZM24.4655 11.506L23.8473 11.0696L23.8385 11.0821L23.8302 11.0949L24.4655 11.506ZM24.8075 10.894L25.5072 11.1821L25.51 11.1752L25.5127 11.1683L24.8075 10.894ZM25.0235 10.318L24.328 10.0199L24.3188 10.0415L24.3109 10.0635L25.0235 10.318ZM25.1855 9.904L25.9033 10.1433L25.9157 10.1063L25.9241 10.0681L25.1855 9.904ZM25.2215 9.742L25.9617 9.89913L24.4828 9.57785L25.2215 9.742ZM24.5375 12.964L24.5421 13.7207L25.1512 13.7169L25.2777 13.1211L24.5375 12.964ZM18.6695 13L18.6648 12.2433L18.6695 13.7567V13ZM19.4615 12.73L18.9771 12.1487L18.9689 12.1555L18.9608 12.1626L19.4615 12.73ZM19.7495 12.028H18.9928V12.0595L18.9954 12.0908L19.7495 12.028ZM19.7495 1.372L18.9986 1.27814L18.9928 1.32489V1.372H19.7495ZM19.4615 0.669999L18.9771 1.2513L18.9847 1.2577L18.9926 1.2639L19.4615 0.669999ZM22.0895 12.64H21.3328V13.3967H22.0895V12.64ZM22.8815 13.3967C23.2293 13.3967 23.5601 13.3084 23.8655 13.1467L23.1574 11.8093C23.0548 11.8636 22.9656 11.8833 22.8815 11.8833V13.3967ZM23.8655 13.1467C24.1497 12.9963 24.3996 12.7996 24.608 12.5564L23.459 11.5716C23.3794 11.6644 23.2812 11.7437 23.1574 11.8093L23.8655 13.1467ZM24.588 12.5789C24.7756 12.3768 24.9463 12.1558 25.1008 11.9171L23.8302 11.0949C23.7206 11.2642 23.6034 11.4152 23.479 11.5491L24.588 12.5789ZM25.0837 11.9424C25.2561 11.6981 25.399 11.4447 25.5072 11.1821L24.1078 10.6059C24.0479 10.7513 23.9629 10.9059 23.8473 11.0696L25.0837 11.9424ZM25.5127 11.1683C25.5985 10.9475 25.6731 10.7487 25.7361 10.5725L24.3109 10.0635C24.2538 10.2233 24.1844 10.4085 24.1022 10.6197L25.5127 11.1683ZM25.719 10.6161C25.7949 10.4388 25.858 10.2794 25.9033 10.1433L24.4676 9.66472C24.441 9.74464 24.396 9.86119 24.328 10.0199L25.719 10.6161ZM25.9241 10.0681L25.9601 9.90615L24.4828 9.57785L24.4468 9.73985L25.9241 10.0681ZM24.4813 9.58487L23.7973 12.8069L25.2777 13.1211L25.9617 9.89913L24.4813 9.58487ZM24.5328 12.2073L18.6648 12.2433L18.6741 13.7567L24.5421 13.7207L24.5328 12.2073ZM18.6695 13.7567C19.1408 13.7567 19.5944 13.6218 19.9621 13.2974L18.9608 12.1626C18.9206 12.1982 18.8462 12.2433 18.6695 12.2433V13.7567ZM19.9459 13.3113C20.3576 12.9682 20.5473 12.4908 20.5035 11.9652L18.9954 12.0908C18.9972 12.1127 18.9961 12.1253 18.9954 12.1305C18.9947 12.1353 18.9943 12.1351 18.9954 12.1323C18.9966 12.1294 18.9977 12.1282 18.9967 12.1295C18.9955 12.1311 18.9901 12.1378 18.9771 12.1487L19.9459 13.3113ZM20.5062 12.028V1.372H18.9928V12.028H20.5062ZM20.5003 1.46585C20.5692 0.914777 20.366 0.420033 19.9303 0.0760955L18.9926 1.2639C19.0072 1.27545 19.0121 1.28181 19.0118 1.28147C19.0117 1.28135 19.0107 1.27999 19.0092 1.27738C19.0076 1.27475 19.006 1.27147 19.0044 1.2677C19.0029 1.26394 19.0018 1.26042 19.001 1.25744C19.0002 1.25448 19 1.25273 19 1.25253C18.9999 1.25199 19.0009 1.25981 18.9986 1.27814L20.5003 1.46585ZM19.9459 0.088702C19.5735 -0.221593 19.124 -0.35668 18.6515 -0.35668V1.15668C18.8269 1.15668 18.9174 1.20159 18.9771 1.2513L19.9459 0.088702ZM18.6515 1.15668H23.0795V-0.35668H18.6515V1.15668ZM23.0795 -0.35668C22.6363 -0.35668 22.1643 -0.247837 21.8069 0.103061C21.4469 0.456477 21.3328 0.927809 21.3328 1.372H22.8462C22.8462 1.16819 22.8971 1.15352 22.8671 1.18294C22.8397 1.20984 22.8627 1.15668 23.0795 1.15668V-0.35668ZM21.3328 1.372V12.64H22.8462V1.372H21.3328ZM22.0895 13.3967H22.8815V11.8833H22.0895V13.3967ZM34.5556 0.795999L34.2455 1.48622L34.5556 0.795999ZM36.5536 2.254L35.9742 2.74072L35.9799 2.74738L36.5536 2.254ZM37.7416 4.324L37.0281 4.57646L37.0331 4.58969L37.7416 4.324ZM37.7596 9.058L38.4717 9.31391L38.4729 9.31041L37.7596 9.058ZM36.5716 11.128L35.9931 10.6402L35.9922 10.6413L36.5716 11.128ZM34.5556 12.586L34.8573 13.2799L34.862 13.2779L34.5556 12.586ZM28.9756 12.586L28.6655 13.2763L28.6775 13.2815L28.9756 12.586ZM26.9596 11.128L26.3755 11.609L26.3806 11.6153L26.3859 11.6214L26.9596 11.128ZM25.7896 9.058L25.0763 9.31041L25.0775 9.31391L25.7896 9.058ZM25.7896 4.324L26.5017 4.57991L26.5029 4.57641L25.7896 4.324ZM26.9596 2.254L26.3859 1.76058L26.3802 1.76731L26.9596 2.254ZM28.9756 0.795999L28.6692 0.104121L28.6655 0.105781L28.9756 0.795999ZM35.4016 11.56L35.8474 12.1714L35.8556 12.1655L35.8636 12.1593L35.4016 11.56ZM36.5356 9.832L35.8052 9.63393L35.8023 9.64556L36.5356 9.832ZM36.5356 7.654L35.8022 7.84026L35.8029 7.84308L36.5356 7.654ZM35.6176 5.35L34.9448 5.69658L34.9514 5.70874L35.6176 5.35ZM34.0696 3.28L33.5399 3.82032L33.5452 3.82557L33.5507 3.8307L34.0696 3.28ZM32.1436 1.768L31.7457 2.41165L31.7509 2.4148L32.1436 1.768ZM30.0916 1.174L30.1044 1.93057L30.0916 1.174ZM28.1476 1.822L27.7078 1.20626L27.6957 1.21493L27.6839 1.22406L28.1476 1.822ZM26.9776 3.586L26.2464 3.39102L26.2443 3.39956L26.9776 3.586ZM26.9956 5.782L26.2622 5.96826L26.2629 5.97108L26.9956 5.782ZM27.8956 8.068L27.2251 8.41874L27.2294 8.42674L27.8956 8.068ZM29.4616 10.138L28.9371 10.6835L28.9427 10.6887L29.4616 10.138ZM31.4056 11.632L31.0129 12.2789L31.0214 12.2839L31.4056 11.632ZM33.4756 12.208L33.4628 11.4514L33.4756 12.208ZM31.7656 0.994678C32.7053 0.994678 33.5275 1.16365 34.2455 1.48622L34.8657 0.105781C33.9277 -0.315648 32.8899 -0.51868 31.7656 -0.51868V0.994678ZM34.2455 1.48622C34.986 1.8189 35.5543 2.24076 35.9742 2.74069L37.133 1.76731C36.5449 1.06724 35.7812 0.517097 34.8657 0.105781L34.2455 1.48622ZM35.9799 2.74738C36.4321 3.27318 36.7821 3.88061 37.0283 4.57641L38.4549 4.07159C38.1491 3.20739 37.7071 2.43481 37.1273 1.76062L35.9799 2.74738ZM37.0331 4.58969C37.2899 5.27448 37.4169 5.97058 37.4169 6.682H38.9303C38.9303 5.78542 38.7693 4.90952 38.4501 4.05831L37.0331 4.58969ZM37.4169 6.682C37.4169 7.39751 37.2944 8.10426 37.0463 8.80559L38.4729 9.31041C38.7768 8.45174 38.9303 7.57449 38.9303 6.682H37.4169ZM37.0475 8.80209C36.8013 9.48717 36.45 10.0983 35.9931 10.6402L37.1501 11.6158C37.7252 10.9337 38.1659 10.1648 38.4717 9.31391L37.0475 8.80209ZM35.9922 10.6413C35.5741 11.139 35.0019 11.5608 34.2492 11.8941L34.862 13.2779C35.7894 12.8672 36.5611 12.317 37.151 11.6147L35.9922 10.6413ZM34.2539 11.8921C33.5338 12.2052 32.7086 12.3693 31.7656 12.3693V13.8827C32.8866 13.8827 33.9214 13.6868 34.8573 13.2799L34.2539 11.8921ZM31.7656 12.3693C30.8362 12.3693 30.0091 12.2057 29.2737 11.8905L28.6775 13.2815C29.6221 13.6863 30.655 13.8827 31.7656 13.8827V12.3693ZM29.2857 11.8958C28.5441 11.5626 27.967 11.1389 27.5333 10.6346L26.3859 11.6214C26.9842 12.3171 27.7511 12.8654 28.6655 13.2762L29.2857 11.8958ZM27.5437 10.647C27.0966 10.1041 26.7492 9.49069 26.5017 8.80209L25.0775 9.31391C25.382 10.1613 25.8146 10.9279 26.3755 11.609L27.5437 10.647ZM26.5029 8.80559C26.2548 8.10426 26.1323 7.39751 26.1323 6.682H24.6189C24.6189 7.57449 24.7724 8.45174 25.0763 9.31041L26.5029 8.80559ZM26.1323 6.682C26.1323 5.96656 26.2547 5.26707 26.5017 4.57991L25.0775 4.06809C24.7725 4.91693 24.6189 5.78944 24.6189 6.682H26.1323ZM26.5029 4.57641C26.7504 3.87707 27.0965 3.26744 27.539 2.74069L26.3802 1.76731C25.8147 2.44056 25.3808 3.21093 25.0763 4.07159L26.5029 4.57641ZM27.5333 2.74738C27.967 2.24308 28.5441 1.81941 29.2857 1.48622L28.6655 0.105781C27.7511 0.516585 26.9842 1.06492 26.3859 1.76062L27.5333 2.74738ZM29.282 1.48787C30.0154 1.1631 30.8394 0.994678 31.7656 0.994678V-0.51868C30.6518 -0.51868 29.6158 -0.315098 28.6692 0.104131L29.282 1.48787ZM35.8636 12.1593C36.5743 11.6114 37.0474 10.8898 37.269 10.0184L35.8023 9.64556C35.6638 10.1902 35.3809 10.6206 34.9396 10.9607L35.8636 12.1593ZM37.2659 10.03C37.4939 9.18929 37.4915 8.32972 37.2683 7.46492L35.8029 7.84308C35.9638 8.46628 35.9613 9.05871 35.8053 9.63395L37.2659 10.03ZM37.269 7.46774C37.0599 6.64424 36.7293 5.81855 36.2838 4.99126L34.9514 5.70874C35.3459 6.44145 35.6273 7.15176 35.8022 7.84026L37.269 7.46774ZM36.2903 5.00347C35.8445 4.13821 35.2774 3.37843 34.5885 2.7293L33.5507 3.8307C34.1098 4.35757 34.5747 4.97779 34.9449 5.69653L36.2903 5.00347ZM34.5993 2.73968C33.9496 2.10266 33.2621 1.56189 32.5363 1.1212L31.7509 2.4148C32.3691 2.79011 32.9656 3.25734 33.5399 3.82032L34.5993 2.73968ZM32.5415 1.12437C31.7705 0.647755 30.9454 0.40274 30.0788 0.41743L30.1044 1.93057C30.6538 1.92126 31.1967 2.07224 31.7457 2.41163L32.5415 1.12437ZM30.0788 0.41743C29.2142 0.432084 28.4178 0.699087 27.7078 1.20626L28.5874 2.43773C29.0534 2.10491 29.553 1.93992 30.1044 1.93057L30.0788 0.41743ZM27.6839 1.22406C26.9649 1.78167 26.4811 2.51132 26.2465 3.39103L27.7087 3.78097C27.8581 3.22068 28.1543 2.77433 28.6113 2.41994L27.6839 1.22406ZM26.2443 3.39956C26.0311 4.2381 26.0413 5.0985 26.2622 5.96826L27.729 5.59574C27.5659 4.9535 27.5641 4.3499 27.711 3.77244L26.2443 3.39956ZM26.2629 5.97108C26.4713 6.77859 26.7941 7.59467 27.2251 8.41872L28.5661 7.71728C28.1811 6.98133 27.9039 6.27341 27.7283 5.59292L26.2629 5.97108ZM27.2294 8.42674C27.6858 9.27432 28.2551 10.0277 28.9371 10.6834L29.9861 9.59256C29.4201 9.04832 28.9454 8.42168 28.5618 7.70926L27.2294 8.42674ZM28.9427 10.6887C29.6018 11.3098 30.2917 11.8409 31.0129 12.2788L31.7983 10.9852C31.1755 10.6071 30.5694 10.1422 29.9805 9.5873L28.9427 10.6887ZM31.0214 12.2839C31.801 12.7433 32.6271 12.9792 33.4884 12.9646L33.4628 11.4514C32.9081 11.4608 32.3542 11.3127 31.7898 10.9801L31.0214 12.2839ZM33.4884 12.9646C34.3534 12.9499 35.1464 12.6826 35.8474 12.1714L34.9558 10.9486C34.5048 11.2774 34.0138 11.4421 33.4628 11.4514L33.4884 12.9646ZM44.5525 11.362L45.2999 11.2431L45.2975 11.2299L44.5525 11.362ZM44.9305 12.568L44.2841 12.9614L44.2881 12.9679L44.2921 12.9742L44.9305 12.568ZM45.7045 13L45.6987 13.7567L45.7566 12.2451L45.7045 13ZM41.0245 12.964L40.9801 12.2086L41.0187 13.7207L41.0245 12.964ZM41.5285 12.802L41.9736 13.414L41.9825 13.4073L41.5285 12.802ZM41.8165 12.37L41.0986 12.1307L41.0913 12.1527L41.0854 12.175L41.8165 12.37ZM41.9425 11.866L42.6904 11.9811L42.6916 11.973L41.9425 11.866ZM41.9245 11.236L41.1712 11.3077L41.1729 11.3254L41.1754 11.343L41.9245 11.236ZM41.8525 10.66L42.597 10.5246V10.5246L41.8525 10.66ZM41.7445 10.12L40.9937 10.2139L40.9976 10.2451L41.004 10.2759L41.7445 10.12ZM41.7085 9.922L42.4263 9.68272L42.2592 9.18142L41.7311 9.16566L41.7085 9.922ZM39.2965 9.85L39.3191 9.09366L38.7102 9.07548L38.5624 9.66648L39.2965 9.85ZM39.2425 10.084L38.5038 9.91985L38.5006 9.93419L38.498 9.94864L39.2425 10.084ZM39.1345 10.696L39.879 10.8314L39.8809 10.8204L39.1345 10.696ZM39.0445 11.272L38.2954 11.165L38.2929 11.1826L38.2912 11.2003L39.0445 11.272ZM39.0265 11.884L38.272 11.942L38.2742 11.9707L38.2786 11.9991L39.0265 11.884ZM39.1345 12.388L38.4034 12.583L38.4114 12.6131L38.4219 12.6425L39.1345 12.388ZM39.4045 12.784L38.9318 13.3749L38.9454 13.3857L38.9594 13.396L39.4045 12.784ZM39.9085 12.964V13.7207L39.9969 12.2125L39.9085 12.964ZM37.2445 12.964L37.1506 12.2132L37.2445 13.7207V12.964ZM37.7485 12.802L38.1298 13.4556L38.1375 13.4511L38.1451 13.4464L37.7485 12.802ZM38.3425 12.046L37.6373 11.7717L37.6305 11.7891L37.6246 11.8067L38.3425 12.046ZM38.5225 11.506L39.2567 11.6896L39.2598 11.6761L38.5225 11.506ZM38.6665 10.804L37.9278 10.6399L37.9255 10.6504L37.9234 10.6611L38.6665 10.804ZM38.7205 10.552L37.9804 10.3939L37.9785 10.4036L38.7205 10.552ZM40.4665 2.38L41.2065 2.5381L41.2347 2.40576L41.2154 2.27182L40.4665 2.38ZM40.2325 0.76L40.1191 0.0118599L39.3762 0.124433L39.4836 0.868175L40.2325 0.76ZM42.6085 0.399999L43.3535 0.267871L43.2247 -0.458681L42.4951 -0.348141L42.6085 0.399999ZM39.4765 9.346L38.735 9.19508L38.5503 10.1027H39.4765V9.346ZM41.6185 9.346V10.1027H42.4848L42.3683 9.24426L41.6185 9.346ZM40.7905 3.244L41.5403 3.14226L41.4514 2.48732H40.7905V3.244ZM40.7185 3.244V2.48732H40.1003L39.977 3.09308L40.7185 3.244ZM43.8052 11.4809C43.8959 12.0507 44.0422 12.564 44.2841 12.9614L45.5768 12.1746C45.4828 12.02 45.3771 11.7293 45.2998 11.2431L43.8052 11.4809ZM44.2921 12.9742C44.6053 13.4664 45.0964 13.7165 45.6524 13.7549L45.7566 12.2451C45.6165 12.2355 45.5917 12.1976 45.5689 12.1618L44.2921 12.9742ZM45.7103 12.2433L41.0303 12.2073L41.0187 13.7207L45.6987 13.7567L45.7103 12.2433ZM41.0689 13.7194C41.3811 13.701 41.6982 13.6142 41.9735 13.414L41.0834 12.19C41.0948 12.1818 41.0759 12.203 40.9801 12.2086L41.0689 13.7194ZM41.9825 13.4073C42.2673 13.1937 42.4575 12.9028 42.5476 12.565L41.0854 12.175C41.0831 12.1835 41.0811 12.1886 41.08 12.1909C41.079 12.1932 41.0786 12.1938 41.0789 12.1933C41.0793 12.1927 41.0796 12.1924 41.0796 12.1924C41.0795 12.1925 41.0781 12.194 41.0745 12.1967L41.9825 13.4073ZM42.5343 12.6093C42.6052 12.3966 42.6587 12.1867 42.6904 11.9811L41.1946 11.7509C41.1782 11.8573 41.1478 11.9834 41.0986 12.1307L42.5343 12.6093ZM42.6916 11.973C42.7294 11.7081 42.7152 11.4203 42.6736 11.129L41.1754 11.343C41.2058 11.5557 41.2036 11.6879 41.1934 11.759L42.6916 11.973ZM42.6778 11.1643C42.6532 10.9061 42.6268 10.6887 42.597 10.5246L41.108 10.7954C41.1262 10.8953 41.1478 11.0619 41.1712 11.3077L42.6778 11.1643ZM42.597 10.5246C42.5711 10.3826 42.5335 10.1948 42.4849 9.96412L41.004 10.2759C41.0515 10.5012 41.0858 10.6734 41.108 10.7954L42.597 10.5246ZM42.4953 10.0261C42.4838 9.93363 42.4649 9.79846 42.4263 9.68272L40.9906 10.1613C40.9843 10.1422 40.9814 10.1297 40.9809 10.1279C40.9803 10.1252 40.9807 10.1268 40.982 10.1339C40.9847 10.1485 40.9887 10.1743 40.9937 10.2139L42.4953 10.0261ZM41.7311 9.16566L39.3191 9.09366L39.2739 10.6063L41.6859 10.6783L41.7311 9.16566ZM38.5624 9.66648C38.5478 9.7249 38.528 9.81127 38.5038 9.91985L39.9812 10.2481C40.005 10.1407 40.0212 10.0711 40.0306 10.0335L38.5624 9.66648ZM38.498 9.94864C38.4498 10.2138 38.413 10.4221 38.3881 10.5716L39.8809 10.8204C39.904 10.6819 39.9392 10.4822 39.987 10.2194L38.498 9.94864ZM38.39 10.5606C38.3634 10.707 38.3318 10.9103 38.2954 11.165L39.7936 11.379C39.8292 11.1297 39.8576 10.949 39.879 10.8314L38.39 10.5606ZM38.2912 11.2003C38.2653 11.4725 38.2553 11.7247 38.272 11.942L39.7809 11.826C39.7737 11.7313 39.7757 11.5755 39.7978 11.3437L38.2912 11.2003ZM38.2786 11.9991C38.3074 12.1863 38.3496 12.3812 38.4034 12.583L39.8656 12.193C39.8234 12.0348 39.7936 11.8937 39.7744 11.7689L38.2786 11.9991ZM38.4219 12.6425C38.5214 12.9211 38.6855 13.1778 38.9318 13.3749L39.8772 12.1931C39.8782 12.194 39.8765 12.1931 39.8722 12.1867C39.8675 12.1798 39.8579 12.1637 39.8471 12.1335L38.4219 12.6425ZM38.9594 13.396C39.2202 13.5856 39.52 13.6802 39.8201 13.7155L39.9969 12.2125C39.889 12.1998 39.8528 12.1744 39.8495 12.172L38.9594 13.396ZM39.9085 12.2073H37.2445V13.7207H39.9085V12.2073ZM37.3383 13.7148C37.6156 13.6802 37.8845 13.5987 38.1298 13.4556L37.3672 12.1484C37.3245 12.1733 37.2574 12.1998 37.1506 12.2132L37.3383 13.7148ZM38.1451 13.4464C38.3401 13.3264 38.5274 13.1843 38.678 13.0123L37.539 12.0157C37.5216 12.0357 37.4689 12.0856 37.3519 12.1576L38.1451 13.4464ZM38.678 13.0123C38.8611 12.803 38.9776 12.5336 39.0603 12.2853L37.6246 11.8067C37.5968 11.8904 37.5722 11.9486 37.5532 11.9866C37.5333 12.0265 37.5263 12.0303 37.539 12.0157L38.678 13.0123ZM39.0477 12.3203C39.1376 12.0891 39.2099 11.8764 39.2566 11.6895L37.7884 11.3225C37.7631 11.4236 37.7154 11.5709 37.6373 11.7717L39.0477 12.3203ZM39.2598 11.6761C39.299 11.5061 39.3492 11.261 39.4096 10.9469L37.9234 10.6611C37.8638 10.971 37.818 11.1939 37.7852 11.3359L39.2598 11.6761ZM39.4052 10.9681C39.4296 10.8584 39.4489 10.7683 39.4625 10.7004L37.9785 10.4036C37.9681 10.4557 37.9514 10.5336 37.9278 10.6399L39.4052 10.9681ZM39.4605 10.7101L41.2065 2.5381L39.7265 2.2219L37.9805 10.3939L39.4605 10.7101ZM41.2154 2.27182L40.9814 0.651824L39.4836 0.868175L39.7176 2.48817L41.2154 2.27182ZM40.3458 1.50814L42.7218 1.14814L42.4951 -0.348141L40.1191 0.0118599L40.3458 1.50814ZM41.8634 0.532127L43.8074 11.4941L45.2975 11.2299L43.3535 0.267871L41.8634 0.532127ZM39.4765 10.1027H41.6185V8.58932H39.4765V10.1027ZM42.3683 9.24426L41.5403 3.14226L40.0407 3.34574L40.8687 9.44774L42.3683 9.24426ZM40.7905 2.48732H40.7185V4.00068H40.7905V2.48732ZM39.977 3.09308L38.735 9.19508L40.218 9.49692L41.46 3.39492L39.977 3.09308ZM50.8033 0.831999L51.1787 0.175018V0.175018L50.8033 0.831999ZM52.0453 2.002L51.4133 2.41819L51.4181 2.42534L52.0453 2.002ZM52.8553 3.658L52.1401 3.90555L52.1446 3.91769L52.8553 3.658ZM53.2693 5.638L52.5144 5.69006V5.69006L53.2693 5.638ZM53.2693 7.726L52.5144 7.67394L53.2693 7.726ZM52.8553 9.724L53.566 9.98369L53.5676 9.97935L52.8553 9.724ZM52.0273 11.398L52.6545 11.8214L52.6592 11.8142L52.0273 11.398ZM50.7853 12.55L51.1488 13.2138L51.1607 13.207L50.7853 12.55ZM49.1293 12.964V12.2073L49.1211 12.2074L49.1293 12.964ZM45.7993 13L45.7308 12.2464L45.8075 13.7566L45.7993 13ZM46.7533 11.218H45.9966V11.226L45.9968 11.2341L46.7533 11.218ZM46.7533 2.146L45.9968 2.12881L45.9966 2.1374V2.146H46.7533ZM46.5553 0.903999L45.8627 1.20874L45.8677 1.22018L45.8731 1.23144L46.5553 0.903999ZM45.7993 0.399999V-0.35668L45.7264 1.15316L45.7993 0.399999ZM49.5253 12.64L49.565 13.3956L49.612 13.3932L49.6583 13.3849L49.5253 12.64ZM50.3713 11.29L51.1015 11.4882L50.3713 11.29ZM50.7853 8.302L51.5413 8.3335L51.5413 8.33318L50.7853 8.302ZM50.7673 4.828L50.0112 4.8595L50.0116 4.86736L50.7673 4.828ZM50.3353 1.912L51.0594 1.69256V1.69256L50.3353 1.912ZM49.2013 0.723999V-0.0326794H48.4457L48.4446 0.722858L49.2013 0.723999ZM49.1833 12.658L48.4266 12.6569L48.4254 13.4556L49.223 13.4136L49.1833 12.658ZM49.1473 1.15668C49.6202 1.15668 50.0421 1.26857 50.4279 1.48898L51.1787 0.175018C50.5564 -0.18057 49.8743 -0.35668 49.1473 -0.35668V1.15668ZM50.4279 1.48898C50.827 1.71708 51.1537 2.02395 51.4133 2.41817L52.6772 1.58583C52.2888 0.996051 51.7875 0.52292 51.1787 0.175018L50.4279 1.48898ZM51.4181 2.42534C51.7006 2.8438 51.9428 3.33517 52.1402 3.90552L53.5703 3.41048C53.3358 2.73283 53.038 2.1202 52.6724 1.57866L51.4181 2.42534ZM52.1446 3.91769C52.347 4.47162 52.471 5.06144 52.5144 5.69006L54.0242 5.58594C53.9715 4.82256 53.8196 4.09238 53.566 3.39831L52.1446 3.91769ZM52.5144 5.69006C52.56 6.35139 52.56 7.0126 52.5144 7.67394L54.0242 7.77806C54.0746 7.04739 54.0746 6.31661 54.0242 5.58594L52.5144 5.69006ZM52.5144 7.67394C52.471 8.30282 52.3467 8.90025 52.143 9.46865L53.5676 9.97935C53.8198 9.27575 53.9715 8.54118 54.0242 7.77806L52.5144 7.67394ZM52.1446 9.46431C51.9341 10.0402 51.6833 10.5445 51.3953 10.9818L52.6592 11.8142C53.0192 11.2675 53.3204 10.6558 53.566 9.98369L52.1446 9.46431ZM51.4001 10.9747C51.1412 11.3583 50.8134 11.6624 50.4099 11.893L51.1607 13.207C51.7652 12.8616 52.2654 12.3977 52.6544 11.8213L51.4001 10.9747ZM50.4218 11.8863C50.0342 12.0986 49.6081 12.2073 49.1293 12.2073V13.7207C49.8505 13.7207 50.5283 13.5534 51.1487 13.2137L50.4218 11.8863ZM49.1211 12.2074L45.7911 12.2434L45.8075 13.7566L49.1375 13.7206L49.1211 12.2074ZM45.8678 13.7536C46.4564 13.7001 46.9231 13.3835 47.1999 12.8666C47.4486 12.4019 47.5229 11.8185 47.5098 11.2019L45.9968 11.2341C46.0076 11.7455 45.9349 12.0231 45.8657 12.1524C45.8362 12.2074 45.8144 12.2226 45.8095 12.2259C45.8051 12.2288 45.786 12.2414 45.7308 12.2464L45.8678 13.7536ZM47.51 11.218V2.146H45.9966V11.218H47.51ZM47.5098 2.16319C47.523 1.57875 47.4546 1.029 47.2374 0.576561L45.8731 1.23144C45.9439 1.379 46.0075 1.65725 45.9968 2.12881L47.5098 2.16319ZM47.2479 0.599255C46.9881 0.00896919 46.4705 -0.295255 45.8722 -0.353161L45.7264 1.15316C45.817 1.16193 45.8468 1.18207 45.8475 1.18259C45.8484 1.18318 45.8482 1.18302 45.8488 1.18372C45.8497 1.18478 45.8551 1.19159 45.8627 1.20874L47.2479 0.599255ZM45.7993 1.15668H49.1473V-0.35668H45.7993V1.15668ZM49.6583 13.3849C50.1294 13.3008 50.4379 12.9658 50.63 12.6593C50.8276 12.3439 50.9788 11.9405 51.1015 11.4882L49.641 11.0918C49.5358 11.4795 49.4319 11.7211 49.3476 11.8557C49.2577 11.9992 49.2571 11.9192 49.3923 11.8951L49.6583 13.3849ZM51.1015 11.4882C51.3482 10.5795 51.4917 9.52486 51.5413 8.3335L50.0293 8.2705C49.9829 9.38314 49.8504 10.3205 49.641 11.0918L51.1015 11.4882ZM51.5413 8.33318C51.5903 7.1459 51.5842 5.96437 51.5229 4.78864L50.0116 4.86736C50.0704 5.99563 50.0763 7.13009 50.0292 8.27082L51.5413 8.33318ZM51.5233 4.7965C51.4736 3.60369 51.3236 2.56424 51.0594 1.69256L49.6111 2.13144C49.827 2.84375 49.965 3.7483 50.0112 4.8595L51.5233 4.7965ZM51.0594 1.69256C50.9289 1.26178 50.7647 0.869453 50.5423 0.569943C50.3158 0.264875 49.956 -0.0326794 49.4533 -0.0326794V1.48068C49.2985 1.48068 49.2597 1.38112 49.3272 1.47206C49.3989 1.56855 49.5017 1.77022 49.6111 2.13144L51.0594 1.69256ZM49.4533 -0.0326794H49.2013V1.48068H49.4533V-0.0326794ZM48.4446 0.722858L48.4266 12.6569L49.94 12.6591L49.958 0.725141L48.4446 0.722858ZM49.223 13.4136L49.565 13.3956L49.4855 11.8844L49.1435 11.9024L49.223 13.4136Z" fill="white" mask="url(#path-1-outside-1_1015_1801)"/>
</g>
<defs>
<filter id="filter0_d_1015_1801" x="0.166992" y="0.238037" width="57.1738" height="20.8879" filterUnits="userSpaceOnUse" color-interpolation-filters="sRGB">
<feFlood flood-opacity="0" result="BackgroundImageFix"/>
<feColorMatrix in="SourceAlpha" type="matrix" values="0 0 0 0 0 0 0 0 0 0 0 0 0 0 0 0 0 0 127 0" result="hardAlpha"/>
<feOffset dy="4"/>
<feGaussianBlur stdDeviation="2"/>
<feComposite in2="hardAlpha" operator="out"/>
<feColorMatrix type="matrix" values="0 0 0 0 0 0 0 0 0 0 0 0 0 0 0 0 0 0 0.25 0"/>
<feBlend mode="normal" in2="BackgroundImageFix" result="effect1_dropShadow_1015_1801"/>
<feBlend mode="normal" in="SourceGraphic" in2="effect1_dropShadow_1015_1801" result="shape"/>
</filter>
</defs>
</svg>
