<svg width="58" height="22" viewBox="0 0 58 22" fill="none" xmlns="http://www.w3.org/2000/svg">
<g filter="url(#filter0_d_1015_1801)">
<mask id="path-1-outside-1_1015_1801" maskUnits="userSpaceOnUse" x="4" y="-1" width="51" height="15" fill="black">
<rect fill="white" x="4" y="-1" width="51" height="15"/>
<path d="M9.72468 0.399999H12.2627C11.5307 0.399999 11.1767 0.981999 11.2007 2.146L11.1107 9.508C11.1107 10.168 11.0387 10.744 10.8947 11.236C10.7627 11.716 10.5767 12.094 10.3367 12.37C10.0967 12.634 9.83868 12.826 9.56268 12.946C9.29868 13.066 9.01668 13.126 8.71668 13.126C7.80468 13.126 7.09068 12.808 6.57468 12.172C6.05868 11.536 5.80068 10.654 5.80068 9.526L5.72868 2.128C5.74068 1.576 5.66868 1.15 5.51268 0.85C5.36868 0.549999 5.08668 0.399999 4.66668 0.399999H9.25668C8.83668 0.399999 8.54868 0.549999 8.39268 0.85C8.24868 1.15 8.18268 1.576 8.19468 2.128L8.15868 9.526C8.15868 11.254 8.63268 12.118 9.58068 12.118C9.92868 12.118 10.2227 11.908 10.4627 11.488C10.7147 11.056 10.8347 10.408 10.8227 9.544L10.7867 2.146C10.7987 1.594 10.7267 1.168 10.5707 0.868C10.4267 0.555999 10.1447 0.399999 9.72468 0.399999ZM12.1437 0.399999H15.6177C16.1217 0.399999 16.5777 0.507999 16.9857 0.723999C17.4057 0.927999 17.7477 1.204 18.0117 1.552C18.2877 1.9 18.5217 2.302 18.7137 2.758C18.9057 3.214 19.0197 3.7 19.0557 4.216C19.1037 4.72 19.1037 5.224 19.0557 5.728C19.0197 6.232 18.9117 6.712 18.7317 7.168C18.5517 7.624 18.3297 8.026 18.0657 8.374C17.8017 8.722 17.4597 9.004 17.0397 9.22C16.6317 9.424 16.1817 9.526 15.6897 9.526V11.812C15.7857 12.604 16.1277 13 16.7157 13H13.2597H12.1437C12.8757 13 13.2297 12.406 13.2057 11.218V2.182C13.2297 0.993999 12.8757 0.399999 12.1437 0.399999ZM15.8157 9.13C16.0437 9.13 16.2297 8.842 16.3737 8.266C16.5297 7.678 16.6197 6.97 16.6437 6.142C16.6797 5.314 16.6737 4.486 16.6257 3.658C16.5897 2.83 16.4877 2.128 16.3197 1.552C16.1517 0.976 15.9417 0.688 15.6897 0.688V9.13H15.8157ZM23.3815 12.64C23.5975 12.64 23.8075 12.586 24.0115 12.478C24.2155 12.37 24.3895 12.232 24.5335 12.064C24.6895 11.896 24.8335 11.71 24.9655 11.506C25.1095 11.302 25.2235 11.098 25.3075 10.894C25.3915 10.678 25.4635 10.486 25.5235 10.318C25.5955 10.15 25.6495 10.012 25.6855 9.904L25.7215 9.742L25.0375 12.964L19.1695 13C19.4935 13 19.7575 12.91 19.9615 12.73C20.1775 12.55 20.2735 12.316 20.2495 12.028V1.372C20.2855 1.084 20.1895 0.849999 19.9615 0.669999C19.7455 0.489999 19.4755 0.399999 19.1515 0.399999H23.5795C22.9195 0.399999 22.5895 0.723999 22.5895 1.372V12.64H23.3815ZM32.2656 0.237999C33.2976 0.237999 34.2276 0.423999 35.0556 0.795999C35.8836 1.168 36.5496 1.654 37.0536 2.254C37.5696 2.854 37.9656 3.544 38.2416 4.324C38.5296 5.092 38.6736 5.878 38.6736 6.682C38.6736 7.486 38.5356 8.278 38.2596 9.058C37.9836 9.826 37.5876 10.516 37.0716 11.128C36.5676 11.728 35.8956 12.214 35.0556 12.586C34.2276 12.946 33.2976 13.126 32.2656 13.126C31.2456 13.126 30.3156 12.946 29.4756 12.586C28.6476 12.214 27.9756 11.728 27.4596 11.128C26.9556 10.516 26.5656 9.826 26.2896 9.058C26.0136 8.278 25.8756 7.486 25.8756 6.682C25.8756 5.878 26.0136 5.092 26.2896 4.324C26.5656 3.544 26.9556 2.854 27.4596 2.254C27.9756 1.654 28.6476 1.168 29.4756 0.795999C30.3156 0.423999 31.2456 0.237999 32.2656 0.237999ZM35.9016 11.56C36.4776 11.116 36.8556 10.54 37.0356 9.832C37.2276 9.124 37.2276 8.398 37.0356 7.654C36.8436 6.898 36.5376 6.13 36.1176 5.35C35.7096 4.558 35.1936 3.868 34.5696 3.28C33.9576 2.68 33.3156 2.176 32.6436 1.768C31.9836 1.36 31.2996 1.162 30.5916 1.174C29.8836 1.186 29.2356 1.402 28.6476 1.822C28.0596 2.278 27.6696 2.866 27.4776 3.586C27.2976 4.294 27.3036 5.026 27.4956 5.782C27.6876 6.526 27.9876 7.288 28.3956 8.068C28.8156 8.848 29.3376 9.538 29.9616 10.138C30.5856 10.726 31.2336 11.224 31.9056 11.632C32.5776 12.028 33.2676 12.22 33.9756 12.208C34.6836 12.196 35.3256 11.98 35.9016 11.56ZM45.0525 11.362C45.1365 11.89 45.2625 12.292 45.4305 12.568C45.5985 12.832 45.8565 12.976 46.2045 13L41.5245 12.964C41.7285 12.952 41.8965 12.898 42.0285 12.802C42.1725 12.694 42.2685 12.55 42.3165 12.37C42.3765 12.19 42.4185 12.022 42.4425 11.866C42.4665 11.698 42.4605 11.488 42.4245 11.236C42.4005 10.984 42.3765 10.792 42.3525 10.66C42.3285 10.528 42.2925 10.348 42.2445 10.12C42.2325 10.024 42.2205 9.958 42.2085 9.922L39.7965 9.85C39.7845 9.898 39.7665 9.976 39.7425 10.084C39.6945 10.348 39.6585 10.552 39.6345 10.696C39.6105 10.828 39.5805 11.02 39.5445 11.272C39.5205 11.524 39.5145 11.728 39.5265 11.884C39.5505 12.04 39.5865 12.208 39.6345 12.388C39.6945 12.556 39.7845 12.688 39.9045 12.784C40.0365 12.88 40.2045 12.94 40.4085 12.964H37.7445C37.9365 12.94 38.1045 12.886 38.2485 12.802C38.4045 12.706 38.5245 12.61 38.6085 12.514C38.6925 12.418 38.7705 12.262 38.8425 12.046C38.9265 11.83 38.9865 11.65 39.0225 11.506C39.0585 11.35 39.1065 11.116 39.1665 10.804C39.1905 10.696 39.2085 10.612 39.2205 10.552L40.9665 2.38L40.7325 0.76L43.1085 0.399999L45.0525 11.362ZM39.9765 9.346H42.1185L41.2905 3.244H41.2185L39.9765 9.346ZM49.6473 0.399999C50.2473 0.399999 50.7993 0.543999 51.3033 0.831999C51.8073 1.12 52.2213 1.51 52.5453 2.002C52.8693 2.482 53.1393 3.034 53.3553 3.658C53.5833 4.282 53.7213 4.942 53.7693 5.638C53.8173 6.334 53.8173 7.03 53.7693 7.726C53.7213 8.422 53.5833 9.088 53.3553 9.724C53.1273 10.348 52.8513 10.906 52.5273 11.398C52.2033 11.878 51.7893 12.262 51.2853 12.55C50.7813 12.826 50.2293 12.964 49.6293 12.964L46.2993 13C46.9593 12.94 47.2773 12.346 47.2533 11.218V2.146C47.2653 1.618 47.1993 1.204 47.0553 0.903999C46.9233 0.603999 46.6713 0.435999 46.2993 0.399999H49.6473ZM50.0253 12.64C50.3613 12.58 50.6433 12.13 50.8713 11.29C51.0993 10.45 51.2373 9.454 51.2853 8.302C51.3333 7.138 51.3273 5.98 51.2673 4.828C51.2193 3.676 51.0753 2.704 50.8353 1.912C50.5953 1.12 50.3013 0.723999 49.9533 0.723999H49.7013L49.6833 12.658L50.0253 12.64Z"/>
</mask>
<path d="M9.72468 0.399999H12.2627C11.5307 0.399999 11.1767 0.981999 11.2007 2.146L11.1107 9.508C11.1107 10.168 11.0387 10.744 10.8947 11.236C10.7627 11.716 10.5767 12.094 10.3367 12.37C10.0967 12.634 9.83868 12.826 9.56268 12.946C9.29868 13.066 9.01668 13.126 8.71668 13.126C7.80468 13.126 7.09068 12.808 6.57468 12.172C6.05868 11.536 5.80068 10.654 5.80068 9.526L5.72868 2.128C5.74068 1.576 5.66868 1.15 5.51268 0.85C5.36868 0.549999 5.08668 0.399999 4.66668 0.399999H9.25668C8.83668 0.399999 8.54868 0.549999 8.39268 0.85C8.24868 1.15 8.18268 1.576 8.19468 2.128L8.15868 9.526C8.15868 11.254 8.63268 12.118 9.58068 12.118C9.92868 12.118 10.2227 11.908 10.4627 11.488C10.7147 11.056 10.8347 10.408 10.8227 9.544L10.7867 2.146C10.7987 1.594 10.7267 1.168 10.5707 0.868C10.4267 0.555999 10.1447 0.399999 9.72468 0.399999ZM12.1437 0.399999H15.6177C16.1217 0.399999 16.5777 0.507999 16.9857 0.723999C17.4057 0.927999 17.7477 1.204 18.0117 1.552C18.2877 1.9 18.5217 2.302 18.7137 2.758C18.9057 3.214 19.0197 3.7 19.0557 4.216C19.1037 4.72 19.1037 5.224 19.0557 5.728C19.0197 6.232 18.9117 6.712 18.7317 7.168C18.5517 7.624 18.3297 8.026 18.0657 8.374C17.8017 8.722 17.4597 9.004 17.0397 9.22C16.6317 9.424 16.1817 9.526 15.6897 9.526V11.812C15.7857 12.604 16.1277 13 16.7157 13H13.2597H12.1437C12.8757 13 13.2297 12.406 13.2057 11.218V2.182C13.2297 0.993999 12.8757 0.399999 12.1437 0.399999ZM15.8157 9.13C16.0437 9.13 16.2297 8.842 16.3737 8.266C16.5297 7.678 16.6197 6.97 16.6437 6.142C16.6797 5.314 16.6737 4.486 16.6257 3.658C16.5897 2.83 16.4877 2.128 16.3197 1.552C16.1517 0.976 15.9417 0.688 15.6897 0.688V9.13H15.8157ZM23.3815 12.64C23.5975 12.64 23.8075 12.586 24.0115 12.478C24.2155 12.37 24.3895 12.232 24.5335 12.064C24.6895 11.896 24.8335 11.71 24.9655 11.506C25.1095 11.302 25.2235 11.098 25.3075 10.894C25.3915 10.678 25.4635 10.486 25.5235 10.318C25.5955 10.15 25.6495 10.012 25.6855 9.904L25.7215 9.742L25.0375 12.964L19.1695 13C19.4935 13 19.7575 12.91 19.9615 12.73C20.1775 12.55 20.2735 12.316 20.2495 12.028V1.372C20.2855 1.084 20.1895 0.849999 19.9615 0.669999C19.7455 0.489999 19.4755 0.399999 19.1515 0.399999H23.5795C22.9195 0.399999 22.5895 0.723999 22.5895 1.372V12.64H23.3815ZM32.2656 0.237999C33.2976 0.237999 34.2276 0.423999 35.0556 0.795999C35.8836 1.168 36.5496 1.654 37.0536 2.254C37.5696 2.854 37.9656 3.544 38.2416 4.324C38.5296 5.092 38.6736 5.878 38.6736 6.682C38.6736 7.486 38.5356 8.278 38.2596 9.058C37.9836 9.826 37.5876 10.516 37.0716 11.128C36.5676 11.728 35.8956 12.214 35.0556 12.586C34.2276 12.946 33.2976 13.126 32.2656 13.126C31.2456 13.126 30.3156 12.946 29.4756 12.586C28.6476 12.214 27.9756 11.728 27.4596 11.128C26.9556 10.516 26.5656 9.826 26.2896 9.058C26.0136 8.278 25.8756 7.486 25.8756 6.682C25.8756 5.878 26.0136 5.092 26.2896 4.324C26.5656 3.544 26.9556 2.854 27.4596 2.254C27.9756 1.654 28.6476 1.168 29.4756 0.795999C30.3156 0.423999 31.2456 0.237999 32.2656 0.237999ZM35.9016 11.56C36.4776 11.116 36.8556 10.54 37.0356 9.832C37.2276 9.124 37.2276 8.398 37.0356 7.654C36.8436 6.898 36.5376 6.13 36.1176 5.35C35.7096 4.558 35.1936 3.868 34.5696 3.28C33.9576 2.68 33.3156 2.176 32.6436 1.768C31.9836 1.36 31.2996 1.162 30.5916 1.174C29.8836 1.186 29.2356 1.402 28.6476 1.822C28.0596 2.278 27.6696 2.866 27.4776 3.586C27.2976 4.294 27.3036 5.026 27.4956 5.782C27.6876 6.526 27.9876 7.288 28.3956 8.068C28.8156 8.848 29.3376 9.538 29.9616 10.138C30.5856 10.726 31.2336 11.224 31.9056 11.632C32.5776 12.028 33.2676 12.22 33.9756 12.208C34.6836 12.196 35.3256 11.98 35.9016 11.56ZM45.0525 11.362C45.1365 11.89 45.2625 12.292 45.4305 12.568C45.5985 12.832 45.8565 12.976 46.2045 13L41.5245 12.964C41.7285 12.952 41.8965 12.898 42.0285 12.802C42.1725 12.694 42.2685 12.55 42.3165 12.37C42.3765 12.19 42.4185 12.022 42.4425 11.866C42.4665 11.698 42.4605 11.488 42.4245 11.236C42.4005 10.984 42.3765 10.792 42.3525 10.66C42.3285 10.528 42.2925 10.348 42.2445 10.12C42.2325 10.024 42.2205 9.958 42.2085 9.922L39.7965 9.85C39.7845 9.898 39.7665 9.976 39.7425 10.084C39.6945 10.348 39.6585 10.552 39.6345 10.696C39.6105 10.828 39.5805 11.02 39.5445 11.272C39.5205 11.524 39.5145 11.728 39.5265 11.884C39.5505 12.04 39.5865 12.208 39.6345 12.388C39.6945 12.556 39.7845 12.688 39.9045 12.784C40.0365 12.88 40.2045 12.94 40.4085 12.964H37.7445C37.9365 12.94 38.1045 12.886 38.2485 12.802C38.4045 12.706 38.5245 12.61 38.6085 12.514C38.6925 12.418 38.7705 12.262 38.8425 12.046C38.9265 11.83 38.9865 11.65 39.0225 11.506C39.0585 11.35 39.1065 11.116 39.1665 10.804C39.1905 10.696 39.2085 10.612 39.2205 10.552L40.9665 2.38L40.7325 0.76L43.1085 0.399999L45.0525 11.362ZM39.9765 9.346H42.1185L41.2905 3.244H41.2185L39.9765 9.346ZM49.6473 0.399999C50.2473 0.399999 50.7993 0.543999 51.3033 0.831999C51.8073 1.12 52.2213 1.51 52.5453 2.002C52.8693 2.482 53.1393 3.034 53.3553 3.658C53.5833 4.282 53.7213 4.942 53.7693 5.638C53.8173 6.334 53.8173 7.03 53.7693 7.726C53.7213 8.422 53.5833 9.088 53.3553 9.724C53.1273 10.348 52.8513 10.906 52.5273 11.398C52.2033 11.878 51.7893 12.262 51.2853 12.55C50.7813 12.826 50.2293 12.964 49.6293 12.964L46.2993 13C46.9593 12.94 47.2773 12.346 47.2533 11.218V2.146C47.2653 1.618 47.1993 1.204 47.0553 0.903999C46.9233 0.603999 46.6713 0.435999 46.2993 0.399999H49.6473ZM50.0253 12.64C50.3613 12.58 50.6433 12.13 50.8713 11.29C51.0993 10.45 51.2373 9.454 51.2853 8.302C51.3333 7.138 51.3273 5.98 51.2673 4.828C51.2193 3.676 51.0753 2.704 50.8353 1.912C50.5953 1.12 50.3013 0.723999 49.9533 0.723999H49.7013L49.6833 12.658L50.0253 12.64Z" fill="black"/>
<path d="M11.2007 2.146L11.9573 2.15525L11.9575 2.14282L11.9572 2.1304L11.2007 2.146ZM11.1107 9.508L10.354 9.49875V9.508H11.1107ZM10.8947 11.236L10.1684 11.0234L10.1651 11.0354L10.8947 11.236ZM10.3367 12.37L10.8966 12.879L10.9022 12.8728L10.9077 12.8665L10.3367 12.37ZM9.56268 12.946L9.26093 12.252L9.24956 12.2571L9.56268 12.946ZM6.57468 12.172L5.98707 12.6487H5.98707L6.57468 12.172ZM5.80068 9.526H6.55739L6.55732 9.51864L5.80068 9.526ZM5.72868 2.128L4.97218 2.11155L4.97192 2.12346L4.97204 2.13536L5.72868 2.128ZM5.51268 0.85L4.83052 1.17744L4.83576 1.18835L4.84134 1.1991L5.51268 0.85ZM8.39268 0.85L7.72134 0.500904L7.71576 0.511646L7.71052 0.522561L8.39268 0.85ZM8.19468 2.128L8.95135 2.13168L8.9514 2.12162L8.95118 2.11155L8.19468 2.128ZM8.15868 9.526L7.402 9.52232V9.526H8.15868ZM10.4627 11.488L9.80905 11.1067L9.8057 11.1126L10.4627 11.488ZM10.8227 9.544L10.066 9.54768L10.0661 9.55451L10.8227 9.544ZM10.7867 2.146L10.0302 2.12955L10.03 2.13962L10.03 2.14968L10.7867 2.146ZM10.5707 0.868L9.88365 1.18509L9.89112 1.20128L9.89934 1.2171L10.5707 0.868ZM9.72468 1.15668H12.2627V-0.35668H9.72468V1.15668ZM12.2627 -0.35668C11.6563 -0.35668 11.1279 -0.0930351 10.8017 0.443278C10.5138 0.916661 10.4311 1.52597 10.4442 2.1616L11.9572 2.1304C11.9463 1.60203 12.0286 1.33834 12.0947 1.22972C12.1206 1.18709 12.1376 1.17842 12.142 1.17607C12.1489 1.17238 12.181 1.15668 12.2627 1.15668V-0.35668ZM10.4441 2.13675L10.3541 9.49875L11.8673 9.51725L11.9573 2.15525L10.4441 2.13675ZM10.354 9.508C10.354 10.1156 10.2874 10.617 10.1685 11.0234L11.6209 11.4486C11.7899 10.871 11.8674 10.2204 11.8674 9.508H10.354ZM10.1651 11.0354C10.0529 11.4434 9.90953 11.7081 9.76569 11.8735L10.9077 12.8665C11.2438 12.4799 11.4725 11.9886 11.6243 11.4366L10.1651 11.0354ZM9.77678 11.861C9.59562 12.0603 9.42229 12.1819 9.26097 12.2521L9.86439 13.6399C10.2551 13.4701 10.5977 13.2077 10.8966 12.879L9.77678 11.861ZM9.24956 12.2571C9.08732 12.3309 8.91249 12.3693 8.71668 12.3693V13.8827C9.12087 13.8827 9.51004 13.8011 9.8758 13.6349L9.24956 12.2571ZM8.71668 12.3693C8.00336 12.3693 7.51708 12.1326 7.16229 11.6953L5.98707 12.6487C6.66428 13.4834 7.606 13.8827 8.71668 13.8827V12.3693ZM7.16229 11.6953C6.79056 11.2371 6.55736 10.5453 6.55736 9.526H5.044C5.044 10.7627 5.3268 11.8349 5.98707 12.6487L7.16229 11.6953ZM6.55732 9.51864L6.48532 2.12064L4.97204 2.13536L5.04404 9.53336L6.55732 9.51864ZM6.48518 2.14444C6.49838 1.53701 6.42462 0.963603 6.18402 0.500904L4.84134 1.1991C4.91274 1.3364 4.98297 1.61499 4.97218 2.11155L6.48518 2.14444ZM6.19484 0.522562C6.05613 0.233582 5.83824 -0.00144887 5.54853 -0.155551C5.26911 -0.304178 4.96294 -0.35668 4.66668 -0.35668V1.15668C4.79042 1.15668 4.83525 1.17918 4.83783 1.18055C4.8383 1.1808 4.83408 1.17837 4.8293 1.17332C4.82475 1.16852 4.82596 1.16795 4.83052 1.17744L6.19484 0.522562ZM4.66668 1.15668H9.25668V-0.35668H4.66668V1.15668ZM9.25668 -0.35668C8.63577 -0.35668 8.04128 -0.114354 7.72134 0.500904L9.06402 1.1991C9.07057 1.18649 9.07424 1.18338 9.07306 1.18457C9.07168 1.18597 9.07121 1.1857 9.07522 1.18361C9.08429 1.17888 9.13378 1.15668 9.25668 1.15668V-0.35668ZM7.71052 0.522561C7.4918 0.978222 7.42509 1.54251 7.43818 2.14445L8.95118 2.11155C8.94027 1.60949 9.00556 1.32178 9.07484 1.17744L7.71052 0.522561ZM7.43801 2.12432L7.40201 9.52232L8.91535 9.52968L8.95135 2.13168L7.43801 2.12432ZM7.402 9.526C7.402 10.4344 7.52233 11.2353 7.85078 11.834C8.02126 12.1447 8.25518 12.414 8.56564 12.6027C8.87763 12.7922 9.22485 12.8747 9.58068 12.8747V11.3613C9.46251 11.3613 9.39498 11.3358 9.35147 11.3093C9.30643 11.282 9.2441 11.2273 9.17758 11.106C9.03203 10.8407 8.91536 10.3456 8.91536 9.526H7.402ZM9.58068 12.8747C10.3012 12.8747 10.8039 12.4159 11.1197 11.8634L9.8057 11.1126C9.72246 11.2583 9.65574 11.3209 9.62237 11.3448C9.59847 11.3618 9.59067 11.3613 9.58068 11.3613V12.8747ZM11.1163 11.8693C11.4714 11.2605 11.592 10.4473 11.5793 9.53349L10.0661 9.55451C10.0774 10.3687 9.95797 10.8515 9.80908 11.1067L11.1163 11.8693ZM11.5793 9.54032L11.5433 2.14232L10.03 2.14968L10.066 9.54768L11.5793 9.54032ZM11.5432 2.16245C11.5564 1.55501 11.4826 0.981603 11.242 0.518903L9.89934 1.2171C9.97074 1.3544 10.041 1.63299 10.0302 2.12955L11.5432 2.16245ZM11.2577 0.550907C11.123 0.258985 10.909 0.0161403 10.6175 -0.14512C10.3354 -0.301149 10.0251 -0.35668 9.72468 -0.35668V1.15668C9.78344 1.15668 9.82391 1.16219 9.84966 1.16791C9.87478 1.17349 9.88461 1.17896 9.8849 1.17912C9.88519 1.17928 9.88408 1.17868 9.88217 1.17718C9.88026 1.17567 9.87853 1.17402 9.87723 1.1726C9.87414 1.16921 9.87728 1.1713 9.88365 1.18509L11.2577 0.550907ZM16.9857 0.723999L16.6317 1.39274L16.6433 1.39889L16.6551 1.40464L16.9857 0.723999ZM18.0117 1.552L17.4089 2.00933L17.4138 2.01581L17.4189 2.0222L18.0117 1.552ZM18.7137 2.758L18.0163 3.05163L18.7137 2.758ZM19.0557 4.216L18.3009 4.26866L18.3015 4.27821L18.3024 4.28774L19.0557 4.216ZM19.0557 5.728L18.3024 5.65626L18.3016 5.66517L18.301 5.67409L19.0557 5.728ZM18.7317 7.168L19.4355 7.44583V7.44583L18.7317 7.168ZM18.0657 8.374L18.6686 8.83133L18.0657 8.374ZM17.0397 9.22L17.3781 9.89684L17.3858 9.89291L17.0397 9.22ZM15.6897 9.526V8.76932H14.933V9.526H15.6897ZM15.6897 11.812H14.933V11.8577L14.9385 11.9031L15.6897 11.812ZM13.2057 11.218H12.449V11.2256L12.4492 11.2333L13.2057 11.218ZM13.2057 2.182L12.4492 2.16672L12.449 2.17436V2.182H13.2057ZM16.3737 8.266L15.6423 8.07194L15.6396 8.08248L16.3737 8.266ZM16.6437 6.142L15.8877 6.10913L15.8874 6.12008L16.6437 6.142ZM16.6257 3.658L15.8697 3.69087L15.8703 3.70179L16.6257 3.658ZM16.3197 1.552L17.0461 1.34013V1.34013L16.3197 1.552ZM15.6897 0.688V-0.068679H14.933V0.688H15.6897ZM15.6897 9.13H14.933V9.88668H15.6897V9.13ZM12.1437 1.15668H15.6177V-0.35668H12.1437V1.15668ZM15.6177 1.15668C16.0099 1.15668 16.3425 1.23967 16.6317 1.39274L17.3398 0.0552558C16.8129 -0.223672 16.2336 -0.35668 15.6177 -0.35668V1.15668ZM16.6551 1.40464C16.9756 1.56032 17.2217 1.76261 17.4089 2.00933L18.6146 1.09467C18.2737 0.645384 17.8358 0.295681 17.3163 0.0433607L16.6551 1.40464ZM17.4189 2.0222C17.6476 2.31063 17.848 2.65185 18.0163 3.05163L19.4111 2.46437C19.1954 1.95215 18.9278 1.48936 18.6046 1.0818L17.4189 2.0222ZM18.0163 3.05163C18.1746 3.42758 18.2704 3.8318 18.3009 4.26866L19.8106 4.16334C19.769 3.5682 19.6368 3.00042 19.4111 2.46437L18.0163 3.05163ZM18.3024 4.28774C18.3459 4.74402 18.3459 5.19998 18.3024 5.65626L19.809 5.79974C19.8615 5.24802 19.8615 4.69598 19.809 4.14426L18.3024 4.28774ZM18.301 5.67409C18.2703 6.10367 18.1788 6.50797 18.0279 6.89017L19.4355 7.44583C19.6447 6.91603 19.7692 6.36033 19.8105 5.78191L18.301 5.67409ZM18.0279 6.89017C17.8702 7.28973 17.6805 7.62986 17.4629 7.91667L18.6686 8.83133C18.979 8.42214 19.2333 7.95827 19.4355 7.44583L18.0279 6.89017ZM17.4629 7.91667C17.2727 8.16735 17.0213 8.37857 16.6936 8.54709L17.3858 9.89291C17.8981 9.62943 18.3307 9.27665 18.6686 8.83133L17.4629 7.91667ZM16.7013 8.54321C16.4065 8.69061 16.0737 8.76932 15.6897 8.76932V10.2827C16.2898 10.2827 16.8569 10.1574 17.3781 9.89679L16.7013 8.54321ZM14.933 9.526V11.812H16.4464V9.526H14.933ZM14.9385 11.9031C14.9958 12.3752 15.1372 12.8406 15.4455 13.1976C15.779 13.5837 16.2322 13.7567 16.7157 13.7567V12.2433C16.6541 12.2433 16.6257 12.2332 16.6173 12.2296C16.6111 12.2269 16.6036 12.2232 16.5909 12.2084C16.5572 12.1694 16.4797 12.0408 16.4409 11.7209L14.9385 11.9031ZM16.7157 12.2433H13.2597V13.7567H16.7157V12.2433ZM13.2597 12.2433H12.1437V13.7567H13.2597V12.2433ZM12.1437 13.7567C12.7573 13.7567 13.2853 13.4838 13.6082 12.9419C13.8929 12.4642 13.9753 11.8487 13.9622 11.2027L12.4492 11.2333C12.4601 11.7753 12.3776 12.0508 12.3082 12.1671C12.2806 12.2134 12.2624 12.2228 12.2587 12.2248C12.253 12.2279 12.223 12.2433 12.1437 12.2433V13.7567ZM13.9624 11.218V2.182H12.449V11.218H13.9624ZM13.9622 2.19728C13.9753 1.55134 13.8929 0.93577 13.6082 0.458124C13.2853 -0.0837745 12.7573 -0.35668 12.1437 -0.35668V1.15668C12.223 1.15668 12.253 1.17213 12.2587 1.17524C12.2624 1.17724 12.2806 1.18656 12.3082 1.23287C12.3776 1.34923 12.4601 1.62466 12.4492 2.16672L13.9622 2.19728ZM15.8157 9.88668C16.2992 9.88668 16.6042 9.56869 16.7619 9.32452C16.9212 9.07777 17.0281 8.76818 17.1078 8.44952L15.6396 8.08248C15.609 8.20491 15.5789 8.30087 15.551 8.37401C15.5225 8.44864 15.5006 8.48798 15.4906 8.50348C15.4795 8.52062 15.4941 8.49143 15.5467 8.45484C15.6078 8.41238 15.702 8.37332 15.8157 8.37332V9.88668ZM17.1051 8.46004C17.2803 7.79976 17.3749 7.03071 17.4001 6.16392L15.8874 6.12008C15.8645 6.90929 15.7792 7.55624 15.6423 8.07196L17.1051 8.46004ZM17.3997 6.17487C17.4368 5.3213 17.4306 4.46772 17.3811 3.61421L15.8703 3.70179C15.9168 4.50428 15.9226 5.3067 15.8877 6.10913L17.3997 6.17487ZM17.3817 3.62513C17.344 2.75769 17.2362 1.99175 17.0461 1.34013L15.5933 1.76387C15.7392 2.26425 15.8355 2.90231 15.8697 3.69087L17.3817 3.62513ZM17.0461 1.34013C16.952 1.01739 16.8276 0.705058 16.6476 0.458185C16.4631 0.205162 16.1474 -0.068679 15.6897 -0.068679V1.44468C15.5998 1.44468 15.5229 1.41675 15.4705 1.38413C15.4248 1.35564 15.4127 1.33315 15.4248 1.34981C15.4365 1.36583 15.4608 1.40453 15.4926 1.47729C15.5239 1.54884 15.5581 1.64308 15.5933 1.76387L17.0461 1.34013ZM14.933 0.688V9.13H16.4464V0.688H14.933ZM15.6897 9.88668H15.8157V8.37332H15.6897V9.88668ZM24.0115 12.478L23.6574 11.8093L24.0115 12.478ZM24.5335 12.064L23.979 11.5491L23.9688 11.5601L23.959 11.5716L24.5335 12.064ZM24.9655 11.506L24.3473 11.0696L24.3385 11.0821L24.3302 11.0949L24.9655 11.506ZM25.3075 10.894L26.0072 11.1821L26.01 11.1752L26.0127 11.1683L25.3075 10.894ZM25.5235 10.318L24.828 10.0199L24.8188 10.0415L24.8109 10.0635L25.5235 10.318ZM25.6855 9.904L26.4033 10.1433L26.4157 10.1063L26.4241 10.0681L25.6855 9.904ZM25.7215 9.742L26.4617 9.89913L24.9828 9.57785L25.7215 9.742ZM25.0375 12.964L25.0421 13.7207L25.6512 13.7169L25.7777 13.1211L25.0375 12.964ZM19.1695 13L19.1648 12.2433L19.1695 13.7567V13ZM19.9615 12.73L19.4771 12.1487L19.4689 12.1555L19.4608 12.1626L19.9615 12.73ZM20.2495 12.028H19.4928V12.0595L19.4954 12.0908L20.2495 12.028ZM20.2495 1.372L19.4986 1.27814L19.4928 1.32489V1.372H20.2495ZM19.9615 0.669999L19.4771 1.2513L19.4847 1.2577L19.4926 1.2639L19.9615 0.669999ZM22.5895 12.64H21.8328V13.3967H22.5895V12.64ZM23.3815 13.3967C23.7293 13.3967 24.0601 13.3084 24.3655 13.1467L23.6574 11.8093C23.5548 11.8636 23.4656 11.8833 23.3815 11.8833V13.3967ZM24.3655 13.1467C24.6497 12.9963 24.8996 12.7996 25.108 12.5564L23.959 11.5716C23.8794 11.6644 23.7812 11.7437 23.6574 11.8093L24.3655 13.1467ZM25.088 12.5789C25.2756 12.3768 25.4463 12.1558 25.6008 11.9171L24.3302 11.0949C24.2206 11.2642 24.1034 11.4152 23.979 11.5491L25.088 12.5789ZM25.5837 11.9424C25.7561 11.6981 25.899 11.4447 26.0072 11.1821L24.6078 10.6059C24.5479 10.7513 24.4629 10.9059 24.3473 11.0696L25.5837 11.9424ZM26.0127 11.1683C26.0985 10.9475 26.1731 10.7487 26.2361 10.5725L24.8109 10.0635C24.7538 10.2233 24.6844 10.4085 24.6022 10.6197L26.0127 11.1683ZM26.219 10.6161C26.2949 10.4388 26.358 10.2794 26.4033 10.1433L24.9676 9.66472C24.941 9.74464 24.896 9.86119 24.828 10.0199L26.219 10.6161ZM26.4241 10.0681L26.4601 9.90615L24.9828 9.57785L24.9468 9.73985L26.4241 10.0681ZM24.9813 9.58487L24.2973 12.8069L25.7777 13.1211L26.4617 9.89913L24.9813 9.58487ZM25.0328 12.2073L19.1648 12.2433L19.1741 13.7567L25.0421 13.7207L25.0328 12.2073ZM19.1695 13.7567C19.6408 13.7567 20.0944 13.6218 20.4621 13.2974L19.4608 12.1626C19.4206 12.1982 19.3462 12.2433 19.1695 12.2433V13.7567ZM20.4459 13.3113C20.8576 12.9682 21.0473 12.4908 21.0035 11.9652L19.4954 12.0908C19.4972 12.1127 19.4961 12.1253 19.4954 12.1305C19.4947 12.1353 19.4943 12.1351 19.4954 12.1323C19.4966 12.1294 19.4977 12.1282 19.4967 12.1295C19.4955 12.1311 19.4901 12.1378 19.4771 12.1487L20.4459 13.3113ZM21.0062 12.028V1.372H19.4928V12.028H21.0062ZM21.0003 1.46585C21.0692 0.914777 20.866 0.420033 20.4303 0.0760955L19.4926 1.2639C19.5072 1.27545 19.5121 1.28181 19.5118 1.28147C19.5117 1.28135 19.5107 1.27999 19.5092 1.27738C19.5076 1.27475 19.506 1.27147 19.5044 1.2677C19.5029 1.26394 19.5018 1.26042 19.501 1.25744C19.5002 1.25448 19.5 1.25273 19.5 1.25253C19.4999 1.25199 19.5009 1.25981 19.4986 1.27814L21.0003 1.46585ZM20.4459 0.088702C20.0735 -0.221593 19.624 -0.35668 19.1515 -0.35668V1.15668C19.3269 1.15668 19.4174 1.20159 19.4771 1.2513L20.4459 0.088702ZM19.1515 1.15668H23.5795V-0.35668H19.1515V1.15668ZM23.5795 -0.35668C23.1363 -0.35668 22.6643 -0.247837 22.3069 0.103061C21.9469 0.456477 21.8328 0.927809 21.8328 1.372H23.3462C23.3462 1.16819 23.3971 1.15352 23.3671 1.18294C23.3397 1.20984 23.3627 1.15668 23.5795 1.15668V-0.35668ZM21.8328 1.372V12.64H23.3462V1.372H21.8328ZM22.5895 13.3967H23.3815V11.8833H22.5895V13.3967ZM35.0556 0.795999L34.7455 1.48622L35.0556 0.795999ZM37.0536 2.254L36.4742 2.74072L36.4799 2.74738L37.0536 2.254ZM38.2416 4.324L37.5281 4.57646L37.5331 4.58969L38.2416 4.324ZM38.2596 9.058L38.9717 9.31391L38.9729 9.31041L38.2596 9.058ZM37.0716 11.128L36.4931 10.6402L36.4922 10.6413L37.0716 11.128ZM35.0556 12.586L35.3573 13.2799L35.362 13.2779L35.0556 12.586ZM29.4756 12.586L29.1655 13.2763L29.1775 13.2815L29.4756 12.586ZM27.4596 11.128L26.8755 11.609L26.8806 11.6153L26.8859 11.6214L27.4596 11.128ZM26.2896 9.058L25.5763 9.31041L25.5775 9.31391L26.2896 9.058ZM26.2896 4.324L27.0017 4.57991L27.0029 4.57641L26.2896 4.324ZM27.4596 2.254L26.8859 1.76058L26.8802 1.76731L27.4596 2.254ZM29.4756 0.795999L29.1692 0.104121L29.1655 0.105781L29.4756 0.795999ZM35.9016 11.56L36.3474 12.1714L36.3556 12.1655L36.3636 12.1593L35.9016 11.56ZM37.0356 9.832L36.3052 9.63393L36.3023 9.64556L37.0356 9.832ZM37.0356 7.654L36.3022 7.84026L36.3029 7.84308L37.0356 7.654ZM36.1176 5.35L35.4448 5.69658L35.4514 5.70874L36.1176 5.35ZM34.5696 3.28L34.0399 3.82032L34.0452 3.82557L34.0507 3.8307L34.5696 3.28ZM32.6436 1.768L32.2457 2.41165L32.2509 2.4148L32.6436 1.768ZM30.5916 1.174L30.6044 1.93057L30.5916 1.174ZM28.6476 1.822L28.2078 1.20626L28.1957 1.21493L28.1839 1.22406L28.6476 1.822ZM27.4776 3.586L26.7464 3.39102L26.7443 3.39956L27.4776 3.586ZM27.4956 5.782L26.7622 5.96826L26.7629 5.97108L27.4956 5.782ZM28.3956 8.068L27.7251 8.41874L27.7294 8.42674L28.3956 8.068ZM29.9616 10.138L29.4371 10.6835L29.4427 10.6887L29.9616 10.138ZM31.9056 11.632L31.5129 12.2789L31.5214 12.2839L31.9056 11.632ZM33.9756 12.208L33.9628 11.4514L33.9756 12.208ZM32.2656 0.994678C33.2053 0.994678 34.0275 1.16365 34.7455 1.48622L35.3657 0.105781C34.4277 -0.315648 33.3899 -0.51868 32.2656 -0.51868V0.994678ZM34.7455 1.48622C35.486 1.8189 36.0543 2.24076 36.4742 2.74069L37.633 1.76731C37.0449 1.06724 36.2812 0.517097 35.3657 0.105781L34.7455 1.48622ZM36.4799 2.74738C36.9321 3.27318 37.2821 3.88061 37.5283 4.57641L38.9549 4.07159C38.6491 3.20739 38.2071 2.43481 37.6273 1.76062L36.4799 2.74738ZM37.5331 4.58969C37.7899 5.27448 37.9169 5.97058 37.9169 6.682H39.4303C39.4303 5.78542 39.2693 4.90952 38.9501 4.05831L37.5331 4.58969ZM37.9169 6.682C37.9169 7.39751 37.7944 8.10426 37.5463 8.80559L38.9729 9.31041C39.2768 8.45174 39.4303 7.57449 39.4303 6.682H37.9169ZM37.5475 8.80209C37.3013 9.48717 36.95 10.0983 36.4931 10.6402L37.6501 11.6158C38.2252 10.9337 38.6659 10.1648 38.9717 9.31391L37.5475 8.80209ZM36.4922 10.6413C36.0741 11.139 35.5019 11.5608 34.7492 11.8941L35.362 13.2779C36.2894 12.8672 37.0611 12.317 37.651 11.6147L36.4922 10.6413ZM34.7539 11.8921C34.0338 12.2052 33.2086 12.3693 32.2656 12.3693V13.8827C33.3866 13.8827 34.4214 13.6868 35.3573 13.2799L34.7539 11.8921ZM32.2656 12.3693C31.3362 12.3693 30.5091 12.2057 29.7737 11.8905L29.1775 13.2815C30.1221 13.6863 31.155 13.8827 32.2656 13.8827V12.3693ZM29.7857 11.8958C29.0441 11.5626 28.467 11.1389 28.0333 10.6346L26.8859 11.6214C27.4842 12.3171 28.2511 12.8654 29.1655 13.2762L29.7857 11.8958ZM28.0437 10.647C27.5966 10.1041 27.2492 9.49069 27.0017 8.80209L25.5775 9.31391C25.882 10.1613 26.3146 10.9279 26.8755 11.609L28.0437 10.647ZM27.0029 8.80559C26.7548 8.10426 26.6323 7.39751 26.6323 6.682H25.1189C25.1189 7.57449 25.2724 8.45174 25.5763 9.31041L27.0029 8.80559ZM26.6323 6.682C26.6323 5.96656 26.7547 5.26707 27.0017 4.57991L25.5775 4.06809C25.2725 4.91693 25.1189 5.78944 25.1189 6.682H26.6323ZM27.0029 4.57641C27.2504 3.87707 27.5965 3.26744 28.039 2.74069L26.8802 1.76731C26.3147 2.44056 25.8808 3.21093 25.5763 4.07159L27.0029 4.57641ZM28.0333 2.74738C28.467 2.24308 29.0441 1.81941 29.7857 1.48622L29.1655 0.105781C28.2511 0.516585 27.4842 1.06492 26.8859 1.76062L28.0333 2.74738ZM29.782 1.48787C30.5154 1.1631 31.3394 0.994678 32.2656 0.994678V-0.51868C31.1518 -0.51868 30.1158 -0.315098 29.1692 0.104131L29.782 1.48787ZM36.3636 12.1593C37.0743 11.6114 37.5474 10.8898 37.769 10.0184L36.3023 9.64556C36.1638 10.1902 35.8809 10.6206 35.4396 10.9607L36.3636 12.1593ZM37.7659 10.03C37.9939 9.18929 37.9915 8.32972 37.7683 7.46492L36.3029 7.84308C36.4638 8.46628 36.4613 9.05871 36.3053 9.63395L37.7659 10.03ZM37.769 7.46774C37.5599 6.64424 37.2293 5.81855 36.7838 4.99126L35.4514 5.70874C35.8459 6.44145 36.1273 7.15176 36.3022 7.84026L37.769 7.46774ZM36.7903 5.00347C36.3445 4.13821 35.7774 3.37843 35.0885 2.7293L34.0507 3.8307C34.6098 4.35757 35.0747 4.97779 35.4449 5.69653L36.7903 5.00347ZM35.0993 2.73968C34.4496 2.10266 33.7621 1.56189 33.0363 1.1212L32.2509 2.4148C32.8691 2.79011 33.4656 3.25734 34.0399 3.82032L35.0993 2.73968ZM33.0415 1.12437C32.2705 0.647755 31.4454 0.40274 30.5788 0.41743L30.6044 1.93057C31.1538 1.92126 31.6967 2.07224 32.2457 2.41163L33.0415 1.12437ZM30.5788 0.41743C29.7142 0.432084 28.9178 0.699087 28.2078 1.20626L29.0874 2.43773C29.5534 2.10491 30.053 1.93992 30.6044 1.93057L30.5788 0.41743ZM28.1839 1.22406C27.4649 1.78167 26.9811 2.51132 26.7465 3.39103L28.2087 3.78097C28.3581 3.22068 28.6543 2.77433 29.1113 2.41994L28.1839 1.22406ZM26.7443 3.39956C26.5311 4.2381 26.5413 5.0985 26.7622 5.96826L28.229 5.59574C28.0659 4.9535 28.0641 4.3499 28.211 3.77244L26.7443 3.39956ZM26.7629 5.97108C26.9713 6.77859 27.2941 7.59467 27.7251 8.41872L29.0661 7.71728C28.6811 6.98133 28.4039 6.27341 28.2283 5.59292L26.7629 5.97108ZM27.7294 8.42674C28.1858 9.27432 28.7551 10.0277 29.4371 10.6834L30.4861 9.59256C29.9201 9.04832 29.4454 8.42168 29.0618 7.70926L27.7294 8.42674ZM29.4427 10.6887C30.1018 11.3098 30.7917 11.8409 31.5129 12.2788L32.2983 10.9852C31.6755 10.6071 31.0694 10.1422 30.4805 9.5873L29.4427 10.6887ZM31.5214 12.2839C32.301 12.7433 33.1271 12.9792 33.9884 12.9646L33.9628 11.4514C33.4081 11.4608 32.8542 11.3127 32.2898 10.9801L31.5214 12.2839ZM33.9884 12.9646C34.8534 12.9499 35.6464 12.6826 36.3474 12.1714L35.4558 10.9486C35.0048 11.2774 34.5138 11.4421 33.9628 11.4514L33.9884 12.9646ZM45.0525 11.362L45.7999 11.2431L45.7975 11.2299L45.0525 11.362ZM45.4305 12.568L44.7841 12.9614L44.7881 12.9679L44.7921 12.9742L45.4305 12.568ZM46.2045 13L46.1987 13.7567L46.2566 12.2451L46.2045 13ZM41.5245 12.964L41.4801 12.2086L41.5187 13.7207L41.5245 12.964ZM42.0285 12.802L42.4736 13.414L42.4825 13.4073L42.0285 12.802ZM42.3165 12.37L41.5986 12.1307L41.5913 12.1527L41.5854 12.175L42.3165 12.37ZM42.4425 11.866L43.1904 11.9811L43.1916 11.973L42.4425 11.866ZM42.4245 11.236L41.6712 11.3077L41.6729 11.3254L41.6754 11.343L42.4245 11.236ZM42.3525 10.66L43.097 10.5246V10.5246L42.3525 10.66ZM42.2445 10.12L41.4937 10.2139L41.4976 10.2451L41.504 10.2759L42.2445 10.12ZM42.2085 9.922L42.9263 9.68272L42.7592 9.18142L42.2311 9.16566L42.2085 9.922ZM39.7965 9.85L39.8191 9.09366L39.2102 9.07548L39.0624 9.66648L39.7965 9.85ZM39.7425 10.084L39.0038 9.91985L39.0006 9.93419L38.998 9.94864L39.7425 10.084ZM39.6345 10.696L40.379 10.8314L40.3809 10.8204L39.6345 10.696ZM39.5445 11.272L38.7954 11.165L38.7929 11.1826L38.7912 11.2003L39.5445 11.272ZM39.5265 11.884L38.772 11.942L38.7742 11.9707L38.7786 11.9991L39.5265 11.884ZM39.6345 12.388L38.9034 12.583L38.9114 12.6131L38.9219 12.6425L39.6345 12.388ZM39.9045 12.784L39.4318 13.3749L39.4454 13.3857L39.4594 13.396L39.9045 12.784ZM40.4085 12.964V13.7207L40.4969 12.2125L40.4085 12.964ZM37.7445 12.964L37.6506 12.2132L37.7445 13.7207V12.964ZM38.2485 12.802L38.6298 13.4556L38.6375 13.4511L38.6451 13.4464L38.2485 12.802ZM38.8425 12.046L38.1373 11.7717L38.1305 11.7891L38.1246 11.8067L38.8425 12.046ZM39.0225 11.506L39.7567 11.6896L39.7598 11.6761L39.0225 11.506ZM39.1665 10.804L38.4278 10.6399L38.4255 10.6504L38.4234 10.6611L39.1665 10.804ZM39.2205 10.552L38.4805 10.3939L38.4785 10.4036L39.2205 10.552ZM40.9665 2.38L41.7065 2.5381L41.7347 2.40576L41.7154 2.27182L40.9665 2.38ZM40.7325 0.76L40.6191 0.0118599L39.8762 0.124433L39.9836 0.868175L40.7325 0.76ZM43.1085 0.399999L43.8535 0.267871L43.7247 -0.458681L42.9951 -0.348141L43.1085 0.399999ZM39.9765 9.346L39.235 9.19508L39.0503 10.1027H39.9765V9.346ZM42.1185 9.346V10.1027H42.9848L42.8683 9.24426L42.1185 9.346ZM41.2905 3.244L42.0403 3.14226L41.9514 2.48732H41.2905V3.244ZM41.2185 3.244V2.48732H40.6003L40.477 3.09308L41.2185 3.244ZM44.3052 11.4809C44.3959 12.0507 44.5422 12.564 44.7841 12.9614L46.0768 12.1746C45.9828 12.02 45.8771 11.7293 45.7998 11.2431L44.3052 11.4809ZM44.7921 12.9742C45.1053 13.4664 45.5964 13.7165 46.1524 13.7549L46.2566 12.2451C46.1165 12.2355 46.0917 12.1976 46.0689 12.1618L44.7921 12.9742ZM46.2103 12.2433L41.5303 12.2073L41.5187 13.7207L46.1987 13.7567L46.2103 12.2433ZM41.5689 13.7194C41.8811 13.701 42.1982 13.6142 42.4735 13.414L41.5834 12.19C41.5948 12.1818 41.5759 12.203 41.4801 12.2086L41.5689 13.7194ZM42.4825 13.4073C42.7673 13.1937 42.9575 12.9028 43.0476 12.565L41.5854 12.175C41.5831 12.1835 41.5811 12.1886 41.58 12.1909C41.579 12.1932 41.5786 12.1938 41.5789 12.1933C41.5793 12.1927 41.5796 12.1924 41.5796 12.1924C41.5795 12.1925 41.5781 12.194 41.5745 12.1967L42.4825 13.4073ZM43.0343 12.6093C43.1052 12.3966 43.1587 12.1867 43.1904 11.9811L41.6946 11.7509C41.6782 11.8573 41.6478 11.9834 41.5986 12.1307L43.0343 12.6093ZM43.1916 11.973C43.2294 11.7081 43.2152 11.4203 43.1736 11.129L41.6754 11.343C41.7058 11.5557 41.7036 11.6879 41.6934 11.759L43.1916 11.973ZM43.1778 11.1643C43.1532 10.9061 43.1268 10.6887 43.097 10.5246L41.608 10.7954C41.6262 10.8953 41.6478 11.0619 41.6712 11.3077L43.1778 11.1643ZM43.097 10.5246C43.0711 10.3826 43.0335 10.1948 42.9849 9.96412L41.504 10.2759C41.5515 10.5012 41.5858 10.6734 41.608 10.7954L43.097 10.5246ZM42.9953 10.0261C42.9838 9.93363 42.9649 9.79846 42.9263 9.68272L41.4906 10.1613C41.4843 10.1422 41.4814 10.1297 41.4809 10.1279C41.4803 10.1252 41.4807 10.1268 41.482 10.1339C41.4847 10.1485 41.4887 10.1743 41.4937 10.2139L42.9953 10.0261ZM42.2311 9.16566L39.8191 9.09366L39.7739 10.6063L42.1859 10.6783L42.2311 9.16566ZM39.0624 9.66648C39.0478 9.7249 39.028 9.81127 39.0038 9.91985L40.4812 10.2481C40.505 10.1407 40.5212 10.0711 40.5306 10.0335L39.0624 9.66648ZM38.998 9.94864C38.9498 10.2138 38.913 10.4221 38.8881 10.5716L40.3809 10.8204C40.404 10.6819 40.4392 10.4822 40.487 10.2194L38.998 9.94864ZM38.89 10.5606C38.8634 10.707 38.8318 10.9103 38.7954 11.165L40.2936 11.379C40.3292 11.1297 40.3576 10.949 40.379 10.8314L38.89 10.5606ZM38.7912 11.2003C38.7653 11.4725 38.7553 11.7247 38.772 11.942L40.2809 11.826C40.2737 11.7313 40.2757 11.5755 40.2978 11.3437L38.7912 11.2003ZM38.7786 11.9991C38.8074 12.1863 38.8496 12.3812 38.9034 12.583L40.3656 12.193C40.3234 12.0348 40.2936 11.8937 40.2744 11.7689L38.7786 11.9991ZM38.9219 12.6425C39.0214 12.9211 39.1855 13.1778 39.4318 13.3749L40.3772 12.1931C40.3782 12.194 40.3765 12.1931 40.3722 12.1867C40.3675 12.1798 40.3579 12.1637 40.3471 12.1335L38.9219 12.6425ZM39.4594 13.396C39.7202 13.5856 40.02 13.6802 40.3201 13.7155L40.4969 12.2125C40.389 12.1998 40.3528 12.1744 40.3495 12.172L39.4594 13.396ZM40.4085 12.2073H37.7445V13.7207H40.4085V12.2073ZM37.8383 13.7148C38.1156 13.6802 38.3845 13.5987 38.6298 13.4556L37.8672 12.1484C37.8245 12.1733 37.7574 12.1998 37.6506 12.2132L37.8383 13.7148ZM38.6451 13.4464C38.8401 13.3264 39.0274 13.1843 39.178 13.0123L38.039 12.0157C38.0216 12.0357 37.9689 12.0856 37.8519 12.1576L38.6451 13.4464ZM39.178 13.0123C39.3611 12.803 39.4776 12.5336 39.5603 12.2853L38.1246 11.8067C38.0968 11.8904 38.0722 11.9486 38.0532 11.9866C38.0333 12.0265 38.0263 12.0303 38.039 12.0157L39.178 13.0123ZM39.5477 12.3203C39.6376 12.0891 39.7099 11.8764 39.7566 11.6895L38.2884 11.3225C38.2631 11.4236 38.2154 11.5709 38.1373 11.7717L39.5477 12.3203ZM39.7598 11.6761C39.799 11.5061 39.8492 11.261 39.9096 10.9469L38.4234 10.6611C38.3638 10.971 38.318 11.1939 38.2852 11.3359L39.7598 11.6761ZM39.9052 10.9681C39.9296 10.8584 39.9489 10.7683 39.9625 10.7004L38.4785 10.4036C38.4681 10.4557 38.4514 10.5336 38.4278 10.6399L39.9052 10.9681ZM39.9605 10.7101L41.7065 2.5381L40.2265 2.2219L38.4805 10.3939L39.9605 10.7101ZM41.7154 2.27182L41.4814 0.651824L39.9836 0.868175L40.2176 2.48817L41.7154 2.27182ZM40.8458 1.50814L43.2218 1.14814L42.9951 -0.348141L40.6191 0.0118599L40.8458 1.50814ZM42.3634 0.532127L44.3074 11.4941L45.7975 11.2299L43.8535 0.267871L42.3634 0.532127ZM39.9765 10.1027H42.1185V8.58932H39.9765V10.1027ZM42.8683 9.24426L42.0403 3.14226L40.5407 3.34574L41.3687 9.44774L42.8683 9.24426ZM41.2905 2.48732H41.2185V4.00068H41.2905V2.48732ZM40.477 3.09308L39.235 9.19508L40.718 9.49692L41.96 3.39492L40.477 3.09308ZM51.3033 0.831999L51.6787 0.175018V0.175018L51.3033 0.831999ZM52.5453 2.002L51.9133 2.41819L51.9181 2.42534L52.5453 2.002ZM53.3553 3.658L52.6401 3.90555L52.6446 3.91769L53.3553 3.658ZM53.7693 5.638L53.0144 5.69006V5.69006L53.7693 5.638ZM53.7693 7.726L53.0144 7.67394L53.7693 7.726ZM53.3553 9.724L54.066 9.98369L54.0676 9.97935L53.3553 9.724ZM52.5273 11.398L53.1545 11.8214L53.1592 11.8142L52.5273 11.398ZM51.2853 12.55L51.6488 13.2138L51.6607 13.207L51.2853 12.55ZM49.6293 12.964V12.2073L49.6211 12.2074L49.6293 12.964ZM46.2993 13L46.2308 12.2464L46.3075 13.7566L46.2993 13ZM47.2533 11.218H46.4966V11.226L46.4968 11.2341L47.2533 11.218ZM47.2533 2.146L46.4968 2.12881L46.4966 2.1374V2.146H47.2533ZM47.0553 0.903999L46.3627 1.20874L46.3677 1.22018L46.3731 1.23144L47.0553 0.903999ZM46.2993 0.399999V-0.35668L46.2264 1.15316L46.2993 0.399999ZM50.0253 12.64L50.065 13.3956L50.112 13.3932L50.1583 13.3849L50.0253 12.64ZM50.8713 11.29L51.6015 11.4882L50.8713 11.29ZM51.2853 8.302L52.0413 8.3335L52.0413 8.33318L51.2853 8.302ZM51.2673 4.828L50.5112 4.8595L50.5116 4.86736L51.2673 4.828ZM50.8353 1.912L51.5594 1.69256V1.69256L50.8353 1.912ZM49.7013 0.723999V-0.0326794H48.9457L48.9446 0.722858L49.7013 0.723999ZM49.6833 12.658L48.9266 12.6569L48.9254 13.4556L49.723 13.4136L49.6833 12.658ZM49.6473 1.15668C50.1202 1.15668 50.5421 1.26857 50.9279 1.48898L51.6787 0.175018C51.0564 -0.18057 50.3743 -0.35668 49.6473 -0.35668V1.15668ZM50.9279 1.48898C51.327 1.71708 51.6537 2.02395 51.9133 2.41817L53.1772 1.58583C52.7888 0.996051 52.2875 0.52292 51.6787 0.175018L50.9279 1.48898ZM51.9181 2.42534C52.2006 2.8438 52.4428 3.33517 52.6402 3.90552L54.0703 3.41048C53.8358 2.73283 53.538 2.1202 53.1724 1.57866L51.9181 2.42534ZM52.6446 3.91769C52.847 4.47162 52.971 5.06144 53.0144 5.69006L54.5242 5.58594C54.4715 4.82256 54.3196 4.09238 54.066 3.39831L52.6446 3.91769ZM53.0144 5.69006C53.06 6.35139 53.06 7.0126 53.0144 7.67394L54.5242 7.77806C54.5746 7.04739 54.5746 6.31661 54.5242 5.58594L53.0144 5.69006ZM53.0144 7.67394C52.971 8.30282 52.8467 8.90025 52.643 9.46865L54.0676 9.97935C54.3198 9.27575 54.4715 8.54118 54.5242 7.77806L53.0144 7.67394ZM52.6446 9.46431C52.4341 10.0402 52.1833 10.5445 51.8953 10.9818L53.1592 11.8142C53.5192 11.2675 53.8204 10.6558 54.066 9.98369L52.6446 9.46431ZM51.9001 10.9747C51.6412 11.3583 51.3134 11.6624 50.9099 11.893L51.6607 13.207C52.2652 12.8616 52.7654 12.3977 53.1544 11.8213L51.9001 10.9747ZM50.9218 11.8863C50.5342 12.0986 50.1081 12.2073 49.6293 12.2073V13.7207C50.3505 13.7207 51.0283 13.5534 51.6487 13.2137L50.9218 11.8863ZM49.6211 12.2074L46.2911 12.2434L46.3075 13.7566L49.6375 13.7206L49.6211 12.2074ZM46.3678 13.7536C46.9564 13.7001 47.4231 13.3835 47.6999 12.8666C47.9486 12.4019 48.0229 11.8185 48.0098 11.2019L46.4968 11.2341C46.5076 11.7455 46.4349 12.0231 46.3657 12.1524C46.3362 12.2074 46.3144 12.2226 46.3095 12.2259C46.3051 12.2288 46.286 12.2414 46.2308 12.2464L46.3678 13.7536ZM48.01 11.218V2.146H46.4966V11.218H48.01ZM48.0098 2.16319C48.023 1.57875 47.9546 1.029 47.7374 0.576561L46.3731 1.23144C46.4439 1.379 46.5075 1.65725 46.4968 2.12881L48.0098 2.16319ZM47.7479 0.599255C47.4881 0.00896919 46.9705 -0.295255 46.3722 -0.353161L46.2264 1.15316C46.317 1.16193 46.3468 1.18207 46.3475 1.18259C46.3484 1.18318 46.3482 1.18302 46.3488 1.18372C46.3497 1.18478 46.3551 1.19159 46.3627 1.20874L47.7479 0.599255ZM46.2993 1.15668H49.6473V-0.35668H46.2993V1.15668ZM50.1583 13.3849C50.6294 13.3008 50.9379 12.9658 51.13 12.6593C51.3276 12.3439 51.4788 11.9405 51.6015 11.4882L50.141 11.0918C50.0358 11.4795 49.9319 11.7211 49.8476 11.8557C49.7577 11.9992 49.7571 11.9192 49.8923 11.8951L50.1583 13.3849ZM51.6015 11.4882C51.8482 10.5795 51.9917 9.52486 52.0413 8.3335L50.5293 8.2705C50.4829 9.38314 50.3504 10.3205 50.141 11.0918L51.6015 11.4882ZM52.0413 8.33318C52.0903 7.1459 52.0842 5.96437 52.0229 4.78864L50.5116 4.86736C50.5704 5.99563 50.5763 7.13009 50.5292 8.27082L52.0413 8.33318ZM52.0233 4.7965C51.9736 3.60369 51.8236 2.56424 51.5594 1.69256L50.1111 2.13144C50.327 2.84375 50.465 3.7483 50.5112 4.8595L52.0233 4.7965ZM51.5594 1.69256C51.4289 1.26178 51.2647 0.869453 51.0423 0.569943C50.8158 0.264875 50.456 -0.0326794 49.9533 -0.0326794V1.48068C49.7985 1.48068 49.7597 1.38112 49.8272 1.47206C49.8989 1.56855 50.0017 1.77022 50.1111 2.13144L51.5594 1.69256ZM49.9533 -0.0326794H49.7013V1.48068H49.9533V-0.0326794ZM48.9446 0.722858L48.9266 12.6569L50.44 12.6591L50.458 0.725141L48.9446 0.722858ZM49.723 13.4136L50.065 13.3956L49.9855 11.8844L49.6435 11.9024L49.723 13.4136Z" fill="white" mask="url(#path-1-outside-1_1015_1801)"/>
</g>
<defs>
<filter id="filter0_d_1015_1801" x="0.666992" y="0.238037" width="57.1738" height="20.8879" filterUnits="userSpaceOnUse" color-interpolation-filters="sRGB">
<feFlood flood-opacity="0" result="BackgroundImageFix"/>
<feColorMatrix in="SourceAlpha" type="matrix" values="0 0 0 0 0 0 0 0 0 0 0 0 0 0 0 0 0 0 127 0" result="hardAlpha"/>
<feOffset dy="4"/>
<feGaussianBlur stdDeviation="2"/>
<feComposite in2="hardAlpha" operator="out"/>
<feColorMatrix type="matrix" values="0 0 0 0 0 0 0 0 0 0 0 0 0 0 0 0 0 0 0.25 0"/>
<feBlend mode="normal" in2="BackgroundImageFix" result="effect1_dropShadow_1015_1801"/>
<feBlend mode="normal" in="SourceGraphic" in2="effect1_dropShadow_1015_1801" result="shape"/>
</filter>
</defs>
</svg>
