<svg width="31" height="31" viewBox="0 0 31 31" fill="none" xmlns="http://www.w3.org/2000/svg">
<g id="maki:cross">
<path id="Vector" d="M7.52248 4.6913L15.4998 12.6686L23.4358 4.73263C23.6111 4.54605 23.8223 4.39679 24.0567 4.2938C24.2911 4.19082 24.5438 4.13622 24.7998 4.1333C25.3479 4.1333 25.8736 4.35104 26.2612 4.73861C26.6487 5.12619 26.8665 5.65185 26.8665 6.19997C26.8713 6.45335 26.8243 6.70503 26.7283 6.93959C26.6324 7.17414 26.4895 7.38662 26.3085 7.56397L18.2691 15.5L26.3085 23.5393C26.6491 23.8725 26.8488 24.3238 26.8665 24.8C26.8665 25.3481 26.6487 25.8737 26.2612 26.2613C25.8736 26.6489 25.3479 26.8666 24.7998 26.8666C24.5364 26.8776 24.2736 26.8336 24.0282 26.7375C23.7827 26.6415 23.5598 26.4954 23.3738 26.3086L15.4998 18.3313L7.54315 26.288C7.36853 26.4683 7.15992 26.6123 6.92935 26.7116C6.69879 26.811 6.45084 26.8636 6.19982 26.8666C5.6517 26.8666 5.12604 26.6489 4.73846 26.2613C4.35089 25.8737 4.13315 25.3481 4.13315 24.8C4.12833 24.5466 4.17534 24.2949 4.27129 24.0603C4.36725 23.8258 4.51012 23.6133 4.69115 23.436L12.7305 15.5L4.69115 7.46063C4.35053 7.1274 4.1508 6.67615 4.13315 6.19997C4.13315 5.65185 4.35089 5.12619 4.73846 4.73861C5.12604 4.35104 5.6517 4.1333 6.19982 4.1333C6.69582 4.1395 7.17115 4.33997 7.52248 4.6913Z" fill="black"/>
</g>
</svg>
